<svg xmlns="http://www.w3.org/2000/svg" width="900" height="290" style="font-family: -apple-system, BlinkMacSystemFont, 'Segoe UI', Helvetica, Arial, sans-serif;">
  <rect width="100%" height="100%" fill="white"/>
  <g>
    <line x1="40" y1="220.00" x2="860" y2="220.00" stroke="#e5e7eb"/><text x="32" y="224.00" font-size="10" fill="#111827" text-anchor="end">0</text><line x1="40" y1="175.00" x2="860" y2="175.00" stroke="#e5e7eb"/><text x="32" y="179.00" font-size="10" fill="#111827" text-anchor="end">500</text><line x1="40" y1="130.00" x2="860" y2="130.00" stroke="#e5e7eb"/><text x="32" y="134.00" font-size="10" fill="#111827" text-anchor="end">1k</text><line x1="40" y1="85.00" x2="860" y2="85.00" stroke="#e5e7eb"/><text x="32" y="89.00" font-size="10" fill="#111827" text-anchor="end">1.5k</text><line x1="40" y1="40.00" x2="860" y2="40.00" stroke="#e5e7eb"/><text x="32" y="44.00" font-size="10" fill="#111827" text-anchor="end">2k</text>
    <line x1="40.00" y1="40" x2="40.00" y2="220" stroke="#e5e7eb" opacity="0.5"/><line x1="119.35" y1="40" x2="119.35" y2="220" stroke="#e5e7eb" opacity="0.5"/><line x1="198.71" y1="40" x2="198.71" y2="220" stroke="#e5e7eb" opacity="0.5"/><line x1="278.06" y1="40" x2="278.06" y2="220" stroke="#e5e7eb" opacity="0.5"/><line x1="357.42" y1="40" x2="357.42" y2="220" stroke="#e5e7eb" opacity="0.5"/><line x1="436.77" y1="40" x2="436.77" y2="220" stroke="#e5e7eb" opacity="0.5"/><line x1="516.13" y1="40" x2="516.13" y2="220" stroke="#e5e7eb" opacity="0.5"/><line x1="595.48" y1="40" x2="595.48" y2="220" stroke="#e5e7eb" opacity="0.5"/><line x1="674.84" y1="40" x2="674.84" y2="220" stroke="#e5e7eb" opacity="0.5"/><line x1="754.19" y1="40" x2="754.19" y2="220" stroke="#e5e7eb" opacity="0.5"/><line x1="833.55" y1="40" x2="833.55" y2="220" stroke="#e5e7eb" opacity="0.5"/>
    <line x1="40" y1="220" x2="860" y2="220" stroke="#9ca3af"/>
    <line x1="40" y1="40"   x2="40"   y2="220" stroke="#9ca3af"/>
    <path d="M 40.00 219.82 L 48.82 214.15 L 57.63 214.06 L 66.45 214.06 L 75.27 213.25 L 84.09 213.25 L 92.90 204.88 L 101.72 185.98 L 110.54 185.98 L 119.35 180.94 L 128.17 152.59 L 136.99 159.97 L 145.81 158.89 L 154.62 158.17 L 163.44 139.63 L 172.26 139.63 L 181.08 157.18 L 189.89 154.66 L 198.71 154.39 L 207.53 151.60 L 216.34 150.97 L 225.16 150.70 L 233.98 149.80 L 242.80 149.80 L 251.61 147.46 L 260.43 144.94 L 269.25 144.76 L 278.06 140.71 L 286.88 134.23 L 295.70 134.23 L 304.52 133.69 L 313.33 133.69 L 322.15 133.69 L 330.97 133.69 L 339.78 133.69 L 348.60 133.69 L 357.42 132.97 L 366.24 132.97 L 375.05 132.97 L 383.87 132.97 L 392.69 132.97 L 401.51 132.97 L 410.32 132.97 L 419.14 132.97 L 427.96 132.97 L 436.77 132.97 L 445.59 132.97 L 454.41 132.97 L 463.23 132.97 L 472.04 132.97 L 480.86 132.97 L 489.68 132.97 L 498.49 132.97 L 507.31 132.97 L 516.13 132.97 L 524.95 132.97 L 533.76 132.97 L 542.58 132.97 L 551.40 132.97 L 560.22 132.97 L 569.03 132.97 L 577.85 132.97 L 586.67 132.97 L 595.48 132.97 L 604.30 132.97 L 613.12 132.97 L 621.94 132.97 L 630.75 132.97 L 639.57 132.97 L 648.39 132.97 L 657.20 132.97 L 666.02 132.97 L 674.84 132.97 L 683.66 132.97 L 692.47 132.97 L 701.29 132.97 L 710.11 132.97 L 718.92 132.97 L 727.74 132.97 L 736.56 132.97 L 745.38 132.97 L 754.19 132.97 L 763.01 132.97 L 771.83 132.97 L 780.65 132.97 L 789.46 132.97 L 798.28 132.97 L 807.10 132.97 L 815.91 132.97 L 824.73 132.97 L 833.55 132.97 L 842.37 132.97 L 851.18 132.97 L 860.00 132.97" fill="none" stroke="#111827" stroke-width="2"/>
    <circle cx="860.00" cy="132.97" r="3" fill="#111827"/>
    <text x="40.00" y="235.00" font-size="9" fill="#111827" text-anchor="middle" transform="rotate(-45 40.00 235.00)">09.08.2025</text><text x="119.35" y="235.00" font-size="9" fill="#111827" text-anchor="middle" transform="rotate(-45 119.35 235.00)">09.08.2025</text><text x="198.71" y="235.00" font-size="9" fill="#111827" text-anchor="middle" transform="rotate(-45 198.71 235.00)">09.08.2025</text><text x="278.06" y="235.00" font-size="9" fill="#111827" text-anchor="middle" transform="rotate(-45 278.06 235.00)">13.08.2025</text><text x="357.42" y="235.00" font-size="9" fill="#111827" text-anchor="middle" transform="rotate(-45 357.42 235.00)">13.08.2025</text><text x="436.77" y="235.00" font-size="9" fill="#111827" text-anchor="middle" transform="rotate(-45 436.77 235.00)">21.08.2025</text><text x="516.13" y="235.00" font-size="9" fill="#111827" text-anchor="middle" transform="rotate(-45 516.13 235.00)">28.08.2025</text><text x="595.48" y="235.00" font-size="9" fill="#111827" text-anchor="middle" transform="rotate(-45 595.48 235.00)">06.09.2025</text><text x="674.84" y="235.00" font-size="9" fill="#111827" text-anchor="middle" transform="rotate(-45 674.84 235.00)">15.09.2025</text><text x="754.19" y="235.00" font-size="9" fill="#111827" text-anchor="middle" transform="rotate(-45 754.19 235.00)">24.09.2025</text><text x="833.55" y="235.00" font-size="9" fill="#111827" text-anchor="middle" transform="rotate(-45 833.55 235.00)">03.10.2025</text>
  </g>
</svg>