<svg xmlns="http://www.w3.org/2000/svg" width="900" height="290" style="font-family: -apple-system, BlinkMacSystemFont, 'Segoe UI', Helvetica, Arial, sans-serif;">
  <rect width="100%" height="100%" fill="#0d1117"/>
  <g>
    <line x1="40" y1="220.00" x2="860" y2="220.00" stroke="#30363d"/><text x="32" y="224.00" font-size="10" fill="#c9d1d9" text-anchor="end">0</text><line x1="40" y1="175.00" x2="860" y2="175.00" stroke="#30363d"/><text x="32" y="179.00" font-size="10" fill="#c9d1d9" text-anchor="end">500</text><line x1="40" y1="130.00" x2="860" y2="130.00" stroke="#30363d"/><text x="32" y="134.00" font-size="10" fill="#c9d1d9" text-anchor="end">1k</text><line x1="40" y1="85.00" x2="860" y2="85.00" stroke="#30363d"/><text x="32" y="89.00" font-size="10" fill="#c9d1d9" text-anchor="end">1.5k</text><line x1="40" y1="40.00" x2="860" y2="40.00" stroke="#30363d"/><text x="32" y="44.00" font-size="10" fill="#c9d1d9" text-anchor="end">2k</text>
    <line x1="40.00" y1="40" x2="40.00" y2="220" stroke="#30363d" opacity="0.5"/><line x1="121.37" y1="40" x2="121.37" y2="220" stroke="#30363d" opacity="0.5"/><line x1="202.75" y1="40" x2="202.75" y2="220" stroke="#30363d" opacity="0.5"/><line x1="284.12" y1="40" x2="284.12" y2="220" stroke="#30363d" opacity="0.5"/><line x1="365.50" y1="40" x2="365.50" y2="220" stroke="#30363d" opacity="0.5"/><line x1="446.87" y1="40" x2="446.87" y2="220" stroke="#30363d" opacity="0.5"/><line x1="528.24" y1="40" x2="528.24" y2="220" stroke="#30363d" opacity="0.5"/><line x1="609.62" y1="40" x2="609.62" y2="220" stroke="#30363d" opacity="0.5"/><line x1="690.99" y1="40" x2="690.99" y2="220" stroke="#30363d" opacity="0.5"/><line x1="772.37" y1="40" x2="772.37" y2="220" stroke="#30363d" opacity="0.5"/><line x1="853.74" y1="40" x2="853.74" y2="220" stroke="#30363d" opacity="0.5"/>
    <line x1="40" y1="220" x2="860" y2="220" stroke="#30363d"/>
    <line x1="40" y1="40"   x2="40"   y2="220" stroke="#30363d"/>
    <path d="M 40.00 219.82 L 46.26 214.15 L 52.52 214.06 L 58.78 214.06 L 65.04 213.25 L 71.30 213.25 L 77.56 204.88 L 83.82 185.98 L 90.08 185.98 L 96.34 180.94 L 102.60 152.59 L 108.85 159.97 L 115.11 158.89 L 121.37 158.17 L 127.63 139.63 L 133.89 139.63 L 140.15 157.18 L 146.41 154.66 L 152.67 154.39 L 158.93 151.60 L 165.19 150.97 L 171.45 150.70 L 177.71 149.80 L 183.97 149.80 L 190.23 147.46 L 196.49 144.94 L 202.75 144.76 L 209.01 140.71 L 215.27 134.23 L 221.53 134.23 L 227.79 133.69 L 234.05 133.69 L 240.31 133.69 L 246.56 133.69 L 252.82 133.69 L 259.08 133.69 L 265.34 132.97 L 271.60 132.97 L 277.86 132.97 L 284.12 132.97 L 290.38 132.97 L 296.64 132.97 L 302.90 132.97 L 309.16 132.97 L 315.42 132.97 L 321.68 132.97 L 327.94 132.97 L 334.20 132.97 L 340.46 132.97 L 346.72 132.97 L 352.98 132.97 L 359.24 132.97 L 365.50 132.97 L 371.76 132.97 L 378.02 132.97 L 384.27 132.97 L 390.53 132.97 L 396.79 132.97 L 403.05 132.97 L 409.31 132.97 L 415.57 132.97 L 421.83 132.97 L 428.09 132.97 L 434.35 132.97 L 440.61 132.97 L 446.87 132.97 L 453.13 132.97 L 459.39 132.97 L 465.65 132.97 L 471.91 132.97 L 478.17 132.97 L 484.43 132.97 L 490.69 132.97 L 496.95 132.97 L 503.21 132.97 L 509.47 132.97 L 515.73 132.97 L 521.98 132.97 L 528.24 132.97 L 534.50 132.97 L 540.76 132.97 L 547.02 132.97 L 553.28 132.97 L 559.54 132.97 L 565.80 132.97 L 572.06 132.97 L 578.32 132.97 L 584.58 132.97 L 590.84 132.97 L 597.10 132.97 L 603.36 132.97 L 609.62 132.97 L 615.88 132.97 L 622.14 132.97 L 628.40 132.97 L 634.66 132.97 L 640.92 132.97 L 647.18 132.97 L 653.44 132.97 L 659.69 132.97 L 665.95 132.97 L 672.21 132.97 L 678.47 132.97 L 684.73 132.97 L 690.99 132.97 L 697.25 132.97 L 703.51 132.97 L 709.77 132.97 L 716.03 132.97 L 722.29 132.97 L 728.55 132.97 L 734.81 132.97 L 741.07 132.97 L 747.33 132.97 L 753.59 132.97 L 759.85 132.97 L 766.11 132.97 L 772.37 132.97 L 778.63 132.97 L 784.89 132.97 L 791.15 132.97 L 797.40 132.97 L 803.66 132.97 L 809.92 132.97 L 816.18 132.97 L 822.44 132.97 L 828.70 132.97 L 834.96 132.97 L 841.22 132.97 L 847.48 132.97 L 853.74 132.97 L 860.00 132.97" fill="none" stroke="#3fb950" stroke-width="2"/>
    <circle cx="860.00" cy="132.97" r="3" fill="#3fb950"/>
    <text x="40.00" y="235.00" font-size="9" fill="#c9d1d9" text-anchor="middle" transform="rotate(-45 40.00 235.00)">09.08.2025</text><text x="121.37" y="235.00" font-size="9" fill="#c9d1d9" text-anchor="middle" transform="rotate(-45 121.37 235.00)">09.08.2025</text><text x="202.75" y="235.00" font-size="9" fill="#c9d1d9" text-anchor="middle" transform="rotate(-45 202.75 235.00)">09.08.2025</text><text x="284.12" y="235.00" font-size="9" fill="#c9d1d9" text-anchor="middle" transform="rotate(-45 284.12 235.00)">15.08.2025</text><text x="365.50" y="235.00" font-size="9" fill="#c9d1d9" text-anchor="middle" transform="rotate(-45 365.50 235.00)">28.08.2025</text><text x="446.87" y="235.00" font-size="9" fill="#c9d1d9" text-anchor="middle" transform="rotate(-45 446.87 235.00)">08.09.2025</text><text x="528.24" y="235.00" font-size="9" fill="#c9d1d9" text-anchor="middle" transform="rotate(-45 528.24 235.00)">21.09.2025</text><text x="609.62" y="235.00" font-size="9" fill="#c9d1d9" text-anchor="middle" transform="rotate(-45 609.62 235.00)">04.10.2025</text><text x="690.99" y="235.00" font-size="9" fill="#c9d1d9" text-anchor="middle" transform="rotate(-45 690.99 235.00)">17.10.2025</text><text x="772.37" y="235.00" font-size="9" fill="#c9d1d9" text-anchor="middle" transform="rotate(-45 772.37 235.00)">30.10.2025</text><text x="853.74" y="235.00" font-size="9" fill="#c9d1d9" text-anchor="middle" transform="rotate(-45 853.74 235.00)">12.11.2025</text>
  </g>
</svg>