<svg xmlns="http://www.w3.org/2000/svg" width="900" height="290" style="font-family: -apple-system, BlinkMacSystemFont, 'Segoe UI', Helvetica, Arial, sans-serif;">
  <rect width="100%" height="100%" fill="white"/>
  <g>
    <line x1="40" y1="220.00" x2="860" y2="220.00" stroke="#e5e7eb"/><text x="32" y="224.00" font-size="10" fill="#111827" text-anchor="end">0</text><line x1="40" y1="175.00" x2="860" y2="175.00" stroke="#e5e7eb"/><text x="32" y="179.00" font-size="10" fill="#111827" text-anchor="end">500</text><line x1="40" y1="130.00" x2="860" y2="130.00" stroke="#e5e7eb"/><text x="32" y="134.00" font-size="10" fill="#111827" text-anchor="end">1k</text><line x1="40" y1="85.00" x2="860" y2="85.00" stroke="#e5e7eb"/><text x="32" y="89.00" font-size="10" fill="#111827" text-anchor="end">1.5k</text><line x1="40" y1="40.00" x2="860" y2="40.00" stroke="#e5e7eb"/><text x="32" y="44.00" font-size="10" fill="#111827" text-anchor="end">2k</text>
    <line x1="40.00" y1="40" x2="40.00" y2="220" stroke="#e5e7eb" opacity="0.5"/><line x1="122.83" y1="40" x2="122.83" y2="220" stroke="#e5e7eb" opacity="0.5"/><line x1="205.66" y1="40" x2="205.66" y2="220" stroke="#e5e7eb" opacity="0.5"/><line x1="288.48" y1="40" x2="288.48" y2="220" stroke="#e5e7eb" opacity="0.5"/><line x1="371.31" y1="40" x2="371.31" y2="220" stroke="#e5e7eb" opacity="0.5"/><line x1="454.14" y1="40" x2="454.14" y2="220" stroke="#e5e7eb" opacity="0.5"/><line x1="536.97" y1="40" x2="536.97" y2="220" stroke="#e5e7eb" opacity="0.5"/><line x1="619.80" y1="40" x2="619.80" y2="220" stroke="#e5e7eb" opacity="0.5"/><line x1="702.63" y1="40" x2="702.63" y2="220" stroke="#e5e7eb" opacity="0.5"/><line x1="785.45" y1="40" x2="785.45" y2="220" stroke="#e5e7eb" opacity="0.5"/>
    <line x1="40" y1="220" x2="860" y2="220" stroke="#9ca3af"/>
    <line x1="40" y1="40"   x2="40"   y2="220" stroke="#9ca3af"/>
    <path d="M 40.00 219.82 L 48.28 214.15 L 56.57 214.06 L 64.85 214.06 L 73.13 213.25 L 81.41 213.25 L 89.70 204.88 L 97.98 185.98 L 106.26 185.98 L 114.55 180.94 L 122.83 152.59 L 131.11 159.97 L 139.39 158.89 L 147.68 158.17 L 155.96 139.63 L 164.24 139.63 L 172.53 157.18 L 180.81 154.66 L 189.09 154.39 L 197.37 151.60 L 205.66 150.97 L 213.94 150.70 L 222.22 149.80 L 230.51 149.80 L 238.79 147.46 L 247.07 144.94 L 255.35 144.76 L 263.64 140.71 L 271.92 134.23 L 280.20 134.23 L 288.48 133.69 L 296.77 133.69 L 305.05 133.69 L 313.33 133.69 L 321.62 133.69 L 329.90 133.69 L 338.18 132.97 L 346.46 132.97 L 354.75 132.97 L 363.03 132.97 L 371.31 132.97 L 379.60 132.97 L 387.88 132.97 L 396.16 132.97 L 404.44 132.97 L 412.73 132.97 L 421.01 132.97 L 429.29 132.97 L 437.58 132.97 L 445.86 132.97 L 454.14 132.97 L 462.42 132.97 L 470.71 132.97 L 478.99 132.97 L 487.27 132.97 L 495.56 132.97 L 503.84 132.97 L 512.12 132.97 L 520.40 132.97 L 528.69 132.97 L 536.97 132.97 L 545.25 132.97 L 553.54 132.97 L 561.82 132.97 L 570.10 132.97 L 578.38 132.97 L 586.67 132.97 L 594.95 132.97 L 603.23 132.97 L 611.52 132.97 L 619.80 132.97 L 628.08 132.97 L 636.36 132.97 L 644.65 132.97 L 652.93 132.97 L 661.21 132.97 L 669.49 132.97 L 677.78 132.97 L 686.06 132.97 L 694.34 132.97 L 702.63 132.97 L 710.91 132.97 L 719.19 132.97 L 727.47 132.97 L 735.76 132.97 L 744.04 132.97 L 752.32 132.97 L 760.61 132.97 L 768.89 132.97 L 777.17 132.97 L 785.45 132.97 L 793.74 132.97 L 802.02 132.97 L 810.30 132.97 L 818.59 132.97 L 826.87 132.97 L 835.15 132.97 L 843.43 132.97 L 851.72 132.97 L 860.00 132.97" fill="none" stroke="#111827" stroke-width="2"/>
    <circle cx="860.00" cy="132.97" r="3" fill="#111827"/>
    <text x="40.00" y="235.00" font-size="9" fill="#111827" text-anchor="middle" transform="rotate(-45 40.00 235.00)">09.08.2025</text><text x="122.83" y="235.00" font-size="9" fill="#111827" text-anchor="middle" transform="rotate(-45 122.83 235.00)">09.08.2025</text><text x="205.66" y="235.00" font-size="9" fill="#111827" text-anchor="middle" transform="rotate(-45 205.66 235.00)">09.08.2025</text><text x="288.48" y="235.00" font-size="9" fill="#111827" text-anchor="middle" transform="rotate(-45 288.48 235.00)">13.08.2025</text><text x="371.31" y="235.00" font-size="9" fill="#111827" text-anchor="middle" transform="rotate(-45 371.31 235.00)">16.08.2025</text><text x="454.14" y="235.00" font-size="9" fill="#111827" text-anchor="middle" transform="rotate(-45 454.14 235.00)">26.08.2025</text><text x="536.97" y="235.00" font-size="9" fill="#111827" text-anchor="middle" transform="rotate(-45 536.97 235.00)">03.09.2025</text><text x="619.80" y="235.00" font-size="9" fill="#111827" text-anchor="middle" transform="rotate(-45 619.80 235.00)">13.09.2025</text><text x="702.63" y="235.00" font-size="9" fill="#111827" text-anchor="middle" transform="rotate(-45 702.63 235.00)">23.09.2025</text><text x="785.45" y="235.00" font-size="9" fill="#111827" text-anchor="middle" transform="rotate(-45 785.45 235.00)">03.10.2025</text>
  </g>
</svg>