<svg xmlns="http://www.w3.org/2000/svg" width="900" height="290" style="font-family: -apple-system, BlinkMacSystemFont, 'Segoe UI', Helvetica, Arial, sans-serif;">
  <rect width="100%" height="100%" fill="#0d1117"/>
  <g>
    <line x1="40" y1="220.00" x2="860" y2="220.00" stroke="#30363d"/><text x="32" y="224.00" font-size="10" fill="#c9d1d9" text-anchor="end">0</text><line x1="40" y1="175.00" x2="860" y2="175.00" stroke="#30363d"/><text x="32" y="179.00" font-size="10" fill="#c9d1d9" text-anchor="end">500</text><line x1="40" y1="130.00" x2="860" y2="130.00" stroke="#30363d"/><text x="32" y="134.00" font-size="10" fill="#c9d1d9" text-anchor="end">1k</text><line x1="40" y1="85.00" x2="860" y2="85.00" stroke="#30363d"/><text x="32" y="89.00" font-size="10" fill="#c9d1d9" text-anchor="end">1.5k</text><line x1="40" y1="40.00" x2="860" y2="40.00" stroke="#30363d"/><text x="32" y="44.00" font-size="10" fill="#c9d1d9" text-anchor="end">2k</text>
    <line x1="40.00" y1="40" x2="40.00" y2="220" stroke="#30363d" opacity="0.5"/><line x1="116.88" y1="40" x2="116.88" y2="220" stroke="#30363d" opacity="0.5"/><line x1="193.75" y1="40" x2="193.75" y2="220" stroke="#30363d" opacity="0.5"/><line x1="270.62" y1="40" x2="270.62" y2="220" stroke="#30363d" opacity="0.5"/><line x1="347.50" y1="40" x2="347.50" y2="220" stroke="#30363d" opacity="0.5"/><line x1="424.38" y1="40" x2="424.38" y2="220" stroke="#30363d" opacity="0.5"/><line x1="501.25" y1="40" x2="501.25" y2="220" stroke="#30363d" opacity="0.5"/><line x1="578.12" y1="40" x2="578.12" y2="220" stroke="#30363d" opacity="0.5"/><line x1="655.00" y1="40" x2="655.00" y2="220" stroke="#30363d" opacity="0.5"/><line x1="731.88" y1="40" x2="731.88" y2="220" stroke="#30363d" opacity="0.5"/><line x1="808.75" y1="40" x2="808.75" y2="220" stroke="#30363d" opacity="0.5"/>
    <line x1="40" y1="220" x2="860" y2="220" stroke="#30363d"/>
    <line x1="40" y1="40"   x2="40"   y2="220" stroke="#30363d"/>
    <path d="M 40.00 219.82 L 52.81 214.15 L 65.62 214.06 L 78.44 214.06 L 91.25 213.25 L 104.06 213.25 L 116.88 204.88 L 129.69 185.98 L 142.50 185.98 L 155.31 180.94 L 168.12 152.59 L 180.94 159.97 L 193.75 158.89 L 206.56 158.17 L 219.38 139.63 L 232.19 139.63 L 245.00 157.18 L 257.81 154.66 L 270.62 154.39 L 283.44 151.60 L 296.25 150.97 L 309.06 150.70 L 321.88 149.80 L 334.69 149.80 L 347.50 147.46 L 360.31 144.94 L 373.12 144.76 L 385.94 140.71 L 398.75 134.23 L 411.56 134.23 L 424.38 133.69 L 437.19 133.69 L 450.00 133.69 L 462.81 133.69 L 475.62 133.69 L 488.44 133.69 L 501.25 132.97 L 514.06 132.97 L 526.88 132.97 L 539.69 132.97 L 552.50 132.97 L 565.31 132.97 L 578.12 132.97 L 590.94 132.97 L 603.75 132.97 L 616.56 132.97 L 629.38 132.97 L 642.19 132.97 L 655.00 132.97 L 667.81 132.97 L 680.62 132.97 L 693.44 132.97 L 706.25 132.97 L 719.06 132.97 L 731.88 132.97 L 744.69 132.97 L 757.50 132.97 L 770.31 132.97 L 783.12 132.97 L 795.94 132.97 L 808.75 132.97 L 821.56 132.97 L 834.38 132.97 L 847.19 132.97 L 860.00 132.97" fill="none" stroke="#3fb950" stroke-width="2"/>
    <circle cx="860.00" cy="132.97" r="3" fill="#3fb950"/>
    <text x="40.00" y="235.00" font-size="9" fill="#c9d1d9" text-anchor="middle" transform="rotate(-45 40.00 235.00)">09.08.2025</text><text x="116.88" y="235.00" font-size="9" fill="#c9d1d9" text-anchor="middle" transform="rotate(-45 116.88 235.00)">09.08.2025</text><text x="193.75" y="235.00" font-size="9" fill="#c9d1d9" text-anchor="middle" transform="rotate(-45 193.75 235.00)">09.08.2025</text><text x="270.62" y="235.00" font-size="9" fill="#c9d1d9" text-anchor="middle" transform="rotate(-45 270.62 235.00)">09.08.2025</text><text x="347.50" y="235.00" font-size="9" fill="#c9d1d9" text-anchor="middle" transform="rotate(-45 347.50 235.00)">09.08.2025</text><text x="424.38" y="235.00" font-size="9" fill="#c9d1d9" text-anchor="middle" transform="rotate(-45 424.38 235.00)">13.08.2025</text><text x="501.25" y="235.00" font-size="9" fill="#c9d1d9" text-anchor="middle" transform="rotate(-45 501.25 235.00)">13.08.2025</text><text x="578.12" y="235.00" font-size="9" fill="#c9d1d9" text-anchor="middle" transform="rotate(-45 578.12 235.00)">18.08.2025</text><text x="655.00" y="235.00" font-size="9" fill="#c9d1d9" text-anchor="middle" transform="rotate(-45 655.00 235.00)">24.08.2025</text><text x="731.88" y="235.00" font-size="9" fill="#c9d1d9" text-anchor="middle" transform="rotate(-45 731.88 235.00)">28.08.2025</text><text x="808.75" y="235.00" font-size="9" fill="#c9d1d9" text-anchor="middle" transform="rotate(-45 808.75 235.00)">03.09.2025</text>
  </g>
</svg>