<svg xmlns="http://www.w3.org/2000/svg" width="900" height="290" style="font-family: -apple-system, BlinkMacSystemFont, 'Segoe UI', Helvetica, Arial, sans-serif;">
  <rect width="100%" height="100%" fill="white"/>
  <g>
    <line x1="40" y1="220.00" x2="860" y2="220.00" stroke="#e5e7eb"/><text x="32" y="224.00" font-size="10" fill="#111827" text-anchor="end">0</text><line x1="40" y1="175.00" x2="860" y2="175.00" stroke="#e5e7eb"/><text x="32" y="179.00" font-size="10" fill="#111827" text-anchor="end">500</text><line x1="40" y1="130.00" x2="860" y2="130.00" stroke="#e5e7eb"/><text x="32" y="134.00" font-size="10" fill="#111827" text-anchor="end">1k</text><line x1="40" y1="85.00" x2="860" y2="85.00" stroke="#e5e7eb"/><text x="32" y="89.00" font-size="10" fill="#111827" text-anchor="end">1.5k</text><line x1="40" y1="40.00" x2="860" y2="40.00" stroke="#e5e7eb"/><text x="32" y="44.00" font-size="10" fill="#111827" text-anchor="end">2k</text>
    <line x1="40.00" y1="40" x2="40.00" y2="220" stroke="#e5e7eb" opacity="0.5"/><line x1="118.72" y1="40" x2="118.72" y2="220" stroke="#e5e7eb" opacity="0.5"/><line x1="197.44" y1="40" x2="197.44" y2="220" stroke="#e5e7eb" opacity="0.5"/><line x1="276.16" y1="40" x2="276.16" y2="220" stroke="#e5e7eb" opacity="0.5"/><line x1="354.88" y1="40" x2="354.88" y2="220" stroke="#e5e7eb" opacity="0.5"/><line x1="433.60" y1="40" x2="433.60" y2="220" stroke="#e5e7eb" opacity="0.5"/><line x1="512.32" y1="40" x2="512.32" y2="220" stroke="#e5e7eb" opacity="0.5"/><line x1="591.04" y1="40" x2="591.04" y2="220" stroke="#e5e7eb" opacity="0.5"/><line x1="669.76" y1="40" x2="669.76" y2="220" stroke="#e5e7eb" opacity="0.5"/><line x1="748.48" y1="40" x2="748.48" y2="220" stroke="#e5e7eb" opacity="0.5"/><line x1="827.20" y1="40" x2="827.20" y2="220" stroke="#e5e7eb" opacity="0.5"/>
    <line x1="40" y1="220" x2="860" y2="220" stroke="#9ca3af"/>
    <line x1="40" y1="40"   x2="40"   y2="220" stroke="#9ca3af"/>
    <path d="M 40.00 219.82 L 46.56 214.15 L 53.12 214.06 L 59.68 214.06 L 66.24 213.25 L 72.80 213.25 L 79.36 204.88 L 85.92 185.98 L 92.48 185.98 L 99.04 180.94 L 105.60 152.59 L 112.16 159.97 L 118.72 158.89 L 125.28 158.17 L 131.84 139.63 L 138.40 139.63 L 144.96 157.18 L 151.52 154.66 L 158.08 154.39 L 164.64 151.60 L 171.20 150.97 L 177.76 150.70 L 184.32 149.80 L 190.88 149.80 L 197.44 147.46 L 204.00 144.94 L 210.56 144.76 L 217.12 140.71 L 223.68 134.23 L 230.24 134.23 L 236.80 133.69 L 243.36 133.69 L 249.92 133.69 L 256.48 133.69 L 263.04 133.69 L 269.60 133.69 L 276.16 132.97 L 282.72 132.97 L 289.28 132.97 L 295.84 132.97 L 302.40 132.97 L 308.96 132.97 L 315.52 132.97 L 322.08 132.97 L 328.64 132.97 L 335.20 132.97 L 341.76 132.97 L 348.32 132.97 L 354.88 132.97 L 361.44 132.97 L 368.00 132.97 L 374.56 132.97 L 381.12 132.97 L 387.68 132.97 L 394.24 132.97 L 400.80 132.97 L 407.36 132.97 L 413.92 132.97 L 420.48 132.97 L 427.04 132.97 L 433.60 132.97 L 440.16 132.97 L 446.72 132.97 L 453.28 132.97 L 459.84 132.97 L 466.40 132.97 L 472.96 132.97 L 479.52 132.97 L 486.08 132.97 L 492.64 132.97 L 499.20 132.97 L 505.76 132.97 L 512.32 132.97 L 518.88 132.97 L 525.44 132.97 L 532.00 132.97 L 538.56 132.97 L 545.12 132.97 L 551.68 132.97 L 558.24 132.97 L 564.80 132.97 L 571.36 132.97 L 577.92 132.97 L 584.48 132.97 L 591.04 132.97 L 597.60 132.97 L 604.16 132.97 L 610.72 132.97 L 617.28 132.97 L 623.84 132.97 L 630.40 132.97 L 636.96 132.97 L 643.52 132.97 L 650.08 132.97 L 656.64 132.97 L 663.20 132.97 L 669.76 132.97 L 676.32 132.97 L 682.88 132.97 L 689.44 132.97 L 696.00 132.97 L 702.56 132.97 L 709.12 132.97 L 715.68 132.97 L 722.24 132.97 L 728.80 132.97 L 735.36 132.97 L 741.92 132.97 L 748.48 132.97 L 755.04 132.97 L 761.60 132.97 L 768.16 132.97 L 774.72 132.97 L 781.28 132.97 L 787.84 132.97 L 794.40 132.97 L 800.96 132.97 L 807.52 132.97 L 814.08 132.97 L 820.64 132.97 L 827.20 132.97 L 833.76 132.97 L 840.32 132.97 L 846.88 132.97 L 853.44 132.97 L 860.00 132.97" fill="none" stroke="#111827" stroke-width="2"/>
    <circle cx="860.00" cy="132.97" r="3" fill="#111827"/>
    <text x="40.00" y="235.00" font-size="9" fill="#111827" text-anchor="middle" transform="rotate(-45 40.00 235.00)">09.08.2025</text><text x="118.72" y="235.00" font-size="9" fill="#111827" text-anchor="middle" transform="rotate(-45 118.72 235.00)">09.08.2025</text><text x="197.44" y="235.00" font-size="9" fill="#111827" text-anchor="middle" transform="rotate(-45 197.44 235.00)">09.08.2025</text><text x="276.16" y="235.00" font-size="9" fill="#111827" text-anchor="middle" transform="rotate(-45 276.16 235.00)">13.08.2025</text><text x="354.88" y="235.00" font-size="9" fill="#111827" text-anchor="middle" transform="rotate(-45 354.88 235.00)">24.08.2025</text><text x="433.60" y="235.00" font-size="9" fill="#111827" text-anchor="middle" transform="rotate(-45 433.60 235.00)">03.09.2025</text><text x="512.32" y="235.00" font-size="9" fill="#111827" text-anchor="middle" transform="rotate(-45 512.32 235.00)">15.09.2025</text><text x="591.04" y="235.00" font-size="9" fill="#111827" text-anchor="middle" transform="rotate(-45 591.04 235.00)">27.09.2025</text><text x="669.76" y="235.00" font-size="9" fill="#111827" text-anchor="middle" transform="rotate(-45 669.76 235.00)">09.10.2025</text><text x="748.48" y="235.00" font-size="9" fill="#111827" text-anchor="middle" transform="rotate(-45 748.48 235.00)">21.10.2025</text><text x="827.20" y="235.00" font-size="9" fill="#111827" text-anchor="middle" transform="rotate(-45 827.20 235.00)">02.11.2025</text>
  </g>
</svg>