<svg xmlns="http://www.w3.org/2000/svg" width="900" height="290" style="font-family: -apple-system, BlinkMacSystemFont, 'Segoe UI', Helvetica, Arial, sans-serif;">
  <rect width="100%" height="100%" fill="#0d1117"/>
  <g>
    <line x1="40" y1="220.00" x2="860" y2="220.00" stroke="#30363d"/><text x="32" y="224.00" font-size="10" fill="#c9d1d9" text-anchor="end">0</text><line x1="40" y1="175.00" x2="860" y2="175.00" stroke="#30363d"/><text x="32" y="179.00" font-size="10" fill="#c9d1d9" text-anchor="end">500</text><line x1="40" y1="130.00" x2="860" y2="130.00" stroke="#30363d"/><text x="32" y="134.00" font-size="10" fill="#c9d1d9" text-anchor="end">1k</text><line x1="40" y1="85.00" x2="860" y2="85.00" stroke="#30363d"/><text x="32" y="89.00" font-size="10" fill="#c9d1d9" text-anchor="end">1.5k</text><line x1="40" y1="40.00" x2="860" y2="40.00" stroke="#30363d"/><text x="32" y="44.00" font-size="10" fill="#c9d1d9" text-anchor="end">2k</text>
    <line x1="40.00" y1="40" x2="40.00" y2="220" stroke="#30363d" opacity="0.5"/><line x1="114.55" y1="40" x2="114.55" y2="220" stroke="#30363d" opacity="0.5"/><line x1="189.09" y1="40" x2="189.09" y2="220" stroke="#30363d" opacity="0.5"/><line x1="263.64" y1="40" x2="263.64" y2="220" stroke="#30363d" opacity="0.5"/><line x1="338.18" y1="40" x2="338.18" y2="220" stroke="#30363d" opacity="0.5"/><line x1="412.73" y1="40" x2="412.73" y2="220" stroke="#30363d" opacity="0.5"/><line x1="487.27" y1="40" x2="487.27" y2="220" stroke="#30363d" opacity="0.5"/><line x1="561.82" y1="40" x2="561.82" y2="220" stroke="#30363d" opacity="0.5"/><line x1="636.36" y1="40" x2="636.36" y2="220" stroke="#30363d" opacity="0.5"/><line x1="710.91" y1="40" x2="710.91" y2="220" stroke="#30363d" opacity="0.5"/><line x1="785.45" y1="40" x2="785.45" y2="220" stroke="#30363d" opacity="0.5"/><line x1="860.00" y1="40" x2="860.00" y2="220" stroke="#30363d" opacity="0.5"/>
    <line x1="40" y1="220" x2="860" y2="220" stroke="#30363d"/>
    <line x1="40" y1="40"   x2="40"   y2="220" stroke="#30363d"/>
    <path d="M 40.00 219.82 L 49.32 214.15 L 58.64 214.06 L 67.95 214.06 L 77.27 213.25 L 86.59 213.25 L 95.91 204.88 L 105.23 185.98 L 114.55 185.98 L 123.86 180.94 L 133.18 152.59 L 142.50 159.97 L 151.82 158.89 L 161.14 158.17 L 170.45 139.63 L 179.77 139.63 L 189.09 157.18 L 198.41 154.66 L 207.73 154.39 L 217.05 151.60 L 226.36 150.97 L 235.68 150.70 L 245.00 149.80 L 254.32 149.80 L 263.64 147.46 L 272.95 144.94 L 282.27 144.76 L 291.59 140.71 L 300.91 134.23 L 310.23 134.23 L 319.55 133.69 L 328.86 133.69 L 338.18 133.69 L 347.50 133.69 L 356.82 133.69 L 366.14 133.69 L 375.45 132.97 L 384.77 132.97 L 394.09 132.97 L 403.41 132.97 L 412.73 132.97 L 422.05 132.97 L 431.36 132.97 L 440.68 132.97 L 450.00 132.97 L 459.32 132.97 L 468.64 132.97 L 477.95 132.97 L 487.27 132.97 L 496.59 132.97 L 505.91 132.97 L 515.23 132.97 L 524.55 132.97 L 533.86 132.97 L 543.18 132.97 L 552.50 132.97 L 561.82 132.97 L 571.14 132.97 L 580.45 132.97 L 589.77 132.97 L 599.09 132.97 L 608.41 132.97 L 617.73 132.97 L 627.05 132.97 L 636.36 132.97 L 645.68 132.97 L 655.00 132.97 L 664.32 132.97 L 673.64 132.97 L 682.95 132.97 L 692.27 132.97 L 701.59 132.97 L 710.91 132.97 L 720.23 132.97 L 729.55 132.97 L 738.86 132.97 L 748.18 132.97 L 757.50 132.97 L 766.82 132.97 L 776.14 132.97 L 785.45 132.97 L 794.77 132.97 L 804.09 132.97 L 813.41 132.97 L 822.73 132.97 L 832.05 132.97 L 841.36 132.97 L 850.68 132.97 L 860.00 132.97" fill="none" stroke="#3fb950" stroke-width="2"/>
    <circle cx="860.00" cy="132.97" r="3" fill="#3fb950"/>
    <text x="40.00" y="235.00" font-size="9" fill="#c9d1d9" text-anchor="middle" transform="rotate(-45 40.00 235.00)">09.08.2025</text><text x="114.55" y="235.00" font-size="9" fill="#c9d1d9" text-anchor="middle" transform="rotate(-45 114.55 235.00)">09.08.2025</text><text x="189.09" y="235.00" font-size="9" fill="#c9d1d9" text-anchor="middle" transform="rotate(-45 189.09 235.00)">09.08.2025</text><text x="263.64" y="235.00" font-size="9" fill="#c9d1d9" text-anchor="middle" transform="rotate(-45 263.64 235.00)">09.08.2025</text><text x="338.18" y="235.00" font-size="9" fill="#c9d1d9" text-anchor="middle" transform="rotate(-45 338.18 235.00)">13.08.2025</text><text x="412.73" y="235.00" font-size="9" fill="#c9d1d9" text-anchor="middle" transform="rotate(-45 412.73 235.00)">16.08.2025</text><text x="487.27" y="235.00" font-size="9" fill="#c9d1d9" text-anchor="middle" transform="rotate(-45 487.27 235.00)">24.08.2025</text><text x="561.82" y="235.00" font-size="9" fill="#c9d1d9" text-anchor="middle" transform="rotate(-45 561.82 235.00)">30.08.2025</text><text x="636.36" y="235.00" font-size="9" fill="#c9d1d9" text-anchor="middle" transform="rotate(-45 636.36 235.00)">07.09.2025</text><text x="710.91" y="235.00" font-size="9" fill="#c9d1d9" text-anchor="middle" transform="rotate(-45 710.91 235.00)">15.09.2025</text><text x="785.45" y="235.00" font-size="9" fill="#c9d1d9" text-anchor="middle" transform="rotate(-45 785.45 235.00)">23.09.2025</text><text x="860.00" y="235.00" font-size="9" fill="#c9d1d9" text-anchor="middle" transform="rotate(-45 860.00 235.00)">01.10.2025</text>
  </g>
</svg>