<svg xmlns="http://www.w3.org/2000/svg" width="900" height="290" style="font-family: -apple-system, BlinkMacSystemFont, 'Segoe UI', Helvetica, Arial, sans-serif;">
  <rect width="100%" height="100%" fill="#0d1117"/>
  <g>
    <line x1="40" y1="220.00" x2="860" y2="220.00" stroke="#30363d"/><text x="32" y="224.00" font-size="10" fill="#c9d1d9" text-anchor="end">0</text><line x1="40" y1="175.00" x2="860" y2="175.00" stroke="#30363d"/><text x="32" y="179.00" font-size="10" fill="#c9d1d9" text-anchor="end">500</text><line x1="40" y1="130.00" x2="860" y2="130.00" stroke="#30363d"/><text x="32" y="134.00" font-size="10" fill="#c9d1d9" text-anchor="end">1k</text><line x1="40" y1="85.00" x2="860" y2="85.00" stroke="#30363d"/><text x="32" y="89.00" font-size="10" fill="#c9d1d9" text-anchor="end">1.5k</text><line x1="40" y1="40.00" x2="860" y2="40.00" stroke="#30363d"/><text x="32" y="44.00" font-size="10" fill="#c9d1d9" text-anchor="end">2k</text>
    <line x1="40.00" y1="40" x2="40.00" y2="220" stroke="#30363d" opacity="0.5"/><line x1="122.00" y1="40" x2="122.00" y2="220" stroke="#30363d" opacity="0.5"/><line x1="204.00" y1="40" x2="204.00" y2="220" stroke="#30363d" opacity="0.5"/><line x1="286.00" y1="40" x2="286.00" y2="220" stroke="#30363d" opacity="0.5"/><line x1="368.00" y1="40" x2="368.00" y2="220" stroke="#30363d" opacity="0.5"/><line x1="450.00" y1="40" x2="450.00" y2="220" stroke="#30363d" opacity="0.5"/><line x1="532.00" y1="40" x2="532.00" y2="220" stroke="#30363d" opacity="0.5"/><line x1="614.00" y1="40" x2="614.00" y2="220" stroke="#30363d" opacity="0.5"/><line x1="696.00" y1="40" x2="696.00" y2="220" stroke="#30363d" opacity="0.5"/><line x1="778.00" y1="40" x2="778.00" y2="220" stroke="#30363d" opacity="0.5"/><line x1="860.00" y1="40" x2="860.00" y2="220" stroke="#30363d" opacity="0.5"/>
    <line x1="40" y1="220" x2="860" y2="220" stroke="#30363d"/>
    <line x1="40" y1="40"   x2="40"   y2="220" stroke="#30363d"/>
    <path d="M 40.00 219.82 L 45.47 214.15 L 50.93 214.06 L 56.40 214.06 L 61.87 213.25 L 67.33 213.25 L 72.80 204.88 L 78.27 185.98 L 83.73 185.98 L 89.20 180.94 L 94.67 152.59 L 100.13 159.97 L 105.60 158.89 L 111.07 158.17 L 116.53 139.63 L 122.00 139.63 L 127.47 157.18 L 132.93 154.66 L 138.40 154.39 L 143.87 151.60 L 149.33 150.97 L 154.80 150.70 L 160.27 149.80 L 165.73 149.80 L 171.20 147.46 L 176.67 144.94 L 182.13 144.76 L 187.60 140.71 L 193.07 134.23 L 198.53 134.23 L 204.00 133.69 L 209.47 133.69 L 214.93 133.69 L 220.40 133.69 L 225.87 133.69 L 231.33 133.69 L 236.80 132.97 L 242.27 132.97 L 247.73 132.97 L 253.20 132.97 L 258.67 132.97 L 264.13 132.97 L 269.60 132.97 L 275.07 132.97 L 280.53 132.97 L 286.00 132.97 L 291.47 132.97 L 296.93 132.97 L 302.40 132.97 L 307.87 132.97 L 313.33 132.97 L 318.80 132.97 L 324.27 132.97 L 329.73 132.97 L 335.20 132.97 L 340.67 132.97 L 346.13 132.97 L 351.60 132.97 L 357.07 132.97 L 362.53 132.97 L 368.00 132.97 L 373.47 132.97 L 378.93 132.97 L 384.40 132.97 L 389.87 132.97 L 395.33 132.97 L 400.80 132.97 L 406.27 132.97 L 411.73 132.97 L 417.20 132.97 L 422.67 132.97 L 428.13 132.97 L 433.60 132.97 L 439.07 132.97 L 444.53 132.97 L 450.00 132.97 L 455.47 132.97 L 460.93 132.97 L 466.40 132.97 L 471.87 132.97 L 477.33 132.97 L 482.80 132.97 L 488.27 132.97 L 493.73 132.97 L 499.20 132.97 L 504.67 132.97 L 510.13 132.97 L 515.60 132.97 L 521.07 132.97 L 526.53 132.97 L 532.00 132.97 L 537.47 132.97 L 542.93 132.97 L 548.40 132.97 L 553.87 132.97 L 559.33 132.97 L 564.80 132.97 L 570.27 132.97 L 575.73 132.97 L 581.20 132.97 L 586.67 132.97 L 592.13 132.97 L 597.60 132.97 L 603.07 132.97 L 608.53 132.97 L 614.00 132.97 L 619.47 132.97 L 624.93 132.97 L 630.40 132.97 L 635.87 132.97 L 641.33 132.97 L 646.80 132.97 L 652.27 132.97 L 657.73 132.97 L 663.20 132.97 L 668.67 132.97 L 674.13 132.97 L 679.60 132.97 L 685.07 132.97 L 690.53 132.97 L 696.00 132.97 L 701.47 132.97 L 706.93 132.97 L 712.40 132.97 L 717.87 132.97 L 723.33 132.97 L 728.80 132.97 L 734.27 132.97 L 739.73 132.97 L 745.20 132.97 L 750.67 132.97 L 756.13 132.97 L 761.60 132.97 L 767.07 132.97 L 772.53 132.97 L 778.00 132.97 L 783.47 132.97 L 788.93 132.97 L 794.40 132.97 L 799.87 132.97 L 805.33 132.97 L 810.80 132.97 L 816.27 132.97 L 821.73 132.97 L 827.20 132.97 L 832.67 132.97 L 838.13 132.97 L 843.60 132.97 L 849.07 132.97 L 854.53 132.97 L 860.00 132.97" fill="none" stroke="#3fb950" stroke-width="2"/>
    <circle cx="860.00" cy="132.97" r="3" fill="#3fb950"/>
    <text x="40.00" y="235.00" font-size="9" fill="#c9d1d9" text-anchor="middle" transform="rotate(-45 40.00 235.00)">09.08.2025</text><text x="122.00" y="235.00" font-size="9" fill="#c9d1d9" text-anchor="middle" transform="rotate(-45 122.00 235.00)">09.08.2025</text><text x="204.00" y="235.00" font-size="9" fill="#c9d1d9" text-anchor="middle" transform="rotate(-45 204.00 235.00)">13.08.2025</text><text x="286.00" y="235.00" font-size="9" fill="#c9d1d9" text-anchor="middle" transform="rotate(-45 286.00 235.00)">21.08.2025</text><text x="368.00" y="235.00" font-size="9" fill="#c9d1d9" text-anchor="middle" transform="rotate(-45 368.00 235.00)">03.09.2025</text><text x="450.00" y="235.00" font-size="9" fill="#c9d1d9" text-anchor="middle" transform="rotate(-45 450.00 235.00)">18.09.2025</text><text x="532.00" y="235.00" font-size="9" fill="#c9d1d9" text-anchor="middle" transform="rotate(-45 532.00 235.00)">03.10.2025</text><text x="614.00" y="235.00" font-size="9" fill="#c9d1d9" text-anchor="middle" transform="rotate(-45 614.00 235.00)">18.10.2025</text><text x="696.00" y="235.00" font-size="9" fill="#c9d1d9" text-anchor="middle" transform="rotate(-45 696.00 235.00)">02.11.2025</text><text x="778.00" y="235.00" font-size="9" fill="#c9d1d9" text-anchor="middle" transform="rotate(-45 778.00 235.00)">17.11.2025</text><text x="860.00" y="235.00" font-size="9" fill="#c9d1d9" text-anchor="middle" transform="rotate(-45 860.00 235.00)">02.12.2025</text>
  </g>
</svg>