<svg xmlns="http://www.w3.org/2000/svg" width="900" height="290" style="font-family: -apple-system, BlinkMacSystemFont, 'Segoe UI', Helvetica, Arial, sans-serif;">
  <rect width="100%" height="100%" fill="#0d1117"/>
  <g>
    <line x1="40" y1="220.00" x2="860" y2="220.00" stroke="#30363d"/><text x="32" y="224.00" font-size="10" fill="#c9d1d9" text-anchor="end">0</text><line x1="40" y1="175.00" x2="860" y2="175.00" stroke="#30363d"/><text x="32" y="179.00" font-size="10" fill="#c9d1d9" text-anchor="end">500</text><line x1="40" y1="130.00" x2="860" y2="130.00" stroke="#30363d"/><text x="32" y="134.00" font-size="10" fill="#c9d1d9" text-anchor="end">1k</text><line x1="40" y1="85.00" x2="860" y2="85.00" stroke="#30363d"/><text x="32" y="89.00" font-size="10" fill="#c9d1d9" text-anchor="end">1.5k</text><line x1="40" y1="40.00" x2="860" y2="40.00" stroke="#30363d"/><text x="32" y="44.00" font-size="10" fill="#c9d1d9" text-anchor="end">2k</text>
    <line x1="40.00" y1="40" x2="40.00" y2="220" stroke="#30363d" opacity="0.5"/><line x1="122.37" y1="40" x2="122.37" y2="220" stroke="#30363d" opacity="0.5"/><line x1="204.75" y1="40" x2="204.75" y2="220" stroke="#30363d" opacity="0.5"/><line x1="287.12" y1="40" x2="287.12" y2="220" stroke="#30363d" opacity="0.5"/><line x1="369.50" y1="40" x2="369.50" y2="220" stroke="#30363d" opacity="0.5"/><line x1="451.87" y1="40" x2="451.87" y2="220" stroke="#30363d" opacity="0.5"/><line x1="534.25" y1="40" x2="534.25" y2="220" stroke="#30363d" opacity="0.5"/><line x1="616.62" y1="40" x2="616.62" y2="220" stroke="#30363d" opacity="0.5"/><line x1="699.00" y1="40" x2="699.00" y2="220" stroke="#30363d" opacity="0.5"/><line x1="781.37" y1="40" x2="781.37" y2="220" stroke="#30363d" opacity="0.5"/>
    <line x1="40" y1="220" x2="860" y2="220" stroke="#30363d"/>
    <line x1="40" y1="40"   x2="40"   y2="220" stroke="#30363d"/>
    <path d="M 40.00 219.82 L 43.74 214.15 L 47.49 214.06 L 51.23 214.06 L 54.98 213.25 L 58.72 213.25 L 62.47 204.88 L 66.21 185.98 L 69.95 185.98 L 73.70 180.94 L 77.44 152.59 L 81.19 159.97 L 84.93 158.89 L 88.68 158.17 L 92.42 139.63 L 96.16 139.63 L 99.91 157.18 L 103.65 154.66 L 107.40 154.39 L 111.14 151.60 L 114.89 150.97 L 118.63 150.70 L 122.37 149.80 L 126.12 149.80 L 129.86 147.46 L 133.61 144.94 L 137.35 144.76 L 141.10 140.71 L 144.84 134.23 L 148.58 134.23 L 152.33 133.69 L 156.07 133.69 L 159.82 133.69 L 163.56 133.69 L 167.31 133.69 L 171.05 133.69 L 174.79 132.97 L 178.54 132.97 L 182.28 132.97 L 186.03 132.97 L 189.77 132.97 L 193.52 132.97 L 197.26 132.97 L 201.00 132.97 L 204.75 132.97 L 208.49 132.97 L 212.24 132.97 L 215.98 132.97 L 219.73 132.97 L 223.47 132.97 L 227.21 132.97 L 230.96 132.97 L 234.70 132.97 L 238.45 132.97 L 242.19 132.97 L 245.94 132.97 L 249.68 132.97 L 253.42 132.97 L 257.17 132.97 L 260.91 132.97 L 264.66 132.97 L 268.40 132.97 L 272.15 132.97 L 275.89 132.97 L 279.63 132.97 L 283.38 132.97 L 287.12 132.97 L 290.87 132.97 L 294.61 132.97 L 298.36 132.97 L 302.10 132.97 L 305.84 132.97 L 309.59 132.97 L 313.33 132.97 L 317.08 132.97 L 320.82 132.97 L 324.57 132.97 L 328.31 132.97 L 332.05 132.97 L 335.80 132.97 L 339.54 132.97 L 343.29 132.97 L 347.03 132.97 L 350.78 132.97 L 354.52 132.97 L 358.26 132.97 L 362.01 132.97 L 365.75 132.97 L 369.50 132.97 L 373.24 132.97 L 376.99 132.97 L 380.73 132.97 L 384.47 132.97 L 388.22 132.97 L 391.96 132.97 L 395.71 132.97 L 399.45 132.97 L 403.20 132.97 L 406.94 132.97 L 410.68 132.97 L 414.43 132.97 L 418.17 132.97 L 421.92 132.97 L 425.66 132.97 L 429.41 132.97 L 433.15 132.97 L 436.89 132.97 L 440.64 132.97 L 444.38 132.97 L 448.13 132.97 L 451.87 132.97 L 455.62 132.97 L 459.36 132.97 L 463.11 132.97 L 466.85 132.97 L 470.59 132.97 L 474.34 132.97 L 478.08 132.97 L 481.83 132.97 L 485.57 132.97 L 489.32 132.97 L 493.06 132.97 L 496.80 132.97 L 500.55 132.97 L 504.29 132.97 L 508.04 132.97 L 511.78 132.97 L 515.53 132.97 L 519.27 132.97 L 523.01 132.97 L 526.76 132.97 L 530.50 132.97 L 534.25 132.97 L 537.99 132.97 L 541.74 132.97 L 545.48 132.97 L 549.22 132.97 L 552.97 132.97 L 556.71 132.97 L 560.46 132.97 L 564.20 132.97 L 567.95 132.97 L 571.69 132.97 L 575.43 132.97 L 579.18 132.97 L 582.92 132.97 L 586.67 132.97 L 590.41 132.97 L 594.16 132.97 L 597.90 132.97 L 601.64 132.97 L 605.39 132.97 L 609.13 132.97 L 612.88 124.51 L 616.62 120.64 L 620.37 116.77 L 624.11 112.90 L 627.85 109.03 L 631.60 105.97 L 635.34 105.97 L 639.09 105.97 L 642.83 105.97 L 646.58 105.97 L 650.32 105.79 L 654.06 103.09 L 657.81 98.41 L 661.55 98.41 L 665.30 98.41 L 669.04 98.41 L 672.79 98.41 L 676.53 98.41 L 680.27 98.41 L 684.02 98.41 L 687.76 98.41 L 691.51 98.41 L 695.25 98.41 L 699.00 98.41 L 702.74 98.41 L 706.48 98.41 L 710.23 98.41 L 713.97 98.41 L 717.72 98.41 L 721.46 98.41 L 725.21 98.41 L 728.95 98.41 L 732.69 98.41 L 736.44 98.41 L 740.18 98.41 L 743.93 98.41 L 747.67 98.41 L 751.42 98.41 L 755.16 98.41 L 758.90 98.41 L 762.65 98.41 L 766.39 98.41 L 770.14 98.41 L 773.88 98.41 L 777.63 98.41 L 781.37 98.41 L 785.11 98.41 L 788.86 98.41 L 792.60 98.41 L 796.35 98.41 L 800.09 98.41 L 803.84 98.41 L 807.58 98.41 L 811.32 98.41 L 815.07 98.41 L 818.81 98.41 L 822.56 98.41 L 826.30 98.41 L 830.05 98.41 L 833.79 98.41 L 837.53 98.41 L 841.28 98.41 L 845.02 98.41 L 848.77 98.41 L 852.51 98.41 L 856.26 98.41 L 860.00 98.41" fill="none" stroke="#3fb950" stroke-width="2"/>
    <circle cx="860.00" cy="98.41" r="3" fill="#3fb950"/>
    <text x="40.00" y="235.00" font-size="9" fill="#c9d1d9" text-anchor="middle" transform="rotate(-45 40.00 235.00)">09.08.2025</text><text x="122.37" y="235.00" font-size="9" fill="#c9d1d9" text-anchor="middle" transform="rotate(-45 122.37 235.00)">09.08.2025</text><text x="204.75" y="235.00" font-size="9" fill="#c9d1d9" text-anchor="middle" transform="rotate(-45 204.75 235.00)">20.08.2025</text><text x="287.12" y="235.00" font-size="9" fill="#c9d1d9" text-anchor="middle" transform="rotate(-45 287.12 235.00)">09.09.2025</text><text x="369.50" y="235.00" font-size="9" fill="#c9d1d9" text-anchor="middle" transform="rotate(-45 369.50 235.00)">01.10.2025</text><text x="451.87" y="235.00" font-size="9" fill="#c9d1d9" text-anchor="middle" transform="rotate(-45 451.87 235.00)">23.10.2025</text><text x="534.25" y="235.00" font-size="9" fill="#c9d1d9" text-anchor="middle" transform="rotate(-45 534.25 235.00)">14.11.2025</text><text x="616.62" y="235.00" font-size="9" fill="#c9d1d9" text-anchor="middle" transform="rotate(-45 616.62 235.00)">04.12.2025</text><text x="699.00" y="235.00" font-size="9" fill="#c9d1d9" text-anchor="middle" transform="rotate(-45 699.00 235.00)">18.12.2025</text><text x="781.37" y="235.00" font-size="9" fill="#c9d1d9" text-anchor="middle" transform="rotate(-45 781.37 235.00)">09.01.2026</text>
  </g>
</svg>