<svg xmlns="http://www.w3.org/2000/svg" width="900" height="290" style="font-family: -apple-system, BlinkMacSystemFont, 'Segoe UI', Helvetica, Arial, sans-serif;">
  <rect width="100%" height="100%" fill="#0d1117"/>
  <g>
    <line x1="40" y1="220.00" x2="860" y2="220.00" stroke="#30363d"/><text x="32" y="224.00" font-size="10" fill="#c9d1d9" text-anchor="end">0</text><line x1="40" y1="175.00" x2="860" y2="175.00" stroke="#30363d"/><text x="32" y="179.00" font-size="10" fill="#c9d1d9" text-anchor="end">500</text><line x1="40" y1="130.00" x2="860" y2="130.00" stroke="#30363d"/><text x="32" y="134.00" font-size="10" fill="#c9d1d9" text-anchor="end">1k</text><line x1="40" y1="85.00" x2="860" y2="85.00" stroke="#30363d"/><text x="32" y="89.00" font-size="10" fill="#c9d1d9" text-anchor="end">1.5k</text><line x1="40" y1="40.00" x2="860" y2="40.00" stroke="#30363d"/><text x="32" y="44.00" font-size="10" fill="#c9d1d9" text-anchor="end">2k</text>
    <line x1="40.00" y1="40" x2="40.00" y2="220" stroke="#30363d" opacity="0.5"/><line x1="119.35" y1="40" x2="119.35" y2="220" stroke="#30363d" opacity="0.5"/><line x1="198.71" y1="40" x2="198.71" y2="220" stroke="#30363d" opacity="0.5"/><line x1="278.06" y1="40" x2="278.06" y2="220" stroke="#30363d" opacity="0.5"/><line x1="357.42" y1="40" x2="357.42" y2="220" stroke="#30363d" opacity="0.5"/><line x1="436.77" y1="40" x2="436.77" y2="220" stroke="#30363d" opacity="0.5"/><line x1="516.13" y1="40" x2="516.13" y2="220" stroke="#30363d" opacity="0.5"/><line x1="595.48" y1="40" x2="595.48" y2="220" stroke="#30363d" opacity="0.5"/><line x1="674.84" y1="40" x2="674.84" y2="220" stroke="#30363d" opacity="0.5"/><line x1="754.19" y1="40" x2="754.19" y2="220" stroke="#30363d" opacity="0.5"/><line x1="833.55" y1="40" x2="833.55" y2="220" stroke="#30363d" opacity="0.5"/>
    <line x1="40" y1="220" x2="860" y2="220" stroke="#30363d"/>
    <line x1="40" y1="40"   x2="40"   y2="220" stroke="#30363d"/>
    <path d="M 40.00 219.82 L 66.45 214.15 L 92.90 214.06 L 119.35 214.06 L 145.81 213.25 L 172.26 213.25 L 198.71 204.88 L 225.16 185.98 L 251.61 185.98 L 278.06 180.94 L 304.52 152.59 L 330.97 159.97 L 357.42 158.89 L 383.87 158.17 L 410.32 139.63 L 436.77 139.63 L 463.23 157.18 L 489.68 154.66 L 516.13 154.39 L 542.58 151.60 L 569.03 150.97 L 595.48 150.70 L 621.94 149.80 L 648.39 149.80 L 674.84 147.46 L 701.29 144.94 L 727.74 144.76 L 754.19 140.71 L 780.65 134.23 L 807.10 134.23 L 833.55 133.69 L 860.00 133.69" fill="none" stroke="#3fb950" stroke-width="2"/>
    <circle cx="860.00" cy="133.69" r="3" fill="#3fb950"/>
    <text x="40.00" y="235.00" font-size="9" fill="#c9d1d9" text-anchor="middle" transform="rotate(-45 40.00 235.00)">09.08.2025</text><text x="119.35" y="235.00" font-size="9" fill="#c9d1d9" text-anchor="middle" transform="rotate(-45 119.35 235.00)">09.08.2025</text><text x="198.71" y="235.00" font-size="9" fill="#c9d1d9" text-anchor="middle" transform="rotate(-45 198.71 235.00)">09.08.2025</text><text x="278.06" y="235.00" font-size="9" fill="#c9d1d9" text-anchor="middle" transform="rotate(-45 278.06 235.00)">09.08.2025</text><text x="357.42" y="235.00" font-size="9" fill="#c9d1d9" text-anchor="middle" transform="rotate(-45 357.42 235.00)">09.08.2025</text><text x="436.77" y="235.00" font-size="9" fill="#c9d1d9" text-anchor="middle" transform="rotate(-45 436.77 235.00)">09.08.2025</text><text x="516.13" y="235.00" font-size="9" fill="#c9d1d9" text-anchor="middle" transform="rotate(-45 516.13 235.00)">09.08.2025</text><text x="595.48" y="235.00" font-size="9" fill="#c9d1d9" text-anchor="middle" transform="rotate(-45 595.48 235.00)">09.08.2025</text><text x="674.84" y="235.00" font-size="9" fill="#c9d1d9" text-anchor="middle" transform="rotate(-45 674.84 235.00)">09.08.2025</text><text x="754.19" y="235.00" font-size="9" fill="#c9d1d9" text-anchor="middle" transform="rotate(-45 754.19 235.00)">13.08.2025</text><text x="833.55" y="235.00" font-size="9" fill="#c9d1d9" text-anchor="middle" transform="rotate(-45 833.55 235.00)">13.08.2025</text>
  </g>
</svg>