<svg xmlns="http://www.w3.org/2000/svg" width="900" height="290" style="font-family: -apple-system, BlinkMacSystemFont, 'Segoe UI', Helvetica, Arial, sans-serif;">
  <rect width="100%" height="100%" fill="#0d1117"/>
  <g>
    <line x1="40" y1="220.00" x2="860" y2="220.00" stroke="#30363d"/><text x="32" y="224.00" font-size="10" fill="#c9d1d9" text-anchor="end">0</text><line x1="40" y1="175.00" x2="860" y2="175.00" stroke="#30363d"/><text x="32" y="179.00" font-size="10" fill="#c9d1d9" text-anchor="end">500</text><line x1="40" y1="130.00" x2="860" y2="130.00" stroke="#30363d"/><text x="32" y="134.00" font-size="10" fill="#c9d1d9" text-anchor="end">1k</text><line x1="40" y1="85.00" x2="860" y2="85.00" stroke="#30363d"/><text x="32" y="89.00" font-size="10" fill="#c9d1d9" text-anchor="end">1.5k</text><line x1="40" y1="40.00" x2="860" y2="40.00" stroke="#30363d"/><text x="32" y="44.00" font-size="10" fill="#c9d1d9" text-anchor="end">2k</text>
    <line x1="40.00" y1="40" x2="40.00" y2="220" stroke="#30363d" opacity="0.5"/><line x1="118.38" y1="40" x2="118.38" y2="220" stroke="#30363d" opacity="0.5"/><line x1="196.76" y1="40" x2="196.76" y2="220" stroke="#30363d" opacity="0.5"/><line x1="275.15" y1="40" x2="275.15" y2="220" stroke="#30363d" opacity="0.5"/><line x1="353.53" y1="40" x2="353.53" y2="220" stroke="#30363d" opacity="0.5"/><line x1="431.91" y1="40" x2="431.91" y2="220" stroke="#30363d" opacity="0.5"/><line x1="510.29" y1="40" x2="510.29" y2="220" stroke="#30363d" opacity="0.5"/><line x1="588.68" y1="40" x2="588.68" y2="220" stroke="#30363d" opacity="0.5"/><line x1="667.06" y1="40" x2="667.06" y2="220" stroke="#30363d" opacity="0.5"/><line x1="745.44" y1="40" x2="745.44" y2="220" stroke="#30363d" opacity="0.5"/><line x1="823.82" y1="40" x2="823.82" y2="220" stroke="#30363d" opacity="0.5"/>
    <line x1="40" y1="220" x2="860" y2="220" stroke="#30363d"/>
    <line x1="40" y1="40"   x2="40"   y2="220" stroke="#30363d"/>
    <path d="M 40.00 219.82 L 46.03 214.15 L 52.06 214.06 L 58.09 214.06 L 64.12 213.25 L 70.15 213.25 L 76.18 204.88 L 82.21 185.98 L 88.24 185.98 L 94.26 180.94 L 100.29 152.59 L 106.32 159.97 L 112.35 158.89 L 118.38 158.17 L 124.41 139.63 L 130.44 139.63 L 136.47 157.18 L 142.50 154.66 L 148.53 154.39 L 154.56 151.60 L 160.59 150.97 L 166.62 150.70 L 172.65 149.80 L 178.68 149.80 L 184.71 147.46 L 190.74 144.94 L 196.76 144.76 L 202.79 140.71 L 208.82 134.23 L 214.85 134.23 L 220.88 133.69 L 226.91 133.69 L 232.94 133.69 L 238.97 133.69 L 245.00 133.69 L 251.03 133.69 L 257.06 132.97 L 263.09 132.97 L 269.12 132.97 L 275.15 132.97 L 281.18 132.97 L 287.21 132.97 L 293.24 132.97 L 299.26 132.97 L 305.29 132.97 L 311.32 132.97 L 317.35 132.97 L 323.38 132.97 L 329.41 132.97 L 335.44 132.97 L 341.47 132.97 L 347.50 132.97 L 353.53 132.97 L 359.56 132.97 L 365.59 132.97 L 371.62 132.97 L 377.65 132.97 L 383.68 132.97 L 389.71 132.97 L 395.74 132.97 L 401.76 132.97 L 407.79 132.97 L 413.82 132.97 L 419.85 132.97 L 425.88 132.97 L 431.91 132.97 L 437.94 132.97 L 443.97 132.97 L 450.00 132.97 L 456.03 132.97 L 462.06 132.97 L 468.09 132.97 L 474.12 132.97 L 480.15 132.97 L 486.18 132.97 L 492.21 132.97 L 498.24 132.97 L 504.26 132.97 L 510.29 132.97 L 516.32 132.97 L 522.35 132.97 L 528.38 132.97 L 534.41 132.97 L 540.44 132.97 L 546.47 132.97 L 552.50 132.97 L 558.53 132.97 L 564.56 132.97 L 570.59 132.97 L 576.62 132.97 L 582.65 132.97 L 588.68 132.97 L 594.71 132.97 L 600.74 132.97 L 606.76 132.97 L 612.79 132.97 L 618.82 132.97 L 624.85 132.97 L 630.88 132.97 L 636.91 132.97 L 642.94 132.97 L 648.97 132.97 L 655.00 132.97 L 661.03 132.97 L 667.06 132.97 L 673.09 132.97 L 679.12 132.97 L 685.15 132.97 L 691.18 132.97 L 697.21 132.97 L 703.24 132.97 L 709.26 132.97 L 715.29 132.97 L 721.32 132.97 L 727.35 132.97 L 733.38 132.97 L 739.41 132.97 L 745.44 132.97 L 751.47 132.97 L 757.50 132.97 L 763.53 132.97 L 769.56 132.97 L 775.59 132.97 L 781.62 132.97 L 787.65 132.97 L 793.68 132.97 L 799.71 132.97 L 805.74 132.97 L 811.76 132.97 L 817.79 132.97 L 823.82 132.97 L 829.85 132.97 L 835.88 132.97 L 841.91 132.97 L 847.94 132.97 L 853.97 132.97 L 860.00 132.97" fill="none" stroke="#3fb950" stroke-width="2"/>
    <circle cx="860.00" cy="132.97" r="3" fill="#3fb950"/>
    <text x="40.00" y="235.00" font-size="9" fill="#c9d1d9" text-anchor="middle" transform="rotate(-45 40.00 235.00)">09.08.2025</text><text x="118.38" y="235.00" font-size="9" fill="#c9d1d9" text-anchor="middle" transform="rotate(-45 118.38 235.00)">09.08.2025</text><text x="196.76" y="235.00" font-size="9" fill="#c9d1d9" text-anchor="middle" transform="rotate(-45 196.76 235.00)">09.08.2025</text><text x="275.15" y="235.00" font-size="9" fill="#c9d1d9" text-anchor="middle" transform="rotate(-45 275.15 235.00)">15.08.2025</text><text x="353.53" y="235.00" font-size="9" fill="#c9d1d9" text-anchor="middle" transform="rotate(-45 353.53 235.00)">28.08.2025</text><text x="431.91" y="235.00" font-size="9" fill="#c9d1d9" text-anchor="middle" transform="rotate(-45 431.91 235.00)">08.09.2025</text><text x="510.29" y="235.00" font-size="9" fill="#c9d1d9" text-anchor="middle" transform="rotate(-45 510.29 235.00)">21.09.2025</text><text x="588.68" y="235.00" font-size="9" fill="#c9d1d9" text-anchor="middle" transform="rotate(-45 588.68 235.00)">04.10.2025</text><text x="667.06" y="235.00" font-size="9" fill="#c9d1d9" text-anchor="middle" transform="rotate(-45 667.06 235.00)">17.10.2025</text><text x="745.44" y="235.00" font-size="9" fill="#c9d1d9" text-anchor="middle" transform="rotate(-45 745.44 235.00)">30.10.2025</text><text x="823.82" y="235.00" font-size="9" fill="#c9d1d9" text-anchor="middle" transform="rotate(-45 823.82 235.00)">12.11.2025</text>
  </g>
</svg>