<svg xmlns="http://www.w3.org/2000/svg" width="900" height="290" style="font-family: -apple-system, BlinkMacSystemFont, 'Segoe UI', Helvetica, Arial, sans-serif;">
  <rect width="100%" height="100%" fill="white"/>
  <g>
    <line x1="40" y1="220.00" x2="860" y2="220.00" stroke="#e5e7eb"/><text x="32" y="224.00" font-size="10" fill="#111827" text-anchor="end">0</text><line x1="40" y1="175.00" x2="860" y2="175.00" stroke="#e5e7eb"/><text x="32" y="179.00" font-size="10" fill="#111827" text-anchor="end">500</text><line x1="40" y1="130.00" x2="860" y2="130.00" stroke="#e5e7eb"/><text x="32" y="134.00" font-size="10" fill="#111827" text-anchor="end">1k</text><line x1="40" y1="85.00" x2="860" y2="85.00" stroke="#e5e7eb"/><text x="32" y="89.00" font-size="10" fill="#111827" text-anchor="end">1.5k</text><line x1="40" y1="40.00" x2="860" y2="40.00" stroke="#e5e7eb"/><text x="32" y="44.00" font-size="10" fill="#111827" text-anchor="end">2k</text>
    <line x1="40.00" y1="40" x2="40.00" y2="220" stroke="#e5e7eb" opacity="0.5"/><line x1="118.43" y1="40" x2="118.43" y2="220" stroke="#e5e7eb" opacity="0.5"/><line x1="196.87" y1="40" x2="196.87" y2="220" stroke="#e5e7eb" opacity="0.5"/><line x1="275.30" y1="40" x2="275.30" y2="220" stroke="#e5e7eb" opacity="0.5"/><line x1="353.74" y1="40" x2="353.74" y2="220" stroke="#e5e7eb" opacity="0.5"/><line x1="432.17" y1="40" x2="432.17" y2="220" stroke="#e5e7eb" opacity="0.5"/><line x1="510.61" y1="40" x2="510.61" y2="220" stroke="#e5e7eb" opacity="0.5"/><line x1="589.04" y1="40" x2="589.04" y2="220" stroke="#e5e7eb" opacity="0.5"/><line x1="667.48" y1="40" x2="667.48" y2="220" stroke="#e5e7eb" opacity="0.5"/><line x1="745.91" y1="40" x2="745.91" y2="220" stroke="#e5e7eb" opacity="0.5"/><line x1="824.35" y1="40" x2="824.35" y2="220" stroke="#e5e7eb" opacity="0.5"/>
    <line x1="40" y1="220" x2="860" y2="220" stroke="#9ca3af"/>
    <line x1="40" y1="40"   x2="40"   y2="220" stroke="#9ca3af"/>
    <path d="M 40.00 219.82 L 47.13 214.15 L 54.26 214.06 L 61.39 214.06 L 68.52 213.25 L 75.65 213.25 L 82.78 204.88 L 89.91 185.98 L 97.04 185.98 L 104.17 180.94 L 111.30 152.59 L 118.43 159.97 L 125.57 158.89 L 132.70 158.17 L 139.83 139.63 L 146.96 139.63 L 154.09 157.18 L 161.22 154.66 L 168.35 154.39 L 175.48 151.60 L 182.61 150.97 L 189.74 150.70 L 196.87 149.80 L 204.00 149.80 L 211.13 147.46 L 218.26 144.94 L 225.39 144.76 L 232.52 140.71 L 239.65 134.23 L 246.78 134.23 L 253.91 133.69 L 261.04 133.69 L 268.17 133.69 L 275.30 133.69 L 282.43 133.69 L 289.57 133.69 L 296.70 132.97 L 303.83 132.97 L 310.96 132.97 L 318.09 132.97 L 325.22 132.97 L 332.35 132.97 L 339.48 132.97 L 346.61 132.97 L 353.74 132.97 L 360.87 132.97 L 368.00 132.97 L 375.13 132.97 L 382.26 132.97 L 389.39 132.97 L 396.52 132.97 L 403.65 132.97 L 410.78 132.97 L 417.91 132.97 L 425.04 132.97 L 432.17 132.97 L 439.30 132.97 L 446.43 132.97 L 453.57 132.97 L 460.70 132.97 L 467.83 132.97 L 474.96 132.97 L 482.09 132.97 L 489.22 132.97 L 496.35 132.97 L 503.48 132.97 L 510.61 132.97 L 517.74 132.97 L 524.87 132.97 L 532.00 132.97 L 539.13 132.97 L 546.26 132.97 L 553.39 132.97 L 560.52 132.97 L 567.65 132.97 L 574.78 132.97 L 581.91 132.97 L 589.04 132.97 L 596.17 132.97 L 603.30 132.97 L 610.43 132.97 L 617.57 132.97 L 624.70 132.97 L 631.83 132.97 L 638.96 132.97 L 646.09 132.97 L 653.22 132.97 L 660.35 132.97 L 667.48 132.97 L 674.61 132.97 L 681.74 132.97 L 688.87 132.97 L 696.00 132.97 L 703.13 132.97 L 710.26 132.97 L 717.39 132.97 L 724.52 132.97 L 731.65 132.97 L 738.78 132.97 L 745.91 132.97 L 753.04 132.97 L 760.17 132.97 L 767.30 132.97 L 774.43 132.97 L 781.57 132.97 L 788.70 132.97 L 795.83 132.97 L 802.96 132.97 L 810.09 132.97 L 817.22 132.97 L 824.35 132.97 L 831.48 132.97 L 838.61 132.97 L 845.74 132.97 L 852.87 132.97 L 860.00 132.97" fill="none" stroke="#111827" stroke-width="2"/>
    <circle cx="860.00" cy="132.97" r="3" fill="#111827"/>
    <text x="40.00" y="235.00" font-size="9" fill="#111827" text-anchor="middle" transform="rotate(-45 40.00 235.00)">09.08.2025</text><text x="118.43" y="235.00" font-size="9" fill="#111827" text-anchor="middle" transform="rotate(-45 118.43 235.00)">09.08.2025</text><text x="196.87" y="235.00" font-size="9" fill="#111827" text-anchor="middle" transform="rotate(-45 196.87 235.00)">09.08.2025</text><text x="275.30" y="235.00" font-size="9" fill="#111827" text-anchor="middle" transform="rotate(-45 275.30 235.00)">13.08.2025</text><text x="353.74" y="235.00" font-size="9" fill="#111827" text-anchor="middle" transform="rotate(-45 353.74 235.00)">20.08.2025</text><text x="432.17" y="235.00" font-size="9" fill="#111827" text-anchor="middle" transform="rotate(-45 432.17 235.00)">29.08.2025</text><text x="510.61" y="235.00" font-size="9" fill="#111827" text-anchor="middle" transform="rotate(-45 510.61 235.00)">09.09.2025</text><text x="589.04" y="235.00" font-size="9" fill="#111827" text-anchor="middle" transform="rotate(-45 589.04 235.00)">20.09.2025</text><text x="667.48" y="235.00" font-size="9" fill="#111827" text-anchor="middle" transform="rotate(-45 667.48 235.00)">01.10.2025</text><text x="745.91" y="235.00" font-size="9" fill="#111827" text-anchor="middle" transform="rotate(-45 745.91 235.00)">12.10.2025</text><text x="824.35" y="235.00" font-size="9" fill="#111827" text-anchor="middle" transform="rotate(-45 824.35 235.00)">23.10.2025</text>
  </g>
</svg>