<svg xmlns="http://www.w3.org/2000/svg" width="900" height="290" style="font-family: -apple-system, BlinkMacSystemFont, 'Segoe UI', Helvetica, Arial, sans-serif;">
  <rect width="100%" height="100%" fill="white"/>
  <g>
    <line x1="40" y1="220.00" x2="860" y2="220.00" stroke="#e5e7eb"/><text x="32" y="224.00" font-size="10" fill="#111827" text-anchor="end">0</text><line x1="40" y1="175.00" x2="860" y2="175.00" stroke="#e5e7eb"/><text x="32" y="179.00" font-size="10" fill="#111827" text-anchor="end">500</text><line x1="40" y1="130.00" x2="860" y2="130.00" stroke="#e5e7eb"/><text x="32" y="134.00" font-size="10" fill="#111827" text-anchor="end">1k</text><line x1="40" y1="85.00" x2="860" y2="85.00" stroke="#e5e7eb"/><text x="32" y="89.00" font-size="10" fill="#111827" text-anchor="end">1.5k</text><line x1="40" y1="40.00" x2="860" y2="40.00" stroke="#e5e7eb"/><text x="32" y="44.00" font-size="10" fill="#111827" text-anchor="end">2k</text>
    <line x1="40.00" y1="40" x2="40.00" y2="220" stroke="#e5e7eb" opacity="0.5"/><line x1="120.66" y1="40" x2="120.66" y2="220" stroke="#e5e7eb" opacity="0.5"/><line x1="201.31" y1="40" x2="201.31" y2="220" stroke="#e5e7eb" opacity="0.5"/><line x1="281.97" y1="40" x2="281.97" y2="220" stroke="#e5e7eb" opacity="0.5"/><line x1="362.62" y1="40" x2="362.62" y2="220" stroke="#e5e7eb" opacity="0.5"/><line x1="443.28" y1="40" x2="443.28" y2="220" stroke="#e5e7eb" opacity="0.5"/><line x1="523.93" y1="40" x2="523.93" y2="220" stroke="#e5e7eb" opacity="0.5"/><line x1="604.59" y1="40" x2="604.59" y2="220" stroke="#e5e7eb" opacity="0.5"/><line x1="685.25" y1="40" x2="685.25" y2="220" stroke="#e5e7eb" opacity="0.5"/><line x1="765.90" y1="40" x2="765.90" y2="220" stroke="#e5e7eb" opacity="0.5"/><line x1="846.56" y1="40" x2="846.56" y2="220" stroke="#e5e7eb" opacity="0.5"/>
    <line x1="40" y1="220" x2="860" y2="220" stroke="#9ca3af"/>
    <line x1="40" y1="40"   x2="40"   y2="220" stroke="#9ca3af"/>
    <path d="M 40.00 219.82 L 43.36 214.15 L 46.72 214.06 L 50.08 214.06 L 53.44 213.25 L 56.80 213.25 L 60.16 204.88 L 63.52 185.98 L 66.89 185.98 L 70.25 180.94 L 73.61 152.59 L 76.97 159.97 L 80.33 158.89 L 83.69 158.17 L 87.05 139.63 L 90.41 139.63 L 93.77 157.18 L 97.13 154.66 L 100.49 154.39 L 103.85 151.60 L 107.21 150.97 L 110.57 150.70 L 113.93 149.80 L 117.30 149.80 L 120.66 147.46 L 124.02 144.94 L 127.38 144.76 L 130.74 140.71 L 134.10 134.23 L 137.46 134.23 L 140.82 133.69 L 144.18 133.69 L 147.54 133.69 L 150.90 133.69 L 154.26 133.69 L 157.62 133.69 L 160.98 132.97 L 164.34 132.97 L 167.70 132.97 L 171.07 132.97 L 174.43 132.97 L 177.79 132.97 L 181.15 132.97 L 184.51 132.97 L 187.87 132.97 L 191.23 132.97 L 194.59 132.97 L 197.95 132.97 L 201.31 132.97 L 204.67 132.97 L 208.03 132.97 L 211.39 132.97 L 214.75 132.97 L 218.11 132.97 L 221.48 132.97 L 224.84 132.97 L 228.20 132.97 L 231.56 132.97 L 234.92 132.97 L 238.28 132.97 L 241.64 132.97 L 245.00 132.97 L 248.36 132.97 L 251.72 132.97 L 255.08 132.97 L 258.44 132.97 L 261.80 132.97 L 265.16 132.97 L 268.52 132.97 L 271.89 132.97 L 275.25 132.97 L 278.61 132.97 L 281.97 132.97 L 285.33 132.97 L 288.69 132.97 L 292.05 132.97 L 295.41 132.97 L 298.77 132.97 L 302.13 132.97 L 305.49 132.97 L 308.85 132.97 L 312.21 132.97 L 315.57 132.97 L 318.93 132.97 L 322.30 132.97 L 325.66 132.97 L 329.02 132.97 L 332.38 132.97 L 335.74 132.97 L 339.10 132.97 L 342.46 132.97 L 345.82 132.97 L 349.18 132.97 L 352.54 132.97 L 355.90 132.97 L 359.26 132.97 L 362.62 132.97 L 365.98 132.97 L 369.34 132.97 L 372.70 132.97 L 376.07 132.97 L 379.43 132.97 L 382.79 132.97 L 386.15 132.97 L 389.51 132.97 L 392.87 132.97 L 396.23 132.97 L 399.59 132.97 L 402.95 132.97 L 406.31 132.97 L 409.67 132.97 L 413.03 132.97 L 416.39 132.97 L 419.75 132.97 L 423.11 132.97 L 426.48 132.97 L 429.84 132.97 L 433.20 132.97 L 436.56 132.97 L 439.92 132.97 L 443.28 132.97 L 446.64 132.97 L 450.00 132.97 L 453.36 132.97 L 456.72 132.97 L 460.08 132.97 L 463.44 132.97 L 466.80 132.97 L 470.16 132.97 L 473.52 132.97 L 476.89 132.97 L 480.25 132.97 L 483.61 132.97 L 486.97 132.97 L 490.33 132.97 L 493.69 132.97 L 497.05 132.97 L 500.41 132.97 L 503.77 132.97 L 507.13 132.97 L 510.49 132.97 L 513.85 132.97 L 517.21 132.97 L 520.57 132.97 L 523.93 132.97 L 527.30 132.97 L 530.66 132.97 L 534.02 132.97 L 537.38 132.97 L 540.74 132.97 L 544.10 132.97 L 547.46 132.97 L 550.82 132.97 L 554.18 124.51 L 557.54 120.64 L 560.90 116.77 L 564.26 112.90 L 567.62 109.03 L 570.98 105.97 L 574.34 105.97 L 577.70 105.97 L 581.07 105.97 L 584.43 105.97 L 587.79 105.79 L 591.15 103.09 L 594.51 98.41 L 597.87 98.41 L 601.23 98.41 L 604.59 98.41 L 607.95 98.41 L 611.31 98.41 L 614.67 98.41 L 618.03 98.41 L 621.39 98.41 L 624.75 98.41 L 628.11 98.41 L 631.48 98.41 L 634.84 98.41 L 638.20 98.41 L 641.56 98.41 L 644.92 98.41 L 648.28 98.41 L 651.64 98.41 L 655.00 98.41 L 658.36 98.41 L 661.72 98.41 L 665.08 98.41 L 668.44 98.41 L 671.80 98.41 L 675.16 98.41 L 678.52 98.41 L 681.89 98.41 L 685.25 98.41 L 688.61 98.41 L 691.97 98.41 L 695.33 98.41 L 698.69 98.41 L 702.05 98.41 L 705.41 98.41 L 708.77 98.41 L 712.13 98.41 L 715.49 98.41 L 718.85 98.41 L 722.21 98.41 L 725.57 98.41 L 728.93 98.41 L 732.30 98.41 L 735.66 98.41 L 739.02 98.41 L 742.38 98.41 L 745.74 98.41 L 749.10 98.41 L 752.46 98.41 L 755.82 98.41 L 759.18 98.41 L 762.54 98.41 L 765.90 98.41 L 769.26 98.41 L 772.62 98.41 L 775.98 98.41 L 779.34 98.41 L 782.70 98.41 L 786.07 98.41 L 789.43 98.41 L 792.79 98.41 L 796.15 98.41 L 799.51 98.41 L 802.87 98.41 L 806.23 98.41 L 809.59 98.41 L 812.95 98.41 L 816.31 98.41 L 819.67 98.41 L 823.03 98.41 L 826.39 98.41 L 829.75 98.41 L 833.11 98.41 L 836.48 98.41 L 839.84 98.41 L 843.20 98.41 L 846.56 98.41 L 849.92 98.41 L 853.28 98.41 L 856.64 98.41 L 860.00 98.41" fill="none" stroke="#111827" stroke-width="2"/>
    <circle cx="860.00" cy="98.41" r="3" fill="#111827"/>
    <text x="40.00" y="235.00" font-size="9" fill="#111827" text-anchor="middle" transform="rotate(-45 40.00 235.00)">09.08.2025</text><text x="120.66" y="235.00" font-size="9" fill="#111827" text-anchor="middle" transform="rotate(-45 120.66 235.00)">09.08.2025</text><text x="201.31" y="235.00" font-size="9" fill="#111827" text-anchor="middle" transform="rotate(-45 201.31 235.00)">24.08.2025</text><text x="281.97" y="235.00" font-size="9" fill="#111827" text-anchor="middle" transform="rotate(-45 281.97 235.00)">15.09.2025</text><text x="362.62" y="235.00" font-size="9" fill="#111827" text-anchor="middle" transform="rotate(-45 362.62 235.00)">09.10.2025</text><text x="443.28" y="235.00" font-size="9" fill="#111827" text-anchor="middle" transform="rotate(-45 443.28 235.00)">02.11.2025</text><text x="523.93" y="235.00" font-size="9" fill="#111827" text-anchor="middle" transform="rotate(-45 523.93 235.00)">26.11.2025</text><text x="604.59" y="235.00" font-size="9" fill="#111827" text-anchor="middle" transform="rotate(-45 604.59 235.00)">10.12.2025</text><text x="685.25" y="235.00" font-size="9" fill="#111827" text-anchor="middle" transform="rotate(-45 685.25 235.00)">03.01.2026</text><text x="765.90" y="235.00" font-size="9" fill="#111827" text-anchor="middle" transform="rotate(-45 765.90 235.00)">27.01.2026</text><text x="846.56" y="235.00" font-size="9" fill="#111827" text-anchor="middle" transform="rotate(-45 846.56 235.00)">20.02.2026</text>
  </g>
</svg>