<svg xmlns="http://www.w3.org/2000/svg" width="900" height="290" style="font-family: -apple-system, BlinkMacSystemFont, 'Segoe UI', Helvetica, Arial, sans-serif;">
  <rect width="100%" height="100%" fill="#0d1117"/>
  <g>
    <line x1="40" y1="220.00" x2="860" y2="220.00" stroke="#30363d"/><text x="32" y="224.00" font-size="10" fill="#c9d1d9" text-anchor="end">0</text><line x1="40" y1="175.00" x2="860" y2="175.00" stroke="#30363d"/><text x="32" y="179.00" font-size="10" fill="#c9d1d9" text-anchor="end">500</text><line x1="40" y1="130.00" x2="860" y2="130.00" stroke="#30363d"/><text x="32" y="134.00" font-size="10" fill="#c9d1d9" text-anchor="end">1k</text><line x1="40" y1="85.00" x2="860" y2="85.00" stroke="#30363d"/><text x="32" y="89.00" font-size="10" fill="#c9d1d9" text-anchor="end">1.5k</text><line x1="40" y1="40.00" x2="860" y2="40.00" stroke="#30363d"/><text x="32" y="44.00" font-size="10" fill="#c9d1d9" text-anchor="end">2k</text>
    <line x1="40.00" y1="40" x2="40.00" y2="220" stroke="#30363d" opacity="0.5"/><line x1="104.74" y1="40" x2="104.74" y2="220" stroke="#30363d" opacity="0.5"/><line x1="169.47" y1="40" x2="169.47" y2="220" stroke="#30363d" opacity="0.5"/><line x1="234.21" y1="40" x2="234.21" y2="220" stroke="#30363d" opacity="0.5"/><line x1="298.95" y1="40" x2="298.95" y2="220" stroke="#30363d" opacity="0.5"/><line x1="363.68" y1="40" x2="363.68" y2="220" stroke="#30363d" opacity="0.5"/><line x1="428.42" y1="40" x2="428.42" y2="220" stroke="#30363d" opacity="0.5"/><line x1="493.16" y1="40" x2="493.16" y2="220" stroke="#30363d" opacity="0.5"/><line x1="557.89" y1="40" x2="557.89" y2="220" stroke="#30363d" opacity="0.5"/><line x1="622.63" y1="40" x2="622.63" y2="220" stroke="#30363d" opacity="0.5"/><line x1="687.37" y1="40" x2="687.37" y2="220" stroke="#30363d" opacity="0.5"/><line x1="752.11" y1="40" x2="752.11" y2="220" stroke="#30363d" opacity="0.5"/><line x1="816.84" y1="40" x2="816.84" y2="220" stroke="#30363d" opacity="0.5"/>
    <line x1="40" y1="220" x2="860" y2="220" stroke="#30363d"/>
    <line x1="40" y1="40"   x2="40"   y2="220" stroke="#30363d"/>
    <path d="M 40.00 219.82 L 61.58 214.15 L 83.16 214.06 L 104.74 214.06 L 126.32 213.25 L 147.89 213.25 L 169.47 204.88 L 191.05 185.98 L 212.63 185.98 L 234.21 180.94 L 255.79 152.59 L 277.37 159.97 L 298.95 158.89 L 320.53 158.17 L 342.11 139.63 L 363.68 139.63 L 385.26 157.18 L 406.84 154.66 L 428.42 154.39 L 450.00 151.60 L 471.58 150.97 L 493.16 150.70 L 514.74 149.80 L 536.32 149.80 L 557.89 147.46 L 579.47 144.94 L 601.05 144.76 L 622.63 140.71 L 644.21 134.23 L 665.79 134.23 L 687.37 133.69 L 708.95 133.69 L 730.53 133.69 L 752.11 133.69 L 773.68 133.69 L 795.26 133.69 L 816.84 132.97 L 838.42 132.97 L 860.00 132.97" fill="none" stroke="#3fb950" stroke-width="2"/>
    <circle cx="860.00" cy="132.97" r="3" fill="#3fb950"/>
    <text x="40.00" y="235.00" font-size="9" fill="#c9d1d9" text-anchor="middle" transform="rotate(-45 40.00 235.00)">09.08.2025</text><text x="104.74" y="235.00" font-size="9" fill="#c9d1d9" text-anchor="middle" transform="rotate(-45 104.74 235.00)">09.08.2025</text><text x="169.47" y="235.00" font-size="9" fill="#c9d1d9" text-anchor="middle" transform="rotate(-45 169.47 235.00)">09.08.2025</text><text x="234.21" y="235.00" font-size="9" fill="#c9d1d9" text-anchor="middle" transform="rotate(-45 234.21 235.00)">09.08.2025</text><text x="298.95" y="235.00" font-size="9" fill="#c9d1d9" text-anchor="middle" transform="rotate(-45 298.95 235.00)">09.08.2025</text><text x="363.68" y="235.00" font-size="9" fill="#c9d1d9" text-anchor="middle" transform="rotate(-45 363.68 235.00)">09.08.2025</text><text x="428.42" y="235.00" font-size="9" fill="#c9d1d9" text-anchor="middle" transform="rotate(-45 428.42 235.00)">09.08.2025</text><text x="493.16" y="235.00" font-size="9" fill="#c9d1d9" text-anchor="middle" transform="rotate(-45 493.16 235.00)">09.08.2025</text><text x="557.89" y="235.00" font-size="9" fill="#c9d1d9" text-anchor="middle" transform="rotate(-45 557.89 235.00)">09.08.2025</text><text x="622.63" y="235.00" font-size="9" fill="#c9d1d9" text-anchor="middle" transform="rotate(-45 622.63 235.00)">13.08.2025</text><text x="687.37" y="235.00" font-size="9" fill="#c9d1d9" text-anchor="middle" transform="rotate(-45 687.37 235.00)">13.08.2025</text><text x="752.11" y="235.00" font-size="9" fill="#c9d1d9" text-anchor="middle" transform="rotate(-45 752.11 235.00)">13.08.2025</text><text x="816.84" y="235.00" font-size="9" fill="#c9d1d9" text-anchor="middle" transform="rotate(-45 816.84 235.00)">13.08.2025</text>
  </g>
</svg>