<svg xmlns="http://www.w3.org/2000/svg" width="900" height="290" style="font-family: -apple-system, BlinkMacSystemFont, 'Segoe UI', Helvetica, Arial, sans-serif;">
  <rect width="100%" height="100%" fill="#0d1117"/>
  <g>
    <line x1="40" y1="220.00" x2="860" y2="220.00" stroke="#30363d"/><text x="32" y="224.00" font-size="10" fill="#c9d1d9" text-anchor="end">0</text><line x1="40" y1="175.00" x2="860" y2="175.00" stroke="#30363d"/><text x="32" y="179.00" font-size="10" fill="#c9d1d9" text-anchor="end">500</text><line x1="40" y1="130.00" x2="860" y2="130.00" stroke="#30363d"/><text x="32" y="134.00" font-size="10" fill="#c9d1d9" text-anchor="end">1k</text><line x1="40" y1="85.00" x2="860" y2="85.00" stroke="#30363d"/><text x="32" y="89.00" font-size="10" fill="#c9d1d9" text-anchor="end">1.5k</text><line x1="40" y1="40.00" x2="860" y2="40.00" stroke="#30363d"/><text x="32" y="44.00" font-size="10" fill="#c9d1d9" text-anchor="end">2k</text>
    <line x1="40.00" y1="40" x2="40.00" y2="220" stroke="#30363d" opacity="0.5"/><line x1="122.43" y1="40" x2="122.43" y2="220" stroke="#30363d" opacity="0.5"/><line x1="204.87" y1="40" x2="204.87" y2="220" stroke="#30363d" opacity="0.5"/><line x1="287.30" y1="40" x2="287.30" y2="220" stroke="#30363d" opacity="0.5"/><line x1="369.74" y1="40" x2="369.74" y2="220" stroke="#30363d" opacity="0.5"/><line x1="452.17" y1="40" x2="452.17" y2="220" stroke="#30363d" opacity="0.5"/><line x1="534.60" y1="40" x2="534.60" y2="220" stroke="#30363d" opacity="0.5"/><line x1="617.04" y1="40" x2="617.04" y2="220" stroke="#30363d" opacity="0.5"/><line x1="699.47" y1="40" x2="699.47" y2="220" stroke="#30363d" opacity="0.5"/><line x1="781.90" y1="40" x2="781.90" y2="220" stroke="#30363d" opacity="0.5"/>
    <line x1="40" y1="220" x2="860" y2="220" stroke="#30363d"/>
    <line x1="40" y1="40"   x2="40"   y2="220" stroke="#30363d"/>
    <path d="M 40.00 219.82 L 44.34 214.15 L 48.68 214.06 L 53.02 214.06 L 57.35 213.25 L 61.69 213.25 L 66.03 204.88 L 70.37 185.98 L 74.71 185.98 L 79.05 180.94 L 83.39 152.59 L 87.72 159.97 L 92.06 158.89 L 96.40 158.17 L 100.74 139.63 L 105.08 139.63 L 109.42 157.18 L 113.76 154.66 L 118.10 154.39 L 122.43 151.60 L 126.77 150.97 L 131.11 150.70 L 135.45 149.80 L 139.79 149.80 L 144.13 147.46 L 148.47 144.94 L 152.80 144.76 L 157.14 140.71 L 161.48 134.23 L 165.82 134.23 L 170.16 133.69 L 174.50 133.69 L 178.84 133.69 L 183.17 133.69 L 187.51 133.69 L 191.85 133.69 L 196.19 132.97 L 200.53 132.97 L 204.87 132.97 L 209.21 132.97 L 213.54 132.97 L 217.88 132.97 L 222.22 132.97 L 226.56 132.97 L 230.90 132.97 L 235.24 132.97 L 239.58 132.97 L 243.92 132.97 L 248.25 132.97 L 252.59 132.97 L 256.93 132.97 L 261.27 132.97 L 265.61 132.97 L 269.95 132.97 L 274.29 132.97 L 278.62 132.97 L 282.96 132.97 L 287.30 132.97 L 291.64 132.97 L 295.98 132.97 L 300.32 132.97 L 304.66 132.97 L 308.99 132.97 L 313.33 132.97 L 317.67 132.97 L 322.01 132.97 L 326.35 132.97 L 330.69 132.97 L 335.03 132.97 L 339.37 132.97 L 343.70 132.97 L 348.04 132.97 L 352.38 132.97 L 356.72 132.97 L 361.06 132.97 L 365.40 132.97 L 369.74 132.97 L 374.07 132.97 L 378.41 132.97 L 382.75 132.97 L 387.09 132.97 L 391.43 132.97 L 395.77 132.97 L 400.11 132.97 L 404.44 132.97 L 408.78 132.97 L 413.12 132.97 L 417.46 132.97 L 421.80 132.97 L 426.14 132.97 L 430.48 132.97 L 434.81 132.97 L 439.15 132.97 L 443.49 132.97 L 447.83 132.97 L 452.17 132.97 L 456.51 132.97 L 460.85 132.97 L 465.19 132.97 L 469.52 132.97 L 473.86 132.97 L 478.20 132.97 L 482.54 132.97 L 486.88 132.97 L 491.22 132.97 L 495.56 132.97 L 499.89 132.97 L 504.23 132.97 L 508.57 132.97 L 512.91 132.97 L 517.25 132.97 L 521.59 132.97 L 525.93 132.97 L 530.26 132.97 L 534.60 132.97 L 538.94 132.97 L 543.28 132.97 L 547.62 132.97 L 551.96 132.97 L 556.30 132.97 L 560.63 132.97 L 564.97 132.97 L 569.31 132.97 L 573.65 132.97 L 577.99 132.97 L 582.33 132.97 L 586.67 132.97 L 591.01 132.97 L 595.34 132.97 L 599.68 132.97 L 604.02 132.97 L 608.36 132.97 L 612.70 132.97 L 617.04 132.97 L 621.38 132.97 L 625.71 132.97 L 630.05 132.97 L 634.39 132.97 L 638.73 132.97 L 643.07 132.97 L 647.41 132.97 L 651.75 132.97 L 656.08 132.97 L 660.42 132.97 L 664.76 132.97 L 669.10 132.97 L 673.44 132.97 L 677.78 132.97 L 682.12 132.97 L 686.46 132.97 L 690.79 132.97 L 695.13 132.97 L 699.47 132.97 L 703.81 124.51 L 708.15 120.64 L 712.49 116.77 L 716.83 112.90 L 721.16 109.03 L 725.50 105.97 L 729.84 105.97 L 734.18 105.97 L 738.52 105.97 L 742.86 105.97 L 747.20 105.79 L 751.53 103.09 L 755.87 98.41 L 760.21 98.41 L 764.55 98.41 L 768.89 98.41 L 773.23 98.41 L 777.57 98.41 L 781.90 98.41 L 786.24 98.41 L 790.58 98.41 L 794.92 98.41 L 799.26 98.41 L 803.60 98.41 L 807.94 98.41 L 812.28 98.41 L 816.61 98.41 L 820.95 98.41 L 825.29 98.41 L 829.63 98.41 L 833.97 98.41 L 838.31 98.41 L 842.65 98.41 L 846.98 98.41 L 851.32 98.41 L 855.66 98.41 L 860.00 98.41" fill="none" stroke="#3fb950" stroke-width="2"/>
    <circle cx="860.00" cy="98.41" r="3" fill="#3fb950"/>
    <text x="40.00" y="235.00" font-size="9" fill="#c9d1d9" text-anchor="middle" transform="rotate(-45 40.00 235.00)">09.08.2025</text><text x="122.43" y="235.00" font-size="9" fill="#c9d1d9" text-anchor="middle" transform="rotate(-45 122.43 235.00)">09.08.2025</text><text x="204.87" y="235.00" font-size="9" fill="#c9d1d9" text-anchor="middle" transform="rotate(-45 204.87 235.00)">14.08.2025</text><text x="287.30" y="235.00" font-size="9" fill="#c9d1d9" text-anchor="middle" transform="rotate(-45 287.30 235.00)">31.08.2025</text><text x="369.74" y="235.00" font-size="9" fill="#c9d1d9" text-anchor="middle" transform="rotate(-45 369.74 235.00)">19.09.2025</text><text x="452.17" y="235.00" font-size="9" fill="#c9d1d9" text-anchor="middle" transform="rotate(-45 452.17 235.00)">08.10.2025</text><text x="534.60" y="235.00" font-size="9" fill="#c9d1d9" text-anchor="middle" transform="rotate(-45 534.60 235.00)">27.10.2025</text><text x="617.04" y="235.00" font-size="9" fill="#c9d1d9" text-anchor="middle" transform="rotate(-45 617.04 235.00)">15.11.2025</text><text x="699.47" y="235.00" font-size="9" fill="#c9d1d9" text-anchor="middle" transform="rotate(-45 699.47 235.00)">04.12.2025</text><text x="781.90" y="235.00" font-size="9" fill="#c9d1d9" text-anchor="middle" transform="rotate(-45 781.90 235.00)">13.12.2025</text>
  </g>
</svg>