<svg xmlns="http://www.w3.org/2000/svg" width="900" height="290" style="font-family: -apple-system, BlinkMacSystemFont, 'Segoe UI', Helvetica, Arial, sans-serif;">
  <rect width="100%" height="100%" fill="white"/>
  <g>
    <line x1="40" y1="220.00" x2="860" y2="220.00" stroke="#e5e7eb"/><text x="32" y="224.00" font-size="10" fill="#111827" text-anchor="end">0</text><line x1="40" y1="175.00" x2="860" y2="175.00" stroke="#e5e7eb"/><text x="32" y="179.00" font-size="10" fill="#111827" text-anchor="end">500</text><line x1="40" y1="130.00" x2="860" y2="130.00" stroke="#e5e7eb"/><text x="32" y="134.00" font-size="10" fill="#111827" text-anchor="end">1k</text><line x1="40" y1="85.00" x2="860" y2="85.00" stroke="#e5e7eb"/><text x="32" y="89.00" font-size="10" fill="#111827" text-anchor="end">1.5k</text><line x1="40" y1="40.00" x2="860" y2="40.00" stroke="#e5e7eb"/><text x="32" y="44.00" font-size="10" fill="#111827" text-anchor="end">2k</text>
    <line x1="40.00" y1="40" x2="40.00" y2="220" stroke="#e5e7eb" opacity="0.5"/><line x1="118.93" y1="40" x2="118.93" y2="220" stroke="#e5e7eb" opacity="0.5"/><line x1="197.86" y1="40" x2="197.86" y2="220" stroke="#e5e7eb" opacity="0.5"/><line x1="276.79" y1="40" x2="276.79" y2="220" stroke="#e5e7eb" opacity="0.5"/><line x1="355.72" y1="40" x2="355.72" y2="220" stroke="#e5e7eb" opacity="0.5"/><line x1="434.65" y1="40" x2="434.65" y2="220" stroke="#e5e7eb" opacity="0.5"/><line x1="513.58" y1="40" x2="513.58" y2="220" stroke="#e5e7eb" opacity="0.5"/><line x1="592.51" y1="40" x2="592.51" y2="220" stroke="#e5e7eb" opacity="0.5"/><line x1="671.44" y1="40" x2="671.44" y2="220" stroke="#e5e7eb" opacity="0.5"/><line x1="750.37" y1="40" x2="750.37" y2="220" stroke="#e5e7eb" opacity="0.5"/><line x1="829.30" y1="40" x2="829.30" y2="220" stroke="#e5e7eb" opacity="0.5"/>
    <line x1="40" y1="220" x2="860" y2="220" stroke="#9ca3af"/>
    <line x1="40" y1="40"   x2="40"   y2="220" stroke="#9ca3af"/>
    <path d="M 40.00 219.82 L 44.39 214.15 L 48.77 214.06 L 53.16 214.06 L 57.54 213.25 L 61.93 213.25 L 66.31 204.88 L 70.70 185.98 L 75.08 185.98 L 79.47 180.94 L 83.85 152.59 L 88.24 159.97 L 92.62 158.89 L 97.01 158.17 L 101.39 139.63 L 105.78 139.63 L 110.16 157.18 L 114.55 154.66 L 118.93 154.39 L 123.32 151.60 L 127.70 150.97 L 132.09 150.70 L 136.47 149.80 L 140.86 149.80 L 145.24 147.46 L 149.63 144.94 L 154.01 144.76 L 158.40 140.71 L 162.78 134.23 L 167.17 134.23 L 171.55 133.69 L 175.94 133.69 L 180.32 133.69 L 184.71 133.69 L 189.09 133.69 L 193.48 133.69 L 197.86 132.97 L 202.25 132.97 L 206.63 132.97 L 211.02 132.97 L 215.40 132.97 L 219.79 132.97 L 224.17 132.97 L 228.56 132.97 L 232.94 132.97 L 237.33 132.97 L 241.71 132.97 L 246.10 132.97 L 250.48 132.97 L 254.87 132.97 L 259.25 132.97 L 263.64 132.97 L 268.02 132.97 L 272.41 132.97 L 276.79 132.97 L 281.18 132.97 L 285.56 132.97 L 289.95 132.97 L 294.33 132.97 L 298.72 132.97 L 303.10 132.97 L 307.49 132.97 L 311.87 132.97 L 316.26 132.97 L 320.64 132.97 L 325.03 132.97 L 329.41 132.97 L 333.80 132.97 L 338.18 132.97 L 342.57 132.97 L 346.95 132.97 L 351.34 132.97 L 355.72 132.97 L 360.11 132.97 L 364.49 132.97 L 368.88 132.97 L 373.26 132.97 L 377.65 132.97 L 382.03 132.97 L 386.42 132.97 L 390.80 132.97 L 395.19 132.97 L 399.57 132.97 L 403.96 132.97 L 408.34 132.97 L 412.73 132.97 L 417.11 132.97 L 421.50 132.97 L 425.88 132.97 L 430.27 132.97 L 434.65 132.97 L 439.04 132.97 L 443.42 132.97 L 447.81 132.97 L 452.19 132.97 L 456.58 132.97 L 460.96 132.97 L 465.35 132.97 L 469.73 132.97 L 474.12 132.97 L 478.50 132.97 L 482.89 132.97 L 487.27 132.97 L 491.66 132.97 L 496.04 132.97 L 500.43 132.97 L 504.81 132.97 L 509.20 132.97 L 513.58 132.97 L 517.97 132.97 L 522.35 132.97 L 526.74 132.97 L 531.12 132.97 L 535.51 132.97 L 539.89 132.97 L 544.28 132.97 L 548.66 132.97 L 553.05 132.97 L 557.43 132.97 L 561.82 132.97 L 566.20 132.97 L 570.59 132.97 L 574.97 132.97 L 579.36 132.97 L 583.74 132.97 L 588.13 132.97 L 592.51 132.97 L 596.90 132.97 L 601.28 132.97 L 605.67 132.97 L 610.05 132.97 L 614.44 132.97 L 618.82 132.97 L 623.21 132.97 L 627.59 132.97 L 631.98 132.97 L 636.36 132.97 L 640.75 132.97 L 645.13 132.97 L 649.52 132.97 L 653.90 132.97 L 658.29 132.97 L 662.67 132.97 L 667.06 132.97 L 671.44 132.97 L 675.83 132.97 L 680.21 132.97 L 684.60 132.97 L 688.98 132.97 L 693.37 132.97 L 697.75 132.97 L 702.14 132.97 L 706.52 132.97 L 710.91 124.51 L 715.29 120.64 L 719.68 116.77 L 724.06 112.90 L 728.45 109.03 L 732.83 105.97 L 737.22 105.97 L 741.60 105.97 L 745.99 105.97 L 750.37 105.97 L 754.76 105.79 L 759.14 103.09 L 763.53 98.41 L 767.91 98.41 L 772.30 98.41 L 776.68 98.41 L 781.07 98.41 L 785.45 98.41 L 789.84 98.41 L 794.22 98.41 L 798.61 98.41 L 802.99 98.41 L 807.38 98.41 L 811.76 98.41 L 816.15 98.41 L 820.53 98.41 L 824.92 98.41 L 829.30 98.41 L 833.69 98.41 L 838.07 98.41 L 842.46 98.41 L 846.84 98.41 L 851.23 98.41 L 855.61 98.41 L 860.00 98.41" fill="none" stroke="#111827" stroke-width="2"/>
    <circle cx="860.00" cy="98.41" r="3" fill="#111827"/>
    <text x="40.00" y="235.00" font-size="9" fill="#111827" text-anchor="middle" transform="rotate(-45 40.00 235.00)">09.08.2025</text><text x="118.93" y="235.00" font-size="9" fill="#111827" text-anchor="middle" transform="rotate(-45 118.93 235.00)">09.08.2025</text><text x="197.86" y="235.00" font-size="9" fill="#111827" text-anchor="middle" transform="rotate(-45 197.86 235.00)">13.08.2025</text><text x="276.79" y="235.00" font-size="9" fill="#111827" text-anchor="middle" transform="rotate(-45 276.79 235.00)">28.08.2025</text><text x="355.72" y="235.00" font-size="9" fill="#111827" text-anchor="middle" transform="rotate(-45 355.72 235.00)">15.09.2025</text><text x="434.65" y="235.00" font-size="9" fill="#111827" text-anchor="middle" transform="rotate(-45 434.65 235.00)">03.10.2025</text><text x="513.58" y="235.00" font-size="9" fill="#111827" text-anchor="middle" transform="rotate(-45 513.58 235.00)">21.10.2025</text><text x="592.51" y="235.00" font-size="9" fill="#111827" text-anchor="middle" transform="rotate(-45 592.51 235.00)">08.11.2025</text><text x="671.44" y="235.00" font-size="9" fill="#111827" text-anchor="middle" transform="rotate(-45 671.44 235.00)">26.11.2025</text><text x="750.37" y="235.00" font-size="9" fill="#111827" text-anchor="middle" transform="rotate(-45 750.37 235.00)">07.12.2025</text><text x="829.30" y="235.00" font-size="9" fill="#111827" text-anchor="middle" transform="rotate(-45 829.30 235.00)">22.12.2025</text>
  </g>
</svg>