<svg xmlns="http://www.w3.org/2000/svg" width="900" height="290" style="font-family: -apple-system, BlinkMacSystemFont, 'Segoe UI', Helvetica, Arial, sans-serif;">
  <rect width="100%" height="100%" fill="#0d1117"/>
  <g>
    <line x1="40" y1="220.00" x2="860" y2="220.00" stroke="#30363d"/><text x="32" y="224.00" font-size="10" fill="#c9d1d9" text-anchor="end">0</text><line x1="40" y1="175.00" x2="860" y2="175.00" stroke="#30363d"/><text x="32" y="179.00" font-size="10" fill="#c9d1d9" text-anchor="end">500</text><line x1="40" y1="130.00" x2="860" y2="130.00" stroke="#30363d"/><text x="32" y="134.00" font-size="10" fill="#c9d1d9" text-anchor="end">1k</text><line x1="40" y1="85.00" x2="860" y2="85.00" stroke="#30363d"/><text x="32" y="89.00" font-size="10" fill="#c9d1d9" text-anchor="end">1.5k</text><line x1="40" y1="40.00" x2="860" y2="40.00" stroke="#30363d"/><text x="32" y="44.00" font-size="10" fill="#c9d1d9" text-anchor="end">2k</text>
    <line x1="40.00" y1="40" x2="40.00" y2="220" stroke="#30363d" opacity="0.5"/><line x1="122.00" y1="40" x2="122.00" y2="220" stroke="#30363d" opacity="0.5"/><line x1="204.00" y1="40" x2="204.00" y2="220" stroke="#30363d" opacity="0.5"/><line x1="286.00" y1="40" x2="286.00" y2="220" stroke="#30363d" opacity="0.5"/><line x1="368.00" y1="40" x2="368.00" y2="220" stroke="#30363d" opacity="0.5"/><line x1="450.00" y1="40" x2="450.00" y2="220" stroke="#30363d" opacity="0.5"/><line x1="532.00" y1="40" x2="532.00" y2="220" stroke="#30363d" opacity="0.5"/><line x1="614.00" y1="40" x2="614.00" y2="220" stroke="#30363d" opacity="0.5"/><line x1="696.00" y1="40" x2="696.00" y2="220" stroke="#30363d" opacity="0.5"/><line x1="778.00" y1="40" x2="778.00" y2="220" stroke="#30363d" opacity="0.5"/><line x1="860.00" y1="40" x2="860.00" y2="220" stroke="#30363d" opacity="0.5"/>
    <line x1="40" y1="220" x2="860" y2="220" stroke="#30363d"/>
    <line x1="40" y1="40"   x2="40"   y2="220" stroke="#30363d"/>
    <path d="M 40.00 219.82 L 43.73 214.15 L 47.45 214.06 L 51.18 214.06 L 54.91 213.25 L 58.64 213.25 L 62.36 204.88 L 66.09 185.98 L 69.82 185.98 L 73.55 180.94 L 77.27 152.59 L 81.00 159.97 L 84.73 158.89 L 88.45 158.17 L 92.18 139.63 L 95.91 139.63 L 99.64 157.18 L 103.36 154.66 L 107.09 154.39 L 110.82 151.60 L 114.55 150.97 L 118.27 150.70 L 122.00 149.80 L 125.73 149.80 L 129.45 147.46 L 133.18 144.94 L 136.91 144.76 L 140.64 140.71 L 144.36 134.23 L 148.09 134.23 L 151.82 133.69 L 155.55 133.69 L 159.27 133.69 L 163.00 133.69 L 166.73 133.69 L 170.45 133.69 L 174.18 132.97 L 177.91 132.97 L 181.64 132.97 L 185.36 132.97 L 189.09 132.97 L 192.82 132.97 L 196.55 132.97 L 200.27 132.97 L 204.00 132.97 L 207.73 132.97 L 211.45 132.97 L 215.18 132.97 L 218.91 132.97 L 222.64 132.97 L 226.36 132.97 L 230.09 132.97 L 233.82 132.97 L 237.55 132.97 L 241.27 132.97 L 245.00 132.97 L 248.73 132.97 L 252.45 132.97 L 256.18 132.97 L 259.91 132.97 L 263.64 132.97 L 267.36 132.97 L 271.09 132.97 L 274.82 132.97 L 278.55 132.97 L 282.27 132.97 L 286.00 132.97 L 289.73 132.97 L 293.45 132.97 L 297.18 132.97 L 300.91 132.97 L 304.64 132.97 L 308.36 132.97 L 312.09 132.97 L 315.82 132.97 L 319.55 132.97 L 323.27 132.97 L 327.00 132.97 L 330.73 132.97 L 334.45 132.97 L 338.18 132.97 L 341.91 132.97 L 345.64 132.97 L 349.36 132.97 L 353.09 132.97 L 356.82 132.97 L 360.55 132.97 L 364.27 132.97 L 368.00 132.97 L 371.73 132.97 L 375.45 132.97 L 379.18 132.97 L 382.91 132.97 L 386.64 132.97 L 390.36 132.97 L 394.09 132.97 L 397.82 132.97 L 401.55 132.97 L 405.27 132.97 L 409.00 132.97 L 412.73 132.97 L 416.45 132.97 L 420.18 132.97 L 423.91 132.97 L 427.64 132.97 L 431.36 132.97 L 435.09 132.97 L 438.82 132.97 L 442.55 132.97 L 446.27 132.97 L 450.00 132.97 L 453.73 132.97 L 457.45 132.97 L 461.18 132.97 L 464.91 132.97 L 468.64 132.97 L 472.36 132.97 L 476.09 132.97 L 479.82 132.97 L 483.55 132.97 L 487.27 132.97 L 491.00 132.97 L 494.73 132.97 L 498.45 132.97 L 502.18 132.97 L 505.91 132.97 L 509.64 132.97 L 513.36 132.97 L 517.09 132.97 L 520.82 132.97 L 524.55 132.97 L 528.27 132.97 L 532.00 132.97 L 535.73 132.97 L 539.45 132.97 L 543.18 132.97 L 546.91 132.97 L 550.64 132.97 L 554.36 132.97 L 558.09 132.97 L 561.82 132.97 L 565.55 132.97 L 569.27 132.97 L 573.00 132.97 L 576.73 132.97 L 580.45 132.97 L 584.18 132.97 L 587.91 132.97 L 591.64 132.97 L 595.36 132.97 L 599.09 132.97 L 602.82 132.97 L 606.55 132.97 L 610.27 124.51 L 614.00 120.64 L 617.73 116.77 L 621.45 112.90 L 625.18 109.03 L 628.91 105.97 L 632.64 105.97 L 636.36 105.97 L 640.09 105.97 L 643.82 105.97 L 647.55 105.79 L 651.27 103.09 L 655.00 98.41 L 658.73 98.41 L 662.45 98.41 L 666.18 98.41 L 669.91 98.41 L 673.64 98.41 L 677.36 98.41 L 681.09 98.41 L 684.82 98.41 L 688.55 98.41 L 692.27 98.41 L 696.00 98.41 L 699.73 98.41 L 703.45 98.41 L 707.18 98.41 L 710.91 98.41 L 714.64 98.41 L 718.36 98.41 L 722.09 98.41 L 725.82 98.41 L 729.55 98.41 L 733.27 98.41 L 737.00 98.41 L 740.73 98.41 L 744.45 98.41 L 748.18 98.41 L 751.91 98.41 L 755.64 98.41 L 759.36 98.41 L 763.09 98.41 L 766.82 98.41 L 770.55 98.41 L 774.27 98.41 L 778.00 98.41 L 781.73 98.41 L 785.45 98.41 L 789.18 98.41 L 792.91 98.41 L 796.64 98.41 L 800.36 98.41 L 804.09 98.41 L 807.82 98.41 L 811.55 98.41 L 815.27 98.41 L 819.00 98.41 L 822.73 98.41 L 826.45 98.41 L 830.18 98.41 L 833.91 98.41 L 837.64 98.41 L 841.36 98.41 L 845.09 98.41 L 848.82 98.41 L 852.55 98.41 L 856.27 98.41 L 860.00 98.41" fill="none" stroke="#3fb950" stroke-width="2"/>
    <circle cx="860.00" cy="98.41" r="3" fill="#3fb950"/>
    <text x="40.00" y="235.00" font-size="9" fill="#c9d1d9" text-anchor="middle" transform="rotate(-45 40.00 235.00)">09.08.2025</text><text x="122.00" y="235.00" font-size="9" fill="#c9d1d9" text-anchor="middle" transform="rotate(-45 122.00 235.00)">09.08.2025</text><text x="204.00" y="235.00" font-size="9" fill="#c9d1d9" text-anchor="middle" transform="rotate(-45 204.00 235.00)">20.08.2025</text><text x="286.00" y="235.00" font-size="9" fill="#c9d1d9" text-anchor="middle" transform="rotate(-45 286.00 235.00)">09.09.2025</text><text x="368.00" y="235.00" font-size="9" fill="#c9d1d9" text-anchor="middle" transform="rotate(-45 368.00 235.00)">01.10.2025</text><text x="450.00" y="235.00" font-size="9" fill="#c9d1d9" text-anchor="middle" transform="rotate(-45 450.00 235.00)">23.10.2025</text><text x="532.00" y="235.00" font-size="9" fill="#c9d1d9" text-anchor="middle" transform="rotate(-45 532.00 235.00)">14.11.2025</text><text x="614.00" y="235.00" font-size="9" fill="#c9d1d9" text-anchor="middle" transform="rotate(-45 614.00 235.00)">04.12.2025</text><text x="696.00" y="235.00" font-size="9" fill="#c9d1d9" text-anchor="middle" transform="rotate(-45 696.00 235.00)">18.12.2025</text><text x="778.00" y="235.00" font-size="9" fill="#c9d1d9" text-anchor="middle" transform="rotate(-45 778.00 235.00)">09.01.2026</text><text x="860.00" y="235.00" font-size="9" fill="#c9d1d9" text-anchor="middle" transform="rotate(-45 860.00 235.00)">31.01.2026</text>
  </g>
</svg>