<svg xmlns="http://www.w3.org/2000/svg" width="900" height="290" style="font-family: -apple-system, BlinkMacSystemFont, 'Segoe UI', Helvetica, Arial, sans-serif;">
  <rect width="100%" height="100%" fill="#0d1117"/>
  <g>
    <line x1="40" y1="220.00" x2="860" y2="220.00" stroke="#30363d"/><text x="32" y="224.00" font-size="10" fill="#c9d1d9" text-anchor="end">0</text><line x1="40" y1="175.00" x2="860" y2="175.00" stroke="#30363d"/><text x="32" y="179.00" font-size="10" fill="#c9d1d9" text-anchor="end">500</text><line x1="40" y1="130.00" x2="860" y2="130.00" stroke="#30363d"/><text x="32" y="134.00" font-size="10" fill="#c9d1d9" text-anchor="end">1k</text><line x1="40" y1="85.00" x2="860" y2="85.00" stroke="#30363d"/><text x="32" y="89.00" font-size="10" fill="#c9d1d9" text-anchor="end">1.5k</text><line x1="40" y1="40.00" x2="860" y2="40.00" stroke="#30363d"/><text x="32" y="44.00" font-size="10" fill="#c9d1d9" text-anchor="end">2k</text>
    <line x1="40.00" y1="40" x2="40.00" y2="220" stroke="#30363d" opacity="0.5"/><line x1="119.47" y1="40" x2="119.47" y2="220" stroke="#30363d" opacity="0.5"/><line x1="198.94" y1="40" x2="198.94" y2="220" stroke="#30363d" opacity="0.5"/><line x1="278.41" y1="40" x2="278.41" y2="220" stroke="#30363d" opacity="0.5"/><line x1="357.89" y1="40" x2="357.89" y2="220" stroke="#30363d" opacity="0.5"/><line x1="437.36" y1="40" x2="437.36" y2="220" stroke="#30363d" opacity="0.5"/><line x1="516.83" y1="40" x2="516.83" y2="220" stroke="#30363d" opacity="0.5"/><line x1="596.30" y1="40" x2="596.30" y2="220" stroke="#30363d" opacity="0.5"/><line x1="675.77" y1="40" x2="675.77" y2="220" stroke="#30363d" opacity="0.5"/><line x1="755.24" y1="40" x2="755.24" y2="220" stroke="#30363d" opacity="0.5"/><line x1="834.71" y1="40" x2="834.71" y2="220" stroke="#30363d" opacity="0.5"/>
    <line x1="40" y1="220" x2="860" y2="220" stroke="#30363d"/>
    <line x1="40" y1="40"   x2="40"   y2="220" stroke="#30363d"/>
    <path d="M 40.00 219.82 L 43.61 214.15 L 47.22 214.06 L 50.84 214.06 L 54.45 213.25 L 58.06 213.25 L 61.67 204.88 L 65.29 185.98 L 68.90 185.98 L 72.51 180.94 L 76.12 152.59 L 79.74 159.97 L 83.35 158.89 L 86.96 158.17 L 90.57 139.63 L 94.19 139.63 L 97.80 157.18 L 101.41 154.66 L 105.02 154.39 L 108.63 151.60 L 112.25 150.97 L 115.86 150.70 L 119.47 149.80 L 123.08 149.80 L 126.70 147.46 L 130.31 144.94 L 133.92 144.76 L 137.53 140.71 L 141.15 134.23 L 144.76 134.23 L 148.37 133.69 L 151.98 133.69 L 155.59 133.69 L 159.21 133.69 L 162.82 133.69 L 166.43 133.69 L 170.04 132.97 L 173.66 132.97 L 177.27 132.97 L 180.88 132.97 L 184.49 132.97 L 188.11 132.97 L 191.72 132.97 L 195.33 132.97 L 198.94 132.97 L 202.56 132.97 L 206.17 132.97 L 209.78 132.97 L 213.39 132.97 L 217.00 132.97 L 220.62 132.97 L 224.23 132.97 L 227.84 132.97 L 231.45 132.97 L 235.07 132.97 L 238.68 132.97 L 242.29 132.97 L 245.90 132.97 L 249.52 132.97 L 253.13 132.97 L 256.74 132.97 L 260.35 132.97 L 263.96 132.97 L 267.58 132.97 L 271.19 132.97 L 274.80 132.97 L 278.41 132.97 L 282.03 132.97 L 285.64 132.97 L 289.25 132.97 L 292.86 132.97 L 296.48 132.97 L 300.09 132.97 L 303.70 132.97 L 307.31 132.97 L 310.93 132.97 L 314.54 132.97 L 318.15 132.97 L 321.76 132.97 L 325.37 132.97 L 328.99 132.97 L 332.60 132.97 L 336.21 132.97 L 339.82 132.97 L 343.44 132.97 L 347.05 132.97 L 350.66 132.97 L 354.27 132.97 L 357.89 132.97 L 361.50 132.97 L 365.11 132.97 L 368.72 132.97 L 372.33 132.97 L 375.95 132.97 L 379.56 132.97 L 383.17 132.97 L 386.78 132.97 L 390.40 132.97 L 394.01 132.97 L 397.62 132.97 L 401.23 132.97 L 404.85 132.97 L 408.46 132.97 L 412.07 132.97 L 415.68 132.97 L 419.30 132.97 L 422.91 132.97 L 426.52 132.97 L 430.13 132.97 L 433.74 132.97 L 437.36 132.97 L 440.97 132.97 L 444.58 132.97 L 448.19 132.97 L 451.81 132.97 L 455.42 132.97 L 459.03 132.97 L 462.64 132.97 L 466.26 132.97 L 469.87 132.97 L 473.48 132.97 L 477.09 132.97 L 480.70 132.97 L 484.32 132.97 L 487.93 132.97 L 491.54 132.97 L 495.15 132.97 L 498.77 132.97 L 502.38 132.97 L 505.99 132.97 L 509.60 132.97 L 513.22 132.97 L 516.83 132.97 L 520.44 132.97 L 524.05 132.97 L 527.67 132.97 L 531.28 132.97 L 534.89 132.97 L 538.50 132.97 L 542.11 132.97 L 545.73 132.97 L 549.34 132.97 L 552.95 132.97 L 556.56 132.97 L 560.18 132.97 L 563.79 132.97 L 567.40 132.97 L 571.01 132.97 L 574.63 132.97 L 578.24 132.97 L 581.85 132.97 L 585.46 132.97 L 589.07 132.97 L 592.69 124.51 L 596.30 120.64 L 599.91 116.77 L 603.52 112.90 L 607.14 109.03 L 610.75 105.97 L 614.36 105.97 L 617.97 105.97 L 621.59 105.97 L 625.20 105.97 L 628.81 105.79 L 632.42 103.09 L 636.04 98.41 L 639.65 98.41 L 643.26 98.41 L 646.87 98.41 L 650.48 98.41 L 654.10 98.41 L 657.71 98.41 L 661.32 98.41 L 664.93 98.41 L 668.55 98.41 L 672.16 98.41 L 675.77 98.41 L 679.38 98.41 L 683.00 98.41 L 686.61 98.41 L 690.22 98.41 L 693.83 98.41 L 697.44 98.41 L 701.06 98.41 L 704.67 98.41 L 708.28 98.41 L 711.89 98.41 L 715.51 98.41 L 719.12 98.41 L 722.73 98.41 L 726.34 98.41 L 729.96 98.41 L 733.57 98.41 L 737.18 98.41 L 740.79 98.41 L 744.41 98.41 L 748.02 98.41 L 751.63 98.41 L 755.24 98.41 L 758.85 98.41 L 762.47 98.41 L 766.08 98.41 L 769.69 98.41 L 773.30 98.41 L 776.92 98.41 L 780.53 98.41 L 784.14 98.41 L 787.75 98.41 L 791.37 98.41 L 794.98 98.41 L 798.59 98.41 L 802.20 98.41 L 805.81 98.41 L 809.43 98.41 L 813.04 98.41 L 816.65 98.41 L 820.26 98.41 L 823.88 98.41 L 827.49 98.41 L 831.10 98.41 L 834.71 98.41 L 838.33 98.41 L 841.94 98.41 L 845.55 98.41 L 849.16 98.41 L 852.78 98.41 L 856.39 98.41 L 860.00 98.41" fill="none" stroke="#3fb950" stroke-width="2"/>
    <circle cx="860.00" cy="98.41" r="3" fill="#3fb950"/>
    <text x="40.00" y="235.00" font-size="9" fill="#c9d1d9" text-anchor="middle" transform="rotate(-45 40.00 235.00)">09.08.2025</text><text x="119.47" y="235.00" font-size="9" fill="#c9d1d9" text-anchor="middle" transform="rotate(-45 119.47 235.00)">09.08.2025</text><text x="198.94" y="235.00" font-size="9" fill="#c9d1d9" text-anchor="middle" transform="rotate(-45 198.94 235.00)">20.08.2025</text><text x="278.41" y="235.00" font-size="9" fill="#c9d1d9" text-anchor="middle" transform="rotate(-45 278.41 235.00)">09.09.2025</text><text x="357.89" y="235.00" font-size="9" fill="#c9d1d9" text-anchor="middle" transform="rotate(-45 357.89 235.00)">01.10.2025</text><text x="437.36" y="235.00" font-size="9" fill="#c9d1d9" text-anchor="middle" transform="rotate(-45 437.36 235.00)">23.10.2025</text><text x="516.83" y="235.00" font-size="9" fill="#c9d1d9" text-anchor="middle" transform="rotate(-45 516.83 235.00)">14.11.2025</text><text x="596.30" y="235.00" font-size="9" fill="#c9d1d9" text-anchor="middle" transform="rotate(-45 596.30 235.00)">04.12.2025</text><text x="675.77" y="235.00" font-size="9" fill="#c9d1d9" text-anchor="middle" transform="rotate(-45 675.77 235.00)">18.12.2025</text><text x="755.24" y="235.00" font-size="9" fill="#c9d1d9" text-anchor="middle" transform="rotate(-45 755.24 235.00)">09.01.2026</text><text x="834.71" y="235.00" font-size="9" fill="#c9d1d9" text-anchor="middle" transform="rotate(-45 834.71 235.00)">31.01.2026</text>
  </g>
</svg>