<svg xmlns="http://www.w3.org/2000/svg" width="900" height="290" style="font-family: -apple-system, BlinkMacSystemFont, 'Segoe UI', Helvetica, Arial, sans-serif;">
  <rect width="100%" height="100%" fill="white"/>
  <g>
    <line x1="40" y1="220.00" x2="860" y2="220.00" stroke="#e5e7eb"/><text x="32" y="224.00" font-size="10" fill="#111827" text-anchor="end">0</text><line x1="40" y1="175.00" x2="860" y2="175.00" stroke="#e5e7eb"/><text x="32" y="179.00" font-size="10" fill="#111827" text-anchor="end">500</text><line x1="40" y1="130.00" x2="860" y2="130.00" stroke="#e5e7eb"/><text x="32" y="134.00" font-size="10" fill="#111827" text-anchor="end">1k</text><line x1="40" y1="85.00" x2="860" y2="85.00" stroke="#e5e7eb"/><text x="32" y="89.00" font-size="10" fill="#111827" text-anchor="end">1.5k</text><line x1="40" y1="40.00" x2="860" y2="40.00" stroke="#e5e7eb"/><text x="32" y="44.00" font-size="10" fill="#111827" text-anchor="end">2k</text>
    <line x1="40.00" y1="40" x2="40.00" y2="220" stroke="#e5e7eb" opacity="0.5"/><line x1="121.46" y1="40" x2="121.46" y2="220" stroke="#e5e7eb" opacity="0.5"/><line x1="202.91" y1="40" x2="202.91" y2="220" stroke="#e5e7eb" opacity="0.5"/><line x1="284.37" y1="40" x2="284.37" y2="220" stroke="#e5e7eb" opacity="0.5"/><line x1="365.83" y1="40" x2="365.83" y2="220" stroke="#e5e7eb" opacity="0.5"/><line x1="447.28" y1="40" x2="447.28" y2="220" stroke="#e5e7eb" opacity="0.5"/><line x1="528.74" y1="40" x2="528.74" y2="220" stroke="#e5e7eb" opacity="0.5"/><line x1="610.20" y1="40" x2="610.20" y2="220" stroke="#e5e7eb" opacity="0.5"/><line x1="691.66" y1="40" x2="691.66" y2="220" stroke="#e5e7eb" opacity="0.5"/><line x1="773.11" y1="40" x2="773.11" y2="220" stroke="#e5e7eb" opacity="0.5"/><line x1="854.57" y1="40" x2="854.57" y2="220" stroke="#e5e7eb" opacity="0.5"/>
    <line x1="40" y1="220" x2="860" y2="220" stroke="#9ca3af"/>
    <line x1="40" y1="40"   x2="40"   y2="220" stroke="#9ca3af"/>
    <path d="M 40.00 219.82 L 45.43 214.15 L 50.86 214.06 L 56.29 214.06 L 61.72 213.25 L 67.15 213.25 L 72.58 204.88 L 78.01 185.98 L 83.44 185.98 L 88.87 180.94 L 94.30 152.59 L 99.74 159.97 L 105.17 158.89 L 110.60 158.17 L 116.03 139.63 L 121.46 139.63 L 126.89 157.18 L 132.32 154.66 L 137.75 154.39 L 143.18 151.60 L 148.61 150.97 L 154.04 150.70 L 159.47 149.80 L 164.90 149.80 L 170.33 147.46 L 175.76 144.94 L 181.19 144.76 L 186.62 140.71 L 192.05 134.23 L 197.48 134.23 L 202.91 133.69 L 208.34 133.69 L 213.77 133.69 L 219.21 133.69 L 224.64 133.69 L 230.07 133.69 L 235.50 132.97 L 240.93 132.97 L 246.36 132.97 L 251.79 132.97 L 257.22 132.97 L 262.65 132.97 L 268.08 132.97 L 273.51 132.97 L 278.94 132.97 L 284.37 132.97 L 289.80 132.97 L 295.23 132.97 L 300.66 132.97 L 306.09 132.97 L 311.52 132.97 L 316.95 132.97 L 322.38 132.97 L 327.81 132.97 L 333.25 132.97 L 338.68 132.97 L 344.11 132.97 L 349.54 132.97 L 354.97 132.97 L 360.40 132.97 L 365.83 132.97 L 371.26 132.97 L 376.69 132.97 L 382.12 132.97 L 387.55 132.97 L 392.98 132.97 L 398.41 132.97 L 403.84 132.97 L 409.27 132.97 L 414.70 132.97 L 420.13 132.97 L 425.56 132.97 L 430.99 132.97 L 436.42 132.97 L 441.85 132.97 L 447.28 132.97 L 452.72 132.97 L 458.15 132.97 L 463.58 132.97 L 469.01 132.97 L 474.44 132.97 L 479.87 132.97 L 485.30 132.97 L 490.73 132.97 L 496.16 132.97 L 501.59 132.97 L 507.02 132.97 L 512.45 132.97 L 517.88 132.97 L 523.31 132.97 L 528.74 132.97 L 534.17 132.97 L 539.60 132.97 L 545.03 132.97 L 550.46 132.97 L 555.89 132.97 L 561.32 132.97 L 566.75 132.97 L 572.19 132.97 L 577.62 132.97 L 583.05 132.97 L 588.48 132.97 L 593.91 132.97 L 599.34 132.97 L 604.77 132.97 L 610.20 132.97 L 615.63 132.97 L 621.06 132.97 L 626.49 132.97 L 631.92 132.97 L 637.35 132.97 L 642.78 132.97 L 648.21 132.97 L 653.64 132.97 L 659.07 132.97 L 664.50 132.97 L 669.93 132.97 L 675.36 132.97 L 680.79 132.97 L 686.23 132.97 L 691.66 132.97 L 697.09 132.97 L 702.52 132.97 L 707.95 132.97 L 713.38 132.97 L 718.81 132.97 L 724.24 132.97 L 729.67 132.97 L 735.10 132.97 L 740.53 132.97 L 745.96 132.97 L 751.39 132.97 L 756.82 132.97 L 762.25 132.97 L 767.68 132.97 L 773.11 132.97 L 778.54 132.97 L 783.97 132.97 L 789.40 132.97 L 794.83 132.97 L 800.26 132.97 L 805.70 132.97 L 811.13 132.97 L 816.56 132.97 L 821.99 132.97 L 827.42 132.97 L 832.85 132.97 L 838.28 132.97 L 843.71 132.97 L 849.14 132.97 L 854.57 132.97 L 860.00 132.97" fill="none" stroke="#111827" stroke-width="2"/>
    <circle cx="860.00" cy="132.97" r="3" fill="#111827"/>
    <text x="40.00" y="235.00" font-size="9" fill="#111827" text-anchor="middle" transform="rotate(-45 40.00 235.00)">09.08.2025</text><text x="121.46" y="235.00" font-size="9" fill="#111827" text-anchor="middle" transform="rotate(-45 121.46 235.00)">09.08.2025</text><text x="202.91" y="235.00" font-size="9" fill="#111827" text-anchor="middle" transform="rotate(-45 202.91 235.00)">13.08.2025</text><text x="284.37" y="235.00" font-size="9" fill="#111827" text-anchor="middle" transform="rotate(-45 284.37 235.00)">21.08.2025</text><text x="365.83" y="235.00" font-size="9" fill="#111827" text-anchor="middle" transform="rotate(-45 365.83 235.00)">03.09.2025</text><text x="447.28" y="235.00" font-size="9" fill="#111827" text-anchor="middle" transform="rotate(-45 447.28 235.00)">18.09.2025</text><text x="528.74" y="235.00" font-size="9" fill="#111827" text-anchor="middle" transform="rotate(-45 528.74 235.00)">03.10.2025</text><text x="610.20" y="235.00" font-size="9" fill="#111827" text-anchor="middle" transform="rotate(-45 610.20 235.00)">18.10.2025</text><text x="691.66" y="235.00" font-size="9" fill="#111827" text-anchor="middle" transform="rotate(-45 691.66 235.00)">02.11.2025</text><text x="773.11" y="235.00" font-size="9" fill="#111827" text-anchor="middle" transform="rotate(-45 773.11 235.00)">17.11.2025</text><text x="854.57" y="235.00" font-size="9" fill="#111827" text-anchor="middle" transform="rotate(-45 854.57 235.00)">02.12.2025</text>
  </g>
</svg>