<svg xmlns="http://www.w3.org/2000/svg" width="900" height="290" style="font-family: -apple-system, BlinkMacSystemFont, 'Segoe UI', Helvetica, Arial, sans-serif;">
  <rect width="100%" height="100%" fill="#0d1117"/>
  <g>
    <line x1="40" y1="220.00" x2="860" y2="220.00" stroke="#30363d"/><text x="32" y="224.00" font-size="10" fill="#c9d1d9" text-anchor="end">0</text><line x1="40" y1="175.00" x2="860" y2="175.00" stroke="#30363d"/><text x="32" y="179.00" font-size="10" fill="#c9d1d9" text-anchor="end">500</text><line x1="40" y1="130.00" x2="860" y2="130.00" stroke="#30363d"/><text x="32" y="134.00" font-size="10" fill="#c9d1d9" text-anchor="end">1k</text><line x1="40" y1="85.00" x2="860" y2="85.00" stroke="#30363d"/><text x="32" y="89.00" font-size="10" fill="#c9d1d9" text-anchor="end">1.5k</text><line x1="40" y1="40.00" x2="860" y2="40.00" stroke="#30363d"/><text x="32" y="44.00" font-size="10" fill="#c9d1d9" text-anchor="end">2k</text>
    <line x1="40.00" y1="40" x2="40.00" y2="220" stroke="#30363d" opacity="0.5"/><line x1="111.30" y1="40" x2="111.30" y2="220" stroke="#30363d" opacity="0.5"/><line x1="182.61" y1="40" x2="182.61" y2="220" stroke="#30363d" opacity="0.5"/><line x1="253.91" y1="40" x2="253.91" y2="220" stroke="#30363d" opacity="0.5"/><line x1="325.22" y1="40" x2="325.22" y2="220" stroke="#30363d" opacity="0.5"/><line x1="396.52" y1="40" x2="396.52" y2="220" stroke="#30363d" opacity="0.5"/><line x1="467.83" y1="40" x2="467.83" y2="220" stroke="#30363d" opacity="0.5"/><line x1="539.13" y1="40" x2="539.13" y2="220" stroke="#30363d" opacity="0.5"/><line x1="610.43" y1="40" x2="610.43" y2="220" stroke="#30363d" opacity="0.5"/><line x1="681.74" y1="40" x2="681.74" y2="220" stroke="#30363d" opacity="0.5"/><line x1="753.04" y1="40" x2="753.04" y2="220" stroke="#30363d" opacity="0.5"/><line x1="824.35" y1="40" x2="824.35" y2="220" stroke="#30363d" opacity="0.5"/>
    <line x1="40" y1="220" x2="860" y2="220" stroke="#30363d"/>
    <line x1="40" y1="40"   x2="40"   y2="220" stroke="#30363d"/>
    <path d="M 40.00 219.82 L 57.83 214.15 L 75.65 214.06 L 93.48 214.06 L 111.30 213.25 L 129.13 213.25 L 146.96 204.88 L 164.78 185.98 L 182.61 185.98 L 200.43 180.94 L 218.26 152.59 L 236.09 159.97 L 253.91 158.89 L 271.74 158.17 L 289.57 139.63 L 307.39 139.63 L 325.22 157.18 L 343.04 154.66 L 360.87 154.39 L 378.70 151.60 L 396.52 150.97 L 414.35 150.70 L 432.17 149.80 L 450.00 149.80 L 467.83 147.46 L 485.65 144.94 L 503.48 144.76 L 521.30 140.71 L 539.13 134.23 L 556.96 134.23 L 574.78 133.69 L 592.61 133.69 L 610.43 133.69 L 628.26 133.69 L 646.09 133.69 L 663.91 133.69 L 681.74 132.97 L 699.57 132.97 L 717.39 132.97 L 735.22 132.97 L 753.04 132.97 L 770.87 132.97 L 788.70 132.97 L 806.52 132.97 L 824.35 132.97 L 842.17 132.97 L 860.00 132.97" fill="none" stroke="#3fb950" stroke-width="2"/>
    <circle cx="860.00" cy="132.97" r="3" fill="#3fb950"/>
    <text x="40.00" y="235.00" font-size="9" fill="#c9d1d9" text-anchor="middle" transform="rotate(-45 40.00 235.00)">09.08.2025</text><text x="111.30" y="235.00" font-size="9" fill="#c9d1d9" text-anchor="middle" transform="rotate(-45 111.30 235.00)">09.08.2025</text><text x="182.61" y="235.00" font-size="9" fill="#c9d1d9" text-anchor="middle" transform="rotate(-45 182.61 235.00)">09.08.2025</text><text x="253.91" y="235.00" font-size="9" fill="#c9d1d9" text-anchor="middle" transform="rotate(-45 253.91 235.00)">09.08.2025</text><text x="325.22" y="235.00" font-size="9" fill="#c9d1d9" text-anchor="middle" transform="rotate(-45 325.22 235.00)">09.08.2025</text><text x="396.52" y="235.00" font-size="9" fill="#c9d1d9" text-anchor="middle" transform="rotate(-45 396.52 235.00)">09.08.2025</text><text x="467.83" y="235.00" font-size="9" fill="#c9d1d9" text-anchor="middle" transform="rotate(-45 467.83 235.00)">09.08.2025</text><text x="539.13" y="235.00" font-size="9" fill="#c9d1d9" text-anchor="middle" transform="rotate(-45 539.13 235.00)">13.08.2025</text><text x="610.43" y="235.00" font-size="9" fill="#c9d1d9" text-anchor="middle" transform="rotate(-45 610.43 235.00)">13.08.2025</text><text x="681.74" y="235.00" font-size="9" fill="#c9d1d9" text-anchor="middle" transform="rotate(-45 681.74 235.00)">13.08.2025</text><text x="753.04" y="235.00" font-size="9" fill="#c9d1d9" text-anchor="middle" transform="rotate(-45 753.04 235.00)">16.08.2025</text><text x="824.35" y="235.00" font-size="9" fill="#c9d1d9" text-anchor="middle" transform="rotate(-45 824.35 235.00)">20.08.2025</text>
  </g>
</svg>