<svg xmlns="http://www.w3.org/2000/svg" width="900" height="290" style="font-family: -apple-system, BlinkMacSystemFont, 'Segoe UI', Helvetica, Arial, sans-serif;">
  <rect width="100%" height="100%" fill="white"/>
  <g>
    <line x1="40" y1="220.00" x2="860" y2="220.00" stroke="#e5e7eb"/><text x="32" y="224.00" font-size="10" fill="#111827" text-anchor="end">0</text><line x1="40" y1="175.00" x2="860" y2="175.00" stroke="#e5e7eb"/><text x="32" y="179.00" font-size="10" fill="#111827" text-anchor="end">500</text><line x1="40" y1="130.00" x2="860" y2="130.00" stroke="#e5e7eb"/><text x="32" y="134.00" font-size="10" fill="#111827" text-anchor="end">1k</text><line x1="40" y1="85.00" x2="860" y2="85.00" stroke="#e5e7eb"/><text x="32" y="89.00" font-size="10" fill="#111827" text-anchor="end">1.5k</text><line x1="40" y1="40.00" x2="860" y2="40.00" stroke="#e5e7eb"/><text x="32" y="44.00" font-size="10" fill="#111827" text-anchor="end">2k</text>
    <line x1="40.00" y1="40" x2="40.00" y2="220" stroke="#e5e7eb" opacity="0.5"/><line x1="122.00" y1="40" x2="122.00" y2="220" stroke="#e5e7eb" opacity="0.5"/><line x1="204.00" y1="40" x2="204.00" y2="220" stroke="#e5e7eb" opacity="0.5"/><line x1="286.00" y1="40" x2="286.00" y2="220" stroke="#e5e7eb" opacity="0.5"/><line x1="368.00" y1="40" x2="368.00" y2="220" stroke="#e5e7eb" opacity="0.5"/><line x1="450.00" y1="40" x2="450.00" y2="220" stroke="#e5e7eb" opacity="0.5"/><line x1="532.00" y1="40" x2="532.00" y2="220" stroke="#e5e7eb" opacity="0.5"/><line x1="614.00" y1="40" x2="614.00" y2="220" stroke="#e5e7eb" opacity="0.5"/><line x1="696.00" y1="40" x2="696.00" y2="220" stroke="#e5e7eb" opacity="0.5"/><line x1="778.00" y1="40" x2="778.00" y2="220" stroke="#e5e7eb" opacity="0.5"/><line x1="860.00" y1="40" x2="860.00" y2="220" stroke="#e5e7eb" opacity="0.5"/>
    <line x1="40" y1="220" x2="860" y2="220" stroke="#9ca3af"/>
    <line x1="40" y1="40"   x2="40"   y2="220" stroke="#9ca3af"/>
    <path d="M 40.00 219.82 L 44.10 214.15 L 48.20 214.06 L 52.30 214.06 L 56.40 213.25 L 60.50 213.25 L 64.60 204.88 L 68.70 185.98 L 72.80 185.98 L 76.90 180.94 L 81.00 152.59 L 85.10 159.97 L 89.20 158.89 L 93.30 158.17 L 97.40 139.63 L 101.50 139.63 L 105.60 157.18 L 109.70 154.66 L 113.80 154.39 L 117.90 151.60 L 122.00 150.97 L 126.10 150.70 L 130.20 149.80 L 134.30 149.80 L 138.40 147.46 L 142.50 144.94 L 146.60 144.76 L 150.70 140.71 L 154.80 134.23 L 158.90 134.23 L 163.00 133.69 L 167.10 133.69 L 171.20 133.69 L 175.30 133.69 L 179.40 133.69 L 183.50 133.69 L 187.60 132.97 L 191.70 132.97 L 195.80 132.97 L 199.90 132.97 L 204.00 132.97 L 208.10 132.97 L 212.20 132.97 L 216.30 132.97 L 220.40 132.97 L 224.50 132.97 L 228.60 132.97 L 232.70 132.97 L 236.80 132.97 L 240.90 132.97 L 245.00 132.97 L 249.10 132.97 L 253.20 132.97 L 257.30 132.97 L 261.40 132.97 L 265.50 132.97 L 269.60 132.97 L 273.70 132.97 L 277.80 132.97 L 281.90 132.97 L 286.00 132.97 L 290.10 132.97 L 294.20 132.97 L 298.30 132.97 L 302.40 132.97 L 306.50 132.97 L 310.60 132.97 L 314.70 132.97 L 318.80 132.97 L 322.90 132.97 L 327.00 132.97 L 331.10 132.97 L 335.20 132.97 L 339.30 132.97 L 343.40 132.97 L 347.50 132.97 L 351.60 132.97 L 355.70 132.97 L 359.80 132.97 L 363.90 132.97 L 368.00 132.97 L 372.10 132.97 L 376.20 132.97 L 380.30 132.97 L 384.40 132.97 L 388.50 132.97 L 392.60 132.97 L 396.70 132.97 L 400.80 132.97 L 404.90 132.97 L 409.00 132.97 L 413.10 132.97 L 417.20 132.97 L 421.30 132.97 L 425.40 132.97 L 429.50 132.97 L 433.60 132.97 L 437.70 132.97 L 441.80 132.97 L 445.90 132.97 L 450.00 132.97 L 454.10 132.97 L 458.20 132.97 L 462.30 132.97 L 466.40 132.97 L 470.50 132.97 L 474.60 132.97 L 478.70 132.97 L 482.80 132.97 L 486.90 132.97 L 491.00 132.97 L 495.10 132.97 L 499.20 132.97 L 503.30 132.97 L 507.40 132.97 L 511.50 132.97 L 515.60 132.97 L 519.70 132.97 L 523.80 132.97 L 527.90 132.97 L 532.00 132.97 L 536.10 132.97 L 540.20 132.97 L 544.30 132.97 L 548.40 132.97 L 552.50 132.97 L 556.60 132.97 L 560.70 132.97 L 564.80 132.97 L 568.90 132.97 L 573.00 132.97 L 577.10 132.97 L 581.20 132.97 L 585.30 132.97 L 589.40 132.97 L 593.50 132.97 L 597.60 132.97 L 601.70 132.97 L 605.80 132.97 L 609.90 132.97 L 614.00 132.97 L 618.10 132.97 L 622.20 132.97 L 626.30 132.97 L 630.40 132.97 L 634.50 132.97 L 638.60 132.97 L 642.70 132.97 L 646.80 132.97 L 650.90 132.97 L 655.00 132.97 L 659.10 132.97 L 663.20 132.97 L 667.30 124.51 L 671.40 120.64 L 675.50 116.77 L 679.60 112.90 L 683.70 109.03 L 687.80 105.97 L 691.90 105.97 L 696.00 105.97 L 700.10 105.97 L 704.20 105.97 L 708.30 105.79 L 712.40 103.09 L 716.50 98.41 L 720.60 98.41 L 724.70 98.41 L 728.80 98.41 L 732.90 98.41 L 737.00 98.41 L 741.10 98.41 L 745.20 98.41 L 749.30 98.41 L 753.40 98.41 L 757.50 98.41 L 761.60 98.41 L 765.70 98.41 L 769.80 98.41 L 773.90 98.41 L 778.00 98.41 L 782.10 98.41 L 786.20 98.41 L 790.30 98.41 L 794.40 98.41 L 798.50 98.41 L 802.60 98.41 L 806.70 98.41 L 810.80 98.41 L 814.90 98.41 L 819.00 98.41 L 823.10 98.41 L 827.20 98.41 L 831.30 98.41 L 835.40 98.41 L 839.50 98.41 L 843.60 98.41 L 847.70 98.41 L 851.80 98.41 L 855.90 98.41 L 860.00 98.41" fill="none" stroke="#111827" stroke-width="2"/>
    <circle cx="860.00" cy="98.41" r="3" fill="#111827"/>
    <text x="40.00" y="235.00" font-size="9" fill="#111827" text-anchor="middle" transform="rotate(-45 40.00 235.00)">09.08.2025</text><text x="122.00" y="235.00" font-size="9" fill="#111827" text-anchor="middle" transform="rotate(-45 122.00 235.00)">09.08.2025</text><text x="204.00" y="235.00" font-size="9" fill="#111827" text-anchor="middle" transform="rotate(-45 204.00 235.00)">16.08.2025</text><text x="286.00" y="235.00" font-size="9" fill="#111827" text-anchor="middle" transform="rotate(-45 286.00 235.00)">03.09.2025</text><text x="368.00" y="235.00" font-size="9" fill="#111827" text-anchor="middle" transform="rotate(-45 368.00 235.00)">23.09.2025</text><text x="450.00" y="235.00" font-size="9" fill="#111827" text-anchor="middle" transform="rotate(-45 450.00 235.00)">13.10.2025</text><text x="532.00" y="235.00" font-size="9" fill="#111827" text-anchor="middle" transform="rotate(-45 532.00 235.00)">02.11.2025</text><text x="614.00" y="235.00" font-size="9" fill="#111827" text-anchor="middle" transform="rotate(-45 614.00 235.00)">22.11.2025</text><text x="696.00" y="235.00" font-size="9" fill="#111827" text-anchor="middle" transform="rotate(-45 696.00 235.00)">05.12.2025</text><text x="778.00" y="235.00" font-size="9" fill="#111827" text-anchor="middle" transform="rotate(-45 778.00 235.00)">22.12.2025</text><text x="860.00" y="235.00" font-size="9" fill="#111827" text-anchor="middle" transform="rotate(-45 860.00 235.00)">11.01.2026</text>
  </g>
</svg>