<svg xmlns="http://www.w3.org/2000/svg" width="900" height="290" style="font-family: -apple-system, BlinkMacSystemFont, 'Segoe UI', Helvetica, Arial, sans-serif;">
  <rect width="100%" height="100%" fill="white"/>
  <g>
    <line x1="40" y1="220.00" x2="860" y2="220.00" stroke="#e5e7eb"/><text x="32" y="224.00" font-size="10" fill="#111827" text-anchor="end">0</text><line x1="40" y1="175.00" x2="860" y2="175.00" stroke="#e5e7eb"/><text x="32" y="179.00" font-size="10" fill="#111827" text-anchor="end">500</text><line x1="40" y1="130.00" x2="860" y2="130.00" stroke="#e5e7eb"/><text x="32" y="134.00" font-size="10" fill="#111827" text-anchor="end">1k</text><line x1="40" y1="85.00" x2="860" y2="85.00" stroke="#e5e7eb"/><text x="32" y="89.00" font-size="10" fill="#111827" text-anchor="end">1.5k</text><line x1="40" y1="40.00" x2="860" y2="40.00" stroke="#e5e7eb"/><text x="32" y="44.00" font-size="10" fill="#111827" text-anchor="end">2k</text>
    <line x1="40.00" y1="40" x2="40.00" y2="220" stroke="#e5e7eb" opacity="0.5"/><line x1="118.10" y1="40" x2="118.10" y2="220" stroke="#e5e7eb" opacity="0.5"/><line x1="196.19" y1="40" x2="196.19" y2="220" stroke="#e5e7eb" opacity="0.5"/><line x1="274.29" y1="40" x2="274.29" y2="220" stroke="#e5e7eb" opacity="0.5"/><line x1="352.38" y1="40" x2="352.38" y2="220" stroke="#e5e7eb" opacity="0.5"/><line x1="430.48" y1="40" x2="430.48" y2="220" stroke="#e5e7eb" opacity="0.5"/><line x1="508.57" y1="40" x2="508.57" y2="220" stroke="#e5e7eb" opacity="0.5"/><line x1="586.67" y1="40" x2="586.67" y2="220" stroke="#e5e7eb" opacity="0.5"/><line x1="664.76" y1="40" x2="664.76" y2="220" stroke="#e5e7eb" opacity="0.5"/><line x1="742.86" y1="40" x2="742.86" y2="220" stroke="#e5e7eb" opacity="0.5"/><line x1="820.95" y1="40" x2="820.95" y2="220" stroke="#e5e7eb" opacity="0.5"/>
    <line x1="40" y1="220" x2="860" y2="220" stroke="#9ca3af"/>
    <line x1="40" y1="40"   x2="40"   y2="220" stroke="#9ca3af"/>
    <path d="M 40.00 219.82 L 53.02 214.15 L 66.03 214.06 L 79.05 214.06 L 92.06 213.25 L 105.08 213.25 L 118.10 204.88 L 131.11 185.98 L 144.13 185.98 L 157.14 180.94 L 170.16 152.59 L 183.17 159.97 L 196.19 158.89 L 209.21 158.17 L 222.22 139.63 L 235.24 139.63 L 248.25 157.18 L 261.27 154.66 L 274.29 154.39 L 287.30 151.60 L 300.32 150.97 L 313.33 150.70 L 326.35 149.80 L 339.37 149.80 L 352.38 147.46 L 365.40 144.94 L 378.41 144.76 L 391.43 140.71 L 404.44 134.23 L 417.46 134.23 L 430.48 133.69 L 443.49 133.69 L 456.51 133.69 L 469.52 133.69 L 482.54 133.69 L 495.56 133.69 L 508.57 132.97 L 521.59 132.97 L 534.60 132.97 L 547.62 132.97 L 560.63 132.97 L 573.65 132.97 L 586.67 132.97 L 599.68 132.97 L 612.70 132.97 L 625.71 132.97 L 638.73 132.97 L 651.75 132.97 L 664.76 132.97 L 677.78 132.97 L 690.79 132.97 L 703.81 132.97 L 716.83 132.97 L 729.84 132.97 L 742.86 132.97 L 755.87 132.97 L 768.89 132.97 L 781.90 132.97 L 794.92 132.97 L 807.94 132.97 L 820.95 132.97 L 833.97 132.97 L 846.98 132.97 L 860.00 132.97" fill="none" stroke="#111827" stroke-width="2"/>
    <circle cx="860.00" cy="132.97" r="3" fill="#111827"/>
    <text x="40.00" y="235.00" font-size="9" fill="#111827" text-anchor="middle" transform="rotate(-45 40.00 235.00)">09.08.2025</text><text x="118.10" y="235.00" font-size="9" fill="#111827" text-anchor="middle" transform="rotate(-45 118.10 235.00)">09.08.2025</text><text x="196.19" y="235.00" font-size="9" fill="#111827" text-anchor="middle" transform="rotate(-45 196.19 235.00)">09.08.2025</text><text x="274.29" y="235.00" font-size="9" fill="#111827" text-anchor="middle" transform="rotate(-45 274.29 235.00)">09.08.2025</text><text x="352.38" y="235.00" font-size="9" fill="#111827" text-anchor="middle" transform="rotate(-45 352.38 235.00)">09.08.2025</text><text x="430.48" y="235.00" font-size="9" fill="#111827" text-anchor="middle" transform="rotate(-45 430.48 235.00)">13.08.2025</text><text x="508.57" y="235.00" font-size="9" fill="#111827" text-anchor="middle" transform="rotate(-45 508.57 235.00)">13.08.2025</text><text x="586.67" y="235.00" font-size="9" fill="#111827" text-anchor="middle" transform="rotate(-45 586.67 235.00)">18.08.2025</text><text x="664.76" y="235.00" font-size="9" fill="#111827" text-anchor="middle" transform="rotate(-45 664.76 235.00)">24.08.2025</text><text x="742.86" y="235.00" font-size="9" fill="#111827" text-anchor="middle" transform="rotate(-45 742.86 235.00)">28.08.2025</text><text x="820.95" y="235.00" font-size="9" fill="#111827" text-anchor="middle" transform="rotate(-45 820.95 235.00)">03.09.2025</text>
  </g>
</svg>