<svg xmlns="http://www.w3.org/2000/svg" width="900" height="290" style="font-family: -apple-system, BlinkMacSystemFont, 'Segoe UI', Helvetica, Arial, sans-serif;">
  <rect width="100%" height="100%" fill="#0d1117"/>
  <g>
    <line x1="40" y1="220.00" x2="860" y2="220.00" stroke="#30363d"/><text x="32" y="224.00" font-size="10" fill="#c9d1d9" text-anchor="end">0</text><line x1="40" y1="175.00" x2="860" y2="175.00" stroke="#30363d"/><text x="32" y="179.00" font-size="10" fill="#c9d1d9" text-anchor="end">500</text><line x1="40" y1="130.00" x2="860" y2="130.00" stroke="#30363d"/><text x="32" y="134.00" font-size="10" fill="#c9d1d9" text-anchor="end">1k</text><line x1="40" y1="85.00" x2="860" y2="85.00" stroke="#30363d"/><text x="32" y="89.00" font-size="10" fill="#c9d1d9" text-anchor="end">1.5k</text><line x1="40" y1="40.00" x2="860" y2="40.00" stroke="#30363d"/><text x="32" y="44.00" font-size="10" fill="#c9d1d9" text-anchor="end">2k</text>
    <line x1="40.00" y1="40" x2="40.00" y2="220" stroke="#30363d" opacity="0.5"/><line x1="120.39" y1="40" x2="120.39" y2="220" stroke="#30363d" opacity="0.5"/><line x1="200.78" y1="40" x2="200.78" y2="220" stroke="#30363d" opacity="0.5"/><line x1="281.18" y1="40" x2="281.18" y2="220" stroke="#30363d" opacity="0.5"/><line x1="361.57" y1="40" x2="361.57" y2="220" stroke="#30363d" opacity="0.5"/><line x1="441.96" y1="40" x2="441.96" y2="220" stroke="#30363d" opacity="0.5"/><line x1="522.35" y1="40" x2="522.35" y2="220" stroke="#30363d" opacity="0.5"/><line x1="602.75" y1="40" x2="602.75" y2="220" stroke="#30363d" opacity="0.5"/><line x1="683.14" y1="40" x2="683.14" y2="220" stroke="#30363d" opacity="0.5"/><line x1="763.53" y1="40" x2="763.53" y2="220" stroke="#30363d" opacity="0.5"/><line x1="843.92" y1="40" x2="843.92" y2="220" stroke="#30363d" opacity="0.5"/>
    <line x1="40" y1="220" x2="860" y2="220" stroke="#30363d"/>
    <line x1="40" y1="40"   x2="40"   y2="220" stroke="#30363d"/>
    <path d="M 40.00 219.82 L 48.04 214.15 L 56.08 214.06 L 64.12 214.06 L 72.16 213.25 L 80.20 213.25 L 88.24 204.88 L 96.27 185.98 L 104.31 185.98 L 112.35 180.94 L 120.39 152.59 L 128.43 159.97 L 136.47 158.89 L 144.51 158.17 L 152.55 139.63 L 160.59 139.63 L 168.63 157.18 L 176.67 154.66 L 184.71 154.39 L 192.75 151.60 L 200.78 150.97 L 208.82 150.70 L 216.86 149.80 L 224.90 149.80 L 232.94 147.46 L 240.98 144.94 L 249.02 144.76 L 257.06 140.71 L 265.10 134.23 L 273.14 134.23 L 281.18 133.69 L 289.22 133.69 L 297.25 133.69 L 305.29 133.69 L 313.33 133.69 L 321.37 133.69 L 329.41 132.97 L 337.45 132.97 L 345.49 132.97 L 353.53 132.97 L 361.57 132.97 L 369.61 132.97 L 377.65 132.97 L 385.69 132.97 L 393.73 132.97 L 401.76 132.97 L 409.80 132.97 L 417.84 132.97 L 425.88 132.97 L 433.92 132.97 L 441.96 132.97 L 450.00 132.97 L 458.04 132.97 L 466.08 132.97 L 474.12 132.97 L 482.16 132.97 L 490.20 132.97 L 498.24 132.97 L 506.27 132.97 L 514.31 132.97 L 522.35 132.97 L 530.39 132.97 L 538.43 132.97 L 546.47 132.97 L 554.51 132.97 L 562.55 132.97 L 570.59 132.97 L 578.63 132.97 L 586.67 132.97 L 594.71 132.97 L 602.75 132.97 L 610.78 132.97 L 618.82 132.97 L 626.86 132.97 L 634.90 132.97 L 642.94 132.97 L 650.98 132.97 L 659.02 132.97 L 667.06 132.97 L 675.10 132.97 L 683.14 132.97 L 691.18 132.97 L 699.22 132.97 L 707.25 132.97 L 715.29 132.97 L 723.33 132.97 L 731.37 132.97 L 739.41 132.97 L 747.45 132.97 L 755.49 132.97 L 763.53 132.97 L 771.57 132.97 L 779.61 132.97 L 787.65 132.97 L 795.69 132.97 L 803.73 132.97 L 811.76 132.97 L 819.80 132.97 L 827.84 132.97 L 835.88 132.97 L 843.92 132.97 L 851.96 132.97 L 860.00 132.97" fill="none" stroke="#3fb950" stroke-width="2"/>
    <circle cx="860.00" cy="132.97" r="3" fill="#3fb950"/>
    <text x="40.00" y="235.00" font-size="9" fill="#c9d1d9" text-anchor="middle" transform="rotate(-45 40.00 235.00)">09.08.2025</text><text x="120.39" y="235.00" font-size="9" fill="#c9d1d9" text-anchor="middle" transform="rotate(-45 120.39 235.00)">09.08.2025</text><text x="200.78" y="235.00" font-size="9" fill="#c9d1d9" text-anchor="middle" transform="rotate(-45 200.78 235.00)">09.08.2025</text><text x="281.18" y="235.00" font-size="9" fill="#c9d1d9" text-anchor="middle" transform="rotate(-45 281.18 235.00)">13.08.2025</text><text x="361.57" y="235.00" font-size="9" fill="#c9d1d9" text-anchor="middle" transform="rotate(-45 361.57 235.00)">16.08.2025</text><text x="441.96" y="235.00" font-size="9" fill="#c9d1d9" text-anchor="middle" transform="rotate(-45 441.96 235.00)">26.08.2025</text><text x="522.35" y="235.00" font-size="9" fill="#c9d1d9" text-anchor="middle" transform="rotate(-45 522.35 235.00)">03.09.2025</text><text x="602.75" y="235.00" font-size="9" fill="#c9d1d9" text-anchor="middle" transform="rotate(-45 602.75 235.00)">13.09.2025</text><text x="683.14" y="235.00" font-size="9" fill="#c9d1d9" text-anchor="middle" transform="rotate(-45 683.14 235.00)">23.09.2025</text><text x="763.53" y="235.00" font-size="9" fill="#c9d1d9" text-anchor="middle" transform="rotate(-45 763.53 235.00)">03.10.2025</text><text x="843.92" y="235.00" font-size="9" fill="#c9d1d9" text-anchor="middle" transform="rotate(-45 843.92 235.00)">13.10.2025</text>
  </g>
</svg>