<svg xmlns="http://www.w3.org/2000/svg" width="900" height="290" style="font-family: -apple-system, BlinkMacSystemFont, 'Segoe UI', Helvetica, Arial, sans-serif;">
  <rect width="100%" height="100%" fill="white"/>
  <g>
    <line x1="40" y1="220.00" x2="860" y2="220.00" stroke="#e5e7eb"/><text x="32" y="224.00" font-size="10" fill="#111827" text-anchor="end">0</text><line x1="40" y1="175.00" x2="860" y2="175.00" stroke="#e5e7eb"/><text x="32" y="179.00" font-size="10" fill="#111827" text-anchor="end">500</text><line x1="40" y1="130.00" x2="860" y2="130.00" stroke="#e5e7eb"/><text x="32" y="134.00" font-size="10" fill="#111827" text-anchor="end">1k</text><line x1="40" y1="85.00" x2="860" y2="85.00" stroke="#e5e7eb"/><text x="32" y="89.00" font-size="10" fill="#111827" text-anchor="end">1.5k</text><line x1="40" y1="40.00" x2="860" y2="40.00" stroke="#e5e7eb"/><text x="32" y="44.00" font-size="10" fill="#111827" text-anchor="end">2k</text>
    <line x1="40.00" y1="40" x2="40.00" y2="220" stroke="#e5e7eb" opacity="0.5"/><line x1="117.36" y1="40" x2="117.36" y2="220" stroke="#e5e7eb" opacity="0.5"/><line x1="194.72" y1="40" x2="194.72" y2="220" stroke="#e5e7eb" opacity="0.5"/><line x1="272.08" y1="40" x2="272.08" y2="220" stroke="#e5e7eb" opacity="0.5"/><line x1="349.43" y1="40" x2="349.43" y2="220" stroke="#e5e7eb" opacity="0.5"/><line x1="426.79" y1="40" x2="426.79" y2="220" stroke="#e5e7eb" opacity="0.5"/><line x1="504.15" y1="40" x2="504.15" y2="220" stroke="#e5e7eb" opacity="0.5"/><line x1="581.51" y1="40" x2="581.51" y2="220" stroke="#e5e7eb" opacity="0.5"/><line x1="658.87" y1="40" x2="658.87" y2="220" stroke="#e5e7eb" opacity="0.5"/><line x1="736.23" y1="40" x2="736.23" y2="220" stroke="#e5e7eb" opacity="0.5"/><line x1="813.58" y1="40" x2="813.58" y2="220" stroke="#e5e7eb" opacity="0.5"/>
    <line x1="40" y1="220" x2="860" y2="220" stroke="#9ca3af"/>
    <line x1="40" y1="40"   x2="40"   y2="220" stroke="#9ca3af"/>
    <path d="M 40.00 219.82 L 47.74 214.15 L 55.47 214.06 L 63.21 214.06 L 70.94 213.25 L 78.68 213.25 L 86.42 204.88 L 94.15 185.98 L 101.89 185.98 L 109.62 180.94 L 117.36 152.59 L 125.09 159.97 L 132.83 158.89 L 140.57 158.17 L 148.30 139.63 L 156.04 139.63 L 163.77 157.18 L 171.51 154.66 L 179.25 154.39 L 186.98 151.60 L 194.72 150.97 L 202.45 150.70 L 210.19 149.80 L 217.92 149.80 L 225.66 147.46 L 233.40 144.94 L 241.13 144.76 L 248.87 140.71 L 256.60 134.23 L 264.34 134.23 L 272.08 133.69 L 279.81 133.69 L 287.55 133.69 L 295.28 133.69 L 303.02 133.69 L 310.75 133.69 L 318.49 132.97 L 326.23 132.97 L 333.96 132.97 L 341.70 132.97 L 349.43 132.97 L 357.17 132.97 L 364.91 132.97 L 372.64 132.97 L 380.38 132.97 L 388.11 132.97 L 395.85 132.97 L 403.58 132.97 L 411.32 132.97 L 419.06 132.97 L 426.79 132.97 L 434.53 132.97 L 442.26 132.97 L 450.00 132.97 L 457.74 132.97 L 465.47 132.97 L 473.21 132.97 L 480.94 132.97 L 488.68 132.97 L 496.42 132.97 L 504.15 132.97 L 511.89 132.97 L 519.62 132.97 L 527.36 132.97 L 535.09 132.97 L 542.83 132.97 L 550.57 132.97 L 558.30 132.97 L 566.04 132.97 L 573.77 132.97 L 581.51 132.97 L 589.25 132.97 L 596.98 132.97 L 604.72 132.97 L 612.45 132.97 L 620.19 132.97 L 627.92 132.97 L 635.66 132.97 L 643.40 132.97 L 651.13 132.97 L 658.87 132.97 L 666.60 132.97 L 674.34 132.97 L 682.08 132.97 L 689.81 132.97 L 697.55 132.97 L 705.28 132.97 L 713.02 132.97 L 720.75 132.97 L 728.49 132.97 L 736.23 132.97 L 743.96 132.97 L 751.70 132.97 L 759.43 132.97 L 767.17 132.97 L 774.91 132.97 L 782.64 132.97 L 790.38 132.97 L 798.11 132.97 L 805.85 132.97 L 813.58 132.97 L 821.32 132.97 L 829.06 132.97 L 836.79 132.97 L 844.53 132.97 L 852.26 132.97 L 860.00 132.97" fill="none" stroke="#111827" stroke-width="2"/>
    <circle cx="860.00" cy="132.97" r="3" fill="#111827"/>
    <text x="40.00" y="235.00" font-size="9" fill="#111827" text-anchor="middle" transform="rotate(-45 40.00 235.00)">09.08.2025</text><text x="117.36" y="235.00" font-size="9" fill="#111827" text-anchor="middle" transform="rotate(-45 117.36 235.00)">09.08.2025</text><text x="194.72" y="235.00" font-size="9" fill="#111827" text-anchor="middle" transform="rotate(-45 194.72 235.00)">09.08.2025</text><text x="272.08" y="235.00" font-size="9" fill="#111827" text-anchor="middle" transform="rotate(-45 272.08 235.00)">13.08.2025</text><text x="349.43" y="235.00" font-size="9" fill="#111827" text-anchor="middle" transform="rotate(-45 349.43 235.00)">16.08.2025</text><text x="426.79" y="235.00" font-size="9" fill="#111827" text-anchor="middle" transform="rotate(-45 426.79 235.00)">26.08.2025</text><text x="504.15" y="235.00" font-size="9" fill="#111827" text-anchor="middle" transform="rotate(-45 504.15 235.00)">03.09.2025</text><text x="581.51" y="235.00" font-size="9" fill="#111827" text-anchor="middle" transform="rotate(-45 581.51 235.00)">13.09.2025</text><text x="658.87" y="235.00" font-size="9" fill="#111827" text-anchor="middle" transform="rotate(-45 658.87 235.00)">23.09.2025</text><text x="736.23" y="235.00" font-size="9" fill="#111827" text-anchor="middle" transform="rotate(-45 736.23 235.00)">03.10.2025</text><text x="813.58" y="235.00" font-size="9" fill="#111827" text-anchor="middle" transform="rotate(-45 813.58 235.00)">13.10.2025</text>
  </g>
</svg>