<svg xmlns="http://www.w3.org/2000/svg" width="900" height="290" style="font-family: -apple-system, BlinkMacSystemFont, 'Segoe UI', Helvetica, Arial, sans-serif;">
  <rect width="100%" height="100%" fill="white"/>
  <g>
    <line x1="40" y1="220.00" x2="860" y2="220.00" stroke="#e5e7eb"/><text x="32" y="224.00" font-size="10" fill="#111827" text-anchor="end">0</text><line x1="40" y1="175.00" x2="860" y2="175.00" stroke="#e5e7eb"/><text x="32" y="179.00" font-size="10" fill="#111827" text-anchor="end">500</text><line x1="40" y1="130.00" x2="860" y2="130.00" stroke="#e5e7eb"/><text x="32" y="134.00" font-size="10" fill="#111827" text-anchor="end">1k</text><line x1="40" y1="85.00" x2="860" y2="85.00" stroke="#e5e7eb"/><text x="32" y="89.00" font-size="10" fill="#111827" text-anchor="end">1.5k</text><line x1="40" y1="40.00" x2="860" y2="40.00" stroke="#e5e7eb"/><text x="32" y="44.00" font-size="10" fill="#111827" text-anchor="end">2k</text>
    <line x1="40.00" y1="40" x2="40.00" y2="220" stroke="#e5e7eb" opacity="0.5"/><line x1="119.17" y1="40" x2="119.17" y2="220" stroke="#e5e7eb" opacity="0.5"/><line x1="198.34" y1="40" x2="198.34" y2="220" stroke="#e5e7eb" opacity="0.5"/><line x1="277.52" y1="40" x2="277.52" y2="220" stroke="#e5e7eb" opacity="0.5"/><line x1="356.69" y1="40" x2="356.69" y2="220" stroke="#e5e7eb" opacity="0.5"/><line x1="435.86" y1="40" x2="435.86" y2="220" stroke="#e5e7eb" opacity="0.5"/><line x1="515.03" y1="40" x2="515.03" y2="220" stroke="#e5e7eb" opacity="0.5"/><line x1="594.21" y1="40" x2="594.21" y2="220" stroke="#e5e7eb" opacity="0.5"/><line x1="673.38" y1="40" x2="673.38" y2="220" stroke="#e5e7eb" opacity="0.5"/><line x1="752.55" y1="40" x2="752.55" y2="220" stroke="#e5e7eb" opacity="0.5"/><line x1="831.72" y1="40" x2="831.72" y2="220" stroke="#e5e7eb" opacity="0.5"/>
    <line x1="40" y1="220" x2="860" y2="220" stroke="#9ca3af"/>
    <line x1="40" y1="40"   x2="40"   y2="220" stroke="#9ca3af"/>
    <path d="M 40.00 219.82 L 45.66 214.15 L 51.31 214.06 L 56.97 214.06 L 62.62 213.25 L 68.28 213.25 L 73.93 204.88 L 79.59 185.98 L 85.24 185.98 L 90.90 180.94 L 96.55 152.59 L 102.21 159.97 L 107.86 158.89 L 113.52 158.17 L 119.17 139.63 L 124.83 139.63 L 130.48 157.18 L 136.14 154.66 L 141.79 154.39 L 147.45 151.60 L 153.10 150.97 L 158.76 150.70 L 164.41 149.80 L 170.07 149.80 L 175.72 147.46 L 181.38 144.94 L 187.03 144.76 L 192.69 140.71 L 198.34 134.23 L 204.00 134.23 L 209.66 133.69 L 215.31 133.69 L 220.97 133.69 L 226.62 133.69 L 232.28 133.69 L 237.93 133.69 L 243.59 132.97 L 249.24 132.97 L 254.90 132.97 L 260.55 132.97 L 266.21 132.97 L 271.86 132.97 L 277.52 132.97 L 283.17 132.97 L 288.83 132.97 L 294.48 132.97 L 300.14 132.97 L 305.79 132.97 L 311.45 132.97 L 317.10 132.97 L 322.76 132.97 L 328.41 132.97 L 334.07 132.97 L 339.72 132.97 L 345.38 132.97 L 351.03 132.97 L 356.69 132.97 L 362.34 132.97 L 368.00 132.97 L 373.66 132.97 L 379.31 132.97 L 384.97 132.97 L 390.62 132.97 L 396.28 132.97 L 401.93 132.97 L 407.59 132.97 L 413.24 132.97 L 418.90 132.97 L 424.55 132.97 L 430.21 132.97 L 435.86 132.97 L 441.52 132.97 L 447.17 132.97 L 452.83 132.97 L 458.48 132.97 L 464.14 132.97 L 469.79 132.97 L 475.45 132.97 L 481.10 132.97 L 486.76 132.97 L 492.41 132.97 L 498.07 132.97 L 503.72 132.97 L 509.38 132.97 L 515.03 132.97 L 520.69 132.97 L 526.34 132.97 L 532.00 132.97 L 537.66 132.97 L 543.31 132.97 L 548.97 132.97 L 554.62 132.97 L 560.28 132.97 L 565.93 132.97 L 571.59 132.97 L 577.24 132.97 L 582.90 132.97 L 588.55 132.97 L 594.21 132.97 L 599.86 132.97 L 605.52 132.97 L 611.17 132.97 L 616.83 132.97 L 622.48 132.97 L 628.14 132.97 L 633.79 132.97 L 639.45 132.97 L 645.10 132.97 L 650.76 132.97 L 656.41 132.97 L 662.07 132.97 L 667.72 132.97 L 673.38 132.97 L 679.03 132.97 L 684.69 132.97 L 690.34 132.97 L 696.00 132.97 L 701.66 132.97 L 707.31 132.97 L 712.97 132.97 L 718.62 132.97 L 724.28 132.97 L 729.93 132.97 L 735.59 132.97 L 741.24 132.97 L 746.90 132.97 L 752.55 132.97 L 758.21 132.97 L 763.86 132.97 L 769.52 132.97 L 775.17 132.97 L 780.83 132.97 L 786.48 132.97 L 792.14 132.97 L 797.79 132.97 L 803.45 132.97 L 809.10 132.97 L 814.76 132.97 L 820.41 132.97 L 826.07 132.97 L 831.72 132.97 L 837.38 132.97 L 843.03 132.97 L 848.69 132.97 L 854.34 132.97 L 860.00 132.97" fill="none" stroke="#111827" stroke-width="2"/>
    <circle cx="860.00" cy="132.97" r="3" fill="#111827"/>
    <text x="40.00" y="235.00" font-size="9" fill="#111827" text-anchor="middle" transform="rotate(-45 40.00 235.00)">09.08.2025</text><text x="119.17" y="235.00" font-size="9" fill="#111827" text-anchor="middle" transform="rotate(-45 119.17 235.00)">09.08.2025</text><text x="198.34" y="235.00" font-size="9" fill="#111827" text-anchor="middle" transform="rotate(-45 198.34 235.00)">13.08.2025</text><text x="277.52" y="235.00" font-size="9" fill="#111827" text-anchor="middle" transform="rotate(-45 277.52 235.00)">18.08.2025</text><text x="356.69" y="235.00" font-size="9" fill="#111827" text-anchor="middle" transform="rotate(-45 356.69 235.00)">30.08.2025</text><text x="435.86" y="235.00" font-size="9" fill="#111827" text-anchor="middle" transform="rotate(-45 435.86 235.00)">13.09.2025</text><text x="515.03" y="235.00" font-size="9" fill="#111827" text-anchor="middle" transform="rotate(-45 515.03 235.00)">27.09.2025</text><text x="594.21" y="235.00" font-size="9" fill="#111827" text-anchor="middle" transform="rotate(-45 594.21 235.00)">11.10.2025</text><text x="673.38" y="235.00" font-size="9" fill="#111827" text-anchor="middle" transform="rotate(-45 673.38 235.00)">25.10.2025</text><text x="752.55" y="235.00" font-size="9" fill="#111827" text-anchor="middle" transform="rotate(-45 752.55 235.00)">08.11.2025</text><text x="831.72" y="235.00" font-size="9" fill="#111827" text-anchor="middle" transform="rotate(-45 831.72 235.00)">22.11.2025</text>
  </g>
</svg>