<svg xmlns="http://www.w3.org/2000/svg" width="900" height="290" style="font-family: -apple-system, BlinkMacSystemFont, 'Segoe UI', Helvetica, Arial, sans-serif;">
  <rect width="100%" height="100%" fill="#0d1117"/>
  <g>
    <line x1="40" y1="220.00" x2="860" y2="220.00" stroke="#30363d"/><text x="32" y="224.00" font-size="10" fill="#c9d1d9" text-anchor="end">0</text><line x1="40" y1="175.00" x2="860" y2="175.00" stroke="#30363d"/><text x="32" y="179.00" font-size="10" fill="#c9d1d9" text-anchor="end">500</text><line x1="40" y1="130.00" x2="860" y2="130.00" stroke="#30363d"/><text x="32" y="134.00" font-size="10" fill="#c9d1d9" text-anchor="end">1k</text><line x1="40" y1="85.00" x2="860" y2="85.00" stroke="#30363d"/><text x="32" y="89.00" font-size="10" fill="#c9d1d9" text-anchor="end">1.5k</text><line x1="40" y1="40.00" x2="860" y2="40.00" stroke="#30363d"/><text x="32" y="44.00" font-size="10" fill="#c9d1d9" text-anchor="end">2k</text>
    <line x1="40.00" y1="40" x2="40.00" y2="220" stroke="#30363d" opacity="0.5"/><line x1="119.23" y1="40" x2="119.23" y2="220" stroke="#30363d" opacity="0.5"/><line x1="198.45" y1="40" x2="198.45" y2="220" stroke="#30363d" opacity="0.5"/><line x1="277.68" y1="40" x2="277.68" y2="220" stroke="#30363d" opacity="0.5"/><line x1="356.91" y1="40" x2="356.91" y2="220" stroke="#30363d" opacity="0.5"/><line x1="436.14" y1="40" x2="436.14" y2="220" stroke="#30363d" opacity="0.5"/><line x1="515.36" y1="40" x2="515.36" y2="220" stroke="#30363d" opacity="0.5"/><line x1="594.59" y1="40" x2="594.59" y2="220" stroke="#30363d" opacity="0.5"/><line x1="673.82" y1="40" x2="673.82" y2="220" stroke="#30363d" opacity="0.5"/><line x1="753.04" y1="40" x2="753.04" y2="220" stroke="#30363d" opacity="0.5"/><line x1="832.27" y1="40" x2="832.27" y2="220" stroke="#30363d" opacity="0.5"/>
    <line x1="40" y1="220" x2="860" y2="220" stroke="#30363d"/>
    <line x1="40" y1="40"   x2="40"   y2="220" stroke="#30363d"/>
    <path d="M 40.00 219.82 L 43.96 214.15 L 47.92 214.06 L 51.88 214.06 L 55.85 213.25 L 59.81 213.25 L 63.77 204.88 L 67.73 185.98 L 71.69 185.98 L 75.65 180.94 L 79.61 152.59 L 83.57 159.97 L 87.54 158.89 L 91.50 158.17 L 95.46 139.63 L 99.42 139.63 L 103.38 157.18 L 107.34 154.66 L 111.30 154.39 L 115.27 151.60 L 119.23 150.97 L 123.19 150.70 L 127.15 149.80 L 131.11 149.80 L 135.07 147.46 L 139.03 144.94 L 143.00 144.76 L 146.96 140.71 L 150.92 134.23 L 154.88 134.23 L 158.84 133.69 L 162.80 133.69 L 166.76 133.69 L 170.72 133.69 L 174.69 133.69 L 178.65 133.69 L 182.61 132.97 L 186.57 132.97 L 190.53 132.97 L 194.49 132.97 L 198.45 132.97 L 202.42 132.97 L 206.38 132.97 L 210.34 132.97 L 214.30 132.97 L 218.26 132.97 L 222.22 132.97 L 226.18 132.97 L 230.14 132.97 L 234.11 132.97 L 238.07 132.97 L 242.03 132.97 L 245.99 132.97 L 249.95 132.97 L 253.91 132.97 L 257.87 132.97 L 261.84 132.97 L 265.80 132.97 L 269.76 132.97 L 273.72 132.97 L 277.68 132.97 L 281.64 132.97 L 285.60 132.97 L 289.57 132.97 L 293.53 132.97 L 297.49 132.97 L 301.45 132.97 L 305.41 132.97 L 309.37 132.97 L 313.33 132.97 L 317.29 132.97 L 321.26 132.97 L 325.22 132.97 L 329.18 132.97 L 333.14 132.97 L 337.10 132.97 L 341.06 132.97 L 345.02 132.97 L 348.99 132.97 L 352.95 132.97 L 356.91 132.97 L 360.87 132.97 L 364.83 132.97 L 368.79 132.97 L 372.75 132.97 L 376.71 132.97 L 380.68 132.97 L 384.64 132.97 L 388.60 132.97 L 392.56 132.97 L 396.52 132.97 L 400.48 132.97 L 404.44 132.97 L 408.41 132.97 L 412.37 132.97 L 416.33 132.97 L 420.29 132.97 L 424.25 132.97 L 428.21 132.97 L 432.17 132.97 L 436.14 132.97 L 440.10 132.97 L 444.06 132.97 L 448.02 132.97 L 451.98 132.97 L 455.94 132.97 L 459.90 132.97 L 463.86 132.97 L 467.83 132.97 L 471.79 132.97 L 475.75 132.97 L 479.71 132.97 L 483.67 132.97 L 487.63 132.97 L 491.59 132.97 L 495.56 132.97 L 499.52 132.97 L 503.48 132.97 L 507.44 132.97 L 511.40 132.97 L 515.36 132.97 L 519.32 132.97 L 523.29 132.97 L 527.25 132.97 L 531.21 132.97 L 535.17 132.97 L 539.13 132.97 L 543.09 132.97 L 547.05 132.97 L 551.01 132.97 L 554.98 132.97 L 558.94 132.97 L 562.90 132.97 L 566.86 132.97 L 570.82 132.97 L 574.78 132.97 L 578.74 132.97 L 582.71 132.97 L 586.67 132.97 L 590.63 132.97 L 594.59 132.97 L 598.55 132.97 L 602.51 132.97 L 606.47 132.97 L 610.43 132.97 L 614.40 132.97 L 618.36 132.97 L 622.32 132.97 L 626.28 132.97 L 630.24 132.97 L 634.20 132.97 L 638.16 132.97 L 642.13 132.97 L 646.09 124.51 L 650.05 120.64 L 654.01 116.77 L 657.97 112.90 L 661.93 109.03 L 665.89 105.97 L 669.86 105.97 L 673.82 105.97 L 677.78 105.97 L 681.74 105.97 L 685.70 105.79 L 689.66 103.09 L 693.62 98.41 L 697.58 98.41 L 701.55 98.41 L 705.51 98.41 L 709.47 98.41 L 713.43 98.41 L 717.39 98.41 L 721.35 98.41 L 725.31 98.41 L 729.28 98.41 L 733.24 98.41 L 737.20 98.41 L 741.16 98.41 L 745.12 98.41 L 749.08 98.41 L 753.04 98.41 L 757.00 98.41 L 760.97 98.41 L 764.93 98.41 L 768.89 98.41 L 772.85 98.41 L 776.81 98.41 L 780.77 98.41 L 784.73 98.41 L 788.70 98.41 L 792.66 98.41 L 796.62 98.41 L 800.58 98.41 L 804.54 98.41 L 808.50 98.41 L 812.46 98.41 L 816.43 98.41 L 820.39 98.41 L 824.35 98.41 L 828.31 98.41 L 832.27 98.41 L 836.23 98.41 L 840.19 98.41 L 844.15 98.41 L 848.12 98.41 L 852.08 98.41 L 856.04 98.41 L 860.00 98.41" fill="none" stroke="#3fb950" stroke-width="2"/>
    <circle cx="860.00" cy="98.41" r="3" fill="#3fb950"/>
    <text x="40.00" y="235.00" font-size="9" fill="#c9d1d9" text-anchor="middle" transform="rotate(-45 40.00 235.00)">09.08.2025</text><text x="119.23" y="235.00" font-size="9" fill="#c9d1d9" text-anchor="middle" transform="rotate(-45 119.23 235.00)">09.08.2025</text><text x="198.45" y="235.00" font-size="9" fill="#c9d1d9" text-anchor="middle" transform="rotate(-45 198.45 235.00)">16.08.2025</text><text x="277.68" y="235.00" font-size="9" fill="#c9d1d9" text-anchor="middle" transform="rotate(-45 277.68 235.00)">03.09.2025</text><text x="356.91" y="235.00" font-size="9" fill="#c9d1d9" text-anchor="middle" transform="rotate(-45 356.91 235.00)">23.09.2025</text><text x="436.14" y="235.00" font-size="9" fill="#c9d1d9" text-anchor="middle" transform="rotate(-45 436.14 235.00)">13.10.2025</text><text x="515.36" y="235.00" font-size="9" fill="#c9d1d9" text-anchor="middle" transform="rotate(-45 515.36 235.00)">02.11.2025</text><text x="594.59" y="235.00" font-size="9" fill="#c9d1d9" text-anchor="middle" transform="rotate(-45 594.59 235.00)">22.11.2025</text><text x="673.82" y="235.00" font-size="9" fill="#c9d1d9" text-anchor="middle" transform="rotate(-45 673.82 235.00)">05.12.2025</text><text x="753.04" y="235.00" font-size="9" fill="#c9d1d9" text-anchor="middle" transform="rotate(-45 753.04 235.00)">22.12.2025</text><text x="832.27" y="235.00" font-size="9" fill="#c9d1d9" text-anchor="middle" transform="rotate(-45 832.27 235.00)">11.01.2026</text>
  </g>
</svg>