<svg xmlns="http://www.w3.org/2000/svg" width="900" height="290" style="font-family: -apple-system, BlinkMacSystemFont, 'Segoe UI', Helvetica, Arial, sans-serif;">
  <rect width="100%" height="100%" fill="white"/>
  <g>
    <line x1="40" y1="220.00" x2="860" y2="220.00" stroke="#e5e7eb"/><text x="32" y="224.00" font-size="10" fill="#111827" text-anchor="end">0</text><line x1="40" y1="175.00" x2="860" y2="175.00" stroke="#e5e7eb"/><text x="32" y="179.00" font-size="10" fill="#111827" text-anchor="end">500</text><line x1="40" y1="130.00" x2="860" y2="130.00" stroke="#e5e7eb"/><text x="32" y="134.00" font-size="10" fill="#111827" text-anchor="end">1k</text><line x1="40" y1="85.00" x2="860" y2="85.00" stroke="#e5e7eb"/><text x="32" y="89.00" font-size="10" fill="#111827" text-anchor="end">1.5k</text><line x1="40" y1="40.00" x2="860" y2="40.00" stroke="#e5e7eb"/><text x="32" y="44.00" font-size="10" fill="#111827" text-anchor="end">2k</text>
    <line x1="40.00" y1="40" x2="40.00" y2="220" stroke="#e5e7eb" opacity="0.5"/><line x1="121.26" y1="40" x2="121.26" y2="220" stroke="#e5e7eb" opacity="0.5"/><line x1="202.52" y1="40" x2="202.52" y2="220" stroke="#e5e7eb" opacity="0.5"/><line x1="283.78" y1="40" x2="283.78" y2="220" stroke="#e5e7eb" opacity="0.5"/><line x1="365.05" y1="40" x2="365.05" y2="220" stroke="#e5e7eb" opacity="0.5"/><line x1="446.31" y1="40" x2="446.31" y2="220" stroke="#e5e7eb" opacity="0.5"/><line x1="527.57" y1="40" x2="527.57" y2="220" stroke="#e5e7eb" opacity="0.5"/><line x1="608.83" y1="40" x2="608.83" y2="220" stroke="#e5e7eb" opacity="0.5"/><line x1="690.09" y1="40" x2="690.09" y2="220" stroke="#e5e7eb" opacity="0.5"/><line x1="771.35" y1="40" x2="771.35" y2="220" stroke="#e5e7eb" opacity="0.5"/><line x1="852.61" y1="40" x2="852.61" y2="220" stroke="#e5e7eb" opacity="0.5"/>
    <line x1="40" y1="220" x2="860" y2="220" stroke="#9ca3af"/>
    <line x1="40" y1="40"   x2="40"   y2="220" stroke="#9ca3af"/>
    <path d="M 40.00 219.82 L 43.69 214.15 L 47.39 214.06 L 51.08 214.06 L 54.77 213.25 L 58.47 213.25 L 62.16 204.88 L 65.86 185.98 L 69.55 185.98 L 73.24 180.94 L 76.94 152.59 L 80.63 159.97 L 84.32 158.89 L 88.02 158.17 L 91.71 139.63 L 95.41 139.63 L 99.10 157.18 L 102.79 154.66 L 106.49 154.39 L 110.18 151.60 L 113.87 150.97 L 117.57 150.70 L 121.26 149.80 L 124.95 149.80 L 128.65 147.46 L 132.34 144.94 L 136.04 144.76 L 139.73 140.71 L 143.42 134.23 L 147.12 134.23 L 150.81 133.69 L 154.50 133.69 L 158.20 133.69 L 161.89 133.69 L 165.59 133.69 L 169.28 133.69 L 172.97 132.97 L 176.67 132.97 L 180.36 132.97 L 184.05 132.97 L 187.75 132.97 L 191.44 132.97 L 195.14 132.97 L 198.83 132.97 L 202.52 132.97 L 206.22 132.97 L 209.91 132.97 L 213.60 132.97 L 217.30 132.97 L 220.99 132.97 L 224.68 132.97 L 228.38 132.97 L 232.07 132.97 L 235.77 132.97 L 239.46 132.97 L 243.15 132.97 L 246.85 132.97 L 250.54 132.97 L 254.23 132.97 L 257.93 132.97 L 261.62 132.97 L 265.32 132.97 L 269.01 132.97 L 272.70 132.97 L 276.40 132.97 L 280.09 132.97 L 283.78 132.97 L 287.48 132.97 L 291.17 132.97 L 294.86 132.97 L 298.56 132.97 L 302.25 132.97 L 305.95 132.97 L 309.64 132.97 L 313.33 132.97 L 317.03 132.97 L 320.72 132.97 L 324.41 132.97 L 328.11 132.97 L 331.80 132.97 L 335.50 132.97 L 339.19 132.97 L 342.88 132.97 L 346.58 132.97 L 350.27 132.97 L 353.96 132.97 L 357.66 132.97 L 361.35 132.97 L 365.05 132.97 L 368.74 132.97 L 372.43 132.97 L 376.13 132.97 L 379.82 132.97 L 383.51 132.97 L 387.21 132.97 L 390.90 132.97 L 394.59 132.97 L 398.29 132.97 L 401.98 132.97 L 405.68 132.97 L 409.37 132.97 L 413.06 132.97 L 416.76 132.97 L 420.45 132.97 L 424.14 132.97 L 427.84 132.97 L 431.53 132.97 L 435.23 132.97 L 438.92 132.97 L 442.61 132.97 L 446.31 132.97 L 450.00 132.97 L 453.69 132.97 L 457.39 132.97 L 461.08 132.97 L 464.77 132.97 L 468.47 132.97 L 472.16 132.97 L 475.86 132.97 L 479.55 132.97 L 483.24 132.97 L 486.94 132.97 L 490.63 132.97 L 494.32 132.97 L 498.02 132.97 L 501.71 132.97 L 505.41 132.97 L 509.10 132.97 L 512.79 132.97 L 516.49 132.97 L 520.18 132.97 L 523.87 132.97 L 527.57 132.97 L 531.26 132.97 L 534.95 132.97 L 538.65 132.97 L 542.34 132.97 L 546.04 132.97 L 549.73 132.97 L 553.42 132.97 L 557.12 132.97 L 560.81 132.97 L 564.50 132.97 L 568.20 132.97 L 571.89 132.97 L 575.59 132.97 L 579.28 132.97 L 582.97 132.97 L 586.67 132.97 L 590.36 132.97 L 594.05 132.97 L 597.75 132.97 L 601.44 132.97 L 605.14 124.51 L 608.83 120.64 L 612.52 116.77 L 616.22 112.90 L 619.91 109.03 L 623.60 105.97 L 627.30 105.97 L 630.99 105.97 L 634.68 105.97 L 638.38 105.97 L 642.07 105.79 L 645.77 103.09 L 649.46 98.41 L 653.15 98.41 L 656.85 98.41 L 660.54 98.41 L 664.23 98.41 L 667.93 98.41 L 671.62 98.41 L 675.32 98.41 L 679.01 98.41 L 682.70 98.41 L 686.40 98.41 L 690.09 98.41 L 693.78 98.41 L 697.48 98.41 L 701.17 98.41 L 704.86 98.41 L 708.56 98.41 L 712.25 98.41 L 715.95 98.41 L 719.64 98.41 L 723.33 98.41 L 727.03 98.41 L 730.72 98.41 L 734.41 98.41 L 738.11 98.41 L 741.80 98.41 L 745.50 98.41 L 749.19 98.41 L 752.88 98.41 L 756.58 98.41 L 760.27 98.41 L 763.96 98.41 L 767.66 98.41 L 771.35 98.41 L 775.05 98.41 L 778.74 98.41 L 782.43 98.41 L 786.13 98.41 L 789.82 98.41 L 793.51 98.41 L 797.21 98.41 L 800.90 98.41 L 804.59 98.41 L 808.29 98.41 L 811.98 98.41 L 815.68 98.41 L 819.37 98.41 L 823.06 98.41 L 826.76 98.41 L 830.45 98.41 L 834.14 98.41 L 837.84 98.41 L 841.53 98.41 L 845.23 98.41 L 848.92 98.41 L 852.61 98.41 L 856.31 98.41 L 860.00 98.41" fill="none" stroke="#111827" stroke-width="2"/>
    <circle cx="860.00" cy="98.41" r="3" fill="#111827"/>
    <text x="40.00" y="235.00" font-size="9" fill="#111827" text-anchor="middle" transform="rotate(-45 40.00 235.00)">09.08.2025</text><text x="121.26" y="235.00" font-size="9" fill="#111827" text-anchor="middle" transform="rotate(-45 121.26 235.00)">09.08.2025</text><text x="202.52" y="235.00" font-size="9" fill="#111827" text-anchor="middle" transform="rotate(-45 202.52 235.00)">20.08.2025</text><text x="283.78" y="235.00" font-size="9" fill="#111827" text-anchor="middle" transform="rotate(-45 283.78 235.00)">09.09.2025</text><text x="365.05" y="235.00" font-size="9" fill="#111827" text-anchor="middle" transform="rotate(-45 365.05 235.00)">01.10.2025</text><text x="446.31" y="235.00" font-size="9" fill="#111827" text-anchor="middle" transform="rotate(-45 446.31 235.00)">23.10.2025</text><text x="527.57" y="235.00" font-size="9" fill="#111827" text-anchor="middle" transform="rotate(-45 527.57 235.00)">14.11.2025</text><text x="608.83" y="235.00" font-size="9" fill="#111827" text-anchor="middle" transform="rotate(-45 608.83 235.00)">04.12.2025</text><text x="690.09" y="235.00" font-size="9" fill="#111827" text-anchor="middle" transform="rotate(-45 690.09 235.00)">18.12.2025</text><text x="771.35" y="235.00" font-size="9" fill="#111827" text-anchor="middle" transform="rotate(-45 771.35 235.00)">09.01.2026</text><text x="852.61" y="235.00" font-size="9" fill="#111827" text-anchor="middle" transform="rotate(-45 852.61 235.00)">31.01.2026</text>
  </g>
</svg>