<svg xmlns="http://www.w3.org/2000/svg" width="900" height="290" style="font-family: -apple-system, BlinkMacSystemFont, 'Segoe UI', Helvetica, Arial, sans-serif;">
  <rect width="100%" height="100%" fill="#0d1117"/>
  <g>
    <line x1="40" y1="220.00" x2="860" y2="220.00" stroke="#30363d"/><text x="32" y="224.00" font-size="10" fill="#c9d1d9" text-anchor="end">0</text><line x1="40" y1="175.00" x2="860" y2="175.00" stroke="#30363d"/><text x="32" y="179.00" font-size="10" fill="#c9d1d9" text-anchor="end">500</text><line x1="40" y1="130.00" x2="860" y2="130.00" stroke="#30363d"/><text x="32" y="134.00" font-size="10" fill="#c9d1d9" text-anchor="end">1k</text><line x1="40" y1="85.00" x2="860" y2="85.00" stroke="#30363d"/><text x="32" y="89.00" font-size="10" fill="#c9d1d9" text-anchor="end">1.5k</text><line x1="40" y1="40.00" x2="860" y2="40.00" stroke="#30363d"/><text x="32" y="44.00" font-size="10" fill="#c9d1d9" text-anchor="end">2k</text>
    <line x1="40.00" y1="40" x2="40.00" y2="220" stroke="#30363d" opacity="0.5"/><line x1="118.51" y1="40" x2="118.51" y2="220" stroke="#30363d" opacity="0.5"/><line x1="197.02" y1="40" x2="197.02" y2="220" stroke="#30363d" opacity="0.5"/><line x1="275.53" y1="40" x2="275.53" y2="220" stroke="#30363d" opacity="0.5"/><line x1="354.04" y1="40" x2="354.04" y2="220" stroke="#30363d" opacity="0.5"/><line x1="432.55" y1="40" x2="432.55" y2="220" stroke="#30363d" opacity="0.5"/><line x1="511.06" y1="40" x2="511.06" y2="220" stroke="#30363d" opacity="0.5"/><line x1="589.57" y1="40" x2="589.57" y2="220" stroke="#30363d" opacity="0.5"/><line x1="668.09" y1="40" x2="668.09" y2="220" stroke="#30363d" opacity="0.5"/><line x1="746.60" y1="40" x2="746.60" y2="220" stroke="#30363d" opacity="0.5"/><line x1="825.11" y1="40" x2="825.11" y2="220" stroke="#30363d" opacity="0.5"/>
    <line x1="40" y1="220" x2="860" y2="220" stroke="#30363d"/>
    <line x1="40" y1="40"   x2="40"   y2="220" stroke="#30363d"/>
    <path d="M 40.00 219.82 L 44.36 214.15 L 48.72 214.06 L 53.09 214.06 L 57.45 213.25 L 61.81 213.25 L 66.17 204.88 L 70.53 185.98 L 74.89 185.98 L 79.26 180.94 L 83.62 152.59 L 87.98 159.97 L 92.34 158.89 L 96.70 158.17 L 101.06 139.63 L 105.43 139.63 L 109.79 157.18 L 114.15 154.66 L 118.51 154.39 L 122.87 151.60 L 127.23 150.97 L 131.60 150.70 L 135.96 149.80 L 140.32 149.80 L 144.68 147.46 L 149.04 144.94 L 153.40 144.76 L 157.77 140.71 L 162.13 134.23 L 166.49 134.23 L 170.85 133.69 L 175.21 133.69 L 179.57 133.69 L 183.94 133.69 L 188.30 133.69 L 192.66 133.69 L 197.02 132.97 L 201.38 132.97 L 205.74 132.97 L 210.11 132.97 L 214.47 132.97 L 218.83 132.97 L 223.19 132.97 L 227.55 132.97 L 231.91 132.97 L 236.28 132.97 L 240.64 132.97 L 245.00 132.97 L 249.36 132.97 L 253.72 132.97 L 258.09 132.97 L 262.45 132.97 L 266.81 132.97 L 271.17 132.97 L 275.53 132.97 L 279.89 132.97 L 284.26 132.97 L 288.62 132.97 L 292.98 132.97 L 297.34 132.97 L 301.70 132.97 L 306.06 132.97 L 310.43 132.97 L 314.79 132.97 L 319.15 132.97 L 323.51 132.97 L 327.87 132.97 L 332.23 132.97 L 336.60 132.97 L 340.96 132.97 L 345.32 132.97 L 349.68 132.97 L 354.04 132.97 L 358.40 132.97 L 362.77 132.97 L 367.13 132.97 L 371.49 132.97 L 375.85 132.97 L 380.21 132.97 L 384.57 132.97 L 388.94 132.97 L 393.30 132.97 L 397.66 132.97 L 402.02 132.97 L 406.38 132.97 L 410.74 132.97 L 415.11 132.97 L 419.47 132.97 L 423.83 132.97 L 428.19 132.97 L 432.55 132.97 L 436.91 132.97 L 441.28 132.97 L 445.64 132.97 L 450.00 132.97 L 454.36 132.97 L 458.72 132.97 L 463.09 132.97 L 467.45 132.97 L 471.81 132.97 L 476.17 132.97 L 480.53 132.97 L 484.89 132.97 L 489.26 132.97 L 493.62 132.97 L 497.98 132.97 L 502.34 132.97 L 506.70 132.97 L 511.06 132.97 L 515.43 132.97 L 519.79 132.97 L 524.15 132.97 L 528.51 132.97 L 532.87 132.97 L 537.23 132.97 L 541.60 132.97 L 545.96 132.97 L 550.32 132.97 L 554.68 132.97 L 559.04 132.97 L 563.40 132.97 L 567.77 132.97 L 572.13 132.97 L 576.49 132.97 L 580.85 132.97 L 585.21 132.97 L 589.57 132.97 L 593.94 132.97 L 598.30 132.97 L 602.66 132.97 L 607.02 132.97 L 611.38 132.97 L 615.74 132.97 L 620.11 132.97 L 624.47 132.97 L 628.83 132.97 L 633.19 132.97 L 637.55 132.97 L 641.91 132.97 L 646.28 132.97 L 650.64 132.97 L 655.00 132.97 L 659.36 132.97 L 663.72 132.97 L 668.09 132.97 L 672.45 132.97 L 676.81 132.97 L 681.17 132.97 L 685.53 132.97 L 689.89 132.97 L 694.26 132.97 L 698.62 132.97 L 702.98 132.97 L 707.34 124.51 L 711.70 120.64 L 716.06 116.77 L 720.43 112.90 L 724.79 109.03 L 729.15 105.97 L 733.51 105.97 L 737.87 105.97 L 742.23 105.97 L 746.60 105.97 L 750.96 105.79 L 755.32 103.09 L 759.68 98.41 L 764.04 98.41 L 768.40 98.41 L 772.77 98.41 L 777.13 98.41 L 781.49 98.41 L 785.85 98.41 L 790.21 98.41 L 794.57 98.41 L 798.94 98.41 L 803.30 98.41 L 807.66 98.41 L 812.02 98.41 L 816.38 98.41 L 820.74 98.41 L 825.11 98.41 L 829.47 98.41 L 833.83 98.41 L 838.19 98.41 L 842.55 98.41 L 846.91 98.41 L 851.28 98.41 L 855.64 98.41 L 860.00 98.41" fill="none" stroke="#3fb950" stroke-width="2"/>
    <circle cx="860.00" cy="98.41" r="3" fill="#3fb950"/>
    <text x="40.00" y="235.00" font-size="9" fill="#c9d1d9" text-anchor="middle" transform="rotate(-45 40.00 235.00)">09.08.2025</text><text x="118.51" y="235.00" font-size="9" fill="#c9d1d9" text-anchor="middle" transform="rotate(-45 118.51 235.00)">09.08.2025</text><text x="197.02" y="235.00" font-size="9" fill="#c9d1d9" text-anchor="middle" transform="rotate(-45 197.02 235.00)">13.08.2025</text><text x="275.53" y="235.00" font-size="9" fill="#c9d1d9" text-anchor="middle" transform="rotate(-45 275.53 235.00)">28.08.2025</text><text x="354.04" y="235.00" font-size="9" fill="#c9d1d9" text-anchor="middle" transform="rotate(-45 354.04 235.00)">15.09.2025</text><text x="432.55" y="235.00" font-size="9" fill="#c9d1d9" text-anchor="middle" transform="rotate(-45 432.55 235.00)">03.10.2025</text><text x="511.06" y="235.00" font-size="9" fill="#c9d1d9" text-anchor="middle" transform="rotate(-45 511.06 235.00)">21.10.2025</text><text x="589.57" y="235.00" font-size="9" fill="#c9d1d9" text-anchor="middle" transform="rotate(-45 589.57 235.00)">08.11.2025</text><text x="668.09" y="235.00" font-size="9" fill="#c9d1d9" text-anchor="middle" transform="rotate(-45 668.09 235.00)">26.11.2025</text><text x="746.60" y="235.00" font-size="9" fill="#c9d1d9" text-anchor="middle" transform="rotate(-45 746.60 235.00)">07.12.2025</text><text x="825.11" y="235.00" font-size="9" fill="#c9d1d9" text-anchor="middle" transform="rotate(-45 825.11 235.00)">22.12.2025</text>
  </g>
</svg>