<svg xmlns="http://www.w3.org/2000/svg" width="900" height="290" style="font-family: -apple-system, BlinkMacSystemFont, 'Segoe UI', Helvetica, Arial, sans-serif;">
  <rect width="100%" height="100%" fill="#0d1117"/>
  <g>
    <line x1="40" y1="220.00" x2="860" y2="220.00" stroke="#30363d"/><text x="32" y="224.00" font-size="10" fill="#c9d1d9" text-anchor="end">0</text><line x1="40" y1="175.00" x2="860" y2="175.00" stroke="#30363d"/><text x="32" y="179.00" font-size="10" fill="#c9d1d9" text-anchor="end">500</text><line x1="40" y1="130.00" x2="860" y2="130.00" stroke="#30363d"/><text x="32" y="134.00" font-size="10" fill="#c9d1d9" text-anchor="end">1k</text><line x1="40" y1="85.00" x2="860" y2="85.00" stroke="#30363d"/><text x="32" y="89.00" font-size="10" fill="#c9d1d9" text-anchor="end">1.5k</text><line x1="40" y1="40.00" x2="860" y2="40.00" stroke="#30363d"/><text x="32" y="44.00" font-size="10" fill="#c9d1d9" text-anchor="end">2k</text>
    <line x1="40.00" y1="40" x2="40.00" y2="220" stroke="#30363d" opacity="0.5"/><line x1="118.10" y1="40" x2="118.10" y2="220" stroke="#30363d" opacity="0.5"/><line x1="196.19" y1="40" x2="196.19" y2="220" stroke="#30363d" opacity="0.5"/><line x1="274.29" y1="40" x2="274.29" y2="220" stroke="#30363d" opacity="0.5"/><line x1="352.38" y1="40" x2="352.38" y2="220" stroke="#30363d" opacity="0.5"/><line x1="430.48" y1="40" x2="430.48" y2="220" stroke="#30363d" opacity="0.5"/><line x1="508.57" y1="40" x2="508.57" y2="220" stroke="#30363d" opacity="0.5"/><line x1="586.67" y1="40" x2="586.67" y2="220" stroke="#30363d" opacity="0.5"/><line x1="664.76" y1="40" x2="664.76" y2="220" stroke="#30363d" opacity="0.5"/><line x1="742.86" y1="40" x2="742.86" y2="220" stroke="#30363d" opacity="0.5"/><line x1="820.95" y1="40" x2="820.95" y2="220" stroke="#30363d" opacity="0.5"/>
    <line x1="40" y1="220" x2="860" y2="220" stroke="#30363d"/>
    <line x1="40" y1="40"   x2="40"   y2="220" stroke="#30363d"/>
    <path d="M 40.00 219.82 L 47.81 214.15 L 55.62 214.06 L 63.43 214.06 L 71.24 213.25 L 79.05 213.25 L 86.86 204.88 L 94.67 185.98 L 102.48 185.98 L 110.29 180.94 L 118.10 152.59 L 125.90 159.97 L 133.71 158.89 L 141.52 158.17 L 149.33 139.63 L 157.14 139.63 L 164.95 157.18 L 172.76 154.66 L 180.57 154.39 L 188.38 151.60 L 196.19 150.97 L 204.00 150.70 L 211.81 149.80 L 219.62 149.80 L 227.43 147.46 L 235.24 144.94 L 243.05 144.76 L 250.86 140.71 L 258.67 134.23 L 266.48 134.23 L 274.29 133.69 L 282.10 133.69 L 289.90 133.69 L 297.71 133.69 L 305.52 133.69 L 313.33 133.69 L 321.14 132.97 L 328.95 132.97 L 336.76 132.97 L 344.57 132.97 L 352.38 132.97 L 360.19 132.97 L 368.00 132.97 L 375.81 132.97 L 383.62 132.97 L 391.43 132.97 L 399.24 132.97 L 407.05 132.97 L 414.86 132.97 L 422.67 132.97 L 430.48 132.97 L 438.29 132.97 L 446.10 132.97 L 453.90 132.97 L 461.71 132.97 L 469.52 132.97 L 477.33 132.97 L 485.14 132.97 L 492.95 132.97 L 500.76 132.97 L 508.57 132.97 L 516.38 132.97 L 524.19 132.97 L 532.00 132.97 L 539.81 132.97 L 547.62 132.97 L 555.43 132.97 L 563.24 132.97 L 571.05 132.97 L 578.86 132.97 L 586.67 132.97 L 594.48 132.97 L 602.29 132.97 L 610.10 132.97 L 617.90 132.97 L 625.71 132.97 L 633.52 132.97 L 641.33 132.97 L 649.14 132.97 L 656.95 132.97 L 664.76 132.97 L 672.57 132.97 L 680.38 132.97 L 688.19 132.97 L 696.00 132.97 L 703.81 132.97 L 711.62 132.97 L 719.43 132.97 L 727.24 132.97 L 735.05 132.97 L 742.86 132.97 L 750.67 132.97 L 758.48 132.97 L 766.29 132.97 L 774.10 132.97 L 781.90 132.97 L 789.71 132.97 L 797.52 132.97 L 805.33 132.97 L 813.14 132.97 L 820.95 132.97 L 828.76 132.97 L 836.57 132.97 L 844.38 132.97 L 852.19 132.97 L 860.00 132.97" fill="none" stroke="#3fb950" stroke-width="2"/>
    <circle cx="860.00" cy="132.97" r="3" fill="#3fb950"/>
    <text x="40.00" y="235.00" font-size="9" fill="#c9d1d9" text-anchor="middle" transform="rotate(-45 40.00 235.00)">09.08.2025</text><text x="118.10" y="235.00" font-size="9" fill="#c9d1d9" text-anchor="middle" transform="rotate(-45 118.10 235.00)">09.08.2025</text><text x="196.19" y="235.00" font-size="9" fill="#c9d1d9" text-anchor="middle" transform="rotate(-45 196.19 235.00)">09.08.2025</text><text x="274.29" y="235.00" font-size="9" fill="#c9d1d9" text-anchor="middle" transform="rotate(-45 274.29 235.00)">13.08.2025</text><text x="352.38" y="235.00" font-size="9" fill="#c9d1d9" text-anchor="middle" transform="rotate(-45 352.38 235.00)">16.08.2025</text><text x="430.48" y="235.00" font-size="9" fill="#c9d1d9" text-anchor="middle" transform="rotate(-45 430.48 235.00)">26.08.2025</text><text x="508.57" y="235.00" font-size="9" fill="#c9d1d9" text-anchor="middle" transform="rotate(-45 508.57 235.00)">03.09.2025</text><text x="586.67" y="235.00" font-size="9" fill="#c9d1d9" text-anchor="middle" transform="rotate(-45 586.67 235.00)">13.09.2025</text><text x="664.76" y="235.00" font-size="9" fill="#c9d1d9" text-anchor="middle" transform="rotate(-45 664.76 235.00)">23.09.2025</text><text x="742.86" y="235.00" font-size="9" fill="#c9d1d9" text-anchor="middle" transform="rotate(-45 742.86 235.00)">03.10.2025</text><text x="820.95" y="235.00" font-size="9" fill="#c9d1d9" text-anchor="middle" transform="rotate(-45 820.95 235.00)">13.10.2025</text>
  </g>
</svg>