<svg xmlns="http://www.w3.org/2000/svg" width="900" height="290" style="font-family: -apple-system, BlinkMacSystemFont, 'Segoe UI', Helvetica, Arial, sans-serif;">
  <rect width="100%" height="100%" fill="#0d1117"/>
  <g>
    <line x1="40" y1="220.00" x2="860" y2="220.00" stroke="#30363d"/><text x="32" y="224.00" font-size="10" fill="#c9d1d9" text-anchor="end">0</text><line x1="40" y1="175.00" x2="860" y2="175.00" stroke="#30363d"/><text x="32" y="179.00" font-size="10" fill="#c9d1d9" text-anchor="end">500</text><line x1="40" y1="130.00" x2="860" y2="130.00" stroke="#30363d"/><text x="32" y="134.00" font-size="10" fill="#c9d1d9" text-anchor="end">1k</text><line x1="40" y1="85.00" x2="860" y2="85.00" stroke="#30363d"/><text x="32" y="89.00" font-size="10" fill="#c9d1d9" text-anchor="end">1.5k</text><line x1="40" y1="40.00" x2="860" y2="40.00" stroke="#30363d"/><text x="32" y="44.00" font-size="10" fill="#c9d1d9" text-anchor="end">2k</text>
    <line x1="40.00" y1="40" x2="40.00" y2="220" stroke="#30363d" opacity="0.5"/><line x1="121.49" y1="40" x2="121.49" y2="220" stroke="#30363d" opacity="0.5"/><line x1="202.98" y1="40" x2="202.98" y2="220" stroke="#30363d" opacity="0.5"/><line x1="284.47" y1="40" x2="284.47" y2="220" stroke="#30363d" opacity="0.5"/><line x1="365.96" y1="40" x2="365.96" y2="220" stroke="#30363d" opacity="0.5"/><line x1="447.45" y1="40" x2="447.45" y2="220" stroke="#30363d" opacity="0.5"/><line x1="528.94" y1="40" x2="528.94" y2="220" stroke="#30363d" opacity="0.5"/><line x1="610.43" y1="40" x2="610.43" y2="220" stroke="#30363d" opacity="0.5"/><line x1="691.93" y1="40" x2="691.93" y2="220" stroke="#30363d" opacity="0.5"/><line x1="773.42" y1="40" x2="773.42" y2="220" stroke="#30363d" opacity="0.5"/><line x1="854.91" y1="40" x2="854.91" y2="220" stroke="#30363d" opacity="0.5"/>
    <line x1="40" y1="220" x2="860" y2="220" stroke="#30363d"/>
    <line x1="40" y1="40"   x2="40"   y2="220" stroke="#30363d"/>
    <path d="M 40.00 219.82 L 45.09 214.15 L 50.19 214.06 L 55.28 214.06 L 60.37 213.25 L 65.47 213.25 L 70.56 204.88 L 75.65 185.98 L 80.75 185.98 L 85.84 180.94 L 90.93 152.59 L 96.02 159.97 L 101.12 158.89 L 106.21 158.17 L 111.30 139.63 L 116.40 139.63 L 121.49 157.18 L 126.58 154.66 L 131.68 154.39 L 136.77 151.60 L 141.86 150.97 L 146.96 150.70 L 152.05 149.80 L 157.14 149.80 L 162.24 147.46 L 167.33 144.94 L 172.42 144.76 L 177.52 140.71 L 182.61 134.23 L 187.70 134.23 L 192.80 133.69 L 197.89 133.69 L 202.98 133.69 L 208.07 133.69 L 213.17 133.69 L 218.26 133.69 L 223.35 132.97 L 228.45 132.97 L 233.54 132.97 L 238.63 132.97 L 243.73 132.97 L 248.82 132.97 L 253.91 132.97 L 259.01 132.97 L 264.10 132.97 L 269.19 132.97 L 274.29 132.97 L 279.38 132.97 L 284.47 132.97 L 289.57 132.97 L 294.66 132.97 L 299.75 132.97 L 304.84 132.97 L 309.94 132.97 L 315.03 132.97 L 320.12 132.97 L 325.22 132.97 L 330.31 132.97 L 335.40 132.97 L 340.50 132.97 L 345.59 132.97 L 350.68 132.97 L 355.78 132.97 L 360.87 132.97 L 365.96 132.97 L 371.06 132.97 L 376.15 132.97 L 381.24 132.97 L 386.34 132.97 L 391.43 132.97 L 396.52 132.97 L 401.61 132.97 L 406.71 132.97 L 411.80 132.97 L 416.89 132.97 L 421.99 132.97 L 427.08 132.97 L 432.17 132.97 L 437.27 132.97 L 442.36 132.97 L 447.45 132.97 L 452.55 132.97 L 457.64 132.97 L 462.73 132.97 L 467.83 132.97 L 472.92 132.97 L 478.01 132.97 L 483.11 132.97 L 488.20 132.97 L 493.29 132.97 L 498.39 132.97 L 503.48 132.97 L 508.57 132.97 L 513.66 132.97 L 518.76 132.97 L 523.85 132.97 L 528.94 132.97 L 534.04 132.97 L 539.13 132.97 L 544.22 132.97 L 549.32 132.97 L 554.41 132.97 L 559.50 132.97 L 564.60 132.97 L 569.69 132.97 L 574.78 132.97 L 579.88 132.97 L 584.97 132.97 L 590.06 132.97 L 595.16 132.97 L 600.25 132.97 L 605.34 132.97 L 610.43 132.97 L 615.53 132.97 L 620.62 132.97 L 625.71 132.97 L 630.81 132.97 L 635.90 132.97 L 640.99 132.97 L 646.09 132.97 L 651.18 132.97 L 656.27 132.97 L 661.37 132.97 L 666.46 132.97 L 671.55 132.97 L 676.65 132.97 L 681.74 132.97 L 686.83 132.97 L 691.93 132.97 L 697.02 132.97 L 702.11 132.97 L 707.20 132.97 L 712.30 132.97 L 717.39 132.97 L 722.48 132.97 L 727.58 132.97 L 732.67 132.97 L 737.76 132.97 L 742.86 132.97 L 747.95 132.97 L 753.04 132.97 L 758.14 132.97 L 763.23 132.97 L 768.32 132.97 L 773.42 132.97 L 778.51 132.97 L 783.60 132.97 L 788.70 132.97 L 793.79 132.97 L 798.88 132.97 L 803.98 132.97 L 809.07 132.97 L 814.16 132.97 L 819.25 124.51 L 824.35 120.64 L 829.44 116.77 L 834.53 112.90 L 839.63 109.03 L 844.72 105.97 L 849.81 105.97 L 854.91 105.97 L 860.00 105.97" fill="none" stroke="#3fb950" stroke-width="2"/>
    <circle cx="860.00" cy="105.97" r="3" fill="#3fb950"/>
    <text x="40.00" y="235.00" font-size="9" fill="#c9d1d9" text-anchor="middle" transform="rotate(-45 40.00 235.00)">09.08.2025</text><text x="121.49" y="235.00" font-size="9" fill="#c9d1d9" text-anchor="middle" transform="rotate(-45 121.49 235.00)">09.08.2025</text><text x="202.98" y="235.00" font-size="9" fill="#c9d1d9" text-anchor="middle" transform="rotate(-45 202.98 235.00)">13.08.2025</text><text x="284.47" y="235.00" font-size="9" fill="#c9d1d9" text-anchor="middle" transform="rotate(-45 284.47 235.00)">24.08.2025</text><text x="365.96" y="235.00" font-size="9" fill="#c9d1d9" text-anchor="middle" transform="rotate(-45 365.96 235.00)">07.09.2025</text><text x="447.45" y="235.00" font-size="9" fill="#c9d1d9" text-anchor="middle" transform="rotate(-45 447.45 235.00)">23.09.2025</text><text x="528.94" y="235.00" font-size="9" fill="#c9d1d9" text-anchor="middle" transform="rotate(-45 528.94 235.00)">09.10.2025</text><text x="610.43" y="235.00" font-size="9" fill="#c9d1d9" text-anchor="middle" transform="rotate(-45 610.43 235.00)">25.10.2025</text><text x="691.93" y="235.00" font-size="9" fill="#c9d1d9" text-anchor="middle" transform="rotate(-45 691.93 235.00)">10.11.2025</text><text x="773.42" y="235.00" font-size="9" fill="#c9d1d9" text-anchor="middle" transform="rotate(-45 773.42 235.00)">26.11.2025</text><text x="854.91" y="235.00" font-size="9" fill="#c9d1d9" text-anchor="middle" transform="rotate(-45 854.91 235.00)">05.12.2025</text>
  </g>
</svg>