<svg xmlns="http://www.w3.org/2000/svg" width="900" height="290" style="font-family: -apple-system, BlinkMacSystemFont, 'Segoe UI', Helvetica, Arial, sans-serif;">
  <rect width="100%" height="100%" fill="#0d1117"/>
  <g>
    <line x1="40" y1="220.00" x2="860" y2="220.00" stroke="#30363d"/><text x="32" y="224.00" font-size="10" fill="#c9d1d9" text-anchor="end">0</text><line x1="40" y1="175.00" x2="860" y2="175.00" stroke="#30363d"/><text x="32" y="179.00" font-size="10" fill="#c9d1d9" text-anchor="end">500</text><line x1="40" y1="130.00" x2="860" y2="130.00" stroke="#30363d"/><text x="32" y="134.00" font-size="10" fill="#c9d1d9" text-anchor="end">1k</text><line x1="40" y1="85.00" x2="860" y2="85.00" stroke="#30363d"/><text x="32" y="89.00" font-size="10" fill="#c9d1d9" text-anchor="end">1.5k</text><line x1="40" y1="40.00" x2="860" y2="40.00" stroke="#30363d"/><text x="32" y="44.00" font-size="10" fill="#c9d1d9" text-anchor="end">2k</text>
    <line x1="40.00" y1="40" x2="40.00" y2="220" stroke="#30363d" opacity="0.5"/><line x1="123.67" y1="40" x2="123.67" y2="220" stroke="#30363d" opacity="0.5"/><line x1="207.35" y1="40" x2="207.35" y2="220" stroke="#30363d" opacity="0.5"/><line x1="291.02" y1="40" x2="291.02" y2="220" stroke="#30363d" opacity="0.5"/><line x1="374.69" y1="40" x2="374.69" y2="220" stroke="#30363d" opacity="0.5"/><line x1="458.37" y1="40" x2="458.37" y2="220" stroke="#30363d" opacity="0.5"/><line x1="542.04" y1="40" x2="542.04" y2="220" stroke="#30363d" opacity="0.5"/><line x1="625.71" y1="40" x2="625.71" y2="220" stroke="#30363d" opacity="0.5"/><line x1="709.39" y1="40" x2="709.39" y2="220" stroke="#30363d" opacity="0.5"/><line x1="793.06" y1="40" x2="793.06" y2="220" stroke="#30363d" opacity="0.5"/>
    <line x1="40" y1="220" x2="860" y2="220" stroke="#30363d"/>
    <line x1="40" y1="40"   x2="40"   y2="220" stroke="#30363d"/>
    <path d="M 40.00 219.82 L 56.73 214.15 L 73.47 214.06 L 90.20 214.06 L 106.94 213.25 L 123.67 213.25 L 140.41 204.88 L 157.14 185.98 L 173.88 185.98 L 190.61 180.94 L 207.35 152.59 L 224.08 159.97 L 240.82 158.89 L 257.55 158.17 L 274.29 139.63 L 291.02 139.63 L 307.76 157.18 L 324.49 154.66 L 341.22 154.39 L 357.96 151.60 L 374.69 150.97 L 391.43 150.70 L 408.16 149.80 L 424.90 149.80 L 441.63 147.46 L 458.37 144.94 L 475.10 144.76 L 491.84 140.71 L 508.57 134.23 L 525.31 134.23 L 542.04 133.69 L 558.78 133.69 L 575.51 133.69 L 592.24 133.69 L 608.98 133.69 L 625.71 133.69 L 642.45 132.97 L 659.18 132.97 L 675.92 132.97 L 692.65 132.97 L 709.39 132.97 L 726.12 132.97 L 742.86 132.97 L 759.59 132.97 L 776.33 132.97 L 793.06 132.97 L 809.80 132.97 L 826.53 132.97 L 843.27 132.97 L 860.00 132.97" fill="none" stroke="#3fb950" stroke-width="2"/>
    <circle cx="860.00" cy="132.97" r="3" fill="#3fb950"/>
    <text x="40.00" y="235.00" font-size="9" fill="#c9d1d9" text-anchor="middle" transform="rotate(-45 40.00 235.00)">09.08.2025</text><text x="123.67" y="235.00" font-size="9" fill="#c9d1d9" text-anchor="middle" transform="rotate(-45 123.67 235.00)">09.08.2025</text><text x="207.35" y="235.00" font-size="9" fill="#c9d1d9" text-anchor="middle" transform="rotate(-45 207.35 235.00)">09.08.2025</text><text x="291.02" y="235.00" font-size="9" fill="#c9d1d9" text-anchor="middle" transform="rotate(-45 291.02 235.00)">09.08.2025</text><text x="374.69" y="235.00" font-size="9" fill="#c9d1d9" text-anchor="middle" transform="rotate(-45 374.69 235.00)">09.08.2025</text><text x="458.37" y="235.00" font-size="9" fill="#c9d1d9" text-anchor="middle" transform="rotate(-45 458.37 235.00)">09.08.2025</text><text x="542.04" y="235.00" font-size="9" fill="#c9d1d9" text-anchor="middle" transform="rotate(-45 542.04 235.00)">13.08.2025</text><text x="625.71" y="235.00" font-size="9" fill="#c9d1d9" text-anchor="middle" transform="rotate(-45 625.71 235.00)">13.08.2025</text><text x="709.39" y="235.00" font-size="9" fill="#c9d1d9" text-anchor="middle" transform="rotate(-45 709.39 235.00)">16.08.2025</text><text x="793.06" y="235.00" font-size="9" fill="#c9d1d9" text-anchor="middle" transform="rotate(-45 793.06 235.00)">21.08.2025</text>
  </g>
</svg>