<svg xmlns="http://www.w3.org/2000/svg" width="900" height="290" style="font-family: -apple-system, BlinkMacSystemFont, 'Segoe UI', Helvetica, Arial, sans-serif;">
  <rect width="100%" height="100%" fill="#0d1117"/>
  <g>
    <line x1="40" y1="220.00" x2="860" y2="220.00" stroke="#30363d"/><text x="32" y="224.00" font-size="10" fill="#c9d1d9" text-anchor="end">0</text><line x1="40" y1="175.00" x2="860" y2="175.00" stroke="#30363d"/><text x="32" y="179.00" font-size="10" fill="#c9d1d9" text-anchor="end">500</text><line x1="40" y1="130.00" x2="860" y2="130.00" stroke="#30363d"/><text x="32" y="134.00" font-size="10" fill="#c9d1d9" text-anchor="end">1k</text><line x1="40" y1="85.00" x2="860" y2="85.00" stroke="#30363d"/><text x="32" y="89.00" font-size="10" fill="#c9d1d9" text-anchor="end">1.5k</text><line x1="40" y1="40.00" x2="860" y2="40.00" stroke="#30363d"/><text x="32" y="44.00" font-size="10" fill="#c9d1d9" text-anchor="end">2k</text>
    <line x1="40.00" y1="40" x2="40.00" y2="220" stroke="#30363d" opacity="0.5"/><line x1="120.99" y1="40" x2="120.99" y2="220" stroke="#30363d" opacity="0.5"/><line x1="201.98" y1="40" x2="201.98" y2="220" stroke="#30363d" opacity="0.5"/><line x1="282.96" y1="40" x2="282.96" y2="220" stroke="#30363d" opacity="0.5"/><line x1="363.95" y1="40" x2="363.95" y2="220" stroke="#30363d" opacity="0.5"/><line x1="444.94" y1="40" x2="444.94" y2="220" stroke="#30363d" opacity="0.5"/><line x1="525.93" y1="40" x2="525.93" y2="220" stroke="#30363d" opacity="0.5"/><line x1="606.91" y1="40" x2="606.91" y2="220" stroke="#30363d" opacity="0.5"/><line x1="687.90" y1="40" x2="687.90" y2="220" stroke="#30363d" opacity="0.5"/><line x1="768.89" y1="40" x2="768.89" y2="220" stroke="#30363d" opacity="0.5"/><line x1="849.88" y1="40" x2="849.88" y2="220" stroke="#30363d" opacity="0.5"/>
    <line x1="40" y1="220" x2="860" y2="220" stroke="#30363d"/>
    <line x1="40" y1="40"   x2="40"   y2="220" stroke="#30363d"/>
    <path d="M 40.00 219.82 L 43.37 214.15 L 46.75 214.06 L 50.12 214.06 L 53.50 213.25 L 56.87 213.25 L 60.25 204.88 L 63.62 185.98 L 67.00 185.98 L 70.37 180.94 L 73.74 152.59 L 77.12 159.97 L 80.49 158.89 L 83.87 158.17 L 87.24 139.63 L 90.62 139.63 L 93.99 157.18 L 97.37 154.66 L 100.74 154.39 L 104.12 151.60 L 107.49 150.97 L 110.86 150.70 L 114.24 149.80 L 117.61 149.80 L 120.99 147.46 L 124.36 144.94 L 127.74 144.76 L 131.11 140.71 L 134.49 134.23 L 137.86 134.23 L 141.23 133.69 L 144.61 133.69 L 147.98 133.69 L 151.36 133.69 L 154.73 133.69 L 158.11 133.69 L 161.48 132.97 L 164.86 132.97 L 168.23 132.97 L 171.60 132.97 L 174.98 132.97 L 178.35 132.97 L 181.73 132.97 L 185.10 132.97 L 188.48 132.97 L 191.85 132.97 L 195.23 132.97 L 198.60 132.97 L 201.98 132.97 L 205.35 132.97 L 208.72 132.97 L 212.10 132.97 L 215.47 132.97 L 218.85 132.97 L 222.22 132.97 L 225.60 132.97 L 228.97 132.97 L 232.35 132.97 L 235.72 132.97 L 239.09 132.97 L 242.47 132.97 L 245.84 132.97 L 249.22 132.97 L 252.59 132.97 L 255.97 132.97 L 259.34 132.97 L 262.72 132.97 L 266.09 132.97 L 269.47 132.97 L 272.84 132.97 L 276.21 132.97 L 279.59 132.97 L 282.96 132.97 L 286.34 132.97 L 289.71 132.97 L 293.09 132.97 L 296.46 132.97 L 299.84 132.97 L 303.21 132.97 L 306.58 132.97 L 309.96 132.97 L 313.33 132.97 L 316.71 132.97 L 320.08 132.97 L 323.46 132.97 L 326.83 132.97 L 330.21 132.97 L 333.58 132.97 L 336.95 132.97 L 340.33 132.97 L 343.70 132.97 L 347.08 132.97 L 350.45 132.97 L 353.83 132.97 L 357.20 132.97 L 360.58 132.97 L 363.95 132.97 L 367.33 132.97 L 370.70 132.97 L 374.07 132.97 L 377.45 132.97 L 380.82 132.97 L 384.20 132.97 L 387.57 132.97 L 390.95 132.97 L 394.32 132.97 L 397.70 132.97 L 401.07 132.97 L 404.44 132.97 L 407.82 132.97 L 411.19 132.97 L 414.57 132.97 L 417.94 132.97 L 421.32 132.97 L 424.69 132.97 L 428.07 132.97 L 431.44 132.97 L 434.81 132.97 L 438.19 132.97 L 441.56 132.97 L 444.94 132.97 L 448.31 132.97 L 451.69 132.97 L 455.06 132.97 L 458.44 132.97 L 461.81 132.97 L 465.19 132.97 L 468.56 132.97 L 471.93 132.97 L 475.31 132.97 L 478.68 132.97 L 482.06 132.97 L 485.43 132.97 L 488.81 132.97 L 492.18 132.97 L 495.56 132.97 L 498.93 132.97 L 502.30 132.97 L 505.68 132.97 L 509.05 132.97 L 512.43 132.97 L 515.80 132.97 L 519.18 132.97 L 522.55 132.97 L 525.93 132.97 L 529.30 132.97 L 532.67 132.97 L 536.05 132.97 L 539.42 132.97 L 542.80 132.97 L 546.17 132.97 L 549.55 132.97 L 552.92 132.97 L 556.30 124.51 L 559.67 120.64 L 563.05 116.77 L 566.42 112.90 L 569.79 109.03 L 573.17 105.97 L 576.54 105.97 L 579.92 105.97 L 583.29 105.97 L 586.67 105.97 L 590.04 105.79 L 593.42 103.09 L 596.79 98.41 L 600.16 98.41 L 603.54 98.41 L 606.91 98.41 L 610.29 98.41 L 613.66 98.41 L 617.04 98.41 L 620.41 98.41 L 623.79 98.41 L 627.16 98.41 L 630.53 98.41 L 633.91 98.41 L 637.28 98.41 L 640.66 98.41 L 644.03 98.41 L 647.41 98.41 L 650.78 98.41 L 654.16 98.41 L 657.53 98.41 L 660.91 98.41 L 664.28 98.41 L 667.65 98.41 L 671.03 98.41 L 674.40 98.41 L 677.78 98.41 L 681.15 98.41 L 684.53 98.41 L 687.90 98.41 L 691.28 98.41 L 694.65 98.41 L 698.02 98.41 L 701.40 98.41 L 704.77 98.41 L 708.15 98.41 L 711.52 98.41 L 714.90 98.41 L 718.27 98.41 L 721.65 98.41 L 725.02 98.41 L 728.40 98.41 L 731.77 98.41 L 735.14 98.41 L 738.52 98.41 L 741.89 98.41 L 745.27 98.41 L 748.64 98.41 L 752.02 98.41 L 755.39 98.41 L 758.77 98.41 L 762.14 98.41 L 765.51 98.41 L 768.89 98.41 L 772.26 98.41 L 775.64 98.41 L 779.01 98.41 L 782.39 98.41 L 785.76 98.41 L 789.14 98.41 L 792.51 98.41 L 795.88 98.41 L 799.26 98.41 L 802.63 98.41 L 806.01 98.41 L 809.38 98.41 L 812.76 98.41 L 816.13 98.41 L 819.51 98.41 L 822.88 98.41 L 826.26 98.41 L 829.63 98.41 L 833.00 98.41 L 836.38 98.41 L 839.75 98.41 L 843.13 98.41 L 846.50 98.41 L 849.88 98.41 L 853.25 98.41 L 856.63 98.41 L 860.00 98.41" fill="none" stroke="#3fb950" stroke-width="2"/>
    <circle cx="860.00" cy="98.41" r="3" fill="#3fb950"/>
    <text x="40.00" y="235.00" font-size="9" fill="#c9d1d9" text-anchor="middle" transform="rotate(-45 40.00 235.00)">09.08.2025</text><text x="120.99" y="235.00" font-size="9" fill="#c9d1d9" text-anchor="middle" transform="rotate(-45 120.99 235.00)">09.08.2025</text><text x="201.98" y="235.00" font-size="9" fill="#c9d1d9" text-anchor="middle" transform="rotate(-45 201.98 235.00)">24.08.2025</text><text x="282.96" y="235.00" font-size="9" fill="#c9d1d9" text-anchor="middle" transform="rotate(-45 282.96 235.00)">15.09.2025</text><text x="363.95" y="235.00" font-size="9" fill="#c9d1d9" text-anchor="middle" transform="rotate(-45 363.95 235.00)">09.10.2025</text><text x="444.94" y="235.00" font-size="9" fill="#c9d1d9" text-anchor="middle" transform="rotate(-45 444.94 235.00)">02.11.2025</text><text x="525.93" y="235.00" font-size="9" fill="#c9d1d9" text-anchor="middle" transform="rotate(-45 525.93 235.00)">26.11.2025</text><text x="606.91" y="235.00" font-size="9" fill="#c9d1d9" text-anchor="middle" transform="rotate(-45 606.91 235.00)">10.12.2025</text><text x="687.90" y="235.00" font-size="9" fill="#c9d1d9" text-anchor="middle" transform="rotate(-45 687.90 235.00)">03.01.2026</text><text x="768.89" y="235.00" font-size="9" fill="#c9d1d9" text-anchor="middle" transform="rotate(-45 768.89 235.00)">27.01.2026</text><text x="849.88" y="235.00" font-size="9" fill="#c9d1d9" text-anchor="middle" transform="rotate(-45 849.88 235.00)">20.02.2026</text>
  </g>
</svg>