<svg xmlns="http://www.w3.org/2000/svg" width="900" height="290" style="font-family: -apple-system, BlinkMacSystemFont, 'Segoe UI', Helvetica, Arial, sans-serif;">
  <rect width="100%" height="100%" fill="#0d1117"/>
  <g>
    <line x1="40" y1="220.00" x2="860" y2="220.00" stroke="#30363d"/><text x="32" y="224.00" font-size="10" fill="#c9d1d9" text-anchor="end">0</text><line x1="40" y1="175.00" x2="860" y2="175.00" stroke="#30363d"/><text x="32" y="179.00" font-size="10" fill="#c9d1d9" text-anchor="end">500</text><line x1="40" y1="130.00" x2="860" y2="130.00" stroke="#30363d"/><text x="32" y="134.00" font-size="10" fill="#c9d1d9" text-anchor="end">1k</text><line x1="40" y1="85.00" x2="860" y2="85.00" stroke="#30363d"/><text x="32" y="89.00" font-size="10" fill="#c9d1d9" text-anchor="end">1.5k</text><line x1="40" y1="40.00" x2="860" y2="40.00" stroke="#30363d"/><text x="32" y="44.00" font-size="10" fill="#c9d1d9" text-anchor="end">2k</text>
    <line x1="40.00" y1="40" x2="40.00" y2="220" stroke="#30363d" opacity="0.5"/><line x1="119.72" y1="40" x2="119.72" y2="220" stroke="#30363d" opacity="0.5"/><line x1="199.44" y1="40" x2="199.44" y2="220" stroke="#30363d" opacity="0.5"/><line x1="279.17" y1="40" x2="279.17" y2="220" stroke="#30363d" opacity="0.5"/><line x1="358.89" y1="40" x2="358.89" y2="220" stroke="#30363d" opacity="0.5"/><line x1="438.61" y1="40" x2="438.61" y2="220" stroke="#30363d" opacity="0.5"/><line x1="518.33" y1="40" x2="518.33" y2="220" stroke="#30363d" opacity="0.5"/><line x1="598.06" y1="40" x2="598.06" y2="220" stroke="#30363d" opacity="0.5"/><line x1="677.78" y1="40" x2="677.78" y2="220" stroke="#30363d" opacity="0.5"/><line x1="757.50" y1="40" x2="757.50" y2="220" stroke="#30363d" opacity="0.5"/><line x1="837.22" y1="40" x2="837.22" y2="220" stroke="#30363d" opacity="0.5"/>
    <line x1="40" y1="220" x2="860" y2="220" stroke="#30363d"/>
    <line x1="40" y1="40"   x2="40"   y2="220" stroke="#30363d"/>
    <path d="M 40.00 219.82 L 51.39 214.15 L 62.78 214.06 L 74.17 214.06 L 85.56 213.25 L 96.94 213.25 L 108.33 204.88 L 119.72 185.98 L 131.11 185.98 L 142.50 180.94 L 153.89 152.59 L 165.28 159.97 L 176.67 158.89 L 188.06 158.17 L 199.44 139.63 L 210.83 139.63 L 222.22 157.18 L 233.61 154.66 L 245.00 154.39 L 256.39 151.60 L 267.78 150.97 L 279.17 150.70 L 290.56 149.80 L 301.94 149.80 L 313.33 147.46 L 324.72 144.94 L 336.11 144.76 L 347.50 140.71 L 358.89 134.23 L 370.28 134.23 L 381.67 133.69 L 393.06 133.69 L 404.44 133.69 L 415.83 133.69 L 427.22 133.69 L 438.61 133.69 L 450.00 132.97 L 461.39 132.97 L 472.78 132.97 L 484.17 132.97 L 495.56 132.97 L 506.94 132.97 L 518.33 132.97 L 529.72 132.97 L 541.11 132.97 L 552.50 132.97 L 563.89 132.97 L 575.28 132.97 L 586.67 132.97 L 598.06 132.97 L 609.44 132.97 L 620.83 132.97 L 632.22 132.97 L 643.61 132.97 L 655.00 132.97 L 666.39 132.97 L 677.78 132.97 L 689.17 132.97 L 700.56 132.97 L 711.94 132.97 L 723.33 132.97 L 734.72 132.97 L 746.11 132.97 L 757.50 132.97 L 768.89 132.97 L 780.28 132.97 L 791.67 132.97 L 803.06 132.97 L 814.44 132.97 L 825.83 132.97 L 837.22 132.97 L 848.61 132.97 L 860.00 132.97" fill="none" stroke="#3fb950" stroke-width="2"/>
    <circle cx="860.00" cy="132.97" r="3" fill="#3fb950"/>
    <text x="40.00" y="235.00" font-size="9" fill="#c9d1d9" text-anchor="middle" transform="rotate(-45 40.00 235.00)">09.08.2025</text><text x="119.72" y="235.00" font-size="9" fill="#c9d1d9" text-anchor="middle" transform="rotate(-45 119.72 235.00)">09.08.2025</text><text x="199.44" y="235.00" font-size="9" fill="#c9d1d9" text-anchor="middle" transform="rotate(-45 199.44 235.00)">09.08.2025</text><text x="279.17" y="235.00" font-size="9" fill="#c9d1d9" text-anchor="middle" transform="rotate(-45 279.17 235.00)">09.08.2025</text><text x="358.89" y="235.00" font-size="9" fill="#c9d1d9" text-anchor="middle" transform="rotate(-45 358.89 235.00)">13.08.2025</text><text x="438.61" y="235.00" font-size="9" fill="#c9d1d9" text-anchor="middle" transform="rotate(-45 438.61 235.00)">13.08.2025</text><text x="518.33" y="235.00" font-size="9" fill="#c9d1d9" text-anchor="middle" transform="rotate(-45 518.33 235.00)">18.08.2025</text><text x="598.06" y="235.00" font-size="9" fill="#c9d1d9" text-anchor="middle" transform="rotate(-45 598.06 235.00)">25.08.2025</text><text x="677.78" y="235.00" font-size="9" fill="#c9d1d9" text-anchor="middle" transform="rotate(-45 677.78 235.00)">30.08.2025</text><text x="757.50" y="235.00" font-size="9" fill="#c9d1d9" text-anchor="middle" transform="rotate(-45 757.50 235.00)">06.09.2025</text><text x="837.22" y="235.00" font-size="9" fill="#c9d1d9" text-anchor="middle" transform="rotate(-45 837.22 235.00)">13.09.2025</text>
  </g>
</svg>