<svg xmlns="http://www.w3.org/2000/svg" width="900" height="290" style="font-family: -apple-system, BlinkMacSystemFont, 'Segoe UI', Helvetica, Arial, sans-serif;">
  <rect width="100%" height="100%" fill="#0d1117"/>
  <g>
    <line x1="40" y1="220.00" x2="860" y2="220.00" stroke="#30363d"/><text x="32" y="224.00" font-size="10" fill="#c9d1d9" text-anchor="end">0</text><line x1="40" y1="175.00" x2="860" y2="175.00" stroke="#30363d"/><text x="32" y="179.00" font-size="10" fill="#c9d1d9" text-anchor="end">500</text><line x1="40" y1="130.00" x2="860" y2="130.00" stroke="#30363d"/><text x="32" y="134.00" font-size="10" fill="#c9d1d9" text-anchor="end">1k</text><line x1="40" y1="85.00" x2="860" y2="85.00" stroke="#30363d"/><text x="32" y="89.00" font-size="10" fill="#c9d1d9" text-anchor="end">1.5k</text><line x1="40" y1="40.00" x2="860" y2="40.00" stroke="#30363d"/><text x="32" y="44.00" font-size="10" fill="#c9d1d9" text-anchor="end">2k</text>
    <line x1="40.00" y1="40" x2="40.00" y2="220" stroke="#30363d" opacity="0.5"/><line x1="119.35" y1="40" x2="119.35" y2="220" stroke="#30363d" opacity="0.5"/><line x1="198.71" y1="40" x2="198.71" y2="220" stroke="#30363d" opacity="0.5"/><line x1="278.06" y1="40" x2="278.06" y2="220" stroke="#30363d" opacity="0.5"/><line x1="357.42" y1="40" x2="357.42" y2="220" stroke="#30363d" opacity="0.5"/><line x1="436.77" y1="40" x2="436.77" y2="220" stroke="#30363d" opacity="0.5"/><line x1="516.13" y1="40" x2="516.13" y2="220" stroke="#30363d" opacity="0.5"/><line x1="595.48" y1="40" x2="595.48" y2="220" stroke="#30363d" opacity="0.5"/><line x1="674.84" y1="40" x2="674.84" y2="220" stroke="#30363d" opacity="0.5"/><line x1="754.19" y1="40" x2="754.19" y2="220" stroke="#30363d" opacity="0.5"/><line x1="833.55" y1="40" x2="833.55" y2="220" stroke="#30363d" opacity="0.5"/>
    <line x1="40" y1="220" x2="860" y2="220" stroke="#30363d"/>
    <line x1="40" y1="40"   x2="40"   y2="220" stroke="#30363d"/>
    <path d="M 40.00 219.82 L 44.41 214.15 L 48.82 214.06 L 53.23 214.06 L 57.63 213.25 L 62.04 213.25 L 66.45 204.88 L 70.86 185.98 L 75.27 185.98 L 79.68 180.94 L 84.09 152.59 L 88.49 159.97 L 92.90 158.89 L 97.31 158.17 L 101.72 139.63 L 106.13 139.63 L 110.54 157.18 L 114.95 154.66 L 119.35 154.39 L 123.76 151.60 L 128.17 150.97 L 132.58 150.70 L 136.99 149.80 L 141.40 149.80 L 145.81 147.46 L 150.22 144.94 L 154.62 144.76 L 159.03 140.71 L 163.44 134.23 L 167.85 134.23 L 172.26 133.69 L 176.67 133.69 L 181.08 133.69 L 185.48 133.69 L 189.89 133.69 L 194.30 133.69 L 198.71 132.97 L 203.12 132.97 L 207.53 132.97 L 211.94 132.97 L 216.34 132.97 L 220.75 132.97 L 225.16 132.97 L 229.57 132.97 L 233.98 132.97 L 238.39 132.97 L 242.80 132.97 L 247.20 132.97 L 251.61 132.97 L 256.02 132.97 L 260.43 132.97 L 264.84 132.97 L 269.25 132.97 L 273.66 132.97 L 278.06 132.97 L 282.47 132.97 L 286.88 132.97 L 291.29 132.97 L 295.70 132.97 L 300.11 132.97 L 304.52 132.97 L 308.92 132.97 L 313.33 132.97 L 317.74 132.97 L 322.15 132.97 L 326.56 132.97 L 330.97 132.97 L 335.38 132.97 L 339.78 132.97 L 344.19 132.97 L 348.60 132.97 L 353.01 132.97 L 357.42 132.97 L 361.83 132.97 L 366.24 132.97 L 370.65 132.97 L 375.05 132.97 L 379.46 132.97 L 383.87 132.97 L 388.28 132.97 L 392.69 132.97 L 397.10 132.97 L 401.51 132.97 L 405.91 132.97 L 410.32 132.97 L 414.73 132.97 L 419.14 132.97 L 423.55 132.97 L 427.96 132.97 L 432.37 132.97 L 436.77 132.97 L 441.18 132.97 L 445.59 132.97 L 450.00 132.97 L 454.41 132.97 L 458.82 132.97 L 463.23 132.97 L 467.63 132.97 L 472.04 132.97 L 476.45 132.97 L 480.86 132.97 L 485.27 132.97 L 489.68 132.97 L 494.09 132.97 L 498.49 132.97 L 502.90 132.97 L 507.31 132.97 L 511.72 132.97 L 516.13 132.97 L 520.54 132.97 L 524.95 132.97 L 529.35 132.97 L 533.76 132.97 L 538.17 132.97 L 542.58 132.97 L 546.99 132.97 L 551.40 132.97 L 555.81 132.97 L 560.22 132.97 L 564.62 132.97 L 569.03 132.97 L 573.44 132.97 L 577.85 132.97 L 582.26 132.97 L 586.67 132.97 L 591.08 132.97 L 595.48 132.97 L 599.89 132.97 L 604.30 132.97 L 608.71 132.97 L 613.12 132.97 L 617.53 132.97 L 621.94 132.97 L 626.34 132.97 L 630.75 132.97 L 635.16 132.97 L 639.57 132.97 L 643.98 132.97 L 648.39 132.97 L 652.80 132.97 L 657.20 132.97 L 661.61 132.97 L 666.02 132.97 L 670.43 132.97 L 674.84 132.97 L 679.25 132.97 L 683.66 132.97 L 688.06 132.97 L 692.47 132.97 L 696.88 132.97 L 701.29 132.97 L 705.70 132.97 L 710.11 132.97 L 714.52 124.51 L 718.92 120.64 L 723.33 116.77 L 727.74 112.90 L 732.15 109.03 L 736.56 105.97 L 740.97 105.97 L 745.38 105.97 L 749.78 105.97 L 754.19 105.97 L 758.60 105.79 L 763.01 103.09 L 767.42 98.41 L 771.83 98.41 L 776.24 98.41 L 780.65 98.41 L 785.05 98.41 L 789.46 98.41 L 793.87 98.41 L 798.28 98.41 L 802.69 98.41 L 807.10 98.41 L 811.51 98.41 L 815.91 98.41 L 820.32 98.41 L 824.73 98.41 L 829.14 98.41 L 833.55 98.41 L 837.96 98.41 L 842.37 98.41 L 846.77 98.41 L 851.18 98.41 L 855.59 98.41 L 860.00 98.41" fill="none" stroke="#3fb950" stroke-width="2"/>
    <circle cx="860.00" cy="98.41" r="3" fill="#3fb950"/>
    <text x="40.00" y="235.00" font-size="9" fill="#c9d1d9" text-anchor="middle" transform="rotate(-45 40.00 235.00)">09.08.2025</text><text x="119.35" y="235.00" font-size="9" fill="#c9d1d9" text-anchor="middle" transform="rotate(-45 119.35 235.00)">09.08.2025</text><text x="198.71" y="235.00" font-size="9" fill="#c9d1d9" text-anchor="middle" transform="rotate(-45 198.71 235.00)">13.08.2025</text><text x="278.06" y="235.00" font-size="9" fill="#c9d1d9" text-anchor="middle" transform="rotate(-45 278.06 235.00)">28.08.2025</text><text x="357.42" y="235.00" font-size="9" fill="#c9d1d9" text-anchor="middle" transform="rotate(-45 357.42 235.00)">15.09.2025</text><text x="436.77" y="235.00" font-size="9" fill="#c9d1d9" text-anchor="middle" transform="rotate(-45 436.77 235.00)">03.10.2025</text><text x="516.13" y="235.00" font-size="9" fill="#c9d1d9" text-anchor="middle" transform="rotate(-45 516.13 235.00)">21.10.2025</text><text x="595.48" y="235.00" font-size="9" fill="#c9d1d9" text-anchor="middle" transform="rotate(-45 595.48 235.00)">08.11.2025</text><text x="674.84" y="235.00" font-size="9" fill="#c9d1d9" text-anchor="middle" transform="rotate(-45 674.84 235.00)">26.11.2025</text><text x="754.19" y="235.00" font-size="9" fill="#c9d1d9" text-anchor="middle" transform="rotate(-45 754.19 235.00)">07.12.2025</text><text x="833.55" y="235.00" font-size="9" fill="#c9d1d9" text-anchor="middle" transform="rotate(-45 833.55 235.00)">22.12.2025</text>
  </g>
</svg>