<svg xmlns="http://www.w3.org/2000/svg" width="900" height="290" style="font-family: -apple-system, BlinkMacSystemFont, 'Segoe UI', Helvetica, Arial, sans-serif;">
  <rect width="100%" height="100%" fill="white"/>
  <g>
    <line x1="40" y1="220.00" x2="860" y2="220.00" stroke="#e5e7eb"/><text x="32" y="224.00" font-size="10" fill="#111827" text-anchor="end">0</text><line x1="40" y1="175.00" x2="860" y2="175.00" stroke="#e5e7eb"/><text x="32" y="179.00" font-size="10" fill="#111827" text-anchor="end">500</text><line x1="40" y1="130.00" x2="860" y2="130.00" stroke="#e5e7eb"/><text x="32" y="134.00" font-size="10" fill="#111827" text-anchor="end">1k</text><line x1="40" y1="85.00" x2="860" y2="85.00" stroke="#e5e7eb"/><text x="32" y="89.00" font-size="10" fill="#111827" text-anchor="end">1.5k</text><line x1="40" y1="40.00" x2="860" y2="40.00" stroke="#e5e7eb"/><text x="32" y="44.00" font-size="10" fill="#111827" text-anchor="end">2k</text>
    <line x1="40.00" y1="40" x2="40.00" y2="220" stroke="#e5e7eb" opacity="0.5"/><line x1="119.24" y1="40" x2="119.24" y2="220" stroke="#e5e7eb" opacity="0.5"/><line x1="198.49" y1="40" x2="198.49" y2="220" stroke="#e5e7eb" opacity="0.5"/><line x1="277.73" y1="40" x2="277.73" y2="220" stroke="#e5e7eb" opacity="0.5"/><line x1="356.97" y1="40" x2="356.97" y2="220" stroke="#e5e7eb" opacity="0.5"/><line x1="436.22" y1="40" x2="436.22" y2="220" stroke="#e5e7eb" opacity="0.5"/><line x1="515.46" y1="40" x2="515.46" y2="220" stroke="#e5e7eb" opacity="0.5"/><line x1="594.71" y1="40" x2="594.71" y2="220" stroke="#e5e7eb" opacity="0.5"/><line x1="673.95" y1="40" x2="673.95" y2="220" stroke="#e5e7eb" opacity="0.5"/><line x1="753.19" y1="40" x2="753.19" y2="220" stroke="#e5e7eb" opacity="0.5"/><line x1="832.44" y1="40" x2="832.44" y2="220" stroke="#e5e7eb" opacity="0.5"/>
    <line x1="40" y1="220" x2="860" y2="220" stroke="#9ca3af"/>
    <line x1="40" y1="40"   x2="40"   y2="220" stroke="#9ca3af"/>
    <path d="M 40.00 219.82 L 43.45 214.15 L 46.89 214.06 L 50.34 214.06 L 53.78 213.25 L 57.23 213.25 L 60.67 204.88 L 64.12 185.98 L 67.56 185.98 L 71.01 180.94 L 74.45 152.59 L 77.90 159.97 L 81.34 158.89 L 84.79 158.17 L 88.24 139.63 L 91.68 139.63 L 95.13 157.18 L 98.57 154.66 L 102.02 154.39 L 105.46 151.60 L 108.91 150.97 L 112.35 150.70 L 115.80 149.80 L 119.24 149.80 L 122.69 147.46 L 126.13 144.94 L 129.58 144.76 L 133.03 140.71 L 136.47 134.23 L 139.92 134.23 L 143.36 133.69 L 146.81 133.69 L 150.25 133.69 L 153.70 133.69 L 157.14 133.69 L 160.59 133.69 L 164.03 132.97 L 167.48 132.97 L 170.92 132.97 L 174.37 132.97 L 177.82 132.97 L 181.26 132.97 L 184.71 132.97 L 188.15 132.97 L 191.60 132.97 L 195.04 132.97 L 198.49 132.97 L 201.93 132.97 L 205.38 132.97 L 208.82 132.97 L 212.27 132.97 L 215.71 132.97 L 219.16 132.97 L 222.61 132.97 L 226.05 132.97 L 229.50 132.97 L 232.94 132.97 L 236.39 132.97 L 239.83 132.97 L 243.28 132.97 L 246.72 132.97 L 250.17 132.97 L 253.61 132.97 L 257.06 132.97 L 260.50 132.97 L 263.95 132.97 L 267.39 132.97 L 270.84 132.97 L 274.29 132.97 L 277.73 132.97 L 281.18 132.97 L 284.62 132.97 L 288.07 132.97 L 291.51 132.97 L 294.96 132.97 L 298.40 132.97 L 301.85 132.97 L 305.29 132.97 L 308.74 132.97 L 312.18 132.97 L 315.63 132.97 L 319.08 132.97 L 322.52 132.97 L 325.97 132.97 L 329.41 132.97 L 332.86 132.97 L 336.30 132.97 L 339.75 132.97 L 343.19 132.97 L 346.64 132.97 L 350.08 132.97 L 353.53 132.97 L 356.97 132.97 L 360.42 132.97 L 363.87 132.97 L 367.31 132.97 L 370.76 132.97 L 374.20 132.97 L 377.65 132.97 L 381.09 132.97 L 384.54 132.97 L 387.98 132.97 L 391.43 132.97 L 394.87 132.97 L 398.32 132.97 L 401.76 132.97 L 405.21 132.97 L 408.66 132.97 L 412.10 132.97 L 415.55 132.97 L 418.99 132.97 L 422.44 132.97 L 425.88 132.97 L 429.33 132.97 L 432.77 132.97 L 436.22 132.97 L 439.66 132.97 L 443.11 132.97 L 446.55 132.97 L 450.00 132.97 L 453.45 132.97 L 456.89 132.97 L 460.34 132.97 L 463.78 132.97 L 467.23 132.97 L 470.67 132.97 L 474.12 132.97 L 477.56 132.97 L 481.01 132.97 L 484.45 132.97 L 487.90 132.97 L 491.34 132.97 L 494.79 132.97 L 498.24 132.97 L 501.68 132.97 L 505.13 132.97 L 508.57 132.97 L 512.02 132.97 L 515.46 132.97 L 518.91 132.97 L 522.35 132.97 L 525.80 132.97 L 529.24 132.97 L 532.69 132.97 L 536.13 132.97 L 539.58 132.97 L 543.03 132.97 L 546.47 132.97 L 549.92 132.97 L 553.36 132.97 L 556.81 132.97 L 560.25 132.97 L 563.70 132.97 L 567.14 124.51 L 570.59 120.64 L 574.03 116.77 L 577.48 112.90 L 580.92 109.03 L 584.37 105.97 L 587.82 105.97 L 591.26 105.97 L 594.71 105.97 L 598.15 105.97 L 601.60 105.79 L 605.04 103.09 L 608.49 98.41 L 611.93 98.41 L 615.38 98.41 L 618.82 98.41 L 622.27 98.41 L 625.71 98.41 L 629.16 98.41 L 632.61 98.41 L 636.05 98.41 L 639.50 98.41 L 642.94 98.41 L 646.39 98.41 L 649.83 98.41 L 653.28 98.41 L 656.72 98.41 L 660.17 98.41 L 663.61 98.41 L 667.06 98.41 L 670.50 98.41 L 673.95 98.41 L 677.39 98.41 L 680.84 98.41 L 684.29 98.41 L 687.73 98.41 L 691.18 98.41 L 694.62 98.41 L 698.07 98.41 L 701.51 98.41 L 704.96 98.41 L 708.40 98.41 L 711.85 98.41 L 715.29 98.41 L 718.74 98.41 L 722.18 98.41 L 725.63 98.41 L 729.08 98.41 L 732.52 98.41 L 735.97 98.41 L 739.41 98.41 L 742.86 98.41 L 746.30 98.41 L 749.75 98.41 L 753.19 98.41 L 756.64 98.41 L 760.08 98.41 L 763.53 98.41 L 766.97 98.41 L 770.42 98.41 L 773.87 98.41 L 777.31 98.41 L 780.76 98.41 L 784.20 98.41 L 787.65 98.41 L 791.09 98.41 L 794.54 98.41 L 797.98 98.41 L 801.43 98.41 L 804.87 98.41 L 808.32 98.41 L 811.76 98.41 L 815.21 98.41 L 818.66 98.41 L 822.10 98.41 L 825.55 98.41 L 828.99 98.41 L 832.44 98.41 L 835.88 98.41 L 839.33 98.41 L 842.77 98.41 L 846.22 98.41 L 849.66 98.41 L 853.11 98.41 L 856.55 98.41 L 860.00 98.41" fill="none" stroke="#111827" stroke-width="2"/>
    <circle cx="860.00" cy="98.41" r="3" fill="#111827"/>
    <text x="40.00" y="235.00" font-size="9" fill="#111827" text-anchor="middle" transform="rotate(-45 40.00 235.00)">09.08.2025</text><text x="119.24" y="235.00" font-size="9" fill="#111827" text-anchor="middle" transform="rotate(-45 119.24 235.00)">09.08.2025</text><text x="198.49" y="235.00" font-size="9" fill="#111827" text-anchor="middle" transform="rotate(-45 198.49 235.00)">22.08.2025</text><text x="277.73" y="235.00" font-size="9" fill="#111827" text-anchor="middle" transform="rotate(-45 277.73 235.00)">12.09.2025</text><text x="356.97" y="235.00" font-size="9" fill="#111827" text-anchor="middle" transform="rotate(-45 356.97 235.00)">05.10.2025</text><text x="436.22" y="235.00" font-size="9" fill="#111827" text-anchor="middle" transform="rotate(-45 436.22 235.00)">28.10.2025</text><text x="515.46" y="235.00" font-size="9" fill="#111827" text-anchor="middle" transform="rotate(-45 515.46 235.00)">20.11.2025</text><text x="594.71" y="235.00" font-size="9" fill="#111827" text-anchor="middle" transform="rotate(-45 594.71 235.00)">06.12.2025</text><text x="673.95" y="235.00" font-size="9" fill="#111827" text-anchor="middle" transform="rotate(-45 673.95 235.00)">26.12.2025</text><text x="753.19" y="235.00" font-size="9" fill="#111827" text-anchor="middle" transform="rotate(-45 753.19 235.00)">18.01.2026</text><text x="832.44" y="235.00" font-size="9" fill="#111827" text-anchor="middle" transform="rotate(-45 832.44 235.00)">10.02.2026</text>
  </g>
</svg>