<svg xmlns="http://www.w3.org/2000/svg" width="900" height="290" style="font-family: -apple-system, BlinkMacSystemFont, 'Segoe UI', Helvetica, Arial, sans-serif;">
  <rect width="100%" height="100%" fill="#0d1117"/>
  <g>
    <line x1="40" y1="220.00" x2="860" y2="220.00" stroke="#30363d"/><text x="32" y="224.00" font-size="10" fill="#c9d1d9" text-anchor="end">0</text><line x1="40" y1="175.00" x2="860" y2="175.00" stroke="#30363d"/><text x="32" y="179.00" font-size="10" fill="#c9d1d9" text-anchor="end">500</text><line x1="40" y1="130.00" x2="860" y2="130.00" stroke="#30363d"/><text x="32" y="134.00" font-size="10" fill="#c9d1d9" text-anchor="end">1k</text><line x1="40" y1="85.00" x2="860" y2="85.00" stroke="#30363d"/><text x="32" y="89.00" font-size="10" fill="#c9d1d9" text-anchor="end">1.5k</text><line x1="40" y1="40.00" x2="860" y2="40.00" stroke="#30363d"/><text x="32" y="44.00" font-size="10" fill="#c9d1d9" text-anchor="end">2k</text>
    <line x1="40.00" y1="40" x2="40.00" y2="220" stroke="#30363d" opacity="0.5"/><line x1="119.78" y1="40" x2="119.78" y2="220" stroke="#30363d" opacity="0.5"/><line x1="199.57" y1="40" x2="199.57" y2="220" stroke="#30363d" opacity="0.5"/><line x1="279.35" y1="40" x2="279.35" y2="220" stroke="#30363d" opacity="0.5"/><line x1="359.14" y1="40" x2="359.14" y2="220" stroke="#30363d" opacity="0.5"/><line x1="438.92" y1="40" x2="438.92" y2="220" stroke="#30363d" opacity="0.5"/><line x1="518.70" y1="40" x2="518.70" y2="220" stroke="#30363d" opacity="0.5"/><line x1="598.49" y1="40" x2="598.49" y2="220" stroke="#30363d" opacity="0.5"/><line x1="678.27" y1="40" x2="678.27" y2="220" stroke="#30363d" opacity="0.5"/><line x1="758.05" y1="40" x2="758.05" y2="220" stroke="#30363d" opacity="0.5"/><line x1="837.84" y1="40" x2="837.84" y2="220" stroke="#30363d" opacity="0.5"/>
    <line x1="40" y1="220" x2="860" y2="220" stroke="#30363d"/>
    <line x1="40" y1="40"   x2="40"   y2="220" stroke="#30363d"/>
    <path d="M 40.00 219.82 L 44.43 214.15 L 48.86 214.06 L 53.30 214.06 L 57.73 213.25 L 62.16 213.25 L 66.59 204.88 L 71.03 185.98 L 75.46 185.98 L 79.89 180.94 L 84.32 152.59 L 88.76 159.97 L 93.19 158.89 L 97.62 158.17 L 102.05 139.63 L 106.49 139.63 L 110.92 157.18 L 115.35 154.66 L 119.78 154.39 L 124.22 151.60 L 128.65 150.97 L 133.08 150.70 L 137.51 149.80 L 141.95 149.80 L 146.38 147.46 L 150.81 144.94 L 155.24 144.76 L 159.68 140.71 L 164.11 134.23 L 168.54 134.23 L 172.97 133.69 L 177.41 133.69 L 181.84 133.69 L 186.27 133.69 L 190.70 133.69 L 195.14 133.69 L 199.57 132.97 L 204.00 132.97 L 208.43 132.97 L 212.86 132.97 L 217.30 132.97 L 221.73 132.97 L 226.16 132.97 L 230.59 132.97 L 235.03 132.97 L 239.46 132.97 L 243.89 132.97 L 248.32 132.97 L 252.76 132.97 L 257.19 132.97 L 261.62 132.97 L 266.05 132.97 L 270.49 132.97 L 274.92 132.97 L 279.35 132.97 L 283.78 132.97 L 288.22 132.97 L 292.65 132.97 L 297.08 132.97 L 301.51 132.97 L 305.95 132.97 L 310.38 132.97 L 314.81 132.97 L 319.24 132.97 L 323.68 132.97 L 328.11 132.97 L 332.54 132.97 L 336.97 132.97 L 341.41 132.97 L 345.84 132.97 L 350.27 132.97 L 354.70 132.97 L 359.14 132.97 L 363.57 132.97 L 368.00 132.97 L 372.43 132.97 L 376.86 132.97 L 381.30 132.97 L 385.73 132.97 L 390.16 132.97 L 394.59 132.97 L 399.03 132.97 L 403.46 132.97 L 407.89 132.97 L 412.32 132.97 L 416.76 132.97 L 421.19 132.97 L 425.62 132.97 L 430.05 132.97 L 434.49 132.97 L 438.92 132.97 L 443.35 132.97 L 447.78 132.97 L 452.22 132.97 L 456.65 132.97 L 461.08 132.97 L 465.51 132.97 L 469.95 132.97 L 474.38 132.97 L 478.81 132.97 L 483.24 132.97 L 487.68 132.97 L 492.11 132.97 L 496.54 132.97 L 500.97 132.97 L 505.41 132.97 L 509.84 132.97 L 514.27 132.97 L 518.70 132.97 L 523.14 132.97 L 527.57 132.97 L 532.00 132.97 L 536.43 132.97 L 540.86 132.97 L 545.30 132.97 L 549.73 132.97 L 554.16 132.97 L 558.59 132.97 L 563.03 132.97 L 567.46 132.97 L 571.89 132.97 L 576.32 132.97 L 580.76 132.97 L 585.19 132.97 L 589.62 132.97 L 594.05 132.97 L 598.49 132.97 L 602.92 132.97 L 607.35 132.97 L 611.78 132.97 L 616.22 132.97 L 620.65 132.97 L 625.08 132.97 L 629.51 132.97 L 633.95 132.97 L 638.38 132.97 L 642.81 132.97 L 647.24 132.97 L 651.68 132.97 L 656.11 132.97 L 660.54 132.97 L 664.97 132.97 L 669.41 132.97 L 673.84 132.97 L 678.27 132.97 L 682.70 132.97 L 687.14 132.97 L 691.57 132.97 L 696.00 132.97 L 700.43 132.97 L 704.86 132.97 L 709.30 132.97 L 713.73 132.97 L 718.16 124.51 L 722.59 120.64 L 727.03 116.77 L 731.46 112.90 L 735.89 109.03 L 740.32 105.97 L 744.76 105.97 L 749.19 105.97 L 753.62 105.97 L 758.05 105.97 L 762.49 105.79 L 766.92 103.09 L 771.35 98.41 L 775.78 98.41 L 780.22 98.41 L 784.65 98.41 L 789.08 98.41 L 793.51 98.41 L 797.95 98.41 L 802.38 98.41 L 806.81 98.41 L 811.24 98.41 L 815.68 98.41 L 820.11 98.41 L 824.54 98.41 L 828.97 98.41 L 833.41 98.41 L 837.84 98.41 L 842.27 98.41 L 846.70 98.41 L 851.14 98.41 L 855.57 98.41 L 860.00 98.41" fill="none" stroke="#3fb950" stroke-width="2"/>
    <circle cx="860.00" cy="98.41" r="3" fill="#3fb950"/>
    <text x="40.00" y="235.00" font-size="9" fill="#c9d1d9" text-anchor="middle" transform="rotate(-45 40.00 235.00)">09.08.2025</text><text x="119.78" y="235.00" font-size="9" fill="#c9d1d9" text-anchor="middle" transform="rotate(-45 119.78 235.00)">09.08.2025</text><text x="199.57" y="235.00" font-size="9" fill="#c9d1d9" text-anchor="middle" transform="rotate(-45 199.57 235.00)">13.08.2025</text><text x="279.35" y="235.00" font-size="9" fill="#c9d1d9" text-anchor="middle" transform="rotate(-45 279.35 235.00)">28.08.2025</text><text x="359.14" y="235.00" font-size="9" fill="#c9d1d9" text-anchor="middle" transform="rotate(-45 359.14 235.00)">15.09.2025</text><text x="438.92" y="235.00" font-size="9" fill="#c9d1d9" text-anchor="middle" transform="rotate(-45 438.92 235.00)">03.10.2025</text><text x="518.70" y="235.00" font-size="9" fill="#c9d1d9" text-anchor="middle" transform="rotate(-45 518.70 235.00)">21.10.2025</text><text x="598.49" y="235.00" font-size="9" fill="#c9d1d9" text-anchor="middle" transform="rotate(-45 598.49 235.00)">08.11.2025</text><text x="678.27" y="235.00" font-size="9" fill="#c9d1d9" text-anchor="middle" transform="rotate(-45 678.27 235.00)">26.11.2025</text><text x="758.05" y="235.00" font-size="9" fill="#c9d1d9" text-anchor="middle" transform="rotate(-45 758.05 235.00)">07.12.2025</text><text x="837.84" y="235.00" font-size="9" fill="#c9d1d9" text-anchor="middle" transform="rotate(-45 837.84 235.00)">22.12.2025</text>
  </g>
</svg>