<svg xmlns="http://www.w3.org/2000/svg" width="900" height="290" style="font-family: -apple-system, BlinkMacSystemFont, 'Segoe UI', Helvetica, Arial, sans-serif;">
  <rect width="100%" height="100%" fill="#0d1117"/>
  <g>
    <line x1="40" y1="220.00" x2="860" y2="220.00" stroke="#30363d"/><text x="32" y="224.00" font-size="10" fill="#c9d1d9" text-anchor="end">0</text><line x1="40" y1="175.00" x2="860" y2="175.00" stroke="#30363d"/><text x="32" y="179.00" font-size="10" fill="#c9d1d9" text-anchor="end">500</text><line x1="40" y1="130.00" x2="860" y2="130.00" stroke="#30363d"/><text x="32" y="134.00" font-size="10" fill="#c9d1d9" text-anchor="end">1k</text><line x1="40" y1="85.00" x2="860" y2="85.00" stroke="#30363d"/><text x="32" y="89.00" font-size="10" fill="#c9d1d9" text-anchor="end">1.5k</text><line x1="40" y1="40.00" x2="860" y2="40.00" stroke="#30363d"/><text x="32" y="44.00" font-size="10" fill="#c9d1d9" text-anchor="end">2k</text>
    <line x1="40.00" y1="40" x2="40.00" y2="220" stroke="#30363d" opacity="0.5"/><line x1="121.52" y1="40" x2="121.52" y2="220" stroke="#30363d" opacity="0.5"/><line x1="203.04" y1="40" x2="203.04" y2="220" stroke="#30363d" opacity="0.5"/><line x1="284.56" y1="40" x2="284.56" y2="220" stroke="#30363d" opacity="0.5"/><line x1="366.08" y1="40" x2="366.08" y2="220" stroke="#30363d" opacity="0.5"/><line x1="447.60" y1="40" x2="447.60" y2="220" stroke="#30363d" opacity="0.5"/><line x1="529.12" y1="40" x2="529.12" y2="220" stroke="#30363d" opacity="0.5"/><line x1="610.64" y1="40" x2="610.64" y2="220" stroke="#30363d" opacity="0.5"/><line x1="692.16" y1="40" x2="692.16" y2="220" stroke="#30363d" opacity="0.5"/><line x1="773.68" y1="40" x2="773.68" y2="220" stroke="#30363d" opacity="0.5"/><line x1="855.20" y1="40" x2="855.20" y2="220" stroke="#30363d" opacity="0.5"/>
    <line x1="40" y1="220" x2="860" y2="220" stroke="#30363d"/>
    <line x1="40" y1="40"   x2="40"   y2="220" stroke="#30363d"/>
    <path d="M 40.00 219.82 L 44.80 214.15 L 49.59 214.06 L 54.39 214.06 L 59.18 213.25 L 63.98 213.25 L 68.77 204.88 L 73.57 185.98 L 78.36 185.98 L 83.16 180.94 L 87.95 152.59 L 92.75 159.97 L 97.54 158.89 L 102.34 158.17 L 107.13 139.63 L 111.93 139.63 L 116.73 157.18 L 121.52 154.66 L 126.32 154.39 L 131.11 151.60 L 135.91 150.97 L 140.70 150.70 L 145.50 149.80 L 150.29 149.80 L 155.09 147.46 L 159.88 144.94 L 164.68 144.76 L 169.47 140.71 L 174.27 134.23 L 179.06 134.23 L 183.86 133.69 L 188.65 133.69 L 193.45 133.69 L 198.25 133.69 L 203.04 133.69 L 207.84 133.69 L 212.63 132.97 L 217.43 132.97 L 222.22 132.97 L 227.02 132.97 L 231.81 132.97 L 236.61 132.97 L 241.40 132.97 L 246.20 132.97 L 250.99 132.97 L 255.79 132.97 L 260.58 132.97 L 265.38 132.97 L 270.18 132.97 L 274.97 132.97 L 279.77 132.97 L 284.56 132.97 L 289.36 132.97 L 294.15 132.97 L 298.95 132.97 L 303.74 132.97 L 308.54 132.97 L 313.33 132.97 L 318.13 132.97 L 322.92 132.97 L 327.72 132.97 L 332.51 132.97 L 337.31 132.97 L 342.11 132.97 L 346.90 132.97 L 351.70 132.97 L 356.49 132.97 L 361.29 132.97 L 366.08 132.97 L 370.88 132.97 L 375.67 132.97 L 380.47 132.97 L 385.26 132.97 L 390.06 132.97 L 394.85 132.97 L 399.65 132.97 L 404.44 132.97 L 409.24 132.97 L 414.04 132.97 L 418.83 132.97 L 423.63 132.97 L 428.42 132.97 L 433.22 132.97 L 438.01 132.97 L 442.81 132.97 L 447.60 132.97 L 452.40 132.97 L 457.19 132.97 L 461.99 132.97 L 466.78 132.97 L 471.58 132.97 L 476.37 132.97 L 481.17 132.97 L 485.96 132.97 L 490.76 132.97 L 495.56 132.97 L 500.35 132.97 L 505.15 132.97 L 509.94 132.97 L 514.74 132.97 L 519.53 132.97 L 524.33 132.97 L 529.12 132.97 L 533.92 132.97 L 538.71 132.97 L 543.51 132.97 L 548.30 132.97 L 553.10 132.97 L 557.89 132.97 L 562.69 132.97 L 567.49 132.97 L 572.28 132.97 L 577.08 132.97 L 581.87 132.97 L 586.67 132.97 L 591.46 132.97 L 596.26 132.97 L 601.05 132.97 L 605.85 132.97 L 610.64 132.97 L 615.44 132.97 L 620.23 132.97 L 625.03 132.97 L 629.82 132.97 L 634.62 132.97 L 639.42 132.97 L 644.21 132.97 L 649.01 132.97 L 653.80 132.97 L 658.60 132.97 L 663.39 132.97 L 668.19 132.97 L 672.98 132.97 L 677.78 132.97 L 682.57 132.97 L 687.37 132.97 L 692.16 132.97 L 696.96 132.97 L 701.75 132.97 L 706.55 132.97 L 711.35 132.97 L 716.14 132.97 L 720.94 132.97 L 725.73 132.97 L 730.53 132.97 L 735.32 132.97 L 740.12 132.97 L 744.91 132.97 L 749.71 132.97 L 754.50 132.97 L 759.30 132.97 L 764.09 132.97 L 768.89 132.97 L 773.68 124.51 L 778.48 120.64 L 783.27 116.77 L 788.07 112.90 L 792.87 109.03 L 797.66 105.97 L 802.46 105.97 L 807.25 105.97 L 812.05 105.97 L 816.84 105.97 L 821.64 105.79 L 826.43 103.09 L 831.23 98.41 L 836.02 98.41 L 840.82 98.41 L 845.61 98.41 L 850.41 98.41 L 855.20 98.41 L 860.00 98.41" fill="none" stroke="#3fb950" stroke-width="2"/>
    <circle cx="860.00" cy="98.41" r="3" fill="#3fb950"/>
    <text x="40.00" y="235.00" font-size="9" fill="#c9d1d9" text-anchor="middle" transform="rotate(-45 40.00 235.00)">09.08.2025</text><text x="121.52" y="235.00" font-size="9" fill="#c9d1d9" text-anchor="middle" transform="rotate(-45 121.52 235.00)">09.08.2025</text><text x="203.04" y="235.00" font-size="9" fill="#c9d1d9" text-anchor="middle" transform="rotate(-45 203.04 235.00)">13.08.2025</text><text x="284.56" y="235.00" font-size="9" fill="#c9d1d9" text-anchor="middle" transform="rotate(-45 284.56 235.00)">27.08.2025</text><text x="366.08" y="235.00" font-size="9" fill="#c9d1d9" text-anchor="middle" transform="rotate(-45 366.08 235.00)">11.09.2025</text><text x="447.60" y="235.00" font-size="9" fill="#c9d1d9" text-anchor="middle" transform="rotate(-45 447.60 235.00)">28.09.2025</text><text x="529.12" y="235.00" font-size="9" fill="#c9d1d9" text-anchor="middle" transform="rotate(-45 529.12 235.00)">15.10.2025</text><text x="610.64" y="235.00" font-size="9" fill="#c9d1d9" text-anchor="middle" transform="rotate(-45 610.64 235.00)">01.11.2025</text><text x="692.16" y="235.00" font-size="9" fill="#c9d1d9" text-anchor="middle" transform="rotate(-45 692.16 235.00)">18.11.2025</text><text x="773.68" y="235.00" font-size="9" fill="#c9d1d9" text-anchor="middle" transform="rotate(-45 773.68 235.00)">04.12.2025</text><text x="855.20" y="235.00" font-size="9" fill="#c9d1d9" text-anchor="middle" transform="rotate(-45 855.20 235.00)">12.12.2025</text>
  </g>
</svg>