<svg xmlns="http://www.w3.org/2000/svg" width="900" height="290" style="font-family: -apple-system, BlinkMacSystemFont, 'Segoe UI', Helvetica, Arial, sans-serif;">
  <rect width="100%" height="100%" fill="white"/>
  <g>
    <line x1="40" y1="220.00" x2="860" y2="220.00" stroke="#e5e7eb"/><text x="32" y="224.00" font-size="10" fill="#111827" text-anchor="end">0</text><line x1="40" y1="175.00" x2="860" y2="175.00" stroke="#e5e7eb"/><text x="32" y="179.00" font-size="10" fill="#111827" text-anchor="end">500</text><line x1="40" y1="130.00" x2="860" y2="130.00" stroke="#e5e7eb"/><text x="32" y="134.00" font-size="10" fill="#111827" text-anchor="end">1k</text><line x1="40" y1="85.00" x2="860" y2="85.00" stroke="#e5e7eb"/><text x="32" y="89.00" font-size="10" fill="#111827" text-anchor="end">1.5k</text><line x1="40" y1="40.00" x2="860" y2="40.00" stroke="#e5e7eb"/><text x="32" y="44.00" font-size="10" fill="#111827" text-anchor="end">2k</text>
    <line x1="40.00" y1="40" x2="40.00" y2="220" stroke="#e5e7eb" opacity="0.5"/><line x1="119.58" y1="40" x2="119.58" y2="220" stroke="#e5e7eb" opacity="0.5"/><line x1="199.16" y1="40" x2="199.16" y2="220" stroke="#e5e7eb" opacity="0.5"/><line x1="278.73" y1="40" x2="278.73" y2="220" stroke="#e5e7eb" opacity="0.5"/><line x1="358.31" y1="40" x2="358.31" y2="220" stroke="#e5e7eb" opacity="0.5"/><line x1="437.89" y1="40" x2="437.89" y2="220" stroke="#e5e7eb" opacity="0.5"/><line x1="517.47" y1="40" x2="517.47" y2="220" stroke="#e5e7eb" opacity="0.5"/><line x1="597.05" y1="40" x2="597.05" y2="220" stroke="#e5e7eb" opacity="0.5"/><line x1="676.62" y1="40" x2="676.62" y2="220" stroke="#e5e7eb" opacity="0.5"/><line x1="756.20" y1="40" x2="756.20" y2="220" stroke="#e5e7eb" opacity="0.5"/><line x1="835.78" y1="40" x2="835.78" y2="220" stroke="#e5e7eb" opacity="0.5"/>
    <line x1="40" y1="220" x2="860" y2="220" stroke="#9ca3af"/>
    <line x1="40" y1="40"   x2="40"   y2="220" stroke="#9ca3af"/>
    <path d="M 40.00 219.82 L 43.46 214.15 L 46.92 214.06 L 50.38 214.06 L 53.84 213.25 L 57.30 213.25 L 60.76 204.88 L 64.22 185.98 L 67.68 185.98 L 71.14 180.94 L 74.60 152.59 L 78.06 159.97 L 81.52 158.89 L 84.98 158.17 L 88.44 139.63 L 91.90 139.63 L 95.36 157.18 L 98.82 154.66 L 102.28 154.39 L 105.74 151.60 L 109.20 150.97 L 112.66 150.70 L 116.12 149.80 L 119.58 149.80 L 123.04 147.46 L 126.50 144.94 L 129.96 144.76 L 133.42 140.71 L 136.88 134.23 L 140.34 134.23 L 143.80 133.69 L 147.26 133.69 L 150.72 133.69 L 154.18 133.69 L 157.64 133.69 L 161.10 133.69 L 164.56 132.97 L 168.02 132.97 L 171.48 132.97 L 174.94 132.97 L 178.40 132.97 L 181.86 132.97 L 185.32 132.97 L 188.78 132.97 L 192.24 132.97 L 195.70 132.97 L 199.16 132.97 L 202.62 132.97 L 206.08 132.97 L 209.54 132.97 L 213.00 132.97 L 216.46 132.97 L 219.92 132.97 L 223.38 132.97 L 226.84 132.97 L 230.30 132.97 L 233.76 132.97 L 237.22 132.97 L 240.68 132.97 L 244.14 132.97 L 247.59 132.97 L 251.05 132.97 L 254.51 132.97 L 257.97 132.97 L 261.43 132.97 L 264.89 132.97 L 268.35 132.97 L 271.81 132.97 L 275.27 132.97 L 278.73 132.97 L 282.19 132.97 L 285.65 132.97 L 289.11 132.97 L 292.57 132.97 L 296.03 132.97 L 299.49 132.97 L 302.95 132.97 L 306.41 132.97 L 309.87 132.97 L 313.33 132.97 L 316.79 132.97 L 320.25 132.97 L 323.71 132.97 L 327.17 132.97 L 330.63 132.97 L 334.09 132.97 L 337.55 132.97 L 341.01 132.97 L 344.47 132.97 L 347.93 132.97 L 351.39 132.97 L 354.85 132.97 L 358.31 132.97 L 361.77 132.97 L 365.23 132.97 L 368.69 132.97 L 372.15 132.97 L 375.61 132.97 L 379.07 132.97 L 382.53 132.97 L 385.99 132.97 L 389.45 132.97 L 392.91 132.97 L 396.37 132.97 L 399.83 132.97 L 403.29 132.97 L 406.75 132.97 L 410.21 132.97 L 413.67 132.97 L 417.13 132.97 L 420.59 132.97 L 424.05 132.97 L 427.51 132.97 L 430.97 132.97 L 434.43 132.97 L 437.89 132.97 L 441.35 132.97 L 444.81 132.97 L 448.27 132.97 L 451.73 132.97 L 455.19 132.97 L 458.65 132.97 L 462.11 132.97 L 465.57 132.97 L 469.03 132.97 L 472.49 132.97 L 475.95 132.97 L 479.41 132.97 L 482.87 132.97 L 486.33 132.97 L 489.79 132.97 L 493.25 132.97 L 496.71 132.97 L 500.17 132.97 L 503.63 132.97 L 507.09 132.97 L 510.55 132.97 L 514.01 132.97 L 517.47 132.97 L 520.93 132.97 L 524.39 132.97 L 527.85 132.97 L 531.31 132.97 L 534.77 132.97 L 538.23 132.97 L 541.69 132.97 L 545.15 132.97 L 548.61 132.97 L 552.07 132.97 L 555.53 132.97 L 558.99 132.97 L 562.45 132.97 L 565.91 132.97 L 569.37 124.51 L 572.83 120.64 L 576.29 116.77 L 579.75 112.90 L 583.21 109.03 L 586.67 105.97 L 590.13 105.97 L 593.59 105.97 L 597.05 105.97 L 600.51 105.97 L 603.97 105.79 L 607.43 103.09 L 610.89 98.41 L 614.35 98.41 L 617.81 98.41 L 621.27 98.41 L 624.73 98.41 L 628.19 98.41 L 631.65 98.41 L 635.11 98.41 L 638.57 98.41 L 642.03 98.41 L 645.49 98.41 L 648.95 98.41 L 652.41 98.41 L 655.86 98.41 L 659.32 98.41 L 662.78 98.41 L 666.24 98.41 L 669.70 98.41 L 673.16 98.41 L 676.62 98.41 L 680.08 98.41 L 683.54 98.41 L 687.00 98.41 L 690.46 98.41 L 693.92 98.41 L 697.38 98.41 L 700.84 98.41 L 704.30 98.41 L 707.76 98.41 L 711.22 98.41 L 714.68 98.41 L 718.14 98.41 L 721.60 98.41 L 725.06 98.41 L 728.52 98.41 L 731.98 98.41 L 735.44 98.41 L 738.90 98.41 L 742.36 98.41 L 745.82 98.41 L 749.28 98.41 L 752.74 98.41 L 756.20 98.41 L 759.66 98.41 L 763.12 98.41 L 766.58 98.41 L 770.04 98.41 L 773.50 98.41 L 776.96 98.41 L 780.42 98.41 L 783.88 98.41 L 787.34 98.41 L 790.80 98.41 L 794.26 98.41 L 797.72 98.41 L 801.18 98.41 L 804.64 98.41 L 808.10 98.41 L 811.56 98.41 L 815.02 98.41 L 818.48 98.41 L 821.94 98.41 L 825.40 98.41 L 828.86 98.41 L 832.32 98.41 L 835.78 98.41 L 839.24 98.41 L 842.70 98.41 L 846.16 98.41 L 849.62 98.41 L 853.08 98.41 L 856.54 98.41 L 860.00 98.41" fill="none" stroke="#111827" stroke-width="2"/>
    <circle cx="860.00" cy="98.41" r="3" fill="#111827"/>
    <text x="40.00" y="235.00" font-size="9" fill="#111827" text-anchor="middle" transform="rotate(-45 40.00 235.00)">09.08.2025</text><text x="119.58" y="235.00" font-size="9" fill="#111827" text-anchor="middle" transform="rotate(-45 119.58 235.00)">09.08.2025</text><text x="199.16" y="235.00" font-size="9" fill="#111827" text-anchor="middle" transform="rotate(-45 199.16 235.00)">22.08.2025</text><text x="278.73" y="235.00" font-size="9" fill="#111827" text-anchor="middle" transform="rotate(-45 278.73 235.00)">12.09.2025</text><text x="358.31" y="235.00" font-size="9" fill="#111827" text-anchor="middle" transform="rotate(-45 358.31 235.00)">05.10.2025</text><text x="437.89" y="235.00" font-size="9" fill="#111827" text-anchor="middle" transform="rotate(-45 437.89 235.00)">28.10.2025</text><text x="517.47" y="235.00" font-size="9" fill="#111827" text-anchor="middle" transform="rotate(-45 517.47 235.00)">20.11.2025</text><text x="597.05" y="235.00" font-size="9" fill="#111827" text-anchor="middle" transform="rotate(-45 597.05 235.00)">06.12.2025</text><text x="676.62" y="235.00" font-size="9" fill="#111827" text-anchor="middle" transform="rotate(-45 676.62 235.00)">26.12.2025</text><text x="756.20" y="235.00" font-size="9" fill="#111827" text-anchor="middle" transform="rotate(-45 756.20 235.00)">18.01.2026</text><text x="835.78" y="235.00" font-size="9" fill="#111827" text-anchor="middle" transform="rotate(-45 835.78 235.00)">10.02.2026</text>
  </g>
</svg>