<svg xmlns="http://www.w3.org/2000/svg" width="900" height="290" style="font-family: -apple-system, BlinkMacSystemFont, 'Segoe UI', Helvetica, Arial, sans-serif;">
  <rect width="100%" height="100%" fill="white"/>
  <g>
    <line x1="40" y1="220.00" x2="860" y2="220.00" stroke="#e5e7eb"/><text x="32" y="224.00" font-size="10" fill="#111827" text-anchor="end">0</text><line x1="40" y1="175.00" x2="860" y2="175.00" stroke="#e5e7eb"/><text x="32" y="179.00" font-size="10" fill="#111827" text-anchor="end">500</text><line x1="40" y1="130.00" x2="860" y2="130.00" stroke="#e5e7eb"/><text x="32" y="134.00" font-size="10" fill="#111827" text-anchor="end">1k</text><line x1="40" y1="85.00" x2="860" y2="85.00" stroke="#e5e7eb"/><text x="32" y="89.00" font-size="10" fill="#111827" text-anchor="end">1.5k</text><line x1="40" y1="40.00" x2="860" y2="40.00" stroke="#e5e7eb"/><text x="32" y="44.00" font-size="10" fill="#111827" text-anchor="end">2k</text>
    <line x1="40.00" y1="40" x2="40.00" y2="220" stroke="#e5e7eb" opacity="0.5"/><line x1="123.19" y1="40" x2="123.19" y2="220" stroke="#e5e7eb" opacity="0.5"/><line x1="206.38" y1="40" x2="206.38" y2="220" stroke="#e5e7eb" opacity="0.5"/><line x1="289.57" y1="40" x2="289.57" y2="220" stroke="#e5e7eb" opacity="0.5"/><line x1="372.75" y1="40" x2="372.75" y2="220" stroke="#e5e7eb" opacity="0.5"/><line x1="455.94" y1="40" x2="455.94" y2="220" stroke="#e5e7eb" opacity="0.5"/><line x1="539.13" y1="40" x2="539.13" y2="220" stroke="#e5e7eb" opacity="0.5"/><line x1="622.32" y1="40" x2="622.32" y2="220" stroke="#e5e7eb" opacity="0.5"/><line x1="705.51" y1="40" x2="705.51" y2="220" stroke="#e5e7eb" opacity="0.5"/><line x1="788.70" y1="40" x2="788.70" y2="220" stroke="#e5e7eb" opacity="0.5"/>
    <line x1="40" y1="220" x2="860" y2="220" stroke="#9ca3af"/>
    <line x1="40" y1="40"   x2="40"   y2="220" stroke="#9ca3af"/>
    <path d="M 40.00 219.82 L 51.88 214.15 L 63.77 214.06 L 75.65 214.06 L 87.54 213.25 L 99.42 213.25 L 111.30 204.88 L 123.19 185.98 L 135.07 185.98 L 146.96 180.94 L 158.84 152.59 L 170.72 159.97 L 182.61 158.89 L 194.49 158.17 L 206.38 139.63 L 218.26 139.63 L 230.14 157.18 L 242.03 154.66 L 253.91 154.39 L 265.80 151.60 L 277.68 150.97 L 289.57 150.70 L 301.45 149.80 L 313.33 149.80 L 325.22 147.46 L 337.10 144.94 L 348.99 144.76 L 360.87 140.71 L 372.75 134.23 L 384.64 134.23 L 396.52 133.69 L 408.41 133.69 L 420.29 133.69 L 432.17 133.69 L 444.06 133.69 L 455.94 133.69 L 467.83 132.97 L 479.71 132.97 L 491.59 132.97 L 503.48 132.97 L 515.36 132.97 L 527.25 132.97 L 539.13 132.97 L 551.01 132.97 L 562.90 132.97 L 574.78 132.97 L 586.67 132.97 L 598.55 132.97 L 610.43 132.97 L 622.32 132.97 L 634.20 132.97 L 646.09 132.97 L 657.97 132.97 L 669.86 132.97 L 681.74 132.97 L 693.62 132.97 L 705.51 132.97 L 717.39 132.97 L 729.28 132.97 L 741.16 132.97 L 753.04 132.97 L 764.93 132.97 L 776.81 132.97 L 788.70 132.97 L 800.58 132.97 L 812.46 132.97 L 824.35 132.97 L 836.23 132.97 L 848.12 132.97 L 860.00 132.97" fill="none" stroke="#111827" stroke-width="2"/>
    <circle cx="860.00" cy="132.97" r="3" fill="#111827"/>
    <text x="40.00" y="235.00" font-size="9" fill="#111827" text-anchor="middle" transform="rotate(-45 40.00 235.00)">09.08.2025</text><text x="123.19" y="235.00" font-size="9" fill="#111827" text-anchor="middle" transform="rotate(-45 123.19 235.00)">09.08.2025</text><text x="206.38" y="235.00" font-size="9" fill="#111827" text-anchor="middle" transform="rotate(-45 206.38 235.00)">09.08.2025</text><text x="289.57" y="235.00" font-size="9" fill="#111827" text-anchor="middle" transform="rotate(-45 289.57 235.00)">09.08.2025</text><text x="372.75" y="235.00" font-size="9" fill="#111827" text-anchor="middle" transform="rotate(-45 372.75 235.00)">13.08.2025</text><text x="455.94" y="235.00" font-size="9" fill="#111827" text-anchor="middle" transform="rotate(-45 455.94 235.00)">13.08.2025</text><text x="539.13" y="235.00" font-size="9" fill="#111827" text-anchor="middle" transform="rotate(-45 539.13 235.00)">18.08.2025</text><text x="622.32" y="235.00" font-size="9" fill="#111827" text-anchor="middle" transform="rotate(-45 622.32 235.00)">25.08.2025</text><text x="705.51" y="235.00" font-size="9" fill="#111827" text-anchor="middle" transform="rotate(-45 705.51 235.00)">30.08.2025</text><text x="788.70" y="235.00" font-size="9" fill="#111827" text-anchor="middle" transform="rotate(-45 788.70 235.00)">06.09.2025</text>
  </g>
</svg>