<svg xmlns="http://www.w3.org/2000/svg" width="900" height="290" style="font-family: -apple-system, BlinkMacSystemFont, 'Segoe UI', Helvetica, Arial, sans-serif;">
  <rect width="100%" height="100%" fill="white"/>
  <g>
    <line x1="40" y1="220.00" x2="860" y2="220.00" stroke="#e5e7eb"/><text x="32" y="224.00" font-size="10" fill="#111827" text-anchor="end">0</text><line x1="40" y1="175.00" x2="860" y2="175.00" stroke="#e5e7eb"/><text x="32" y="179.00" font-size="10" fill="#111827" text-anchor="end">500</text><line x1="40" y1="130.00" x2="860" y2="130.00" stroke="#e5e7eb"/><text x="32" y="134.00" font-size="10" fill="#111827" text-anchor="end">1k</text><line x1="40" y1="85.00" x2="860" y2="85.00" stroke="#e5e7eb"/><text x="32" y="89.00" font-size="10" fill="#111827" text-anchor="end">1.5k</text><line x1="40" y1="40.00" x2="860" y2="40.00" stroke="#e5e7eb"/><text x="32" y="44.00" font-size="10" fill="#111827" text-anchor="end">2k</text>
    <line x1="40.00" y1="40" x2="40.00" y2="220" stroke="#e5e7eb" opacity="0.5"/><line x1="119.61" y1="40" x2="119.61" y2="220" stroke="#e5e7eb" opacity="0.5"/><line x1="199.22" y1="40" x2="199.22" y2="220" stroke="#e5e7eb" opacity="0.5"/><line x1="278.83" y1="40" x2="278.83" y2="220" stroke="#e5e7eb" opacity="0.5"/><line x1="358.45" y1="40" x2="358.45" y2="220" stroke="#e5e7eb" opacity="0.5"/><line x1="438.06" y1="40" x2="438.06" y2="220" stroke="#e5e7eb" opacity="0.5"/><line x1="517.67" y1="40" x2="517.67" y2="220" stroke="#e5e7eb" opacity="0.5"/><line x1="597.28" y1="40" x2="597.28" y2="220" stroke="#e5e7eb" opacity="0.5"/><line x1="676.89" y1="40" x2="676.89" y2="220" stroke="#e5e7eb" opacity="0.5"/><line x1="756.50" y1="40" x2="756.50" y2="220" stroke="#e5e7eb" opacity="0.5"/><line x1="836.12" y1="40" x2="836.12" y2="220" stroke="#e5e7eb" opacity="0.5"/>
    <line x1="40" y1="220" x2="860" y2="220" stroke="#9ca3af"/>
    <line x1="40" y1="40"   x2="40"   y2="220" stroke="#9ca3af"/>
    <path d="M 40.00 219.82 L 47.96 214.15 L 55.92 214.06 L 63.88 214.06 L 71.84 213.25 L 79.81 213.25 L 87.77 204.88 L 95.73 185.98 L 103.69 185.98 L 111.65 180.94 L 119.61 152.59 L 127.57 159.97 L 135.53 158.89 L 143.50 158.17 L 151.46 139.63 L 159.42 139.63 L 167.38 157.18 L 175.34 154.66 L 183.30 154.39 L 191.26 151.60 L 199.22 150.97 L 207.18 150.70 L 215.15 149.80 L 223.11 149.80 L 231.07 147.46 L 239.03 144.94 L 246.99 144.76 L 254.95 140.71 L 262.91 134.23 L 270.87 134.23 L 278.83 133.69 L 286.80 133.69 L 294.76 133.69 L 302.72 133.69 L 310.68 133.69 L 318.64 133.69 L 326.60 132.97 L 334.56 132.97 L 342.52 132.97 L 350.49 132.97 L 358.45 132.97 L 366.41 132.97 L 374.37 132.97 L 382.33 132.97 L 390.29 132.97 L 398.25 132.97 L 406.21 132.97 L 414.17 132.97 L 422.14 132.97 L 430.10 132.97 L 438.06 132.97 L 446.02 132.97 L 453.98 132.97 L 461.94 132.97 L 469.90 132.97 L 477.86 132.97 L 485.83 132.97 L 493.79 132.97 L 501.75 132.97 L 509.71 132.97 L 517.67 132.97 L 525.63 132.97 L 533.59 132.97 L 541.55 132.97 L 549.51 132.97 L 557.48 132.97 L 565.44 132.97 L 573.40 132.97 L 581.36 132.97 L 589.32 132.97 L 597.28 132.97 L 605.24 132.97 L 613.20 132.97 L 621.17 132.97 L 629.13 132.97 L 637.09 132.97 L 645.05 132.97 L 653.01 132.97 L 660.97 132.97 L 668.93 132.97 L 676.89 132.97 L 684.85 132.97 L 692.82 132.97 L 700.78 132.97 L 708.74 132.97 L 716.70 132.97 L 724.66 132.97 L 732.62 132.97 L 740.58 132.97 L 748.54 132.97 L 756.50 132.97 L 764.47 132.97 L 772.43 132.97 L 780.39 132.97 L 788.35 132.97 L 796.31 132.97 L 804.27 132.97 L 812.23 132.97 L 820.19 132.97 L 828.16 132.97 L 836.12 132.97 L 844.08 132.97 L 852.04 132.97 L 860.00 132.97" fill="none" stroke="#111827" stroke-width="2"/>
    <circle cx="860.00" cy="132.97" r="3" fill="#111827"/>
    <text x="40.00" y="235.00" font-size="9" fill="#111827" text-anchor="middle" transform="rotate(-45 40.00 235.00)">09.08.2025</text><text x="119.61" y="235.00" font-size="9" fill="#111827" text-anchor="middle" transform="rotate(-45 119.61 235.00)">09.08.2025</text><text x="199.22" y="235.00" font-size="9" fill="#111827" text-anchor="middle" transform="rotate(-45 199.22 235.00)">09.08.2025</text><text x="278.83" y="235.00" font-size="9" fill="#111827" text-anchor="middle" transform="rotate(-45 278.83 235.00)">13.08.2025</text><text x="358.45" y="235.00" font-size="9" fill="#111827" text-anchor="middle" transform="rotate(-45 358.45 235.00)">16.08.2025</text><text x="438.06" y="235.00" font-size="9" fill="#111827" text-anchor="middle" transform="rotate(-45 438.06 235.00)">26.08.2025</text><text x="517.67" y="235.00" font-size="9" fill="#111827" text-anchor="middle" transform="rotate(-45 517.67 235.00)">03.09.2025</text><text x="597.28" y="235.00" font-size="9" fill="#111827" text-anchor="middle" transform="rotate(-45 597.28 235.00)">13.09.2025</text><text x="676.89" y="235.00" font-size="9" fill="#111827" text-anchor="middle" transform="rotate(-45 676.89 235.00)">23.09.2025</text><text x="756.50" y="235.00" font-size="9" fill="#111827" text-anchor="middle" transform="rotate(-45 756.50 235.00)">03.10.2025</text><text x="836.12" y="235.00" font-size="9" fill="#111827" text-anchor="middle" transform="rotate(-45 836.12 235.00)">13.10.2025</text>
  </g>
</svg>