<svg xmlns="http://www.w3.org/2000/svg" width="900" height="290" style="font-family: -apple-system, BlinkMacSystemFont, 'Segoe UI', Helvetica, Arial, sans-serif;">
  <rect width="100%" height="100%" fill="#0d1117"/>
  <g>
    <line x1="40" y1="220.00" x2="860" y2="220.00" stroke="#30363d"/><text x="32" y="224.00" font-size="10" fill="#c9d1d9" text-anchor="end">0</text><line x1="40" y1="175.00" x2="860" y2="175.00" stroke="#30363d"/><text x="32" y="179.00" font-size="10" fill="#c9d1d9" text-anchor="end">500</text><line x1="40" y1="130.00" x2="860" y2="130.00" stroke="#30363d"/><text x="32" y="134.00" font-size="10" fill="#c9d1d9" text-anchor="end">1k</text><line x1="40" y1="85.00" x2="860" y2="85.00" stroke="#30363d"/><text x="32" y="89.00" font-size="10" fill="#c9d1d9" text-anchor="end">1.5k</text><line x1="40" y1="40.00" x2="860" y2="40.00" stroke="#30363d"/><text x="32" y="44.00" font-size="10" fill="#c9d1d9" text-anchor="end">2k</text>
    <line x1="40.00" y1="40" x2="40.00" y2="220" stroke="#30363d" opacity="0.5"/><line x1="119.92" y1="40" x2="119.92" y2="220" stroke="#30363d" opacity="0.5"/><line x1="199.83" y1="40" x2="199.83" y2="220" stroke="#30363d" opacity="0.5"/><line x1="279.75" y1="40" x2="279.75" y2="220" stroke="#30363d" opacity="0.5"/><line x1="359.66" y1="40" x2="359.66" y2="220" stroke="#30363d" opacity="0.5"/><line x1="439.58" y1="40" x2="439.58" y2="220" stroke="#30363d" opacity="0.5"/><line x1="519.49" y1="40" x2="519.49" y2="220" stroke="#30363d" opacity="0.5"/><line x1="599.41" y1="40" x2="599.41" y2="220" stroke="#30363d" opacity="0.5"/><line x1="679.32" y1="40" x2="679.32" y2="220" stroke="#30363d" opacity="0.5"/><line x1="759.24" y1="40" x2="759.24" y2="220" stroke="#30363d" opacity="0.5"/><line x1="839.15" y1="40" x2="839.15" y2="220" stroke="#30363d" opacity="0.5"/>
    <line x1="40" y1="220" x2="860" y2="220" stroke="#30363d"/>
    <line x1="40" y1="40"   x2="40"   y2="220" stroke="#30363d"/>
    <path d="M 40.00 219.82 L 43.47 214.15 L 46.95 214.06 L 50.42 214.06 L 53.90 213.25 L 57.37 213.25 L 60.85 204.88 L 64.32 185.98 L 67.80 185.98 L 71.27 180.94 L 74.75 152.59 L 78.22 159.97 L 81.69 158.89 L 85.17 158.17 L 88.64 139.63 L 92.12 139.63 L 95.59 157.18 L 99.07 154.66 L 102.54 154.39 L 106.02 151.60 L 109.49 150.97 L 112.97 150.70 L 116.44 149.80 L 119.92 149.80 L 123.39 147.46 L 126.86 144.94 L 130.34 144.76 L 133.81 140.71 L 137.29 134.23 L 140.76 134.23 L 144.24 133.69 L 147.71 133.69 L 151.19 133.69 L 154.66 133.69 L 158.14 133.69 L 161.61 133.69 L 165.08 132.97 L 168.56 132.97 L 172.03 132.97 L 175.51 132.97 L 178.98 132.97 L 182.46 132.97 L 185.93 132.97 L 189.41 132.97 L 192.88 132.97 L 196.36 132.97 L 199.83 132.97 L 203.31 132.97 L 206.78 132.97 L 210.25 132.97 L 213.73 132.97 L 217.20 132.97 L 220.68 132.97 L 224.15 132.97 L 227.63 132.97 L 231.10 132.97 L 234.58 132.97 L 238.05 132.97 L 241.53 132.97 L 245.00 132.97 L 248.47 132.97 L 251.95 132.97 L 255.42 132.97 L 258.90 132.97 L 262.37 132.97 L 265.85 132.97 L 269.32 132.97 L 272.80 132.97 L 276.27 132.97 L 279.75 132.97 L 283.22 132.97 L 286.69 132.97 L 290.17 132.97 L 293.64 132.97 L 297.12 132.97 L 300.59 132.97 L 304.07 132.97 L 307.54 132.97 L 311.02 132.97 L 314.49 132.97 L 317.97 132.97 L 321.44 132.97 L 324.92 132.97 L 328.39 132.97 L 331.86 132.97 L 335.34 132.97 L 338.81 132.97 L 342.29 132.97 L 345.76 132.97 L 349.24 132.97 L 352.71 132.97 L 356.19 132.97 L 359.66 132.97 L 363.14 132.97 L 366.61 132.97 L 370.08 132.97 L 373.56 132.97 L 377.03 132.97 L 380.51 132.97 L 383.98 132.97 L 387.46 132.97 L 390.93 132.97 L 394.41 132.97 L 397.88 132.97 L 401.36 132.97 L 404.83 132.97 L 408.31 132.97 L 411.78 132.97 L 415.25 132.97 L 418.73 132.97 L 422.20 132.97 L 425.68 132.97 L 429.15 132.97 L 432.63 132.97 L 436.10 132.97 L 439.58 132.97 L 443.05 132.97 L 446.53 132.97 L 450.00 132.97 L 453.47 132.97 L 456.95 132.97 L 460.42 132.97 L 463.90 132.97 L 467.37 132.97 L 470.85 132.97 L 474.32 132.97 L 477.80 132.97 L 481.27 132.97 L 484.75 132.97 L 488.22 132.97 L 491.69 132.97 L 495.17 132.97 L 498.64 132.97 L 502.12 132.97 L 505.59 132.97 L 509.07 132.97 L 512.54 132.97 L 516.02 132.97 L 519.49 132.97 L 522.97 132.97 L 526.44 132.97 L 529.92 132.97 L 533.39 132.97 L 536.86 132.97 L 540.34 132.97 L 543.81 132.97 L 547.29 132.97 L 550.76 132.97 L 554.24 132.97 L 557.71 132.97 L 561.19 132.97 L 564.66 132.97 L 568.14 132.97 L 571.61 124.51 L 575.08 120.64 L 578.56 116.77 L 582.03 112.90 L 585.51 109.03 L 588.98 105.97 L 592.46 105.97 L 595.93 105.97 L 599.41 105.97 L 602.88 105.97 L 606.36 105.79 L 609.83 103.09 L 613.31 98.41 L 616.78 98.41 L 620.25 98.41 L 623.73 98.41 L 627.20 98.41 L 630.68 98.41 L 634.15 98.41 L 637.63 98.41 L 641.10 98.41 L 644.58 98.41 L 648.05 98.41 L 651.53 98.41 L 655.00 98.41 L 658.47 98.41 L 661.95 98.41 L 665.42 98.41 L 668.90 98.41 L 672.37 98.41 L 675.85 98.41 L 679.32 98.41 L 682.80 98.41 L 686.27 98.41 L 689.75 98.41 L 693.22 98.41 L 696.69 98.41 L 700.17 98.41 L 703.64 98.41 L 707.12 98.41 L 710.59 98.41 L 714.07 98.41 L 717.54 98.41 L 721.02 98.41 L 724.49 98.41 L 727.97 98.41 L 731.44 98.41 L 734.92 98.41 L 738.39 98.41 L 741.86 98.41 L 745.34 98.41 L 748.81 98.41 L 752.29 98.41 L 755.76 98.41 L 759.24 98.41 L 762.71 98.41 L 766.19 98.41 L 769.66 98.41 L 773.14 98.41 L 776.61 98.41 L 780.08 98.41 L 783.56 98.41 L 787.03 98.41 L 790.51 98.41 L 793.98 98.41 L 797.46 98.41 L 800.93 98.41 L 804.41 98.41 L 807.88 98.41 L 811.36 98.41 L 814.83 98.41 L 818.31 98.41 L 821.78 98.41 L 825.25 98.41 L 828.73 98.41 L 832.20 98.41 L 835.68 98.41 L 839.15 98.41 L 842.63 98.41 L 846.10 98.41 L 849.58 98.41 L 853.05 98.41 L 856.53 98.41 L 860.00 98.41" fill="none" stroke="#3fb950" stroke-width="2"/>
    <circle cx="860.00" cy="98.41" r="3" fill="#3fb950"/>
    <text x="40.00" y="235.00" font-size="9" fill="#c9d1d9" text-anchor="middle" transform="rotate(-45 40.00 235.00)">09.08.2025</text><text x="119.92" y="235.00" font-size="9" fill="#c9d1d9" text-anchor="middle" transform="rotate(-45 119.92 235.00)">09.08.2025</text><text x="199.83" y="235.00" font-size="9" fill="#c9d1d9" text-anchor="middle" transform="rotate(-45 199.83 235.00)">22.08.2025</text><text x="279.75" y="235.00" font-size="9" fill="#c9d1d9" text-anchor="middle" transform="rotate(-45 279.75 235.00)">12.09.2025</text><text x="359.66" y="235.00" font-size="9" fill="#c9d1d9" text-anchor="middle" transform="rotate(-45 359.66 235.00)">05.10.2025</text><text x="439.58" y="235.00" font-size="9" fill="#c9d1d9" text-anchor="middle" transform="rotate(-45 439.58 235.00)">28.10.2025</text><text x="519.49" y="235.00" font-size="9" fill="#c9d1d9" text-anchor="middle" transform="rotate(-45 519.49 235.00)">20.11.2025</text><text x="599.41" y="235.00" font-size="9" fill="#c9d1d9" text-anchor="middle" transform="rotate(-45 599.41 235.00)">06.12.2025</text><text x="679.32" y="235.00" font-size="9" fill="#c9d1d9" text-anchor="middle" transform="rotate(-45 679.32 235.00)">26.12.2025</text><text x="759.24" y="235.00" font-size="9" fill="#c9d1d9" text-anchor="middle" transform="rotate(-45 759.24 235.00)">18.01.2026</text><text x="839.15" y="235.00" font-size="9" fill="#c9d1d9" text-anchor="middle" transform="rotate(-45 839.15 235.00)">10.02.2026</text>
  </g>
</svg>