<svg xmlns="http://www.w3.org/2000/svg" width="900" height="290" style="font-family: -apple-system, BlinkMacSystemFont, 'Segoe UI', Helvetica, Arial, sans-serif;">
  <rect width="100%" height="100%" fill="white"/>
  <g>
    <line x1="40" y1="220.00" x2="860" y2="220.00" stroke="#e5e7eb"/><text x="32" y="224.00" font-size="10" fill="#111827" text-anchor="end">0</text><line x1="40" y1="175.00" x2="860" y2="175.00" stroke="#e5e7eb"/><text x="32" y="179.00" font-size="10" fill="#111827" text-anchor="end">500</text><line x1="40" y1="130.00" x2="860" y2="130.00" stroke="#e5e7eb"/><text x="32" y="134.00" font-size="10" fill="#111827" text-anchor="end">1k</text><line x1="40" y1="85.00" x2="860" y2="85.00" stroke="#e5e7eb"/><text x="32" y="89.00" font-size="10" fill="#111827" text-anchor="end">1.5k</text><line x1="40" y1="40.00" x2="860" y2="40.00" stroke="#e5e7eb"/><text x="32" y="44.00" font-size="10" fill="#111827" text-anchor="end">2k</text>
    <line x1="40.00" y1="40" x2="40.00" y2="220" stroke="#e5e7eb" opacity="0.5"/><line x1="120.66" y1="40" x2="120.66" y2="220" stroke="#e5e7eb" opacity="0.5"/><line x1="201.31" y1="40" x2="201.31" y2="220" stroke="#e5e7eb" opacity="0.5"/><line x1="281.97" y1="40" x2="281.97" y2="220" stroke="#e5e7eb" opacity="0.5"/><line x1="362.62" y1="40" x2="362.62" y2="220" stroke="#e5e7eb" opacity="0.5"/><line x1="443.28" y1="40" x2="443.28" y2="220" stroke="#e5e7eb" opacity="0.5"/><line x1="523.93" y1="40" x2="523.93" y2="220" stroke="#e5e7eb" opacity="0.5"/><line x1="604.59" y1="40" x2="604.59" y2="220" stroke="#e5e7eb" opacity="0.5"/><line x1="685.25" y1="40" x2="685.25" y2="220" stroke="#e5e7eb" opacity="0.5"/><line x1="765.90" y1="40" x2="765.90" y2="220" stroke="#e5e7eb" opacity="0.5"/><line x1="846.56" y1="40" x2="846.56" y2="220" stroke="#e5e7eb" opacity="0.5"/>
    <line x1="40" y1="220" x2="860" y2="220" stroke="#9ca3af"/>
    <line x1="40" y1="40"   x2="40"   y2="220" stroke="#9ca3af"/>
    <path d="M 40.00 219.82 L 44.48 214.15 L 48.96 214.06 L 53.44 214.06 L 57.92 213.25 L 62.40 213.25 L 66.89 204.88 L 71.37 185.98 L 75.85 185.98 L 80.33 180.94 L 84.81 152.59 L 89.29 159.97 L 93.77 158.89 L 98.25 158.17 L 102.73 139.63 L 107.21 139.63 L 111.69 157.18 L 116.17 154.66 L 120.66 154.39 L 125.14 151.60 L 129.62 150.97 L 134.10 150.70 L 138.58 149.80 L 143.06 149.80 L 147.54 147.46 L 152.02 144.94 L 156.50 144.76 L 160.98 140.71 L 165.46 134.23 L 169.95 134.23 L 174.43 133.69 L 178.91 133.69 L 183.39 133.69 L 187.87 133.69 L 192.35 133.69 L 196.83 133.69 L 201.31 132.97 L 205.79 132.97 L 210.27 132.97 L 214.75 132.97 L 219.23 132.97 L 223.72 132.97 L 228.20 132.97 L 232.68 132.97 L 237.16 132.97 L 241.64 132.97 L 246.12 132.97 L 250.60 132.97 L 255.08 132.97 L 259.56 132.97 L 264.04 132.97 L 268.52 132.97 L 273.01 132.97 L 277.49 132.97 L 281.97 132.97 L 286.45 132.97 L 290.93 132.97 L 295.41 132.97 L 299.89 132.97 L 304.37 132.97 L 308.85 132.97 L 313.33 132.97 L 317.81 132.97 L 322.30 132.97 L 326.78 132.97 L 331.26 132.97 L 335.74 132.97 L 340.22 132.97 L 344.70 132.97 L 349.18 132.97 L 353.66 132.97 L 358.14 132.97 L 362.62 132.97 L 367.10 132.97 L 371.58 132.97 L 376.07 132.97 L 380.55 132.97 L 385.03 132.97 L 389.51 132.97 L 393.99 132.97 L 398.47 132.97 L 402.95 132.97 L 407.43 132.97 L 411.91 132.97 L 416.39 132.97 L 420.87 132.97 L 425.36 132.97 L 429.84 132.97 L 434.32 132.97 L 438.80 132.97 L 443.28 132.97 L 447.76 132.97 L 452.24 132.97 L 456.72 132.97 L 461.20 132.97 L 465.68 132.97 L 470.16 132.97 L 474.64 132.97 L 479.13 132.97 L 483.61 132.97 L 488.09 132.97 L 492.57 132.97 L 497.05 132.97 L 501.53 132.97 L 506.01 132.97 L 510.49 132.97 L 514.97 132.97 L 519.45 132.97 L 523.93 132.97 L 528.42 132.97 L 532.90 132.97 L 537.38 132.97 L 541.86 132.97 L 546.34 132.97 L 550.82 132.97 L 555.30 132.97 L 559.78 132.97 L 564.26 132.97 L 568.74 132.97 L 573.22 132.97 L 577.70 132.97 L 582.19 132.97 L 586.67 132.97 L 591.15 132.97 L 595.63 132.97 L 600.11 132.97 L 604.59 132.97 L 609.07 132.97 L 613.55 132.97 L 618.03 132.97 L 622.51 132.97 L 626.99 132.97 L 631.48 132.97 L 635.96 132.97 L 640.44 132.97 L 644.92 132.97 L 649.40 132.97 L 653.88 132.97 L 658.36 132.97 L 662.84 132.97 L 667.32 132.97 L 671.80 132.97 L 676.28 132.97 L 680.77 132.97 L 685.25 132.97 L 689.73 132.97 L 694.21 132.97 L 698.69 132.97 L 703.17 132.97 L 707.65 132.97 L 712.13 132.97 L 716.61 132.97 L 721.09 132.97 L 725.57 124.51 L 730.05 120.64 L 734.54 116.77 L 739.02 112.90 L 743.50 109.03 L 747.98 105.97 L 752.46 105.97 L 756.94 105.97 L 761.42 105.97 L 765.90 105.97 L 770.38 105.79 L 774.86 103.09 L 779.34 98.41 L 783.83 98.41 L 788.31 98.41 L 792.79 98.41 L 797.27 98.41 L 801.75 98.41 L 806.23 98.41 L 810.71 98.41 L 815.19 98.41 L 819.67 98.41 L 824.15 98.41 L 828.63 98.41 L 833.11 98.41 L 837.60 98.41 L 842.08 98.41 L 846.56 98.41 L 851.04 98.41 L 855.52 98.41 L 860.00 98.41" fill="none" stroke="#111827" stroke-width="2"/>
    <circle cx="860.00" cy="98.41" r="3" fill="#111827"/>
    <text x="40.00" y="235.00" font-size="9" fill="#111827" text-anchor="middle" transform="rotate(-45 40.00 235.00)">09.08.2025</text><text x="120.66" y="235.00" font-size="9" fill="#111827" text-anchor="middle" transform="rotate(-45 120.66 235.00)">09.08.2025</text><text x="201.31" y="235.00" font-size="9" fill="#111827" text-anchor="middle" transform="rotate(-45 201.31 235.00)">13.08.2025</text><text x="281.97" y="235.00" font-size="9" fill="#111827" text-anchor="middle" transform="rotate(-45 281.97 235.00)">28.08.2025</text><text x="362.62" y="235.00" font-size="9" fill="#111827" text-anchor="middle" transform="rotate(-45 362.62 235.00)">15.09.2025</text><text x="443.28" y="235.00" font-size="9" fill="#111827" text-anchor="middle" transform="rotate(-45 443.28 235.00)">03.10.2025</text><text x="523.93" y="235.00" font-size="9" fill="#111827" text-anchor="middle" transform="rotate(-45 523.93 235.00)">21.10.2025</text><text x="604.59" y="235.00" font-size="9" fill="#111827" text-anchor="middle" transform="rotate(-45 604.59 235.00)">08.11.2025</text><text x="685.25" y="235.00" font-size="9" fill="#111827" text-anchor="middle" transform="rotate(-45 685.25 235.00)">26.11.2025</text><text x="765.90" y="235.00" font-size="9" fill="#111827" text-anchor="middle" transform="rotate(-45 765.90 235.00)">07.12.2025</text><text x="846.56" y="235.00" font-size="9" fill="#111827" text-anchor="middle" transform="rotate(-45 846.56 235.00)">22.12.2025</text>
  </g>
</svg>