<svg xmlns="http://www.w3.org/2000/svg" width="900" height="290" style="font-family: -apple-system, BlinkMacSystemFont, 'Segoe UI', Helvetica, Arial, sans-serif;">
  <rect width="100%" height="100%" fill="#0d1117"/>
  <g>
    <line x1="40" y1="220.00" x2="860" y2="220.00" stroke="#30363d"/><text x="32" y="224.00" font-size="10" fill="#c9d1d9" text-anchor="end">0</text><line x1="40" y1="175.00" x2="860" y2="175.00" stroke="#30363d"/><text x="32" y="179.00" font-size="10" fill="#c9d1d9" text-anchor="end">500</text><line x1="40" y1="130.00" x2="860" y2="130.00" stroke="#30363d"/><text x="32" y="134.00" font-size="10" fill="#c9d1d9" text-anchor="end">1k</text><line x1="40" y1="85.00" x2="860" y2="85.00" stroke="#30363d"/><text x="32" y="89.00" font-size="10" fill="#c9d1d9" text-anchor="end">1.5k</text><line x1="40" y1="40.00" x2="860" y2="40.00" stroke="#30363d"/><text x="32" y="44.00" font-size="10" fill="#c9d1d9" text-anchor="end">2k</text>
    <line x1="40.00" y1="40" x2="40.00" y2="220" stroke="#30363d" opacity="0.5"/><line x1="120.28" y1="40" x2="120.28" y2="220" stroke="#30363d" opacity="0.5"/><line x1="200.56" y1="40" x2="200.56" y2="220" stroke="#30363d" opacity="0.5"/><line x1="280.84" y1="40" x2="280.84" y2="220" stroke="#30363d" opacity="0.5"/><line x1="361.12" y1="40" x2="361.12" y2="220" stroke="#30363d" opacity="0.5"/><line x1="441.40" y1="40" x2="441.40" y2="220" stroke="#30363d" opacity="0.5"/><line x1="521.68" y1="40" x2="521.68" y2="220" stroke="#30363d" opacity="0.5"/><line x1="601.96" y1="40" x2="601.96" y2="220" stroke="#30363d" opacity="0.5"/><line x1="682.24" y1="40" x2="682.24" y2="220" stroke="#30363d" opacity="0.5"/><line x1="762.52" y1="40" x2="762.52" y2="220" stroke="#30363d" opacity="0.5"/><line x1="842.80" y1="40" x2="842.80" y2="220" stroke="#30363d" opacity="0.5"/>
    <line x1="40" y1="220" x2="860" y2="220" stroke="#30363d"/>
    <line x1="40" y1="40"   x2="40"   y2="220" stroke="#30363d"/>
    <path d="M 40.00 219.82 L 45.73 214.15 L 51.47 214.06 L 57.20 214.06 L 62.94 213.25 L 68.67 213.25 L 74.41 204.88 L 80.14 185.98 L 85.87 185.98 L 91.61 180.94 L 97.34 152.59 L 103.08 159.97 L 108.81 158.89 L 114.55 158.17 L 120.28 139.63 L 126.01 139.63 L 131.75 157.18 L 137.48 154.66 L 143.22 154.39 L 148.95 151.60 L 154.69 150.97 L 160.42 150.70 L 166.15 149.80 L 171.89 149.80 L 177.62 147.46 L 183.36 144.94 L 189.09 144.76 L 194.83 140.71 L 200.56 134.23 L 206.29 134.23 L 212.03 133.69 L 217.76 133.69 L 223.50 133.69 L 229.23 133.69 L 234.97 133.69 L 240.70 133.69 L 246.43 132.97 L 252.17 132.97 L 257.90 132.97 L 263.64 132.97 L 269.37 132.97 L 275.10 132.97 L 280.84 132.97 L 286.57 132.97 L 292.31 132.97 L 298.04 132.97 L 303.78 132.97 L 309.51 132.97 L 315.24 132.97 L 320.98 132.97 L 326.71 132.97 L 332.45 132.97 L 338.18 132.97 L 343.92 132.97 L 349.65 132.97 L 355.38 132.97 L 361.12 132.97 L 366.85 132.97 L 372.59 132.97 L 378.32 132.97 L 384.06 132.97 L 389.79 132.97 L 395.52 132.97 L 401.26 132.97 L 406.99 132.97 L 412.73 132.97 L 418.46 132.97 L 424.20 132.97 L 429.93 132.97 L 435.66 132.97 L 441.40 132.97 L 447.13 132.97 L 452.87 132.97 L 458.60 132.97 L 464.34 132.97 L 470.07 132.97 L 475.80 132.97 L 481.54 132.97 L 487.27 132.97 L 493.01 132.97 L 498.74 132.97 L 504.48 132.97 L 510.21 132.97 L 515.94 132.97 L 521.68 132.97 L 527.41 132.97 L 533.15 132.97 L 538.88 132.97 L 544.62 132.97 L 550.35 132.97 L 556.08 132.97 L 561.82 132.97 L 567.55 132.97 L 573.29 132.97 L 579.02 132.97 L 584.76 132.97 L 590.49 132.97 L 596.22 132.97 L 601.96 132.97 L 607.69 132.97 L 613.43 132.97 L 619.16 132.97 L 624.90 132.97 L 630.63 132.97 L 636.36 132.97 L 642.10 132.97 L 647.83 132.97 L 653.57 132.97 L 659.30 132.97 L 665.03 132.97 L 670.77 132.97 L 676.50 132.97 L 682.24 132.97 L 687.97 132.97 L 693.71 132.97 L 699.44 132.97 L 705.17 132.97 L 710.91 132.97 L 716.64 132.97 L 722.38 132.97 L 728.11 132.97 L 733.85 132.97 L 739.58 132.97 L 745.31 132.97 L 751.05 132.97 L 756.78 132.97 L 762.52 132.97 L 768.25 132.97 L 773.99 132.97 L 779.72 132.97 L 785.45 132.97 L 791.19 132.97 L 796.92 132.97 L 802.66 132.97 L 808.39 132.97 L 814.13 132.97 L 819.86 132.97 L 825.59 132.97 L 831.33 132.97 L 837.06 132.97 L 842.80 132.97 L 848.53 132.97 L 854.27 132.97 L 860.00 132.97" fill="none" stroke="#3fb950" stroke-width="2"/>
    <circle cx="860.00" cy="132.97" r="3" fill="#3fb950"/>
    <text x="40.00" y="235.00" font-size="9" fill="#c9d1d9" text-anchor="middle" transform="rotate(-45 40.00 235.00)">09.08.2025</text><text x="120.28" y="235.00" font-size="9" fill="#c9d1d9" text-anchor="middle" transform="rotate(-45 120.28 235.00)">09.08.2025</text><text x="200.56" y="235.00" font-size="9" fill="#c9d1d9" text-anchor="middle" transform="rotate(-45 200.56 235.00)">13.08.2025</text><text x="280.84" y="235.00" font-size="9" fill="#c9d1d9" text-anchor="middle" transform="rotate(-45 280.84 235.00)">18.08.2025</text><text x="361.12" y="235.00" font-size="9" fill="#c9d1d9" text-anchor="middle" transform="rotate(-45 361.12 235.00)">30.08.2025</text><text x="441.40" y="235.00" font-size="9" fill="#c9d1d9" text-anchor="middle" transform="rotate(-45 441.40 235.00)">13.09.2025</text><text x="521.68" y="235.00" font-size="9" fill="#c9d1d9" text-anchor="middle" transform="rotate(-45 521.68 235.00)">27.09.2025</text><text x="601.96" y="235.00" font-size="9" fill="#c9d1d9" text-anchor="middle" transform="rotate(-45 601.96 235.00)">11.10.2025</text><text x="682.24" y="235.00" font-size="9" fill="#c9d1d9" text-anchor="middle" transform="rotate(-45 682.24 235.00)">25.10.2025</text><text x="762.52" y="235.00" font-size="9" fill="#c9d1d9" text-anchor="middle" transform="rotate(-45 762.52 235.00)">08.11.2025</text><text x="842.80" y="235.00" font-size="9" fill="#c9d1d9" text-anchor="middle" transform="rotate(-45 842.80 235.00)">22.11.2025</text>
  </g>
</svg>