<svg xmlns="http://www.w3.org/2000/svg" width="900" height="290" style="font-family: -apple-system, BlinkMacSystemFont, 'Segoe UI', Helvetica, Arial, sans-serif;">
  <rect width="100%" height="100%" fill="white"/>
  <g>
    <line x1="40" y1="220.00" x2="860" y2="220.00" stroke="#e5e7eb"/><text x="32" y="224.00" font-size="10" fill="#111827" text-anchor="end">0</text><line x1="40" y1="175.00" x2="860" y2="175.00" stroke="#e5e7eb"/><text x="32" y="179.00" font-size="10" fill="#111827" text-anchor="end">500</text><line x1="40" y1="130.00" x2="860" y2="130.00" stroke="#e5e7eb"/><text x="32" y="134.00" font-size="10" fill="#111827" text-anchor="end">1k</text><line x1="40" y1="85.00" x2="860" y2="85.00" stroke="#e5e7eb"/><text x="32" y="89.00" font-size="10" fill="#111827" text-anchor="end">1.5k</text><line x1="40" y1="40.00" x2="860" y2="40.00" stroke="#e5e7eb"/><text x="32" y="44.00" font-size="10" fill="#111827" text-anchor="end">2k</text>
    <line x1="40.00" y1="40" x2="40.00" y2="220" stroke="#e5e7eb" opacity="0.5"/><line x1="121.29" y1="40" x2="121.29" y2="220" stroke="#e5e7eb" opacity="0.5"/><line x1="202.59" y1="40" x2="202.59" y2="220" stroke="#e5e7eb" opacity="0.5"/><line x1="283.88" y1="40" x2="283.88" y2="220" stroke="#e5e7eb" opacity="0.5"/><line x1="365.17" y1="40" x2="365.17" y2="220" stroke="#e5e7eb" opacity="0.5"/><line x1="446.47" y1="40" x2="446.47" y2="220" stroke="#e5e7eb" opacity="0.5"/><line x1="527.76" y1="40" x2="527.76" y2="220" stroke="#e5e7eb" opacity="0.5"/><line x1="609.05" y1="40" x2="609.05" y2="220" stroke="#e5e7eb" opacity="0.5"/><line x1="690.34" y1="40" x2="690.34" y2="220" stroke="#e5e7eb" opacity="0.5"/><line x1="771.64" y1="40" x2="771.64" y2="220" stroke="#e5e7eb" opacity="0.5"/><line x1="852.93" y1="40" x2="852.93" y2="220" stroke="#e5e7eb" opacity="0.5"/>
    <line x1="40" y1="220" x2="860" y2="220" stroke="#9ca3af"/>
    <line x1="40" y1="40"   x2="40"   y2="220" stroke="#9ca3af"/>
    <path d="M 40.00 219.82 L 43.53 214.15 L 47.07 214.06 L 50.60 214.06 L 54.14 213.25 L 57.67 213.25 L 61.21 204.88 L 64.74 185.98 L 68.28 185.98 L 71.81 180.94 L 75.34 152.59 L 78.88 159.97 L 82.41 158.89 L 85.95 158.17 L 89.48 139.63 L 93.02 139.63 L 96.55 157.18 L 100.09 154.66 L 103.62 154.39 L 107.16 151.60 L 110.69 150.97 L 114.22 150.70 L 117.76 149.80 L 121.29 149.80 L 124.83 147.46 L 128.36 144.94 L 131.90 144.76 L 135.43 140.71 L 138.97 134.23 L 142.50 134.23 L 146.03 133.69 L 149.57 133.69 L 153.10 133.69 L 156.64 133.69 L 160.17 133.69 L 163.71 133.69 L 167.24 132.97 L 170.78 132.97 L 174.31 132.97 L 177.84 132.97 L 181.38 132.97 L 184.91 132.97 L 188.45 132.97 L 191.98 132.97 L 195.52 132.97 L 199.05 132.97 L 202.59 132.97 L 206.12 132.97 L 209.66 132.97 L 213.19 132.97 L 216.72 132.97 L 220.26 132.97 L 223.79 132.97 L 227.33 132.97 L 230.86 132.97 L 234.40 132.97 L 237.93 132.97 L 241.47 132.97 L 245.00 132.97 L 248.53 132.97 L 252.07 132.97 L 255.60 132.97 L 259.14 132.97 L 262.67 132.97 L 266.21 132.97 L 269.74 132.97 L 273.28 132.97 L 276.81 132.97 L 280.34 132.97 L 283.88 132.97 L 287.41 132.97 L 290.95 132.97 L 294.48 132.97 L 298.02 132.97 L 301.55 132.97 L 305.09 132.97 L 308.62 132.97 L 312.16 132.97 L 315.69 132.97 L 319.22 132.97 L 322.76 132.97 L 326.29 132.97 L 329.83 132.97 L 333.36 132.97 L 336.90 132.97 L 340.43 132.97 L 343.97 132.97 L 347.50 132.97 L 351.03 132.97 L 354.57 132.97 L 358.10 132.97 L 361.64 132.97 L 365.17 132.97 L 368.71 132.97 L 372.24 132.97 L 375.78 132.97 L 379.31 132.97 L 382.84 132.97 L 386.38 132.97 L 389.91 132.97 L 393.45 132.97 L 396.98 132.97 L 400.52 132.97 L 404.05 132.97 L 407.59 132.97 L 411.12 132.97 L 414.66 132.97 L 418.19 132.97 L 421.72 132.97 L 425.26 132.97 L 428.79 132.97 L 432.33 132.97 L 435.86 132.97 L 439.40 132.97 L 442.93 132.97 L 446.47 132.97 L 450.00 132.97 L 453.53 132.97 L 457.07 132.97 L 460.60 132.97 L 464.14 132.97 L 467.67 132.97 L 471.21 132.97 L 474.74 132.97 L 478.28 132.97 L 481.81 132.97 L 485.34 132.97 L 488.88 132.97 L 492.41 132.97 L 495.95 132.97 L 499.48 132.97 L 503.02 132.97 L 506.55 132.97 L 510.09 132.97 L 513.62 132.97 L 517.16 132.97 L 520.69 132.97 L 524.22 132.97 L 527.76 132.97 L 531.29 132.97 L 534.83 132.97 L 538.36 132.97 L 541.90 132.97 L 545.43 132.97 L 548.97 132.97 L 552.50 132.97 L 556.03 132.97 L 559.57 132.97 L 563.10 132.97 L 566.64 132.97 L 570.17 132.97 L 573.71 132.97 L 577.24 132.97 L 580.78 124.51 L 584.31 120.64 L 587.84 116.77 L 591.38 112.90 L 594.91 109.03 L 598.45 105.97 L 601.98 105.97 L 605.52 105.97 L 609.05 105.97 L 612.59 105.97 L 616.12 105.79 L 619.66 103.09 L 623.19 98.41 L 626.72 98.41 L 630.26 98.41 L 633.79 98.41 L 637.33 98.41 L 640.86 98.41 L 644.40 98.41 L 647.93 98.41 L 651.47 98.41 L 655.00 98.41 L 658.53 98.41 L 662.07 98.41 L 665.60 98.41 L 669.14 98.41 L 672.67 98.41 L 676.21 98.41 L 679.74 98.41 L 683.28 98.41 L 686.81 98.41 L 690.34 98.41 L 693.88 98.41 L 697.41 98.41 L 700.95 98.41 L 704.48 98.41 L 708.02 98.41 L 711.55 98.41 L 715.09 98.41 L 718.62 98.41 L 722.16 98.41 L 725.69 98.41 L 729.22 98.41 L 732.76 98.41 L 736.29 98.41 L 739.83 98.41 L 743.36 98.41 L 746.90 98.41 L 750.43 98.41 L 753.97 98.41 L 757.50 98.41 L 761.03 98.41 L 764.57 98.41 L 768.10 98.41 L 771.64 98.41 L 775.17 98.41 L 778.71 98.41 L 782.24 98.41 L 785.78 98.41 L 789.31 98.41 L 792.84 98.41 L 796.38 98.41 L 799.91 98.41 L 803.45 98.41 L 806.98 98.41 L 810.52 98.41 L 814.05 98.41 L 817.59 98.41 L 821.12 98.41 L 824.66 98.41 L 828.19 98.41 L 831.72 98.41 L 835.26 98.41 L 838.79 98.41 L 842.33 98.41 L 845.86 98.41 L 849.40 98.41 L 852.93 98.41 L 856.47 98.41 L 860.00 98.41" fill="none" stroke="#111827" stroke-width="2"/>
    <circle cx="860.00" cy="98.41" r="3" fill="#111827"/>
    <text x="40.00" y="235.00" font-size="9" fill="#111827" text-anchor="middle" transform="rotate(-45 40.00 235.00)">09.08.2025</text><text x="121.29" y="235.00" font-size="9" fill="#111827" text-anchor="middle" transform="rotate(-45 121.29 235.00)">09.08.2025</text><text x="202.59" y="235.00" font-size="9" fill="#111827" text-anchor="middle" transform="rotate(-45 202.59 235.00)">22.08.2025</text><text x="283.88" y="235.00" font-size="9" fill="#111827" text-anchor="middle" transform="rotate(-45 283.88 235.00)">12.09.2025</text><text x="365.17" y="235.00" font-size="9" fill="#111827" text-anchor="middle" transform="rotate(-45 365.17 235.00)">05.10.2025</text><text x="446.47" y="235.00" font-size="9" fill="#111827" text-anchor="middle" transform="rotate(-45 446.47 235.00)">28.10.2025</text><text x="527.76" y="235.00" font-size="9" fill="#111827" text-anchor="middle" transform="rotate(-45 527.76 235.00)">20.11.2025</text><text x="609.05" y="235.00" font-size="9" fill="#111827" text-anchor="middle" transform="rotate(-45 609.05 235.00)">06.12.2025</text><text x="690.34" y="235.00" font-size="9" fill="#111827" text-anchor="middle" transform="rotate(-45 690.34 235.00)">26.12.2025</text><text x="771.64" y="235.00" font-size="9" fill="#111827" text-anchor="middle" transform="rotate(-45 771.64 235.00)">18.01.2026</text><text x="852.93" y="235.00" font-size="9" fill="#111827" text-anchor="middle" transform="rotate(-45 852.93 235.00)">10.02.2026</text>
  </g>
</svg>