<svg xmlns="http://www.w3.org/2000/svg" width="900" height="290" style="font-family: -apple-system, BlinkMacSystemFont, 'Segoe UI', Helvetica, Arial, sans-serif;">
  <rect width="100%" height="100%" fill="#0d1117"/>
  <g>
    <line x1="40" y1="220.00" x2="860" y2="220.00" stroke="#30363d"/><text x="32" y="224.00" font-size="10" fill="#c9d1d9" text-anchor="end">0</text><line x1="40" y1="175.00" x2="860" y2="175.00" stroke="#30363d"/><text x="32" y="179.00" font-size="10" fill="#c9d1d9" text-anchor="end">500</text><line x1="40" y1="130.00" x2="860" y2="130.00" stroke="#30363d"/><text x="32" y="134.00" font-size="10" fill="#c9d1d9" text-anchor="end">1k</text><line x1="40" y1="85.00" x2="860" y2="85.00" stroke="#30363d"/><text x="32" y="89.00" font-size="10" fill="#c9d1d9" text-anchor="end">1.5k</text><line x1="40" y1="40.00" x2="860" y2="40.00" stroke="#30363d"/><text x="32" y="44.00" font-size="10" fill="#c9d1d9" text-anchor="end">2k</text>
    <line x1="40.00" y1="40" x2="40.00" y2="220" stroke="#30363d" opacity="0.5"/><line x1="119.55" y1="40" x2="119.55" y2="220" stroke="#30363d" opacity="0.5"/><line x1="199.10" y1="40" x2="199.10" y2="220" stroke="#30363d" opacity="0.5"/><line x1="278.66" y1="40" x2="278.66" y2="220" stroke="#30363d" opacity="0.5"/><line x1="358.21" y1="40" x2="358.21" y2="220" stroke="#30363d" opacity="0.5"/><line x1="437.76" y1="40" x2="437.76" y2="220" stroke="#30363d" opacity="0.5"/><line x1="517.31" y1="40" x2="517.31" y2="220" stroke="#30363d" opacity="0.5"/><line x1="596.87" y1="40" x2="596.87" y2="220" stroke="#30363d" opacity="0.5"/><line x1="676.42" y1="40" x2="676.42" y2="220" stroke="#30363d" opacity="0.5"/><line x1="755.97" y1="40" x2="755.97" y2="220" stroke="#30363d" opacity="0.5"/><line x1="835.52" y1="40" x2="835.52" y2="220" stroke="#30363d" opacity="0.5"/>
    <line x1="40" y1="220" x2="860" y2="220" stroke="#30363d"/>
    <line x1="40" y1="40"   x2="40"   y2="220" stroke="#30363d"/>
    <path d="M 40.00 219.82 L 46.12 214.15 L 52.24 214.06 L 58.36 214.06 L 64.48 213.25 L 70.60 213.25 L 76.72 204.88 L 82.84 185.98 L 88.96 185.98 L 95.07 180.94 L 101.19 152.59 L 107.31 159.97 L 113.43 158.89 L 119.55 158.17 L 125.67 139.63 L 131.79 139.63 L 137.91 157.18 L 144.03 154.66 L 150.15 154.39 L 156.27 151.60 L 162.39 150.97 L 168.51 150.70 L 174.63 149.80 L 180.75 149.80 L 186.87 147.46 L 192.99 144.94 L 199.10 144.76 L 205.22 140.71 L 211.34 134.23 L 217.46 134.23 L 223.58 133.69 L 229.70 133.69 L 235.82 133.69 L 241.94 133.69 L 248.06 133.69 L 254.18 133.69 L 260.30 132.97 L 266.42 132.97 L 272.54 132.97 L 278.66 132.97 L 284.78 132.97 L 290.90 132.97 L 297.01 132.97 L 303.13 132.97 L 309.25 132.97 L 315.37 132.97 L 321.49 132.97 L 327.61 132.97 L 333.73 132.97 L 339.85 132.97 L 345.97 132.97 L 352.09 132.97 L 358.21 132.97 L 364.33 132.97 L 370.45 132.97 L 376.57 132.97 L 382.69 132.97 L 388.81 132.97 L 394.93 132.97 L 401.04 132.97 L 407.16 132.97 L 413.28 132.97 L 419.40 132.97 L 425.52 132.97 L 431.64 132.97 L 437.76 132.97 L 443.88 132.97 L 450.00 132.97 L 456.12 132.97 L 462.24 132.97 L 468.36 132.97 L 474.48 132.97 L 480.60 132.97 L 486.72 132.97 L 492.84 132.97 L 498.96 132.97 L 505.07 132.97 L 511.19 132.97 L 517.31 132.97 L 523.43 132.97 L 529.55 132.97 L 535.67 132.97 L 541.79 132.97 L 547.91 132.97 L 554.03 132.97 L 560.15 132.97 L 566.27 132.97 L 572.39 132.97 L 578.51 132.97 L 584.63 132.97 L 590.75 132.97 L 596.87 132.97 L 602.99 132.97 L 609.10 132.97 L 615.22 132.97 L 621.34 132.97 L 627.46 132.97 L 633.58 132.97 L 639.70 132.97 L 645.82 132.97 L 651.94 132.97 L 658.06 132.97 L 664.18 132.97 L 670.30 132.97 L 676.42 132.97 L 682.54 132.97 L 688.66 132.97 L 694.78 132.97 L 700.90 132.97 L 707.01 132.97 L 713.13 132.97 L 719.25 132.97 L 725.37 132.97 L 731.49 132.97 L 737.61 132.97 L 743.73 132.97 L 749.85 132.97 L 755.97 132.97 L 762.09 132.97 L 768.21 132.97 L 774.33 132.97 L 780.45 132.97 L 786.57 132.97 L 792.69 132.97 L 798.81 132.97 L 804.93 132.97 L 811.04 132.97 L 817.16 132.97 L 823.28 132.97 L 829.40 132.97 L 835.52 132.97 L 841.64 132.97 L 847.76 132.97 L 853.88 132.97 L 860.00 132.97" fill="none" stroke="#3fb950" stroke-width="2"/>
    <circle cx="860.00" cy="132.97" r="3" fill="#3fb950"/>
    <text x="40.00" y="235.00" font-size="9" fill="#c9d1d9" text-anchor="middle" transform="rotate(-45 40.00 235.00)">09.08.2025</text><text x="119.55" y="235.00" font-size="9" fill="#c9d1d9" text-anchor="middle" transform="rotate(-45 119.55 235.00)">09.08.2025</text><text x="199.10" y="235.00" font-size="9" fill="#c9d1d9" text-anchor="middle" transform="rotate(-45 199.10 235.00)">09.08.2025</text><text x="278.66" y="235.00" font-size="9" fill="#c9d1d9" text-anchor="middle" transform="rotate(-45 278.66 235.00)">15.08.2025</text><text x="358.21" y="235.00" font-size="9" fill="#c9d1d9" text-anchor="middle" transform="rotate(-45 358.21 235.00)">28.08.2025</text><text x="437.76" y="235.00" font-size="9" fill="#c9d1d9" text-anchor="middle" transform="rotate(-45 437.76 235.00)">08.09.2025</text><text x="517.31" y="235.00" font-size="9" fill="#c9d1d9" text-anchor="middle" transform="rotate(-45 517.31 235.00)">21.09.2025</text><text x="596.87" y="235.00" font-size="9" fill="#c9d1d9" text-anchor="middle" transform="rotate(-45 596.87 235.00)">04.10.2025</text><text x="676.42" y="235.00" font-size="9" fill="#c9d1d9" text-anchor="middle" transform="rotate(-45 676.42 235.00)">17.10.2025</text><text x="755.97" y="235.00" font-size="9" fill="#c9d1d9" text-anchor="middle" transform="rotate(-45 755.97 235.00)">30.10.2025</text><text x="835.52" y="235.00" font-size="9" fill="#c9d1d9" text-anchor="middle" transform="rotate(-45 835.52 235.00)">12.11.2025</text>
  </g>
</svg>