<svg xmlns="http://www.w3.org/2000/svg" width="900" height="290" style="font-family: -apple-system, BlinkMacSystemFont, 'Segoe UI', Helvetica, Arial, sans-serif;">
  <rect width="100%" height="100%" fill="#0d1117"/>
  <g>
    <line x1="40" y1="220.00" x2="860" y2="220.00" stroke="#30363d"/><text x="32" y="224.00" font-size="10" fill="#c9d1d9" text-anchor="end">0</text><line x1="40" y1="175.00" x2="860" y2="175.00" stroke="#30363d"/><text x="32" y="179.00" font-size="10" fill="#c9d1d9" text-anchor="end">500</text><line x1="40" y1="130.00" x2="860" y2="130.00" stroke="#30363d"/><text x="32" y="134.00" font-size="10" fill="#c9d1d9" text-anchor="end">1k</text><line x1="40" y1="85.00" x2="860" y2="85.00" stroke="#30363d"/><text x="32" y="89.00" font-size="10" fill="#c9d1d9" text-anchor="end">1.5k</text><line x1="40" y1="40.00" x2="860" y2="40.00" stroke="#30363d"/><text x="32" y="44.00" font-size="10" fill="#c9d1d9" text-anchor="end">2k</text>
    <line x1="40.00" y1="40" x2="40.00" y2="220" stroke="#30363d" opacity="0.5"/><line x1="121.66" y1="40" x2="121.66" y2="220" stroke="#30363d" opacity="0.5"/><line x1="203.32" y1="40" x2="203.32" y2="220" stroke="#30363d" opacity="0.5"/><line x1="284.98" y1="40" x2="284.98" y2="220" stroke="#30363d" opacity="0.5"/><line x1="366.64" y1="40" x2="366.64" y2="220" stroke="#30363d" opacity="0.5"/><line x1="448.30" y1="40" x2="448.30" y2="220" stroke="#30363d" opacity="0.5"/><line x1="529.96" y1="40" x2="529.96" y2="220" stroke="#30363d" opacity="0.5"/><line x1="611.62" y1="40" x2="611.62" y2="220" stroke="#30363d" opacity="0.5"/><line x1="693.28" y1="40" x2="693.28" y2="220" stroke="#30363d" opacity="0.5"/><line x1="774.94" y1="40" x2="774.94" y2="220" stroke="#30363d" opacity="0.5"/><line x1="856.60" y1="40" x2="856.60" y2="220" stroke="#30363d" opacity="0.5"/>
    <line x1="40" y1="220" x2="860" y2="220" stroke="#30363d"/>
    <line x1="40" y1="40"   x2="40"   y2="220" stroke="#30363d"/>
    <path d="M 40.00 219.82 L 43.40 214.15 L 46.80 214.06 L 50.21 214.06 L 53.61 213.25 L 57.01 213.25 L 60.41 204.88 L 63.82 185.98 L 67.22 185.98 L 70.62 180.94 L 74.02 152.59 L 77.43 159.97 L 80.83 158.89 L 84.23 158.17 L 87.63 139.63 L 91.04 139.63 L 94.44 157.18 L 97.84 154.66 L 101.24 154.39 L 104.65 151.60 L 108.05 150.97 L 111.45 150.70 L 114.85 149.80 L 118.26 149.80 L 121.66 147.46 L 125.06 144.94 L 128.46 144.76 L 131.87 140.71 L 135.27 134.23 L 138.67 134.23 L 142.07 133.69 L 145.48 133.69 L 148.88 133.69 L 152.28 133.69 L 155.68 133.69 L 159.09 133.69 L 162.49 132.97 L 165.89 132.97 L 169.29 132.97 L 172.70 132.97 L 176.10 132.97 L 179.50 132.97 L 182.90 132.97 L 186.31 132.97 L 189.71 132.97 L 193.11 132.97 L 196.51 132.97 L 199.92 132.97 L 203.32 132.97 L 206.72 132.97 L 210.12 132.97 L 213.53 132.97 L 216.93 132.97 L 220.33 132.97 L 223.73 132.97 L 227.14 132.97 L 230.54 132.97 L 233.94 132.97 L 237.34 132.97 L 240.75 132.97 L 244.15 132.97 L 247.55 132.97 L 250.95 132.97 L 254.36 132.97 L 257.76 132.97 L 261.16 132.97 L 264.56 132.97 L 267.97 132.97 L 271.37 132.97 L 274.77 132.97 L 278.17 132.97 L 281.58 132.97 L 284.98 132.97 L 288.38 132.97 L 291.78 132.97 L 295.19 132.97 L 298.59 132.97 L 301.99 132.97 L 305.39 132.97 L 308.80 132.97 L 312.20 132.97 L 315.60 132.97 L 319.00 132.97 L 322.41 132.97 L 325.81 132.97 L 329.21 132.97 L 332.61 132.97 L 336.02 132.97 L 339.42 132.97 L 342.82 132.97 L 346.22 132.97 L 349.63 132.97 L 353.03 132.97 L 356.43 132.97 L 359.83 132.97 L 363.24 132.97 L 366.64 132.97 L 370.04 132.97 L 373.44 132.97 L 376.85 132.97 L 380.25 132.97 L 383.65 132.97 L 387.05 132.97 L 390.46 132.97 L 393.86 132.97 L 397.26 132.97 L 400.66 132.97 L 404.07 132.97 L 407.47 132.97 L 410.87 132.97 L 414.27 132.97 L 417.68 132.97 L 421.08 132.97 L 424.48 132.97 L 427.88 132.97 L 431.29 132.97 L 434.69 132.97 L 438.09 132.97 L 441.49 132.97 L 444.90 132.97 L 448.30 132.97 L 451.70 132.97 L 455.10 132.97 L 458.51 132.97 L 461.91 132.97 L 465.31 132.97 L 468.71 132.97 L 472.12 132.97 L 475.52 132.97 L 478.92 132.97 L 482.32 132.97 L 485.73 132.97 L 489.13 132.97 L 492.53 132.97 L 495.93 132.97 L 499.34 132.97 L 502.74 132.97 L 506.14 132.97 L 509.54 132.97 L 512.95 132.97 L 516.35 132.97 L 519.75 132.97 L 523.15 132.97 L 526.56 132.97 L 529.96 132.97 L 533.36 132.97 L 536.76 132.97 L 540.17 132.97 L 543.57 132.97 L 546.97 132.97 L 550.37 132.97 L 553.78 132.97 L 557.18 132.97 L 560.58 124.51 L 563.98 120.64 L 567.39 116.77 L 570.79 112.90 L 574.19 109.03 L 577.59 105.97 L 581.00 105.97 L 584.40 105.97 L 587.80 105.97 L 591.20 105.97 L 594.61 105.79 L 598.01 103.09 L 601.41 98.41 L 604.81 98.41 L 608.22 98.41 L 611.62 98.41 L 615.02 98.41 L 618.42 98.41 L 621.83 98.41 L 625.23 98.41 L 628.63 98.41 L 632.03 98.41 L 635.44 98.41 L 638.84 98.41 L 642.24 98.41 L 645.64 98.41 L 649.05 98.41 L 652.45 98.41 L 655.85 98.41 L 659.25 98.41 L 662.66 98.41 L 666.06 98.41 L 669.46 98.41 L 672.86 98.41 L 676.27 98.41 L 679.67 98.41 L 683.07 98.41 L 686.47 98.41 L 689.88 98.41 L 693.28 98.41 L 696.68 98.41 L 700.08 98.41 L 703.49 98.41 L 706.89 98.41 L 710.29 98.41 L 713.69 98.41 L 717.10 98.41 L 720.50 98.41 L 723.90 98.41 L 727.30 98.41 L 730.71 98.41 L 734.11 98.41 L 737.51 98.41 L 740.91 98.41 L 744.32 98.41 L 747.72 98.41 L 751.12 98.41 L 754.52 98.41 L 757.93 98.41 L 761.33 98.41 L 764.73 98.41 L 768.13 98.41 L 771.54 98.41 L 774.94 98.41 L 778.34 98.41 L 781.74 98.41 L 785.15 98.41 L 788.55 98.41 L 791.95 98.41 L 795.35 98.41 L 798.76 98.41 L 802.16 98.41 L 805.56 98.41 L 808.96 98.41 L 812.37 98.41 L 815.77 98.41 L 819.17 98.41 L 822.57 98.41 L 825.98 98.41 L 829.38 98.41 L 832.78 98.41 L 836.18 98.41 L 839.59 98.41 L 842.99 98.41 L 846.39 98.41 L 849.79 98.41 L 853.20 98.41 L 856.60 98.41 L 860.00 98.41" fill="none" stroke="#3fb950" stroke-width="2"/>
    <circle cx="860.00" cy="98.41" r="3" fill="#3fb950"/>
    <text x="40.00" y="235.00" font-size="9" fill="#c9d1d9" text-anchor="middle" transform="rotate(-45 40.00 235.00)">09.08.2025</text><text x="121.66" y="235.00" font-size="9" fill="#c9d1d9" text-anchor="middle" transform="rotate(-45 121.66 235.00)">09.08.2025</text><text x="203.32" y="235.00" font-size="9" fill="#c9d1d9" text-anchor="middle" transform="rotate(-45 203.32 235.00)">24.08.2025</text><text x="284.98" y="235.00" font-size="9" fill="#c9d1d9" text-anchor="middle" transform="rotate(-45 284.98 235.00)">15.09.2025</text><text x="366.64" y="235.00" font-size="9" fill="#c9d1d9" text-anchor="middle" transform="rotate(-45 366.64 235.00)">09.10.2025</text><text x="448.30" y="235.00" font-size="9" fill="#c9d1d9" text-anchor="middle" transform="rotate(-45 448.30 235.00)">02.11.2025</text><text x="529.96" y="235.00" font-size="9" fill="#c9d1d9" text-anchor="middle" transform="rotate(-45 529.96 235.00)">26.11.2025</text><text x="611.62" y="235.00" font-size="9" fill="#c9d1d9" text-anchor="middle" transform="rotate(-45 611.62 235.00)">10.12.2025</text><text x="693.28" y="235.00" font-size="9" fill="#c9d1d9" text-anchor="middle" transform="rotate(-45 693.28 235.00)">03.01.2026</text><text x="774.94" y="235.00" font-size="9" fill="#c9d1d9" text-anchor="middle" transform="rotate(-45 774.94 235.00)">27.01.2026</text><text x="856.60" y="235.00" font-size="9" fill="#c9d1d9" text-anchor="middle" transform="rotate(-45 856.60 235.00)">20.02.2026</text>
  </g>
</svg>