<svg xmlns="http://www.w3.org/2000/svg" width="900" height="290" style="font-family: -apple-system, BlinkMacSystemFont, 'Segoe UI', Helvetica, Arial, sans-serif;">
  <rect width="100%" height="100%" fill="white"/>
  <g>
    <line x1="40" y1="220.00" x2="860" y2="220.00" stroke="#e5e7eb"/><text x="32" y="224.00" font-size="10" fill="#111827" text-anchor="end">0</text><line x1="40" y1="175.00" x2="860" y2="175.00" stroke="#e5e7eb"/><text x="32" y="179.00" font-size="10" fill="#111827" text-anchor="end">500</text><line x1="40" y1="130.00" x2="860" y2="130.00" stroke="#e5e7eb"/><text x="32" y="134.00" font-size="10" fill="#111827" text-anchor="end">1k</text><line x1="40" y1="85.00" x2="860" y2="85.00" stroke="#e5e7eb"/><text x="32" y="89.00" font-size="10" fill="#111827" text-anchor="end">1.5k</text><line x1="40" y1="40.00" x2="860" y2="40.00" stroke="#e5e7eb"/><text x="32" y="44.00" font-size="10" fill="#111827" text-anchor="end">2k</text>
    <line x1="40.00" y1="40" x2="40.00" y2="220" stroke="#e5e7eb" opacity="0.5"/><line x1="121.32" y1="40" x2="121.32" y2="220" stroke="#e5e7eb" opacity="0.5"/><line x1="202.64" y1="40" x2="202.64" y2="220" stroke="#e5e7eb" opacity="0.5"/><line x1="283.97" y1="40" x2="283.97" y2="220" stroke="#e5e7eb" opacity="0.5"/><line x1="365.29" y1="40" x2="365.29" y2="220" stroke="#e5e7eb" opacity="0.5"/><line x1="446.61" y1="40" x2="446.61" y2="220" stroke="#e5e7eb" opacity="0.5"/><line x1="527.93" y1="40" x2="527.93" y2="220" stroke="#e5e7eb" opacity="0.5"/><line x1="609.26" y1="40" x2="609.26" y2="220" stroke="#e5e7eb" opacity="0.5"/><line x1="690.58" y1="40" x2="690.58" y2="220" stroke="#e5e7eb" opacity="0.5"/><line x1="771.90" y1="40" x2="771.90" y2="220" stroke="#e5e7eb" opacity="0.5"/><line x1="853.22" y1="40" x2="853.22" y2="220" stroke="#e5e7eb" opacity="0.5"/>
    <line x1="40" y1="220" x2="860" y2="220" stroke="#9ca3af"/>
    <line x1="40" y1="40"   x2="40"   y2="220" stroke="#9ca3af"/>
    <path d="M 40.00 219.82 L 46.78 214.15 L 53.55 214.06 L 60.33 214.06 L 67.11 213.25 L 73.88 213.25 L 80.66 204.88 L 87.44 185.98 L 94.21 185.98 L 100.99 180.94 L 107.77 152.59 L 114.55 159.97 L 121.32 158.89 L 128.10 158.17 L 134.88 139.63 L 141.65 139.63 L 148.43 157.18 L 155.21 154.66 L 161.98 154.39 L 168.76 151.60 L 175.54 150.97 L 182.31 150.70 L 189.09 149.80 L 195.87 149.80 L 202.64 147.46 L 209.42 144.94 L 216.20 144.76 L 222.98 140.71 L 229.75 134.23 L 236.53 134.23 L 243.31 133.69 L 250.08 133.69 L 256.86 133.69 L 263.64 133.69 L 270.41 133.69 L 277.19 133.69 L 283.97 132.97 L 290.74 132.97 L 297.52 132.97 L 304.30 132.97 L 311.07 132.97 L 317.85 132.97 L 324.63 132.97 L 331.40 132.97 L 338.18 132.97 L 344.96 132.97 L 351.74 132.97 L 358.51 132.97 L 365.29 132.97 L 372.07 132.97 L 378.84 132.97 L 385.62 132.97 L 392.40 132.97 L 399.17 132.97 L 405.95 132.97 L 412.73 132.97 L 419.50 132.97 L 426.28 132.97 L 433.06 132.97 L 439.83 132.97 L 446.61 132.97 L 453.39 132.97 L 460.17 132.97 L 466.94 132.97 L 473.72 132.97 L 480.50 132.97 L 487.27 132.97 L 494.05 132.97 L 500.83 132.97 L 507.60 132.97 L 514.38 132.97 L 521.16 132.97 L 527.93 132.97 L 534.71 132.97 L 541.49 132.97 L 548.26 132.97 L 555.04 132.97 L 561.82 132.97 L 568.60 132.97 L 575.37 132.97 L 582.15 132.97 L 588.93 132.97 L 595.70 132.97 L 602.48 132.97 L 609.26 132.97 L 616.03 132.97 L 622.81 132.97 L 629.59 132.97 L 636.36 132.97 L 643.14 132.97 L 649.92 132.97 L 656.69 132.97 L 663.47 132.97 L 670.25 132.97 L 677.02 132.97 L 683.80 132.97 L 690.58 132.97 L 697.36 132.97 L 704.13 132.97 L 710.91 132.97 L 717.69 132.97 L 724.46 132.97 L 731.24 132.97 L 738.02 132.97 L 744.79 132.97 L 751.57 132.97 L 758.35 132.97 L 765.12 132.97 L 771.90 132.97 L 778.68 132.97 L 785.45 132.97 L 792.23 132.97 L 799.01 132.97 L 805.79 132.97 L 812.56 132.97 L 819.34 132.97 L 826.12 132.97 L 832.89 132.97 L 839.67 132.97 L 846.45 132.97 L 853.22 132.97 L 860.00 132.97" fill="none" stroke="#111827" stroke-width="2"/>
    <circle cx="860.00" cy="132.97" r="3" fill="#111827"/>
    <text x="40.00" y="235.00" font-size="9" fill="#111827" text-anchor="middle" transform="rotate(-45 40.00 235.00)">09.08.2025</text><text x="121.32" y="235.00" font-size="9" fill="#111827" text-anchor="middle" transform="rotate(-45 121.32 235.00)">09.08.2025</text><text x="202.64" y="235.00" font-size="9" fill="#111827" text-anchor="middle" transform="rotate(-45 202.64 235.00)">09.08.2025</text><text x="283.97" y="235.00" font-size="9" fill="#111827" text-anchor="middle" transform="rotate(-45 283.97 235.00)">13.08.2025</text><text x="365.29" y="235.00" font-size="9" fill="#111827" text-anchor="middle" transform="rotate(-45 365.29 235.00)">24.08.2025</text><text x="446.61" y="235.00" font-size="9" fill="#111827" text-anchor="middle" transform="rotate(-45 446.61 235.00)">03.09.2025</text><text x="527.93" y="235.00" font-size="9" fill="#111827" text-anchor="middle" transform="rotate(-45 527.93 235.00)">15.09.2025</text><text x="609.26" y="235.00" font-size="9" fill="#111827" text-anchor="middle" transform="rotate(-45 609.26 235.00)">27.09.2025</text><text x="690.58" y="235.00" font-size="9" fill="#111827" text-anchor="middle" transform="rotate(-45 690.58 235.00)">09.10.2025</text><text x="771.90" y="235.00" font-size="9" fill="#111827" text-anchor="middle" transform="rotate(-45 771.90 235.00)">21.10.2025</text><text x="853.22" y="235.00" font-size="9" fill="#111827" text-anchor="middle" transform="rotate(-45 853.22 235.00)">02.11.2025</text>
  </g>
</svg>