<svg xmlns="http://www.w3.org/2000/svg" width="900" height="290" style="font-family: -apple-system, BlinkMacSystemFont, 'Segoe UI', Helvetica, Arial, sans-serif;">
  <rect width="100%" height="100%" fill="white"/>
  <g>
    <line x1="40" y1="220.00" x2="860" y2="220.00" stroke="#e5e7eb"/><text x="32" y="224.00" font-size="10" fill="#111827" text-anchor="end">0</text><line x1="40" y1="175.00" x2="860" y2="175.00" stroke="#e5e7eb"/><text x="32" y="179.00" font-size="10" fill="#111827" text-anchor="end">500</text><line x1="40" y1="130.00" x2="860" y2="130.00" stroke="#e5e7eb"/><text x="32" y="134.00" font-size="10" fill="#111827" text-anchor="end">1k</text><line x1="40" y1="85.00" x2="860" y2="85.00" stroke="#e5e7eb"/><text x="32" y="89.00" font-size="10" fill="#111827" text-anchor="end">1.5k</text><line x1="40" y1="40.00" x2="860" y2="40.00" stroke="#e5e7eb"/><text x="32" y="44.00" font-size="10" fill="#111827" text-anchor="end">2k</text>
    <line x1="40.00" y1="40" x2="40.00" y2="220" stroke="#e5e7eb" opacity="0.5"/><line x1="122.69" y1="40" x2="122.69" y2="220" stroke="#e5e7eb" opacity="0.5"/><line x1="205.38" y1="40" x2="205.38" y2="220" stroke="#e5e7eb" opacity="0.5"/><line x1="288.07" y1="40" x2="288.07" y2="220" stroke="#e5e7eb" opacity="0.5"/><line x1="370.76" y1="40" x2="370.76" y2="220" stroke="#e5e7eb" opacity="0.5"/><line x1="453.45" y1="40" x2="453.45" y2="220" stroke="#e5e7eb" opacity="0.5"/><line x1="536.13" y1="40" x2="536.13" y2="220" stroke="#e5e7eb" opacity="0.5"/><line x1="618.82" y1="40" x2="618.82" y2="220" stroke="#e5e7eb" opacity="0.5"/><line x1="701.51" y1="40" x2="701.51" y2="220" stroke="#e5e7eb" opacity="0.5"/><line x1="784.20" y1="40" x2="784.20" y2="220" stroke="#e5e7eb" opacity="0.5"/>
    <line x1="40" y1="220" x2="860" y2="220" stroke="#9ca3af"/>
    <line x1="40" y1="40"   x2="40"   y2="220" stroke="#9ca3af"/>
    <path d="M 40.00 219.82 L 46.89 214.15 L 53.78 214.06 L 60.67 214.06 L 67.56 213.25 L 74.45 213.25 L 81.34 204.88 L 88.24 185.98 L 95.13 185.98 L 102.02 180.94 L 108.91 152.59 L 115.80 159.97 L 122.69 158.89 L 129.58 158.17 L 136.47 139.63 L 143.36 139.63 L 150.25 157.18 L 157.14 154.66 L 164.03 154.39 L 170.92 151.60 L 177.82 150.97 L 184.71 150.70 L 191.60 149.80 L 198.49 149.80 L 205.38 147.46 L 212.27 144.94 L 219.16 144.76 L 226.05 140.71 L 232.94 134.23 L 239.83 134.23 L 246.72 133.69 L 253.61 133.69 L 260.50 133.69 L 267.39 133.69 L 274.29 133.69 L 281.18 133.69 L 288.07 132.97 L 294.96 132.97 L 301.85 132.97 L 308.74 132.97 L 315.63 132.97 L 322.52 132.97 L 329.41 132.97 L 336.30 132.97 L 343.19 132.97 L 350.08 132.97 L 356.97 132.97 L 363.87 132.97 L 370.76 132.97 L 377.65 132.97 L 384.54 132.97 L 391.43 132.97 L 398.32 132.97 L 405.21 132.97 L 412.10 132.97 L 418.99 132.97 L 425.88 132.97 L 432.77 132.97 L 439.66 132.97 L 446.55 132.97 L 453.45 132.97 L 460.34 132.97 L 467.23 132.97 L 474.12 132.97 L 481.01 132.97 L 487.90 132.97 L 494.79 132.97 L 501.68 132.97 L 508.57 132.97 L 515.46 132.97 L 522.35 132.97 L 529.24 132.97 L 536.13 132.97 L 543.03 132.97 L 549.92 132.97 L 556.81 132.97 L 563.70 132.97 L 570.59 132.97 L 577.48 132.97 L 584.37 132.97 L 591.26 132.97 L 598.15 132.97 L 605.04 132.97 L 611.93 132.97 L 618.82 132.97 L 625.71 132.97 L 632.61 132.97 L 639.50 132.97 L 646.39 132.97 L 653.28 132.97 L 660.17 132.97 L 667.06 132.97 L 673.95 132.97 L 680.84 132.97 L 687.73 132.97 L 694.62 132.97 L 701.51 132.97 L 708.40 132.97 L 715.29 132.97 L 722.18 132.97 L 729.08 132.97 L 735.97 132.97 L 742.86 132.97 L 749.75 132.97 L 756.64 132.97 L 763.53 132.97 L 770.42 132.97 L 777.31 132.97 L 784.20 132.97 L 791.09 132.97 L 797.98 132.97 L 804.87 132.97 L 811.76 132.97 L 818.66 132.97 L 825.55 132.97 L 832.44 132.97 L 839.33 132.97 L 846.22 132.97 L 853.11 132.97 L 860.00 132.97" fill="none" stroke="#111827" stroke-width="2"/>
    <circle cx="860.00" cy="132.97" r="3" fill="#111827"/>
    <text x="40.00" y="235.00" font-size="9" fill="#111827" text-anchor="middle" transform="rotate(-45 40.00 235.00)">09.08.2025</text><text x="122.69" y="235.00" font-size="9" fill="#111827" text-anchor="middle" transform="rotate(-45 122.69 235.00)">09.08.2025</text><text x="205.38" y="235.00" font-size="9" fill="#111827" text-anchor="middle" transform="rotate(-45 205.38 235.00)">09.08.2025</text><text x="288.07" y="235.00" font-size="9" fill="#111827" text-anchor="middle" transform="rotate(-45 288.07 235.00)">13.08.2025</text><text x="370.76" y="235.00" font-size="9" fill="#111827" text-anchor="middle" transform="rotate(-45 370.76 235.00)">24.08.2025</text><text x="453.45" y="235.00" font-size="9" fill="#111827" text-anchor="middle" transform="rotate(-45 453.45 235.00)">03.09.2025</text><text x="536.13" y="235.00" font-size="9" fill="#111827" text-anchor="middle" transform="rotate(-45 536.13 235.00)">15.09.2025</text><text x="618.82" y="235.00" font-size="9" fill="#111827" text-anchor="middle" transform="rotate(-45 618.82 235.00)">27.09.2025</text><text x="701.51" y="235.00" font-size="9" fill="#111827" text-anchor="middle" transform="rotate(-45 701.51 235.00)">09.10.2025</text><text x="784.20" y="235.00" font-size="9" fill="#111827" text-anchor="middle" transform="rotate(-45 784.20 235.00)">21.10.2025</text>
  </g>
</svg>