<svg xmlns="http://www.w3.org/2000/svg" width="900" height="290" style="font-family: -apple-system, BlinkMacSystemFont, 'Segoe UI', Helvetica, Arial, sans-serif;">
  <rect width="100%" height="100%" fill="#0d1117"/>
  <g>
    <line x1="40" y1="220.00" x2="860" y2="220.00" stroke="#30363d"/><text x="32" y="224.00" font-size="10" fill="#c9d1d9" text-anchor="end">0</text><line x1="40" y1="175.00" x2="860" y2="175.00" stroke="#30363d"/><text x="32" y="179.00" font-size="10" fill="#c9d1d9" text-anchor="end">500</text><line x1="40" y1="130.00" x2="860" y2="130.00" stroke="#30363d"/><text x="32" y="134.00" font-size="10" fill="#c9d1d9" text-anchor="end">1k</text><line x1="40" y1="85.00" x2="860" y2="85.00" stroke="#30363d"/><text x="32" y="89.00" font-size="10" fill="#c9d1d9" text-anchor="end">1.5k</text><line x1="40" y1="40.00" x2="860" y2="40.00" stroke="#30363d"/><text x="32" y="44.00" font-size="10" fill="#c9d1d9" text-anchor="end">2k</text>
    <line x1="40.00" y1="40" x2="40.00" y2="220" stroke="#30363d" opacity="0.5"/><line x1="120.54" y1="40" x2="120.54" y2="220" stroke="#30363d" opacity="0.5"/><line x1="201.07" y1="40" x2="201.07" y2="220" stroke="#30363d" opacity="0.5"/><line x1="281.61" y1="40" x2="281.61" y2="220" stroke="#30363d" opacity="0.5"/><line x1="362.14" y1="40" x2="362.14" y2="220" stroke="#30363d" opacity="0.5"/><line x1="442.68" y1="40" x2="442.68" y2="220" stroke="#30363d" opacity="0.5"/><line x1="523.21" y1="40" x2="523.21" y2="220" stroke="#30363d" opacity="0.5"/><line x1="603.75" y1="40" x2="603.75" y2="220" stroke="#30363d" opacity="0.5"/><line x1="684.29" y1="40" x2="684.29" y2="220" stroke="#30363d" opacity="0.5"/><line x1="764.82" y1="40" x2="764.82" y2="220" stroke="#30363d" opacity="0.5"/><line x1="845.36" y1="40" x2="845.36" y2="220" stroke="#30363d" opacity="0.5"/>
    <line x1="40" y1="220" x2="860" y2="220" stroke="#30363d"/>
    <line x1="40" y1="40"   x2="40"   y2="220" stroke="#30363d"/>
    <path d="M 40.00 219.82 L 43.66 214.15 L 47.32 214.06 L 50.98 214.06 L 54.64 213.25 L 58.30 213.25 L 61.96 204.88 L 65.62 185.98 L 69.29 185.98 L 72.95 180.94 L 76.61 152.59 L 80.27 159.97 L 83.93 158.89 L 87.59 158.17 L 91.25 139.63 L 94.91 139.63 L 98.57 157.18 L 102.23 154.66 L 105.89 154.39 L 109.55 151.60 L 113.21 150.97 L 116.88 150.70 L 120.54 149.80 L 124.20 149.80 L 127.86 147.46 L 131.52 144.94 L 135.18 144.76 L 138.84 140.71 L 142.50 134.23 L 146.16 134.23 L 149.82 133.69 L 153.48 133.69 L 157.14 133.69 L 160.80 133.69 L 164.46 133.69 L 168.12 133.69 L 171.79 132.97 L 175.45 132.97 L 179.11 132.97 L 182.77 132.97 L 186.43 132.97 L 190.09 132.97 L 193.75 132.97 L 197.41 132.97 L 201.07 132.97 L 204.73 132.97 L 208.39 132.97 L 212.05 132.97 L 215.71 132.97 L 219.38 132.97 L 223.04 132.97 L 226.70 132.97 L 230.36 132.97 L 234.02 132.97 L 237.68 132.97 L 241.34 132.97 L 245.00 132.97 L 248.66 132.97 L 252.32 132.97 L 255.98 132.97 L 259.64 132.97 L 263.30 132.97 L 266.96 132.97 L 270.62 132.97 L 274.29 132.97 L 277.95 132.97 L 281.61 132.97 L 285.27 132.97 L 288.93 132.97 L 292.59 132.97 L 296.25 132.97 L 299.91 132.97 L 303.57 132.97 L 307.23 132.97 L 310.89 132.97 L 314.55 132.97 L 318.21 132.97 L 321.88 132.97 L 325.54 132.97 L 329.20 132.97 L 332.86 132.97 L 336.52 132.97 L 340.18 132.97 L 343.84 132.97 L 347.50 132.97 L 351.16 132.97 L 354.82 132.97 L 358.48 132.97 L 362.14 132.97 L 365.80 132.97 L 369.46 132.97 L 373.12 132.97 L 376.79 132.97 L 380.45 132.97 L 384.11 132.97 L 387.77 132.97 L 391.43 132.97 L 395.09 132.97 L 398.75 132.97 L 402.41 132.97 L 406.07 132.97 L 409.73 132.97 L 413.39 132.97 L 417.05 132.97 L 420.71 132.97 L 424.38 132.97 L 428.04 132.97 L 431.70 132.97 L 435.36 132.97 L 439.02 132.97 L 442.68 132.97 L 446.34 132.97 L 450.00 132.97 L 453.66 132.97 L 457.32 132.97 L 460.98 132.97 L 464.64 132.97 L 468.30 132.97 L 471.96 132.97 L 475.62 132.97 L 479.29 132.97 L 482.95 132.97 L 486.61 132.97 L 490.27 132.97 L 493.93 132.97 L 497.59 132.97 L 501.25 132.97 L 504.91 132.97 L 508.57 132.97 L 512.23 132.97 L 515.89 132.97 L 519.55 132.97 L 523.21 132.97 L 526.88 132.97 L 530.54 132.97 L 534.20 132.97 L 537.86 132.97 L 541.52 132.97 L 545.18 132.97 L 548.84 132.97 L 552.50 132.97 L 556.16 132.97 L 559.82 132.97 L 563.48 132.97 L 567.14 132.97 L 570.80 132.97 L 574.46 132.97 L 578.12 132.97 L 581.79 132.97 L 585.45 132.97 L 589.11 132.97 L 592.77 132.97 L 596.43 132.97 L 600.09 124.51 L 603.75 120.64 L 607.41 116.77 L 611.07 112.90 L 614.73 109.03 L 618.39 105.97 L 622.05 105.97 L 625.71 105.97 L 629.38 105.97 L 633.04 105.97 L 636.70 105.79 L 640.36 103.09 L 644.02 98.41 L 647.68 98.41 L 651.34 98.41 L 655.00 98.41 L 658.66 98.41 L 662.32 98.41 L 665.98 98.41 L 669.64 98.41 L 673.30 98.41 L 676.96 98.41 L 680.62 98.41 L 684.29 98.41 L 687.95 98.41 L 691.61 98.41 L 695.27 98.41 L 698.93 98.41 L 702.59 98.41 L 706.25 98.41 L 709.91 98.41 L 713.57 98.41 L 717.23 98.41 L 720.89 98.41 L 724.55 98.41 L 728.21 98.41 L 731.88 98.41 L 735.54 98.41 L 739.20 98.41 L 742.86 98.41 L 746.52 98.41 L 750.18 98.41 L 753.84 98.41 L 757.50 98.41 L 761.16 98.41 L 764.82 98.41 L 768.48 98.41 L 772.14 98.41 L 775.80 98.41 L 779.46 98.41 L 783.12 98.41 L 786.79 98.41 L 790.45 98.41 L 794.11 98.41 L 797.77 98.41 L 801.43 98.41 L 805.09 98.41 L 808.75 98.41 L 812.41 98.41 L 816.07 98.41 L 819.73 98.41 L 823.39 98.41 L 827.05 98.41 L 830.71 98.41 L 834.38 98.41 L 838.04 98.41 L 841.70 98.41 L 845.36 98.41 L 849.02 98.41 L 852.68 98.41 L 856.34 98.41 L 860.00 98.41" fill="none" stroke="#3fb950" stroke-width="2"/>
    <circle cx="860.00" cy="98.41" r="3" fill="#3fb950"/>
    <text x="40.00" y="235.00" font-size="9" fill="#c9d1d9" text-anchor="middle" transform="rotate(-45 40.00 235.00)">09.08.2025</text><text x="120.54" y="235.00" font-size="9" fill="#c9d1d9" text-anchor="middle" transform="rotate(-45 120.54 235.00)">09.08.2025</text><text x="201.07" y="235.00" font-size="9" fill="#c9d1d9" text-anchor="middle" transform="rotate(-45 201.07 235.00)">20.08.2025</text><text x="281.61" y="235.00" font-size="9" fill="#c9d1d9" text-anchor="middle" transform="rotate(-45 281.61 235.00)">09.09.2025</text><text x="362.14" y="235.00" font-size="9" fill="#c9d1d9" text-anchor="middle" transform="rotate(-45 362.14 235.00)">01.10.2025</text><text x="442.68" y="235.00" font-size="9" fill="#c9d1d9" text-anchor="middle" transform="rotate(-45 442.68 235.00)">23.10.2025</text><text x="523.21" y="235.00" font-size="9" fill="#c9d1d9" text-anchor="middle" transform="rotate(-45 523.21 235.00)">14.11.2025</text><text x="603.75" y="235.00" font-size="9" fill="#c9d1d9" text-anchor="middle" transform="rotate(-45 603.75 235.00)">04.12.2025</text><text x="684.29" y="235.00" font-size="9" fill="#c9d1d9" text-anchor="middle" transform="rotate(-45 684.29 235.00)">18.12.2025</text><text x="764.82" y="235.00" font-size="9" fill="#c9d1d9" text-anchor="middle" transform="rotate(-45 764.82 235.00)">09.01.2026</text><text x="845.36" y="235.00" font-size="9" fill="#c9d1d9" text-anchor="middle" transform="rotate(-45 845.36 235.00)">31.01.2026</text>
  </g>
</svg>