<svg xmlns="http://www.w3.org/2000/svg" width="900" height="290" style="font-family: -apple-system, BlinkMacSystemFont, 'Segoe UI', Helvetica, Arial, sans-serif;">
  <rect width="100%" height="100%" fill="white"/>
  <g>
    <line x1="40" y1="220.00" x2="860" y2="220.00" stroke="#e5e7eb"/><text x="32" y="224.00" font-size="10" fill="#111827" text-anchor="end">0</text><line x1="40" y1="175.00" x2="860" y2="175.00" stroke="#e5e7eb"/><text x="32" y="179.00" font-size="10" fill="#111827" text-anchor="end">500</text><line x1="40" y1="130.00" x2="860" y2="130.00" stroke="#e5e7eb"/><text x="32" y="134.00" font-size="10" fill="#111827" text-anchor="end">1k</text><line x1="40" y1="85.00" x2="860" y2="85.00" stroke="#e5e7eb"/><text x="32" y="89.00" font-size="10" fill="#111827" text-anchor="end">1.5k</text><line x1="40" y1="40.00" x2="860" y2="40.00" stroke="#e5e7eb"/><text x="32" y="44.00" font-size="10" fill="#111827" text-anchor="end">2k</text>
    <line x1="40.00" y1="40" x2="40.00" y2="220" stroke="#e5e7eb" opacity="0.5"/><line x1="120.31" y1="40" x2="120.31" y2="220" stroke="#e5e7eb" opacity="0.5"/><line x1="200.62" y1="40" x2="200.62" y2="220" stroke="#e5e7eb" opacity="0.5"/><line x1="280.93" y1="40" x2="280.93" y2="220" stroke="#e5e7eb" opacity="0.5"/><line x1="361.24" y1="40" x2="361.24" y2="220" stroke="#e5e7eb" opacity="0.5"/><line x1="441.55" y1="40" x2="441.55" y2="220" stroke="#e5e7eb" opacity="0.5"/><line x1="521.86" y1="40" x2="521.86" y2="220" stroke="#e5e7eb" opacity="0.5"/><line x1="602.16" y1="40" x2="602.16" y2="220" stroke="#e5e7eb" opacity="0.5"/><line x1="682.47" y1="40" x2="682.47" y2="220" stroke="#e5e7eb" opacity="0.5"/><line x1="762.78" y1="40" x2="762.78" y2="220" stroke="#e5e7eb" opacity="0.5"/><line x1="843.09" y1="40" x2="843.09" y2="220" stroke="#e5e7eb" opacity="0.5"/>
    <line x1="40" y1="220" x2="860" y2="220" stroke="#9ca3af"/>
    <line x1="40" y1="40"   x2="40"   y2="220" stroke="#9ca3af"/>
    <path d="M 40.00 219.82 L 44.23 214.15 L 48.45 214.06 L 52.68 214.06 L 56.91 213.25 L 61.13 213.25 L 65.36 204.88 L 69.59 185.98 L 73.81 185.98 L 78.04 180.94 L 82.27 152.59 L 86.49 159.97 L 90.72 158.89 L 94.95 158.17 L 99.18 139.63 L 103.40 139.63 L 107.63 157.18 L 111.86 154.66 L 116.08 154.39 L 120.31 151.60 L 124.54 150.97 L 128.76 150.70 L 132.99 149.80 L 137.22 149.80 L 141.44 147.46 L 145.67 144.94 L 149.90 144.76 L 154.12 140.71 L 158.35 134.23 L 162.58 134.23 L 166.80 133.69 L 171.03 133.69 L 175.26 133.69 L 179.48 133.69 L 183.71 133.69 L 187.94 133.69 L 192.16 132.97 L 196.39 132.97 L 200.62 132.97 L 204.85 132.97 L 209.07 132.97 L 213.30 132.97 L 217.53 132.97 L 221.75 132.97 L 225.98 132.97 L 230.21 132.97 L 234.43 132.97 L 238.66 132.97 L 242.89 132.97 L 247.11 132.97 L 251.34 132.97 L 255.57 132.97 L 259.79 132.97 L 264.02 132.97 L 268.25 132.97 L 272.47 132.97 L 276.70 132.97 L 280.93 132.97 L 285.15 132.97 L 289.38 132.97 L 293.61 132.97 L 297.84 132.97 L 302.06 132.97 L 306.29 132.97 L 310.52 132.97 L 314.74 132.97 L 318.97 132.97 L 323.20 132.97 L 327.42 132.97 L 331.65 132.97 L 335.88 132.97 L 340.10 132.97 L 344.33 132.97 L 348.56 132.97 L 352.78 132.97 L 357.01 132.97 L 361.24 132.97 L 365.46 132.97 L 369.69 132.97 L 373.92 132.97 L 378.14 132.97 L 382.37 132.97 L 386.60 132.97 L 390.82 132.97 L 395.05 132.97 L 399.28 132.97 L 403.51 132.97 L 407.73 132.97 L 411.96 132.97 L 416.19 132.97 L 420.41 132.97 L 424.64 132.97 L 428.87 132.97 L 433.09 132.97 L 437.32 132.97 L 441.55 132.97 L 445.77 132.97 L 450.00 132.97 L 454.23 132.97 L 458.45 132.97 L 462.68 132.97 L 466.91 132.97 L 471.13 132.97 L 475.36 132.97 L 479.59 132.97 L 483.81 132.97 L 488.04 132.97 L 492.27 132.97 L 496.49 132.97 L 500.72 132.97 L 504.95 132.97 L 509.18 132.97 L 513.40 132.97 L 517.63 132.97 L 521.86 132.97 L 526.08 132.97 L 530.31 132.97 L 534.54 132.97 L 538.76 132.97 L 542.99 132.97 L 547.22 132.97 L 551.44 132.97 L 555.67 132.97 L 559.90 132.97 L 564.12 132.97 L 568.35 132.97 L 572.58 132.97 L 576.80 132.97 L 581.03 132.97 L 585.26 132.97 L 589.48 132.97 L 593.71 132.97 L 597.94 132.97 L 602.16 132.97 L 606.39 132.97 L 610.62 132.97 L 614.85 132.97 L 619.07 132.97 L 623.30 132.97 L 627.53 132.97 L 631.75 132.97 L 635.98 132.97 L 640.21 132.97 L 644.43 132.97 L 648.66 132.97 L 652.89 132.97 L 657.11 132.97 L 661.34 132.97 L 665.57 132.97 L 669.79 132.97 L 674.02 132.97 L 678.25 132.97 L 682.47 132.97 L 686.70 124.51 L 690.93 120.64 L 695.15 116.77 L 699.38 112.90 L 703.61 109.03 L 707.84 105.97 L 712.06 105.97 L 716.29 105.97 L 720.52 105.97 L 724.74 105.97 L 728.97 105.79 L 733.20 103.09 L 737.42 98.41 L 741.65 98.41 L 745.88 98.41 L 750.10 98.41 L 754.33 98.41 L 758.56 98.41 L 762.78 98.41 L 767.01 98.41 L 771.24 98.41 L 775.46 98.41 L 779.69 98.41 L 783.92 98.41 L 788.14 98.41 L 792.37 98.41 L 796.60 98.41 L 800.82 98.41 L 805.05 98.41 L 809.28 98.41 L 813.51 98.41 L 817.73 98.41 L 821.96 98.41 L 826.19 98.41 L 830.41 98.41 L 834.64 98.41 L 838.87 98.41 L 843.09 98.41 L 847.32 98.41 L 851.55 98.41 L 855.77 98.41 L 860.00 98.41" fill="none" stroke="#111827" stroke-width="2"/>
    <circle cx="860.00" cy="98.41" r="3" fill="#111827"/>
    <text x="40.00" y="235.00" font-size="9" fill="#111827" text-anchor="middle" transform="rotate(-45 40.00 235.00)">09.08.2025</text><text x="120.31" y="235.00" font-size="9" fill="#111827" text-anchor="middle" transform="rotate(-45 120.31 235.00)">09.08.2025</text><text x="200.62" y="235.00" font-size="9" fill="#111827" text-anchor="middle" transform="rotate(-45 200.62 235.00)">14.08.2025</text><text x="280.93" y="235.00" font-size="9" fill="#111827" text-anchor="middle" transform="rotate(-45 280.93 235.00)">31.08.2025</text><text x="361.24" y="235.00" font-size="9" fill="#111827" text-anchor="middle" transform="rotate(-45 361.24 235.00)">19.09.2025</text><text x="441.55" y="235.00" font-size="9" fill="#111827" text-anchor="middle" transform="rotate(-45 441.55 235.00)">08.10.2025</text><text x="521.86" y="235.00" font-size="9" fill="#111827" text-anchor="middle" transform="rotate(-45 521.86 235.00)">27.10.2025</text><text x="602.16" y="235.00" font-size="9" fill="#111827" text-anchor="middle" transform="rotate(-45 602.16 235.00)">15.11.2025</text><text x="682.47" y="235.00" font-size="9" fill="#111827" text-anchor="middle" transform="rotate(-45 682.47 235.00)">04.12.2025</text><text x="762.78" y="235.00" font-size="9" fill="#111827" text-anchor="middle" transform="rotate(-45 762.78 235.00)">13.12.2025</text><text x="843.09" y="235.00" font-size="9" fill="#111827" text-anchor="middle" transform="rotate(-45 843.09 235.00)">01.01.2026</text>
  </g>
</svg>