<svg xmlns="http://www.w3.org/2000/svg" width="900" height="290" style="font-family: -apple-system, BlinkMacSystemFont, 'Segoe UI', Helvetica, Arial, sans-serif;">
  <rect width="100%" height="100%" fill="#0d1117"/>
  <g>
    <line x1="40" y1="220.00" x2="860" y2="220.00" stroke="#30363d"/><text x="32" y="224.00" font-size="10" fill="#c9d1d9" text-anchor="end">0</text><line x1="40" y1="175.00" x2="860" y2="175.00" stroke="#30363d"/><text x="32" y="179.00" font-size="10" fill="#c9d1d9" text-anchor="end">500</text><line x1="40" y1="130.00" x2="860" y2="130.00" stroke="#30363d"/><text x="32" y="134.00" font-size="10" fill="#c9d1d9" text-anchor="end">1k</text><line x1="40" y1="85.00" x2="860" y2="85.00" stroke="#30363d"/><text x="32" y="89.00" font-size="10" fill="#c9d1d9" text-anchor="end">1.5k</text><line x1="40" y1="40.00" x2="860" y2="40.00" stroke="#30363d"/><text x="32" y="44.00" font-size="10" fill="#c9d1d9" text-anchor="end">2k</text>
    <line x1="40.00" y1="40" x2="40.00" y2="220" stroke="#30363d" opacity="0.5"/><line x1="122.64" y1="40" x2="122.64" y2="220" stroke="#30363d" opacity="0.5"/><line x1="205.27" y1="40" x2="205.27" y2="220" stroke="#30363d" opacity="0.5"/><line x1="287.91" y1="40" x2="287.91" y2="220" stroke="#30363d" opacity="0.5"/><line x1="370.54" y1="40" x2="370.54" y2="220" stroke="#30363d" opacity="0.5"/><line x1="453.18" y1="40" x2="453.18" y2="220" stroke="#30363d" opacity="0.5"/><line x1="535.81" y1="40" x2="535.81" y2="220" stroke="#30363d" opacity="0.5"/><line x1="618.45" y1="40" x2="618.45" y2="220" stroke="#30363d" opacity="0.5"/><line x1="701.09" y1="40" x2="701.09" y2="220" stroke="#30363d" opacity="0.5"/><line x1="783.72" y1="40" x2="783.72" y2="220" stroke="#30363d" opacity="0.5"/>
    <line x1="40" y1="220" x2="860" y2="220" stroke="#30363d"/>
    <line x1="40" y1="40"   x2="40"   y2="220" stroke="#30363d"/>
    <path d="M 40.00 219.82 L 46.36 214.15 L 52.71 214.06 L 59.07 214.06 L 65.43 213.25 L 71.78 213.25 L 78.14 204.88 L 84.50 185.98 L 90.85 185.98 L 97.21 180.94 L 103.57 152.59 L 109.92 159.97 L 116.28 158.89 L 122.64 158.17 L 128.99 139.63 L 135.35 139.63 L 141.71 157.18 L 148.06 154.66 L 154.42 154.39 L 160.78 151.60 L 167.13 150.97 L 173.49 150.70 L 179.84 149.80 L 186.20 149.80 L 192.56 147.46 L 198.91 144.94 L 205.27 144.76 L 211.63 140.71 L 217.98 134.23 L 224.34 134.23 L 230.70 133.69 L 237.05 133.69 L 243.41 133.69 L 249.77 133.69 L 256.12 133.69 L 262.48 133.69 L 268.84 132.97 L 275.19 132.97 L 281.55 132.97 L 287.91 132.97 L 294.26 132.97 L 300.62 132.97 L 306.98 132.97 L 313.33 132.97 L 319.69 132.97 L 326.05 132.97 L 332.40 132.97 L 338.76 132.97 L 345.12 132.97 L 351.47 132.97 L 357.83 132.97 L 364.19 132.97 L 370.54 132.97 L 376.90 132.97 L 383.26 132.97 L 389.61 132.97 L 395.97 132.97 L 402.33 132.97 L 408.68 132.97 L 415.04 132.97 L 421.40 132.97 L 427.75 132.97 L 434.11 132.97 L 440.47 132.97 L 446.82 132.97 L 453.18 132.97 L 459.53 132.97 L 465.89 132.97 L 472.25 132.97 L 478.60 132.97 L 484.96 132.97 L 491.32 132.97 L 497.67 132.97 L 504.03 132.97 L 510.39 132.97 L 516.74 132.97 L 523.10 132.97 L 529.46 132.97 L 535.81 132.97 L 542.17 132.97 L 548.53 132.97 L 554.88 132.97 L 561.24 132.97 L 567.60 132.97 L 573.95 132.97 L 580.31 132.97 L 586.67 132.97 L 593.02 132.97 L 599.38 132.97 L 605.74 132.97 L 612.09 132.97 L 618.45 132.97 L 624.81 132.97 L 631.16 132.97 L 637.52 132.97 L 643.88 132.97 L 650.23 132.97 L 656.59 132.97 L 662.95 132.97 L 669.30 132.97 L 675.66 132.97 L 682.02 132.97 L 688.37 132.97 L 694.73 132.97 L 701.09 132.97 L 707.44 132.97 L 713.80 132.97 L 720.16 132.97 L 726.51 132.97 L 732.87 132.97 L 739.22 132.97 L 745.58 132.97 L 751.94 132.97 L 758.29 132.97 L 764.65 132.97 L 771.01 132.97 L 777.36 132.97 L 783.72 132.97 L 790.08 132.97 L 796.43 132.97 L 802.79 132.97 L 809.15 132.97 L 815.50 132.97 L 821.86 132.97 L 828.22 132.97 L 834.57 132.97 L 840.93 132.97 L 847.29 132.97 L 853.64 132.97 L 860.00 132.97" fill="none" stroke="#3fb950" stroke-width="2"/>
    <circle cx="860.00" cy="132.97" r="3" fill="#3fb950"/>
    <text x="40.00" y="235.00" font-size="9" fill="#c9d1d9" text-anchor="middle" transform="rotate(-45 40.00 235.00)">09.08.2025</text><text x="122.64" y="235.00" font-size="9" fill="#c9d1d9" text-anchor="middle" transform="rotate(-45 122.64 235.00)">09.08.2025</text><text x="205.27" y="235.00" font-size="9" fill="#c9d1d9" text-anchor="middle" transform="rotate(-45 205.27 235.00)">09.08.2025</text><text x="287.91" y="235.00" font-size="9" fill="#c9d1d9" text-anchor="middle" transform="rotate(-45 287.91 235.00)">15.08.2025</text><text x="370.54" y="235.00" font-size="9" fill="#c9d1d9" text-anchor="middle" transform="rotate(-45 370.54 235.00)">28.08.2025</text><text x="453.18" y="235.00" font-size="9" fill="#c9d1d9" text-anchor="middle" transform="rotate(-45 453.18 235.00)">08.09.2025</text><text x="535.81" y="235.00" font-size="9" fill="#c9d1d9" text-anchor="middle" transform="rotate(-45 535.81 235.00)">21.09.2025</text><text x="618.45" y="235.00" font-size="9" fill="#c9d1d9" text-anchor="middle" transform="rotate(-45 618.45 235.00)">04.10.2025</text><text x="701.09" y="235.00" font-size="9" fill="#c9d1d9" text-anchor="middle" transform="rotate(-45 701.09 235.00)">17.10.2025</text><text x="783.72" y="235.00" font-size="9" fill="#c9d1d9" text-anchor="middle" transform="rotate(-45 783.72 235.00)">30.10.2025</text>
  </g>
</svg>