<svg xmlns="http://www.w3.org/2000/svg" width="900" height="290" style="font-family: -apple-system, BlinkMacSystemFont, 'Segoe UI', Helvetica, Arial, sans-serif;">
  <rect width="100%" height="100%" fill="white"/>
  <g>
    <line x1="40" y1="220.00" x2="860" y2="220.00" stroke="#e5e7eb"/><text x="32" y="224.00" font-size="10" fill="#111827" text-anchor="end">0</text><line x1="40" y1="175.00" x2="860" y2="175.00" stroke="#e5e7eb"/><text x="32" y="179.00" font-size="10" fill="#111827" text-anchor="end">500</text><line x1="40" y1="130.00" x2="860" y2="130.00" stroke="#e5e7eb"/><text x="32" y="134.00" font-size="10" fill="#111827" text-anchor="end">1k</text><line x1="40" y1="85.00" x2="860" y2="85.00" stroke="#e5e7eb"/><text x="32" y="89.00" font-size="10" fill="#111827" text-anchor="end">1.5k</text><line x1="40" y1="40.00" x2="860" y2="40.00" stroke="#e5e7eb"/><text x="32" y="44.00" font-size="10" fill="#111827" text-anchor="end">2k</text>
    <line x1="40.00" y1="40" x2="40.00" y2="220" stroke="#e5e7eb" opacity="0.5"/><line x1="118.10" y1="40" x2="118.10" y2="220" stroke="#e5e7eb" opacity="0.5"/><line x1="196.19" y1="40" x2="196.19" y2="220" stroke="#e5e7eb" opacity="0.5"/><line x1="274.29" y1="40" x2="274.29" y2="220" stroke="#e5e7eb" opacity="0.5"/><line x1="352.38" y1="40" x2="352.38" y2="220" stroke="#e5e7eb" opacity="0.5"/><line x1="430.48" y1="40" x2="430.48" y2="220" stroke="#e5e7eb" opacity="0.5"/><line x1="508.57" y1="40" x2="508.57" y2="220" stroke="#e5e7eb" opacity="0.5"/><line x1="586.67" y1="40" x2="586.67" y2="220" stroke="#e5e7eb" opacity="0.5"/><line x1="664.76" y1="40" x2="664.76" y2="220" stroke="#e5e7eb" opacity="0.5"/><line x1="742.86" y1="40" x2="742.86" y2="220" stroke="#e5e7eb" opacity="0.5"/><line x1="820.95" y1="40" x2="820.95" y2="220" stroke="#e5e7eb" opacity="0.5"/>
    <line x1="40" y1="220" x2="860" y2="220" stroke="#9ca3af"/>
    <line x1="40" y1="40"   x2="40"   y2="220" stroke="#9ca3af"/>
    <path d="M 40.00 219.82 L 44.88 214.15 L 49.76 214.06 L 54.64 214.06 L 59.52 213.25 L 64.40 213.25 L 69.29 204.88 L 74.17 185.98 L 79.05 185.98 L 83.93 180.94 L 88.81 152.59 L 93.69 159.97 L 98.57 158.89 L 103.45 158.17 L 108.33 139.63 L 113.21 139.63 L 118.10 157.18 L 122.98 154.66 L 127.86 154.39 L 132.74 151.60 L 137.62 150.97 L 142.50 150.70 L 147.38 149.80 L 152.26 149.80 L 157.14 147.46 L 162.02 144.94 L 166.90 144.76 L 171.79 140.71 L 176.67 134.23 L 181.55 134.23 L 186.43 133.69 L 191.31 133.69 L 196.19 133.69 L 201.07 133.69 L 205.95 133.69 L 210.83 133.69 L 215.71 132.97 L 220.60 132.97 L 225.48 132.97 L 230.36 132.97 L 235.24 132.97 L 240.12 132.97 L 245.00 132.97 L 249.88 132.97 L 254.76 132.97 L 259.64 132.97 L 264.52 132.97 L 269.40 132.97 L 274.29 132.97 L 279.17 132.97 L 284.05 132.97 L 288.93 132.97 L 293.81 132.97 L 298.69 132.97 L 303.57 132.97 L 308.45 132.97 L 313.33 132.97 L 318.21 132.97 L 323.10 132.97 L 327.98 132.97 L 332.86 132.97 L 337.74 132.97 L 342.62 132.97 L 347.50 132.97 L 352.38 132.97 L 357.26 132.97 L 362.14 132.97 L 367.02 132.97 L 371.90 132.97 L 376.79 132.97 L 381.67 132.97 L 386.55 132.97 L 391.43 132.97 L 396.31 132.97 L 401.19 132.97 L 406.07 132.97 L 410.95 132.97 L 415.83 132.97 L 420.71 132.97 L 425.60 132.97 L 430.48 132.97 L 435.36 132.97 L 440.24 132.97 L 445.12 132.97 L 450.00 132.97 L 454.88 132.97 L 459.76 132.97 L 464.64 132.97 L 469.52 132.97 L 474.40 132.97 L 479.29 132.97 L 484.17 132.97 L 489.05 132.97 L 493.93 132.97 L 498.81 132.97 L 503.69 132.97 L 508.57 132.97 L 513.45 132.97 L 518.33 132.97 L 523.21 132.97 L 528.10 132.97 L 532.98 132.97 L 537.86 132.97 L 542.74 132.97 L 547.62 132.97 L 552.50 132.97 L 557.38 132.97 L 562.26 132.97 L 567.14 132.97 L 572.02 132.97 L 576.90 132.97 L 581.79 132.97 L 586.67 132.97 L 591.55 132.97 L 596.43 132.97 L 601.31 132.97 L 606.19 132.97 L 611.07 132.97 L 615.95 132.97 L 620.83 132.97 L 625.71 132.97 L 630.60 132.97 L 635.48 132.97 L 640.36 132.97 L 645.24 132.97 L 650.12 132.97 L 655.00 132.97 L 659.88 132.97 L 664.76 132.97 L 669.64 132.97 L 674.52 132.97 L 679.40 132.97 L 684.29 132.97 L 689.17 132.97 L 694.05 132.97 L 698.93 132.97 L 703.81 132.97 L 708.69 132.97 L 713.57 132.97 L 718.45 132.97 L 723.33 132.97 L 728.21 132.97 L 733.10 132.97 L 737.98 132.97 L 742.86 132.97 L 747.74 132.97 L 752.62 132.97 L 757.50 132.97 L 762.38 132.97 L 767.26 132.97 L 772.14 132.97 L 777.02 132.97 L 781.90 132.97 L 786.79 124.51 L 791.67 120.64 L 796.55 116.77 L 801.43 112.90 L 806.31 109.03 L 811.19 105.97 L 816.07 105.97 L 820.95 105.97 L 825.83 105.97 L 830.71 105.97 L 835.60 105.79 L 840.48 103.09 L 845.36 98.41 L 850.24 98.41 L 855.12 98.41 L 860.00 98.41" fill="none" stroke="#111827" stroke-width="2"/>
    <circle cx="860.00" cy="98.41" r="3" fill="#111827"/>
    <text x="40.00" y="235.00" font-size="9" fill="#111827" text-anchor="middle" transform="rotate(-45 40.00 235.00)">09.08.2025</text><text x="118.10" y="235.00" font-size="9" fill="#111827" text-anchor="middle" transform="rotate(-45 118.10 235.00)">09.08.2025</text><text x="196.19" y="235.00" font-size="9" fill="#111827" text-anchor="middle" transform="rotate(-45 196.19 235.00)">13.08.2025</text><text x="274.29" y="235.00" font-size="9" fill="#111827" text-anchor="middle" transform="rotate(-45 274.29 235.00)">24.08.2025</text><text x="352.38" y="235.00" font-size="9" fill="#111827" text-anchor="middle" transform="rotate(-45 352.38 235.00)">07.09.2025</text><text x="430.48" y="235.00" font-size="9" fill="#111827" text-anchor="middle" transform="rotate(-45 430.48 235.00)">23.09.2025</text><text x="508.57" y="235.00" font-size="9" fill="#111827" text-anchor="middle" transform="rotate(-45 508.57 235.00)">09.10.2025</text><text x="586.67" y="235.00" font-size="9" fill="#111827" text-anchor="middle" transform="rotate(-45 586.67 235.00)">25.10.2025</text><text x="664.76" y="235.00" font-size="9" fill="#111827" text-anchor="middle" transform="rotate(-45 664.76 235.00)">10.11.2025</text><text x="742.86" y="235.00" font-size="9" fill="#111827" text-anchor="middle" transform="rotate(-45 742.86 235.00)">26.11.2025</text><text x="820.95" y="235.00" font-size="9" fill="#111827" text-anchor="middle" transform="rotate(-45 820.95 235.00)">05.12.2025</text>
  </g>
</svg>