<svg xmlns="http://www.w3.org/2000/svg" width="900" height="290" style="font-family: -apple-system, BlinkMacSystemFont, 'Segoe UI', Helvetica, Arial, sans-serif;">
  <rect width="100%" height="100%" fill="white"/>
  <g>
    <line x1="40" y1="220.00" x2="860" y2="220.00" stroke="#e5e7eb"/><text x="32" y="224.00" font-size="10" fill="#111827" text-anchor="end">0</text><line x1="40" y1="175.00" x2="860" y2="175.00" stroke="#e5e7eb"/><text x="32" y="179.00" font-size="10" fill="#111827" text-anchor="end">500</text><line x1="40" y1="130.00" x2="860" y2="130.00" stroke="#e5e7eb"/><text x="32" y="134.00" font-size="10" fill="#111827" text-anchor="end">1k</text><line x1="40" y1="85.00" x2="860" y2="85.00" stroke="#e5e7eb"/><text x="32" y="89.00" font-size="10" fill="#111827" text-anchor="end">1.5k</text><line x1="40" y1="40.00" x2="860" y2="40.00" stroke="#e5e7eb"/><text x="32" y="44.00" font-size="10" fill="#111827" text-anchor="end">2k</text>
    <line x1="40.00" y1="40" x2="40.00" y2="220" stroke="#e5e7eb" opacity="0.5"/><line x1="120.60" y1="40" x2="120.60" y2="220" stroke="#e5e7eb" opacity="0.5"/><line x1="201.20" y1="40" x2="201.20" y2="220" stroke="#e5e7eb" opacity="0.5"/><line x1="281.79" y1="40" x2="281.79" y2="220" stroke="#e5e7eb" opacity="0.5"/><line x1="362.39" y1="40" x2="362.39" y2="220" stroke="#e5e7eb" opacity="0.5"/><line x1="442.99" y1="40" x2="442.99" y2="220" stroke="#e5e7eb" opacity="0.5"/><line x1="523.59" y1="40" x2="523.59" y2="220" stroke="#e5e7eb" opacity="0.5"/><line x1="604.19" y1="40" x2="604.19" y2="220" stroke="#e5e7eb" opacity="0.5"/><line x1="684.79" y1="40" x2="684.79" y2="220" stroke="#e5e7eb" opacity="0.5"/><line x1="765.38" y1="40" x2="765.38" y2="220" stroke="#e5e7eb" opacity="0.5"/><line x1="845.98" y1="40" x2="845.98" y2="220" stroke="#e5e7eb" opacity="0.5"/>
    <line x1="40" y1="220" x2="860" y2="220" stroke="#9ca3af"/>
    <line x1="40" y1="40"   x2="40"   y2="220" stroke="#9ca3af"/>
    <path d="M 40.00 219.82 L 43.50 214.15 L 47.01 214.06 L 50.51 214.06 L 54.02 213.25 L 57.52 213.25 L 61.03 204.88 L 64.53 185.98 L 68.03 185.98 L 71.54 180.94 L 75.04 152.59 L 78.55 159.97 L 82.05 158.89 L 85.56 158.17 L 89.06 139.63 L 92.56 139.63 L 96.07 157.18 L 99.57 154.66 L 103.08 154.39 L 106.58 151.60 L 110.09 150.97 L 113.59 150.70 L 117.09 149.80 L 120.60 149.80 L 124.10 147.46 L 127.61 144.94 L 131.11 144.76 L 134.62 140.71 L 138.12 134.23 L 141.62 134.23 L 145.13 133.69 L 148.63 133.69 L 152.14 133.69 L 155.64 133.69 L 159.15 133.69 L 162.65 133.69 L 166.15 132.97 L 169.66 132.97 L 173.16 132.97 L 176.67 132.97 L 180.17 132.97 L 183.68 132.97 L 187.18 132.97 L 190.68 132.97 L 194.19 132.97 L 197.69 132.97 L 201.20 132.97 L 204.70 132.97 L 208.21 132.97 L 211.71 132.97 L 215.21 132.97 L 218.72 132.97 L 222.22 132.97 L 225.73 132.97 L 229.23 132.97 L 232.74 132.97 L 236.24 132.97 L 239.74 132.97 L 243.25 132.97 L 246.75 132.97 L 250.26 132.97 L 253.76 132.97 L 257.26 132.97 L 260.77 132.97 L 264.27 132.97 L 267.78 132.97 L 271.28 132.97 L 274.79 132.97 L 278.29 132.97 L 281.79 132.97 L 285.30 132.97 L 288.80 132.97 L 292.31 132.97 L 295.81 132.97 L 299.32 132.97 L 302.82 132.97 L 306.32 132.97 L 309.83 132.97 L 313.33 132.97 L 316.84 132.97 L 320.34 132.97 L 323.85 132.97 L 327.35 132.97 L 330.85 132.97 L 334.36 132.97 L 337.86 132.97 L 341.37 132.97 L 344.87 132.97 L 348.38 132.97 L 351.88 132.97 L 355.38 132.97 L 358.89 132.97 L 362.39 132.97 L 365.90 132.97 L 369.40 132.97 L 372.91 132.97 L 376.41 132.97 L 379.91 132.97 L 383.42 132.97 L 386.92 132.97 L 390.43 132.97 L 393.93 132.97 L 397.44 132.97 L 400.94 132.97 L 404.44 132.97 L 407.95 132.97 L 411.45 132.97 L 414.96 132.97 L 418.46 132.97 L 421.97 132.97 L 425.47 132.97 L 428.97 132.97 L 432.48 132.97 L 435.98 132.97 L 439.49 132.97 L 442.99 132.97 L 446.50 132.97 L 450.00 132.97 L 453.50 132.97 L 457.01 132.97 L 460.51 132.97 L 464.02 132.97 L 467.52 132.97 L 471.03 132.97 L 474.53 132.97 L 478.03 132.97 L 481.54 132.97 L 485.04 132.97 L 488.55 132.97 L 492.05 132.97 L 495.56 132.97 L 499.06 132.97 L 502.56 132.97 L 506.07 132.97 L 509.57 132.97 L 513.08 132.97 L 516.58 132.97 L 520.09 132.97 L 523.59 132.97 L 527.09 132.97 L 530.60 132.97 L 534.10 132.97 L 537.61 132.97 L 541.11 132.97 L 544.62 132.97 L 548.12 132.97 L 551.62 132.97 L 555.13 132.97 L 558.63 132.97 L 562.14 132.97 L 565.64 132.97 L 569.15 132.97 L 572.65 132.97 L 576.15 124.51 L 579.66 120.64 L 583.16 116.77 L 586.67 112.90 L 590.17 109.03 L 593.68 105.97 L 597.18 105.97 L 600.68 105.97 L 604.19 105.97 L 607.69 105.97 L 611.20 105.79 L 614.70 103.09 L 618.21 98.41 L 621.71 98.41 L 625.21 98.41 L 628.72 98.41 L 632.22 98.41 L 635.73 98.41 L 639.23 98.41 L 642.74 98.41 L 646.24 98.41 L 649.74 98.41 L 653.25 98.41 L 656.75 98.41 L 660.26 98.41 L 663.76 98.41 L 667.26 98.41 L 670.77 98.41 L 674.27 98.41 L 677.78 98.41 L 681.28 98.41 L 684.79 98.41 L 688.29 98.41 L 691.79 98.41 L 695.30 98.41 L 698.80 98.41 L 702.31 98.41 L 705.81 98.41 L 709.32 98.41 L 712.82 98.41 L 716.32 98.41 L 719.83 98.41 L 723.33 98.41 L 726.84 98.41 L 730.34 98.41 L 733.85 98.41 L 737.35 98.41 L 740.85 98.41 L 744.36 98.41 L 747.86 98.41 L 751.37 98.41 L 754.87 98.41 L 758.38 98.41 L 761.88 98.41 L 765.38 98.41 L 768.89 98.41 L 772.39 98.41 L 775.90 98.41 L 779.40 98.41 L 782.91 98.41 L 786.41 98.41 L 789.91 98.41 L 793.42 98.41 L 796.92 98.41 L 800.43 98.41 L 803.93 98.41 L 807.44 98.41 L 810.94 98.41 L 814.44 98.41 L 817.95 98.41 L 821.45 98.41 L 824.96 98.41 L 828.46 98.41 L 831.97 98.41 L 835.47 98.41 L 838.97 98.41 L 842.48 98.41 L 845.98 98.41 L 849.49 98.41 L 852.99 98.41 L 856.50 98.41 L 860.00 98.41" fill="none" stroke="#111827" stroke-width="2"/>
    <circle cx="860.00" cy="98.41" r="3" fill="#111827"/>
    <text x="40.00" y="235.00" font-size="9" fill="#111827" text-anchor="middle" transform="rotate(-45 40.00 235.00)">09.08.2025</text><text x="120.60" y="235.00" font-size="9" fill="#111827" text-anchor="middle" transform="rotate(-45 120.60 235.00)">09.08.2025</text><text x="201.20" y="235.00" font-size="9" fill="#111827" text-anchor="middle" transform="rotate(-45 201.20 235.00)">22.08.2025</text><text x="281.79" y="235.00" font-size="9" fill="#111827" text-anchor="middle" transform="rotate(-45 281.79 235.00)">12.09.2025</text><text x="362.39" y="235.00" font-size="9" fill="#111827" text-anchor="middle" transform="rotate(-45 362.39 235.00)">05.10.2025</text><text x="442.99" y="235.00" font-size="9" fill="#111827" text-anchor="middle" transform="rotate(-45 442.99 235.00)">28.10.2025</text><text x="523.59" y="235.00" font-size="9" fill="#111827" text-anchor="middle" transform="rotate(-45 523.59 235.00)">20.11.2025</text><text x="604.19" y="235.00" font-size="9" fill="#111827" text-anchor="middle" transform="rotate(-45 604.19 235.00)">06.12.2025</text><text x="684.79" y="235.00" font-size="9" fill="#111827" text-anchor="middle" transform="rotate(-45 684.79 235.00)">26.12.2025</text><text x="765.38" y="235.00" font-size="9" fill="#111827" text-anchor="middle" transform="rotate(-45 765.38 235.00)">18.01.2026</text><text x="845.98" y="235.00" font-size="9" fill="#111827" text-anchor="middle" transform="rotate(-45 845.98 235.00)">10.02.2026</text>
  </g>
</svg>