<svg xmlns="http://www.w3.org/2000/svg" width="900" height="290" style="font-family: -apple-system, BlinkMacSystemFont, 'Segoe UI', Helvetica, Arial, sans-serif;">
  <rect width="100%" height="100%" fill="#0d1117"/>
  <g>
    <line x1="40" y1="220.00" x2="860" y2="220.00" stroke="#30363d"/><text x="32" y="224.00" font-size="10" fill="#c9d1d9" text-anchor="end">0</text><line x1="40" y1="175.00" x2="860" y2="175.00" stroke="#30363d"/><text x="32" y="179.00" font-size="10" fill="#c9d1d9" text-anchor="end">500</text><line x1="40" y1="130.00" x2="860" y2="130.00" stroke="#30363d"/><text x="32" y="134.00" font-size="10" fill="#c9d1d9" text-anchor="end">1k</text><line x1="40" y1="85.00" x2="860" y2="85.00" stroke="#30363d"/><text x="32" y="89.00" font-size="10" fill="#c9d1d9" text-anchor="end">1.5k</text><line x1="40" y1="40.00" x2="860" y2="40.00" stroke="#30363d"/><text x="32" y="44.00" font-size="10" fill="#c9d1d9" text-anchor="end">2k</text>
    <line x1="40.00" y1="40" x2="40.00" y2="220" stroke="#30363d" opacity="0.5"/><line x1="122.00" y1="40" x2="122.00" y2="220" stroke="#30363d" opacity="0.5"/><line x1="204.00" y1="40" x2="204.00" y2="220" stroke="#30363d" opacity="0.5"/><line x1="286.00" y1="40" x2="286.00" y2="220" stroke="#30363d" opacity="0.5"/><line x1="368.00" y1="40" x2="368.00" y2="220" stroke="#30363d" opacity="0.5"/><line x1="450.00" y1="40" x2="450.00" y2="220" stroke="#30363d" opacity="0.5"/><line x1="532.00" y1="40" x2="532.00" y2="220" stroke="#30363d" opacity="0.5"/><line x1="614.00" y1="40" x2="614.00" y2="220" stroke="#30363d" opacity="0.5"/><line x1="696.00" y1="40" x2="696.00" y2="220" stroke="#30363d" opacity="0.5"/><line x1="778.00" y1="40" x2="778.00" y2="220" stroke="#30363d" opacity="0.5"/><line x1="860.00" y1="40" x2="860.00" y2="220" stroke="#30363d" opacity="0.5"/>
    <line x1="40" y1="220" x2="860" y2="220" stroke="#30363d"/>
    <line x1="40" y1="40"   x2="40"   y2="220" stroke="#30363d"/>
    <path d="M 40.00 219.82 L 43.57 214.15 L 47.13 214.06 L 50.70 214.06 L 54.26 213.25 L 57.83 213.25 L 61.39 204.88 L 64.96 185.98 L 68.52 185.98 L 72.09 180.94 L 75.65 152.59 L 79.22 159.97 L 82.78 158.89 L 86.35 158.17 L 89.91 139.63 L 93.48 139.63 L 97.04 157.18 L 100.61 154.66 L 104.17 154.39 L 107.74 151.60 L 111.30 150.97 L 114.87 150.70 L 118.43 149.80 L 122.00 149.80 L 125.57 147.46 L 129.13 144.94 L 132.70 144.76 L 136.26 140.71 L 139.83 134.23 L 143.39 134.23 L 146.96 133.69 L 150.52 133.69 L 154.09 133.69 L 157.65 133.69 L 161.22 133.69 L 164.78 133.69 L 168.35 132.97 L 171.91 132.97 L 175.48 132.97 L 179.04 132.97 L 182.61 132.97 L 186.17 132.97 L 189.74 132.97 L 193.30 132.97 L 196.87 132.97 L 200.43 132.97 L 204.00 132.97 L 207.57 132.97 L 211.13 132.97 L 214.70 132.97 L 218.26 132.97 L 221.83 132.97 L 225.39 132.97 L 228.96 132.97 L 232.52 132.97 L 236.09 132.97 L 239.65 132.97 L 243.22 132.97 L 246.78 132.97 L 250.35 132.97 L 253.91 132.97 L 257.48 132.97 L 261.04 132.97 L 264.61 132.97 L 268.17 132.97 L 271.74 132.97 L 275.30 132.97 L 278.87 132.97 L 282.43 132.97 L 286.00 132.97 L 289.57 132.97 L 293.13 132.97 L 296.70 132.97 L 300.26 132.97 L 303.83 132.97 L 307.39 132.97 L 310.96 132.97 L 314.52 132.97 L 318.09 132.97 L 321.65 132.97 L 325.22 132.97 L 328.78 132.97 L 332.35 132.97 L 335.91 132.97 L 339.48 132.97 L 343.04 132.97 L 346.61 132.97 L 350.17 132.97 L 353.74 132.97 L 357.30 132.97 L 360.87 132.97 L 364.43 132.97 L 368.00 132.97 L 371.57 132.97 L 375.13 132.97 L 378.70 132.97 L 382.26 132.97 L 385.83 132.97 L 389.39 132.97 L 392.96 132.97 L 396.52 132.97 L 400.09 132.97 L 403.65 132.97 L 407.22 132.97 L 410.78 132.97 L 414.35 132.97 L 417.91 132.97 L 421.48 132.97 L 425.04 132.97 L 428.61 132.97 L 432.17 132.97 L 435.74 132.97 L 439.30 132.97 L 442.87 132.97 L 446.43 132.97 L 450.00 132.97 L 453.57 132.97 L 457.13 132.97 L 460.70 132.97 L 464.26 132.97 L 467.83 132.97 L 471.39 132.97 L 474.96 132.97 L 478.52 132.97 L 482.09 132.97 L 485.65 132.97 L 489.22 132.97 L 492.78 132.97 L 496.35 132.97 L 499.91 132.97 L 503.48 132.97 L 507.04 132.97 L 510.61 132.97 L 514.17 132.97 L 517.74 132.97 L 521.30 132.97 L 524.87 132.97 L 528.43 132.97 L 532.00 132.97 L 535.57 132.97 L 539.13 132.97 L 542.70 132.97 L 546.26 132.97 L 549.83 132.97 L 553.39 132.97 L 556.96 132.97 L 560.52 132.97 L 564.09 132.97 L 567.65 132.97 L 571.22 132.97 L 574.78 132.97 L 578.35 132.97 L 581.91 132.97 L 585.48 124.51 L 589.04 120.64 L 592.61 116.77 L 596.17 112.90 L 599.74 109.03 L 603.30 105.97 L 606.87 105.97 L 610.43 105.97 L 614.00 105.97 L 617.57 105.97 L 621.13 105.79 L 624.70 103.09 L 628.26 98.41 L 631.83 98.41 L 635.39 98.41 L 638.96 98.41 L 642.52 98.41 L 646.09 98.41 L 649.65 98.41 L 653.22 98.41 L 656.78 98.41 L 660.35 98.41 L 663.91 98.41 L 667.48 98.41 L 671.04 98.41 L 674.61 98.41 L 678.17 98.41 L 681.74 98.41 L 685.30 98.41 L 688.87 98.41 L 692.43 98.41 L 696.00 98.41 L 699.57 98.41 L 703.13 98.41 L 706.70 98.41 L 710.26 98.41 L 713.83 98.41 L 717.39 98.41 L 720.96 98.41 L 724.52 98.41 L 728.09 98.41 L 731.65 98.41 L 735.22 98.41 L 738.78 98.41 L 742.35 98.41 L 745.91 98.41 L 749.48 98.41 L 753.04 98.41 L 756.61 98.41 L 760.17 98.41 L 763.74 98.41 L 767.30 98.41 L 770.87 98.41 L 774.43 98.41 L 778.00 98.41 L 781.57 98.41 L 785.13 98.41 L 788.70 98.41 L 792.26 98.41 L 795.83 98.41 L 799.39 98.41 L 802.96 98.41 L 806.52 98.41 L 810.09 98.41 L 813.65 98.41 L 817.22 98.41 L 820.78 98.41 L 824.35 98.41 L 827.91 98.41 L 831.48 98.41 L 835.04 98.41 L 838.61 98.41 L 842.17 98.41 L 845.74 98.41 L 849.30 98.41 L 852.87 98.41 L 856.43 98.41 L 860.00 98.41" fill="none" stroke="#3fb950" stroke-width="2"/>
    <circle cx="860.00" cy="98.41" r="3" fill="#3fb950"/>
    <text x="40.00" y="235.00" font-size="9" fill="#c9d1d9" text-anchor="middle" transform="rotate(-45 40.00 235.00)">09.08.2025</text><text x="122.00" y="235.00" font-size="9" fill="#c9d1d9" text-anchor="middle" transform="rotate(-45 122.00 235.00)">09.08.2025</text><text x="204.00" y="235.00" font-size="9" fill="#c9d1d9" text-anchor="middle" transform="rotate(-45 204.00 235.00)">22.08.2025</text><text x="286.00" y="235.00" font-size="9" fill="#c9d1d9" text-anchor="middle" transform="rotate(-45 286.00 235.00)">12.09.2025</text><text x="368.00" y="235.00" font-size="9" fill="#c9d1d9" text-anchor="middle" transform="rotate(-45 368.00 235.00)">05.10.2025</text><text x="450.00" y="235.00" font-size="9" fill="#c9d1d9" text-anchor="middle" transform="rotate(-45 450.00 235.00)">28.10.2025</text><text x="532.00" y="235.00" font-size="9" fill="#c9d1d9" text-anchor="middle" transform="rotate(-45 532.00 235.00)">20.11.2025</text><text x="614.00" y="235.00" font-size="9" fill="#c9d1d9" text-anchor="middle" transform="rotate(-45 614.00 235.00)">06.12.2025</text><text x="696.00" y="235.00" font-size="9" fill="#c9d1d9" text-anchor="middle" transform="rotate(-45 696.00 235.00)">26.12.2025</text><text x="778.00" y="235.00" font-size="9" fill="#c9d1d9" text-anchor="middle" transform="rotate(-45 778.00 235.00)">18.01.2026</text><text x="860.00" y="235.00" font-size="9" fill="#c9d1d9" text-anchor="middle" transform="rotate(-45 860.00 235.00)">10.02.2026</text>
  </g>
</svg>