<svg xmlns="http://www.w3.org/2000/svg" width="900" height="290" style="font-family: -apple-system, BlinkMacSystemFont, 'Segoe UI', Helvetica, Arial, sans-serif;">
  <rect width="100%" height="100%" fill="#0d1117"/>
  <g>
    <line x1="40" y1="220.00" x2="860" y2="220.00" stroke="#30363d"/><text x="32" y="224.00" font-size="10" fill="#c9d1d9" text-anchor="end">0</text><line x1="40" y1="175.00" x2="860" y2="175.00" stroke="#30363d"/><text x="32" y="179.00" font-size="10" fill="#c9d1d9" text-anchor="end">500</text><line x1="40" y1="130.00" x2="860" y2="130.00" stroke="#30363d"/><text x="32" y="134.00" font-size="10" fill="#c9d1d9" text-anchor="end">1k</text><line x1="40" y1="85.00" x2="860" y2="85.00" stroke="#30363d"/><text x="32" y="89.00" font-size="10" fill="#c9d1d9" text-anchor="end">1.5k</text><line x1="40" y1="40.00" x2="860" y2="40.00" stroke="#30363d"/><text x="32" y="44.00" font-size="10" fill="#c9d1d9" text-anchor="end">2k</text>
    <line x1="40.00" y1="40" x2="40.00" y2="220" stroke="#30363d" opacity="0.5"/><line x1="120.76" y1="40" x2="120.76" y2="220" stroke="#30363d" opacity="0.5"/><line x1="201.52" y1="40" x2="201.52" y2="220" stroke="#30363d" opacity="0.5"/><line x1="282.27" y1="40" x2="282.27" y2="220" stroke="#30363d" opacity="0.5"/><line x1="363.03" y1="40" x2="363.03" y2="220" stroke="#30363d" opacity="0.5"/><line x1="443.79" y1="40" x2="443.79" y2="220" stroke="#30363d" opacity="0.5"/><line x1="524.55" y1="40" x2="524.55" y2="220" stroke="#30363d" opacity="0.5"/><line x1="605.30" y1="40" x2="605.30" y2="220" stroke="#30363d" opacity="0.5"/><line x1="686.06" y1="40" x2="686.06" y2="220" stroke="#30363d" opacity="0.5"/><line x1="766.82" y1="40" x2="766.82" y2="220" stroke="#30363d" opacity="0.5"/><line x1="847.58" y1="40" x2="847.58" y2="220" stroke="#30363d" opacity="0.5"/>
    <line x1="40" y1="220" x2="860" y2="220" stroke="#30363d"/>
    <line x1="40" y1="40"   x2="40"   y2="220" stroke="#30363d"/>
    <path d="M 40.00 219.82 L 46.21 214.15 L 52.42 214.06 L 58.64 214.06 L 64.85 213.25 L 71.06 213.25 L 77.27 204.88 L 83.48 185.98 L 89.70 185.98 L 95.91 180.94 L 102.12 152.59 L 108.33 159.97 L 114.55 158.89 L 120.76 158.17 L 126.97 139.63 L 133.18 139.63 L 139.39 157.18 L 145.61 154.66 L 151.82 154.39 L 158.03 151.60 L 164.24 150.97 L 170.45 150.70 L 176.67 149.80 L 182.88 149.80 L 189.09 147.46 L 195.30 144.94 L 201.52 144.76 L 207.73 140.71 L 213.94 134.23 L 220.15 134.23 L 226.36 133.69 L 232.58 133.69 L 238.79 133.69 L 245.00 133.69 L 251.21 133.69 L 257.42 133.69 L 263.64 132.97 L 269.85 132.97 L 276.06 132.97 L 282.27 132.97 L 288.48 132.97 L 294.70 132.97 L 300.91 132.97 L 307.12 132.97 L 313.33 132.97 L 319.55 132.97 L 325.76 132.97 L 331.97 132.97 L 338.18 132.97 L 344.39 132.97 L 350.61 132.97 L 356.82 132.97 L 363.03 132.97 L 369.24 132.97 L 375.45 132.97 L 381.67 132.97 L 387.88 132.97 L 394.09 132.97 L 400.30 132.97 L 406.52 132.97 L 412.73 132.97 L 418.94 132.97 L 425.15 132.97 L 431.36 132.97 L 437.58 132.97 L 443.79 132.97 L 450.00 132.97 L 456.21 132.97 L 462.42 132.97 L 468.64 132.97 L 474.85 132.97 L 481.06 132.97 L 487.27 132.97 L 493.48 132.97 L 499.70 132.97 L 505.91 132.97 L 512.12 132.97 L 518.33 132.97 L 524.55 132.97 L 530.76 132.97 L 536.97 132.97 L 543.18 132.97 L 549.39 132.97 L 555.61 132.97 L 561.82 132.97 L 568.03 132.97 L 574.24 132.97 L 580.45 132.97 L 586.67 132.97 L 592.88 132.97 L 599.09 132.97 L 605.30 132.97 L 611.52 132.97 L 617.73 132.97 L 623.94 132.97 L 630.15 132.97 L 636.36 132.97 L 642.58 132.97 L 648.79 132.97 L 655.00 132.97 L 661.21 132.97 L 667.42 132.97 L 673.64 132.97 L 679.85 132.97 L 686.06 132.97 L 692.27 132.97 L 698.48 132.97 L 704.70 132.97 L 710.91 132.97 L 717.12 132.97 L 723.33 132.97 L 729.55 132.97 L 735.76 132.97 L 741.97 132.97 L 748.18 132.97 L 754.39 132.97 L 760.61 132.97 L 766.82 132.97 L 773.03 132.97 L 779.24 132.97 L 785.45 132.97 L 791.67 132.97 L 797.88 132.97 L 804.09 132.97 L 810.30 132.97 L 816.52 132.97 L 822.73 132.97 L 828.94 132.97 L 835.15 132.97 L 841.36 132.97 L 847.58 132.97 L 853.79 132.97 L 860.00 132.97" fill="none" stroke="#3fb950" stroke-width="2"/>
    <circle cx="860.00" cy="132.97" r="3" fill="#3fb950"/>
    <text x="40.00" y="235.00" font-size="9" fill="#c9d1d9" text-anchor="middle" transform="rotate(-45 40.00 235.00)">09.08.2025</text><text x="120.76" y="235.00" font-size="9" fill="#c9d1d9" text-anchor="middle" transform="rotate(-45 120.76 235.00)">09.08.2025</text><text x="201.52" y="235.00" font-size="9" fill="#c9d1d9" text-anchor="middle" transform="rotate(-45 201.52 235.00)">09.08.2025</text><text x="282.27" y="235.00" font-size="9" fill="#c9d1d9" text-anchor="middle" transform="rotate(-45 282.27 235.00)">15.08.2025</text><text x="363.03" y="235.00" font-size="9" fill="#c9d1d9" text-anchor="middle" transform="rotate(-45 363.03 235.00)">28.08.2025</text><text x="443.79" y="235.00" font-size="9" fill="#c9d1d9" text-anchor="middle" transform="rotate(-45 443.79 235.00)">08.09.2025</text><text x="524.55" y="235.00" font-size="9" fill="#c9d1d9" text-anchor="middle" transform="rotate(-45 524.55 235.00)">21.09.2025</text><text x="605.30" y="235.00" font-size="9" fill="#c9d1d9" text-anchor="middle" transform="rotate(-45 605.30 235.00)">04.10.2025</text><text x="686.06" y="235.00" font-size="9" fill="#c9d1d9" text-anchor="middle" transform="rotate(-45 686.06 235.00)">17.10.2025</text><text x="766.82" y="235.00" font-size="9" fill="#c9d1d9" text-anchor="middle" transform="rotate(-45 766.82 235.00)">30.10.2025</text><text x="847.58" y="235.00" font-size="9" fill="#c9d1d9" text-anchor="middle" transform="rotate(-45 847.58 235.00)">12.11.2025</text>
  </g>
</svg>