<svg xmlns="http://www.w3.org/2000/svg" width="900" height="290" style="font-family: -apple-system, BlinkMacSystemFont, 'Segoe UI', Helvetica, Arial, sans-serif;">
  <rect width="100%" height="100%" fill="white"/>
  <g>
    <line x1="40" y1="220.00" x2="860" y2="220.00" stroke="#e5e7eb"/><text x="32" y="224.00" font-size="10" fill="#111827" text-anchor="end">0</text><line x1="40" y1="175.00" x2="860" y2="175.00" stroke="#e5e7eb"/><text x="32" y="179.00" font-size="10" fill="#111827" text-anchor="end">500</text><line x1="40" y1="130.00" x2="860" y2="130.00" stroke="#e5e7eb"/><text x="32" y="134.00" font-size="10" fill="#111827" text-anchor="end">1k</text><line x1="40" y1="85.00" x2="860" y2="85.00" stroke="#e5e7eb"/><text x="32" y="89.00" font-size="10" fill="#111827" text-anchor="end">1.5k</text><line x1="40" y1="40.00" x2="860" y2="40.00" stroke="#e5e7eb"/><text x="32" y="44.00" font-size="10" fill="#111827" text-anchor="end">2k</text>
    <line x1="40.00" y1="40" x2="40.00" y2="220" stroke="#e5e7eb" opacity="0.5"/><line x1="118.76" y1="40" x2="118.76" y2="220" stroke="#e5e7eb" opacity="0.5"/><line x1="197.51" y1="40" x2="197.51" y2="220" stroke="#e5e7eb" opacity="0.5"/><line x1="276.27" y1="40" x2="276.27" y2="220" stroke="#e5e7eb" opacity="0.5"/><line x1="355.03" y1="40" x2="355.03" y2="220" stroke="#e5e7eb" opacity="0.5"/><line x1="433.79" y1="40" x2="433.79" y2="220" stroke="#e5e7eb" opacity="0.5"/><line x1="512.54" y1="40" x2="512.54" y2="220" stroke="#e5e7eb" opacity="0.5"/><line x1="591.30" y1="40" x2="591.30" y2="220" stroke="#e5e7eb" opacity="0.5"/><line x1="670.06" y1="40" x2="670.06" y2="220" stroke="#e5e7eb" opacity="0.5"/><line x1="748.81" y1="40" x2="748.81" y2="220" stroke="#e5e7eb" opacity="0.5"/><line x1="827.57" y1="40" x2="827.57" y2="220" stroke="#e5e7eb" opacity="0.5"/>
    <line x1="40" y1="220" x2="860" y2="220" stroke="#9ca3af"/>
    <line x1="40" y1="40"   x2="40"   y2="220" stroke="#9ca3af"/>
    <path d="M 40.00 219.82 L 44.63 214.15 L 49.27 214.06 L 53.90 214.06 L 58.53 213.25 L 63.16 213.25 L 67.80 204.88 L 72.43 185.98 L 77.06 185.98 L 81.69 180.94 L 86.33 152.59 L 90.96 159.97 L 95.59 158.89 L 100.23 158.17 L 104.86 139.63 L 109.49 139.63 L 114.12 157.18 L 118.76 154.66 L 123.39 154.39 L 128.02 151.60 L 132.66 150.97 L 137.29 150.70 L 141.92 149.80 L 146.55 149.80 L 151.19 147.46 L 155.82 144.94 L 160.45 144.76 L 165.08 140.71 L 169.72 134.23 L 174.35 134.23 L 178.98 133.69 L 183.62 133.69 L 188.25 133.69 L 192.88 133.69 L 197.51 133.69 L 202.15 133.69 L 206.78 132.97 L 211.41 132.97 L 216.05 132.97 L 220.68 132.97 L 225.31 132.97 L 229.94 132.97 L 234.58 132.97 L 239.21 132.97 L 243.84 132.97 L 248.47 132.97 L 253.11 132.97 L 257.74 132.97 L 262.37 132.97 L 267.01 132.97 L 271.64 132.97 L 276.27 132.97 L 280.90 132.97 L 285.54 132.97 L 290.17 132.97 L 294.80 132.97 L 299.44 132.97 L 304.07 132.97 L 308.70 132.97 L 313.33 132.97 L 317.97 132.97 L 322.60 132.97 L 327.23 132.97 L 331.86 132.97 L 336.50 132.97 L 341.13 132.97 L 345.76 132.97 L 350.40 132.97 L 355.03 132.97 L 359.66 132.97 L 364.29 132.97 L 368.93 132.97 L 373.56 132.97 L 378.19 132.97 L 382.82 132.97 L 387.46 132.97 L 392.09 132.97 L 396.72 132.97 L 401.36 132.97 L 405.99 132.97 L 410.62 132.97 L 415.25 132.97 L 419.89 132.97 L 424.52 132.97 L 429.15 132.97 L 433.79 132.97 L 438.42 132.97 L 443.05 132.97 L 447.68 132.97 L 452.32 132.97 L 456.95 132.97 L 461.58 132.97 L 466.21 132.97 L 470.85 132.97 L 475.48 132.97 L 480.11 132.97 L 484.75 132.97 L 489.38 132.97 L 494.01 132.97 L 498.64 132.97 L 503.28 132.97 L 507.91 132.97 L 512.54 132.97 L 517.18 132.97 L 521.81 132.97 L 526.44 132.97 L 531.07 132.97 L 535.71 132.97 L 540.34 132.97 L 544.97 132.97 L 549.60 132.97 L 554.24 132.97 L 558.87 132.97 L 563.50 132.97 L 568.14 132.97 L 572.77 132.97 L 577.40 132.97 L 582.03 132.97 L 586.67 132.97 L 591.30 132.97 L 595.93 132.97 L 600.56 132.97 L 605.20 132.97 L 609.83 132.97 L 614.46 132.97 L 619.10 132.97 L 623.73 132.97 L 628.36 132.97 L 632.99 132.97 L 637.63 132.97 L 642.26 132.97 L 646.89 132.97 L 651.53 132.97 L 656.16 132.97 L 660.79 132.97 L 665.42 132.97 L 670.06 132.97 L 674.69 132.97 L 679.32 132.97 L 683.95 132.97 L 688.59 132.97 L 693.22 132.97 L 697.85 132.97 L 702.49 132.97 L 707.12 132.97 L 711.75 132.97 L 716.38 132.97 L 721.02 132.97 L 725.65 132.97 L 730.28 132.97 L 734.92 132.97 L 739.55 132.97 L 744.18 132.97 L 748.81 124.51 L 753.45 120.64 L 758.08 116.77 L 762.71 112.90 L 767.34 109.03 L 771.98 105.97 L 776.61 105.97 L 781.24 105.97 L 785.88 105.97 L 790.51 105.97 L 795.14 105.79 L 799.77 103.09 L 804.41 98.41 L 809.04 98.41 L 813.67 98.41 L 818.31 98.41 L 822.94 98.41 L 827.57 98.41 L 832.20 98.41 L 836.84 98.41 L 841.47 98.41 L 846.10 98.41 L 850.73 98.41 L 855.37 98.41 L 860.00 98.41" fill="none" stroke="#111827" stroke-width="2"/>
    <circle cx="860.00" cy="98.41" r="3" fill="#111827"/>
    <text x="40.00" y="235.00" font-size="9" fill="#111827" text-anchor="middle" transform="rotate(-45 40.00 235.00)">09.08.2025</text><text x="118.76" y="235.00" font-size="9" fill="#111827" text-anchor="middle" transform="rotate(-45 118.76 235.00)">09.08.2025</text><text x="197.51" y="235.00" font-size="9" fill="#111827" text-anchor="middle" transform="rotate(-45 197.51 235.00)">13.08.2025</text><text x="276.27" y="235.00" font-size="9" fill="#111827" text-anchor="middle" transform="rotate(-45 276.27 235.00)">27.08.2025</text><text x="355.03" y="235.00" font-size="9" fill="#111827" text-anchor="middle" transform="rotate(-45 355.03 235.00)">11.09.2025</text><text x="433.79" y="235.00" font-size="9" fill="#111827" text-anchor="middle" transform="rotate(-45 433.79 235.00)">28.09.2025</text><text x="512.54" y="235.00" font-size="9" fill="#111827" text-anchor="middle" transform="rotate(-45 512.54 235.00)">15.10.2025</text><text x="591.30" y="235.00" font-size="9" fill="#111827" text-anchor="middle" transform="rotate(-45 591.30 235.00)">01.11.2025</text><text x="670.06" y="235.00" font-size="9" fill="#111827" text-anchor="middle" transform="rotate(-45 670.06 235.00)">18.11.2025</text><text x="748.81" y="235.00" font-size="9" fill="#111827" text-anchor="middle" transform="rotate(-45 748.81 235.00)">04.12.2025</text><text x="827.57" y="235.00" font-size="9" fill="#111827" text-anchor="middle" transform="rotate(-45 827.57 235.00)">12.12.2025</text>
  </g>
</svg>