<svg xmlns="http://www.w3.org/2000/svg" width="900" height="290" style="font-family: -apple-system, BlinkMacSystemFont, 'Segoe UI', Helvetica, Arial, sans-serif;">
  <rect width="100%" height="100%" fill="white"/>
  <g>
    <line x1="40" y1="220.00" x2="860" y2="220.00" stroke="#e5e7eb"/><text x="32" y="224.00" font-size="10" fill="#111827" text-anchor="end">0</text><line x1="40" y1="175.00" x2="860" y2="175.00" stroke="#e5e7eb"/><text x="32" y="179.00" font-size="10" fill="#111827" text-anchor="end">500</text><line x1="40" y1="130.00" x2="860" y2="130.00" stroke="#e5e7eb"/><text x="32" y="134.00" font-size="10" fill="#111827" text-anchor="end">1k</text><line x1="40" y1="85.00" x2="860" y2="85.00" stroke="#e5e7eb"/><text x="32" y="89.00" font-size="10" fill="#111827" text-anchor="end">1.5k</text><line x1="40" y1="40.00" x2="860" y2="40.00" stroke="#e5e7eb"/><text x="32" y="44.00" font-size="10" fill="#111827" text-anchor="end">2k</text>
    <line x1="40.00" y1="40" x2="40.00" y2="220" stroke="#e5e7eb" opacity="0.5"/><line x1="121.42" y1="40" x2="121.42" y2="220" stroke="#e5e7eb" opacity="0.5"/><line x1="202.84" y1="40" x2="202.84" y2="220" stroke="#e5e7eb" opacity="0.5"/><line x1="284.26" y1="40" x2="284.26" y2="220" stroke="#e5e7eb" opacity="0.5"/><line x1="365.67" y1="40" x2="365.67" y2="220" stroke="#e5e7eb" opacity="0.5"/><line x1="447.09" y1="40" x2="447.09" y2="220" stroke="#e5e7eb" opacity="0.5"/><line x1="528.51" y1="40" x2="528.51" y2="220" stroke="#e5e7eb" opacity="0.5"/><line x1="609.93" y1="40" x2="609.93" y2="220" stroke="#e5e7eb" opacity="0.5"/><line x1="691.35" y1="40" x2="691.35" y2="220" stroke="#e5e7eb" opacity="0.5"/><line x1="772.77" y1="40" x2="772.77" y2="220" stroke="#e5e7eb" opacity="0.5"/><line x1="854.18" y1="40" x2="854.18" y2="220" stroke="#e5e7eb" opacity="0.5"/>
    <line x1="40" y1="220" x2="860" y2="220" stroke="#9ca3af"/>
    <line x1="40" y1="40"   x2="40"   y2="220" stroke="#9ca3af"/>
    <path d="M 40.00 219.82 L 45.82 214.15 L 51.63 214.06 L 57.45 214.06 L 63.26 213.25 L 69.08 213.25 L 74.89 204.88 L 80.71 185.98 L 86.52 185.98 L 92.34 180.94 L 98.16 152.59 L 103.97 159.97 L 109.79 158.89 L 115.60 158.17 L 121.42 139.63 L 127.23 139.63 L 133.05 157.18 L 138.87 154.66 L 144.68 154.39 L 150.50 151.60 L 156.31 150.97 L 162.13 150.70 L 167.94 149.80 L 173.76 149.80 L 179.57 147.46 L 185.39 144.94 L 191.21 144.76 L 197.02 140.71 L 202.84 134.23 L 208.65 134.23 L 214.47 133.69 L 220.28 133.69 L 226.10 133.69 L 231.91 133.69 L 237.73 133.69 L 243.55 133.69 L 249.36 132.97 L 255.18 132.97 L 260.99 132.97 L 266.81 132.97 L 272.62 132.97 L 278.44 132.97 L 284.26 132.97 L 290.07 132.97 L 295.89 132.97 L 301.70 132.97 L 307.52 132.97 L 313.33 132.97 L 319.15 132.97 L 324.96 132.97 L 330.78 132.97 L 336.60 132.97 L 342.41 132.97 L 348.23 132.97 L 354.04 132.97 L 359.86 132.97 L 365.67 132.97 L 371.49 132.97 L 377.30 132.97 L 383.12 132.97 L 388.94 132.97 L 394.75 132.97 L 400.57 132.97 L 406.38 132.97 L 412.20 132.97 L 418.01 132.97 L 423.83 132.97 L 429.65 132.97 L 435.46 132.97 L 441.28 132.97 L 447.09 132.97 L 452.91 132.97 L 458.72 132.97 L 464.54 132.97 L 470.35 132.97 L 476.17 132.97 L 481.99 132.97 L 487.80 132.97 L 493.62 132.97 L 499.43 132.97 L 505.25 132.97 L 511.06 132.97 L 516.88 132.97 L 522.70 132.97 L 528.51 132.97 L 534.33 132.97 L 540.14 132.97 L 545.96 132.97 L 551.77 132.97 L 557.59 132.97 L 563.40 132.97 L 569.22 132.97 L 575.04 132.97 L 580.85 132.97 L 586.67 132.97 L 592.48 132.97 L 598.30 132.97 L 604.11 132.97 L 609.93 132.97 L 615.74 132.97 L 621.56 132.97 L 627.38 132.97 L 633.19 132.97 L 639.01 132.97 L 644.82 132.97 L 650.64 132.97 L 656.45 132.97 L 662.27 132.97 L 668.09 132.97 L 673.90 132.97 L 679.72 132.97 L 685.53 132.97 L 691.35 132.97 L 697.16 132.97 L 702.98 132.97 L 708.79 132.97 L 714.61 132.97 L 720.43 132.97 L 726.24 132.97 L 732.06 132.97 L 737.87 132.97 L 743.69 132.97 L 749.50 132.97 L 755.32 132.97 L 761.13 132.97 L 766.95 132.97 L 772.77 132.97 L 778.58 132.97 L 784.40 132.97 L 790.21 132.97 L 796.03 132.97 L 801.84 132.97 L 807.66 132.97 L 813.48 132.97 L 819.29 132.97 L 825.11 132.97 L 830.92 132.97 L 836.74 132.97 L 842.55 132.97 L 848.37 132.97 L 854.18 132.97 L 860.00 132.97" fill="none" stroke="#111827" stroke-width="2"/>
    <circle cx="860.00" cy="132.97" r="3" fill="#111827"/>
    <text x="40.00" y="235.00" font-size="9" fill="#111827" text-anchor="middle" transform="rotate(-45 40.00 235.00)">09.08.2025</text><text x="121.42" y="235.00" font-size="9" fill="#111827" text-anchor="middle" transform="rotate(-45 121.42 235.00)">09.08.2025</text><text x="202.84" y="235.00" font-size="9" fill="#111827" text-anchor="middle" transform="rotate(-45 202.84 235.00)">13.08.2025</text><text x="284.26" y="235.00" font-size="9" fill="#111827" text-anchor="middle" transform="rotate(-45 284.26 235.00)">18.08.2025</text><text x="365.67" y="235.00" font-size="9" fill="#111827" text-anchor="middle" transform="rotate(-45 365.67 235.00)">30.08.2025</text><text x="447.09" y="235.00" font-size="9" fill="#111827" text-anchor="middle" transform="rotate(-45 447.09 235.00)">13.09.2025</text><text x="528.51" y="235.00" font-size="9" fill="#111827" text-anchor="middle" transform="rotate(-45 528.51 235.00)">27.09.2025</text><text x="609.93" y="235.00" font-size="9" fill="#111827" text-anchor="middle" transform="rotate(-45 609.93 235.00)">11.10.2025</text><text x="691.35" y="235.00" font-size="9" fill="#111827" text-anchor="middle" transform="rotate(-45 691.35 235.00)">25.10.2025</text><text x="772.77" y="235.00" font-size="9" fill="#111827" text-anchor="middle" transform="rotate(-45 772.77 235.00)">08.11.2025</text><text x="854.18" y="235.00" font-size="9" fill="#111827" text-anchor="middle" transform="rotate(-45 854.18 235.00)">22.11.2025</text>
  </g>
</svg>