<svg xmlns="http://www.w3.org/2000/svg" width="900" height="290" style="font-family: -apple-system, BlinkMacSystemFont, 'Segoe UI', Helvetica, Arial, sans-serif;">
  <rect width="100%" height="100%" fill="#0d1117"/>
  <g>
    <line x1="40" y1="220.00" x2="860" y2="220.00" stroke="#30363d"/><text x="32" y="224.00" font-size="10" fill="#c9d1d9" text-anchor="end">0</text><line x1="40" y1="175.00" x2="860" y2="175.00" stroke="#30363d"/><text x="32" y="179.00" font-size="10" fill="#c9d1d9" text-anchor="end">500</text><line x1="40" y1="130.00" x2="860" y2="130.00" stroke="#30363d"/><text x="32" y="134.00" font-size="10" fill="#c9d1d9" text-anchor="end">1k</text><line x1="40" y1="85.00" x2="860" y2="85.00" stroke="#30363d"/><text x="32" y="89.00" font-size="10" fill="#c9d1d9" text-anchor="end">1.5k</text><line x1="40" y1="40.00" x2="860" y2="40.00" stroke="#30363d"/><text x="32" y="44.00" font-size="10" fill="#c9d1d9" text-anchor="end">2k</text>
    <line x1="40.00" y1="40" x2="40.00" y2="220" stroke="#30363d" opacity="0.5"/><line x1="116.08" y1="40" x2="116.08" y2="220" stroke="#30363d" opacity="0.5"/><line x1="192.16" y1="40" x2="192.16" y2="220" stroke="#30363d" opacity="0.5"/><line x1="268.25" y1="40" x2="268.25" y2="220" stroke="#30363d" opacity="0.5"/><line x1="344.33" y1="40" x2="344.33" y2="220" stroke="#30363d" opacity="0.5"/><line x1="420.41" y1="40" x2="420.41" y2="220" stroke="#30363d" opacity="0.5"/><line x1="496.49" y1="40" x2="496.49" y2="220" stroke="#30363d" opacity="0.5"/><line x1="572.58" y1="40" x2="572.58" y2="220" stroke="#30363d" opacity="0.5"/><line x1="648.66" y1="40" x2="648.66" y2="220" stroke="#30363d" opacity="0.5"/><line x1="724.74" y1="40" x2="724.74" y2="220" stroke="#30363d" opacity="0.5"/><line x1="800.82" y1="40" x2="800.82" y2="220" stroke="#30363d" opacity="0.5"/>
    <line x1="40" y1="220" x2="860" y2="220" stroke="#30363d"/>
    <line x1="40" y1="40"   x2="40"   y2="220" stroke="#30363d"/>
    <path d="M 40.00 219.82 L 48.45 214.15 L 56.91 214.06 L 65.36 214.06 L 73.81 213.25 L 82.27 213.25 L 90.72 204.88 L 99.18 185.98 L 107.63 185.98 L 116.08 180.94 L 124.54 152.59 L 132.99 159.97 L 141.44 158.89 L 149.90 158.17 L 158.35 139.63 L 166.80 139.63 L 175.26 157.18 L 183.71 154.66 L 192.16 154.39 L 200.62 151.60 L 209.07 150.97 L 217.53 150.70 L 225.98 149.80 L 234.43 149.80 L 242.89 147.46 L 251.34 144.94 L 259.79 144.76 L 268.25 140.71 L 276.70 134.23 L 285.15 134.23 L 293.61 133.69 L 302.06 133.69 L 310.52 133.69 L 318.97 133.69 L 327.42 133.69 L 335.88 133.69 L 344.33 132.97 L 352.78 132.97 L 361.24 132.97 L 369.69 132.97 L 378.14 132.97 L 386.60 132.97 L 395.05 132.97 L 403.51 132.97 L 411.96 132.97 L 420.41 132.97 L 428.87 132.97 L 437.32 132.97 L 445.77 132.97 L 454.23 132.97 L 462.68 132.97 L 471.13 132.97 L 479.59 132.97 L 488.04 132.97 L 496.49 132.97 L 504.95 132.97 L 513.40 132.97 L 521.86 132.97 L 530.31 132.97 L 538.76 132.97 L 547.22 132.97 L 555.67 132.97 L 564.12 132.97 L 572.58 132.97 L 581.03 132.97 L 589.48 132.97 L 597.94 132.97 L 606.39 132.97 L 614.85 132.97 L 623.30 132.97 L 631.75 132.97 L 640.21 132.97 L 648.66 132.97 L 657.11 132.97 L 665.57 132.97 L 674.02 132.97 L 682.47 132.97 L 690.93 132.97 L 699.38 132.97 L 707.84 132.97 L 716.29 132.97 L 724.74 132.97 L 733.20 132.97 L 741.65 132.97 L 750.10 132.97 L 758.56 132.97 L 767.01 132.97 L 775.46 132.97 L 783.92 132.97 L 792.37 132.97 L 800.82 132.97 L 809.28 132.97 L 817.73 132.97 L 826.19 132.97 L 834.64 132.97 L 843.09 132.97 L 851.55 132.97 L 860.00 132.97" fill="none" stroke="#3fb950" stroke-width="2"/>
    <circle cx="860.00" cy="132.97" r="3" fill="#3fb950"/>
    <text x="40.00" y="235.00" font-size="9" fill="#c9d1d9" text-anchor="middle" transform="rotate(-45 40.00 235.00)">09.08.2025</text><text x="116.08" y="235.00" font-size="9" fill="#c9d1d9" text-anchor="middle" transform="rotate(-45 116.08 235.00)">09.08.2025</text><text x="192.16" y="235.00" font-size="9" fill="#c9d1d9" text-anchor="middle" transform="rotate(-45 192.16 235.00)">09.08.2025</text><text x="268.25" y="235.00" font-size="9" fill="#c9d1d9" text-anchor="middle" transform="rotate(-45 268.25 235.00)">13.08.2025</text><text x="344.33" y="235.00" font-size="9" fill="#c9d1d9" text-anchor="middle" transform="rotate(-45 344.33 235.00)">13.08.2025</text><text x="420.41" y="235.00" font-size="9" fill="#c9d1d9" text-anchor="middle" transform="rotate(-45 420.41 235.00)">21.08.2025</text><text x="496.49" y="235.00" font-size="9" fill="#c9d1d9" text-anchor="middle" transform="rotate(-45 496.49 235.00)">28.08.2025</text><text x="572.58" y="235.00" font-size="9" fill="#c9d1d9" text-anchor="middle" transform="rotate(-45 572.58 235.00)">06.09.2025</text><text x="648.66" y="235.00" font-size="9" fill="#c9d1d9" text-anchor="middle" transform="rotate(-45 648.66 235.00)">15.09.2025</text><text x="724.74" y="235.00" font-size="9" fill="#c9d1d9" text-anchor="middle" transform="rotate(-45 724.74 235.00)">24.09.2025</text><text x="800.82" y="235.00" font-size="9" fill="#c9d1d9" text-anchor="middle" transform="rotate(-45 800.82 235.00)">03.10.2025</text>
  </g>
</svg>