<svg xmlns="http://www.w3.org/2000/svg" width="900" height="290" style="font-family: -apple-system, BlinkMacSystemFont, 'Segoe UI', Helvetica, Arial, sans-serif;">
  <rect width="100%" height="100%" fill="#0d1117"/>
  <g>
    <line x1="40" y1="220.00" x2="860" y2="220.00" stroke="#30363d"/><text x="32" y="224.00" font-size="10" fill="#c9d1d9" text-anchor="end">0</text><line x1="40" y1="175.00" x2="860" y2="175.00" stroke="#30363d"/><text x="32" y="179.00" font-size="10" fill="#c9d1d9" text-anchor="end">500</text><line x1="40" y1="130.00" x2="860" y2="130.00" stroke="#30363d"/><text x="32" y="134.00" font-size="10" fill="#c9d1d9" text-anchor="end">1k</text><line x1="40" y1="85.00" x2="860" y2="85.00" stroke="#30363d"/><text x="32" y="89.00" font-size="10" fill="#c9d1d9" text-anchor="end">1.5k</text><line x1="40" y1="40.00" x2="860" y2="40.00" stroke="#30363d"/><text x="32" y="44.00" font-size="10" fill="#c9d1d9" text-anchor="end">2k</text>
    <line x1="40.00" y1="40" x2="40.00" y2="220" stroke="#30363d" opacity="0.5"/><line x1="121.10" y1="40" x2="121.10" y2="220" stroke="#30363d" opacity="0.5"/><line x1="202.20" y1="40" x2="202.20" y2="220" stroke="#30363d" opacity="0.5"/><line x1="283.30" y1="40" x2="283.30" y2="220" stroke="#30363d" opacity="0.5"/><line x1="364.40" y1="40" x2="364.40" y2="220" stroke="#30363d" opacity="0.5"/><line x1="445.49" y1="40" x2="445.49" y2="220" stroke="#30363d" opacity="0.5"/><line x1="526.59" y1="40" x2="526.59" y2="220" stroke="#30363d" opacity="0.5"/><line x1="607.69" y1="40" x2="607.69" y2="220" stroke="#30363d" opacity="0.5"/><line x1="688.79" y1="40" x2="688.79" y2="220" stroke="#30363d" opacity="0.5"/><line x1="769.89" y1="40" x2="769.89" y2="220" stroke="#30363d" opacity="0.5"/><line x1="850.99" y1="40" x2="850.99" y2="220" stroke="#30363d" opacity="0.5"/>
    <line x1="40" y1="220" x2="860" y2="220" stroke="#30363d"/>
    <line x1="40" y1="40"   x2="40"   y2="220" stroke="#30363d"/>
    <path d="M 40.00 219.82 L 49.01 214.15 L 58.02 214.06 L 67.03 214.06 L 76.04 213.25 L 85.05 213.25 L 94.07 204.88 L 103.08 185.98 L 112.09 185.98 L 121.10 180.94 L 130.11 152.59 L 139.12 159.97 L 148.13 158.89 L 157.14 158.17 L 166.15 139.63 L 175.16 139.63 L 184.18 157.18 L 193.19 154.66 L 202.20 154.39 L 211.21 151.60 L 220.22 150.97 L 229.23 150.70 L 238.24 149.80 L 247.25 149.80 L 256.26 147.46 L 265.27 144.94 L 274.29 144.76 L 283.30 140.71 L 292.31 134.23 L 301.32 134.23 L 310.33 133.69 L 319.34 133.69 L 328.35 133.69 L 337.36 133.69 L 346.37 133.69 L 355.38 133.69 L 364.40 132.97 L 373.41 132.97 L 382.42 132.97 L 391.43 132.97 L 400.44 132.97 L 409.45 132.97 L 418.46 132.97 L 427.47 132.97 L 436.48 132.97 L 445.49 132.97 L 454.51 132.97 L 463.52 132.97 L 472.53 132.97 L 481.54 132.97 L 490.55 132.97 L 499.56 132.97 L 508.57 132.97 L 517.58 132.97 L 526.59 132.97 L 535.60 132.97 L 544.62 132.97 L 553.63 132.97 L 562.64 132.97 L 571.65 132.97 L 580.66 132.97 L 589.67 132.97 L 598.68 132.97 L 607.69 132.97 L 616.70 132.97 L 625.71 132.97 L 634.73 132.97 L 643.74 132.97 L 652.75 132.97 L 661.76 132.97 L 670.77 132.97 L 679.78 132.97 L 688.79 132.97 L 697.80 132.97 L 706.81 132.97 L 715.82 132.97 L 724.84 132.97 L 733.85 132.97 L 742.86 132.97 L 751.87 132.97 L 760.88 132.97 L 769.89 132.97 L 778.90 132.97 L 787.91 132.97 L 796.92 132.97 L 805.93 132.97 L 814.95 132.97 L 823.96 132.97 L 832.97 132.97 L 841.98 132.97 L 850.99 132.97 L 860.00 132.97" fill="none" stroke="#3fb950" stroke-width="2"/>
    <circle cx="860.00" cy="132.97" r="3" fill="#3fb950"/>
    <text x="40.00" y="235.00" font-size="9" fill="#c9d1d9" text-anchor="middle" transform="rotate(-45 40.00 235.00)">09.08.2025</text><text x="121.10" y="235.00" font-size="9" fill="#c9d1d9" text-anchor="middle" transform="rotate(-45 121.10 235.00)">09.08.2025</text><text x="202.20" y="235.00" font-size="9" fill="#c9d1d9" text-anchor="middle" transform="rotate(-45 202.20 235.00)">09.08.2025</text><text x="283.30" y="235.00" font-size="9" fill="#c9d1d9" text-anchor="middle" transform="rotate(-45 283.30 235.00)">13.08.2025</text><text x="364.40" y="235.00" font-size="9" fill="#c9d1d9" text-anchor="middle" transform="rotate(-45 364.40 235.00)">13.08.2025</text><text x="445.49" y="235.00" font-size="9" fill="#c9d1d9" text-anchor="middle" transform="rotate(-45 445.49 235.00)">21.08.2025</text><text x="526.59" y="235.00" font-size="9" fill="#c9d1d9" text-anchor="middle" transform="rotate(-45 526.59 235.00)">28.08.2025</text><text x="607.69" y="235.00" font-size="9" fill="#c9d1d9" text-anchor="middle" transform="rotate(-45 607.69 235.00)">06.09.2025</text><text x="688.79" y="235.00" font-size="9" fill="#c9d1d9" text-anchor="middle" transform="rotate(-45 688.79 235.00)">15.09.2025</text><text x="769.89" y="235.00" font-size="9" fill="#c9d1d9" text-anchor="middle" transform="rotate(-45 769.89 235.00)">24.09.2025</text><text x="850.99" y="235.00" font-size="9" fill="#c9d1d9" text-anchor="middle" transform="rotate(-45 850.99 235.00)">03.10.2025</text>
  </g>
</svg>