<svg xmlns="http://www.w3.org/2000/svg" width="900" height="290" style="font-family: -apple-system, BlinkMacSystemFont, 'Segoe UI', Helvetica, Arial, sans-serif;">
  <rect width="100%" height="100%" fill="#0d1117"/>
  <g>
    <line x1="40" y1="220.00" x2="860" y2="220.00" stroke="#30363d"/><text x="32" y="224.00" font-size="10" fill="#c9d1d9" text-anchor="end">0</text><line x1="40" y1="175.00" x2="860" y2="175.00" stroke="#30363d"/><text x="32" y="179.00" font-size="10" fill="#c9d1d9" text-anchor="end">500</text><line x1="40" y1="130.00" x2="860" y2="130.00" stroke="#30363d"/><text x="32" y="134.00" font-size="10" fill="#c9d1d9" text-anchor="end">1k</text><line x1="40" y1="85.00" x2="860" y2="85.00" stroke="#30363d"/><text x="32" y="89.00" font-size="10" fill="#c9d1d9" text-anchor="end">1.5k</text><line x1="40" y1="40.00" x2="860" y2="40.00" stroke="#30363d"/><text x="32" y="44.00" font-size="10" fill="#c9d1d9" text-anchor="end">2k</text>
    <line x1="40.00" y1="40" x2="40.00" y2="220" stroke="#30363d" opacity="0.5"/><line x1="122.36" y1="40" x2="122.36" y2="220" stroke="#30363d" opacity="0.5"/><line x1="204.72" y1="40" x2="204.72" y2="220" stroke="#30363d" opacity="0.5"/><line x1="287.07" y1="40" x2="287.07" y2="220" stroke="#30363d" opacity="0.5"/><line x1="369.43" y1="40" x2="369.43" y2="220" stroke="#30363d" opacity="0.5"/><line x1="451.79" y1="40" x2="451.79" y2="220" stroke="#30363d" opacity="0.5"/><line x1="534.15" y1="40" x2="534.15" y2="220" stroke="#30363d" opacity="0.5"/><line x1="616.51" y1="40" x2="616.51" y2="220" stroke="#30363d" opacity="0.5"/><line x1="698.86" y1="40" x2="698.86" y2="220" stroke="#30363d" opacity="0.5"/><line x1="781.22" y1="40" x2="781.22" y2="220" stroke="#30363d" opacity="0.5"/>
    <line x1="40" y1="220" x2="860" y2="220" stroke="#30363d"/>
    <line x1="40" y1="40"   x2="40"   y2="220" stroke="#30363d"/>
    <path d="M 40.00 219.82 L 43.58 214.15 L 47.16 214.06 L 50.74 214.06 L 54.32 213.25 L 57.90 213.25 L 61.48 204.88 L 65.07 185.98 L 68.65 185.98 L 72.23 180.94 L 75.81 152.59 L 79.39 159.97 L 82.97 158.89 L 86.55 158.17 L 90.13 139.63 L 93.71 139.63 L 97.29 157.18 L 100.87 154.66 L 104.45 154.39 L 108.03 151.60 L 111.62 150.97 L 115.20 150.70 L 118.78 149.80 L 122.36 149.80 L 125.94 147.46 L 129.52 144.94 L 133.10 144.76 L 136.68 140.71 L 140.26 134.23 L 143.84 134.23 L 147.42 133.69 L 151.00 133.69 L 154.59 133.69 L 158.17 133.69 L 161.75 133.69 L 165.33 133.69 L 168.91 132.97 L 172.49 132.97 L 176.07 132.97 L 179.65 132.97 L 183.23 132.97 L 186.81 132.97 L 190.39 132.97 L 193.97 132.97 L 197.55 132.97 L 201.14 132.97 L 204.72 132.97 L 208.30 132.97 L 211.88 132.97 L 215.46 132.97 L 219.04 132.97 L 222.62 132.97 L 226.20 132.97 L 229.78 132.97 L 233.36 132.97 L 236.94 132.97 L 240.52 132.97 L 244.10 132.97 L 247.69 132.97 L 251.27 132.97 L 254.85 132.97 L 258.43 132.97 L 262.01 132.97 L 265.59 132.97 L 269.17 132.97 L 272.75 132.97 L 276.33 132.97 L 279.91 132.97 L 283.49 132.97 L 287.07 132.97 L 290.66 132.97 L 294.24 132.97 L 297.82 132.97 L 301.40 132.97 L 304.98 132.97 L 308.56 132.97 L 312.14 132.97 L 315.72 132.97 L 319.30 132.97 L 322.88 132.97 L 326.46 132.97 L 330.04 132.97 L 333.62 132.97 L 337.21 132.97 L 340.79 132.97 L 344.37 132.97 L 347.95 132.97 L 351.53 132.97 L 355.11 132.97 L 358.69 132.97 L 362.27 132.97 L 365.85 132.97 L 369.43 132.97 L 373.01 132.97 L 376.59 132.97 L 380.17 132.97 L 383.76 132.97 L 387.34 132.97 L 390.92 132.97 L 394.50 132.97 L 398.08 132.97 L 401.66 132.97 L 405.24 132.97 L 408.82 132.97 L 412.40 132.97 L 415.98 132.97 L 419.56 132.97 L 423.14 132.97 L 426.72 132.97 L 430.31 132.97 L 433.89 132.97 L 437.47 132.97 L 441.05 132.97 L 444.63 132.97 L 448.21 132.97 L 451.79 132.97 L 455.37 132.97 L 458.95 132.97 L 462.53 132.97 L 466.11 132.97 L 469.69 132.97 L 473.28 132.97 L 476.86 132.97 L 480.44 132.97 L 484.02 132.97 L 487.60 132.97 L 491.18 132.97 L 494.76 132.97 L 498.34 132.97 L 501.92 132.97 L 505.50 132.97 L 509.08 132.97 L 512.66 132.97 L 516.24 132.97 L 519.83 132.97 L 523.41 132.97 L 526.99 132.97 L 530.57 132.97 L 534.15 132.97 L 537.73 132.97 L 541.31 132.97 L 544.89 132.97 L 548.47 132.97 L 552.05 132.97 L 555.63 132.97 L 559.21 132.97 L 562.79 132.97 L 566.38 132.97 L 569.96 132.97 L 573.54 132.97 L 577.12 132.97 L 580.70 132.97 L 584.28 132.97 L 587.86 124.51 L 591.44 120.64 L 595.02 116.77 L 598.60 112.90 L 602.18 109.03 L 605.76 105.97 L 609.34 105.97 L 612.93 105.97 L 616.51 105.97 L 620.09 105.97 L 623.67 105.79 L 627.25 103.09 L 630.83 98.41 L 634.41 98.41 L 637.99 98.41 L 641.57 98.41 L 645.15 98.41 L 648.73 98.41 L 652.31 98.41 L 655.90 98.41 L 659.48 98.41 L 663.06 98.41 L 666.64 98.41 L 670.22 98.41 L 673.80 98.41 L 677.38 98.41 L 680.96 98.41 L 684.54 98.41 L 688.12 98.41 L 691.70 98.41 L 695.28 98.41 L 698.86 98.41 L 702.45 98.41 L 706.03 98.41 L 709.61 98.41 L 713.19 98.41 L 716.77 98.41 L 720.35 98.41 L 723.93 98.41 L 727.51 98.41 L 731.09 98.41 L 734.67 98.41 L 738.25 98.41 L 741.83 98.41 L 745.41 98.41 L 749.00 98.41 L 752.58 98.41 L 756.16 98.41 L 759.74 98.41 L 763.32 98.41 L 766.90 98.41 L 770.48 98.41 L 774.06 98.41 L 777.64 98.41 L 781.22 98.41 L 784.80 98.41 L 788.38 98.41 L 791.97 98.41 L 795.55 98.41 L 799.13 98.41 L 802.71 98.41 L 806.29 98.41 L 809.87 98.41 L 813.45 98.41 L 817.03 98.41 L 820.61 98.41 L 824.19 98.41 L 827.77 98.41 L 831.35 98.41 L 834.93 98.41 L 838.52 98.41 L 842.10 98.41 L 845.68 98.41 L 849.26 98.41 L 852.84 98.41 L 856.42 98.41 L 860.00 98.41" fill="none" stroke="#3fb950" stroke-width="2"/>
    <circle cx="860.00" cy="98.41" r="3" fill="#3fb950"/>
    <text x="40.00" y="235.00" font-size="9" fill="#c9d1d9" text-anchor="middle" transform="rotate(-45 40.00 235.00)">09.08.2025</text><text x="122.36" y="235.00" font-size="9" fill="#c9d1d9" text-anchor="middle" transform="rotate(-45 122.36 235.00)">09.08.2025</text><text x="204.72" y="235.00" font-size="9" fill="#c9d1d9" text-anchor="middle" transform="rotate(-45 204.72 235.00)">22.08.2025</text><text x="287.07" y="235.00" font-size="9" fill="#c9d1d9" text-anchor="middle" transform="rotate(-45 287.07 235.00)">12.09.2025</text><text x="369.43" y="235.00" font-size="9" fill="#c9d1d9" text-anchor="middle" transform="rotate(-45 369.43 235.00)">05.10.2025</text><text x="451.79" y="235.00" font-size="9" fill="#c9d1d9" text-anchor="middle" transform="rotate(-45 451.79 235.00)">28.10.2025</text><text x="534.15" y="235.00" font-size="9" fill="#c9d1d9" text-anchor="middle" transform="rotate(-45 534.15 235.00)">20.11.2025</text><text x="616.51" y="235.00" font-size="9" fill="#c9d1d9" text-anchor="middle" transform="rotate(-45 616.51 235.00)">06.12.2025</text><text x="698.86" y="235.00" font-size="9" fill="#c9d1d9" text-anchor="middle" transform="rotate(-45 698.86 235.00)">26.12.2025</text><text x="781.22" y="235.00" font-size="9" fill="#c9d1d9" text-anchor="middle" transform="rotate(-45 781.22 235.00)">18.01.2026</text>
  </g>
</svg>