<svg xmlns="http://www.w3.org/2000/svg" width="900" height="290" style="font-family: -apple-system, BlinkMacSystemFont, 'Segoe UI', Helvetica, Arial, sans-serif;">
  <rect width="100%" height="100%" fill="white"/>
  <g>
    <line x1="40" y1="220.00" x2="860" y2="220.00" stroke="#e5e7eb"/><text x="32" y="224.00" font-size="10" fill="#111827" text-anchor="end">0</text><line x1="40" y1="175.00" x2="860" y2="175.00" stroke="#e5e7eb"/><text x="32" y="179.00" font-size="10" fill="#111827" text-anchor="end">500</text><line x1="40" y1="130.00" x2="860" y2="130.00" stroke="#e5e7eb"/><text x="32" y="134.00" font-size="10" fill="#111827" text-anchor="end">1k</text><line x1="40" y1="85.00" x2="860" y2="85.00" stroke="#e5e7eb"/><text x="32" y="89.00" font-size="10" fill="#111827" text-anchor="end">1.5k</text><line x1="40" y1="40.00" x2="860" y2="40.00" stroke="#e5e7eb"/><text x="32" y="44.00" font-size="10" fill="#111827" text-anchor="end">2k</text>
    <line x1="40.00" y1="40" x2="40.00" y2="220" stroke="#e5e7eb" opacity="0.5"/><line x1="119.09" y1="40" x2="119.09" y2="220" stroke="#e5e7eb" opacity="0.5"/><line x1="198.17" y1="40" x2="198.17" y2="220" stroke="#e5e7eb" opacity="0.5"/><line x1="277.26" y1="40" x2="277.26" y2="220" stroke="#e5e7eb" opacity="0.5"/><line x1="356.35" y1="40" x2="356.35" y2="220" stroke="#e5e7eb" opacity="0.5"/><line x1="435.43" y1="40" x2="435.43" y2="220" stroke="#e5e7eb" opacity="0.5"/><line x1="514.52" y1="40" x2="514.52" y2="220" stroke="#e5e7eb" opacity="0.5"/><line x1="593.60" y1="40" x2="593.60" y2="220" stroke="#e5e7eb" opacity="0.5"/><line x1="672.69" y1="40" x2="672.69" y2="220" stroke="#e5e7eb" opacity="0.5"/><line x1="751.78" y1="40" x2="751.78" y2="220" stroke="#e5e7eb" opacity="0.5"/><line x1="830.86" y1="40" x2="830.86" y2="220" stroke="#e5e7eb" opacity="0.5"/>
    <line x1="40" y1="220" x2="860" y2="220" stroke="#9ca3af"/>
    <line x1="40" y1="40"   x2="40"   y2="220" stroke="#9ca3af"/>
    <path d="M 40.00 219.82 L 44.16 214.15 L 48.32 214.06 L 52.49 214.06 L 56.65 213.25 L 60.81 213.25 L 64.97 204.88 L 69.14 185.98 L 73.30 185.98 L 77.46 180.94 L 81.62 152.59 L 85.79 159.97 L 89.95 158.89 L 94.11 158.17 L 98.27 139.63 L 102.44 139.63 L 106.60 157.18 L 110.76 154.66 L 114.92 154.39 L 119.09 151.60 L 123.25 150.97 L 127.41 150.70 L 131.57 149.80 L 135.74 149.80 L 139.90 147.46 L 144.06 144.94 L 148.22 144.76 L 152.39 140.71 L 156.55 134.23 L 160.71 134.23 L 164.87 133.69 L 169.04 133.69 L 173.20 133.69 L 177.36 133.69 L 181.52 133.69 L 185.69 133.69 L 189.85 132.97 L 194.01 132.97 L 198.17 132.97 L 202.34 132.97 L 206.50 132.97 L 210.66 132.97 L 214.82 132.97 L 218.98 132.97 L 223.15 132.97 L 227.31 132.97 L 231.47 132.97 L 235.63 132.97 L 239.80 132.97 L 243.96 132.97 L 248.12 132.97 L 252.28 132.97 L 256.45 132.97 L 260.61 132.97 L 264.77 132.97 L 268.93 132.97 L 273.10 132.97 L 277.26 132.97 L 281.42 132.97 L 285.58 132.97 L 289.75 132.97 L 293.91 132.97 L 298.07 132.97 L 302.23 132.97 L 306.40 132.97 L 310.56 132.97 L 314.72 132.97 L 318.88 132.97 L 323.05 132.97 L 327.21 132.97 L 331.37 132.97 L 335.53 132.97 L 339.70 132.97 L 343.86 132.97 L 348.02 132.97 L 352.18 132.97 L 356.35 132.97 L 360.51 132.97 L 364.67 132.97 L 368.83 132.97 L 372.99 132.97 L 377.16 132.97 L 381.32 132.97 L 385.48 132.97 L 389.64 132.97 L 393.81 132.97 L 397.97 132.97 L 402.13 132.97 L 406.29 132.97 L 410.46 132.97 L 414.62 132.97 L 418.78 132.97 L 422.94 132.97 L 427.11 132.97 L 431.27 132.97 L 435.43 132.97 L 439.59 132.97 L 443.76 132.97 L 447.92 132.97 L 452.08 132.97 L 456.24 132.97 L 460.41 132.97 L 464.57 132.97 L 468.73 132.97 L 472.89 132.97 L 477.06 132.97 L 481.22 132.97 L 485.38 132.97 L 489.54 132.97 L 493.71 132.97 L 497.87 132.97 L 502.03 132.97 L 506.19 132.97 L 510.36 132.97 L 514.52 132.97 L 518.68 132.97 L 522.84 132.97 L 527.01 132.97 L 531.17 132.97 L 535.33 132.97 L 539.49 132.97 L 543.65 132.97 L 547.82 132.97 L 551.98 132.97 L 556.14 132.97 L 560.30 132.97 L 564.47 132.97 L 568.63 132.97 L 572.79 132.97 L 576.95 132.97 L 581.12 132.97 L 585.28 132.97 L 589.44 132.97 L 593.60 132.97 L 597.77 132.97 L 601.93 132.97 L 606.09 132.97 L 610.25 132.97 L 614.42 132.97 L 618.58 132.97 L 622.74 132.97 L 626.90 132.97 L 631.07 132.97 L 635.23 132.97 L 639.39 132.97 L 643.55 132.97 L 647.72 132.97 L 651.88 132.97 L 656.04 132.97 L 660.20 132.97 L 664.37 132.97 L 668.53 132.97 L 672.69 132.97 L 676.85 124.51 L 681.02 120.64 L 685.18 116.77 L 689.34 112.90 L 693.50 109.03 L 697.66 105.97 L 701.83 105.97 L 705.99 105.97 L 710.15 105.97 L 714.31 105.97 L 718.48 105.79 L 722.64 103.09 L 726.80 98.41 L 730.96 98.41 L 735.13 98.41 L 739.29 98.41 L 743.45 98.41 L 747.61 98.41 L 751.78 98.41 L 755.94 98.41 L 760.10 98.41 L 764.26 98.41 L 768.43 98.41 L 772.59 98.41 L 776.75 98.41 L 780.91 98.41 L 785.08 98.41 L 789.24 98.41 L 793.40 98.41 L 797.56 98.41 L 801.73 98.41 L 805.89 98.41 L 810.05 98.41 L 814.21 98.41 L 818.38 98.41 L 822.54 98.41 L 826.70 98.41 L 830.86 98.41 L 835.03 98.41 L 839.19 98.41 L 843.35 98.41 L 847.51 98.41 L 851.68 98.41 L 855.84 98.41 L 860.00 98.41" fill="none" stroke="#111827" stroke-width="2"/>
    <circle cx="860.00" cy="98.41" r="3" fill="#111827"/>
    <text x="40.00" y="235.00" font-size="9" fill="#111827" text-anchor="middle" transform="rotate(-45 40.00 235.00)">09.08.2025</text><text x="119.09" y="235.00" font-size="9" fill="#111827" text-anchor="middle" transform="rotate(-45 119.09 235.00)">09.08.2025</text><text x="198.17" y="235.00" font-size="9" fill="#111827" text-anchor="middle" transform="rotate(-45 198.17 235.00)">14.08.2025</text><text x="277.26" y="235.00" font-size="9" fill="#111827" text-anchor="middle" transform="rotate(-45 277.26 235.00)">31.08.2025</text><text x="356.35" y="235.00" font-size="9" fill="#111827" text-anchor="middle" transform="rotate(-45 356.35 235.00)">19.09.2025</text><text x="435.43" y="235.00" font-size="9" fill="#111827" text-anchor="middle" transform="rotate(-45 435.43 235.00)">08.10.2025</text><text x="514.52" y="235.00" font-size="9" fill="#111827" text-anchor="middle" transform="rotate(-45 514.52 235.00)">27.10.2025</text><text x="593.60" y="235.00" font-size="9" fill="#111827" text-anchor="middle" transform="rotate(-45 593.60 235.00)">15.11.2025</text><text x="672.69" y="235.00" font-size="9" fill="#111827" text-anchor="middle" transform="rotate(-45 672.69 235.00)">04.12.2025</text><text x="751.78" y="235.00" font-size="9" fill="#111827" text-anchor="middle" transform="rotate(-45 751.78 235.00)">13.12.2025</text><text x="830.86" y="235.00" font-size="9" fill="#111827" text-anchor="middle" transform="rotate(-45 830.86 235.00)">01.01.2026</text>
  </g>
</svg>