<svg xmlns="http://www.w3.org/2000/svg" width="900" height="290" style="font-family: -apple-system, BlinkMacSystemFont, 'Segoe UI', Helvetica, Arial, sans-serif;">
  <rect width="100%" height="100%" fill="white"/>
  <g>
    <line x1="40" y1="220.00" x2="860" y2="220.00" stroke="#e5e7eb"/><text x="32" y="224.00" font-size="10" fill="#111827" text-anchor="end">0</text><line x1="40" y1="175.00" x2="860" y2="175.00" stroke="#e5e7eb"/><text x="32" y="179.00" font-size="10" fill="#111827" text-anchor="end">500</text><line x1="40" y1="130.00" x2="860" y2="130.00" stroke="#e5e7eb"/><text x="32" y="134.00" font-size="10" fill="#111827" text-anchor="end">1k</text><line x1="40" y1="85.00" x2="860" y2="85.00" stroke="#e5e7eb"/><text x="32" y="89.00" font-size="10" fill="#111827" text-anchor="end">1.5k</text><line x1="40" y1="40.00" x2="860" y2="40.00" stroke="#e5e7eb"/><text x="32" y="44.00" font-size="10" fill="#111827" text-anchor="end">2k</text>
    <line x1="40.00" y1="40" x2="40.00" y2="220" stroke="#e5e7eb" opacity="0.5"/><line x1="121.61" y1="40" x2="121.61" y2="220" stroke="#e5e7eb" opacity="0.5"/><line x1="203.22" y1="40" x2="203.22" y2="220" stroke="#e5e7eb" opacity="0.5"/><line x1="284.83" y1="40" x2="284.83" y2="220" stroke="#e5e7eb" opacity="0.5"/><line x1="366.45" y1="40" x2="366.45" y2="220" stroke="#e5e7eb" opacity="0.5"/><line x1="448.06" y1="40" x2="448.06" y2="220" stroke="#e5e7eb" opacity="0.5"/><line x1="529.67" y1="40" x2="529.67" y2="220" stroke="#e5e7eb" opacity="0.5"/><line x1="611.28" y1="40" x2="611.28" y2="220" stroke="#e5e7eb" opacity="0.5"/><line x1="692.89" y1="40" x2="692.89" y2="220" stroke="#e5e7eb" opacity="0.5"/><line x1="774.50" y1="40" x2="774.50" y2="220" stroke="#e5e7eb" opacity="0.5"/><line x1="856.11" y1="40" x2="856.11" y2="220" stroke="#e5e7eb" opacity="0.5"/>
    <line x1="40" y1="220" x2="860" y2="220" stroke="#9ca3af"/>
    <line x1="40" y1="40"   x2="40"   y2="220" stroke="#9ca3af"/>
    <path d="M 40.00 219.82 L 43.89 214.15 L 47.77 214.06 L 51.66 214.06 L 55.55 213.25 L 59.43 213.25 L 63.32 204.88 L 67.20 185.98 L 71.09 185.98 L 74.98 180.94 L 78.86 152.59 L 82.75 159.97 L 86.64 158.89 L 90.52 158.17 L 94.41 139.63 L 98.29 139.63 L 102.18 157.18 L 106.07 154.66 L 109.95 154.39 L 113.84 151.60 L 117.73 150.97 L 121.61 150.70 L 125.50 149.80 L 129.38 149.80 L 133.27 147.46 L 137.16 144.94 L 141.04 144.76 L 144.93 140.71 L 148.82 134.23 L 152.70 134.23 L 156.59 133.69 L 160.47 133.69 L 164.36 133.69 L 168.25 133.69 L 172.13 133.69 L 176.02 133.69 L 179.91 132.97 L 183.79 132.97 L 187.68 132.97 L 191.56 132.97 L 195.45 132.97 L 199.34 132.97 L 203.22 132.97 L 207.11 132.97 L 211.00 132.97 L 214.88 132.97 L 218.77 132.97 L 222.65 132.97 L 226.54 132.97 L 230.43 132.97 L 234.31 132.97 L 238.20 132.97 L 242.09 132.97 L 245.97 132.97 L 249.86 132.97 L 253.74 132.97 L 257.63 132.97 L 261.52 132.97 L 265.40 132.97 L 269.29 132.97 L 273.18 132.97 L 277.06 132.97 L 280.95 132.97 L 284.83 132.97 L 288.72 132.97 L 292.61 132.97 L 296.49 132.97 L 300.38 132.97 L 304.27 132.97 L 308.15 132.97 L 312.04 132.97 L 315.92 132.97 L 319.81 132.97 L 323.70 132.97 L 327.58 132.97 L 331.47 132.97 L 335.36 132.97 L 339.24 132.97 L 343.13 132.97 L 347.01 132.97 L 350.90 132.97 L 354.79 132.97 L 358.67 132.97 L 362.56 132.97 L 366.45 132.97 L 370.33 132.97 L 374.22 132.97 L 378.10 132.97 L 381.99 132.97 L 385.88 132.97 L 389.76 132.97 L 393.65 132.97 L 397.54 132.97 L 401.42 132.97 L 405.31 132.97 L 409.19 132.97 L 413.08 132.97 L 416.97 132.97 L 420.85 132.97 L 424.74 132.97 L 428.63 132.97 L 432.51 132.97 L 436.40 132.97 L 440.28 132.97 L 444.17 132.97 L 448.06 132.97 L 451.94 132.97 L 455.83 132.97 L 459.72 132.97 L 463.60 132.97 L 467.49 132.97 L 471.37 132.97 L 475.26 132.97 L 479.15 132.97 L 483.03 132.97 L 486.92 132.97 L 490.81 132.97 L 494.69 132.97 L 498.58 132.97 L 502.46 132.97 L 506.35 132.97 L 510.24 132.97 L 514.12 132.97 L 518.01 132.97 L 521.90 132.97 L 525.78 132.97 L 529.67 132.97 L 533.55 132.97 L 537.44 132.97 L 541.33 132.97 L 545.21 132.97 L 549.10 132.97 L 552.99 132.97 L 556.87 132.97 L 560.76 132.97 L 564.64 132.97 L 568.53 132.97 L 572.42 132.97 L 576.30 132.97 L 580.19 132.97 L 584.08 132.97 L 587.96 132.97 L 591.85 132.97 L 595.73 132.97 L 599.62 132.97 L 603.51 132.97 L 607.39 132.97 L 611.28 132.97 L 615.17 132.97 L 619.05 132.97 L 622.94 132.97 L 626.82 132.97 L 630.71 132.97 L 634.60 124.51 L 638.48 120.64 L 642.37 116.77 L 646.26 112.90 L 650.14 109.03 L 654.03 105.97 L 657.91 105.97 L 661.80 105.97 L 665.69 105.97 L 669.57 105.97 L 673.46 105.79 L 677.35 103.09 L 681.23 98.41 L 685.12 98.41 L 689.00 98.41 L 692.89 98.41 L 696.78 98.41 L 700.66 98.41 L 704.55 98.41 L 708.44 98.41 L 712.32 98.41 L 716.21 98.41 L 720.09 98.41 L 723.98 98.41 L 727.87 98.41 L 731.75 98.41 L 735.64 98.41 L 739.53 98.41 L 743.41 98.41 L 747.30 98.41 L 751.18 98.41 L 755.07 98.41 L 758.96 98.41 L 762.84 98.41 L 766.73 98.41 L 770.62 98.41 L 774.50 98.41 L 778.39 98.41 L 782.27 98.41 L 786.16 98.41 L 790.05 98.41 L 793.93 98.41 L 797.82 98.41 L 801.71 98.41 L 805.59 98.41 L 809.48 98.41 L 813.36 98.41 L 817.25 98.41 L 821.14 98.41 L 825.02 98.41 L 828.91 98.41 L 832.80 98.41 L 836.68 98.41 L 840.57 98.41 L 844.45 98.41 L 848.34 98.41 L 852.23 98.41 L 856.11 98.41 L 860.00 98.41" fill="none" stroke="#111827" stroke-width="2"/>
    <circle cx="860.00" cy="98.41" r="3" fill="#111827"/>
    <text x="40.00" y="235.00" font-size="9" fill="#111827" text-anchor="middle" transform="rotate(-45 40.00 235.00)">09.08.2025</text><text x="121.61" y="235.00" font-size="9" fill="#111827" text-anchor="middle" transform="rotate(-45 121.61 235.00)">09.08.2025</text><text x="203.22" y="235.00" font-size="9" fill="#111827" text-anchor="middle" transform="rotate(-45 203.22 235.00)">18.08.2025</text><text x="284.83" y="235.00" font-size="9" fill="#111827" text-anchor="middle" transform="rotate(-45 284.83 235.00)">06.09.2025</text><text x="366.45" y="235.00" font-size="9" fill="#111827" text-anchor="middle" transform="rotate(-45 366.45 235.00)">27.09.2025</text><text x="448.06" y="235.00" font-size="9" fill="#111827" text-anchor="middle" transform="rotate(-45 448.06 235.00)">18.10.2025</text><text x="529.67" y="235.00" font-size="9" fill="#111827" text-anchor="middle" transform="rotate(-45 529.67 235.00)">08.11.2025</text><text x="611.28" y="235.00" font-size="9" fill="#111827" text-anchor="middle" transform="rotate(-45 611.28 235.00)">29.11.2025</text><text x="692.89" y="235.00" font-size="9" fill="#111827" text-anchor="middle" transform="rotate(-45 692.89 235.00)">10.12.2025</text><text x="774.50" y="235.00" font-size="9" fill="#111827" text-anchor="middle" transform="rotate(-45 774.50 235.00)">31.12.2025</text><text x="856.11" y="235.00" font-size="9" fill="#111827" text-anchor="middle" transform="rotate(-45 856.11 235.00)">21.01.2026</text>
  </g>
</svg>