<svg xmlns="http://www.w3.org/2000/svg" width="900" height="290" style="font-family: -apple-system, BlinkMacSystemFont, 'Segoe UI', Helvetica, Arial, sans-serif;">
  <rect width="100%" height="100%" fill="white"/>
  <g>
    <line x1="40" y1="220.00" x2="860" y2="220.00" stroke="#e5e7eb"/><text x="32" y="224.00" font-size="10" fill="#111827" text-anchor="end">0</text><line x1="40" y1="175.00" x2="860" y2="175.00" stroke="#e5e7eb"/><text x="32" y="179.00" font-size="10" fill="#111827" text-anchor="end">500</text><line x1="40" y1="130.00" x2="860" y2="130.00" stroke="#e5e7eb"/><text x="32" y="134.00" font-size="10" fill="#111827" text-anchor="end">1k</text><line x1="40" y1="85.00" x2="860" y2="85.00" stroke="#e5e7eb"/><text x="32" y="89.00" font-size="10" fill="#111827" text-anchor="end">1.5k</text><line x1="40" y1="40.00" x2="860" y2="40.00" stroke="#e5e7eb"/><text x="32" y="44.00" font-size="10" fill="#111827" text-anchor="end">2k</text>
    <line x1="40.00" y1="40" x2="40.00" y2="220" stroke="#e5e7eb" opacity="0.5"/><line x1="121.63" y1="40" x2="121.63" y2="220" stroke="#e5e7eb" opacity="0.5"/><line x1="203.26" y1="40" x2="203.26" y2="220" stroke="#e5e7eb" opacity="0.5"/><line x1="284.89" y1="40" x2="284.89" y2="220" stroke="#e5e7eb" opacity="0.5"/><line x1="366.52" y1="40" x2="366.52" y2="220" stroke="#e5e7eb" opacity="0.5"/><line x1="448.14" y1="40" x2="448.14" y2="220" stroke="#e5e7eb" opacity="0.5"/><line x1="529.77" y1="40" x2="529.77" y2="220" stroke="#e5e7eb" opacity="0.5"/><line x1="611.40" y1="40" x2="611.40" y2="220" stroke="#e5e7eb" opacity="0.5"/><line x1="693.03" y1="40" x2="693.03" y2="220" stroke="#e5e7eb" opacity="0.5"/><line x1="774.66" y1="40" x2="774.66" y2="220" stroke="#e5e7eb" opacity="0.5"/><line x1="856.29" y1="40" x2="856.29" y2="220" stroke="#e5e7eb" opacity="0.5"/>
    <line x1="40" y1="220" x2="860" y2="220" stroke="#9ca3af"/>
    <line x1="40" y1="40"   x2="40"   y2="220" stroke="#9ca3af"/>
    <path d="M 40.00 219.82 L 43.71 214.15 L 47.42 214.06 L 51.13 214.06 L 54.84 213.25 L 58.55 213.25 L 62.26 204.88 L 65.97 185.98 L 69.68 185.98 L 73.39 180.94 L 77.10 152.59 L 80.81 159.97 L 84.52 158.89 L 88.24 158.17 L 91.95 139.63 L 95.66 139.63 L 99.37 157.18 L 103.08 154.66 L 106.79 154.39 L 110.50 151.60 L 114.21 150.97 L 117.92 150.70 L 121.63 149.80 L 125.34 149.80 L 129.05 147.46 L 132.76 144.94 L 136.47 144.76 L 140.18 140.71 L 143.89 134.23 L 147.60 134.23 L 151.31 133.69 L 155.02 133.69 L 158.73 133.69 L 162.44 133.69 L 166.15 133.69 L 169.86 133.69 L 173.57 132.97 L 177.29 132.97 L 181.00 132.97 L 184.71 132.97 L 188.42 132.97 L 192.13 132.97 L 195.84 132.97 L 199.55 132.97 L 203.26 132.97 L 206.97 132.97 L 210.68 132.97 L 214.39 132.97 L 218.10 132.97 L 221.81 132.97 L 225.52 132.97 L 229.23 132.97 L 232.94 132.97 L 236.65 132.97 L 240.36 132.97 L 244.07 132.97 L 247.78 132.97 L 251.49 132.97 L 255.20 132.97 L 258.91 132.97 L 262.62 132.97 L 266.33 132.97 L 270.05 132.97 L 273.76 132.97 L 277.47 132.97 L 281.18 132.97 L 284.89 132.97 L 288.60 132.97 L 292.31 132.97 L 296.02 132.97 L 299.73 132.97 L 303.44 132.97 L 307.15 132.97 L 310.86 132.97 L 314.57 132.97 L 318.28 132.97 L 321.99 132.97 L 325.70 132.97 L 329.41 132.97 L 333.12 132.97 L 336.83 132.97 L 340.54 132.97 L 344.25 132.97 L 347.96 132.97 L 351.67 132.97 L 355.38 132.97 L 359.10 132.97 L 362.81 132.97 L 366.52 132.97 L 370.23 132.97 L 373.94 132.97 L 377.65 132.97 L 381.36 132.97 L 385.07 132.97 L 388.78 132.97 L 392.49 132.97 L 396.20 132.97 L 399.91 132.97 L 403.62 132.97 L 407.33 132.97 L 411.04 132.97 L 414.75 132.97 L 418.46 132.97 L 422.17 132.97 L 425.88 132.97 L 429.59 132.97 L 433.30 132.97 L 437.01 132.97 L 440.72 132.97 L 444.43 132.97 L 448.14 132.97 L 451.86 132.97 L 455.57 132.97 L 459.28 132.97 L 462.99 132.97 L 466.70 132.97 L 470.41 132.97 L 474.12 132.97 L 477.83 132.97 L 481.54 132.97 L 485.25 132.97 L 488.96 132.97 L 492.67 132.97 L 496.38 132.97 L 500.09 132.97 L 503.80 132.97 L 507.51 132.97 L 511.22 132.97 L 514.93 132.97 L 518.64 132.97 L 522.35 132.97 L 526.06 132.97 L 529.77 132.97 L 533.48 132.97 L 537.19 132.97 L 540.90 132.97 L 544.62 132.97 L 548.33 132.97 L 552.04 132.97 L 555.75 132.97 L 559.46 132.97 L 563.17 132.97 L 566.88 132.97 L 570.59 132.97 L 574.30 132.97 L 578.01 132.97 L 581.72 132.97 L 585.43 132.97 L 589.14 132.97 L 592.85 132.97 L 596.56 132.97 L 600.27 132.97 L 603.98 132.97 L 607.69 124.51 L 611.40 120.64 L 615.11 116.77 L 618.82 112.90 L 622.53 109.03 L 626.24 105.97 L 629.95 105.97 L 633.67 105.97 L 637.38 105.97 L 641.09 105.97 L 644.80 105.79 L 648.51 103.09 L 652.22 98.41 L 655.93 98.41 L 659.64 98.41 L 663.35 98.41 L 667.06 98.41 L 670.77 98.41 L 674.48 98.41 L 678.19 98.41 L 681.90 98.41 L 685.61 98.41 L 689.32 98.41 L 693.03 98.41 L 696.74 98.41 L 700.45 98.41 L 704.16 98.41 L 707.87 98.41 L 711.58 98.41 L 715.29 98.41 L 719.00 98.41 L 722.71 98.41 L 726.43 98.41 L 730.14 98.41 L 733.85 98.41 L 737.56 98.41 L 741.27 98.41 L 744.98 98.41 L 748.69 98.41 L 752.40 98.41 L 756.11 98.41 L 759.82 98.41 L 763.53 98.41 L 767.24 98.41 L 770.95 98.41 L 774.66 98.41 L 778.37 98.41 L 782.08 98.41 L 785.79 98.41 L 789.50 98.41 L 793.21 98.41 L 796.92 98.41 L 800.63 98.41 L 804.34 98.41 L 808.05 98.41 L 811.76 98.41 L 815.48 98.41 L 819.19 98.41 L 822.90 98.41 L 826.61 98.41 L 830.32 98.41 L 834.03 98.41 L 837.74 98.41 L 841.45 98.41 L 845.16 98.41 L 848.87 98.41 L 852.58 98.41 L 856.29 98.41 L 860.00 98.41" fill="none" stroke="#111827" stroke-width="2"/>
    <circle cx="860.00" cy="98.41" r="3" fill="#111827"/>
    <text x="40.00" y="235.00" font-size="9" fill="#111827" text-anchor="middle" transform="rotate(-45 40.00 235.00)">09.08.2025</text><text x="121.63" y="235.00" font-size="9" fill="#111827" text-anchor="middle" transform="rotate(-45 121.63 235.00)">09.08.2025</text><text x="203.26" y="235.00" font-size="9" fill="#111827" text-anchor="middle" transform="rotate(-45 203.26 235.00)">20.08.2025</text><text x="284.89" y="235.00" font-size="9" fill="#111827" text-anchor="middle" transform="rotate(-45 284.89 235.00)">09.09.2025</text><text x="366.52" y="235.00" font-size="9" fill="#111827" text-anchor="middle" transform="rotate(-45 366.52 235.00)">01.10.2025</text><text x="448.14" y="235.00" font-size="9" fill="#111827" text-anchor="middle" transform="rotate(-45 448.14 235.00)">23.10.2025</text><text x="529.77" y="235.00" font-size="9" fill="#111827" text-anchor="middle" transform="rotate(-45 529.77 235.00)">14.11.2025</text><text x="611.40" y="235.00" font-size="9" fill="#111827" text-anchor="middle" transform="rotate(-45 611.40 235.00)">04.12.2025</text><text x="693.03" y="235.00" font-size="9" fill="#111827" text-anchor="middle" transform="rotate(-45 693.03 235.00)">18.12.2025</text><text x="774.66" y="235.00" font-size="9" fill="#111827" text-anchor="middle" transform="rotate(-45 774.66 235.00)">09.01.2026</text><text x="856.29" y="235.00" font-size="9" fill="#111827" text-anchor="middle" transform="rotate(-45 856.29 235.00)">31.01.2026</text>
  </g>
</svg>