<svg xmlns="http://www.w3.org/2000/svg" width="900" height="290" style="font-family: -apple-system, BlinkMacSystemFont, 'Segoe UI', Helvetica, Arial, sans-serif;">
  <rect width="100%" height="100%" fill="#0d1117"/>
  <g>
    <line x1="40" y1="220.00" x2="860" y2="220.00" stroke="#30363d"/><text x="32" y="224.00" font-size="10" fill="#c9d1d9" text-anchor="end">0</text><line x1="40" y1="175.00" x2="860" y2="175.00" stroke="#30363d"/><text x="32" y="179.00" font-size="10" fill="#c9d1d9" text-anchor="end">500</text><line x1="40" y1="130.00" x2="860" y2="130.00" stroke="#30363d"/><text x="32" y="134.00" font-size="10" fill="#c9d1d9" text-anchor="end">1k</text><line x1="40" y1="85.00" x2="860" y2="85.00" stroke="#30363d"/><text x="32" y="89.00" font-size="10" fill="#c9d1d9" text-anchor="end">1.5k</text><line x1="40" y1="40.00" x2="860" y2="40.00" stroke="#30363d"/><text x="32" y="44.00" font-size="10" fill="#c9d1d9" text-anchor="end">2k</text>
    <line x1="40.00" y1="40" x2="40.00" y2="220" stroke="#30363d" opacity="0.5"/><line x1="115.69" y1="40" x2="115.69" y2="220" stroke="#30363d" opacity="0.5"/><line x1="191.38" y1="40" x2="191.38" y2="220" stroke="#30363d" opacity="0.5"/><line x1="267.08" y1="40" x2="267.08" y2="220" stroke="#30363d" opacity="0.5"/><line x1="342.77" y1="40" x2="342.77" y2="220" stroke="#30363d" opacity="0.5"/><line x1="418.46" y1="40" x2="418.46" y2="220" stroke="#30363d" opacity="0.5"/><line x1="494.15" y1="40" x2="494.15" y2="220" stroke="#30363d" opacity="0.5"/><line x1="569.85" y1="40" x2="569.85" y2="220" stroke="#30363d" opacity="0.5"/><line x1="645.54" y1="40" x2="645.54" y2="220" stroke="#30363d" opacity="0.5"/><line x1="721.23" y1="40" x2="721.23" y2="220" stroke="#30363d" opacity="0.5"/><line x1="796.92" y1="40" x2="796.92" y2="220" stroke="#30363d" opacity="0.5"/>
    <line x1="40" y1="220" x2="860" y2="220" stroke="#30363d"/>
    <line x1="40" y1="40"   x2="40"   y2="220" stroke="#30363d"/>
    <path d="M 40.00 219.82 L 52.62 214.15 L 65.23 214.06 L 77.85 214.06 L 90.46 213.25 L 103.08 213.25 L 115.69 204.88 L 128.31 185.98 L 140.92 185.98 L 153.54 180.94 L 166.15 152.59 L 178.77 159.97 L 191.38 158.89 L 204.00 158.17 L 216.62 139.63 L 229.23 139.63 L 241.85 157.18 L 254.46 154.66 L 267.08 154.39 L 279.69 151.60 L 292.31 150.97 L 304.92 150.70 L 317.54 149.80 L 330.15 149.80 L 342.77 147.46 L 355.38 144.94 L 368.00 144.76 L 380.62 140.71 L 393.23 134.23 L 405.85 134.23 L 418.46 133.69 L 431.08 133.69 L 443.69 133.69 L 456.31 133.69 L 468.92 133.69 L 481.54 133.69 L 494.15 132.97 L 506.77 132.97 L 519.38 132.97 L 532.00 132.97 L 544.62 132.97 L 557.23 132.97 L 569.85 132.97 L 582.46 132.97 L 595.08 132.97 L 607.69 132.97 L 620.31 132.97 L 632.92 132.97 L 645.54 132.97 L 658.15 132.97 L 670.77 132.97 L 683.38 132.97 L 696.00 132.97 L 708.62 132.97 L 721.23 132.97 L 733.85 132.97 L 746.46 132.97 L 759.08 132.97 L 771.69 132.97 L 784.31 132.97 L 796.92 132.97 L 809.54 132.97 L 822.15 132.97 L 834.77 132.97 L 847.38 132.97 L 860.00 132.97" fill="none" stroke="#3fb950" stroke-width="2"/>
    <circle cx="860.00" cy="132.97" r="3" fill="#3fb950"/>
    <text x="40.00" y="235.00" font-size="9" fill="#c9d1d9" text-anchor="middle" transform="rotate(-45 40.00 235.00)">09.08.2025</text><text x="115.69" y="235.00" font-size="9" fill="#c9d1d9" text-anchor="middle" transform="rotate(-45 115.69 235.00)">09.08.2025</text><text x="191.38" y="235.00" font-size="9" fill="#c9d1d9" text-anchor="middle" transform="rotate(-45 191.38 235.00)">09.08.2025</text><text x="267.08" y="235.00" font-size="9" fill="#c9d1d9" text-anchor="middle" transform="rotate(-45 267.08 235.00)">09.08.2025</text><text x="342.77" y="235.00" font-size="9" fill="#c9d1d9" text-anchor="middle" transform="rotate(-45 342.77 235.00)">09.08.2025</text><text x="418.46" y="235.00" font-size="9" fill="#c9d1d9" text-anchor="middle" transform="rotate(-45 418.46 235.00)">13.08.2025</text><text x="494.15" y="235.00" font-size="9" fill="#c9d1d9" text-anchor="middle" transform="rotate(-45 494.15 235.00)">13.08.2025</text><text x="569.85" y="235.00" font-size="9" fill="#c9d1d9" text-anchor="middle" transform="rotate(-45 569.85 235.00)">18.08.2025</text><text x="645.54" y="235.00" font-size="9" fill="#c9d1d9" text-anchor="middle" transform="rotate(-45 645.54 235.00)">24.08.2025</text><text x="721.23" y="235.00" font-size="9" fill="#c9d1d9" text-anchor="middle" transform="rotate(-45 721.23 235.00)">28.08.2025</text><text x="796.92" y="235.00" font-size="9" fill="#c9d1d9" text-anchor="middle" transform="rotate(-45 796.92 235.00)">03.09.2025</text>
  </g>
</svg>