<svg xmlns="http://www.w3.org/2000/svg" width="900" height="290" style="font-family: -apple-system, BlinkMacSystemFont, 'Segoe UI', Helvetica, Arial, sans-serif;">
  <rect width="100%" height="100%" fill="#0d1117"/>
  <g>
    <line x1="40" y1="220.00" x2="860" y2="220.00" stroke="#30363d"/><text x="32" y="224.00" font-size="10" fill="#c9d1d9" text-anchor="end">0</text><line x1="40" y1="175.00" x2="860" y2="175.00" stroke="#30363d"/><text x="32" y="179.00" font-size="10" fill="#c9d1d9" text-anchor="end">500</text><line x1="40" y1="130.00" x2="860" y2="130.00" stroke="#30363d"/><text x="32" y="134.00" font-size="10" fill="#c9d1d9" text-anchor="end">1k</text><line x1="40" y1="85.00" x2="860" y2="85.00" stroke="#30363d"/><text x="32" y="89.00" font-size="10" fill="#c9d1d9" text-anchor="end">1.5k</text><line x1="40" y1="40.00" x2="860" y2="40.00" stroke="#30363d"/><text x="32" y="44.00" font-size="10" fill="#c9d1d9" text-anchor="end">2k</text>
    <line x1="40.00" y1="40" x2="40.00" y2="220" stroke="#30363d" opacity="0.5"/><line x1="120.22" y1="40" x2="120.22" y2="220" stroke="#30363d" opacity="0.5"/><line x1="200.43" y1="40" x2="200.43" y2="220" stroke="#30363d" opacity="0.5"/><line x1="280.65" y1="40" x2="280.65" y2="220" stroke="#30363d" opacity="0.5"/><line x1="360.87" y1="40" x2="360.87" y2="220" stroke="#30363d" opacity="0.5"/><line x1="441.09" y1="40" x2="441.09" y2="220" stroke="#30363d" opacity="0.5"/><line x1="521.30" y1="40" x2="521.30" y2="220" stroke="#30363d" opacity="0.5"/><line x1="601.52" y1="40" x2="601.52" y2="220" stroke="#30363d" opacity="0.5"/><line x1="681.74" y1="40" x2="681.74" y2="220" stroke="#30363d" opacity="0.5"/><line x1="761.96" y1="40" x2="761.96" y2="220" stroke="#30363d" opacity="0.5"/><line x1="842.17" y1="40" x2="842.17" y2="220" stroke="#30363d" opacity="0.5"/>
    <line x1="40" y1="220" x2="860" y2="220" stroke="#30363d"/>
    <line x1="40" y1="40"   x2="40"   y2="220" stroke="#30363d"/>
    <path d="M 40.00 219.82 L 44.46 214.15 L 48.91 214.06 L 53.37 214.06 L 57.83 213.25 L 62.28 213.25 L 66.74 204.88 L 71.20 185.98 L 75.65 185.98 L 80.11 180.94 L 84.57 152.59 L 89.02 159.97 L 93.48 158.89 L 97.93 158.17 L 102.39 139.63 L 106.85 139.63 L 111.30 157.18 L 115.76 154.66 L 120.22 154.39 L 124.67 151.60 L 129.13 150.97 L 133.59 150.70 L 138.04 149.80 L 142.50 149.80 L 146.96 147.46 L 151.41 144.94 L 155.87 144.76 L 160.33 140.71 L 164.78 134.23 L 169.24 134.23 L 173.70 133.69 L 178.15 133.69 L 182.61 133.69 L 187.07 133.69 L 191.52 133.69 L 195.98 133.69 L 200.43 132.97 L 204.89 132.97 L 209.35 132.97 L 213.80 132.97 L 218.26 132.97 L 222.72 132.97 L 227.17 132.97 L 231.63 132.97 L 236.09 132.97 L 240.54 132.97 L 245.00 132.97 L 249.46 132.97 L 253.91 132.97 L 258.37 132.97 L 262.83 132.97 L 267.28 132.97 L 271.74 132.97 L 276.20 132.97 L 280.65 132.97 L 285.11 132.97 L 289.57 132.97 L 294.02 132.97 L 298.48 132.97 L 302.93 132.97 L 307.39 132.97 L 311.85 132.97 L 316.30 132.97 L 320.76 132.97 L 325.22 132.97 L 329.67 132.97 L 334.13 132.97 L 338.59 132.97 L 343.04 132.97 L 347.50 132.97 L 351.96 132.97 L 356.41 132.97 L 360.87 132.97 L 365.33 132.97 L 369.78 132.97 L 374.24 132.97 L 378.70 132.97 L 383.15 132.97 L 387.61 132.97 L 392.07 132.97 L 396.52 132.97 L 400.98 132.97 L 405.43 132.97 L 409.89 132.97 L 414.35 132.97 L 418.80 132.97 L 423.26 132.97 L 427.72 132.97 L 432.17 132.97 L 436.63 132.97 L 441.09 132.97 L 445.54 132.97 L 450.00 132.97 L 454.46 132.97 L 458.91 132.97 L 463.37 132.97 L 467.83 132.97 L 472.28 132.97 L 476.74 132.97 L 481.20 132.97 L 485.65 132.97 L 490.11 132.97 L 494.57 132.97 L 499.02 132.97 L 503.48 132.97 L 507.93 132.97 L 512.39 132.97 L 516.85 132.97 L 521.30 132.97 L 525.76 132.97 L 530.22 132.97 L 534.67 132.97 L 539.13 132.97 L 543.59 132.97 L 548.04 132.97 L 552.50 132.97 L 556.96 132.97 L 561.41 132.97 L 565.87 132.97 L 570.33 132.97 L 574.78 132.97 L 579.24 132.97 L 583.70 132.97 L 588.15 132.97 L 592.61 132.97 L 597.07 132.97 L 601.52 132.97 L 605.98 132.97 L 610.43 132.97 L 614.89 132.97 L 619.35 132.97 L 623.80 132.97 L 628.26 132.97 L 632.72 132.97 L 637.17 132.97 L 641.63 132.97 L 646.09 132.97 L 650.54 132.97 L 655.00 132.97 L 659.46 132.97 L 663.91 132.97 L 668.37 132.97 L 672.83 132.97 L 677.28 132.97 L 681.74 132.97 L 686.20 132.97 L 690.65 132.97 L 695.11 132.97 L 699.57 132.97 L 704.02 132.97 L 708.48 132.97 L 712.93 132.97 L 717.39 132.97 L 721.85 124.51 L 726.30 120.64 L 730.76 116.77 L 735.22 112.90 L 739.67 109.03 L 744.13 105.97 L 748.59 105.97 L 753.04 105.97 L 757.50 105.97 L 761.96 105.97 L 766.41 105.79 L 770.87 103.09 L 775.33 98.41 L 779.78 98.41 L 784.24 98.41 L 788.70 98.41 L 793.15 98.41 L 797.61 98.41 L 802.07 98.41 L 806.52 98.41 L 810.98 98.41 L 815.43 98.41 L 819.89 98.41 L 824.35 98.41 L 828.80 98.41 L 833.26 98.41 L 837.72 98.41 L 842.17 98.41 L 846.63 98.41 L 851.09 98.41 L 855.54 98.41 L 860.00 98.41" fill="none" stroke="#3fb950" stroke-width="2"/>
    <circle cx="860.00" cy="98.41" r="3" fill="#3fb950"/>
    <text x="40.00" y="235.00" font-size="9" fill="#c9d1d9" text-anchor="middle" transform="rotate(-45 40.00 235.00)">09.08.2025</text><text x="120.22" y="235.00" font-size="9" fill="#c9d1d9" text-anchor="middle" transform="rotate(-45 120.22 235.00)">09.08.2025</text><text x="200.43" y="235.00" font-size="9" fill="#c9d1d9" text-anchor="middle" transform="rotate(-45 200.43 235.00)">13.08.2025</text><text x="280.65" y="235.00" font-size="9" fill="#c9d1d9" text-anchor="middle" transform="rotate(-45 280.65 235.00)">28.08.2025</text><text x="360.87" y="235.00" font-size="9" fill="#c9d1d9" text-anchor="middle" transform="rotate(-45 360.87 235.00)">15.09.2025</text><text x="441.09" y="235.00" font-size="9" fill="#c9d1d9" text-anchor="middle" transform="rotate(-45 441.09 235.00)">03.10.2025</text><text x="521.30" y="235.00" font-size="9" fill="#c9d1d9" text-anchor="middle" transform="rotate(-45 521.30 235.00)">21.10.2025</text><text x="601.52" y="235.00" font-size="9" fill="#c9d1d9" text-anchor="middle" transform="rotate(-45 601.52 235.00)">08.11.2025</text><text x="681.74" y="235.00" font-size="9" fill="#c9d1d9" text-anchor="middle" transform="rotate(-45 681.74 235.00)">26.11.2025</text><text x="761.96" y="235.00" font-size="9" fill="#c9d1d9" text-anchor="middle" transform="rotate(-45 761.96 235.00)">07.12.2025</text><text x="842.17" y="235.00" font-size="9" fill="#c9d1d9" text-anchor="middle" transform="rotate(-45 842.17 235.00)">22.12.2025</text>
  </g>
</svg>