<svg xmlns="http://www.w3.org/2000/svg" width="900" height="290" style="font-family: -apple-system, BlinkMacSystemFont, 'Segoe UI', Helvetica, Arial, sans-serif;">
  <rect width="100%" height="100%" fill="#0d1117"/>
  <g>
    <line x1="40" y1="220.00" x2="860" y2="220.00" stroke="#30363d"/><text x="32" y="224.00" font-size="10" fill="#c9d1d9" text-anchor="end">0</text><line x1="40" y1="175.00" x2="860" y2="175.00" stroke="#30363d"/><text x="32" y="179.00" font-size="10" fill="#c9d1d9" text-anchor="end">500</text><line x1="40" y1="130.00" x2="860" y2="130.00" stroke="#30363d"/><text x="32" y="134.00" font-size="10" fill="#c9d1d9" text-anchor="end">1k</text><line x1="40" y1="85.00" x2="860" y2="85.00" stroke="#30363d"/><text x="32" y="89.00" font-size="10" fill="#c9d1d9" text-anchor="end">1.5k</text><line x1="40" y1="40.00" x2="860" y2="40.00" stroke="#30363d"/><text x="32" y="44.00" font-size="10" fill="#c9d1d9" text-anchor="end">2k</text>
    <line x1="40.00" y1="40" x2="40.00" y2="220" stroke="#30363d" opacity="0.5"/><line x1="120.66" y1="40" x2="120.66" y2="220" stroke="#30363d" opacity="0.5"/><line x1="201.31" y1="40" x2="201.31" y2="220" stroke="#30363d" opacity="0.5"/><line x1="281.97" y1="40" x2="281.97" y2="220" stroke="#30363d" opacity="0.5"/><line x1="362.62" y1="40" x2="362.62" y2="220" stroke="#30363d" opacity="0.5"/><line x1="443.28" y1="40" x2="443.28" y2="220" stroke="#30363d" opacity="0.5"/><line x1="523.93" y1="40" x2="523.93" y2="220" stroke="#30363d" opacity="0.5"/><line x1="604.59" y1="40" x2="604.59" y2="220" stroke="#30363d" opacity="0.5"/><line x1="685.25" y1="40" x2="685.25" y2="220" stroke="#30363d" opacity="0.5"/><line x1="765.90" y1="40" x2="765.90" y2="220" stroke="#30363d" opacity="0.5"/><line x1="846.56" y1="40" x2="846.56" y2="220" stroke="#30363d" opacity="0.5"/>
    <line x1="40" y1="220" x2="860" y2="220" stroke="#30363d"/>
    <line x1="40" y1="40"   x2="40"   y2="220" stroke="#30363d"/>
    <path d="M 40.00 219.82 L 53.44 214.15 L 66.89 214.06 L 80.33 214.06 L 93.77 213.25 L 107.21 213.25 L 120.66 204.88 L 134.10 185.98 L 147.54 185.98 L 160.98 180.94 L 174.43 152.59 L 187.87 159.97 L 201.31 158.89 L 214.75 158.17 L 228.20 139.63 L 241.64 139.63 L 255.08 157.18 L 268.52 154.66 L 281.97 154.39 L 295.41 151.60 L 308.85 150.97 L 322.30 150.70 L 335.74 149.80 L 349.18 149.80 L 362.62 147.46 L 376.07 144.94 L 389.51 144.76 L 402.95 140.71 L 416.39 134.23 L 429.84 134.23 L 443.28 133.69 L 456.72 133.69 L 470.16 133.69 L 483.61 133.69 L 497.05 133.69 L 510.49 133.69 L 523.93 132.97 L 537.38 132.97 L 550.82 132.97 L 564.26 132.97 L 577.70 132.97 L 591.15 132.97 L 604.59 132.97 L 618.03 132.97 L 631.48 132.97 L 644.92 132.97 L 658.36 132.97 L 671.80 132.97 L 685.25 132.97 L 698.69 132.97 L 712.13 132.97 L 725.57 132.97 L 739.02 132.97 L 752.46 132.97 L 765.90 132.97 L 779.34 132.97 L 792.79 132.97 L 806.23 132.97 L 819.67 132.97 L 833.11 132.97 L 846.56 132.97 L 860.00 132.97" fill="none" stroke="#3fb950" stroke-width="2"/>
    <circle cx="860.00" cy="132.97" r="3" fill="#3fb950"/>
    <text x="40.00" y="235.00" font-size="9" fill="#c9d1d9" text-anchor="middle" transform="rotate(-45 40.00 235.00)">09.08.2025</text><text x="120.66" y="235.00" font-size="9" fill="#c9d1d9" text-anchor="middle" transform="rotate(-45 120.66 235.00)">09.08.2025</text><text x="201.31" y="235.00" font-size="9" fill="#c9d1d9" text-anchor="middle" transform="rotate(-45 201.31 235.00)">09.08.2025</text><text x="281.97" y="235.00" font-size="9" fill="#c9d1d9" text-anchor="middle" transform="rotate(-45 281.97 235.00)">09.08.2025</text><text x="362.62" y="235.00" font-size="9" fill="#c9d1d9" text-anchor="middle" transform="rotate(-45 362.62 235.00)">09.08.2025</text><text x="443.28" y="235.00" font-size="9" fill="#c9d1d9" text-anchor="middle" transform="rotate(-45 443.28 235.00)">13.08.2025</text><text x="523.93" y="235.00" font-size="9" fill="#c9d1d9" text-anchor="middle" transform="rotate(-45 523.93 235.00)">13.08.2025</text><text x="604.59" y="235.00" font-size="9" fill="#c9d1d9" text-anchor="middle" transform="rotate(-45 604.59 235.00)">18.08.2025</text><text x="685.25" y="235.00" font-size="9" fill="#c9d1d9" text-anchor="middle" transform="rotate(-45 685.25 235.00)">24.08.2025</text><text x="765.90" y="235.00" font-size="9" fill="#c9d1d9" text-anchor="middle" transform="rotate(-45 765.90 235.00)">28.08.2025</text><text x="846.56" y="235.00" font-size="9" fill="#c9d1d9" text-anchor="middle" transform="rotate(-45 846.56 235.00)">03.09.2025</text>
  </g>
</svg>