<svg xmlns="http://www.w3.org/2000/svg" width="900" height="290" style="font-family: -apple-system, BlinkMacSystemFont, 'Segoe UI', Helvetica, Arial, sans-serif;">
  <rect width="100%" height="100%" fill="#0d1117"/>
  <g>
    <line x1="40" y1="220.00" x2="860" y2="220.00" stroke="#30363d"/><text x="32" y="224.00" font-size="10" fill="#c9d1d9" text-anchor="end">0</text><line x1="40" y1="175.00" x2="860" y2="175.00" stroke="#30363d"/><text x="32" y="179.00" font-size="10" fill="#c9d1d9" text-anchor="end">500</text><line x1="40" y1="130.00" x2="860" y2="130.00" stroke="#30363d"/><text x="32" y="134.00" font-size="10" fill="#c9d1d9" text-anchor="end">1k</text><line x1="40" y1="85.00" x2="860" y2="85.00" stroke="#30363d"/><text x="32" y="89.00" font-size="10" fill="#c9d1d9" text-anchor="end">1.5k</text><line x1="40" y1="40.00" x2="860" y2="40.00" stroke="#30363d"/><text x="32" y="44.00" font-size="10" fill="#c9d1d9" text-anchor="end">2k</text>
    <line x1="40.00" y1="40" x2="40.00" y2="220" stroke="#30363d" opacity="0.5"/><line x1="122.41" y1="40" x2="122.41" y2="220" stroke="#30363d" opacity="0.5"/><line x1="204.82" y1="40" x2="204.82" y2="220" stroke="#30363d" opacity="0.5"/><line x1="287.24" y1="40" x2="287.24" y2="220" stroke="#30363d" opacity="0.5"/><line x1="369.65" y1="40" x2="369.65" y2="220" stroke="#30363d" opacity="0.5"/><line x1="452.06" y1="40" x2="452.06" y2="220" stroke="#30363d" opacity="0.5"/><line x1="534.47" y1="40" x2="534.47" y2="220" stroke="#30363d" opacity="0.5"/><line x1="616.88" y1="40" x2="616.88" y2="220" stroke="#30363d" opacity="0.5"/><line x1="699.30" y1="40" x2="699.30" y2="220" stroke="#30363d" opacity="0.5"/><line x1="781.71" y1="40" x2="781.71" y2="220" stroke="#30363d" opacity="0.5"/>
    <line x1="40" y1="220" x2="860" y2="220" stroke="#30363d"/>
    <line x1="40" y1="40"   x2="40"   y2="220" stroke="#30363d"/>
    <path d="M 40.00 219.82 L 44.12 214.15 L 48.24 214.06 L 52.36 214.06 L 56.48 213.25 L 60.60 213.25 L 64.72 204.88 L 68.84 185.98 L 72.96 185.98 L 77.09 180.94 L 81.21 152.59 L 85.33 159.97 L 89.45 158.89 L 93.57 158.17 L 97.69 139.63 L 101.81 139.63 L 105.93 157.18 L 110.05 154.66 L 114.17 154.39 L 118.29 151.60 L 122.41 150.97 L 126.53 150.70 L 130.65 149.80 L 134.77 149.80 L 138.89 147.46 L 143.02 144.94 L 147.14 144.76 L 151.26 140.71 L 155.38 134.23 L 159.50 134.23 L 163.62 133.69 L 167.74 133.69 L 171.86 133.69 L 175.98 133.69 L 180.10 133.69 L 184.22 133.69 L 188.34 132.97 L 192.46 132.97 L 196.58 132.97 L 200.70 132.97 L 204.82 132.97 L 208.94 132.97 L 213.07 132.97 L 217.19 132.97 L 221.31 132.97 L 225.43 132.97 L 229.55 132.97 L 233.67 132.97 L 237.79 132.97 L 241.91 132.97 L 246.03 132.97 L 250.15 132.97 L 254.27 132.97 L 258.39 132.97 L 262.51 132.97 L 266.63 132.97 L 270.75 132.97 L 274.87 132.97 L 278.99 132.97 L 283.12 132.97 L 287.24 132.97 L 291.36 132.97 L 295.48 132.97 L 299.60 132.97 L 303.72 132.97 L 307.84 132.97 L 311.96 132.97 L 316.08 132.97 L 320.20 132.97 L 324.32 132.97 L 328.44 132.97 L 332.56 132.97 L 336.68 132.97 L 340.80 132.97 L 344.92 132.97 L 349.05 132.97 L 353.17 132.97 L 357.29 132.97 L 361.41 132.97 L 365.53 132.97 L 369.65 132.97 L 373.77 132.97 L 377.89 132.97 L 382.01 132.97 L 386.13 132.97 L 390.25 132.97 L 394.37 132.97 L 398.49 132.97 L 402.61 132.97 L 406.73 132.97 L 410.85 132.97 L 414.97 132.97 L 419.10 132.97 L 423.22 132.97 L 427.34 132.97 L 431.46 132.97 L 435.58 132.97 L 439.70 132.97 L 443.82 132.97 L 447.94 132.97 L 452.06 132.97 L 456.18 132.97 L 460.30 132.97 L 464.42 132.97 L 468.54 132.97 L 472.66 132.97 L 476.78 132.97 L 480.90 132.97 L 485.03 132.97 L 489.15 132.97 L 493.27 132.97 L 497.39 132.97 L 501.51 132.97 L 505.63 132.97 L 509.75 132.97 L 513.87 132.97 L 517.99 132.97 L 522.11 132.97 L 526.23 132.97 L 530.35 132.97 L 534.47 132.97 L 538.59 132.97 L 542.71 132.97 L 546.83 132.97 L 550.95 132.97 L 555.08 132.97 L 559.20 132.97 L 563.32 132.97 L 567.44 132.97 L 571.56 132.97 L 575.68 132.97 L 579.80 132.97 L 583.92 132.97 L 588.04 132.97 L 592.16 132.97 L 596.28 132.97 L 600.40 132.97 L 604.52 132.97 L 608.64 132.97 L 612.76 132.97 L 616.88 132.97 L 621.01 132.97 L 625.13 132.97 L 629.25 132.97 L 633.37 132.97 L 637.49 132.97 L 641.61 132.97 L 645.73 132.97 L 649.85 132.97 L 653.97 132.97 L 658.09 132.97 L 662.21 132.97 L 666.33 132.97 L 670.45 124.51 L 674.57 120.64 L 678.69 116.77 L 682.81 112.90 L 686.93 109.03 L 691.06 105.97 L 695.18 105.97 L 699.30 105.97 L 703.42 105.97 L 707.54 105.97 L 711.66 105.79 L 715.78 103.09 L 719.90 98.41 L 724.02 98.41 L 728.14 98.41 L 732.26 98.41 L 736.38 98.41 L 740.50 98.41 L 744.62 98.41 L 748.74 98.41 L 752.86 98.41 L 756.98 98.41 L 761.11 98.41 L 765.23 98.41 L 769.35 98.41 L 773.47 98.41 L 777.59 98.41 L 781.71 98.41 L 785.83 98.41 L 789.95 98.41 L 794.07 98.41 L 798.19 98.41 L 802.31 98.41 L 806.43 98.41 L 810.55 98.41 L 814.67 98.41 L 818.79 98.41 L 822.91 98.41 L 827.04 98.41 L 831.16 98.41 L 835.28 98.41 L 839.40 98.41 L 843.52 98.41 L 847.64 98.41 L 851.76 98.41 L 855.88 98.41 L 860.00 98.41" fill="none" stroke="#3fb950" stroke-width="2"/>
    <circle cx="860.00" cy="98.41" r="3" fill="#3fb950"/>
    <text x="40.00" y="235.00" font-size="9" fill="#c9d1d9" text-anchor="middle" transform="rotate(-45 40.00 235.00)">09.08.2025</text><text x="122.41" y="235.00" font-size="9" fill="#c9d1d9" text-anchor="middle" transform="rotate(-45 122.41 235.00)">09.08.2025</text><text x="204.82" y="235.00" font-size="9" fill="#c9d1d9" text-anchor="middle" transform="rotate(-45 204.82 235.00)">16.08.2025</text><text x="287.24" y="235.00" font-size="9" fill="#c9d1d9" text-anchor="middle" transform="rotate(-45 287.24 235.00)">03.09.2025</text><text x="369.65" y="235.00" font-size="9" fill="#c9d1d9" text-anchor="middle" transform="rotate(-45 369.65 235.00)">23.09.2025</text><text x="452.06" y="235.00" font-size="9" fill="#c9d1d9" text-anchor="middle" transform="rotate(-45 452.06 235.00)">13.10.2025</text><text x="534.47" y="235.00" font-size="9" fill="#c9d1d9" text-anchor="middle" transform="rotate(-45 534.47 235.00)">02.11.2025</text><text x="616.88" y="235.00" font-size="9" fill="#c9d1d9" text-anchor="middle" transform="rotate(-45 616.88 235.00)">22.11.2025</text><text x="699.30" y="235.00" font-size="9" fill="#c9d1d9" text-anchor="middle" transform="rotate(-45 699.30 235.00)">05.12.2025</text><text x="781.71" y="235.00" font-size="9" fill="#c9d1d9" text-anchor="middle" transform="rotate(-45 781.71 235.00)">22.12.2025</text>
  </g>
</svg>