<svg xmlns="http://www.w3.org/2000/svg" width="900" height="290" style="font-family: -apple-system, BlinkMacSystemFont, 'Segoe UI', Helvetica, Arial, sans-serif;">
  <rect width="100%" height="100%" fill="white"/>
  <g>
    <line x1="40" y1="220.00" x2="860" y2="220.00" stroke="#e5e7eb"/><text x="32" y="224.00" font-size="10" fill="#111827" text-anchor="end">0</text><line x1="40" y1="175.00" x2="860" y2="175.00" stroke="#e5e7eb"/><text x="32" y="179.00" font-size="10" fill="#111827" text-anchor="end">500</text><line x1="40" y1="130.00" x2="860" y2="130.00" stroke="#e5e7eb"/><text x="32" y="134.00" font-size="10" fill="#111827" text-anchor="end">1k</text><line x1="40" y1="85.00" x2="860" y2="85.00" stroke="#e5e7eb"/><text x="32" y="89.00" font-size="10" fill="#111827" text-anchor="end">1.5k</text><line x1="40" y1="40.00" x2="860" y2="40.00" stroke="#e5e7eb"/><text x="32" y="44.00" font-size="10" fill="#111827" text-anchor="end">2k</text>
    <line x1="40.00" y1="40" x2="40.00" y2="220" stroke="#e5e7eb" opacity="0.5"/><line x1="118.10" y1="40" x2="118.10" y2="220" stroke="#e5e7eb" opacity="0.5"/><line x1="196.19" y1="40" x2="196.19" y2="220" stroke="#e5e7eb" opacity="0.5"/><line x1="274.29" y1="40" x2="274.29" y2="220" stroke="#e5e7eb" opacity="0.5"/><line x1="352.38" y1="40" x2="352.38" y2="220" stroke="#e5e7eb" opacity="0.5"/><line x1="430.48" y1="40" x2="430.48" y2="220" stroke="#e5e7eb" opacity="0.5"/><line x1="508.57" y1="40" x2="508.57" y2="220" stroke="#e5e7eb" opacity="0.5"/><line x1="586.67" y1="40" x2="586.67" y2="220" stroke="#e5e7eb" opacity="0.5"/><line x1="664.76" y1="40" x2="664.76" y2="220" stroke="#e5e7eb" opacity="0.5"/><line x1="742.86" y1="40" x2="742.86" y2="220" stroke="#e5e7eb" opacity="0.5"/><line x1="820.95" y1="40" x2="820.95" y2="220" stroke="#e5e7eb" opacity="0.5"/>
    <line x1="40" y1="220" x2="860" y2="220" stroke="#9ca3af"/>
    <line x1="40" y1="40"   x2="40"   y2="220" stroke="#9ca3af"/>
    <path d="M 40.00 219.82 L 45.58 214.15 L 51.16 214.06 L 56.73 214.06 L 62.31 213.25 L 67.89 213.25 L 73.47 204.88 L 79.05 185.98 L 84.63 185.98 L 90.20 180.94 L 95.78 152.59 L 101.36 159.97 L 106.94 158.89 L 112.52 158.17 L 118.10 139.63 L 123.67 139.63 L 129.25 157.18 L 134.83 154.66 L 140.41 154.39 L 145.99 151.60 L 151.56 150.97 L 157.14 150.70 L 162.72 149.80 L 168.30 149.80 L 173.88 147.46 L 179.46 144.94 L 185.03 144.76 L 190.61 140.71 L 196.19 134.23 L 201.77 134.23 L 207.35 133.69 L 212.93 133.69 L 218.50 133.69 L 224.08 133.69 L 229.66 133.69 L 235.24 133.69 L 240.82 132.97 L 246.39 132.97 L 251.97 132.97 L 257.55 132.97 L 263.13 132.97 L 268.71 132.97 L 274.29 132.97 L 279.86 132.97 L 285.44 132.97 L 291.02 132.97 L 296.60 132.97 L 302.18 132.97 L 307.76 132.97 L 313.33 132.97 L 318.91 132.97 L 324.49 132.97 L 330.07 132.97 L 335.65 132.97 L 341.22 132.97 L 346.80 132.97 L 352.38 132.97 L 357.96 132.97 L 363.54 132.97 L 369.12 132.97 L 374.69 132.97 L 380.27 132.97 L 385.85 132.97 L 391.43 132.97 L 397.01 132.97 L 402.59 132.97 L 408.16 132.97 L 413.74 132.97 L 419.32 132.97 L 424.90 132.97 L 430.48 132.97 L 436.05 132.97 L 441.63 132.97 L 447.21 132.97 L 452.79 132.97 L 458.37 132.97 L 463.95 132.97 L 469.52 132.97 L 475.10 132.97 L 480.68 132.97 L 486.26 132.97 L 491.84 132.97 L 497.41 132.97 L 502.99 132.97 L 508.57 132.97 L 514.15 132.97 L 519.73 132.97 L 525.31 132.97 L 530.88 132.97 L 536.46 132.97 L 542.04 132.97 L 547.62 132.97 L 553.20 132.97 L 558.78 132.97 L 564.35 132.97 L 569.93 132.97 L 575.51 132.97 L 581.09 132.97 L 586.67 132.97 L 592.24 132.97 L 597.82 132.97 L 603.40 132.97 L 608.98 132.97 L 614.56 132.97 L 620.14 132.97 L 625.71 132.97 L 631.29 132.97 L 636.87 132.97 L 642.45 132.97 L 648.03 132.97 L 653.61 132.97 L 659.18 132.97 L 664.76 132.97 L 670.34 132.97 L 675.92 132.97 L 681.50 132.97 L 687.07 132.97 L 692.65 132.97 L 698.23 132.97 L 703.81 132.97 L 709.39 132.97 L 714.97 132.97 L 720.54 132.97 L 726.12 132.97 L 731.70 132.97 L 737.28 132.97 L 742.86 132.97 L 748.44 132.97 L 754.01 132.97 L 759.59 132.97 L 765.17 132.97 L 770.75 132.97 L 776.33 132.97 L 781.90 132.97 L 787.48 132.97 L 793.06 132.97 L 798.64 132.97 L 804.22 132.97 L 809.80 132.97 L 815.37 132.97 L 820.95 132.97 L 826.53 132.97 L 832.11 132.97 L 837.69 132.97 L 843.27 132.97 L 848.84 132.97 L 854.42 132.97 L 860.00 132.97" fill="none" stroke="#111827" stroke-width="2"/>
    <circle cx="860.00" cy="132.97" r="3" fill="#111827"/>
    <text x="40.00" y="235.00" font-size="9" fill="#111827" text-anchor="middle" transform="rotate(-45 40.00 235.00)">09.08.2025</text><text x="118.10" y="235.00" font-size="9" fill="#111827" text-anchor="middle" transform="rotate(-45 118.10 235.00)">09.08.2025</text><text x="196.19" y="235.00" font-size="9" fill="#111827" text-anchor="middle" transform="rotate(-45 196.19 235.00)">13.08.2025</text><text x="274.29" y="235.00" font-size="9" fill="#111827" text-anchor="middle" transform="rotate(-45 274.29 235.00)">18.08.2025</text><text x="352.38" y="235.00" font-size="9" fill="#111827" text-anchor="middle" transform="rotate(-45 352.38 235.00)">30.08.2025</text><text x="430.48" y="235.00" font-size="9" fill="#111827" text-anchor="middle" transform="rotate(-45 430.48 235.00)">13.09.2025</text><text x="508.57" y="235.00" font-size="9" fill="#111827" text-anchor="middle" transform="rotate(-45 508.57 235.00)">27.09.2025</text><text x="586.67" y="235.00" font-size="9" fill="#111827" text-anchor="middle" transform="rotate(-45 586.67 235.00)">11.10.2025</text><text x="664.76" y="235.00" font-size="9" fill="#111827" text-anchor="middle" transform="rotate(-45 664.76 235.00)">25.10.2025</text><text x="742.86" y="235.00" font-size="9" fill="#111827" text-anchor="middle" transform="rotate(-45 742.86 235.00)">08.11.2025</text><text x="820.95" y="235.00" font-size="9" fill="#111827" text-anchor="middle" transform="rotate(-45 820.95 235.00)">22.11.2025</text>
  </g>
</svg>