<svg xmlns="http://www.w3.org/2000/svg" width="900" height="290" style="font-family: -apple-system, BlinkMacSystemFont, 'Segoe UI', Helvetica, Arial, sans-serif;">
  <rect width="100%" height="100%" fill="white"/>
  <g>
    <line x1="40" y1="220.00" x2="860" y2="220.00" stroke="#e5e7eb"/><text x="32" y="224.00" font-size="10" fill="#111827" text-anchor="end">0</text><line x1="40" y1="175.00" x2="860" y2="175.00" stroke="#e5e7eb"/><text x="32" y="179.00" font-size="10" fill="#111827" text-anchor="end">500</text><line x1="40" y1="130.00" x2="860" y2="130.00" stroke="#e5e7eb"/><text x="32" y="134.00" font-size="10" fill="#111827" text-anchor="end">1k</text><line x1="40" y1="85.00" x2="860" y2="85.00" stroke="#e5e7eb"/><text x="32" y="89.00" font-size="10" fill="#111827" text-anchor="end">1.5k</text><line x1="40" y1="40.00" x2="860" y2="40.00" stroke="#e5e7eb"/><text x="32" y="44.00" font-size="10" fill="#111827" text-anchor="end">2k</text>
    <line x1="40.00" y1="40" x2="40.00" y2="220" stroke="#e5e7eb" opacity="0.5"/><line x1="122.00" y1="40" x2="122.00" y2="220" stroke="#e5e7eb" opacity="0.5"/><line x1="204.00" y1="40" x2="204.00" y2="220" stroke="#e5e7eb" opacity="0.5"/><line x1="286.00" y1="40" x2="286.00" y2="220" stroke="#e5e7eb" opacity="0.5"/><line x1="368.00" y1="40" x2="368.00" y2="220" stroke="#e5e7eb" opacity="0.5"/><line x1="450.00" y1="40" x2="450.00" y2="220" stroke="#e5e7eb" opacity="0.5"/><line x1="532.00" y1="40" x2="532.00" y2="220" stroke="#e5e7eb" opacity="0.5"/><line x1="614.00" y1="40" x2="614.00" y2="220" stroke="#e5e7eb" opacity="0.5"/><line x1="696.00" y1="40" x2="696.00" y2="220" stroke="#e5e7eb" opacity="0.5"/><line x1="778.00" y1="40" x2="778.00" y2="220" stroke="#e5e7eb" opacity="0.5"/><line x1="860.00" y1="40" x2="860.00" y2="220" stroke="#e5e7eb" opacity="0.5"/>
    <line x1="40" y1="220" x2="860" y2="220" stroke="#9ca3af"/>
    <line x1="40" y1="40"   x2="40"   y2="220" stroke="#9ca3af"/>
    <path d="M 40.00 219.82 L 48.20 214.15 L 56.40 214.06 L 64.60 214.06 L 72.80 213.25 L 81.00 213.25 L 89.20 204.88 L 97.40 185.98 L 105.60 185.98 L 113.80 180.94 L 122.00 152.59 L 130.20 159.97 L 138.40 158.89 L 146.60 158.17 L 154.80 139.63 L 163.00 139.63 L 171.20 157.18 L 179.40 154.66 L 187.60 154.39 L 195.80 151.60 L 204.00 150.97 L 212.20 150.70 L 220.40 149.80 L 228.60 149.80 L 236.80 147.46 L 245.00 144.94 L 253.20 144.76 L 261.40 140.71 L 269.60 134.23 L 277.80 134.23 L 286.00 133.69 L 294.20 133.69 L 302.40 133.69 L 310.60 133.69 L 318.80 133.69 L 327.00 133.69 L 335.20 132.97 L 343.40 132.97 L 351.60 132.97 L 359.80 132.97 L 368.00 132.97 L 376.20 132.97 L 384.40 132.97 L 392.60 132.97 L 400.80 132.97 L 409.00 132.97 L 417.20 132.97 L 425.40 132.97 L 433.60 132.97 L 441.80 132.97 L 450.00 132.97 L 458.20 132.97 L 466.40 132.97 L 474.60 132.97 L 482.80 132.97 L 491.00 132.97 L 499.20 132.97 L 507.40 132.97 L 515.60 132.97 L 523.80 132.97 L 532.00 132.97 L 540.20 132.97 L 548.40 132.97 L 556.60 132.97 L 564.80 132.97 L 573.00 132.97 L 581.20 132.97 L 589.40 132.97 L 597.60 132.97 L 605.80 132.97 L 614.00 132.97 L 622.20 132.97 L 630.40 132.97 L 638.60 132.97 L 646.80 132.97 L 655.00 132.97 L 663.20 132.97 L 671.40 132.97 L 679.60 132.97 L 687.80 132.97 L 696.00 132.97 L 704.20 132.97 L 712.40 132.97 L 720.60 132.97 L 728.80 132.97 L 737.00 132.97 L 745.20 132.97 L 753.40 132.97 L 761.60 132.97 L 769.80 132.97 L 778.00 132.97 L 786.20 132.97 L 794.40 132.97 L 802.60 132.97 L 810.80 132.97 L 819.00 132.97 L 827.20 132.97 L 835.40 132.97 L 843.60 132.97 L 851.80 132.97 L 860.00 132.97" fill="none" stroke="#111827" stroke-width="2"/>
    <circle cx="860.00" cy="132.97" r="3" fill="#111827"/>
    <text x="40.00" y="235.00" font-size="9" fill="#111827" text-anchor="middle" transform="rotate(-45 40.00 235.00)">09.08.2025</text><text x="122.00" y="235.00" font-size="9" fill="#111827" text-anchor="middle" transform="rotate(-45 122.00 235.00)">09.08.2025</text><text x="204.00" y="235.00" font-size="9" fill="#111827" text-anchor="middle" transform="rotate(-45 204.00 235.00)">09.08.2025</text><text x="286.00" y="235.00" font-size="9" fill="#111827" text-anchor="middle" transform="rotate(-45 286.00 235.00)">13.08.2025</text><text x="368.00" y="235.00" font-size="9" fill="#111827" text-anchor="middle" transform="rotate(-45 368.00 235.00)">16.08.2025</text><text x="450.00" y="235.00" font-size="9" fill="#111827" text-anchor="middle" transform="rotate(-45 450.00 235.00)">26.08.2025</text><text x="532.00" y="235.00" font-size="9" fill="#111827" text-anchor="middle" transform="rotate(-45 532.00 235.00)">03.09.2025</text><text x="614.00" y="235.00" font-size="9" fill="#111827" text-anchor="middle" transform="rotate(-45 614.00 235.00)">13.09.2025</text><text x="696.00" y="235.00" font-size="9" fill="#111827" text-anchor="middle" transform="rotate(-45 696.00 235.00)">23.09.2025</text><text x="778.00" y="235.00" font-size="9" fill="#111827" text-anchor="middle" transform="rotate(-45 778.00 235.00)">03.10.2025</text><text x="860.00" y="235.00" font-size="9" fill="#111827" text-anchor="middle" transform="rotate(-45 860.00 235.00)">13.10.2025</text>
  </g>
</svg>