<svg xmlns="http://www.w3.org/2000/svg" width="900" height="290" style="font-family: -apple-system, BlinkMacSystemFont, 'Segoe UI', Helvetica, Arial, sans-serif;">
  <rect width="100%" height="100%" fill="#0d1117"/>
  <g>
    <line x1="40" y1="220.00" x2="860" y2="220.00" stroke="#30363d"/><text x="32" y="224.00" font-size="10" fill="#c9d1d9" text-anchor="end">0</text><line x1="40" y1="175.00" x2="860" y2="175.00" stroke="#30363d"/><text x="32" y="179.00" font-size="10" fill="#c9d1d9" text-anchor="end">500</text><line x1="40" y1="130.00" x2="860" y2="130.00" stroke="#30363d"/><text x="32" y="134.00" font-size="10" fill="#c9d1d9" text-anchor="end">1k</text><line x1="40" y1="85.00" x2="860" y2="85.00" stroke="#30363d"/><text x="32" y="89.00" font-size="10" fill="#c9d1d9" text-anchor="end">1.5k</text><line x1="40" y1="40.00" x2="860" y2="40.00" stroke="#30363d"/><text x="32" y="44.00" font-size="10" fill="#c9d1d9" text-anchor="end">2k</text>
    <line x1="40.00" y1="40" x2="40.00" y2="220" stroke="#30363d" opacity="0.5"/><line x1="122.59" y1="40" x2="122.59" y2="220" stroke="#30363d" opacity="0.5"/><line x1="205.18" y1="40" x2="205.18" y2="220" stroke="#30363d" opacity="0.5"/><line x1="287.77" y1="40" x2="287.77" y2="220" stroke="#30363d" opacity="0.5"/><line x1="370.36" y1="40" x2="370.36" y2="220" stroke="#30363d" opacity="0.5"/><line x1="452.95" y1="40" x2="452.95" y2="220" stroke="#30363d" opacity="0.5"/><line x1="535.54" y1="40" x2="535.54" y2="220" stroke="#30363d" opacity="0.5"/><line x1="618.13" y1="40" x2="618.13" y2="220" stroke="#30363d" opacity="0.5"/><line x1="700.72" y1="40" x2="700.72" y2="220" stroke="#30363d" opacity="0.5"/><line x1="783.31" y1="40" x2="783.31" y2="220" stroke="#30363d" opacity="0.5"/>
    <line x1="40" y1="220" x2="860" y2="220" stroke="#30363d"/>
    <line x1="40" y1="40"   x2="40"   y2="220" stroke="#30363d"/>
    <path d="M 40.00 219.82 L 45.90 214.15 L 51.80 214.06 L 57.70 214.06 L 63.60 213.25 L 69.50 213.25 L 75.40 204.88 L 81.29 185.98 L 87.19 185.98 L 93.09 180.94 L 98.99 152.59 L 104.89 159.97 L 110.79 158.89 L 116.69 158.17 L 122.59 139.63 L 128.49 139.63 L 134.39 157.18 L 140.29 154.66 L 146.19 154.39 L 152.09 151.60 L 157.99 150.97 L 163.88 150.70 L 169.78 149.80 L 175.68 149.80 L 181.58 147.46 L 187.48 144.94 L 193.38 144.76 L 199.28 140.71 L 205.18 134.23 L 211.08 134.23 L 216.98 133.69 L 222.88 133.69 L 228.78 133.69 L 234.68 133.69 L 240.58 133.69 L 246.47 133.69 L 252.37 132.97 L 258.27 132.97 L 264.17 132.97 L 270.07 132.97 L 275.97 132.97 L 281.87 132.97 L 287.77 132.97 L 293.67 132.97 L 299.57 132.97 L 305.47 132.97 L 311.37 132.97 L 317.27 132.97 L 323.17 132.97 L 329.06 132.97 L 334.96 132.97 L 340.86 132.97 L 346.76 132.97 L 352.66 132.97 L 358.56 132.97 L 364.46 132.97 L 370.36 132.97 L 376.26 132.97 L 382.16 132.97 L 388.06 132.97 L 393.96 132.97 L 399.86 132.97 L 405.76 132.97 L 411.65 132.97 L 417.55 132.97 L 423.45 132.97 L 429.35 132.97 L 435.25 132.97 L 441.15 132.97 L 447.05 132.97 L 452.95 132.97 L 458.85 132.97 L 464.75 132.97 L 470.65 132.97 L 476.55 132.97 L 482.45 132.97 L 488.35 132.97 L 494.24 132.97 L 500.14 132.97 L 506.04 132.97 L 511.94 132.97 L 517.84 132.97 L 523.74 132.97 L 529.64 132.97 L 535.54 132.97 L 541.44 132.97 L 547.34 132.97 L 553.24 132.97 L 559.14 132.97 L 565.04 132.97 L 570.94 132.97 L 576.83 132.97 L 582.73 132.97 L 588.63 132.97 L 594.53 132.97 L 600.43 132.97 L 606.33 132.97 L 612.23 132.97 L 618.13 132.97 L 624.03 132.97 L 629.93 132.97 L 635.83 132.97 L 641.73 132.97 L 647.63 132.97 L 653.53 132.97 L 659.42 132.97 L 665.32 132.97 L 671.22 132.97 L 677.12 132.97 L 683.02 132.97 L 688.92 132.97 L 694.82 132.97 L 700.72 132.97 L 706.62 132.97 L 712.52 132.97 L 718.42 132.97 L 724.32 132.97 L 730.22 132.97 L 736.12 132.97 L 742.01 132.97 L 747.91 132.97 L 753.81 132.97 L 759.71 132.97 L 765.61 132.97 L 771.51 132.97 L 777.41 132.97 L 783.31 132.97 L 789.21 132.97 L 795.11 132.97 L 801.01 132.97 L 806.91 132.97 L 812.81 132.97 L 818.71 132.97 L 824.60 132.97 L 830.50 132.97 L 836.40 132.97 L 842.30 132.97 L 848.20 132.97 L 854.10 132.97 L 860.00 132.97" fill="none" stroke="#3fb950" stroke-width="2"/>
    <circle cx="860.00" cy="132.97" r="3" fill="#3fb950"/>
    <text x="40.00" y="235.00" font-size="9" fill="#c9d1d9" text-anchor="middle" transform="rotate(-45 40.00 235.00)">09.08.2025</text><text x="122.59" y="235.00" font-size="9" fill="#c9d1d9" text-anchor="middle" transform="rotate(-45 122.59 235.00)">09.08.2025</text><text x="205.18" y="235.00" font-size="9" fill="#c9d1d9" text-anchor="middle" transform="rotate(-45 205.18 235.00)">13.08.2025</text><text x="287.77" y="235.00" font-size="9" fill="#c9d1d9" text-anchor="middle" transform="rotate(-45 287.77 235.00)">18.08.2025</text><text x="370.36" y="235.00" font-size="9" fill="#c9d1d9" text-anchor="middle" transform="rotate(-45 370.36 235.00)">30.08.2025</text><text x="452.95" y="235.00" font-size="9" fill="#c9d1d9" text-anchor="middle" transform="rotate(-45 452.95 235.00)">13.09.2025</text><text x="535.54" y="235.00" font-size="9" fill="#c9d1d9" text-anchor="middle" transform="rotate(-45 535.54 235.00)">27.09.2025</text><text x="618.13" y="235.00" font-size="9" fill="#c9d1d9" text-anchor="middle" transform="rotate(-45 618.13 235.00)">11.10.2025</text><text x="700.72" y="235.00" font-size="9" fill="#c9d1d9" text-anchor="middle" transform="rotate(-45 700.72 235.00)">25.10.2025</text><text x="783.31" y="235.00" font-size="9" fill="#c9d1d9" text-anchor="middle" transform="rotate(-45 783.31 235.00)">08.11.2025</text>
  </g>
</svg>