<svg xmlns="http://www.w3.org/2000/svg" width="900" height="290" style="font-family: -apple-system, BlinkMacSystemFont, 'Segoe UI', Helvetica, Arial, sans-serif;">
  <rect width="100%" height="100%" fill="#0d1117"/>
  <g>
    <line x1="40" y1="220.00" x2="860" y2="220.00" stroke="#30363d"/><text x="32" y="224.00" font-size="10" fill="#c9d1d9" text-anchor="end">0</text><line x1="40" y1="175.00" x2="860" y2="175.00" stroke="#30363d"/><text x="32" y="179.00" font-size="10" fill="#c9d1d9" text-anchor="end">500</text><line x1="40" y1="130.00" x2="860" y2="130.00" stroke="#30363d"/><text x="32" y="134.00" font-size="10" fill="#c9d1d9" text-anchor="end">1k</text><line x1="40" y1="85.00" x2="860" y2="85.00" stroke="#30363d"/><text x="32" y="89.00" font-size="10" fill="#c9d1d9" text-anchor="end">1.5k</text><line x1="40" y1="40.00" x2="860" y2="40.00" stroke="#30363d"/><text x="32" y="44.00" font-size="10" fill="#c9d1d9" text-anchor="end">2k</text>
    <line x1="40.00" y1="40" x2="40.00" y2="220" stroke="#30363d" opacity="0.5"/><line x1="115.93" y1="40" x2="115.93" y2="220" stroke="#30363d" opacity="0.5"/><line x1="191.85" y1="40" x2="191.85" y2="220" stroke="#30363d" opacity="0.5"/><line x1="267.78" y1="40" x2="267.78" y2="220" stroke="#30363d" opacity="0.5"/><line x1="343.70" y1="40" x2="343.70" y2="220" stroke="#30363d" opacity="0.5"/><line x1="419.63" y1="40" x2="419.63" y2="220" stroke="#30363d" opacity="0.5"/><line x1="495.56" y1="40" x2="495.56" y2="220" stroke="#30363d" opacity="0.5"/><line x1="571.48" y1="40" x2="571.48" y2="220" stroke="#30363d" opacity="0.5"/><line x1="647.41" y1="40" x2="647.41" y2="220" stroke="#30363d" opacity="0.5"/><line x1="723.33" y1="40" x2="723.33" y2="220" stroke="#30363d" opacity="0.5"/><line x1="799.26" y1="40" x2="799.26" y2="220" stroke="#30363d" opacity="0.5"/>
    <line x1="40" y1="220" x2="860" y2="220" stroke="#30363d"/>
    <line x1="40" y1="40"   x2="40"   y2="220" stroke="#30363d"/>
    <path d="M 40.00 219.82 L 47.59 214.15 L 55.19 214.06 L 62.78 214.06 L 70.37 213.25 L 77.96 213.25 L 85.56 204.88 L 93.15 185.98 L 100.74 185.98 L 108.33 180.94 L 115.93 152.59 L 123.52 159.97 L 131.11 158.89 L 138.70 158.17 L 146.30 139.63 L 153.89 139.63 L 161.48 157.18 L 169.07 154.66 L 176.67 154.39 L 184.26 151.60 L 191.85 150.97 L 199.44 150.70 L 207.04 149.80 L 214.63 149.80 L 222.22 147.46 L 229.81 144.94 L 237.41 144.76 L 245.00 140.71 L 252.59 134.23 L 260.19 134.23 L 267.78 133.69 L 275.37 133.69 L 282.96 133.69 L 290.56 133.69 L 298.15 133.69 L 305.74 133.69 L 313.33 132.97 L 320.93 132.97 L 328.52 132.97 L 336.11 132.97 L 343.70 132.97 L 351.30 132.97 L 358.89 132.97 L 366.48 132.97 L 374.07 132.97 L 381.67 132.97 L 389.26 132.97 L 396.85 132.97 L 404.44 132.97 L 412.04 132.97 L 419.63 132.97 L 427.22 132.97 L 434.81 132.97 L 442.41 132.97 L 450.00 132.97 L 457.59 132.97 L 465.19 132.97 L 472.78 132.97 L 480.37 132.97 L 487.96 132.97 L 495.56 132.97 L 503.15 132.97 L 510.74 132.97 L 518.33 132.97 L 525.93 132.97 L 533.52 132.97 L 541.11 132.97 L 548.70 132.97 L 556.30 132.97 L 563.89 132.97 L 571.48 132.97 L 579.07 132.97 L 586.67 132.97 L 594.26 132.97 L 601.85 132.97 L 609.44 132.97 L 617.04 132.97 L 624.63 132.97 L 632.22 132.97 L 639.81 132.97 L 647.41 132.97 L 655.00 132.97 L 662.59 132.97 L 670.19 132.97 L 677.78 132.97 L 685.37 132.97 L 692.96 132.97 L 700.56 132.97 L 708.15 132.97 L 715.74 132.97 L 723.33 132.97 L 730.93 132.97 L 738.52 132.97 L 746.11 132.97 L 753.70 132.97 L 761.30 132.97 L 768.89 132.97 L 776.48 132.97 L 784.07 132.97 L 791.67 132.97 L 799.26 132.97 L 806.85 132.97 L 814.44 132.97 L 822.04 132.97 L 829.63 132.97 L 837.22 132.97 L 844.81 132.97 L 852.41 132.97 L 860.00 132.97" fill="none" stroke="#3fb950" stroke-width="2"/>
    <circle cx="860.00" cy="132.97" r="3" fill="#3fb950"/>
    <text x="40.00" y="235.00" font-size="9" fill="#c9d1d9" text-anchor="middle" transform="rotate(-45 40.00 235.00)">09.08.2025</text><text x="115.93" y="235.00" font-size="9" fill="#c9d1d9" text-anchor="middle" transform="rotate(-45 115.93 235.00)">09.08.2025</text><text x="191.85" y="235.00" font-size="9" fill="#c9d1d9" text-anchor="middle" transform="rotate(-45 191.85 235.00)">09.08.2025</text><text x="267.78" y="235.00" font-size="9" fill="#c9d1d9" text-anchor="middle" transform="rotate(-45 267.78 235.00)">13.08.2025</text><text x="343.70" y="235.00" font-size="9" fill="#c9d1d9" text-anchor="middle" transform="rotate(-45 343.70 235.00)">16.08.2025</text><text x="419.63" y="235.00" font-size="9" fill="#c9d1d9" text-anchor="middle" transform="rotate(-45 419.63 235.00)">26.08.2025</text><text x="495.56" y="235.00" font-size="9" fill="#c9d1d9" text-anchor="middle" transform="rotate(-45 495.56 235.00)">03.09.2025</text><text x="571.48" y="235.00" font-size="9" fill="#c9d1d9" text-anchor="middle" transform="rotate(-45 571.48 235.00)">13.09.2025</text><text x="647.41" y="235.00" font-size="9" fill="#c9d1d9" text-anchor="middle" transform="rotate(-45 647.41 235.00)">23.09.2025</text><text x="723.33" y="235.00" font-size="9" fill="#c9d1d9" text-anchor="middle" transform="rotate(-45 723.33 235.00)">03.10.2025</text><text x="799.26" y="235.00" font-size="9" fill="#c9d1d9" text-anchor="middle" transform="rotate(-45 799.26 235.00)">13.10.2025</text>
  </g>
</svg>