<svg xmlns="http://www.w3.org/2000/svg" width="900" height="290" style="font-family: -apple-system, BlinkMacSystemFont, 'Segoe UI', Helvetica, Arial, sans-serif;">
  <rect width="100%" height="100%" fill="#0d1117"/>
  <g>
    <line x1="40" y1="220.00" x2="860" y2="220.00" stroke="#30363d"/><text x="32" y="224.00" font-size="10" fill="#c9d1d9" text-anchor="end">0</text><line x1="40" y1="175.00" x2="860" y2="175.00" stroke="#30363d"/><text x="32" y="179.00" font-size="10" fill="#c9d1d9" text-anchor="end">500</text><line x1="40" y1="130.00" x2="860" y2="130.00" stroke="#30363d"/><text x="32" y="134.00" font-size="10" fill="#c9d1d9" text-anchor="end">1k</text><line x1="40" y1="85.00" x2="860" y2="85.00" stroke="#30363d"/><text x="32" y="89.00" font-size="10" fill="#c9d1d9" text-anchor="end">1.5k</text><line x1="40" y1="40.00" x2="860" y2="40.00" stroke="#30363d"/><text x="32" y="44.00" font-size="10" fill="#c9d1d9" text-anchor="end">2k</text>
    <line x1="40.00" y1="40" x2="40.00" y2="220" stroke="#30363d" opacity="0.5"/><line x1="119.66" y1="40" x2="119.66" y2="220" stroke="#30363d" opacity="0.5"/><line x1="199.31" y1="40" x2="199.31" y2="220" stroke="#30363d" opacity="0.5"/><line x1="278.97" y1="40" x2="278.97" y2="220" stroke="#30363d" opacity="0.5"/><line x1="358.63" y1="40" x2="358.63" y2="220" stroke="#30363d" opacity="0.5"/><line x1="438.29" y1="40" x2="438.29" y2="220" stroke="#30363d" opacity="0.5"/><line x1="517.94" y1="40" x2="517.94" y2="220" stroke="#30363d" opacity="0.5"/><line x1="597.60" y1="40" x2="597.60" y2="220" stroke="#30363d" opacity="0.5"/><line x1="677.26" y1="40" x2="677.26" y2="220" stroke="#30363d" opacity="0.5"/><line x1="756.91" y1="40" x2="756.91" y2="220" stroke="#30363d" opacity="0.5"/><line x1="836.57" y1="40" x2="836.57" y2="220" stroke="#30363d" opacity="0.5"/>
    <line x1="40" y1="220" x2="860" y2="220" stroke="#30363d"/>
    <line x1="40" y1="40"   x2="40"   y2="220" stroke="#30363d"/>
    <path d="M 40.00 219.82 L 44.69 214.15 L 49.37 214.06 L 54.06 214.06 L 58.74 213.25 L 63.43 213.25 L 68.11 204.88 L 72.80 185.98 L 77.49 185.98 L 82.17 180.94 L 86.86 152.59 L 91.54 159.97 L 96.23 158.89 L 100.91 158.17 L 105.60 139.63 L 110.29 139.63 L 114.97 157.18 L 119.66 154.66 L 124.34 154.39 L 129.03 151.60 L 133.71 150.97 L 138.40 150.70 L 143.09 149.80 L 147.77 149.80 L 152.46 147.46 L 157.14 144.94 L 161.83 144.76 L 166.51 140.71 L 171.20 134.23 L 175.89 134.23 L 180.57 133.69 L 185.26 133.69 L 189.94 133.69 L 194.63 133.69 L 199.31 133.69 L 204.00 133.69 L 208.69 132.97 L 213.37 132.97 L 218.06 132.97 L 222.74 132.97 L 227.43 132.97 L 232.11 132.97 L 236.80 132.97 L 241.49 132.97 L 246.17 132.97 L 250.86 132.97 L 255.54 132.97 L 260.23 132.97 L 264.91 132.97 L 269.60 132.97 L 274.29 132.97 L 278.97 132.97 L 283.66 132.97 L 288.34 132.97 L 293.03 132.97 L 297.71 132.97 L 302.40 132.97 L 307.09 132.97 L 311.77 132.97 L 316.46 132.97 L 321.14 132.97 L 325.83 132.97 L 330.51 132.97 L 335.20 132.97 L 339.89 132.97 L 344.57 132.97 L 349.26 132.97 L 353.94 132.97 L 358.63 132.97 L 363.31 132.97 L 368.00 132.97 L 372.69 132.97 L 377.37 132.97 L 382.06 132.97 L 386.74 132.97 L 391.43 132.97 L 396.11 132.97 L 400.80 132.97 L 405.49 132.97 L 410.17 132.97 L 414.86 132.97 L 419.54 132.97 L 424.23 132.97 L 428.91 132.97 L 433.60 132.97 L 438.29 132.97 L 442.97 132.97 L 447.66 132.97 L 452.34 132.97 L 457.03 132.97 L 461.71 132.97 L 466.40 132.97 L 471.09 132.97 L 475.77 132.97 L 480.46 132.97 L 485.14 132.97 L 489.83 132.97 L 494.51 132.97 L 499.20 132.97 L 503.89 132.97 L 508.57 132.97 L 513.26 132.97 L 517.94 132.97 L 522.63 132.97 L 527.31 132.97 L 532.00 132.97 L 536.69 132.97 L 541.37 132.97 L 546.06 132.97 L 550.74 132.97 L 555.43 132.97 L 560.11 132.97 L 564.80 132.97 L 569.49 132.97 L 574.17 132.97 L 578.86 132.97 L 583.54 132.97 L 588.23 132.97 L 592.91 132.97 L 597.60 132.97 L 602.29 132.97 L 606.97 132.97 L 611.66 132.97 L 616.34 132.97 L 621.03 132.97 L 625.71 132.97 L 630.40 132.97 L 635.09 132.97 L 639.77 132.97 L 644.46 132.97 L 649.14 132.97 L 653.83 132.97 L 658.51 132.97 L 663.20 132.97 L 667.89 132.97 L 672.57 132.97 L 677.26 132.97 L 681.94 132.97 L 686.63 132.97 L 691.31 132.97 L 696.00 132.97 L 700.69 132.97 L 705.37 132.97 L 710.06 132.97 L 714.74 132.97 L 719.43 132.97 L 724.11 132.97 L 728.80 132.97 L 733.49 132.97 L 738.17 132.97 L 742.86 132.97 L 747.54 132.97 L 752.23 132.97 L 756.91 124.51 L 761.60 120.64 L 766.29 116.77 L 770.97 112.90 L 775.66 109.03 L 780.34 105.97 L 785.03 105.97 L 789.71 105.97 L 794.40 105.97 L 799.09 105.97 L 803.77 105.79 L 808.46 103.09 L 813.14 98.41 L 817.83 98.41 L 822.51 98.41 L 827.20 98.41 L 831.89 98.41 L 836.57 98.41 L 841.26 98.41 L 845.94 98.41 L 850.63 98.41 L 855.31 98.41 L 860.00 98.41" fill="none" stroke="#3fb950" stroke-width="2"/>
    <circle cx="860.00" cy="98.41" r="3" fill="#3fb950"/>
    <text x="40.00" y="235.00" font-size="9" fill="#c9d1d9" text-anchor="middle" transform="rotate(-45 40.00 235.00)">09.08.2025</text><text x="119.66" y="235.00" font-size="9" fill="#c9d1d9" text-anchor="middle" transform="rotate(-45 119.66 235.00)">09.08.2025</text><text x="199.31" y="235.00" font-size="9" fill="#c9d1d9" text-anchor="middle" transform="rotate(-45 199.31 235.00)">13.08.2025</text><text x="278.97" y="235.00" font-size="9" fill="#c9d1d9" text-anchor="middle" transform="rotate(-45 278.97 235.00)">27.08.2025</text><text x="358.63" y="235.00" font-size="9" fill="#c9d1d9" text-anchor="middle" transform="rotate(-45 358.63 235.00)">11.09.2025</text><text x="438.29" y="235.00" font-size="9" fill="#c9d1d9" text-anchor="middle" transform="rotate(-45 438.29 235.00)">28.09.2025</text><text x="517.94" y="235.00" font-size="9" fill="#c9d1d9" text-anchor="middle" transform="rotate(-45 517.94 235.00)">15.10.2025</text><text x="597.60" y="235.00" font-size="9" fill="#c9d1d9" text-anchor="middle" transform="rotate(-45 597.60 235.00)">01.11.2025</text><text x="677.26" y="235.00" font-size="9" fill="#c9d1d9" text-anchor="middle" transform="rotate(-45 677.26 235.00)">18.11.2025</text><text x="756.91" y="235.00" font-size="9" fill="#c9d1d9" text-anchor="middle" transform="rotate(-45 756.91 235.00)">04.12.2025</text><text x="836.57" y="235.00" font-size="9" fill="#c9d1d9" text-anchor="middle" transform="rotate(-45 836.57 235.00)">12.12.2025</text>
  </g>
</svg>