<svg xmlns="http://www.w3.org/2000/svg" width="900" height="290" style="font-family: -apple-system, BlinkMacSystemFont, 'Segoe UI', Helvetica, Arial, sans-serif;">
  <rect width="100%" height="100%" fill="white"/>
  <g>
    <line x1="40" y1="220.00" x2="860" y2="220.00" stroke="#e5e7eb"/><text x="32" y="224.00" font-size="10" fill="#111827" text-anchor="end">0</text><line x1="40" y1="175.00" x2="860" y2="175.00" stroke="#e5e7eb"/><text x="32" y="179.00" font-size="10" fill="#111827" text-anchor="end">500</text><line x1="40" y1="130.00" x2="860" y2="130.00" stroke="#e5e7eb"/><text x="32" y="134.00" font-size="10" fill="#111827" text-anchor="end">1k</text><line x1="40" y1="85.00" x2="860" y2="85.00" stroke="#e5e7eb"/><text x="32" y="89.00" font-size="10" fill="#111827" text-anchor="end">1.5k</text><line x1="40" y1="40.00" x2="860" y2="40.00" stroke="#e5e7eb"/><text x="32" y="44.00" font-size="10" fill="#111827" text-anchor="end">2k</text>
    <line x1="40.00" y1="40" x2="40.00" y2="220" stroke="#e5e7eb" opacity="0.5"/><line x1="115.31" y1="40" x2="115.31" y2="220" stroke="#e5e7eb" opacity="0.5"/><line x1="190.61" y1="40" x2="190.61" y2="220" stroke="#e5e7eb" opacity="0.5"/><line x1="265.92" y1="40" x2="265.92" y2="220" stroke="#e5e7eb" opacity="0.5"/><line x1="341.22" y1="40" x2="341.22" y2="220" stroke="#e5e7eb" opacity="0.5"/><line x1="416.53" y1="40" x2="416.53" y2="220" stroke="#e5e7eb" opacity="0.5"/><line x1="491.84" y1="40" x2="491.84" y2="220" stroke="#e5e7eb" opacity="0.5"/><line x1="567.14" y1="40" x2="567.14" y2="220" stroke="#e5e7eb" opacity="0.5"/><line x1="642.45" y1="40" x2="642.45" y2="220" stroke="#e5e7eb" opacity="0.5"/><line x1="717.76" y1="40" x2="717.76" y2="220" stroke="#e5e7eb" opacity="0.5"/><line x1="793.06" y1="40" x2="793.06" y2="220" stroke="#e5e7eb" opacity="0.5"/>
    <line x1="40" y1="220" x2="860" y2="220" stroke="#9ca3af"/>
    <line x1="40" y1="40"   x2="40"   y2="220" stroke="#9ca3af"/>
    <path d="M 40.00 219.82 L 48.37 214.15 L 56.73 214.06 L 65.10 214.06 L 73.47 213.25 L 81.84 213.25 L 90.20 204.88 L 98.57 185.98 L 106.94 185.98 L 115.31 180.94 L 123.67 152.59 L 132.04 159.97 L 140.41 158.89 L 148.78 158.17 L 157.14 139.63 L 165.51 139.63 L 173.88 157.18 L 182.24 154.66 L 190.61 154.39 L 198.98 151.60 L 207.35 150.97 L 215.71 150.70 L 224.08 149.80 L 232.45 149.80 L 240.82 147.46 L 249.18 144.94 L 257.55 144.76 L 265.92 140.71 L 274.29 134.23 L 282.65 134.23 L 291.02 133.69 L 299.39 133.69 L 307.76 133.69 L 316.12 133.69 L 324.49 133.69 L 332.86 133.69 L 341.22 132.97 L 349.59 132.97 L 357.96 132.97 L 366.33 132.97 L 374.69 132.97 L 383.06 132.97 L 391.43 132.97 L 399.80 132.97 L 408.16 132.97 L 416.53 132.97 L 424.90 132.97 L 433.27 132.97 L 441.63 132.97 L 450.00 132.97 L 458.37 132.97 L 466.73 132.97 L 475.10 132.97 L 483.47 132.97 L 491.84 132.97 L 500.20 132.97 L 508.57 132.97 L 516.94 132.97 L 525.31 132.97 L 533.67 132.97 L 542.04 132.97 L 550.41 132.97 L 558.78 132.97 L 567.14 132.97 L 575.51 132.97 L 583.88 132.97 L 592.24 132.97 L 600.61 132.97 L 608.98 132.97 L 617.35 132.97 L 625.71 132.97 L 634.08 132.97 L 642.45 132.97 L 650.82 132.97 L 659.18 132.97 L 667.55 132.97 L 675.92 132.97 L 684.29 132.97 L 692.65 132.97 L 701.02 132.97 L 709.39 132.97 L 717.76 132.97 L 726.12 132.97 L 734.49 132.97 L 742.86 132.97 L 751.22 132.97 L 759.59 132.97 L 767.96 132.97 L 776.33 132.97 L 784.69 132.97 L 793.06 132.97 L 801.43 132.97 L 809.80 132.97 L 818.16 132.97 L 826.53 132.97 L 834.90 132.97 L 843.27 132.97 L 851.63 132.97 L 860.00 132.97" fill="none" stroke="#111827" stroke-width="2"/>
    <circle cx="860.00" cy="132.97" r="3" fill="#111827"/>
    <text x="40.00" y="235.00" font-size="9" fill="#111827" text-anchor="middle" transform="rotate(-45 40.00 235.00)">09.08.2025</text><text x="115.31" y="235.00" font-size="9" fill="#111827" text-anchor="middle" transform="rotate(-45 115.31 235.00)">09.08.2025</text><text x="190.61" y="235.00" font-size="9" fill="#111827" text-anchor="middle" transform="rotate(-45 190.61 235.00)">09.08.2025</text><text x="265.92" y="235.00" font-size="9" fill="#111827" text-anchor="middle" transform="rotate(-45 265.92 235.00)">13.08.2025</text><text x="341.22" y="235.00" font-size="9" fill="#111827" text-anchor="middle" transform="rotate(-45 341.22 235.00)">13.08.2025</text><text x="416.53" y="235.00" font-size="9" fill="#111827" text-anchor="middle" transform="rotate(-45 416.53 235.00)">21.08.2025</text><text x="491.84" y="235.00" font-size="9" fill="#111827" text-anchor="middle" transform="rotate(-45 491.84 235.00)">28.08.2025</text><text x="567.14" y="235.00" font-size="9" fill="#111827" text-anchor="middle" transform="rotate(-45 567.14 235.00)">06.09.2025</text><text x="642.45" y="235.00" font-size="9" fill="#111827" text-anchor="middle" transform="rotate(-45 642.45 235.00)">15.09.2025</text><text x="717.76" y="235.00" font-size="9" fill="#111827" text-anchor="middle" transform="rotate(-45 717.76 235.00)">24.09.2025</text><text x="793.06" y="235.00" font-size="9" fill="#111827" text-anchor="middle" transform="rotate(-45 793.06 235.00)">03.10.2025</text>
  </g>
</svg>