<svg xmlns="http://www.w3.org/2000/svg" width="900" height="290" style="font-family: -apple-system, BlinkMacSystemFont, 'Segoe UI', Helvetica, Arial, sans-serif;">
  <rect width="100%" height="100%" fill="#0d1117"/>
  <g>
    <line x1="40" y1="220.00" x2="860" y2="220.00" stroke="#30363d"/><text x="32" y="224.00" font-size="10" fill="#c9d1d9" text-anchor="end">0</text><line x1="40" y1="175.00" x2="860" y2="175.00" stroke="#30363d"/><text x="32" y="179.00" font-size="10" fill="#c9d1d9" text-anchor="end">500</text><line x1="40" y1="130.00" x2="860" y2="130.00" stroke="#30363d"/><text x="32" y="134.00" font-size="10" fill="#c9d1d9" text-anchor="end">1k</text><line x1="40" y1="85.00" x2="860" y2="85.00" stroke="#30363d"/><text x="32" y="89.00" font-size="10" fill="#c9d1d9" text-anchor="end">1.5k</text><line x1="40" y1="40.00" x2="860" y2="40.00" stroke="#30363d"/><text x="32" y="44.00" font-size="10" fill="#c9d1d9" text-anchor="end">2k</text>
    <line x1="40.00" y1="40" x2="40.00" y2="220" stroke="#30363d" opacity="0.5"/><line x1="120.47" y1="40" x2="120.47" y2="220" stroke="#30363d" opacity="0.5"/><line x1="200.93" y1="40" x2="200.93" y2="220" stroke="#30363d" opacity="0.5"/><line x1="281.40" y1="40" x2="281.40" y2="220" stroke="#30363d" opacity="0.5"/><line x1="361.87" y1="40" x2="361.87" y2="220" stroke="#30363d" opacity="0.5"/><line x1="442.34" y1="40" x2="442.34" y2="220" stroke="#30363d" opacity="0.5"/><line x1="522.80" y1="40" x2="522.80" y2="220" stroke="#30363d" opacity="0.5"/><line x1="603.27" y1="40" x2="603.27" y2="220" stroke="#30363d" opacity="0.5"/><line x1="683.74" y1="40" x2="683.74" y2="220" stroke="#30363d" opacity="0.5"/><line x1="764.21" y1="40" x2="764.21" y2="220" stroke="#30363d" opacity="0.5"/><line x1="844.67" y1="40" x2="844.67" y2="220" stroke="#30363d" opacity="0.5"/>
    <line x1="40" y1="220" x2="860" y2="220" stroke="#30363d"/>
    <line x1="40" y1="40"   x2="40"   y2="220" stroke="#30363d"/>
    <path d="M 40.00 219.82 L 43.83 214.15 L 47.66 214.06 L 51.50 214.06 L 55.33 213.25 L 59.16 213.25 L 62.99 204.88 L 66.82 185.98 L 70.65 185.98 L 74.49 180.94 L 78.32 152.59 L 82.15 159.97 L 85.98 158.89 L 89.81 158.17 L 93.64 139.63 L 97.48 139.63 L 101.31 157.18 L 105.14 154.66 L 108.97 154.39 L 112.80 151.60 L 116.64 150.97 L 120.47 150.70 L 124.30 149.80 L 128.13 149.80 L 131.96 147.46 L 135.79 144.94 L 139.63 144.76 L 143.46 140.71 L 147.29 134.23 L 151.12 134.23 L 154.95 133.69 L 158.79 133.69 L 162.62 133.69 L 166.45 133.69 L 170.28 133.69 L 174.11 133.69 L 177.94 132.97 L 181.78 132.97 L 185.61 132.97 L 189.44 132.97 L 193.27 132.97 L 197.10 132.97 L 200.93 132.97 L 204.77 132.97 L 208.60 132.97 L 212.43 132.97 L 216.26 132.97 L 220.09 132.97 L 223.93 132.97 L 227.76 132.97 L 231.59 132.97 L 235.42 132.97 L 239.25 132.97 L 243.08 132.97 L 246.92 132.97 L 250.75 132.97 L 254.58 132.97 L 258.41 132.97 L 262.24 132.97 L 266.07 132.97 L 269.91 132.97 L 273.74 132.97 L 277.57 132.97 L 281.40 132.97 L 285.23 132.97 L 289.07 132.97 L 292.90 132.97 L 296.73 132.97 L 300.56 132.97 L 304.39 132.97 L 308.22 132.97 L 312.06 132.97 L 315.89 132.97 L 319.72 132.97 L 323.55 132.97 L 327.38 132.97 L 331.21 132.97 L 335.05 132.97 L 338.88 132.97 L 342.71 132.97 L 346.54 132.97 L 350.37 132.97 L 354.21 132.97 L 358.04 132.97 L 361.87 132.97 L 365.70 132.97 L 369.53 132.97 L 373.36 132.97 L 377.20 132.97 L 381.03 132.97 L 384.86 132.97 L 388.69 132.97 L 392.52 132.97 L 396.36 132.97 L 400.19 132.97 L 404.02 132.97 L 407.85 132.97 L 411.68 132.97 L 415.51 132.97 L 419.35 132.97 L 423.18 132.97 L 427.01 132.97 L 430.84 132.97 L 434.67 132.97 L 438.50 132.97 L 442.34 132.97 L 446.17 132.97 L 450.00 132.97 L 453.83 132.97 L 457.66 132.97 L 461.50 132.97 L 465.33 132.97 L 469.16 132.97 L 472.99 132.97 L 476.82 132.97 L 480.65 132.97 L 484.49 132.97 L 488.32 132.97 L 492.15 132.97 L 495.98 132.97 L 499.81 132.97 L 503.64 132.97 L 507.48 132.97 L 511.31 132.97 L 515.14 132.97 L 518.97 132.97 L 522.80 132.97 L 526.64 132.97 L 530.47 132.97 L 534.30 132.97 L 538.13 132.97 L 541.96 132.97 L 545.79 132.97 L 549.63 132.97 L 553.46 132.97 L 557.29 132.97 L 561.12 132.97 L 564.95 132.97 L 568.79 132.97 L 572.62 132.97 L 576.45 132.97 L 580.28 132.97 L 584.11 132.97 L 587.94 132.97 L 591.78 132.97 L 595.61 132.97 L 599.44 132.97 L 603.27 132.97 L 607.10 132.97 L 610.93 132.97 L 614.77 132.97 L 618.60 132.97 L 622.43 132.97 L 626.26 124.51 L 630.09 120.64 L 633.93 116.77 L 637.76 112.90 L 641.59 109.03 L 645.42 105.97 L 649.25 105.97 L 653.08 105.97 L 656.92 105.97 L 660.75 105.97 L 664.58 105.79 L 668.41 103.09 L 672.24 98.41 L 676.07 98.41 L 679.91 98.41 L 683.74 98.41 L 687.57 98.41 L 691.40 98.41 L 695.23 98.41 L 699.07 98.41 L 702.90 98.41 L 706.73 98.41 L 710.56 98.41 L 714.39 98.41 L 718.22 98.41 L 722.06 98.41 L 725.89 98.41 L 729.72 98.41 L 733.55 98.41 L 737.38 98.41 L 741.21 98.41 L 745.05 98.41 L 748.88 98.41 L 752.71 98.41 L 756.54 98.41 L 760.37 98.41 L 764.21 98.41 L 768.04 98.41 L 771.87 98.41 L 775.70 98.41 L 779.53 98.41 L 783.36 98.41 L 787.20 98.41 L 791.03 98.41 L 794.86 98.41 L 798.69 98.41 L 802.52 98.41 L 806.36 98.41 L 810.19 98.41 L 814.02 98.41 L 817.85 98.41 L 821.68 98.41 L 825.51 98.41 L 829.35 98.41 L 833.18 98.41 L 837.01 98.41 L 840.84 98.41 L 844.67 98.41 L 848.50 98.41 L 852.34 98.41 L 856.17 98.41 L 860.00 98.41" fill="none" stroke="#3fb950" stroke-width="2"/>
    <circle cx="860.00" cy="98.41" r="3" fill="#3fb950"/>
    <text x="40.00" y="235.00" font-size="9" fill="#c9d1d9" text-anchor="middle" transform="rotate(-45 40.00 235.00)">09.08.2025</text><text x="120.47" y="235.00" font-size="9" fill="#c9d1d9" text-anchor="middle" transform="rotate(-45 120.47 235.00)">09.08.2025</text><text x="200.93" y="235.00" font-size="9" fill="#c9d1d9" text-anchor="middle" transform="rotate(-45 200.93 235.00)">18.08.2025</text><text x="281.40" y="235.00" font-size="9" fill="#c9d1d9" text-anchor="middle" transform="rotate(-45 281.40 235.00)">06.09.2025</text><text x="361.87" y="235.00" font-size="9" fill="#c9d1d9" text-anchor="middle" transform="rotate(-45 361.87 235.00)">27.09.2025</text><text x="442.34" y="235.00" font-size="9" fill="#c9d1d9" text-anchor="middle" transform="rotate(-45 442.34 235.00)">18.10.2025</text><text x="522.80" y="235.00" font-size="9" fill="#c9d1d9" text-anchor="middle" transform="rotate(-45 522.80 235.00)">08.11.2025</text><text x="603.27" y="235.00" font-size="9" fill="#c9d1d9" text-anchor="middle" transform="rotate(-45 603.27 235.00)">29.11.2025</text><text x="683.74" y="235.00" font-size="9" fill="#c9d1d9" text-anchor="middle" transform="rotate(-45 683.74 235.00)">10.12.2025</text><text x="764.21" y="235.00" font-size="9" fill="#c9d1d9" text-anchor="middle" transform="rotate(-45 764.21 235.00)">31.12.2025</text><text x="844.67" y="235.00" font-size="9" fill="#c9d1d9" text-anchor="middle" transform="rotate(-45 844.67 235.00)">21.01.2026</text>
  </g>
</svg>