<svg xmlns="http://www.w3.org/2000/svg" width="900" height="290" style="font-family: -apple-system, BlinkMacSystemFont, 'Segoe UI', Helvetica, Arial, sans-serif;">
  <rect width="100%" height="100%" fill="white"/>
  <g>
    <line x1="40" y1="220.00" x2="860" y2="220.00" stroke="#e5e7eb"/><text x="32" y="224.00" font-size="10" fill="#111827" text-anchor="end">0</text><line x1="40" y1="175.00" x2="860" y2="175.00" stroke="#e5e7eb"/><text x="32" y="179.00" font-size="10" fill="#111827" text-anchor="end">500</text><line x1="40" y1="130.00" x2="860" y2="130.00" stroke="#e5e7eb"/><text x="32" y="134.00" font-size="10" fill="#111827" text-anchor="end">1k</text><line x1="40" y1="85.00" x2="860" y2="85.00" stroke="#e5e7eb"/><text x="32" y="89.00" font-size="10" fill="#111827" text-anchor="end">1.5k</text><line x1="40" y1="40.00" x2="860" y2="40.00" stroke="#e5e7eb"/><text x="32" y="44.00" font-size="10" fill="#111827" text-anchor="end">2k</text>
    <line x1="40.00" y1="40" x2="40.00" y2="220" stroke="#e5e7eb" opacity="0.5"/><line x1="117.57" y1="40" x2="117.57" y2="220" stroke="#e5e7eb" opacity="0.5"/><line x1="195.14" y1="40" x2="195.14" y2="220" stroke="#e5e7eb" opacity="0.5"/><line x1="272.70" y1="40" x2="272.70" y2="220" stroke="#e5e7eb" opacity="0.5"/><line x1="350.27" y1="40" x2="350.27" y2="220" stroke="#e5e7eb" opacity="0.5"/><line x1="427.84" y1="40" x2="427.84" y2="220" stroke="#e5e7eb" opacity="0.5"/><line x1="505.41" y1="40" x2="505.41" y2="220" stroke="#e5e7eb" opacity="0.5"/><line x1="582.97" y1="40" x2="582.97" y2="220" stroke="#e5e7eb" opacity="0.5"/><line x1="660.54" y1="40" x2="660.54" y2="220" stroke="#e5e7eb" opacity="0.5"/><line x1="738.11" y1="40" x2="738.11" y2="220" stroke="#e5e7eb" opacity="0.5"/><line x1="815.68" y1="40" x2="815.68" y2="220" stroke="#e5e7eb" opacity="0.5"/>
    <line x1="40" y1="220" x2="860" y2="220" stroke="#9ca3af"/>
    <line x1="40" y1="40"   x2="40"   y2="220" stroke="#9ca3af"/>
    <path d="M 40.00 219.82 L 45.54 214.15 L 51.08 214.06 L 56.62 214.06 L 62.16 213.25 L 67.70 213.25 L 73.24 204.88 L 78.78 185.98 L 84.32 185.98 L 89.86 180.94 L 95.41 152.59 L 100.95 159.97 L 106.49 158.89 L 112.03 158.17 L 117.57 139.63 L 123.11 139.63 L 128.65 157.18 L 134.19 154.66 L 139.73 154.39 L 145.27 151.60 L 150.81 150.97 L 156.35 150.70 L 161.89 149.80 L 167.43 149.80 L 172.97 147.46 L 178.51 144.94 L 184.05 144.76 L 189.59 140.71 L 195.14 134.23 L 200.68 134.23 L 206.22 133.69 L 211.76 133.69 L 217.30 133.69 L 222.84 133.69 L 228.38 133.69 L 233.92 133.69 L 239.46 132.97 L 245.00 132.97 L 250.54 132.97 L 256.08 132.97 L 261.62 132.97 L 267.16 132.97 L 272.70 132.97 L 278.24 132.97 L 283.78 132.97 L 289.32 132.97 L 294.86 132.97 L 300.41 132.97 L 305.95 132.97 L 311.49 132.97 L 317.03 132.97 L 322.57 132.97 L 328.11 132.97 L 333.65 132.97 L 339.19 132.97 L 344.73 132.97 L 350.27 132.97 L 355.81 132.97 L 361.35 132.97 L 366.89 132.97 L 372.43 132.97 L 377.97 132.97 L 383.51 132.97 L 389.05 132.97 L 394.59 132.97 L 400.14 132.97 L 405.68 132.97 L 411.22 132.97 L 416.76 132.97 L 422.30 132.97 L 427.84 132.97 L 433.38 132.97 L 438.92 132.97 L 444.46 132.97 L 450.00 132.97 L 455.54 132.97 L 461.08 132.97 L 466.62 132.97 L 472.16 132.97 L 477.70 132.97 L 483.24 132.97 L 488.78 132.97 L 494.32 132.97 L 499.86 132.97 L 505.41 132.97 L 510.95 132.97 L 516.49 132.97 L 522.03 132.97 L 527.57 132.97 L 533.11 132.97 L 538.65 132.97 L 544.19 132.97 L 549.73 132.97 L 555.27 132.97 L 560.81 132.97 L 566.35 132.97 L 571.89 132.97 L 577.43 132.97 L 582.97 132.97 L 588.51 132.97 L 594.05 132.97 L 599.59 132.97 L 605.14 132.97 L 610.68 132.97 L 616.22 132.97 L 621.76 132.97 L 627.30 132.97 L 632.84 132.97 L 638.38 132.97 L 643.92 132.97 L 649.46 132.97 L 655.00 132.97 L 660.54 132.97 L 666.08 132.97 L 671.62 132.97 L 677.16 132.97 L 682.70 132.97 L 688.24 132.97 L 693.78 132.97 L 699.32 132.97 L 704.86 132.97 L 710.41 132.97 L 715.95 132.97 L 721.49 132.97 L 727.03 132.97 L 732.57 132.97 L 738.11 132.97 L 743.65 132.97 L 749.19 132.97 L 754.73 132.97 L 760.27 132.97 L 765.81 132.97 L 771.35 132.97 L 776.89 132.97 L 782.43 132.97 L 787.97 132.97 L 793.51 132.97 L 799.05 132.97 L 804.59 132.97 L 810.14 132.97 L 815.68 132.97 L 821.22 132.97 L 826.76 132.97 L 832.30 132.97 L 837.84 132.97 L 843.38 132.97 L 848.92 132.97 L 854.46 132.97 L 860.00 132.97" fill="none" stroke="#111827" stroke-width="2"/>
    <circle cx="860.00" cy="132.97" r="3" fill="#111827"/>
    <text x="40.00" y="235.00" font-size="9" fill="#111827" text-anchor="middle" transform="rotate(-45 40.00 235.00)">09.08.2025</text><text x="117.57" y="235.00" font-size="9" fill="#111827" text-anchor="middle" transform="rotate(-45 117.57 235.00)">09.08.2025</text><text x="195.14" y="235.00" font-size="9" fill="#111827" text-anchor="middle" transform="rotate(-45 195.14 235.00)">13.08.2025</text><text x="272.70" y="235.00" font-size="9" fill="#111827" text-anchor="middle" transform="rotate(-45 272.70 235.00)">18.08.2025</text><text x="350.27" y="235.00" font-size="9" fill="#111827" text-anchor="middle" transform="rotate(-45 350.27 235.00)">30.08.2025</text><text x="427.84" y="235.00" font-size="9" fill="#111827" text-anchor="middle" transform="rotate(-45 427.84 235.00)">13.09.2025</text><text x="505.41" y="235.00" font-size="9" fill="#111827" text-anchor="middle" transform="rotate(-45 505.41 235.00)">27.09.2025</text><text x="582.97" y="235.00" font-size="9" fill="#111827" text-anchor="middle" transform="rotate(-45 582.97 235.00)">11.10.2025</text><text x="660.54" y="235.00" font-size="9" fill="#111827" text-anchor="middle" transform="rotate(-45 660.54 235.00)">25.10.2025</text><text x="738.11" y="235.00" font-size="9" fill="#111827" text-anchor="middle" transform="rotate(-45 738.11 235.00)">08.11.2025</text><text x="815.68" y="235.00" font-size="9" fill="#111827" text-anchor="middle" transform="rotate(-45 815.68 235.00)">22.11.2025</text>
  </g>
</svg>