<svg xmlns="http://www.w3.org/2000/svg" width="900" height="290" style="font-family: -apple-system, BlinkMacSystemFont, 'Segoe UI', Helvetica, Arial, sans-serif;">
  <rect width="100%" height="100%" fill="white"/>
  <g>
    <line x1="40" y1="220.00" x2="860" y2="220.00" stroke="#e5e7eb"/><text x="32" y="224.00" font-size="10" fill="#111827" text-anchor="end">0</text><line x1="40" y1="175.00" x2="860" y2="175.00" stroke="#e5e7eb"/><text x="32" y="179.00" font-size="10" fill="#111827" text-anchor="end">500</text><line x1="40" y1="130.00" x2="860" y2="130.00" stroke="#e5e7eb"/><text x="32" y="134.00" font-size="10" fill="#111827" text-anchor="end">1k</text><line x1="40" y1="85.00" x2="860" y2="85.00" stroke="#e5e7eb"/><text x="32" y="89.00" font-size="10" fill="#111827" text-anchor="end">1.5k</text><line x1="40" y1="40.00" x2="860" y2="40.00" stroke="#e5e7eb"/><text x="32" y="44.00" font-size="10" fill="#111827" text-anchor="end">2k</text>
    <line x1="40.00" y1="40" x2="40.00" y2="220" stroke="#e5e7eb" opacity="0.5"/><line x1="121.15" y1="40" x2="121.15" y2="220" stroke="#e5e7eb" opacity="0.5"/><line x1="202.29" y1="40" x2="202.29" y2="220" stroke="#e5e7eb" opacity="0.5"/><line x1="283.44" y1="40" x2="283.44" y2="220" stroke="#e5e7eb" opacity="0.5"/><line x1="364.58" y1="40" x2="364.58" y2="220" stroke="#e5e7eb" opacity="0.5"/><line x1="445.73" y1="40" x2="445.73" y2="220" stroke="#e5e7eb" opacity="0.5"/><line x1="526.88" y1="40" x2="526.88" y2="220" stroke="#e5e7eb" opacity="0.5"/><line x1="608.02" y1="40" x2="608.02" y2="220" stroke="#e5e7eb" opacity="0.5"/><line x1="689.17" y1="40" x2="689.17" y2="220" stroke="#e5e7eb" opacity="0.5"/><line x1="770.31" y1="40" x2="770.31" y2="220" stroke="#e5e7eb" opacity="0.5"/><line x1="851.46" y1="40" x2="851.46" y2="220" stroke="#e5e7eb" opacity="0.5"/>
    <line x1="40" y1="220" x2="860" y2="220" stroke="#9ca3af"/>
    <line x1="40" y1="40"   x2="40"   y2="220" stroke="#9ca3af"/>
    <path d="M 40.00 219.82 L 44.27 214.15 L 48.54 214.06 L 52.81 214.06 L 57.08 213.25 L 61.35 213.25 L 65.62 204.88 L 69.90 185.98 L 74.17 185.98 L 78.44 180.94 L 82.71 152.59 L 86.98 159.97 L 91.25 158.89 L 95.52 158.17 L 99.79 139.63 L 104.06 139.63 L 108.33 157.18 L 112.60 154.66 L 116.88 154.39 L 121.15 151.60 L 125.42 150.97 L 129.69 150.70 L 133.96 149.80 L 138.23 149.80 L 142.50 147.46 L 146.77 144.94 L 151.04 144.76 L 155.31 140.71 L 159.58 134.23 L 163.85 134.23 L 168.12 133.69 L 172.40 133.69 L 176.67 133.69 L 180.94 133.69 L 185.21 133.69 L 189.48 133.69 L 193.75 132.97 L 198.02 132.97 L 202.29 132.97 L 206.56 132.97 L 210.83 132.97 L 215.10 132.97 L 219.38 132.97 L 223.65 132.97 L 227.92 132.97 L 232.19 132.97 L 236.46 132.97 L 240.73 132.97 L 245.00 132.97 L 249.27 132.97 L 253.54 132.97 L 257.81 132.97 L 262.08 132.97 L 266.35 132.97 L 270.62 132.97 L 274.90 132.97 L 279.17 132.97 L 283.44 132.97 L 287.71 132.97 L 291.98 132.97 L 296.25 132.97 L 300.52 132.97 L 304.79 132.97 L 309.06 132.97 L 313.33 132.97 L 317.60 132.97 L 321.88 132.97 L 326.15 132.97 L 330.42 132.97 L 334.69 132.97 L 338.96 132.97 L 343.23 132.97 L 347.50 132.97 L 351.77 132.97 L 356.04 132.97 L 360.31 132.97 L 364.58 132.97 L 368.85 132.97 L 373.12 132.97 L 377.40 132.97 L 381.67 132.97 L 385.94 132.97 L 390.21 132.97 L 394.48 132.97 L 398.75 132.97 L 403.02 132.97 L 407.29 132.97 L 411.56 132.97 L 415.83 132.97 L 420.10 132.97 L 424.38 132.97 L 428.65 132.97 L 432.92 132.97 L 437.19 132.97 L 441.46 132.97 L 445.73 132.97 L 450.00 132.97 L 454.27 132.97 L 458.54 132.97 L 462.81 132.97 L 467.08 132.97 L 471.35 132.97 L 475.62 132.97 L 479.90 132.97 L 484.17 132.97 L 488.44 132.97 L 492.71 132.97 L 496.98 132.97 L 501.25 132.97 L 505.52 132.97 L 509.79 132.97 L 514.06 132.97 L 518.33 132.97 L 522.60 132.97 L 526.88 132.97 L 531.15 132.97 L 535.42 132.97 L 539.69 132.97 L 543.96 132.97 L 548.23 132.97 L 552.50 132.97 L 556.77 132.97 L 561.04 132.97 L 565.31 132.97 L 569.58 132.97 L 573.85 132.97 L 578.12 132.97 L 582.40 132.97 L 586.67 132.97 L 590.94 132.97 L 595.21 132.97 L 599.48 132.97 L 603.75 132.97 L 608.02 132.97 L 612.29 132.97 L 616.56 132.97 L 620.83 132.97 L 625.10 132.97 L 629.38 132.97 L 633.65 132.97 L 637.92 132.97 L 642.19 132.97 L 646.46 132.97 L 650.73 132.97 L 655.00 132.97 L 659.27 132.97 L 663.54 132.97 L 667.81 132.97 L 672.08 132.97 L 676.35 132.97 L 680.62 132.97 L 684.90 132.97 L 689.17 132.97 L 693.44 124.51 L 697.71 120.64 L 701.98 116.77 L 706.25 112.90 L 710.52 109.03 L 714.79 105.97 L 719.06 105.97 L 723.33 105.97 L 727.60 105.97 L 731.88 105.97 L 736.15 105.79 L 740.42 103.09 L 744.69 98.41 L 748.96 98.41 L 753.23 98.41 L 757.50 98.41 L 761.77 98.41 L 766.04 98.41 L 770.31 98.41 L 774.58 98.41 L 778.85 98.41 L 783.12 98.41 L 787.40 98.41 L 791.67 98.41 L 795.94 98.41 L 800.21 98.41 L 804.48 98.41 L 808.75 98.41 L 813.02 98.41 L 817.29 98.41 L 821.56 98.41 L 825.83 98.41 L 830.10 98.41 L 834.38 98.41 L 838.65 98.41 L 842.92 98.41 L 847.19 98.41 L 851.46 98.41 L 855.73 98.41 L 860.00 98.41" fill="none" stroke="#111827" stroke-width="2"/>
    <circle cx="860.00" cy="98.41" r="3" fill="#111827"/>
    <text x="40.00" y="235.00" font-size="9" fill="#111827" text-anchor="middle" transform="rotate(-45 40.00 235.00)">09.08.2025</text><text x="121.15" y="235.00" font-size="9" fill="#111827" text-anchor="middle" transform="rotate(-45 121.15 235.00)">09.08.2025</text><text x="202.29" y="235.00" font-size="9" fill="#111827" text-anchor="middle" transform="rotate(-45 202.29 235.00)">14.08.2025</text><text x="283.44" y="235.00" font-size="9" fill="#111827" text-anchor="middle" transform="rotate(-45 283.44 235.00)">31.08.2025</text><text x="364.58" y="235.00" font-size="9" fill="#111827" text-anchor="middle" transform="rotate(-45 364.58 235.00)">19.09.2025</text><text x="445.73" y="235.00" font-size="9" fill="#111827" text-anchor="middle" transform="rotate(-45 445.73 235.00)">08.10.2025</text><text x="526.88" y="235.00" font-size="9" fill="#111827" text-anchor="middle" transform="rotate(-45 526.88 235.00)">27.10.2025</text><text x="608.02" y="235.00" font-size="9" fill="#111827" text-anchor="middle" transform="rotate(-45 608.02 235.00)">15.11.2025</text><text x="689.17" y="235.00" font-size="9" fill="#111827" text-anchor="middle" transform="rotate(-45 689.17 235.00)">04.12.2025</text><text x="770.31" y="235.00" font-size="9" fill="#111827" text-anchor="middle" transform="rotate(-45 770.31 235.00)">13.12.2025</text><text x="851.46" y="235.00" font-size="9" fill="#111827" text-anchor="middle" transform="rotate(-45 851.46 235.00)">01.01.2026</text>
  </g>
</svg>