<svg xmlns="http://www.w3.org/2000/svg" width="900" height="290" style="font-family: -apple-system, BlinkMacSystemFont, 'Segoe UI', Helvetica, Arial, sans-serif;">
  <rect width="100%" height="100%" fill="white"/>
  <g>
    <line x1="40" y1="220.00" x2="860" y2="220.00" stroke="#e5e7eb"/><text x="32" y="224.00" font-size="10" fill="#111827" text-anchor="end">0</text><line x1="40" y1="175.00" x2="860" y2="175.00" stroke="#e5e7eb"/><text x="32" y="179.00" font-size="10" fill="#111827" text-anchor="end">500</text><line x1="40" y1="130.00" x2="860" y2="130.00" stroke="#e5e7eb"/><text x="32" y="134.00" font-size="10" fill="#111827" text-anchor="end">1k</text><line x1="40" y1="85.00" x2="860" y2="85.00" stroke="#e5e7eb"/><text x="32" y="89.00" font-size="10" fill="#111827" text-anchor="end">1.5k</text><line x1="40" y1="40.00" x2="860" y2="40.00" stroke="#e5e7eb"/><text x="32" y="44.00" font-size="10" fill="#111827" text-anchor="end">2k</text>
    <line x1="40.00" y1="40" x2="40.00" y2="220" stroke="#e5e7eb" opacity="0.5"/><line x1="120.39" y1="40" x2="120.39" y2="220" stroke="#e5e7eb" opacity="0.5"/><line x1="200.78" y1="40" x2="200.78" y2="220" stroke="#e5e7eb" opacity="0.5"/><line x1="281.18" y1="40" x2="281.18" y2="220" stroke="#e5e7eb" opacity="0.5"/><line x1="361.57" y1="40" x2="361.57" y2="220" stroke="#e5e7eb" opacity="0.5"/><line x1="441.96" y1="40" x2="441.96" y2="220" stroke="#e5e7eb" opacity="0.5"/><line x1="522.35" y1="40" x2="522.35" y2="220" stroke="#e5e7eb" opacity="0.5"/><line x1="602.75" y1="40" x2="602.75" y2="220" stroke="#e5e7eb" opacity="0.5"/><line x1="683.14" y1="40" x2="683.14" y2="220" stroke="#e5e7eb" opacity="0.5"/><line x1="763.53" y1="40" x2="763.53" y2="220" stroke="#e5e7eb" opacity="0.5"/><line x1="843.92" y1="40" x2="843.92" y2="220" stroke="#e5e7eb" opacity="0.5"/>
    <line x1="40" y1="220" x2="860" y2="220" stroke="#9ca3af"/>
    <line x1="40" y1="40"   x2="40"   y2="220" stroke="#9ca3af"/>
    <path d="M 40.00 219.82 L 44.02 214.15 L 48.04 214.06 L 52.06 214.06 L 56.08 213.25 L 60.10 213.25 L 64.12 204.88 L 68.14 185.98 L 72.16 185.98 L 76.18 180.94 L 80.20 152.59 L 84.22 159.97 L 88.24 158.89 L 92.25 158.17 L 96.27 139.63 L 100.29 139.63 L 104.31 157.18 L 108.33 154.66 L 112.35 154.39 L 116.37 151.60 L 120.39 150.97 L 124.41 150.70 L 128.43 149.80 L 132.45 149.80 L 136.47 147.46 L 140.49 144.94 L 144.51 144.76 L 148.53 140.71 L 152.55 134.23 L 156.57 134.23 L 160.59 133.69 L 164.61 133.69 L 168.63 133.69 L 172.65 133.69 L 176.67 133.69 L 180.69 133.69 L 184.71 132.97 L 188.73 132.97 L 192.75 132.97 L 196.76 132.97 L 200.78 132.97 L 204.80 132.97 L 208.82 132.97 L 212.84 132.97 L 216.86 132.97 L 220.88 132.97 L 224.90 132.97 L 228.92 132.97 L 232.94 132.97 L 236.96 132.97 L 240.98 132.97 L 245.00 132.97 L 249.02 132.97 L 253.04 132.97 L 257.06 132.97 L 261.08 132.97 L 265.10 132.97 L 269.12 132.97 L 273.14 132.97 L 277.16 132.97 L 281.18 132.97 L 285.20 132.97 L 289.22 132.97 L 293.24 132.97 L 297.25 132.97 L 301.27 132.97 L 305.29 132.97 L 309.31 132.97 L 313.33 132.97 L 317.35 132.97 L 321.37 132.97 L 325.39 132.97 L 329.41 132.97 L 333.43 132.97 L 337.45 132.97 L 341.47 132.97 L 345.49 132.97 L 349.51 132.97 L 353.53 132.97 L 357.55 132.97 L 361.57 132.97 L 365.59 132.97 L 369.61 132.97 L 373.63 132.97 L 377.65 132.97 L 381.67 132.97 L 385.69 132.97 L 389.71 132.97 L 393.73 132.97 L 397.75 132.97 L 401.76 132.97 L 405.78 132.97 L 409.80 132.97 L 413.82 132.97 L 417.84 132.97 L 421.86 132.97 L 425.88 132.97 L 429.90 132.97 L 433.92 132.97 L 437.94 132.97 L 441.96 132.97 L 445.98 132.97 L 450.00 132.97 L 454.02 132.97 L 458.04 132.97 L 462.06 132.97 L 466.08 132.97 L 470.10 132.97 L 474.12 132.97 L 478.14 132.97 L 482.16 132.97 L 486.18 132.97 L 490.20 132.97 L 494.22 132.97 L 498.24 132.97 L 502.25 132.97 L 506.27 132.97 L 510.29 132.97 L 514.31 132.97 L 518.33 132.97 L 522.35 132.97 L 526.37 132.97 L 530.39 132.97 L 534.41 132.97 L 538.43 132.97 L 542.45 132.97 L 546.47 132.97 L 550.49 132.97 L 554.51 132.97 L 558.53 132.97 L 562.55 132.97 L 566.57 132.97 L 570.59 132.97 L 574.61 132.97 L 578.63 132.97 L 582.65 132.97 L 586.67 132.97 L 590.69 132.97 L 594.71 132.97 L 598.73 132.97 L 602.75 132.97 L 606.76 132.97 L 610.78 132.97 L 614.80 132.97 L 618.82 132.97 L 622.84 132.97 L 626.86 132.97 L 630.88 132.97 L 634.90 132.97 L 638.92 132.97 L 642.94 132.97 L 646.96 132.97 L 650.98 132.97 L 655.00 124.51 L 659.02 120.64 L 663.04 116.77 L 667.06 112.90 L 671.08 109.03 L 675.10 105.97 L 679.12 105.97 L 683.14 105.97 L 687.16 105.97 L 691.18 105.97 L 695.20 105.79 L 699.22 103.09 L 703.24 98.41 L 707.25 98.41 L 711.27 98.41 L 715.29 98.41 L 719.31 98.41 L 723.33 98.41 L 727.35 98.41 L 731.37 98.41 L 735.39 98.41 L 739.41 98.41 L 743.43 98.41 L 747.45 98.41 L 751.47 98.41 L 755.49 98.41 L 759.51 98.41 L 763.53 98.41 L 767.55 98.41 L 771.57 98.41 L 775.59 98.41 L 779.61 98.41 L 783.63 98.41 L 787.65 98.41 L 791.67 98.41 L 795.69 98.41 L 799.71 98.41 L 803.73 98.41 L 807.75 98.41 L 811.76 98.41 L 815.78 98.41 L 819.80 98.41 L 823.82 98.41 L 827.84 98.41 L 831.86 98.41 L 835.88 98.41 L 839.90 98.41 L 843.92 98.41 L 847.94 98.41 L 851.96 98.41 L 855.98 98.41 L 860.00 98.41" fill="none" stroke="#111827" stroke-width="2"/>
    <circle cx="860.00" cy="98.41" r="3" fill="#111827"/>
    <text x="40.00" y="235.00" font-size="9" fill="#111827" text-anchor="middle" transform="rotate(-45 40.00 235.00)">09.08.2025</text><text x="120.39" y="235.00" font-size="9" fill="#111827" text-anchor="middle" transform="rotate(-45 120.39 235.00)">09.08.2025</text><text x="200.78" y="235.00" font-size="9" fill="#111827" text-anchor="middle" transform="rotate(-45 200.78 235.00)">16.08.2025</text><text x="281.18" y="235.00" font-size="9" fill="#111827" text-anchor="middle" transform="rotate(-45 281.18 235.00)">03.09.2025</text><text x="361.57" y="235.00" font-size="9" fill="#111827" text-anchor="middle" transform="rotate(-45 361.57 235.00)">23.09.2025</text><text x="441.96" y="235.00" font-size="9" fill="#111827" text-anchor="middle" transform="rotate(-45 441.96 235.00)">13.10.2025</text><text x="522.35" y="235.00" font-size="9" fill="#111827" text-anchor="middle" transform="rotate(-45 522.35 235.00)">02.11.2025</text><text x="602.75" y="235.00" font-size="9" fill="#111827" text-anchor="middle" transform="rotate(-45 602.75 235.00)">22.11.2025</text><text x="683.14" y="235.00" font-size="9" fill="#111827" text-anchor="middle" transform="rotate(-45 683.14 235.00)">05.12.2025</text><text x="763.53" y="235.00" font-size="9" fill="#111827" text-anchor="middle" transform="rotate(-45 763.53 235.00)">22.12.2025</text><text x="843.92" y="235.00" font-size="9" fill="#111827" text-anchor="middle" transform="rotate(-45 843.92 235.00)">11.01.2026</text>
  </g>
</svg>