<svg xmlns="http://www.w3.org/2000/svg" width="900" height="290" style="font-family: -apple-system, BlinkMacSystemFont, 'Segoe UI', Helvetica, Arial, sans-serif;">
  <rect width="100%" height="100%" fill="#0d1117"/>
  <g>
    <line x1="40" y1="220.00" x2="860" y2="220.00" stroke="#30363d"/><text x="32" y="224.00" font-size="10" fill="#c9d1d9" text-anchor="end">0</text><line x1="40" y1="175.00" x2="860" y2="175.00" stroke="#30363d"/><text x="32" y="179.00" font-size="10" fill="#c9d1d9" text-anchor="end">500</text><line x1="40" y1="130.00" x2="860" y2="130.00" stroke="#30363d"/><text x="32" y="134.00" font-size="10" fill="#c9d1d9" text-anchor="end">1k</text><line x1="40" y1="85.00" x2="860" y2="85.00" stroke="#30363d"/><text x="32" y="89.00" font-size="10" fill="#c9d1d9" text-anchor="end">1.5k</text><line x1="40" y1="40.00" x2="860" y2="40.00" stroke="#30363d"/><text x="32" y="44.00" font-size="10" fill="#c9d1d9" text-anchor="end">2k</text>
    <line x1="40.00" y1="40" x2="40.00" y2="220" stroke="#30363d" opacity="0.5"/><line x1="119.12" y1="40" x2="119.12" y2="220" stroke="#30363d" opacity="0.5"/><line x1="198.25" y1="40" x2="198.25" y2="220" stroke="#30363d" opacity="0.5"/><line x1="277.37" y1="40" x2="277.37" y2="220" stroke="#30363d" opacity="0.5"/><line x1="356.49" y1="40" x2="356.49" y2="220" stroke="#30363d" opacity="0.5"/><line x1="435.61" y1="40" x2="435.61" y2="220" stroke="#30363d" opacity="0.5"/><line x1="514.74" y1="40" x2="514.74" y2="220" stroke="#30363d" opacity="0.5"/><line x1="593.86" y1="40" x2="593.86" y2="220" stroke="#30363d" opacity="0.5"/><line x1="672.98" y1="40" x2="672.98" y2="220" stroke="#30363d" opacity="0.5"/><line x1="752.11" y1="40" x2="752.11" y2="220" stroke="#30363d" opacity="0.5"/><line x1="831.23" y1="40" x2="831.23" y2="220" stroke="#30363d" opacity="0.5"/>
    <line x1="40" y1="220" x2="860" y2="220" stroke="#30363d"/>
    <line x1="40" y1="40"   x2="40"   y2="220" stroke="#30363d"/>
    <path d="M 40.00 219.82 L 43.60 214.15 L 47.19 214.06 L 50.79 214.06 L 54.39 213.25 L 57.98 213.25 L 61.58 204.88 L 65.18 185.98 L 68.77 185.98 L 72.37 180.94 L 75.96 152.59 L 79.56 159.97 L 83.16 158.89 L 86.75 158.17 L 90.35 139.63 L 93.95 139.63 L 97.54 157.18 L 101.14 154.66 L 104.74 154.39 L 108.33 151.60 L 111.93 150.97 L 115.53 150.70 L 119.12 149.80 L 122.72 149.80 L 126.32 147.46 L 129.91 144.94 L 133.51 144.76 L 137.11 140.71 L 140.70 134.23 L 144.30 134.23 L 147.89 133.69 L 151.49 133.69 L 155.09 133.69 L 158.68 133.69 L 162.28 133.69 L 165.88 133.69 L 169.47 132.97 L 173.07 132.97 L 176.67 132.97 L 180.26 132.97 L 183.86 132.97 L 187.46 132.97 L 191.05 132.97 L 194.65 132.97 L 198.25 132.97 L 201.84 132.97 L 205.44 132.97 L 209.04 132.97 L 212.63 132.97 L 216.23 132.97 L 219.82 132.97 L 223.42 132.97 L 227.02 132.97 L 230.61 132.97 L 234.21 132.97 L 237.81 132.97 L 241.40 132.97 L 245.00 132.97 L 248.60 132.97 L 252.19 132.97 L 255.79 132.97 L 259.39 132.97 L 262.98 132.97 L 266.58 132.97 L 270.18 132.97 L 273.77 132.97 L 277.37 132.97 L 280.96 132.97 L 284.56 132.97 L 288.16 132.97 L 291.75 132.97 L 295.35 132.97 L 298.95 132.97 L 302.54 132.97 L 306.14 132.97 L 309.74 132.97 L 313.33 132.97 L 316.93 132.97 L 320.53 132.97 L 324.12 132.97 L 327.72 132.97 L 331.32 132.97 L 334.91 132.97 L 338.51 132.97 L 342.11 132.97 L 345.70 132.97 L 349.30 132.97 L 352.89 132.97 L 356.49 132.97 L 360.09 132.97 L 363.68 132.97 L 367.28 132.97 L 370.88 132.97 L 374.47 132.97 L 378.07 132.97 L 381.67 132.97 L 385.26 132.97 L 388.86 132.97 L 392.46 132.97 L 396.05 132.97 L 399.65 132.97 L 403.25 132.97 L 406.84 132.97 L 410.44 132.97 L 414.04 132.97 L 417.63 132.97 L 421.23 132.97 L 424.82 132.97 L 428.42 132.97 L 432.02 132.97 L 435.61 132.97 L 439.21 132.97 L 442.81 132.97 L 446.40 132.97 L 450.00 132.97 L 453.60 132.97 L 457.19 132.97 L 460.79 132.97 L 464.39 132.97 L 467.98 132.97 L 471.58 132.97 L 475.18 132.97 L 478.77 132.97 L 482.37 132.97 L 485.96 132.97 L 489.56 132.97 L 493.16 132.97 L 496.75 132.97 L 500.35 132.97 L 503.95 132.97 L 507.54 132.97 L 511.14 132.97 L 514.74 132.97 L 518.33 132.97 L 521.93 132.97 L 525.53 132.97 L 529.12 132.97 L 532.72 132.97 L 536.32 132.97 L 539.91 132.97 L 543.51 132.97 L 547.11 132.97 L 550.70 132.97 L 554.30 132.97 L 557.89 132.97 L 561.49 132.97 L 565.09 132.97 L 568.68 132.97 L 572.28 132.97 L 575.88 132.97 L 579.47 132.97 L 583.07 132.97 L 586.67 132.97 L 590.26 124.51 L 593.86 120.64 L 597.46 116.77 L 601.05 112.90 L 604.65 109.03 L 608.25 105.97 L 611.84 105.97 L 615.44 105.97 L 619.04 105.97 L 622.63 105.97 L 626.23 105.79 L 629.82 103.09 L 633.42 98.41 L 637.02 98.41 L 640.61 98.41 L 644.21 98.41 L 647.81 98.41 L 651.40 98.41 L 655.00 98.41 L 658.60 98.41 L 662.19 98.41 L 665.79 98.41 L 669.39 98.41 L 672.98 98.41 L 676.58 98.41 L 680.18 98.41 L 683.77 98.41 L 687.37 98.41 L 690.96 98.41 L 694.56 98.41 L 698.16 98.41 L 701.75 98.41 L 705.35 98.41 L 708.95 98.41 L 712.54 98.41 L 716.14 98.41 L 719.74 98.41 L 723.33 98.41 L 726.93 98.41 L 730.53 98.41 L 734.12 98.41 L 737.72 98.41 L 741.32 98.41 L 744.91 98.41 L 748.51 98.41 L 752.11 98.41 L 755.70 98.41 L 759.30 98.41 L 762.89 98.41 L 766.49 98.41 L 770.09 98.41 L 773.68 98.41 L 777.28 98.41 L 780.88 98.41 L 784.47 98.41 L 788.07 98.41 L 791.67 98.41 L 795.26 98.41 L 798.86 98.41 L 802.46 98.41 L 806.05 98.41 L 809.65 98.41 L 813.25 98.41 L 816.84 98.41 L 820.44 98.41 L 824.04 98.41 L 827.63 98.41 L 831.23 98.41 L 834.82 98.41 L 838.42 98.41 L 842.02 98.41 L 845.61 98.41 L 849.21 98.41 L 852.81 98.41 L 856.40 98.41 L 860.00 98.41" fill="none" stroke="#3fb950" stroke-width="2"/>
    <circle cx="860.00" cy="98.41" r="3" fill="#3fb950"/>
    <text x="40.00" y="235.00" font-size="9" fill="#c9d1d9" text-anchor="middle" transform="rotate(-45 40.00 235.00)">09.08.2025</text><text x="119.12" y="235.00" font-size="9" fill="#c9d1d9" text-anchor="middle" transform="rotate(-45 119.12 235.00)">09.08.2025</text><text x="198.25" y="235.00" font-size="9" fill="#c9d1d9" text-anchor="middle" transform="rotate(-45 198.25 235.00)">20.08.2025</text><text x="277.37" y="235.00" font-size="9" fill="#c9d1d9" text-anchor="middle" transform="rotate(-45 277.37 235.00)">09.09.2025</text><text x="356.49" y="235.00" font-size="9" fill="#c9d1d9" text-anchor="middle" transform="rotate(-45 356.49 235.00)">01.10.2025</text><text x="435.61" y="235.00" font-size="9" fill="#c9d1d9" text-anchor="middle" transform="rotate(-45 435.61 235.00)">23.10.2025</text><text x="514.74" y="235.00" font-size="9" fill="#c9d1d9" text-anchor="middle" transform="rotate(-45 514.74 235.00)">14.11.2025</text><text x="593.86" y="235.00" font-size="9" fill="#c9d1d9" text-anchor="middle" transform="rotate(-45 593.86 235.00)">04.12.2025</text><text x="672.98" y="235.00" font-size="9" fill="#c9d1d9" text-anchor="middle" transform="rotate(-45 672.98 235.00)">18.12.2025</text><text x="752.11" y="235.00" font-size="9" fill="#c9d1d9" text-anchor="middle" transform="rotate(-45 752.11 235.00)">09.01.2026</text><text x="831.23" y="235.00" font-size="9" fill="#c9d1d9" text-anchor="middle" transform="rotate(-45 831.23 235.00)">31.01.2026</text>
  </g>
</svg>