<svg xmlns="http://www.w3.org/2000/svg" width="900" height="290" style="font-family: -apple-system, BlinkMacSystemFont, 'Segoe UI', Helvetica, Arial, sans-serif;">
  <rect width="100%" height="100%" fill="#0d1117"/>
  <g>
    <line x1="40" y1="220.00" x2="860" y2="220.00" stroke="#30363d"/><text x="32" y="224.00" font-size="10" fill="#c9d1d9" text-anchor="end">0</text><line x1="40" y1="175.00" x2="860" y2="175.00" stroke="#30363d"/><text x="32" y="179.00" font-size="10" fill="#c9d1d9" text-anchor="end">500</text><line x1="40" y1="130.00" x2="860" y2="130.00" stroke="#30363d"/><text x="32" y="134.00" font-size="10" fill="#c9d1d9" text-anchor="end">1k</text><line x1="40" y1="85.00" x2="860" y2="85.00" stroke="#30363d"/><text x="32" y="89.00" font-size="10" fill="#c9d1d9" text-anchor="end">1.5k</text><line x1="40" y1="40.00" x2="860" y2="40.00" stroke="#30363d"/><text x="32" y="44.00" font-size="10" fill="#c9d1d9" text-anchor="end">2k</text>
    <line x1="40.00" y1="40" x2="40.00" y2="220" stroke="#30363d" opacity="0.5"/><line x1="120.58" y1="40" x2="120.58" y2="220" stroke="#30363d" opacity="0.5"/><line x1="201.16" y1="40" x2="201.16" y2="220" stroke="#30363d" opacity="0.5"/><line x1="281.73" y1="40" x2="281.73" y2="220" stroke="#30363d" opacity="0.5"/><line x1="362.31" y1="40" x2="362.31" y2="220" stroke="#30363d" opacity="0.5"/><line x1="442.89" y1="40" x2="442.89" y2="220" stroke="#30363d" opacity="0.5"/><line x1="523.47" y1="40" x2="523.47" y2="220" stroke="#30363d" opacity="0.5"/><line x1="604.05" y1="40" x2="604.05" y2="220" stroke="#30363d" opacity="0.5"/><line x1="684.62" y1="40" x2="684.62" y2="220" stroke="#30363d" opacity="0.5"/><line x1="765.20" y1="40" x2="765.20" y2="220" stroke="#30363d" opacity="0.5"/><line x1="845.78" y1="40" x2="845.78" y2="220" stroke="#30363d" opacity="0.5"/>
    <line x1="40" y1="220" x2="860" y2="220" stroke="#30363d"/>
    <line x1="40" y1="40"   x2="40"   y2="220" stroke="#30363d"/>
    <path d="M 40.00 219.82 L 44.74 214.15 L 49.48 214.06 L 54.22 214.06 L 58.96 213.25 L 63.70 213.25 L 68.44 204.88 L 73.18 185.98 L 77.92 185.98 L 82.66 180.94 L 87.40 152.59 L 92.14 159.97 L 96.88 158.89 L 101.62 158.17 L 106.36 139.63 L 111.10 139.63 L 115.84 157.18 L 120.58 154.66 L 125.32 154.39 L 130.06 151.60 L 134.80 150.97 L 139.54 150.70 L 144.28 149.80 L 149.02 149.80 L 153.76 147.46 L 158.50 144.94 L 163.24 144.76 L 167.98 140.71 L 172.72 134.23 L 177.46 134.23 L 182.20 133.69 L 186.94 133.69 L 191.68 133.69 L 196.42 133.69 L 201.16 133.69 L 205.90 133.69 L 210.64 132.97 L 215.38 132.97 L 220.12 132.97 L 224.86 132.97 L 229.60 132.97 L 234.34 132.97 L 239.08 132.97 L 243.82 132.97 L 248.55 132.97 L 253.29 132.97 L 258.03 132.97 L 262.77 132.97 L 267.51 132.97 L 272.25 132.97 L 276.99 132.97 L 281.73 132.97 L 286.47 132.97 L 291.21 132.97 L 295.95 132.97 L 300.69 132.97 L 305.43 132.97 L 310.17 132.97 L 314.91 132.97 L 319.65 132.97 L 324.39 132.97 L 329.13 132.97 L 333.87 132.97 L 338.61 132.97 L 343.35 132.97 L 348.09 132.97 L 352.83 132.97 L 357.57 132.97 L 362.31 132.97 L 367.05 132.97 L 371.79 132.97 L 376.53 132.97 L 381.27 132.97 L 386.01 132.97 L 390.75 132.97 L 395.49 132.97 L 400.23 132.97 L 404.97 132.97 L 409.71 132.97 L 414.45 132.97 L 419.19 132.97 L 423.93 132.97 L 428.67 132.97 L 433.41 132.97 L 438.15 132.97 L 442.89 132.97 L 447.63 132.97 L 452.37 132.97 L 457.11 132.97 L 461.85 132.97 L 466.59 132.97 L 471.33 132.97 L 476.07 132.97 L 480.81 132.97 L 485.55 132.97 L 490.29 132.97 L 495.03 132.97 L 499.77 132.97 L 504.51 132.97 L 509.25 132.97 L 513.99 132.97 L 518.73 132.97 L 523.47 132.97 L 528.21 132.97 L 532.95 132.97 L 537.69 132.97 L 542.43 132.97 L 547.17 132.97 L 551.91 132.97 L 556.65 132.97 L 561.39 132.97 L 566.13 132.97 L 570.87 132.97 L 575.61 132.97 L 580.35 132.97 L 585.09 132.97 L 589.83 132.97 L 594.57 132.97 L 599.31 132.97 L 604.05 132.97 L 608.79 132.97 L 613.53 132.97 L 618.27 132.97 L 623.01 132.97 L 627.75 132.97 L 632.49 132.97 L 637.23 132.97 L 641.97 132.97 L 646.71 132.97 L 651.45 132.97 L 656.18 132.97 L 660.92 132.97 L 665.66 132.97 L 670.40 132.97 L 675.14 132.97 L 679.88 132.97 L 684.62 132.97 L 689.36 132.97 L 694.10 132.97 L 698.84 132.97 L 703.58 132.97 L 708.32 132.97 L 713.06 132.97 L 717.80 132.97 L 722.54 132.97 L 727.28 132.97 L 732.02 132.97 L 736.76 132.97 L 741.50 132.97 L 746.24 132.97 L 750.98 132.97 L 755.72 132.97 L 760.46 132.97 L 765.20 124.51 L 769.94 120.64 L 774.68 116.77 L 779.42 112.90 L 784.16 109.03 L 788.90 105.97 L 793.64 105.97 L 798.38 105.97 L 803.12 105.97 L 807.86 105.97 L 812.60 105.79 L 817.34 103.09 L 822.08 98.41 L 826.82 98.41 L 831.56 98.41 L 836.30 98.41 L 841.04 98.41 L 845.78 98.41 L 850.52 98.41 L 855.26 98.41 L 860.00 98.41" fill="none" stroke="#3fb950" stroke-width="2"/>
    <circle cx="860.00" cy="98.41" r="3" fill="#3fb950"/>
    <text x="40.00" y="235.00" font-size="9" fill="#c9d1d9" text-anchor="middle" transform="rotate(-45 40.00 235.00)">09.08.2025</text><text x="120.58" y="235.00" font-size="9" fill="#c9d1d9" text-anchor="middle" transform="rotate(-45 120.58 235.00)">09.08.2025</text><text x="201.16" y="235.00" font-size="9" fill="#c9d1d9" text-anchor="middle" transform="rotate(-45 201.16 235.00)">13.08.2025</text><text x="281.73" y="235.00" font-size="9" fill="#c9d1d9" text-anchor="middle" transform="rotate(-45 281.73 235.00)">27.08.2025</text><text x="362.31" y="235.00" font-size="9" fill="#c9d1d9" text-anchor="middle" transform="rotate(-45 362.31 235.00)">11.09.2025</text><text x="442.89" y="235.00" font-size="9" fill="#c9d1d9" text-anchor="middle" transform="rotate(-45 442.89 235.00)">28.09.2025</text><text x="523.47" y="235.00" font-size="9" fill="#c9d1d9" text-anchor="middle" transform="rotate(-45 523.47 235.00)">15.10.2025</text><text x="604.05" y="235.00" font-size="9" fill="#c9d1d9" text-anchor="middle" transform="rotate(-45 604.05 235.00)">01.11.2025</text><text x="684.62" y="235.00" font-size="9" fill="#c9d1d9" text-anchor="middle" transform="rotate(-45 684.62 235.00)">18.11.2025</text><text x="765.20" y="235.00" font-size="9" fill="#c9d1d9" text-anchor="middle" transform="rotate(-45 765.20 235.00)">04.12.2025</text><text x="845.78" y="235.00" font-size="9" fill="#c9d1d9" text-anchor="middle" transform="rotate(-45 845.78 235.00)">12.12.2025</text>
  </g>
</svg>