<svg xmlns="http://www.w3.org/2000/svg" width="900" height="290" style="font-family: -apple-system, BlinkMacSystemFont, 'Segoe UI', Helvetica, Arial, sans-serif;">
  <rect width="100%" height="100%" fill="white"/>
  <g>
    <line x1="40" y1="220.00" x2="860" y2="220.00" stroke="#e5e7eb"/><text x="32" y="224.00" font-size="10" fill="#111827" text-anchor="end">0</text><line x1="40" y1="175.00" x2="860" y2="175.00" stroke="#e5e7eb"/><text x="32" y="179.00" font-size="10" fill="#111827" text-anchor="end">500</text><line x1="40" y1="130.00" x2="860" y2="130.00" stroke="#e5e7eb"/><text x="32" y="134.00" font-size="10" fill="#111827" text-anchor="end">1k</text><line x1="40" y1="85.00" x2="860" y2="85.00" stroke="#e5e7eb"/><text x="32" y="89.00" font-size="10" fill="#111827" text-anchor="end">1.5k</text><line x1="40" y1="40.00" x2="860" y2="40.00" stroke="#e5e7eb"/><text x="32" y="44.00" font-size="10" fill="#111827" text-anchor="end">2k</text>
    <line x1="40.00" y1="40" x2="40.00" y2="220" stroke="#e5e7eb" opacity="0.5"/><line x1="117.68" y1="40" x2="117.68" y2="220" stroke="#e5e7eb" opacity="0.5"/><line x1="195.37" y1="40" x2="195.37" y2="220" stroke="#e5e7eb" opacity="0.5"/><line x1="273.05" y1="40" x2="273.05" y2="220" stroke="#e5e7eb" opacity="0.5"/><line x1="350.74" y1="40" x2="350.74" y2="220" stroke="#e5e7eb" opacity="0.5"/><line x1="428.42" y1="40" x2="428.42" y2="220" stroke="#e5e7eb" opacity="0.5"/><line x1="506.11" y1="40" x2="506.11" y2="220" stroke="#e5e7eb" opacity="0.5"/><line x1="583.79" y1="40" x2="583.79" y2="220" stroke="#e5e7eb" opacity="0.5"/><line x1="661.47" y1="40" x2="661.47" y2="220" stroke="#e5e7eb" opacity="0.5"/><line x1="739.16" y1="40" x2="739.16" y2="220" stroke="#e5e7eb" opacity="0.5"/><line x1="816.84" y1="40" x2="816.84" y2="220" stroke="#e5e7eb" opacity="0.5"/>
    <line x1="40" y1="220" x2="860" y2="220" stroke="#9ca3af"/>
    <line x1="40" y1="40"   x2="40"   y2="220" stroke="#9ca3af"/>
    <path d="M 40.00 219.82 L 48.63 214.15 L 57.26 214.06 L 65.89 214.06 L 74.53 213.25 L 83.16 213.25 L 91.79 204.88 L 100.42 185.98 L 109.05 185.98 L 117.68 180.94 L 126.32 152.59 L 134.95 159.97 L 143.58 158.89 L 152.21 158.17 L 160.84 139.63 L 169.47 139.63 L 178.11 157.18 L 186.74 154.66 L 195.37 154.39 L 204.00 151.60 L 212.63 150.97 L 221.26 150.70 L 229.89 149.80 L 238.53 149.80 L 247.16 147.46 L 255.79 144.94 L 264.42 144.76 L 273.05 140.71 L 281.68 134.23 L 290.32 134.23 L 298.95 133.69 L 307.58 133.69 L 316.21 133.69 L 324.84 133.69 L 333.47 133.69 L 342.11 133.69 L 350.74 132.97 L 359.37 132.97 L 368.00 132.97 L 376.63 132.97 L 385.26 132.97 L 393.89 132.97 L 402.53 132.97 L 411.16 132.97 L 419.79 132.97 L 428.42 132.97 L 437.05 132.97 L 445.68 132.97 L 454.32 132.97 L 462.95 132.97 L 471.58 132.97 L 480.21 132.97 L 488.84 132.97 L 497.47 132.97 L 506.11 132.97 L 514.74 132.97 L 523.37 132.97 L 532.00 132.97 L 540.63 132.97 L 549.26 132.97 L 557.89 132.97 L 566.53 132.97 L 575.16 132.97 L 583.79 132.97 L 592.42 132.97 L 601.05 132.97 L 609.68 132.97 L 618.32 132.97 L 626.95 132.97 L 635.58 132.97 L 644.21 132.97 L 652.84 132.97 L 661.47 132.97 L 670.11 132.97 L 678.74 132.97 L 687.37 132.97 L 696.00 132.97 L 704.63 132.97 L 713.26 132.97 L 721.89 132.97 L 730.53 132.97 L 739.16 132.97 L 747.79 132.97 L 756.42 132.97 L 765.05 132.97 L 773.68 132.97 L 782.32 132.97 L 790.95 132.97 L 799.58 132.97 L 808.21 132.97 L 816.84 132.97 L 825.47 132.97 L 834.11 132.97 L 842.74 132.97 L 851.37 132.97 L 860.00 132.97" fill="none" stroke="#111827" stroke-width="2"/>
    <circle cx="860.00" cy="132.97" r="3" fill="#111827"/>
    <text x="40.00" y="235.00" font-size="9" fill="#111827" text-anchor="middle" transform="rotate(-45 40.00 235.00)">09.08.2025</text><text x="117.68" y="235.00" font-size="9" fill="#111827" text-anchor="middle" transform="rotate(-45 117.68 235.00)">09.08.2025</text><text x="195.37" y="235.00" font-size="9" fill="#111827" text-anchor="middle" transform="rotate(-45 195.37 235.00)">09.08.2025</text><text x="273.05" y="235.00" font-size="9" fill="#111827" text-anchor="middle" transform="rotate(-45 273.05 235.00)">13.08.2025</text><text x="350.74" y="235.00" font-size="9" fill="#111827" text-anchor="middle" transform="rotate(-45 350.74 235.00)">13.08.2025</text><text x="428.42" y="235.00" font-size="9" fill="#111827" text-anchor="middle" transform="rotate(-45 428.42 235.00)">21.08.2025</text><text x="506.11" y="235.00" font-size="9" fill="#111827" text-anchor="middle" transform="rotate(-45 506.11 235.00)">28.08.2025</text><text x="583.79" y="235.00" font-size="9" fill="#111827" text-anchor="middle" transform="rotate(-45 583.79 235.00)">06.09.2025</text><text x="661.47" y="235.00" font-size="9" fill="#111827" text-anchor="middle" transform="rotate(-45 661.47 235.00)">15.09.2025</text><text x="739.16" y="235.00" font-size="9" fill="#111827" text-anchor="middle" transform="rotate(-45 739.16 235.00)">24.09.2025</text><text x="816.84" y="235.00" font-size="9" fill="#111827" text-anchor="middle" transform="rotate(-45 816.84 235.00)">03.10.2025</text>
  </g>
</svg>