<svg xmlns="http://www.w3.org/2000/svg" width="900" height="290" style="font-family: -apple-system, BlinkMacSystemFont, 'Segoe UI', Helvetica, Arial, sans-serif;">
  <rect width="100%" height="100%" fill="#0d1117"/>
  <g>
    <line x1="40" y1="220.00" x2="860" y2="220.00" stroke="#30363d"/><text x="32" y="224.00" font-size="10" fill="#c9d1d9" text-anchor="end">0</text><line x1="40" y1="175.00" x2="860" y2="175.00" stroke="#30363d"/><text x="32" y="179.00" font-size="10" fill="#c9d1d9" text-anchor="end">500</text><line x1="40" y1="130.00" x2="860" y2="130.00" stroke="#30363d"/><text x="32" y="134.00" font-size="10" fill="#c9d1d9" text-anchor="end">1k</text><line x1="40" y1="85.00" x2="860" y2="85.00" stroke="#30363d"/><text x="32" y="89.00" font-size="10" fill="#c9d1d9" text-anchor="end">1.5k</text><line x1="40" y1="40.00" x2="860" y2="40.00" stroke="#30363d"/><text x="32" y="44.00" font-size="10" fill="#c9d1d9" text-anchor="end">2k</text>
    <line x1="40.00" y1="40" x2="40.00" y2="220" stroke="#30363d" opacity="0.5"/><line x1="116.28" y1="40" x2="116.28" y2="220" stroke="#30363d" opacity="0.5"/><line x1="192.56" y1="40" x2="192.56" y2="220" stroke="#30363d" opacity="0.5"/><line x1="268.84" y1="40" x2="268.84" y2="220" stroke="#30363d" opacity="0.5"/><line x1="345.12" y1="40" x2="345.12" y2="220" stroke="#30363d" opacity="0.5"/><line x1="421.40" y1="40" x2="421.40" y2="220" stroke="#30363d" opacity="0.5"/><line x1="497.67" y1="40" x2="497.67" y2="220" stroke="#30363d" opacity="0.5"/><line x1="573.95" y1="40" x2="573.95" y2="220" stroke="#30363d" opacity="0.5"/><line x1="650.23" y1="40" x2="650.23" y2="220" stroke="#30363d" opacity="0.5"/><line x1="726.51" y1="40" x2="726.51" y2="220" stroke="#30363d" opacity="0.5"/><line x1="802.79" y1="40" x2="802.79" y2="220" stroke="#30363d" opacity="0.5"/>
    <line x1="40" y1="220" x2="860" y2="220" stroke="#30363d"/>
    <line x1="40" y1="40"   x2="40"   y2="220" stroke="#30363d"/>
    <path d="M 40.00 219.82 L 49.53 214.15 L 59.07 214.06 L 68.60 214.06 L 78.14 213.25 L 87.67 213.25 L 97.21 204.88 L 106.74 185.98 L 116.28 185.98 L 125.81 180.94 L 135.35 152.59 L 144.88 159.97 L 154.42 158.89 L 163.95 158.17 L 173.49 139.63 L 183.02 139.63 L 192.56 157.18 L 202.09 154.66 L 211.63 154.39 L 221.16 151.60 L 230.70 150.97 L 240.23 150.70 L 249.77 149.80 L 259.30 149.80 L 268.84 147.46 L 278.37 144.94 L 287.91 144.76 L 297.44 140.71 L 306.98 134.23 L 316.51 134.23 L 326.05 133.69 L 335.58 133.69 L 345.12 133.69 L 354.65 133.69 L 364.19 133.69 L 373.72 133.69 L 383.26 132.97 L 392.79 132.97 L 402.33 132.97 L 411.86 132.97 L 421.40 132.97 L 430.93 132.97 L 440.47 132.97 L 450.00 132.97 L 459.53 132.97 L 469.07 132.97 L 478.60 132.97 L 488.14 132.97 L 497.67 132.97 L 507.21 132.97 L 516.74 132.97 L 526.28 132.97 L 535.81 132.97 L 545.35 132.97 L 554.88 132.97 L 564.42 132.97 L 573.95 132.97 L 583.49 132.97 L 593.02 132.97 L 602.56 132.97 L 612.09 132.97 L 621.63 132.97 L 631.16 132.97 L 640.70 132.97 L 650.23 132.97 L 659.77 132.97 L 669.30 132.97 L 678.84 132.97 L 688.37 132.97 L 697.91 132.97 L 707.44 132.97 L 716.98 132.97 L 726.51 132.97 L 736.05 132.97 L 745.58 132.97 L 755.12 132.97 L 764.65 132.97 L 774.19 132.97 L 783.72 132.97 L 793.26 132.97 L 802.79 132.97 L 812.33 132.97 L 821.86 132.97 L 831.40 132.97 L 840.93 132.97 L 850.47 132.97 L 860.00 132.97" fill="none" stroke="#3fb950" stroke-width="2"/>
    <circle cx="860.00" cy="132.97" r="3" fill="#3fb950"/>
    <text x="40.00" y="235.00" font-size="9" fill="#c9d1d9" text-anchor="middle" transform="rotate(-45 40.00 235.00)">09.08.2025</text><text x="116.28" y="235.00" font-size="9" fill="#c9d1d9" text-anchor="middle" transform="rotate(-45 116.28 235.00)">09.08.2025</text><text x="192.56" y="235.00" font-size="9" fill="#c9d1d9" text-anchor="middle" transform="rotate(-45 192.56 235.00)">09.08.2025</text><text x="268.84" y="235.00" font-size="9" fill="#c9d1d9" text-anchor="middle" transform="rotate(-45 268.84 235.00)">09.08.2025</text><text x="345.12" y="235.00" font-size="9" fill="#c9d1d9" text-anchor="middle" transform="rotate(-45 345.12 235.00)">13.08.2025</text><text x="421.40" y="235.00" font-size="9" fill="#c9d1d9" text-anchor="middle" transform="rotate(-45 421.40 235.00)">16.08.2025</text><text x="497.67" y="235.00" font-size="9" fill="#c9d1d9" text-anchor="middle" transform="rotate(-45 497.67 235.00)">24.08.2025</text><text x="573.95" y="235.00" font-size="9" fill="#c9d1d9" text-anchor="middle" transform="rotate(-45 573.95 235.00)">30.08.2025</text><text x="650.23" y="235.00" font-size="9" fill="#c9d1d9" text-anchor="middle" transform="rotate(-45 650.23 235.00)">07.09.2025</text><text x="726.51" y="235.00" font-size="9" fill="#c9d1d9" text-anchor="middle" transform="rotate(-45 726.51 235.00)">15.09.2025</text><text x="802.79" y="235.00" font-size="9" fill="#c9d1d9" text-anchor="middle" transform="rotate(-45 802.79 235.00)">23.09.2025</text>
  </g>
</svg>