<svg xmlns="http://www.w3.org/2000/svg" width="900" height="290" style="font-family: -apple-system, BlinkMacSystemFont, 'Segoe UI', Helvetica, Arial, sans-serif;">
  <rect width="100%" height="100%" fill="white"/>
  <g>
    <line x1="40" y1="220.00" x2="860" y2="220.00" stroke="#e5e7eb"/><text x="32" y="224.00" font-size="10" fill="#111827" text-anchor="end">0</text><line x1="40" y1="175.00" x2="860" y2="175.00" stroke="#e5e7eb"/><text x="32" y="179.00" font-size="10" fill="#111827" text-anchor="end">500</text><line x1="40" y1="130.00" x2="860" y2="130.00" stroke="#e5e7eb"/><text x="32" y="134.00" font-size="10" fill="#111827" text-anchor="end">1k</text><line x1="40" y1="85.00" x2="860" y2="85.00" stroke="#e5e7eb"/><text x="32" y="89.00" font-size="10" fill="#111827" text-anchor="end">1.5k</text><line x1="40" y1="40.00" x2="860" y2="40.00" stroke="#e5e7eb"/><text x="32" y="44.00" font-size="10" fill="#111827" text-anchor="end">2k</text>
    <line x1="40.00" y1="40" x2="40.00" y2="220" stroke="#e5e7eb" opacity="0.5"/><line x1="120.85" y1="40" x2="120.85" y2="220" stroke="#e5e7eb" opacity="0.5"/><line x1="201.69" y1="40" x2="201.69" y2="220" stroke="#e5e7eb" opacity="0.5"/><line x1="282.54" y1="40" x2="282.54" y2="220" stroke="#e5e7eb" opacity="0.5"/><line x1="363.38" y1="40" x2="363.38" y2="220" stroke="#e5e7eb" opacity="0.5"/><line x1="444.23" y1="40" x2="444.23" y2="220" stroke="#e5e7eb" opacity="0.5"/><line x1="525.07" y1="40" x2="525.07" y2="220" stroke="#e5e7eb" opacity="0.5"/><line x1="605.92" y1="40" x2="605.92" y2="220" stroke="#e5e7eb" opacity="0.5"/><line x1="686.76" y1="40" x2="686.76" y2="220" stroke="#e5e7eb" opacity="0.5"/><line x1="767.61" y1="40" x2="767.61" y2="220" stroke="#e5e7eb" opacity="0.5"/><line x1="848.45" y1="40" x2="848.45" y2="220" stroke="#e5e7eb" opacity="0.5"/>
    <line x1="40" y1="220" x2="860" y2="220" stroke="#9ca3af"/>
    <line x1="40" y1="40"   x2="40"   y2="220" stroke="#9ca3af"/>
    <path d="M 40.00 219.82 L 43.85 214.15 L 47.70 214.06 L 51.55 214.06 L 55.40 213.25 L 59.25 213.25 L 63.10 204.88 L 66.95 185.98 L 70.80 185.98 L 74.65 180.94 L 78.50 152.59 L 82.35 159.97 L 86.20 158.89 L 90.05 158.17 L 93.90 139.63 L 97.75 139.63 L 101.60 157.18 L 105.45 154.66 L 109.30 154.39 L 113.15 151.60 L 117.00 150.97 L 120.85 150.70 L 124.69 149.80 L 128.54 149.80 L 132.39 147.46 L 136.24 144.94 L 140.09 144.76 L 143.94 140.71 L 147.79 134.23 L 151.64 134.23 L 155.49 133.69 L 159.34 133.69 L 163.19 133.69 L 167.04 133.69 L 170.89 133.69 L 174.74 133.69 L 178.59 132.97 L 182.44 132.97 L 186.29 132.97 L 190.14 132.97 L 193.99 132.97 L 197.84 132.97 L 201.69 132.97 L 205.54 132.97 L 209.39 132.97 L 213.24 132.97 L 217.09 132.97 L 220.94 132.97 L 224.79 132.97 L 228.64 132.97 L 232.49 132.97 L 236.34 132.97 L 240.19 132.97 L 244.04 132.97 L 247.89 132.97 L 251.74 132.97 L 255.59 132.97 L 259.44 132.97 L 263.29 132.97 L 267.14 132.97 L 270.99 132.97 L 274.84 132.97 L 278.69 132.97 L 282.54 132.97 L 286.38 132.97 L 290.23 132.97 L 294.08 132.97 L 297.93 132.97 L 301.78 132.97 L 305.63 132.97 L 309.48 132.97 L 313.33 132.97 L 317.18 132.97 L 321.03 132.97 L 324.88 132.97 L 328.73 132.97 L 332.58 132.97 L 336.43 132.97 L 340.28 132.97 L 344.13 132.97 L 347.98 132.97 L 351.83 132.97 L 355.68 132.97 L 359.53 132.97 L 363.38 132.97 L 367.23 132.97 L 371.08 132.97 L 374.93 132.97 L 378.78 132.97 L 382.63 132.97 L 386.48 132.97 L 390.33 132.97 L 394.18 132.97 L 398.03 132.97 L 401.88 132.97 L 405.73 132.97 L 409.58 132.97 L 413.43 132.97 L 417.28 132.97 L 421.13 132.97 L 424.98 132.97 L 428.83 132.97 L 432.68 132.97 L 436.53 132.97 L 440.38 132.97 L 444.23 132.97 L 448.08 132.97 L 451.92 132.97 L 455.77 132.97 L 459.62 132.97 L 463.47 132.97 L 467.32 132.97 L 471.17 132.97 L 475.02 132.97 L 478.87 132.97 L 482.72 132.97 L 486.57 132.97 L 490.42 132.97 L 494.27 132.97 L 498.12 132.97 L 501.97 132.97 L 505.82 132.97 L 509.67 132.97 L 513.52 132.97 L 517.37 132.97 L 521.22 132.97 L 525.07 132.97 L 528.92 132.97 L 532.77 132.97 L 536.62 132.97 L 540.47 132.97 L 544.32 132.97 L 548.17 132.97 L 552.02 132.97 L 555.87 132.97 L 559.72 132.97 L 563.57 132.97 L 567.42 132.97 L 571.27 132.97 L 575.12 132.97 L 578.97 132.97 L 582.82 132.97 L 586.67 132.97 L 590.52 132.97 L 594.37 132.97 L 598.22 132.97 L 602.07 132.97 L 605.92 132.97 L 609.77 132.97 L 613.62 132.97 L 617.46 132.97 L 621.31 132.97 L 625.16 132.97 L 629.01 124.51 L 632.86 120.64 L 636.71 116.77 L 640.56 112.90 L 644.41 109.03 L 648.26 105.97 L 652.11 105.97 L 655.96 105.97 L 659.81 105.97 L 663.66 105.97 L 667.51 105.79 L 671.36 103.09 L 675.21 98.41 L 679.06 98.41 L 682.91 98.41 L 686.76 98.41 L 690.61 98.41 L 694.46 98.41 L 698.31 98.41 L 702.16 98.41 L 706.01 98.41 L 709.86 98.41 L 713.71 98.41 L 717.56 98.41 L 721.41 98.41 L 725.26 98.41 L 729.11 98.41 L 732.96 98.41 L 736.81 98.41 L 740.66 98.41 L 744.51 98.41 L 748.36 98.41 L 752.21 98.41 L 756.06 98.41 L 759.91 98.41 L 763.76 98.41 L 767.61 98.41 L 771.46 98.41 L 775.31 98.41 L 779.15 98.41 L 783.00 98.41 L 786.85 98.41 L 790.70 98.41 L 794.55 98.41 L 798.40 98.41 L 802.25 98.41 L 806.10 98.41 L 809.95 98.41 L 813.80 98.41 L 817.65 98.41 L 821.50 98.41 L 825.35 98.41 L 829.20 98.41 L 833.05 98.41 L 836.90 98.41 L 840.75 98.41 L 844.60 98.41 L 848.45 98.41 L 852.30 98.41 L 856.15 98.41 L 860.00 98.41" fill="none" stroke="#111827" stroke-width="2"/>
    <circle cx="860.00" cy="98.41" r="3" fill="#111827"/>
    <text x="40.00" y="235.00" font-size="9" fill="#111827" text-anchor="middle" transform="rotate(-45 40.00 235.00)">09.08.2025</text><text x="120.85" y="235.00" font-size="9" fill="#111827" text-anchor="middle" transform="rotate(-45 120.85 235.00)">09.08.2025</text><text x="201.69" y="235.00" font-size="9" fill="#111827" text-anchor="middle" transform="rotate(-45 201.69 235.00)">18.08.2025</text><text x="282.54" y="235.00" font-size="9" fill="#111827" text-anchor="middle" transform="rotate(-45 282.54 235.00)">06.09.2025</text><text x="363.38" y="235.00" font-size="9" fill="#111827" text-anchor="middle" transform="rotate(-45 363.38 235.00)">27.09.2025</text><text x="444.23" y="235.00" font-size="9" fill="#111827" text-anchor="middle" transform="rotate(-45 444.23 235.00)">18.10.2025</text><text x="525.07" y="235.00" font-size="9" fill="#111827" text-anchor="middle" transform="rotate(-45 525.07 235.00)">08.11.2025</text><text x="605.92" y="235.00" font-size="9" fill="#111827" text-anchor="middle" transform="rotate(-45 605.92 235.00)">29.11.2025</text><text x="686.76" y="235.00" font-size="9" fill="#111827" text-anchor="middle" transform="rotate(-45 686.76 235.00)">10.12.2025</text><text x="767.61" y="235.00" font-size="9" fill="#111827" text-anchor="middle" transform="rotate(-45 767.61 235.00)">31.12.2025</text><text x="848.45" y="235.00" font-size="9" fill="#111827" text-anchor="middle" transform="rotate(-45 848.45 235.00)">21.01.2026</text>
  </g>
</svg>