<svg xmlns="http://www.w3.org/2000/svg" width="900" height="290" style="font-family: -apple-system, BlinkMacSystemFont, 'Segoe UI', Helvetica, Arial, sans-serif;">
  <rect width="100%" height="100%" fill="white"/>
  <g>
    <line x1="40" y1="220.00" x2="860" y2="220.00" stroke="#e5e7eb"/><text x="32" y="224.00" font-size="10" fill="#111827" text-anchor="end">0</text><line x1="40" y1="175.00" x2="860" y2="175.00" stroke="#e5e7eb"/><text x="32" y="179.00" font-size="10" fill="#111827" text-anchor="end">500</text><line x1="40" y1="130.00" x2="860" y2="130.00" stroke="#e5e7eb"/><text x="32" y="134.00" font-size="10" fill="#111827" text-anchor="end">1k</text><line x1="40" y1="85.00" x2="860" y2="85.00" stroke="#e5e7eb"/><text x="32" y="89.00" font-size="10" fill="#111827" text-anchor="end">1.5k</text><line x1="40" y1="40.00" x2="860" y2="40.00" stroke="#e5e7eb"/><text x="32" y="44.00" font-size="10" fill="#111827" text-anchor="end">2k</text>
    <line x1="40.00" y1="40" x2="40.00" y2="220" stroke="#e5e7eb" opacity="0.5"/><line x1="121.19" y1="40" x2="121.19" y2="220" stroke="#e5e7eb" opacity="0.5"/><line x1="202.38" y1="40" x2="202.38" y2="220" stroke="#e5e7eb" opacity="0.5"/><line x1="283.56" y1="40" x2="283.56" y2="220" stroke="#e5e7eb" opacity="0.5"/><line x1="364.75" y1="40" x2="364.75" y2="220" stroke="#e5e7eb" opacity="0.5"/><line x1="445.94" y1="40" x2="445.94" y2="220" stroke="#e5e7eb" opacity="0.5"/><line x1="527.13" y1="40" x2="527.13" y2="220" stroke="#e5e7eb" opacity="0.5"/><line x1="608.32" y1="40" x2="608.32" y2="220" stroke="#e5e7eb" opacity="0.5"/><line x1="689.50" y1="40" x2="689.50" y2="220" stroke="#e5e7eb" opacity="0.5"/><line x1="770.69" y1="40" x2="770.69" y2="220" stroke="#e5e7eb" opacity="0.5"/><line x1="851.88" y1="40" x2="851.88" y2="220" stroke="#e5e7eb" opacity="0.5"/>
    <line x1="40" y1="220" x2="860" y2="220" stroke="#9ca3af"/>
    <line x1="40" y1="40"   x2="40"   y2="220" stroke="#9ca3af"/>
    <path d="M 40.00 219.82 L 48.12 214.15 L 56.24 214.06 L 64.36 214.06 L 72.48 213.25 L 80.59 213.25 L 88.71 204.88 L 96.83 185.98 L 104.95 185.98 L 113.07 180.94 L 121.19 152.59 L 129.31 159.97 L 137.43 158.89 L 145.54 158.17 L 153.66 139.63 L 161.78 139.63 L 169.90 157.18 L 178.02 154.66 L 186.14 154.39 L 194.26 151.60 L 202.38 150.97 L 210.50 150.70 L 218.61 149.80 L 226.73 149.80 L 234.85 147.46 L 242.97 144.94 L 251.09 144.76 L 259.21 140.71 L 267.33 134.23 L 275.45 134.23 L 283.56 133.69 L 291.68 133.69 L 299.80 133.69 L 307.92 133.69 L 316.04 133.69 L 324.16 133.69 L 332.28 132.97 L 340.40 132.97 L 348.51 132.97 L 356.63 132.97 L 364.75 132.97 L 372.87 132.97 L 380.99 132.97 L 389.11 132.97 L 397.23 132.97 L 405.35 132.97 L 413.47 132.97 L 421.58 132.97 L 429.70 132.97 L 437.82 132.97 L 445.94 132.97 L 454.06 132.97 L 462.18 132.97 L 470.30 132.97 L 478.42 132.97 L 486.53 132.97 L 494.65 132.97 L 502.77 132.97 L 510.89 132.97 L 519.01 132.97 L 527.13 132.97 L 535.25 132.97 L 543.37 132.97 L 551.49 132.97 L 559.60 132.97 L 567.72 132.97 L 575.84 132.97 L 583.96 132.97 L 592.08 132.97 L 600.20 132.97 L 608.32 132.97 L 616.44 132.97 L 624.55 132.97 L 632.67 132.97 L 640.79 132.97 L 648.91 132.97 L 657.03 132.97 L 665.15 132.97 L 673.27 132.97 L 681.39 132.97 L 689.50 132.97 L 697.62 132.97 L 705.74 132.97 L 713.86 132.97 L 721.98 132.97 L 730.10 132.97 L 738.22 132.97 L 746.34 132.97 L 754.46 132.97 L 762.57 132.97 L 770.69 132.97 L 778.81 132.97 L 786.93 132.97 L 795.05 132.97 L 803.17 132.97 L 811.29 132.97 L 819.41 132.97 L 827.52 132.97 L 835.64 132.97 L 843.76 132.97 L 851.88 132.97 L 860.00 132.97" fill="none" stroke="#111827" stroke-width="2"/>
    <circle cx="860.00" cy="132.97" r="3" fill="#111827"/>
    <text x="40.00" y="235.00" font-size="9" fill="#111827" text-anchor="middle" transform="rotate(-45 40.00 235.00)">09.08.2025</text><text x="121.19" y="235.00" font-size="9" fill="#111827" text-anchor="middle" transform="rotate(-45 121.19 235.00)">09.08.2025</text><text x="202.38" y="235.00" font-size="9" fill="#111827" text-anchor="middle" transform="rotate(-45 202.38 235.00)">09.08.2025</text><text x="283.56" y="235.00" font-size="9" fill="#111827" text-anchor="middle" transform="rotate(-45 283.56 235.00)">13.08.2025</text><text x="364.75" y="235.00" font-size="9" fill="#111827" text-anchor="middle" transform="rotate(-45 364.75 235.00)">16.08.2025</text><text x="445.94" y="235.00" font-size="9" fill="#111827" text-anchor="middle" transform="rotate(-45 445.94 235.00)">26.08.2025</text><text x="527.13" y="235.00" font-size="9" fill="#111827" text-anchor="middle" transform="rotate(-45 527.13 235.00)">03.09.2025</text><text x="608.32" y="235.00" font-size="9" fill="#111827" text-anchor="middle" transform="rotate(-45 608.32 235.00)">13.09.2025</text><text x="689.50" y="235.00" font-size="9" fill="#111827" text-anchor="middle" transform="rotate(-45 689.50 235.00)">23.09.2025</text><text x="770.69" y="235.00" font-size="9" fill="#111827" text-anchor="middle" transform="rotate(-45 770.69 235.00)">03.10.2025</text><text x="851.88" y="235.00" font-size="9" fill="#111827" text-anchor="middle" transform="rotate(-45 851.88 235.00)">13.10.2025</text>
  </g>
</svg>