<svg xmlns="http://www.w3.org/2000/svg" width="900" height="290" style="font-family: -apple-system, BlinkMacSystemFont, 'Segoe UI', Helvetica, Arial, sans-serif;">
  <rect width="100%" height="100%" fill="white"/>
  <g>
    <line x1="40" y1="220.00" x2="860" y2="220.00" stroke="#e5e7eb"/><text x="32" y="224.00" font-size="10" fill="#111827" text-anchor="end">0</text><line x1="40" y1="175.00" x2="860" y2="175.00" stroke="#e5e7eb"/><text x="32" y="179.00" font-size="10" fill="#111827" text-anchor="end">500</text><line x1="40" y1="130.00" x2="860" y2="130.00" stroke="#e5e7eb"/><text x="32" y="134.00" font-size="10" fill="#111827" text-anchor="end">1k</text><line x1="40" y1="85.00" x2="860" y2="85.00" stroke="#e5e7eb"/><text x="32" y="89.00" font-size="10" fill="#111827" text-anchor="end">1.5k</text><line x1="40" y1="40.00" x2="860" y2="40.00" stroke="#e5e7eb"/><text x="32" y="44.00" font-size="10" fill="#111827" text-anchor="end">2k</text>
    <line x1="40.00" y1="40" x2="40.00" y2="220" stroke="#e5e7eb" opacity="0.5"/><line x1="120.00" y1="40" x2="120.00" y2="220" stroke="#e5e7eb" opacity="0.5"/><line x1="200.00" y1="40" x2="200.00" y2="220" stroke="#e5e7eb" opacity="0.5"/><line x1="280.00" y1="40" x2="280.00" y2="220" stroke="#e5e7eb" opacity="0.5"/><line x1="360.00" y1="40" x2="360.00" y2="220" stroke="#e5e7eb" opacity="0.5"/><line x1="440.00" y1="40" x2="440.00" y2="220" stroke="#e5e7eb" opacity="0.5"/><line x1="520.00" y1="40" x2="520.00" y2="220" stroke="#e5e7eb" opacity="0.5"/><line x1="600.00" y1="40" x2="600.00" y2="220" stroke="#e5e7eb" opacity="0.5"/><line x1="680.00" y1="40" x2="680.00" y2="220" stroke="#e5e7eb" opacity="0.5"/><line x1="760.00" y1="40" x2="760.00" y2="220" stroke="#e5e7eb" opacity="0.5"/><line x1="840.00" y1="40" x2="840.00" y2="220" stroke="#e5e7eb" opacity="0.5"/>
    <line x1="40" y1="220" x2="860" y2="220" stroke="#9ca3af"/>
    <line x1="40" y1="40"   x2="40"   y2="220" stroke="#9ca3af"/>
    <path d="M 40.00 219.82 L 43.33 214.15 L 46.67 214.06 L 50.00 214.06 L 53.33 213.25 L 56.67 213.25 L 60.00 204.88 L 63.33 185.98 L 66.67 185.98 L 70.00 180.94 L 73.33 152.59 L 76.67 159.97 L 80.00 158.89 L 83.33 158.17 L 86.67 139.63 L 90.00 139.63 L 93.33 157.18 L 96.67 154.66 L 100.00 154.39 L 103.33 151.60 L 106.67 150.97 L 110.00 150.70 L 113.33 149.80 L 116.67 149.80 L 120.00 147.46 L 123.33 144.94 L 126.67 144.76 L 130.00 140.71 L 133.33 134.23 L 136.67 134.23 L 140.00 133.69 L 143.33 133.69 L 146.67 133.69 L 150.00 133.69 L 153.33 133.69 L 156.67 133.69 L 160.00 132.97 L 163.33 132.97 L 166.67 132.97 L 170.00 132.97 L 173.33 132.97 L 176.67 132.97 L 180.00 132.97 L 183.33 132.97 L 186.67 132.97 L 190.00 132.97 L 193.33 132.97 L 196.67 132.97 L 200.00 132.97 L 203.33 132.97 L 206.67 132.97 L 210.00 132.97 L 213.33 132.97 L 216.67 132.97 L 220.00 132.97 L 223.33 132.97 L 226.67 132.97 L 230.00 132.97 L 233.33 132.97 L 236.67 132.97 L 240.00 132.97 L 243.33 132.97 L 246.67 132.97 L 250.00 132.97 L 253.33 132.97 L 256.67 132.97 L 260.00 132.97 L 263.33 132.97 L 266.67 132.97 L 270.00 132.97 L 273.33 132.97 L 276.67 132.97 L 280.00 132.97 L 283.33 132.97 L 286.67 132.97 L 290.00 132.97 L 293.33 132.97 L 296.67 132.97 L 300.00 132.97 L 303.33 132.97 L 306.67 132.97 L 310.00 132.97 L 313.33 132.97 L 316.67 132.97 L 320.00 132.97 L 323.33 132.97 L 326.67 132.97 L 330.00 132.97 L 333.33 132.97 L 336.67 132.97 L 340.00 132.97 L 343.33 132.97 L 346.67 132.97 L 350.00 132.97 L 353.33 132.97 L 356.67 132.97 L 360.00 132.97 L 363.33 132.97 L 366.67 132.97 L 370.00 132.97 L 373.33 132.97 L 376.67 132.97 L 380.00 132.97 L 383.33 132.97 L 386.67 132.97 L 390.00 132.97 L 393.33 132.97 L 396.67 132.97 L 400.00 132.97 L 403.33 132.97 L 406.67 132.97 L 410.00 132.97 L 413.33 132.97 L 416.67 132.97 L 420.00 132.97 L 423.33 132.97 L 426.67 132.97 L 430.00 132.97 L 433.33 132.97 L 436.67 132.97 L 440.00 132.97 L 443.33 132.97 L 446.67 132.97 L 450.00 132.97 L 453.33 132.97 L 456.67 132.97 L 460.00 132.97 L 463.33 132.97 L 466.67 132.97 L 470.00 132.97 L 473.33 132.97 L 476.67 132.97 L 480.00 132.97 L 483.33 132.97 L 486.67 132.97 L 490.00 132.97 L 493.33 132.97 L 496.67 132.97 L 500.00 132.97 L 503.33 132.97 L 506.67 132.97 L 510.00 132.97 L 513.33 132.97 L 516.67 132.97 L 520.00 132.97 L 523.33 132.97 L 526.67 132.97 L 530.00 132.97 L 533.33 132.97 L 536.67 132.97 L 540.00 132.97 L 543.33 132.97 L 546.67 132.97 L 550.00 124.51 L 553.33 120.64 L 556.67 116.77 L 560.00 112.90 L 563.33 109.03 L 566.67 105.97 L 570.00 105.97 L 573.33 105.97 L 576.67 105.97 L 580.00 105.97 L 583.33 105.79 L 586.67 103.09 L 590.00 98.41 L 593.33 98.41 L 596.67 98.41 L 600.00 98.41 L 603.33 98.41 L 606.67 98.41 L 610.00 98.41 L 613.33 98.41 L 616.67 98.41 L 620.00 98.41 L 623.33 98.41 L 626.67 98.41 L 630.00 98.41 L 633.33 98.41 L 636.67 98.41 L 640.00 98.41 L 643.33 98.41 L 646.67 98.41 L 650.00 98.41 L 653.33 98.41 L 656.67 98.41 L 660.00 98.41 L 663.33 98.41 L 666.67 98.41 L 670.00 98.41 L 673.33 98.41 L 676.67 98.41 L 680.00 98.41 L 683.33 98.41 L 686.67 98.41 L 690.00 98.41 L 693.33 98.41 L 696.67 98.41 L 700.00 98.41 L 703.33 98.41 L 706.67 98.41 L 710.00 98.41 L 713.33 98.41 L 716.67 98.41 L 720.00 98.41 L 723.33 98.41 L 726.67 98.41 L 730.00 98.41 L 733.33 98.41 L 736.67 98.41 L 740.00 98.41 L 743.33 98.41 L 746.67 98.41 L 750.00 98.41 L 753.33 98.41 L 756.67 98.41 L 760.00 98.41 L 763.33 98.41 L 766.67 98.41 L 770.00 98.41 L 773.33 98.41 L 776.67 98.41 L 780.00 98.41 L 783.33 98.41 L 786.67 98.41 L 790.00 98.41 L 793.33 98.41 L 796.67 98.41 L 800.00 98.41 L 803.33 98.41 L 806.67 98.41 L 810.00 98.41 L 813.33 98.41 L 816.67 98.41 L 820.00 98.41 L 823.33 98.41 L 826.67 98.41 L 830.00 98.41 L 833.33 98.41 L 836.67 98.41 L 840.00 98.41 L 843.33 98.41 L 846.67 98.41 L 850.00 98.41 L 853.33 98.41 L 856.67 98.41 L 860.00 98.41" fill="none" stroke="#111827" stroke-width="2"/>
    <circle cx="860.00" cy="98.41" r="3" fill="#111827"/>
    <text x="40.00" y="235.00" font-size="9" fill="#111827" text-anchor="middle" transform="rotate(-45 40.00 235.00)">09.08.2025</text><text x="120.00" y="235.00" font-size="9" fill="#111827" text-anchor="middle" transform="rotate(-45 120.00 235.00)">09.08.2025</text><text x="200.00" y="235.00" font-size="9" fill="#111827" text-anchor="middle" transform="rotate(-45 200.00 235.00)">24.08.2025</text><text x="280.00" y="235.00" font-size="9" fill="#111827" text-anchor="middle" transform="rotate(-45 280.00 235.00)">15.09.2025</text><text x="360.00" y="235.00" font-size="9" fill="#111827" text-anchor="middle" transform="rotate(-45 360.00 235.00)">09.10.2025</text><text x="440.00" y="235.00" font-size="9" fill="#111827" text-anchor="middle" transform="rotate(-45 440.00 235.00)">02.11.2025</text><text x="520.00" y="235.00" font-size="9" fill="#111827" text-anchor="middle" transform="rotate(-45 520.00 235.00)">26.11.2025</text><text x="600.00" y="235.00" font-size="9" fill="#111827" text-anchor="middle" transform="rotate(-45 600.00 235.00)">10.12.2025</text><text x="680.00" y="235.00" font-size="9" fill="#111827" text-anchor="middle" transform="rotate(-45 680.00 235.00)">03.01.2026</text><text x="760.00" y="235.00" font-size="9" fill="#111827" text-anchor="middle" transform="rotate(-45 760.00 235.00)">27.01.2026</text><text x="840.00" y="235.00" font-size="9" fill="#111827" text-anchor="middle" transform="rotate(-45 840.00 235.00)">20.02.2026</text>
  </g>
</svg>