<svg xmlns="http://www.w3.org/2000/svg" width="900" height="290" style="font-family: -apple-system, BlinkMacSystemFont, 'Segoe UI', Helvetica, Arial, sans-serif;">
  <rect width="100%" height="100%" fill="white"/>
  <g>
    <line x1="40" y1="220.00" x2="860" y2="220.00" stroke="#e5e7eb"/><text x="32" y="224.00" font-size="10" fill="#111827" text-anchor="end">0</text><line x1="40" y1="175.00" x2="860" y2="175.00" stroke="#e5e7eb"/><text x="32" y="179.00" font-size="10" fill="#111827" text-anchor="end">500</text><line x1="40" y1="130.00" x2="860" y2="130.00" stroke="#e5e7eb"/><text x="32" y="134.00" font-size="10" fill="#111827" text-anchor="end">1k</text><line x1="40" y1="85.00" x2="860" y2="85.00" stroke="#e5e7eb"/><text x="32" y="89.00" font-size="10" fill="#111827" text-anchor="end">1.5k</text><line x1="40" y1="40.00" x2="860" y2="40.00" stroke="#e5e7eb"/><text x="32" y="44.00" font-size="10" fill="#111827" text-anchor="end">2k</text>
    <line x1="40.00" y1="40" x2="40.00" y2="220" stroke="#e5e7eb" opacity="0.5"/><line x1="119.49" y1="40" x2="119.49" y2="220" stroke="#e5e7eb" opacity="0.5"/><line x1="198.98" y1="40" x2="198.98" y2="220" stroke="#e5e7eb" opacity="0.5"/><line x1="278.47" y1="40" x2="278.47" y2="220" stroke="#e5e7eb" opacity="0.5"/><line x1="357.96" y1="40" x2="357.96" y2="220" stroke="#e5e7eb" opacity="0.5"/><line x1="437.45" y1="40" x2="437.45" y2="220" stroke="#e5e7eb" opacity="0.5"/><line x1="516.94" y1="40" x2="516.94" y2="220" stroke="#e5e7eb" opacity="0.5"/><line x1="596.43" y1="40" x2="596.43" y2="220" stroke="#e5e7eb" opacity="0.5"/><line x1="675.92" y1="40" x2="675.92" y2="220" stroke="#e5e7eb" opacity="0.5"/><line x1="755.41" y1="40" x2="755.41" y2="220" stroke="#e5e7eb" opacity="0.5"/><line x1="834.90" y1="40" x2="834.90" y2="220" stroke="#e5e7eb" opacity="0.5"/>
    <line x1="40" y1="220" x2="860" y2="220" stroke="#9ca3af"/>
    <line x1="40" y1="40"   x2="40"   y2="220" stroke="#9ca3af"/>
    <path d="M 40.00 219.82 L 44.18 214.15 L 48.37 214.06 L 52.55 214.06 L 56.73 213.25 L 60.92 213.25 L 65.10 204.88 L 69.29 185.98 L 73.47 185.98 L 77.65 180.94 L 81.84 152.59 L 86.02 159.97 L 90.20 158.89 L 94.39 158.17 L 98.57 139.63 L 102.76 139.63 L 106.94 157.18 L 111.12 154.66 L 115.31 154.39 L 119.49 151.60 L 123.67 150.97 L 127.86 150.70 L 132.04 149.80 L 136.22 149.80 L 140.41 147.46 L 144.59 144.94 L 148.78 144.76 L 152.96 140.71 L 157.14 134.23 L 161.33 134.23 L 165.51 133.69 L 169.69 133.69 L 173.88 133.69 L 178.06 133.69 L 182.24 133.69 L 186.43 133.69 L 190.61 132.97 L 194.80 132.97 L 198.98 132.97 L 203.16 132.97 L 207.35 132.97 L 211.53 132.97 L 215.71 132.97 L 219.90 132.97 L 224.08 132.97 L 228.27 132.97 L 232.45 132.97 L 236.63 132.97 L 240.82 132.97 L 245.00 132.97 L 249.18 132.97 L 253.37 132.97 L 257.55 132.97 L 261.73 132.97 L 265.92 132.97 L 270.10 132.97 L 274.29 132.97 L 278.47 132.97 L 282.65 132.97 L 286.84 132.97 L 291.02 132.97 L 295.20 132.97 L 299.39 132.97 L 303.57 132.97 L 307.76 132.97 L 311.94 132.97 L 316.12 132.97 L 320.31 132.97 L 324.49 132.97 L 328.67 132.97 L 332.86 132.97 L 337.04 132.97 L 341.22 132.97 L 345.41 132.97 L 349.59 132.97 L 353.78 132.97 L 357.96 132.97 L 362.14 132.97 L 366.33 132.97 L 370.51 132.97 L 374.69 132.97 L 378.88 132.97 L 383.06 132.97 L 387.24 132.97 L 391.43 132.97 L 395.61 132.97 L 399.80 132.97 L 403.98 132.97 L 408.16 132.97 L 412.35 132.97 L 416.53 132.97 L 420.71 132.97 L 424.90 132.97 L 429.08 132.97 L 433.27 132.97 L 437.45 132.97 L 441.63 132.97 L 445.82 132.97 L 450.00 132.97 L 454.18 132.97 L 458.37 132.97 L 462.55 132.97 L 466.73 132.97 L 470.92 132.97 L 475.10 132.97 L 479.29 132.97 L 483.47 132.97 L 487.65 132.97 L 491.84 132.97 L 496.02 132.97 L 500.20 132.97 L 504.39 132.97 L 508.57 132.97 L 512.76 132.97 L 516.94 132.97 L 521.12 132.97 L 525.31 132.97 L 529.49 132.97 L 533.67 132.97 L 537.86 132.97 L 542.04 132.97 L 546.22 132.97 L 550.41 132.97 L 554.59 132.97 L 558.78 132.97 L 562.96 132.97 L 567.14 132.97 L 571.33 132.97 L 575.51 132.97 L 579.69 132.97 L 583.88 132.97 L 588.06 132.97 L 592.24 132.97 L 596.43 132.97 L 600.61 132.97 L 604.80 132.97 L 608.98 132.97 L 613.16 132.97 L 617.35 132.97 L 621.53 132.97 L 625.71 132.97 L 629.90 132.97 L 634.08 132.97 L 638.27 132.97 L 642.45 132.97 L 646.63 132.97 L 650.82 132.97 L 655.00 132.97 L 659.18 132.97 L 663.37 132.97 L 667.55 132.97 L 671.73 132.97 L 675.92 132.97 L 680.10 124.51 L 684.29 120.64 L 688.47 116.77 L 692.65 112.90 L 696.84 109.03 L 701.02 105.97 L 705.20 105.97 L 709.39 105.97 L 713.57 105.97 L 717.76 105.97 L 721.94 105.79 L 726.12 103.09 L 730.31 98.41 L 734.49 98.41 L 738.67 98.41 L 742.86 98.41 L 747.04 98.41 L 751.22 98.41 L 755.41 98.41 L 759.59 98.41 L 763.78 98.41 L 767.96 98.41 L 772.14 98.41 L 776.33 98.41 L 780.51 98.41 L 784.69 98.41 L 788.88 98.41 L 793.06 98.41 L 797.24 98.41 L 801.43 98.41 L 805.61 98.41 L 809.80 98.41 L 813.98 98.41 L 818.16 98.41 L 822.35 98.41 L 826.53 98.41 L 830.71 98.41 L 834.90 98.41 L 839.08 98.41 L 843.27 98.41 L 847.45 98.41 L 851.63 98.41 L 855.82 98.41 L 860.00 98.41" fill="none" stroke="#111827" stroke-width="2"/>
    <circle cx="860.00" cy="98.41" r="3" fill="#111827"/>
    <text x="40.00" y="235.00" font-size="9" fill="#111827" text-anchor="middle" transform="rotate(-45 40.00 235.00)">09.08.2025</text><text x="119.49" y="235.00" font-size="9" fill="#111827" text-anchor="middle" transform="rotate(-45 119.49 235.00)">09.08.2025</text><text x="198.98" y="235.00" font-size="9" fill="#111827" text-anchor="middle" transform="rotate(-45 198.98 235.00)">14.08.2025</text><text x="278.47" y="235.00" font-size="9" fill="#111827" text-anchor="middle" transform="rotate(-45 278.47 235.00)">31.08.2025</text><text x="357.96" y="235.00" font-size="9" fill="#111827" text-anchor="middle" transform="rotate(-45 357.96 235.00)">19.09.2025</text><text x="437.45" y="235.00" font-size="9" fill="#111827" text-anchor="middle" transform="rotate(-45 437.45 235.00)">08.10.2025</text><text x="516.94" y="235.00" font-size="9" fill="#111827" text-anchor="middle" transform="rotate(-45 516.94 235.00)">27.10.2025</text><text x="596.43" y="235.00" font-size="9" fill="#111827" text-anchor="middle" transform="rotate(-45 596.43 235.00)">15.11.2025</text><text x="675.92" y="235.00" font-size="9" fill="#111827" text-anchor="middle" transform="rotate(-45 675.92 235.00)">04.12.2025</text><text x="755.41" y="235.00" font-size="9" fill="#111827" text-anchor="middle" transform="rotate(-45 755.41 235.00)">13.12.2025</text><text x="834.90" y="235.00" font-size="9" fill="#111827" text-anchor="middle" transform="rotate(-45 834.90 235.00)">01.01.2026</text>
  </g>
</svg>