<svg xmlns="http://www.w3.org/2000/svg" width="900" height="290" style="font-family: -apple-system, BlinkMacSystemFont, 'Segoe UI', Helvetica, Arial, sans-serif;">
  <rect width="100%" height="100%" fill="white"/>
  <g>
    <line x1="40" y1="220.00" x2="860" y2="220.00" stroke="#e5e7eb"/><text x="32" y="224.00" font-size="10" fill="#111827" text-anchor="end">0</text><line x1="40" y1="175.00" x2="860" y2="175.00" stroke="#e5e7eb"/><text x="32" y="179.00" font-size="10" fill="#111827" text-anchor="end">500</text><line x1="40" y1="130.00" x2="860" y2="130.00" stroke="#e5e7eb"/><text x="32" y="134.00" font-size="10" fill="#111827" text-anchor="end">1k</text><line x1="40" y1="85.00" x2="860" y2="85.00" stroke="#e5e7eb"/><text x="32" y="89.00" font-size="10" fill="#111827" text-anchor="end">1.5k</text><line x1="40" y1="40.00" x2="860" y2="40.00" stroke="#e5e7eb"/><text x="32" y="44.00" font-size="10" fill="#111827" text-anchor="end">2k</text>
    <line x1="40.00" y1="40" x2="40.00" y2="220" stroke="#e5e7eb" opacity="0.5"/><line x1="116.53" y1="40" x2="116.53" y2="220" stroke="#e5e7eb" opacity="0.5"/><line x1="193.07" y1="40" x2="193.07" y2="220" stroke="#e5e7eb" opacity="0.5"/><line x1="269.60" y1="40" x2="269.60" y2="220" stroke="#e5e7eb" opacity="0.5"/><line x1="346.13" y1="40" x2="346.13" y2="220" stroke="#e5e7eb" opacity="0.5"/><line x1="422.67" y1="40" x2="422.67" y2="220" stroke="#e5e7eb" opacity="0.5"/><line x1="499.20" y1="40" x2="499.20" y2="220" stroke="#e5e7eb" opacity="0.5"/><line x1="575.73" y1="40" x2="575.73" y2="220" stroke="#e5e7eb" opacity="0.5"/><line x1="652.27" y1="40" x2="652.27" y2="220" stroke="#e5e7eb" opacity="0.5"/><line x1="728.80" y1="40" x2="728.80" y2="220" stroke="#e5e7eb" opacity="0.5"/><line x1="805.33" y1="40" x2="805.33" y2="220" stroke="#e5e7eb" opacity="0.5"/>
    <line x1="40" y1="220" x2="860" y2="220" stroke="#9ca3af"/>
    <line x1="40" y1="40"   x2="40"   y2="220" stroke="#9ca3af"/>
    <path d="M 40.00 219.82 L 50.93 214.15 L 61.87 214.06 L 72.80 214.06 L 83.73 213.25 L 94.67 213.25 L 105.60 204.88 L 116.53 185.98 L 127.47 185.98 L 138.40 180.94 L 149.33 152.59 L 160.27 159.97 L 171.20 158.89 L 182.13 158.17 L 193.07 139.63 L 204.00 139.63 L 214.93 157.18 L 225.87 154.66 L 236.80 154.39 L 247.73 151.60 L 258.67 150.97 L 269.60 150.70 L 280.53 149.80 L 291.47 149.80 L 302.40 147.46 L 313.33 144.94 L 324.27 144.76 L 335.20 140.71 L 346.13 134.23 L 357.07 134.23 L 368.00 133.69 L 378.93 133.69 L 389.87 133.69 L 400.80 133.69 L 411.73 133.69 L 422.67 133.69 L 433.60 132.97 L 444.53 132.97 L 455.47 132.97 L 466.40 132.97 L 477.33 132.97 L 488.27 132.97 L 499.20 132.97 L 510.13 132.97 L 521.07 132.97 L 532.00 132.97 L 542.93 132.97 L 553.87 132.97 L 564.80 132.97 L 575.73 132.97 L 586.67 132.97 L 597.60 132.97 L 608.53 132.97 L 619.47 132.97 L 630.40 132.97 L 641.33 132.97 L 652.27 132.97 L 663.20 132.97 L 674.13 132.97 L 685.07 132.97 L 696.00 132.97 L 706.93 132.97 L 717.87 132.97 L 728.80 132.97 L 739.73 132.97 L 750.67 132.97 L 761.60 132.97 L 772.53 132.97 L 783.47 132.97 L 794.40 132.97 L 805.33 132.97 L 816.27 132.97 L 827.20 132.97 L 838.13 132.97 L 849.07 132.97 L 860.00 132.97" fill="none" stroke="#111827" stroke-width="2"/>
    <circle cx="860.00" cy="132.97" r="3" fill="#111827"/>
    <text x="40.00" y="235.00" font-size="9" fill="#111827" text-anchor="middle" transform="rotate(-45 40.00 235.00)">09.08.2025</text><text x="116.53" y="235.00" font-size="9" fill="#111827" text-anchor="middle" transform="rotate(-45 116.53 235.00)">09.08.2025</text><text x="193.07" y="235.00" font-size="9" fill="#111827" text-anchor="middle" transform="rotate(-45 193.07 235.00)">09.08.2025</text><text x="269.60" y="235.00" font-size="9" fill="#111827" text-anchor="middle" transform="rotate(-45 269.60 235.00)">09.08.2025</text><text x="346.13" y="235.00" font-size="9" fill="#111827" text-anchor="middle" transform="rotate(-45 346.13 235.00)">13.08.2025</text><text x="422.67" y="235.00" font-size="9" fill="#111827" text-anchor="middle" transform="rotate(-45 422.67 235.00)">13.08.2025</text><text x="499.20" y="235.00" font-size="9" fill="#111827" text-anchor="middle" transform="rotate(-45 499.20 235.00)">18.08.2025</text><text x="575.73" y="235.00" font-size="9" fill="#111827" text-anchor="middle" transform="rotate(-45 575.73 235.00)">25.08.2025</text><text x="652.27" y="235.00" font-size="9" fill="#111827" text-anchor="middle" transform="rotate(-45 652.27 235.00)">30.08.2025</text><text x="728.80" y="235.00" font-size="9" fill="#111827" text-anchor="middle" transform="rotate(-45 728.80 235.00)">06.09.2025</text><text x="805.33" y="235.00" font-size="9" fill="#111827" text-anchor="middle" transform="rotate(-45 805.33 235.00)">13.09.2025</text>
  </g>
</svg>