<svg xmlns="http://www.w3.org/2000/svg" width="900" height="290" style="font-family: -apple-system, BlinkMacSystemFont, 'Segoe UI', Helvetica, Arial, sans-serif;">
  <rect width="100%" height="100%" fill="#0d1117"/>
  <g>
    <line x1="40" y1="220.00" x2="860" y2="220.00" stroke="#30363d"/><text x="32" y="224.00" font-size="10" fill="#c9d1d9" text-anchor="end">0</text><line x1="40" y1="175.00" x2="860" y2="175.00" stroke="#30363d"/><text x="32" y="179.00" font-size="10" fill="#c9d1d9" text-anchor="end">500</text><line x1="40" y1="130.00" x2="860" y2="130.00" stroke="#30363d"/><text x="32" y="134.00" font-size="10" fill="#c9d1d9" text-anchor="end">1k</text><line x1="40" y1="85.00" x2="860" y2="85.00" stroke="#30363d"/><text x="32" y="89.00" font-size="10" fill="#c9d1d9" text-anchor="end">1.5k</text><line x1="40" y1="40.00" x2="860" y2="40.00" stroke="#30363d"/><text x="32" y="44.00" font-size="10" fill="#c9d1d9" text-anchor="end">2k</text>
    <line x1="40.00" y1="40" x2="40.00" y2="220" stroke="#30363d" opacity="0.5"/><line x1="119.61" y1="40" x2="119.61" y2="220" stroke="#30363d" opacity="0.5"/><line x1="199.22" y1="40" x2="199.22" y2="220" stroke="#30363d" opacity="0.5"/><line x1="278.83" y1="40" x2="278.83" y2="220" stroke="#30363d" opacity="0.5"/><line x1="358.45" y1="40" x2="358.45" y2="220" stroke="#30363d" opacity="0.5"/><line x1="438.06" y1="40" x2="438.06" y2="220" stroke="#30363d" opacity="0.5"/><line x1="517.67" y1="40" x2="517.67" y2="220" stroke="#30363d" opacity="0.5"/><line x1="597.28" y1="40" x2="597.28" y2="220" stroke="#30363d" opacity="0.5"/><line x1="676.89" y1="40" x2="676.89" y2="220" stroke="#30363d" opacity="0.5"/><line x1="756.50" y1="40" x2="756.50" y2="220" stroke="#30363d" opacity="0.5"/><line x1="836.12" y1="40" x2="836.12" y2="220" stroke="#30363d" opacity="0.5"/>
    <line x1="40" y1="220" x2="860" y2="220" stroke="#30363d"/>
    <line x1="40" y1="40"   x2="40"   y2="220" stroke="#30363d"/>
    <path d="M 40.00 219.82 L 43.98 214.15 L 47.96 214.06 L 51.94 214.06 L 55.92 213.25 L 59.90 213.25 L 63.88 204.88 L 67.86 185.98 L 71.84 185.98 L 75.83 180.94 L 79.81 152.59 L 83.79 159.97 L 87.77 158.89 L 91.75 158.17 L 95.73 139.63 L 99.71 139.63 L 103.69 157.18 L 107.67 154.66 L 111.65 154.39 L 115.63 151.60 L 119.61 150.97 L 123.59 150.70 L 127.57 149.80 L 131.55 149.80 L 135.53 147.46 L 139.51 144.94 L 143.50 144.76 L 147.48 140.71 L 151.46 134.23 L 155.44 134.23 L 159.42 133.69 L 163.40 133.69 L 167.38 133.69 L 171.36 133.69 L 175.34 133.69 L 179.32 133.69 L 183.30 132.97 L 187.28 132.97 L 191.26 132.97 L 195.24 132.97 L 199.22 132.97 L 203.20 132.97 L 207.18 132.97 L 211.17 132.97 L 215.15 132.97 L 219.13 132.97 L 223.11 132.97 L 227.09 132.97 L 231.07 132.97 L 235.05 132.97 L 239.03 132.97 L 243.01 132.97 L 246.99 132.97 L 250.97 132.97 L 254.95 132.97 L 258.93 132.97 L 262.91 132.97 L 266.89 132.97 L 270.87 132.97 L 274.85 132.97 L 278.83 132.97 L 282.82 132.97 L 286.80 132.97 L 290.78 132.97 L 294.76 132.97 L 298.74 132.97 L 302.72 132.97 L 306.70 132.97 L 310.68 132.97 L 314.66 132.97 L 318.64 132.97 L 322.62 132.97 L 326.60 132.97 L 330.58 132.97 L 334.56 132.97 L 338.54 132.97 L 342.52 132.97 L 346.50 132.97 L 350.49 132.97 L 354.47 132.97 L 358.45 132.97 L 362.43 132.97 L 366.41 132.97 L 370.39 132.97 L 374.37 132.97 L 378.35 132.97 L 382.33 132.97 L 386.31 132.97 L 390.29 132.97 L 394.27 132.97 L 398.25 132.97 L 402.23 132.97 L 406.21 132.97 L 410.19 132.97 L 414.17 132.97 L 418.16 132.97 L 422.14 132.97 L 426.12 132.97 L 430.10 132.97 L 434.08 132.97 L 438.06 132.97 L 442.04 132.97 L 446.02 132.97 L 450.00 132.97 L 453.98 132.97 L 457.96 132.97 L 461.94 132.97 L 465.92 132.97 L 469.90 132.97 L 473.88 132.97 L 477.86 132.97 L 481.84 132.97 L 485.83 132.97 L 489.81 132.97 L 493.79 132.97 L 497.77 132.97 L 501.75 132.97 L 505.73 132.97 L 509.71 132.97 L 513.69 132.97 L 517.67 132.97 L 521.65 132.97 L 525.63 132.97 L 529.61 132.97 L 533.59 132.97 L 537.57 132.97 L 541.55 132.97 L 545.53 132.97 L 549.51 132.97 L 553.50 132.97 L 557.48 132.97 L 561.46 132.97 L 565.44 132.97 L 569.42 132.97 L 573.40 132.97 L 577.38 132.97 L 581.36 132.97 L 585.34 132.97 L 589.32 132.97 L 593.30 132.97 L 597.28 132.97 L 601.26 132.97 L 605.24 132.97 L 609.22 132.97 L 613.20 132.97 L 617.18 132.97 L 621.17 132.97 L 625.15 132.97 L 629.13 132.97 L 633.11 132.97 L 637.09 132.97 L 641.07 132.97 L 645.05 132.97 L 649.03 124.51 L 653.01 120.64 L 656.99 116.77 L 660.97 112.90 L 664.95 109.03 L 668.93 105.97 L 672.91 105.97 L 676.89 105.97 L 680.87 105.97 L 684.85 105.97 L 688.83 105.79 L 692.82 103.09 L 696.80 98.41 L 700.78 98.41 L 704.76 98.41 L 708.74 98.41 L 712.72 98.41 L 716.70 98.41 L 720.68 98.41 L 724.66 98.41 L 728.64 98.41 L 732.62 98.41 L 736.60 98.41 L 740.58 98.41 L 744.56 98.41 L 748.54 98.41 L 752.52 98.41 L 756.50 98.41 L 760.49 98.41 L 764.47 98.41 L 768.45 98.41 L 772.43 98.41 L 776.41 98.41 L 780.39 98.41 L 784.37 98.41 L 788.35 98.41 L 792.33 98.41 L 796.31 98.41 L 800.29 98.41 L 804.27 98.41 L 808.25 98.41 L 812.23 98.41 L 816.21 98.41 L 820.19 98.41 L 824.17 98.41 L 828.16 98.41 L 832.14 98.41 L 836.12 98.41 L 840.10 98.41 L 844.08 98.41 L 848.06 98.41 L 852.04 98.41 L 856.02 98.41 L 860.00 98.41" fill="none" stroke="#3fb950" stroke-width="2"/>
    <circle cx="860.00" cy="98.41" r="3" fill="#3fb950"/>
    <text x="40.00" y="235.00" font-size="9" fill="#c9d1d9" text-anchor="middle" transform="rotate(-45 40.00 235.00)">09.08.2025</text><text x="119.61" y="235.00" font-size="9" fill="#c9d1d9" text-anchor="middle" transform="rotate(-45 119.61 235.00)">09.08.2025</text><text x="199.22" y="235.00" font-size="9" fill="#c9d1d9" text-anchor="middle" transform="rotate(-45 199.22 235.00)">16.08.2025</text><text x="278.83" y="235.00" font-size="9" fill="#c9d1d9" text-anchor="middle" transform="rotate(-45 278.83 235.00)">03.09.2025</text><text x="358.45" y="235.00" font-size="9" fill="#c9d1d9" text-anchor="middle" transform="rotate(-45 358.45 235.00)">23.09.2025</text><text x="438.06" y="235.00" font-size="9" fill="#c9d1d9" text-anchor="middle" transform="rotate(-45 438.06 235.00)">13.10.2025</text><text x="517.67" y="235.00" font-size="9" fill="#c9d1d9" text-anchor="middle" transform="rotate(-45 517.67 235.00)">02.11.2025</text><text x="597.28" y="235.00" font-size="9" fill="#c9d1d9" text-anchor="middle" transform="rotate(-45 597.28 235.00)">22.11.2025</text><text x="676.89" y="235.00" font-size="9" fill="#c9d1d9" text-anchor="middle" transform="rotate(-45 676.89 235.00)">05.12.2025</text><text x="756.50" y="235.00" font-size="9" fill="#c9d1d9" text-anchor="middle" transform="rotate(-45 756.50 235.00)">22.12.2025</text><text x="836.12" y="235.00" font-size="9" fill="#c9d1d9" text-anchor="middle" transform="rotate(-45 836.12 235.00)">11.01.2026</text>
  </g>
</svg>