<svg xmlns="http://www.w3.org/2000/svg" width="900" height="290" style="font-family: -apple-system, BlinkMacSystemFont, 'Segoe UI', Helvetica, Arial, sans-serif;">
  <rect width="100%" height="100%" fill="#0d1117"/>
  <g>
    <line x1="40" y1="220.00" x2="860" y2="220.00" stroke="#30363d"/><text x="32" y="224.00" font-size="10" fill="#c9d1d9" text-anchor="end">0</text><line x1="40" y1="175.00" x2="860" y2="175.00" stroke="#30363d"/><text x="32" y="179.00" font-size="10" fill="#c9d1d9" text-anchor="end">500</text><line x1="40" y1="130.00" x2="860" y2="130.00" stroke="#30363d"/><text x="32" y="134.00" font-size="10" fill="#c9d1d9" text-anchor="end">1k</text><line x1="40" y1="85.00" x2="860" y2="85.00" stroke="#30363d"/><text x="32" y="89.00" font-size="10" fill="#c9d1d9" text-anchor="end">1.5k</text><line x1="40" y1="40.00" x2="860" y2="40.00" stroke="#30363d"/><text x="32" y="44.00" font-size="10" fill="#c9d1d9" text-anchor="end">2k</text>
    <line x1="40.00" y1="40" x2="40.00" y2="220" stroke="#30363d" opacity="0.5"/><line x1="118.63" y1="40" x2="118.63" y2="220" stroke="#30363d" opacity="0.5"/><line x1="197.26" y1="40" x2="197.26" y2="220" stroke="#30363d" opacity="0.5"/><line x1="275.89" y1="40" x2="275.89" y2="220" stroke="#30363d" opacity="0.5"/><line x1="354.52" y1="40" x2="354.52" y2="220" stroke="#30363d" opacity="0.5"/><line x1="433.15" y1="40" x2="433.15" y2="220" stroke="#30363d" opacity="0.5"/><line x1="511.78" y1="40" x2="511.78" y2="220" stroke="#30363d" opacity="0.5"/><line x1="590.41" y1="40" x2="590.41" y2="220" stroke="#30363d" opacity="0.5"/><line x1="669.04" y1="40" x2="669.04" y2="220" stroke="#30363d" opacity="0.5"/><line x1="747.67" y1="40" x2="747.67" y2="220" stroke="#30363d" opacity="0.5"/><line x1="826.30" y1="40" x2="826.30" y2="220" stroke="#30363d" opacity="0.5"/>
    <line x1="40" y1="220" x2="860" y2="220" stroke="#30363d"/>
    <line x1="40" y1="40"   x2="40"   y2="220" stroke="#30363d"/>
    <path d="M 40.00 219.82 L 45.62 214.15 L 51.23 214.06 L 56.85 214.06 L 62.47 213.25 L 68.08 213.25 L 73.70 204.88 L 79.32 185.98 L 84.93 185.98 L 90.55 180.94 L 96.16 152.59 L 101.78 159.97 L 107.40 158.89 L 113.01 158.17 L 118.63 139.63 L 124.25 139.63 L 129.86 157.18 L 135.48 154.66 L 141.10 154.39 L 146.71 151.60 L 152.33 150.97 L 157.95 150.70 L 163.56 149.80 L 169.18 149.80 L 174.79 147.46 L 180.41 144.94 L 186.03 144.76 L 191.64 140.71 L 197.26 134.23 L 202.88 134.23 L 208.49 133.69 L 214.11 133.69 L 219.73 133.69 L 225.34 133.69 L 230.96 133.69 L 236.58 133.69 L 242.19 132.97 L 247.81 132.97 L 253.42 132.97 L 259.04 132.97 L 264.66 132.97 L 270.27 132.97 L 275.89 132.97 L 281.51 132.97 L 287.12 132.97 L 292.74 132.97 L 298.36 132.97 L 303.97 132.97 L 309.59 132.97 L 315.21 132.97 L 320.82 132.97 L 326.44 132.97 L 332.05 132.97 L 337.67 132.97 L 343.29 132.97 L 348.90 132.97 L 354.52 132.97 L 360.14 132.97 L 365.75 132.97 L 371.37 132.97 L 376.99 132.97 L 382.60 132.97 L 388.22 132.97 L 393.84 132.97 L 399.45 132.97 L 405.07 132.97 L 410.68 132.97 L 416.30 132.97 L 421.92 132.97 L 427.53 132.97 L 433.15 132.97 L 438.77 132.97 L 444.38 132.97 L 450.00 132.97 L 455.62 132.97 L 461.23 132.97 L 466.85 132.97 L 472.47 132.97 L 478.08 132.97 L 483.70 132.97 L 489.32 132.97 L 494.93 132.97 L 500.55 132.97 L 506.16 132.97 L 511.78 132.97 L 517.40 132.97 L 523.01 132.97 L 528.63 132.97 L 534.25 132.97 L 539.86 132.97 L 545.48 132.97 L 551.10 132.97 L 556.71 132.97 L 562.33 132.97 L 567.95 132.97 L 573.56 132.97 L 579.18 132.97 L 584.79 132.97 L 590.41 132.97 L 596.03 132.97 L 601.64 132.97 L 607.26 132.97 L 612.88 132.97 L 618.49 132.97 L 624.11 132.97 L 629.73 132.97 L 635.34 132.97 L 640.96 132.97 L 646.58 132.97 L 652.19 132.97 L 657.81 132.97 L 663.42 132.97 L 669.04 132.97 L 674.66 132.97 L 680.27 132.97 L 685.89 132.97 L 691.51 132.97 L 697.12 132.97 L 702.74 132.97 L 708.36 132.97 L 713.97 132.97 L 719.59 132.97 L 725.21 132.97 L 730.82 132.97 L 736.44 132.97 L 742.05 132.97 L 747.67 132.97 L 753.29 132.97 L 758.90 132.97 L 764.52 132.97 L 770.14 132.97 L 775.75 132.97 L 781.37 132.97 L 786.99 132.97 L 792.60 132.97 L 798.22 132.97 L 803.84 132.97 L 809.45 132.97 L 815.07 132.97 L 820.68 132.97 L 826.30 132.97 L 831.92 132.97 L 837.53 132.97 L 843.15 132.97 L 848.77 132.97 L 854.38 132.97 L 860.00 132.97" fill="none" stroke="#3fb950" stroke-width="2"/>
    <circle cx="860.00" cy="132.97" r="3" fill="#3fb950"/>
    <text x="40.00" y="235.00" font-size="9" fill="#c9d1d9" text-anchor="middle" transform="rotate(-45 40.00 235.00)">09.08.2025</text><text x="118.63" y="235.00" font-size="9" fill="#c9d1d9" text-anchor="middle" transform="rotate(-45 118.63 235.00)">09.08.2025</text><text x="197.26" y="235.00" font-size="9" fill="#c9d1d9" text-anchor="middle" transform="rotate(-45 197.26 235.00)">13.08.2025</text><text x="275.89" y="235.00" font-size="9" fill="#c9d1d9" text-anchor="middle" transform="rotate(-45 275.89 235.00)">18.08.2025</text><text x="354.52" y="235.00" font-size="9" fill="#c9d1d9" text-anchor="middle" transform="rotate(-45 354.52 235.00)">30.08.2025</text><text x="433.15" y="235.00" font-size="9" fill="#c9d1d9" text-anchor="middle" transform="rotate(-45 433.15 235.00)">13.09.2025</text><text x="511.78" y="235.00" font-size="9" fill="#c9d1d9" text-anchor="middle" transform="rotate(-45 511.78 235.00)">27.09.2025</text><text x="590.41" y="235.00" font-size="9" fill="#c9d1d9" text-anchor="middle" transform="rotate(-45 590.41 235.00)">11.10.2025</text><text x="669.04" y="235.00" font-size="9" fill="#c9d1d9" text-anchor="middle" transform="rotate(-45 669.04 235.00)">25.10.2025</text><text x="747.67" y="235.00" font-size="9" fill="#c9d1d9" text-anchor="middle" transform="rotate(-45 747.67 235.00)">08.11.2025</text><text x="826.30" y="235.00" font-size="9" fill="#c9d1d9" text-anchor="middle" transform="rotate(-45 826.30 235.00)">22.11.2025</text>
  </g>
</svg>