<svg xmlns="http://www.w3.org/2000/svg" width="900" height="290" style="font-family: -apple-system, BlinkMacSystemFont, 'Segoe UI', Helvetica, Arial, sans-serif;">
  <rect width="100%" height="100%" fill="white"/>
  <g>
    <line x1="40" y1="220.00" x2="860" y2="220.00" stroke="#e5e7eb"/><text x="32" y="224.00" font-size="10" fill="#111827" text-anchor="end">0</text><line x1="40" y1="175.00" x2="860" y2="175.00" stroke="#e5e7eb"/><text x="32" y="179.00" font-size="10" fill="#111827" text-anchor="end">500</text><line x1="40" y1="130.00" x2="860" y2="130.00" stroke="#e5e7eb"/><text x="32" y="134.00" font-size="10" fill="#111827" text-anchor="end">1k</text><line x1="40" y1="85.00" x2="860" y2="85.00" stroke="#e5e7eb"/><text x="32" y="89.00" font-size="10" fill="#111827" text-anchor="end">1.5k</text><line x1="40" y1="40.00" x2="860" y2="40.00" stroke="#e5e7eb"/><text x="32" y="44.00" font-size="10" fill="#111827" text-anchor="end">2k</text>
    <line x1="40.00" y1="40" x2="40.00" y2="220" stroke="#e5e7eb" opacity="0.5"/><line x1="122.00" y1="40" x2="122.00" y2="220" stroke="#e5e7eb" opacity="0.5"/><line x1="204.00" y1="40" x2="204.00" y2="220" stroke="#e5e7eb" opacity="0.5"/><line x1="286.00" y1="40" x2="286.00" y2="220" stroke="#e5e7eb" opacity="0.5"/><line x1="368.00" y1="40" x2="368.00" y2="220" stroke="#e5e7eb" opacity="0.5"/><line x1="450.00" y1="40" x2="450.00" y2="220" stroke="#e5e7eb" opacity="0.5"/><line x1="532.00" y1="40" x2="532.00" y2="220" stroke="#e5e7eb" opacity="0.5"/><line x1="614.00" y1="40" x2="614.00" y2="220" stroke="#e5e7eb" opacity="0.5"/><line x1="696.00" y1="40" x2="696.00" y2="220" stroke="#e5e7eb" opacity="0.5"/><line x1="778.00" y1="40" x2="778.00" y2="220" stroke="#e5e7eb" opacity="0.5"/><line x1="860.00" y1="40" x2="860.00" y2="220" stroke="#e5e7eb" opacity="0.5"/>
    <line x1="40" y1="220" x2="860" y2="220" stroke="#9ca3af"/>
    <line x1="40" y1="40"   x2="40"   y2="220" stroke="#9ca3af"/>
    <path d="M 40.00 219.82 L 43.90 214.15 L 47.81 214.06 L 51.71 214.06 L 55.62 213.25 L 59.52 213.25 L 63.43 204.88 L 67.33 185.98 L 71.24 185.98 L 75.14 180.94 L 79.05 152.59 L 82.95 159.97 L 86.86 158.89 L 90.76 158.17 L 94.67 139.63 L 98.57 139.63 L 102.48 157.18 L 106.38 154.66 L 110.29 154.39 L 114.19 151.60 L 118.10 150.97 L 122.00 150.70 L 125.90 149.80 L 129.81 149.80 L 133.71 147.46 L 137.62 144.94 L 141.52 144.76 L 145.43 140.71 L 149.33 134.23 L 153.24 134.23 L 157.14 133.69 L 161.05 133.69 L 164.95 133.69 L 168.86 133.69 L 172.76 133.69 L 176.67 133.69 L 180.57 132.97 L 184.48 132.97 L 188.38 132.97 L 192.29 132.97 L 196.19 132.97 L 200.10 132.97 L 204.00 132.97 L 207.90 132.97 L 211.81 132.97 L 215.71 132.97 L 219.62 132.97 L 223.52 132.97 L 227.43 132.97 L 231.33 132.97 L 235.24 132.97 L 239.14 132.97 L 243.05 132.97 L 246.95 132.97 L 250.86 132.97 L 254.76 132.97 L 258.67 132.97 L 262.57 132.97 L 266.48 132.97 L 270.38 132.97 L 274.29 132.97 L 278.19 132.97 L 282.10 132.97 L 286.00 132.97 L 289.90 132.97 L 293.81 132.97 L 297.71 132.97 L 301.62 132.97 L 305.52 132.97 L 309.43 132.97 L 313.33 132.97 L 317.24 132.97 L 321.14 132.97 L 325.05 132.97 L 328.95 132.97 L 332.86 132.97 L 336.76 132.97 L 340.67 132.97 L 344.57 132.97 L 348.48 132.97 L 352.38 132.97 L 356.29 132.97 L 360.19 132.97 L 364.10 132.97 L 368.00 132.97 L 371.90 132.97 L 375.81 132.97 L 379.71 132.97 L 383.62 132.97 L 387.52 132.97 L 391.43 132.97 L 395.33 132.97 L 399.24 132.97 L 403.14 132.97 L 407.05 132.97 L 410.95 132.97 L 414.86 132.97 L 418.76 132.97 L 422.67 132.97 L 426.57 132.97 L 430.48 132.97 L 434.38 132.97 L 438.29 132.97 L 442.19 132.97 L 446.10 132.97 L 450.00 132.97 L 453.90 132.97 L 457.81 132.97 L 461.71 132.97 L 465.62 132.97 L 469.52 132.97 L 473.43 132.97 L 477.33 132.97 L 481.24 132.97 L 485.14 132.97 L 489.05 132.97 L 492.95 132.97 L 496.86 132.97 L 500.76 132.97 L 504.67 132.97 L 508.57 132.97 L 512.48 132.97 L 516.38 132.97 L 520.29 132.97 L 524.19 132.97 L 528.10 132.97 L 532.00 132.97 L 535.90 132.97 L 539.81 132.97 L 543.71 132.97 L 547.62 132.97 L 551.52 132.97 L 555.43 132.97 L 559.33 132.97 L 563.24 132.97 L 567.14 132.97 L 571.05 132.97 L 574.95 132.97 L 578.86 132.97 L 582.76 132.97 L 586.67 132.97 L 590.57 132.97 L 594.48 132.97 L 598.38 132.97 L 602.29 132.97 L 606.19 132.97 L 610.10 132.97 L 614.00 132.97 L 617.90 132.97 L 621.81 132.97 L 625.71 132.97 L 629.62 132.97 L 633.52 132.97 L 637.43 124.51 L 641.33 120.64 L 645.24 116.77 L 649.14 112.90 L 653.05 109.03 L 656.95 105.97 L 660.86 105.97 L 664.76 105.97 L 668.67 105.97 L 672.57 105.97 L 676.48 105.79 L 680.38 103.09 L 684.29 98.41 L 688.19 98.41 L 692.10 98.41 L 696.00 98.41 L 699.90 98.41 L 703.81 98.41 L 707.71 98.41 L 711.62 98.41 L 715.52 98.41 L 719.43 98.41 L 723.33 98.41 L 727.24 98.41 L 731.14 98.41 L 735.05 98.41 L 738.95 98.41 L 742.86 98.41 L 746.76 98.41 L 750.67 98.41 L 754.57 98.41 L 758.48 98.41 L 762.38 98.41 L 766.29 98.41 L 770.19 98.41 L 774.10 98.41 L 778.00 98.41 L 781.90 98.41 L 785.81 98.41 L 789.71 98.41 L 793.62 98.41 L 797.52 98.41 L 801.43 98.41 L 805.33 98.41 L 809.24 98.41 L 813.14 98.41 L 817.05 98.41 L 820.95 98.41 L 824.86 98.41 L 828.76 98.41 L 832.67 98.41 L 836.57 98.41 L 840.48 98.41 L 844.38 98.41 L 848.29 98.41 L 852.19 98.41 L 856.10 98.41 L 860.00 98.41" fill="none" stroke="#111827" stroke-width="2"/>
    <circle cx="860.00" cy="98.41" r="3" fill="#111827"/>
    <text x="40.00" y="235.00" font-size="9" fill="#111827" text-anchor="middle" transform="rotate(-45 40.00 235.00)">09.08.2025</text><text x="122.00" y="235.00" font-size="9" fill="#111827" text-anchor="middle" transform="rotate(-45 122.00 235.00)">09.08.2025</text><text x="204.00" y="235.00" font-size="9" fill="#111827" text-anchor="middle" transform="rotate(-45 204.00 235.00)">18.08.2025</text><text x="286.00" y="235.00" font-size="9" fill="#111827" text-anchor="middle" transform="rotate(-45 286.00 235.00)">06.09.2025</text><text x="368.00" y="235.00" font-size="9" fill="#111827" text-anchor="middle" transform="rotate(-45 368.00 235.00)">27.09.2025</text><text x="450.00" y="235.00" font-size="9" fill="#111827" text-anchor="middle" transform="rotate(-45 450.00 235.00)">18.10.2025</text><text x="532.00" y="235.00" font-size="9" fill="#111827" text-anchor="middle" transform="rotate(-45 532.00 235.00)">08.11.2025</text><text x="614.00" y="235.00" font-size="9" fill="#111827" text-anchor="middle" transform="rotate(-45 614.00 235.00)">29.11.2025</text><text x="696.00" y="235.00" font-size="9" fill="#111827" text-anchor="middle" transform="rotate(-45 696.00 235.00)">10.12.2025</text><text x="778.00" y="235.00" font-size="9" fill="#111827" text-anchor="middle" transform="rotate(-45 778.00 235.00)">31.12.2025</text><text x="860.00" y="235.00" font-size="9" fill="#111827" text-anchor="middle" transform="rotate(-45 860.00 235.00)">21.01.2026</text>
  </g>
</svg>