<svg xmlns="http://www.w3.org/2000/svg" width="900" height="290" style="font-family: -apple-system, BlinkMacSystemFont, 'Segoe UI', Helvetica, Arial, sans-serif;">
  <rect width="100%" height="100%" fill="white"/>
  <g>
    <line x1="40" y1="220.00" x2="860" y2="220.00" stroke="#e5e7eb"/><text x="32" y="224.00" font-size="10" fill="#111827" text-anchor="end">0</text><line x1="40" y1="175.00" x2="860" y2="175.00" stroke="#e5e7eb"/><text x="32" y="179.00" font-size="10" fill="#111827" text-anchor="end">500</text><line x1="40" y1="130.00" x2="860" y2="130.00" stroke="#e5e7eb"/><text x="32" y="134.00" font-size="10" fill="#111827" text-anchor="end">1k</text><line x1="40" y1="85.00" x2="860" y2="85.00" stroke="#e5e7eb"/><text x="32" y="89.00" font-size="10" fill="#111827" text-anchor="end">1.5k</text><line x1="40" y1="40.00" x2="860" y2="40.00" stroke="#e5e7eb"/><text x="32" y="44.00" font-size="10" fill="#111827" text-anchor="end">2k</text>
    <line x1="40.00" y1="40" x2="40.00" y2="220" stroke="#e5e7eb" opacity="0.5"/><line x1="118.85" y1="40" x2="118.85" y2="220" stroke="#e5e7eb" opacity="0.5"/><line x1="197.69" y1="40" x2="197.69" y2="220" stroke="#e5e7eb" opacity="0.5"/><line x1="276.54" y1="40" x2="276.54" y2="220" stroke="#e5e7eb" opacity="0.5"/><line x1="355.38" y1="40" x2="355.38" y2="220" stroke="#e5e7eb" opacity="0.5"/><line x1="434.23" y1="40" x2="434.23" y2="220" stroke="#e5e7eb" opacity="0.5"/><line x1="513.08" y1="40" x2="513.08" y2="220" stroke="#e5e7eb" opacity="0.5"/><line x1="591.92" y1="40" x2="591.92" y2="220" stroke="#e5e7eb" opacity="0.5"/><line x1="670.77" y1="40" x2="670.77" y2="220" stroke="#e5e7eb" opacity="0.5"/><line x1="749.62" y1="40" x2="749.62" y2="220" stroke="#e5e7eb" opacity="0.5"/><line x1="828.46" y1="40" x2="828.46" y2="220" stroke="#e5e7eb" opacity="0.5"/>
    <line x1="40" y1="220" x2="860" y2="220" stroke="#9ca3af"/>
    <line x1="40" y1="40"   x2="40"   y2="220" stroke="#9ca3af"/>
    <path d="M 40.00 219.82 L 43.94 214.15 L 47.88 214.06 L 51.83 214.06 L 55.77 213.25 L 59.71 213.25 L 63.65 204.88 L 67.60 185.98 L 71.54 185.98 L 75.48 180.94 L 79.42 152.59 L 83.37 159.97 L 87.31 158.89 L 91.25 158.17 L 95.19 139.63 L 99.13 139.63 L 103.08 157.18 L 107.02 154.66 L 110.96 154.39 L 114.90 151.60 L 118.85 150.97 L 122.79 150.70 L 126.73 149.80 L 130.67 149.80 L 134.62 147.46 L 138.56 144.94 L 142.50 144.76 L 146.44 140.71 L 150.38 134.23 L 154.33 134.23 L 158.27 133.69 L 162.21 133.69 L 166.15 133.69 L 170.10 133.69 L 174.04 133.69 L 177.98 133.69 L 181.92 132.97 L 185.87 132.97 L 189.81 132.97 L 193.75 132.97 L 197.69 132.97 L 201.63 132.97 L 205.58 132.97 L 209.52 132.97 L 213.46 132.97 L 217.40 132.97 L 221.35 132.97 L 225.29 132.97 L 229.23 132.97 L 233.17 132.97 L 237.12 132.97 L 241.06 132.97 L 245.00 132.97 L 248.94 132.97 L 252.88 132.97 L 256.83 132.97 L 260.77 132.97 L 264.71 132.97 L 268.65 132.97 L 272.60 132.97 L 276.54 132.97 L 280.48 132.97 L 284.42 132.97 L 288.37 132.97 L 292.31 132.97 L 296.25 132.97 L 300.19 132.97 L 304.13 132.97 L 308.08 132.97 L 312.02 132.97 L 315.96 132.97 L 319.90 132.97 L 323.85 132.97 L 327.79 132.97 L 331.73 132.97 L 335.67 132.97 L 339.62 132.97 L 343.56 132.97 L 347.50 132.97 L 351.44 132.97 L 355.38 132.97 L 359.33 132.97 L 363.27 132.97 L 367.21 132.97 L 371.15 132.97 L 375.10 132.97 L 379.04 132.97 L 382.98 132.97 L 386.92 132.97 L 390.87 132.97 L 394.81 132.97 L 398.75 132.97 L 402.69 132.97 L 406.63 132.97 L 410.58 132.97 L 414.52 132.97 L 418.46 132.97 L 422.40 132.97 L 426.35 132.97 L 430.29 132.97 L 434.23 132.97 L 438.17 132.97 L 442.12 132.97 L 446.06 132.97 L 450.00 132.97 L 453.94 132.97 L 457.88 132.97 L 461.83 132.97 L 465.77 132.97 L 469.71 132.97 L 473.65 132.97 L 477.60 132.97 L 481.54 132.97 L 485.48 132.97 L 489.42 132.97 L 493.37 132.97 L 497.31 132.97 L 501.25 132.97 L 505.19 132.97 L 509.13 132.97 L 513.08 132.97 L 517.02 132.97 L 520.96 132.97 L 524.90 132.97 L 528.85 132.97 L 532.79 132.97 L 536.73 132.97 L 540.67 132.97 L 544.62 132.97 L 548.56 132.97 L 552.50 132.97 L 556.44 132.97 L 560.38 132.97 L 564.33 132.97 L 568.27 132.97 L 572.21 132.97 L 576.15 132.97 L 580.10 132.97 L 584.04 132.97 L 587.98 132.97 L 591.92 132.97 L 595.87 132.97 L 599.81 132.97 L 603.75 132.97 L 607.69 132.97 L 611.63 132.97 L 615.58 132.97 L 619.52 132.97 L 623.46 132.97 L 627.40 132.97 L 631.35 132.97 L 635.29 132.97 L 639.23 132.97 L 643.17 124.51 L 647.12 120.64 L 651.06 116.77 L 655.00 112.90 L 658.94 109.03 L 662.88 105.97 L 666.83 105.97 L 670.77 105.97 L 674.71 105.97 L 678.65 105.97 L 682.60 105.79 L 686.54 103.09 L 690.48 98.41 L 694.42 98.41 L 698.37 98.41 L 702.31 98.41 L 706.25 98.41 L 710.19 98.41 L 714.13 98.41 L 718.08 98.41 L 722.02 98.41 L 725.96 98.41 L 729.90 98.41 L 733.85 98.41 L 737.79 98.41 L 741.73 98.41 L 745.67 98.41 L 749.62 98.41 L 753.56 98.41 L 757.50 98.41 L 761.44 98.41 L 765.38 98.41 L 769.33 98.41 L 773.27 98.41 L 777.21 98.41 L 781.15 98.41 L 785.10 98.41 L 789.04 98.41 L 792.98 98.41 L 796.92 98.41 L 800.87 98.41 L 804.81 98.41 L 808.75 98.41 L 812.69 98.41 L 816.63 98.41 L 820.58 98.41 L 824.52 98.41 L 828.46 98.41 L 832.40 98.41 L 836.35 98.41 L 840.29 98.41 L 844.23 98.41 L 848.17 98.41 L 852.12 98.41 L 856.06 98.41 L 860.00 98.41" fill="none" stroke="#111827" stroke-width="2"/>
    <circle cx="860.00" cy="98.41" r="3" fill="#111827"/>
    <text x="40.00" y="235.00" font-size="9" fill="#111827" text-anchor="middle" transform="rotate(-45 40.00 235.00)">09.08.2025</text><text x="118.85" y="235.00" font-size="9" fill="#111827" text-anchor="middle" transform="rotate(-45 118.85 235.00)">09.08.2025</text><text x="197.69" y="235.00" font-size="9" fill="#111827" text-anchor="middle" transform="rotate(-45 197.69 235.00)">16.08.2025</text><text x="276.54" y="235.00" font-size="9" fill="#111827" text-anchor="middle" transform="rotate(-45 276.54 235.00)">03.09.2025</text><text x="355.38" y="235.00" font-size="9" fill="#111827" text-anchor="middle" transform="rotate(-45 355.38 235.00)">23.09.2025</text><text x="434.23" y="235.00" font-size="9" fill="#111827" text-anchor="middle" transform="rotate(-45 434.23 235.00)">13.10.2025</text><text x="513.08" y="235.00" font-size="9" fill="#111827" text-anchor="middle" transform="rotate(-45 513.08 235.00)">02.11.2025</text><text x="591.92" y="235.00" font-size="9" fill="#111827" text-anchor="middle" transform="rotate(-45 591.92 235.00)">22.11.2025</text><text x="670.77" y="235.00" font-size="9" fill="#111827" text-anchor="middle" transform="rotate(-45 670.77 235.00)">05.12.2025</text><text x="749.62" y="235.00" font-size="9" fill="#111827" text-anchor="middle" transform="rotate(-45 749.62 235.00)">22.12.2025</text><text x="828.46" y="235.00" font-size="9" fill="#111827" text-anchor="middle" transform="rotate(-45 828.46 235.00)">11.01.2026</text>
  </g>
</svg>