<svg xmlns="http://www.w3.org/2000/svg" width="900" height="290" style="font-family: -apple-system, BlinkMacSystemFont, 'Segoe UI', Helvetica, Arial, sans-serif;">
  <rect width="100%" height="100%" fill="white"/>
  <g>
    <line x1="40" y1="220.00" x2="860" y2="220.00" stroke="#e5e7eb"/><text x="32" y="224.00" font-size="10" fill="#111827" text-anchor="end">0</text><line x1="40" y1="175.00" x2="860" y2="175.00" stroke="#e5e7eb"/><text x="32" y="179.00" font-size="10" fill="#111827" text-anchor="end">500</text><line x1="40" y1="130.00" x2="860" y2="130.00" stroke="#e5e7eb"/><text x="32" y="134.00" font-size="10" fill="#111827" text-anchor="end">1k</text><line x1="40" y1="85.00" x2="860" y2="85.00" stroke="#e5e7eb"/><text x="32" y="89.00" font-size="10" fill="#111827" text-anchor="end">1.5k</text><line x1="40" y1="40.00" x2="860" y2="40.00" stroke="#e5e7eb"/><text x="32" y="44.00" font-size="10" fill="#111827" text-anchor="end">2k</text>
    <line x1="40.00" y1="40" x2="40.00" y2="220" stroke="#e5e7eb" opacity="0.5"/><line x1="117.09" y1="40" x2="117.09" y2="220" stroke="#e5e7eb" opacity="0.5"/><line x1="194.19" y1="40" x2="194.19" y2="220" stroke="#e5e7eb" opacity="0.5"/><line x1="271.28" y1="40" x2="271.28" y2="220" stroke="#e5e7eb" opacity="0.5"/><line x1="348.38" y1="40" x2="348.38" y2="220" stroke="#e5e7eb" opacity="0.5"/><line x1="425.47" y1="40" x2="425.47" y2="220" stroke="#e5e7eb" opacity="0.5"/><line x1="502.56" y1="40" x2="502.56" y2="220" stroke="#e5e7eb" opacity="0.5"/><line x1="579.66" y1="40" x2="579.66" y2="220" stroke="#e5e7eb" opacity="0.5"/><line x1="656.75" y1="40" x2="656.75" y2="220" stroke="#e5e7eb" opacity="0.5"/><line x1="733.85" y1="40" x2="733.85" y2="220" stroke="#e5e7eb" opacity="0.5"/><line x1="810.94" y1="40" x2="810.94" y2="220" stroke="#e5e7eb" opacity="0.5"/>
    <line x1="40" y1="220" x2="860" y2="220" stroke="#9ca3af"/>
    <line x1="40" y1="40"   x2="40"   y2="220" stroke="#9ca3af"/>
    <path d="M 40.00 219.82 L 47.01 214.15 L 54.02 214.06 L 61.03 214.06 L 68.03 213.25 L 75.04 213.25 L 82.05 204.88 L 89.06 185.98 L 96.07 185.98 L 103.08 180.94 L 110.09 152.59 L 117.09 159.97 L 124.10 158.89 L 131.11 158.17 L 138.12 139.63 L 145.13 139.63 L 152.14 157.18 L 159.15 154.66 L 166.15 154.39 L 173.16 151.60 L 180.17 150.97 L 187.18 150.70 L 194.19 149.80 L 201.20 149.80 L 208.21 147.46 L 215.21 144.94 L 222.22 144.76 L 229.23 140.71 L 236.24 134.23 L 243.25 134.23 L 250.26 133.69 L 257.26 133.69 L 264.27 133.69 L 271.28 133.69 L 278.29 133.69 L 285.30 133.69 L 292.31 132.97 L 299.32 132.97 L 306.32 132.97 L 313.33 132.97 L 320.34 132.97 L 327.35 132.97 L 334.36 132.97 L 341.37 132.97 L 348.38 132.97 L 355.38 132.97 L 362.39 132.97 L 369.40 132.97 L 376.41 132.97 L 383.42 132.97 L 390.43 132.97 L 397.44 132.97 L 404.44 132.97 L 411.45 132.97 L 418.46 132.97 L 425.47 132.97 L 432.48 132.97 L 439.49 132.97 L 446.50 132.97 L 453.50 132.97 L 460.51 132.97 L 467.52 132.97 L 474.53 132.97 L 481.54 132.97 L 488.55 132.97 L 495.56 132.97 L 502.56 132.97 L 509.57 132.97 L 516.58 132.97 L 523.59 132.97 L 530.60 132.97 L 537.61 132.97 L 544.62 132.97 L 551.62 132.97 L 558.63 132.97 L 565.64 132.97 L 572.65 132.97 L 579.66 132.97 L 586.67 132.97 L 593.68 132.97 L 600.68 132.97 L 607.69 132.97 L 614.70 132.97 L 621.71 132.97 L 628.72 132.97 L 635.73 132.97 L 642.74 132.97 L 649.74 132.97 L 656.75 132.97 L 663.76 132.97 L 670.77 132.97 L 677.78 132.97 L 684.79 132.97 L 691.79 132.97 L 698.80 132.97 L 705.81 132.97 L 712.82 132.97 L 719.83 132.97 L 726.84 132.97 L 733.85 132.97 L 740.85 132.97 L 747.86 132.97 L 754.87 132.97 L 761.88 132.97 L 768.89 132.97 L 775.90 132.97 L 782.91 132.97 L 789.91 132.97 L 796.92 132.97 L 803.93 132.97 L 810.94 132.97 L 817.95 132.97 L 824.96 132.97 L 831.97 132.97 L 838.97 132.97 L 845.98 132.97 L 852.99 132.97 L 860.00 132.97" fill="none" stroke="#111827" stroke-width="2"/>
    <circle cx="860.00" cy="132.97" r="3" fill="#111827"/>
    <text x="40.00" y="235.00" font-size="9" fill="#111827" text-anchor="middle" transform="rotate(-45 40.00 235.00)">09.08.2025</text><text x="117.09" y="235.00" font-size="9" fill="#111827" text-anchor="middle" transform="rotate(-45 117.09 235.00)">09.08.2025</text><text x="194.19" y="235.00" font-size="9" fill="#111827" text-anchor="middle" transform="rotate(-45 194.19 235.00)">09.08.2025</text><text x="271.28" y="235.00" font-size="9" fill="#111827" text-anchor="middle" transform="rotate(-45 271.28 235.00)">13.08.2025</text><text x="348.38" y="235.00" font-size="9" fill="#111827" text-anchor="middle" transform="rotate(-45 348.38 235.00)">20.08.2025</text><text x="425.47" y="235.00" font-size="9" fill="#111827" text-anchor="middle" transform="rotate(-45 425.47 235.00)">29.08.2025</text><text x="502.56" y="235.00" font-size="9" fill="#111827" text-anchor="middle" transform="rotate(-45 502.56 235.00)">09.09.2025</text><text x="579.66" y="235.00" font-size="9" fill="#111827" text-anchor="middle" transform="rotate(-45 579.66 235.00)">20.09.2025</text><text x="656.75" y="235.00" font-size="9" fill="#111827" text-anchor="middle" transform="rotate(-45 656.75 235.00)">01.10.2025</text><text x="733.85" y="235.00" font-size="9" fill="#111827" text-anchor="middle" transform="rotate(-45 733.85 235.00)">12.10.2025</text><text x="810.94" y="235.00" font-size="9" fill="#111827" text-anchor="middle" transform="rotate(-45 810.94 235.00)">23.10.2025</text>
  </g>
</svg>