<svg xmlns="http://www.w3.org/2000/svg" width="900" height="290" style="font-family: -apple-system, BlinkMacSystemFont, 'Segoe UI', Helvetica, Arial, sans-serif;">
  <rect width="100%" height="100%" fill="white"/>
  <g>
    <line x1="40" y1="220.00" x2="860" y2="220.00" stroke="#e5e7eb"/><text x="32" y="224.00" font-size="10" fill="#111827" text-anchor="end">0</text><line x1="40" y1="175.00" x2="860" y2="175.00" stroke="#e5e7eb"/><text x="32" y="179.00" font-size="10" fill="#111827" text-anchor="end">500</text><line x1="40" y1="130.00" x2="860" y2="130.00" stroke="#e5e7eb"/><text x="32" y="134.00" font-size="10" fill="#111827" text-anchor="end">1k</text><line x1="40" y1="85.00" x2="860" y2="85.00" stroke="#e5e7eb"/><text x="32" y="89.00" font-size="10" fill="#111827" text-anchor="end">1.5k</text><line x1="40" y1="40.00" x2="860" y2="40.00" stroke="#e5e7eb"/><text x="32" y="44.00" font-size="10" fill="#111827" text-anchor="end">2k</text>
    <line x1="40.00" y1="40" x2="40.00" y2="220" stroke="#e5e7eb" opacity="0.5"/><line x1="122.00" y1="40" x2="122.00" y2="220" stroke="#e5e7eb" opacity="0.5"/><line x1="204.00" y1="40" x2="204.00" y2="220" stroke="#e5e7eb" opacity="0.5"/><line x1="286.00" y1="40" x2="286.00" y2="220" stroke="#e5e7eb" opacity="0.5"/><line x1="368.00" y1="40" x2="368.00" y2="220" stroke="#e5e7eb" opacity="0.5"/><line x1="450.00" y1="40" x2="450.00" y2="220" stroke="#e5e7eb" opacity="0.5"/><line x1="532.00" y1="40" x2="532.00" y2="220" stroke="#e5e7eb" opacity="0.5"/><line x1="614.00" y1="40" x2="614.00" y2="220" stroke="#e5e7eb" opacity="0.5"/><line x1="696.00" y1="40" x2="696.00" y2="220" stroke="#e5e7eb" opacity="0.5"/><line x1="778.00" y1="40" x2="778.00" y2="220" stroke="#e5e7eb" opacity="0.5"/><line x1="860.00" y1="40" x2="860.00" y2="220" stroke="#e5e7eb" opacity="0.5"/>
    <line x1="40" y1="220" x2="860" y2="220" stroke="#9ca3af"/>
    <line x1="40" y1="40"   x2="40"   y2="220" stroke="#9ca3af"/>
    <path d="M 40.00 219.82 L 50.25 214.15 L 60.50 214.06 L 70.75 214.06 L 81.00 213.25 L 91.25 213.25 L 101.50 204.88 L 111.75 185.98 L 122.00 185.98 L 132.25 180.94 L 142.50 152.59 L 152.75 159.97 L 163.00 158.89 L 173.25 158.17 L 183.50 139.63 L 193.75 139.63 L 204.00 157.18 L 214.25 154.66 L 224.50 154.39 L 234.75 151.60 L 245.00 150.97 L 255.25 150.70 L 265.50 149.80 L 275.75 149.80 L 286.00 147.46 L 296.25 144.94 L 306.50 144.76 L 316.75 140.71 L 327.00 134.23 L 337.25 134.23 L 347.50 133.69 L 357.75 133.69 L 368.00 133.69 L 378.25 133.69 L 388.50 133.69 L 398.75 133.69 L 409.00 132.97 L 419.25 132.97 L 429.50 132.97 L 439.75 132.97 L 450.00 132.97 L 460.25 132.97 L 470.50 132.97 L 480.75 132.97 L 491.00 132.97 L 501.25 132.97 L 511.50 132.97 L 521.75 132.97 L 532.00 132.97 L 542.25 132.97 L 552.50 132.97 L 562.75 132.97 L 573.00 132.97 L 583.25 132.97 L 593.50 132.97 L 603.75 132.97 L 614.00 132.97 L 624.25 132.97 L 634.50 132.97 L 644.75 132.97 L 655.00 132.97 L 665.25 132.97 L 675.50 132.97 L 685.75 132.97 L 696.00 132.97 L 706.25 132.97 L 716.50 132.97 L 726.75 132.97 L 737.00 132.97 L 747.25 132.97 L 757.50 132.97 L 767.75 132.97 L 778.00 132.97 L 788.25 132.97 L 798.50 132.97 L 808.75 132.97 L 819.00 132.97 L 829.25 132.97 L 839.50 132.97 L 849.75 132.97 L 860.00 132.97" fill="none" stroke="#111827" stroke-width="2"/>
    <circle cx="860.00" cy="132.97" r="3" fill="#111827"/>
    <text x="40.00" y="235.00" font-size="9" fill="#111827" text-anchor="middle" transform="rotate(-45 40.00 235.00)">09.08.2025</text><text x="122.00" y="235.00" font-size="9" fill="#111827" text-anchor="middle" transform="rotate(-45 122.00 235.00)">09.08.2025</text><text x="204.00" y="235.00" font-size="9" fill="#111827" text-anchor="middle" transform="rotate(-45 204.00 235.00)">09.08.2025</text><text x="286.00" y="235.00" font-size="9" fill="#111827" text-anchor="middle" transform="rotate(-45 286.00 235.00)">09.08.2025</text><text x="368.00" y="235.00" font-size="9" fill="#111827" text-anchor="middle" transform="rotate(-45 368.00 235.00)">13.08.2025</text><text x="450.00" y="235.00" font-size="9" fill="#111827" text-anchor="middle" transform="rotate(-45 450.00 235.00)">16.08.2025</text><text x="532.00" y="235.00" font-size="9" fill="#111827" text-anchor="middle" transform="rotate(-45 532.00 235.00)">24.08.2025</text><text x="614.00" y="235.00" font-size="9" fill="#111827" text-anchor="middle" transform="rotate(-45 614.00 235.00)">30.08.2025</text><text x="696.00" y="235.00" font-size="9" fill="#111827" text-anchor="middle" transform="rotate(-45 696.00 235.00)">07.09.2025</text><text x="778.00" y="235.00" font-size="9" fill="#111827" text-anchor="middle" transform="rotate(-45 778.00 235.00)">15.09.2025</text><text x="860.00" y="235.00" font-size="9" fill="#111827" text-anchor="middle" transform="rotate(-45 860.00 235.00)">23.09.2025</text>
  </g>
</svg>