<svg xmlns="http://www.w3.org/2000/svg" width="900" height="290" style="font-family: -apple-system, BlinkMacSystemFont, 'Segoe UI', Helvetica, Arial, sans-serif;">
  <rect width="100%" height="100%" fill="white"/>
  <g>
    <line x1="40" y1="220.00" x2="860" y2="220.00" stroke="#e5e7eb"/><text x="32" y="224.00" font-size="10" fill="#111827" text-anchor="end">0</text><line x1="40" y1="175.00" x2="860" y2="175.00" stroke="#e5e7eb"/><text x="32" y="179.00" font-size="10" fill="#111827" text-anchor="end">500</text><line x1="40" y1="130.00" x2="860" y2="130.00" stroke="#e5e7eb"/><text x="32" y="134.00" font-size="10" fill="#111827" text-anchor="end">1k</text><line x1="40" y1="85.00" x2="860" y2="85.00" stroke="#e5e7eb"/><text x="32" y="89.00" font-size="10" fill="#111827" text-anchor="end">1.5k</text><line x1="40" y1="40.00" x2="860" y2="40.00" stroke="#e5e7eb"/><text x="32" y="44.00" font-size="10" fill="#111827" text-anchor="end">2k</text>
    <line x1="40.00" y1="40" x2="40.00" y2="220" stroke="#e5e7eb" opacity="0.5"/><line x1="122.00" y1="40" x2="122.00" y2="220" stroke="#e5e7eb" opacity="0.5"/><line x1="204.00" y1="40" x2="204.00" y2="220" stroke="#e5e7eb" opacity="0.5"/><line x1="286.00" y1="40" x2="286.00" y2="220" stroke="#e5e7eb" opacity="0.5"/><line x1="368.00" y1="40" x2="368.00" y2="220" stroke="#e5e7eb" opacity="0.5"/><line x1="450.00" y1="40" x2="450.00" y2="220" stroke="#e5e7eb" opacity="0.5"/><line x1="532.00" y1="40" x2="532.00" y2="220" stroke="#e5e7eb" opacity="0.5"/><line x1="614.00" y1="40" x2="614.00" y2="220" stroke="#e5e7eb" opacity="0.5"/><line x1="696.00" y1="40" x2="696.00" y2="220" stroke="#e5e7eb" opacity="0.5"/><line x1="778.00" y1="40" x2="778.00" y2="220" stroke="#e5e7eb" opacity="0.5"/><line x1="860.00" y1="40" x2="860.00" y2="220" stroke="#e5e7eb" opacity="0.5"/>
    <line x1="40" y1="220" x2="860" y2="220" stroke="#9ca3af"/>
    <line x1="40" y1="40"   x2="40"   y2="220" stroke="#9ca3af"/>
    <path d="M 40.00 219.82 L 45.86 214.15 L 51.71 214.06 L 57.57 214.06 L 63.43 213.25 L 69.29 213.25 L 75.14 204.88 L 81.00 185.98 L 86.86 185.98 L 92.71 180.94 L 98.57 152.59 L 104.43 159.97 L 110.29 158.89 L 116.14 158.17 L 122.00 139.63 L 127.86 139.63 L 133.71 157.18 L 139.57 154.66 L 145.43 154.39 L 151.29 151.60 L 157.14 150.97 L 163.00 150.70 L 168.86 149.80 L 174.71 149.80 L 180.57 147.46 L 186.43 144.94 L 192.29 144.76 L 198.14 140.71 L 204.00 134.23 L 209.86 134.23 L 215.71 133.69 L 221.57 133.69 L 227.43 133.69 L 233.29 133.69 L 239.14 133.69 L 245.00 133.69 L 250.86 132.97 L 256.71 132.97 L 262.57 132.97 L 268.43 132.97 L 274.29 132.97 L 280.14 132.97 L 286.00 132.97 L 291.86 132.97 L 297.71 132.97 L 303.57 132.97 L 309.43 132.97 L 315.29 132.97 L 321.14 132.97 L 327.00 132.97 L 332.86 132.97 L 338.71 132.97 L 344.57 132.97 L 350.43 132.97 L 356.29 132.97 L 362.14 132.97 L 368.00 132.97 L 373.86 132.97 L 379.71 132.97 L 385.57 132.97 L 391.43 132.97 L 397.29 132.97 L 403.14 132.97 L 409.00 132.97 L 414.86 132.97 L 420.71 132.97 L 426.57 132.97 L 432.43 132.97 L 438.29 132.97 L 444.14 132.97 L 450.00 132.97 L 455.86 132.97 L 461.71 132.97 L 467.57 132.97 L 473.43 132.97 L 479.29 132.97 L 485.14 132.97 L 491.00 132.97 L 496.86 132.97 L 502.71 132.97 L 508.57 132.97 L 514.43 132.97 L 520.29 132.97 L 526.14 132.97 L 532.00 132.97 L 537.86 132.97 L 543.71 132.97 L 549.57 132.97 L 555.43 132.97 L 561.29 132.97 L 567.14 132.97 L 573.00 132.97 L 578.86 132.97 L 584.71 132.97 L 590.57 132.97 L 596.43 132.97 L 602.29 132.97 L 608.14 132.97 L 614.00 132.97 L 619.86 132.97 L 625.71 132.97 L 631.57 132.97 L 637.43 132.97 L 643.29 132.97 L 649.14 132.97 L 655.00 132.97 L 660.86 132.97 L 666.71 132.97 L 672.57 132.97 L 678.43 132.97 L 684.29 132.97 L 690.14 132.97 L 696.00 132.97 L 701.86 132.97 L 707.71 132.97 L 713.57 132.97 L 719.43 132.97 L 725.29 132.97 L 731.14 132.97 L 737.00 132.97 L 742.86 132.97 L 748.71 132.97 L 754.57 132.97 L 760.43 132.97 L 766.29 132.97 L 772.14 132.97 L 778.00 132.97 L 783.86 132.97 L 789.71 132.97 L 795.57 132.97 L 801.43 132.97 L 807.29 132.97 L 813.14 132.97 L 819.00 132.97 L 824.86 132.97 L 830.71 132.97 L 836.57 132.97 L 842.43 132.97 L 848.29 132.97 L 854.14 132.97 L 860.00 132.97" fill="none" stroke="#111827" stroke-width="2"/>
    <circle cx="860.00" cy="132.97" r="3" fill="#111827"/>
    <text x="40.00" y="235.00" font-size="9" fill="#111827" text-anchor="middle" transform="rotate(-45 40.00 235.00)">09.08.2025</text><text x="122.00" y="235.00" font-size="9" fill="#111827" text-anchor="middle" transform="rotate(-45 122.00 235.00)">09.08.2025</text><text x="204.00" y="235.00" font-size="9" fill="#111827" text-anchor="middle" transform="rotate(-45 204.00 235.00)">13.08.2025</text><text x="286.00" y="235.00" font-size="9" fill="#111827" text-anchor="middle" transform="rotate(-45 286.00 235.00)">18.08.2025</text><text x="368.00" y="235.00" font-size="9" fill="#111827" text-anchor="middle" transform="rotate(-45 368.00 235.00)">30.08.2025</text><text x="450.00" y="235.00" font-size="9" fill="#111827" text-anchor="middle" transform="rotate(-45 450.00 235.00)">13.09.2025</text><text x="532.00" y="235.00" font-size="9" fill="#111827" text-anchor="middle" transform="rotate(-45 532.00 235.00)">27.09.2025</text><text x="614.00" y="235.00" font-size="9" fill="#111827" text-anchor="middle" transform="rotate(-45 614.00 235.00)">11.10.2025</text><text x="696.00" y="235.00" font-size="9" fill="#111827" text-anchor="middle" transform="rotate(-45 696.00 235.00)">25.10.2025</text><text x="778.00" y="235.00" font-size="9" fill="#111827" text-anchor="middle" transform="rotate(-45 778.00 235.00)">08.11.2025</text><text x="860.00" y="235.00" font-size="9" fill="#111827" text-anchor="middle" transform="rotate(-45 860.00 235.00)">22.11.2025</text>
  </g>
</svg>