<svg xmlns="http://www.w3.org/2000/svg" width="900" height="290" style="font-family: -apple-system, BlinkMacSystemFont, 'Segoe UI', Helvetica, Arial, sans-serif;">
  <rect width="100%" height="100%" fill="white"/>
  <g>
    <line x1="40" y1="220.00" x2="860" y2="220.00" stroke="#e5e7eb"/><text x="32" y="224.00" font-size="10" fill="#111827" text-anchor="end">0</text><line x1="40" y1="175.00" x2="860" y2="175.00" stroke="#e5e7eb"/><text x="32" y="179.00" font-size="10" fill="#111827" text-anchor="end">500</text><line x1="40" y1="130.00" x2="860" y2="130.00" stroke="#e5e7eb"/><text x="32" y="134.00" font-size="10" fill="#111827" text-anchor="end">1k</text><line x1="40" y1="85.00" x2="860" y2="85.00" stroke="#e5e7eb"/><text x="32" y="89.00" font-size="10" fill="#111827" text-anchor="end">1.5k</text><line x1="40" y1="40.00" x2="860" y2="40.00" stroke="#e5e7eb"/><text x="32" y="44.00" font-size="10" fill="#111827" text-anchor="end">2k</text>
    <line x1="40.00" y1="40" x2="40.00" y2="220" stroke="#e5e7eb" opacity="0.5"/><line x1="116.88" y1="40" x2="116.88" y2="220" stroke="#e5e7eb" opacity="0.5"/><line x1="193.75" y1="40" x2="193.75" y2="220" stroke="#e5e7eb" opacity="0.5"/><line x1="270.62" y1="40" x2="270.62" y2="220" stroke="#e5e7eb" opacity="0.5"/><line x1="347.50" y1="40" x2="347.50" y2="220" stroke="#e5e7eb" opacity="0.5"/><line x1="424.38" y1="40" x2="424.38" y2="220" stroke="#e5e7eb" opacity="0.5"/><line x1="501.25" y1="40" x2="501.25" y2="220" stroke="#e5e7eb" opacity="0.5"/><line x1="578.12" y1="40" x2="578.12" y2="220" stroke="#e5e7eb" opacity="0.5"/><line x1="655.00" y1="40" x2="655.00" y2="220" stroke="#e5e7eb" opacity="0.5"/><line x1="731.88" y1="40" x2="731.88" y2="220" stroke="#e5e7eb" opacity="0.5"/><line x1="808.75" y1="40" x2="808.75" y2="220" stroke="#e5e7eb" opacity="0.5"/>
    <line x1="40" y1="220" x2="860" y2="220" stroke="#9ca3af"/>
    <line x1="40" y1="40"   x2="40"   y2="220" stroke="#9ca3af"/>
    <path d="M 40.00 219.82 L 48.54 214.15 L 57.08 214.06 L 65.62 214.06 L 74.17 213.25 L 82.71 213.25 L 91.25 204.88 L 99.79 185.98 L 108.33 185.98 L 116.88 180.94 L 125.42 152.59 L 133.96 159.97 L 142.50 158.89 L 151.04 158.17 L 159.58 139.63 L 168.12 139.63 L 176.67 157.18 L 185.21 154.66 L 193.75 154.39 L 202.29 151.60 L 210.83 150.97 L 219.38 150.70 L 227.92 149.80 L 236.46 149.80 L 245.00 147.46 L 253.54 144.94 L 262.08 144.76 L 270.62 140.71 L 279.17 134.23 L 287.71 134.23 L 296.25 133.69 L 304.79 133.69 L 313.33 133.69 L 321.88 133.69 L 330.42 133.69 L 338.96 133.69 L 347.50 132.97 L 356.04 132.97 L 364.58 132.97 L 373.12 132.97 L 381.67 132.97 L 390.21 132.97 L 398.75 132.97 L 407.29 132.97 L 415.83 132.97 L 424.38 132.97 L 432.92 132.97 L 441.46 132.97 L 450.00 132.97 L 458.54 132.97 L 467.08 132.97 L 475.62 132.97 L 484.17 132.97 L 492.71 132.97 L 501.25 132.97 L 509.79 132.97 L 518.33 132.97 L 526.88 132.97 L 535.42 132.97 L 543.96 132.97 L 552.50 132.97 L 561.04 132.97 L 569.58 132.97 L 578.12 132.97 L 586.67 132.97 L 595.21 132.97 L 603.75 132.97 L 612.29 132.97 L 620.83 132.97 L 629.38 132.97 L 637.92 132.97 L 646.46 132.97 L 655.00 132.97 L 663.54 132.97 L 672.08 132.97 L 680.62 132.97 L 689.17 132.97 L 697.71 132.97 L 706.25 132.97 L 714.79 132.97 L 723.33 132.97 L 731.88 132.97 L 740.42 132.97 L 748.96 132.97 L 757.50 132.97 L 766.04 132.97 L 774.58 132.97 L 783.12 132.97 L 791.67 132.97 L 800.21 132.97 L 808.75 132.97 L 817.29 132.97 L 825.83 132.97 L 834.38 132.97 L 842.92 132.97 L 851.46 132.97 L 860.00 132.97" fill="none" stroke="#111827" stroke-width="2"/>
    <circle cx="860.00" cy="132.97" r="3" fill="#111827"/>
    <text x="40.00" y="235.00" font-size="9" fill="#111827" text-anchor="middle" transform="rotate(-45 40.00 235.00)">09.08.2025</text><text x="116.88" y="235.00" font-size="9" fill="#111827" text-anchor="middle" transform="rotate(-45 116.88 235.00)">09.08.2025</text><text x="193.75" y="235.00" font-size="9" fill="#111827" text-anchor="middle" transform="rotate(-45 193.75 235.00)">09.08.2025</text><text x="270.62" y="235.00" font-size="9" fill="#111827" text-anchor="middle" transform="rotate(-45 270.62 235.00)">13.08.2025</text><text x="347.50" y="235.00" font-size="9" fill="#111827" text-anchor="middle" transform="rotate(-45 347.50 235.00)">13.08.2025</text><text x="424.38" y="235.00" font-size="9" fill="#111827" text-anchor="middle" transform="rotate(-45 424.38 235.00)">21.08.2025</text><text x="501.25" y="235.00" font-size="9" fill="#111827" text-anchor="middle" transform="rotate(-45 501.25 235.00)">28.08.2025</text><text x="578.12" y="235.00" font-size="9" fill="#111827" text-anchor="middle" transform="rotate(-45 578.12 235.00)">06.09.2025</text><text x="655.00" y="235.00" font-size="9" fill="#111827" text-anchor="middle" transform="rotate(-45 655.00 235.00)">15.09.2025</text><text x="731.88" y="235.00" font-size="9" fill="#111827" text-anchor="middle" transform="rotate(-45 731.88 235.00)">24.09.2025</text><text x="808.75" y="235.00" font-size="9" fill="#111827" text-anchor="middle" transform="rotate(-45 808.75 235.00)">03.10.2025</text>
  </g>
</svg>