<svg xmlns="http://www.w3.org/2000/svg" width="900" height="290" style="font-family: -apple-system, BlinkMacSystemFont, 'Segoe UI', Helvetica, Arial, sans-serif;">
  <rect width="100%" height="100%" fill="#0d1117"/>
  <g>
    <line x1="40" y1="220.00" x2="860" y2="220.00" stroke="#30363d"/><text x="32" y="224.00" font-size="10" fill="#c9d1d9" text-anchor="end">0</text><line x1="40" y1="175.00" x2="860" y2="175.00" stroke="#30363d"/><text x="32" y="179.00" font-size="10" fill="#c9d1d9" text-anchor="end">500</text><line x1="40" y1="130.00" x2="860" y2="130.00" stroke="#30363d"/><text x="32" y="134.00" font-size="10" fill="#c9d1d9" text-anchor="end">1k</text><line x1="40" y1="85.00" x2="860" y2="85.00" stroke="#30363d"/><text x="32" y="89.00" font-size="10" fill="#c9d1d9" text-anchor="end">1.5k</text><line x1="40" y1="40.00" x2="860" y2="40.00" stroke="#30363d"/><text x="32" y="44.00" font-size="10" fill="#c9d1d9" text-anchor="end">2k</text>
    <line x1="40.00" y1="40" x2="40.00" y2="220" stroke="#30363d" opacity="0.5"/><line x1="117.76" y1="40" x2="117.76" y2="220" stroke="#30363d" opacity="0.5"/><line x1="195.52" y1="40" x2="195.52" y2="220" stroke="#30363d" opacity="0.5"/><line x1="273.28" y1="40" x2="273.28" y2="220" stroke="#30363d" opacity="0.5"/><line x1="351.03" y1="40" x2="351.03" y2="220" stroke="#30363d" opacity="0.5"/><line x1="428.79" y1="40" x2="428.79" y2="220" stroke="#30363d" opacity="0.5"/><line x1="506.55" y1="40" x2="506.55" y2="220" stroke="#30363d" opacity="0.5"/><line x1="584.31" y1="40" x2="584.31" y2="220" stroke="#30363d" opacity="0.5"/><line x1="662.07" y1="40" x2="662.07" y2="220" stroke="#30363d" opacity="0.5"/><line x1="739.83" y1="40" x2="739.83" y2="220" stroke="#30363d" opacity="0.5"/><line x1="817.59" y1="40" x2="817.59" y2="220" stroke="#30363d" opacity="0.5"/>
    <line x1="40" y1="220" x2="860" y2="220" stroke="#30363d"/>
    <line x1="40" y1="40"   x2="40"   y2="220" stroke="#30363d"/>
    <path d="M 40.00 219.82 L 47.07 214.15 L 54.14 214.06 L 61.21 214.06 L 68.28 213.25 L 75.34 213.25 L 82.41 204.88 L 89.48 185.98 L 96.55 185.98 L 103.62 180.94 L 110.69 152.59 L 117.76 159.97 L 124.83 158.89 L 131.90 158.17 L 138.97 139.63 L 146.03 139.63 L 153.10 157.18 L 160.17 154.66 L 167.24 154.39 L 174.31 151.60 L 181.38 150.97 L 188.45 150.70 L 195.52 149.80 L 202.59 149.80 L 209.66 147.46 L 216.72 144.94 L 223.79 144.76 L 230.86 140.71 L 237.93 134.23 L 245.00 134.23 L 252.07 133.69 L 259.14 133.69 L 266.21 133.69 L 273.28 133.69 L 280.34 133.69 L 287.41 133.69 L 294.48 132.97 L 301.55 132.97 L 308.62 132.97 L 315.69 132.97 L 322.76 132.97 L 329.83 132.97 L 336.90 132.97 L 343.97 132.97 L 351.03 132.97 L 358.10 132.97 L 365.17 132.97 L 372.24 132.97 L 379.31 132.97 L 386.38 132.97 L 393.45 132.97 L 400.52 132.97 L 407.59 132.97 L 414.66 132.97 L 421.72 132.97 L 428.79 132.97 L 435.86 132.97 L 442.93 132.97 L 450.00 132.97 L 457.07 132.97 L 464.14 132.97 L 471.21 132.97 L 478.28 132.97 L 485.34 132.97 L 492.41 132.97 L 499.48 132.97 L 506.55 132.97 L 513.62 132.97 L 520.69 132.97 L 527.76 132.97 L 534.83 132.97 L 541.90 132.97 L 548.97 132.97 L 556.03 132.97 L 563.10 132.97 L 570.17 132.97 L 577.24 132.97 L 584.31 132.97 L 591.38 132.97 L 598.45 132.97 L 605.52 132.97 L 612.59 132.97 L 619.66 132.97 L 626.72 132.97 L 633.79 132.97 L 640.86 132.97 L 647.93 132.97 L 655.00 132.97 L 662.07 132.97 L 669.14 132.97 L 676.21 132.97 L 683.28 132.97 L 690.34 132.97 L 697.41 132.97 L 704.48 132.97 L 711.55 132.97 L 718.62 132.97 L 725.69 132.97 L 732.76 132.97 L 739.83 132.97 L 746.90 132.97 L 753.97 132.97 L 761.03 132.97 L 768.10 132.97 L 775.17 132.97 L 782.24 132.97 L 789.31 132.97 L 796.38 132.97 L 803.45 132.97 L 810.52 132.97 L 817.59 132.97 L 824.66 132.97 L 831.72 132.97 L 838.79 132.97 L 845.86 132.97 L 852.93 132.97 L 860.00 132.97" fill="none" stroke="#3fb950" stroke-width="2"/>
    <circle cx="860.00" cy="132.97" r="3" fill="#3fb950"/>
    <text x="40.00" y="235.00" font-size="9" fill="#c9d1d9" text-anchor="middle" transform="rotate(-45 40.00 235.00)">09.08.2025</text><text x="117.76" y="235.00" font-size="9" fill="#c9d1d9" text-anchor="middle" transform="rotate(-45 117.76 235.00)">09.08.2025</text><text x="195.52" y="235.00" font-size="9" fill="#c9d1d9" text-anchor="middle" transform="rotate(-45 195.52 235.00)">09.08.2025</text><text x="273.28" y="235.00" font-size="9" fill="#c9d1d9" text-anchor="middle" transform="rotate(-45 273.28 235.00)">13.08.2025</text><text x="351.03" y="235.00" font-size="9" fill="#c9d1d9" text-anchor="middle" transform="rotate(-45 351.03 235.00)">20.08.2025</text><text x="428.79" y="235.00" font-size="9" fill="#c9d1d9" text-anchor="middle" transform="rotate(-45 428.79 235.00)">29.08.2025</text><text x="506.55" y="235.00" font-size="9" fill="#c9d1d9" text-anchor="middle" transform="rotate(-45 506.55 235.00)">09.09.2025</text><text x="584.31" y="235.00" font-size="9" fill="#c9d1d9" text-anchor="middle" transform="rotate(-45 584.31 235.00)">20.09.2025</text><text x="662.07" y="235.00" font-size="9" fill="#c9d1d9" text-anchor="middle" transform="rotate(-45 662.07 235.00)">01.10.2025</text><text x="739.83" y="235.00" font-size="9" fill="#c9d1d9" text-anchor="middle" transform="rotate(-45 739.83 235.00)">12.10.2025</text><text x="817.59" y="235.00" font-size="9" fill="#c9d1d9" text-anchor="middle" transform="rotate(-45 817.59 235.00)">23.10.2025</text>
  </g>
</svg>