<svg xmlns="http://www.w3.org/2000/svg" width="900" height="290" style="font-family: -apple-system, BlinkMacSystemFont, 'Segoe UI', Helvetica, Arial, sans-serif;">
  <rect width="100%" height="100%" fill="white"/>
  <g>
    <line x1="40" y1="220.00" x2="860" y2="220.00" stroke="#e5e7eb"/><text x="32" y="224.00" font-size="10" fill="#111827" text-anchor="end">0</text><line x1="40" y1="175.00" x2="860" y2="175.00" stroke="#e5e7eb"/><text x="32" y="179.00" font-size="10" fill="#111827" text-anchor="end">500</text><line x1="40" y1="130.00" x2="860" y2="130.00" stroke="#e5e7eb"/><text x="32" y="134.00" font-size="10" fill="#111827" text-anchor="end">1k</text><line x1="40" y1="85.00" x2="860" y2="85.00" stroke="#e5e7eb"/><text x="32" y="89.00" font-size="10" fill="#111827" text-anchor="end">1.5k</text><line x1="40" y1="40.00" x2="860" y2="40.00" stroke="#e5e7eb"/><text x="32" y="44.00" font-size="10" fill="#111827" text-anchor="end">2k</text>
    <line x1="40.00" y1="40" x2="40.00" y2="220" stroke="#e5e7eb" opacity="0.5"/><line x1="118.10" y1="40" x2="118.10" y2="220" stroke="#e5e7eb" opacity="0.5"/><line x1="196.19" y1="40" x2="196.19" y2="220" stroke="#e5e7eb" opacity="0.5"/><line x1="274.29" y1="40" x2="274.29" y2="220" stroke="#e5e7eb" opacity="0.5"/><line x1="352.38" y1="40" x2="352.38" y2="220" stroke="#e5e7eb" opacity="0.5"/><line x1="430.48" y1="40" x2="430.48" y2="220" stroke="#e5e7eb" opacity="0.5"/><line x1="508.57" y1="40" x2="508.57" y2="220" stroke="#e5e7eb" opacity="0.5"/><line x1="586.67" y1="40" x2="586.67" y2="220" stroke="#e5e7eb" opacity="0.5"/><line x1="664.76" y1="40" x2="664.76" y2="220" stroke="#e5e7eb" opacity="0.5"/><line x1="742.86" y1="40" x2="742.86" y2="220" stroke="#e5e7eb" opacity="0.5"/><line x1="820.95" y1="40" x2="820.95" y2="220" stroke="#e5e7eb" opacity="0.5"/>
    <line x1="40" y1="220" x2="860" y2="220" stroke="#9ca3af"/>
    <line x1="40" y1="40"   x2="40"   y2="220" stroke="#9ca3af"/>
    <path d="M 40.00 219.82 L 49.76 214.15 L 59.52 214.06 L 69.29 214.06 L 79.05 213.25 L 88.81 213.25 L 98.57 204.88 L 108.33 185.98 L 118.10 185.98 L 127.86 180.94 L 137.62 152.59 L 147.38 159.97 L 157.14 158.89 L 166.90 158.17 L 176.67 139.63 L 186.43 139.63 L 196.19 157.18 L 205.95 154.66 L 215.71 154.39 L 225.48 151.60 L 235.24 150.97 L 245.00 150.70 L 254.76 149.80 L 264.52 149.80 L 274.29 147.46 L 284.05 144.94 L 293.81 144.76 L 303.57 140.71 L 313.33 134.23 L 323.10 134.23 L 332.86 133.69 L 342.62 133.69 L 352.38 133.69 L 362.14 133.69 L 371.90 133.69 L 381.67 133.69 L 391.43 132.97 L 401.19 132.97 L 410.95 132.97 L 420.71 132.97 L 430.48 132.97 L 440.24 132.97 L 450.00 132.97 L 459.76 132.97 L 469.52 132.97 L 479.29 132.97 L 489.05 132.97 L 498.81 132.97 L 508.57 132.97 L 518.33 132.97 L 528.10 132.97 L 537.86 132.97 L 547.62 132.97 L 557.38 132.97 L 567.14 132.97 L 576.90 132.97 L 586.67 132.97 L 596.43 132.97 L 606.19 132.97 L 615.95 132.97 L 625.71 132.97 L 635.48 132.97 L 645.24 132.97 L 655.00 132.97 L 664.76 132.97 L 674.52 132.97 L 684.29 132.97 L 694.05 132.97 L 703.81 132.97 L 713.57 132.97 L 723.33 132.97 L 733.10 132.97 L 742.86 132.97 L 752.62 132.97 L 762.38 132.97 L 772.14 132.97 L 781.90 132.97 L 791.67 132.97 L 801.43 132.97 L 811.19 132.97 L 820.95 132.97 L 830.71 132.97 L 840.48 132.97 L 850.24 132.97 L 860.00 132.97" fill="none" stroke="#111827" stroke-width="2"/>
    <circle cx="860.00" cy="132.97" r="3" fill="#111827"/>
    <text x="40.00" y="235.00" font-size="9" fill="#111827" text-anchor="middle" transform="rotate(-45 40.00 235.00)">09.08.2025</text><text x="118.10" y="235.00" font-size="9" fill="#111827" text-anchor="middle" transform="rotate(-45 118.10 235.00)">09.08.2025</text><text x="196.19" y="235.00" font-size="9" fill="#111827" text-anchor="middle" transform="rotate(-45 196.19 235.00)">09.08.2025</text><text x="274.29" y="235.00" font-size="9" fill="#111827" text-anchor="middle" transform="rotate(-45 274.29 235.00)">09.08.2025</text><text x="352.38" y="235.00" font-size="9" fill="#111827" text-anchor="middle" transform="rotate(-45 352.38 235.00)">13.08.2025</text><text x="430.48" y="235.00" font-size="9" fill="#111827" text-anchor="middle" transform="rotate(-45 430.48 235.00)">16.08.2025</text><text x="508.57" y="235.00" font-size="9" fill="#111827" text-anchor="middle" transform="rotate(-45 508.57 235.00)">24.08.2025</text><text x="586.67" y="235.00" font-size="9" fill="#111827" text-anchor="middle" transform="rotate(-45 586.67 235.00)">30.08.2025</text><text x="664.76" y="235.00" font-size="9" fill="#111827" text-anchor="middle" transform="rotate(-45 664.76 235.00)">07.09.2025</text><text x="742.86" y="235.00" font-size="9" fill="#111827" text-anchor="middle" transform="rotate(-45 742.86 235.00)">15.09.2025</text><text x="820.95" y="235.00" font-size="9" fill="#111827" text-anchor="middle" transform="rotate(-45 820.95 235.00)">23.09.2025</text>
  </g>
</svg>