<svg xmlns="http://www.w3.org/2000/svg" width="900" height="290" style="font-family: -apple-system, BlinkMacSystemFont, 'Segoe UI', Helvetica, Arial, sans-serif;">
  <rect width="100%" height="100%" fill="#0d1117"/>
  <g>
    <line x1="40" y1="220.00" x2="860" y2="220.00" stroke="#30363d"/><text x="32" y="224.00" font-size="10" fill="#c9d1d9" text-anchor="end">0</text><line x1="40" y1="175.00" x2="860" y2="175.00" stroke="#30363d"/><text x="32" y="179.00" font-size="10" fill="#c9d1d9" text-anchor="end">500</text><line x1="40" y1="130.00" x2="860" y2="130.00" stroke="#30363d"/><text x="32" y="134.00" font-size="10" fill="#c9d1d9" text-anchor="end">1k</text><line x1="40" y1="85.00" x2="860" y2="85.00" stroke="#30363d"/><text x="32" y="89.00" font-size="10" fill="#c9d1d9" text-anchor="end">1.5k</text><line x1="40" y1="40.00" x2="860" y2="40.00" stroke="#30363d"/><text x="32" y="44.00" font-size="10" fill="#c9d1d9" text-anchor="end">2k</text>
    <line x1="40.00" y1="40" x2="40.00" y2="220" stroke="#30363d" opacity="0.5"/><line x1="121.59" y1="40" x2="121.59" y2="220" stroke="#30363d" opacity="0.5"/><line x1="203.18" y1="40" x2="203.18" y2="220" stroke="#30363d" opacity="0.5"/><line x1="284.78" y1="40" x2="284.78" y2="220" stroke="#30363d" opacity="0.5"/><line x1="366.37" y1="40" x2="366.37" y2="220" stroke="#30363d" opacity="0.5"/><line x1="447.96" y1="40" x2="447.96" y2="220" stroke="#30363d" opacity="0.5"/><line x1="529.55" y1="40" x2="529.55" y2="220" stroke="#30363d" opacity="0.5"/><line x1="611.14" y1="40" x2="611.14" y2="220" stroke="#30363d" opacity="0.5"/><line x1="692.74" y1="40" x2="692.74" y2="220" stroke="#30363d" opacity="0.5"/><line x1="774.33" y1="40" x2="774.33" y2="220" stroke="#30363d" opacity="0.5"/><line x1="855.92" y1="40" x2="855.92" y2="220" stroke="#30363d" opacity="0.5"/>
    <line x1="40" y1="220" x2="860" y2="220" stroke="#30363d"/>
    <line x1="40" y1="40"   x2="40"   y2="220" stroke="#30363d"/>
    <path d="M 40.00 219.82 L 44.08 214.15 L 48.16 214.06 L 52.24 214.06 L 56.32 213.25 L 60.40 213.25 L 64.48 204.88 L 68.56 185.98 L 72.64 185.98 L 76.72 180.94 L 80.80 152.59 L 84.88 159.97 L 88.96 158.89 L 93.03 158.17 L 97.11 139.63 L 101.19 139.63 L 105.27 157.18 L 109.35 154.66 L 113.43 154.39 L 117.51 151.60 L 121.59 150.97 L 125.67 150.70 L 129.75 149.80 L 133.83 149.80 L 137.91 147.46 L 141.99 144.94 L 146.07 144.76 L 150.15 140.71 L 154.23 134.23 L 158.31 134.23 L 162.39 133.69 L 166.47 133.69 L 170.55 133.69 L 174.63 133.69 L 178.71 133.69 L 182.79 133.69 L 186.87 132.97 L 190.95 132.97 L 195.02 132.97 L 199.10 132.97 L 203.18 132.97 L 207.26 132.97 L 211.34 132.97 L 215.42 132.97 L 219.50 132.97 L 223.58 132.97 L 227.66 132.97 L 231.74 132.97 L 235.82 132.97 L 239.90 132.97 L 243.98 132.97 L 248.06 132.97 L 252.14 132.97 L 256.22 132.97 L 260.30 132.97 L 264.38 132.97 L 268.46 132.97 L 272.54 132.97 L 276.62 132.97 L 280.70 132.97 L 284.78 132.97 L 288.86 132.97 L 292.94 132.97 L 297.01 132.97 L 301.09 132.97 L 305.17 132.97 L 309.25 132.97 L 313.33 132.97 L 317.41 132.97 L 321.49 132.97 L 325.57 132.97 L 329.65 132.97 L 333.73 132.97 L 337.81 132.97 L 341.89 132.97 L 345.97 132.97 L 350.05 132.97 L 354.13 132.97 L 358.21 132.97 L 362.29 132.97 L 366.37 132.97 L 370.45 132.97 L 374.53 132.97 L 378.61 132.97 L 382.69 132.97 L 386.77 132.97 L 390.85 132.97 L 394.93 132.97 L 399.00 132.97 L 403.08 132.97 L 407.16 132.97 L 411.24 132.97 L 415.32 132.97 L 419.40 132.97 L 423.48 132.97 L 427.56 132.97 L 431.64 132.97 L 435.72 132.97 L 439.80 132.97 L 443.88 132.97 L 447.96 132.97 L 452.04 132.97 L 456.12 132.97 L 460.20 132.97 L 464.28 132.97 L 468.36 132.97 L 472.44 132.97 L 476.52 132.97 L 480.60 132.97 L 484.68 132.97 L 488.76 132.97 L 492.84 132.97 L 496.92 132.97 L 501.00 132.97 L 505.07 132.97 L 509.15 132.97 L 513.23 132.97 L 517.31 132.97 L 521.39 132.97 L 525.47 132.97 L 529.55 132.97 L 533.63 132.97 L 537.71 132.97 L 541.79 132.97 L 545.87 132.97 L 549.95 132.97 L 554.03 132.97 L 558.11 132.97 L 562.19 132.97 L 566.27 132.97 L 570.35 132.97 L 574.43 132.97 L 578.51 132.97 L 582.59 132.97 L 586.67 132.97 L 590.75 132.97 L 594.83 132.97 L 598.91 132.97 L 602.99 132.97 L 607.06 132.97 L 611.14 132.97 L 615.22 132.97 L 619.30 132.97 L 623.38 132.97 L 627.46 132.97 L 631.54 132.97 L 635.62 132.97 L 639.70 132.97 L 643.78 132.97 L 647.86 132.97 L 651.94 132.97 L 656.02 132.97 L 660.10 132.97 L 664.18 124.51 L 668.26 120.64 L 672.34 116.77 L 676.42 112.90 L 680.50 109.03 L 684.58 105.97 L 688.66 105.97 L 692.74 105.97 L 696.82 105.97 L 700.90 105.97 L 704.98 105.79 L 709.05 103.09 L 713.13 98.41 L 717.21 98.41 L 721.29 98.41 L 725.37 98.41 L 729.45 98.41 L 733.53 98.41 L 737.61 98.41 L 741.69 98.41 L 745.77 98.41 L 749.85 98.41 L 753.93 98.41 L 758.01 98.41 L 762.09 98.41 L 766.17 98.41 L 770.25 98.41 L 774.33 98.41 L 778.41 98.41 L 782.49 98.41 L 786.57 98.41 L 790.65 98.41 L 794.73 98.41 L 798.81 98.41 L 802.89 98.41 L 806.97 98.41 L 811.04 98.41 L 815.12 98.41 L 819.20 98.41 L 823.28 98.41 L 827.36 98.41 L 831.44 98.41 L 835.52 98.41 L 839.60 98.41 L 843.68 98.41 L 847.76 98.41 L 851.84 98.41 L 855.92 98.41 L 860.00 98.41" fill="none" stroke="#3fb950" stroke-width="2"/>
    <circle cx="860.00" cy="98.41" r="3" fill="#3fb950"/>
    <text x="40.00" y="235.00" font-size="9" fill="#c9d1d9" text-anchor="middle" transform="rotate(-45 40.00 235.00)">09.08.2025</text><text x="121.59" y="235.00" font-size="9" fill="#c9d1d9" text-anchor="middle" transform="rotate(-45 121.59 235.00)">09.08.2025</text><text x="203.18" y="235.00" font-size="9" fill="#c9d1d9" text-anchor="middle" transform="rotate(-45 203.18 235.00)">16.08.2025</text><text x="284.78" y="235.00" font-size="9" fill="#c9d1d9" text-anchor="middle" transform="rotate(-45 284.78 235.00)">03.09.2025</text><text x="366.37" y="235.00" font-size="9" fill="#c9d1d9" text-anchor="middle" transform="rotate(-45 366.37 235.00)">23.09.2025</text><text x="447.96" y="235.00" font-size="9" fill="#c9d1d9" text-anchor="middle" transform="rotate(-45 447.96 235.00)">13.10.2025</text><text x="529.55" y="235.00" font-size="9" fill="#c9d1d9" text-anchor="middle" transform="rotate(-45 529.55 235.00)">02.11.2025</text><text x="611.14" y="235.00" font-size="9" fill="#c9d1d9" text-anchor="middle" transform="rotate(-45 611.14 235.00)">22.11.2025</text><text x="692.74" y="235.00" font-size="9" fill="#c9d1d9" text-anchor="middle" transform="rotate(-45 692.74 235.00)">05.12.2025</text><text x="774.33" y="235.00" font-size="9" fill="#c9d1d9" text-anchor="middle" transform="rotate(-45 774.33 235.00)">22.12.2025</text><text x="855.92" y="235.00" font-size="9" fill="#c9d1d9" text-anchor="middle" transform="rotate(-45 855.92 235.00)">11.01.2026</text>
  </g>
</svg>