<svg xmlns="http://www.w3.org/2000/svg" width="900" height="290" style="font-family: -apple-system, BlinkMacSystemFont, 'Segoe UI', Helvetica, Arial, sans-serif;">
  <rect width="100%" height="100%" fill="white"/>
  <g>
    <line x1="40" y1="220.00" x2="860" y2="220.00" stroke="#e5e7eb"/><text x="32" y="224.00" font-size="10" fill="#111827" text-anchor="end">0</text><line x1="40" y1="175.00" x2="860" y2="175.00" stroke="#e5e7eb"/><text x="32" y="179.00" font-size="10" fill="#111827" text-anchor="end">500</text><line x1="40" y1="130.00" x2="860" y2="130.00" stroke="#e5e7eb"/><text x="32" y="134.00" font-size="10" fill="#111827" text-anchor="end">1k</text><line x1="40" y1="85.00" x2="860" y2="85.00" stroke="#e5e7eb"/><text x="32" y="89.00" font-size="10" fill="#111827" text-anchor="end">1.5k</text><line x1="40" y1="40.00" x2="860" y2="40.00" stroke="#e5e7eb"/><text x="32" y="44.00" font-size="10" fill="#111827" text-anchor="end">2k</text>
    <line x1="40.00" y1="40" x2="40.00" y2="220" stroke="#e5e7eb" opacity="0.5"/><line x1="108.33" y1="40" x2="108.33" y2="220" stroke="#e5e7eb" opacity="0.5"/><line x1="176.67" y1="40" x2="176.67" y2="220" stroke="#e5e7eb" opacity="0.5"/><line x1="245.00" y1="40" x2="245.00" y2="220" stroke="#e5e7eb" opacity="0.5"/><line x1="313.33" y1="40" x2="313.33" y2="220" stroke="#e5e7eb" opacity="0.5"/><line x1="381.67" y1="40" x2="381.67" y2="220" stroke="#e5e7eb" opacity="0.5"/><line x1="450.00" y1="40" x2="450.00" y2="220" stroke="#e5e7eb" opacity="0.5"/><line x1="518.33" y1="40" x2="518.33" y2="220" stroke="#e5e7eb" opacity="0.5"/><line x1="586.67" y1="40" x2="586.67" y2="220" stroke="#e5e7eb" opacity="0.5"/><line x1="655.00" y1="40" x2="655.00" y2="220" stroke="#e5e7eb" opacity="0.5"/><line x1="723.33" y1="40" x2="723.33" y2="220" stroke="#e5e7eb" opacity="0.5"/><line x1="791.67" y1="40" x2="791.67" y2="220" stroke="#e5e7eb" opacity="0.5"/><line x1="860.00" y1="40" x2="860.00" y2="220" stroke="#e5e7eb" opacity="0.5"/>
    <line x1="40" y1="220" x2="860" y2="220" stroke="#9ca3af"/>
    <line x1="40" y1="40"   x2="40"   y2="220" stroke="#9ca3af"/>
    <path d="M 40.00 219.82 L 57.08 214.15 L 74.17 214.06 L 91.25 214.06 L 108.33 213.25 L 125.42 213.25 L 142.50 204.88 L 159.58 185.98 L 176.67 185.98 L 193.75 180.94 L 210.83 152.59 L 227.92 159.97 L 245.00 158.89 L 262.08 158.17 L 279.17 139.63 L 296.25 139.63 L 313.33 157.18 L 330.42 154.66 L 347.50 154.39 L 364.58 151.60 L 381.67 150.97 L 398.75 150.70 L 415.83 149.80 L 432.92 149.80 L 450.00 147.46 L 467.08 144.94 L 484.17 144.76 L 501.25 140.71 L 518.33 134.23 L 535.42 134.23 L 552.50 133.69 L 569.58 133.69 L 586.67 133.69 L 603.75 133.69 L 620.83 133.69 L 637.92 133.69 L 655.00 132.97 L 672.08 132.97 L 689.17 132.97 L 706.25 132.97 L 723.33 132.97 L 740.42 132.97 L 757.50 132.97 L 774.58 132.97 L 791.67 132.97 L 808.75 132.97 L 825.83 132.97 L 842.92 132.97 L 860.00 132.97" fill="none" stroke="#111827" stroke-width="2"/>
    <circle cx="860.00" cy="132.97" r="3" fill="#111827"/>
    <text x="40.00" y="235.00" font-size="9" fill="#111827" text-anchor="middle" transform="rotate(-45 40.00 235.00)">09.08.2025</text><text x="108.33" y="235.00" font-size="9" fill="#111827" text-anchor="middle" transform="rotate(-45 108.33 235.00)">09.08.2025</text><text x="176.67" y="235.00" font-size="9" fill="#111827" text-anchor="middle" transform="rotate(-45 176.67 235.00)">09.08.2025</text><text x="245.00" y="235.00" font-size="9" fill="#111827" text-anchor="middle" transform="rotate(-45 245.00 235.00)">09.08.2025</text><text x="313.33" y="235.00" font-size="9" fill="#111827" text-anchor="middle" transform="rotate(-45 313.33 235.00)">09.08.2025</text><text x="381.67" y="235.00" font-size="9" fill="#111827" text-anchor="middle" transform="rotate(-45 381.67 235.00)">09.08.2025</text><text x="450.00" y="235.00" font-size="9" fill="#111827" text-anchor="middle" transform="rotate(-45 450.00 235.00)">09.08.2025</text><text x="518.33" y="235.00" font-size="9" fill="#111827" text-anchor="middle" transform="rotate(-45 518.33 235.00)">13.08.2025</text><text x="586.67" y="235.00" font-size="9" fill="#111827" text-anchor="middle" transform="rotate(-45 586.67 235.00)">13.08.2025</text><text x="655.00" y="235.00" font-size="9" fill="#111827" text-anchor="middle" transform="rotate(-45 655.00 235.00)">13.08.2025</text><text x="723.33" y="235.00" font-size="9" fill="#111827" text-anchor="middle" transform="rotate(-45 723.33 235.00)">16.08.2025</text><text x="791.67" y="235.00" font-size="9" fill="#111827" text-anchor="middle" transform="rotate(-45 791.67 235.00)">20.08.2025</text><text x="860.00" y="235.00" font-size="9" fill="#111827" text-anchor="middle" transform="rotate(-45 860.00 235.00)">24.08.2025</text>
  </g>
</svg>