<svg xmlns="http://www.w3.org/2000/svg" width="900" height="290" style="font-family: -apple-system, BlinkMacSystemFont, 'Segoe UI', Helvetica, Arial, sans-serif;">
  <rect width="100%" height="100%" fill="#0d1117"/>
  <g>
    <line x1="40" y1="220.00" x2="860" y2="220.00" stroke="#30363d"/><text x="32" y="224.00" font-size="10" fill="#c9d1d9" text-anchor="end">0</text><line x1="40" y1="175.00" x2="860" y2="175.00" stroke="#30363d"/><text x="32" y="179.00" font-size="10" fill="#c9d1d9" text-anchor="end">500</text><line x1="40" y1="130.00" x2="860" y2="130.00" stroke="#30363d"/><text x="32" y="134.00" font-size="10" fill="#c9d1d9" text-anchor="end">1k</text><line x1="40" y1="85.00" x2="860" y2="85.00" stroke="#30363d"/><text x="32" y="89.00" font-size="10" fill="#c9d1d9" text-anchor="end">1.5k</text><line x1="40" y1="40.00" x2="860" y2="40.00" stroke="#30363d"/><text x="32" y="44.00" font-size="10" fill="#c9d1d9" text-anchor="end">2k</text>
    <line x1="40.00" y1="40" x2="40.00" y2="220" stroke="#30363d" opacity="0.5"/><line x1="119.68" y1="40" x2="119.68" y2="220" stroke="#30363d" opacity="0.5"/><line x1="199.35" y1="40" x2="199.35" y2="220" stroke="#30363d" opacity="0.5"/><line x1="279.03" y1="40" x2="279.03" y2="220" stroke="#30363d" opacity="0.5"/><line x1="358.70" y1="40" x2="358.70" y2="220" stroke="#30363d" opacity="0.5"/><line x1="438.38" y1="40" x2="438.38" y2="220" stroke="#30363d" opacity="0.5"/><line x1="518.06" y1="40" x2="518.06" y2="220" stroke="#30363d" opacity="0.5"/><line x1="597.73" y1="40" x2="597.73" y2="220" stroke="#30363d" opacity="0.5"/><line x1="677.41" y1="40" x2="677.41" y2="220" stroke="#30363d" opacity="0.5"/><line x1="757.09" y1="40" x2="757.09" y2="220" stroke="#30363d" opacity="0.5"/><line x1="836.76" y1="40" x2="836.76" y2="220" stroke="#30363d" opacity="0.5"/>
    <line x1="40" y1="220" x2="860" y2="220" stroke="#30363d"/>
    <line x1="40" y1="40"   x2="40"   y2="220" stroke="#30363d"/>
    <path d="M 40.00 219.82 L 43.32 214.15 L 46.64 214.06 L 49.96 214.06 L 53.28 213.25 L 56.60 213.25 L 59.92 204.88 L 63.24 185.98 L 66.56 185.98 L 69.88 180.94 L 73.20 152.59 L 76.52 159.97 L 79.84 158.89 L 83.16 158.17 L 86.48 139.63 L 89.80 139.63 L 93.12 157.18 L 96.44 154.66 L 99.76 154.39 L 103.08 151.60 L 106.40 150.97 L 109.72 150.70 L 113.04 149.80 L 116.36 149.80 L 119.68 147.46 L 123.00 144.94 L 126.32 144.76 L 129.64 140.71 L 132.96 134.23 L 136.28 134.23 L 139.60 133.69 L 142.91 133.69 L 146.23 133.69 L 149.55 133.69 L 152.87 133.69 L 156.19 133.69 L 159.51 132.97 L 162.83 132.97 L 166.15 132.97 L 169.47 132.97 L 172.79 132.97 L 176.11 132.97 L 179.43 132.97 L 182.75 132.97 L 186.07 132.97 L 189.39 132.97 L 192.71 132.97 L 196.03 132.97 L 199.35 132.97 L 202.67 132.97 L 205.99 132.97 L 209.31 132.97 L 212.63 132.97 L 215.95 132.97 L 219.27 132.97 L 222.59 132.97 L 225.91 132.97 L 229.23 132.97 L 232.55 132.97 L 235.87 132.97 L 239.19 132.97 L 242.51 132.97 L 245.83 132.97 L 249.15 132.97 L 252.47 132.97 L 255.79 132.97 L 259.11 132.97 L 262.43 132.97 L 265.75 132.97 L 269.07 132.97 L 272.39 132.97 L 275.71 132.97 L 279.03 132.97 L 282.35 132.97 L 285.67 132.97 L 288.99 132.97 L 292.31 132.97 L 295.63 132.97 L 298.95 132.97 L 302.27 132.97 L 305.59 132.97 L 308.91 132.97 L 312.23 132.97 L 315.55 132.97 L 318.87 132.97 L 322.19 132.97 L 325.51 132.97 L 328.83 132.97 L 332.15 132.97 L 335.47 132.97 L 338.79 132.97 L 342.11 132.97 L 345.43 132.97 L 348.74 132.97 L 352.06 132.97 L 355.38 132.97 L 358.70 132.97 L 362.02 132.97 L 365.34 132.97 L 368.66 132.97 L 371.98 132.97 L 375.30 132.97 L 378.62 132.97 L 381.94 132.97 L 385.26 132.97 L 388.58 132.97 L 391.90 132.97 L 395.22 132.97 L 398.54 132.97 L 401.86 132.97 L 405.18 132.97 L 408.50 132.97 L 411.82 132.97 L 415.14 132.97 L 418.46 132.97 L 421.78 132.97 L 425.10 132.97 L 428.42 132.97 L 431.74 132.97 L 435.06 132.97 L 438.38 132.97 L 441.70 132.97 L 445.02 132.97 L 448.34 132.97 L 451.66 132.97 L 454.98 132.97 L 458.30 132.97 L 461.62 132.97 L 464.94 132.97 L 468.26 132.97 L 471.58 132.97 L 474.90 132.97 L 478.22 132.97 L 481.54 132.97 L 484.86 132.97 L 488.18 132.97 L 491.50 132.97 L 494.82 132.97 L 498.14 132.97 L 501.46 132.97 L 504.78 132.97 L 508.10 132.97 L 511.42 132.97 L 514.74 132.97 L 518.06 132.97 L 521.38 132.97 L 524.70 132.97 L 528.02 132.97 L 531.34 132.97 L 534.66 132.97 L 537.98 132.97 L 541.30 132.97 L 544.62 132.97 L 547.94 124.51 L 551.26 120.64 L 554.57 116.77 L 557.89 112.90 L 561.21 109.03 L 564.53 105.97 L 567.85 105.97 L 571.17 105.97 L 574.49 105.97 L 577.81 105.97 L 581.13 105.79 L 584.45 103.09 L 587.77 98.41 L 591.09 98.41 L 594.41 98.41 L 597.73 98.41 L 601.05 98.41 L 604.37 98.41 L 607.69 98.41 L 611.01 98.41 L 614.33 98.41 L 617.65 98.41 L 620.97 98.41 L 624.29 98.41 L 627.61 98.41 L 630.93 98.41 L 634.25 98.41 L 637.57 98.41 L 640.89 98.41 L 644.21 98.41 L 647.53 98.41 L 650.85 98.41 L 654.17 98.41 L 657.49 98.41 L 660.81 98.41 L 664.13 98.41 L 667.45 98.41 L 670.77 98.41 L 674.09 98.41 L 677.41 98.41 L 680.73 98.41 L 684.05 98.41 L 687.37 98.41 L 690.69 98.41 L 694.01 98.41 L 697.33 98.41 L 700.65 98.41 L 703.97 98.41 L 707.29 98.41 L 710.61 98.41 L 713.93 98.41 L 717.25 98.41 L 720.57 98.41 L 723.89 98.41 L 727.21 98.41 L 730.53 98.41 L 733.85 98.41 L 737.17 98.41 L 740.49 98.41 L 743.81 98.41 L 747.13 98.41 L 750.45 98.41 L 753.77 98.41 L 757.09 98.41 L 760.40 98.41 L 763.72 98.41 L 767.04 98.41 L 770.36 98.41 L 773.68 98.41 L 777.00 98.41 L 780.32 98.41 L 783.64 98.41 L 786.96 98.41 L 790.28 98.41 L 793.60 98.41 L 796.92 98.41 L 800.24 98.41 L 803.56 98.41 L 806.88 98.41 L 810.20 98.41 L 813.52 98.41 L 816.84 98.41 L 820.16 98.41 L 823.48 98.41 L 826.80 98.41 L 830.12 98.41 L 833.44 98.41 L 836.76 98.41 L 840.08 98.41 L 843.40 98.41 L 846.72 98.41 L 850.04 98.41 L 853.36 98.41 L 856.68 98.41 L 860.00 98.41" fill="none" stroke="#3fb950" stroke-width="2"/>
    <circle cx="860.00" cy="98.41" r="3" fill="#3fb950"/>
    <text x="40.00" y="235.00" font-size="9" fill="#c9d1d9" text-anchor="middle" transform="rotate(-45 40.00 235.00)">09.08.2025</text><text x="119.68" y="235.00" font-size="9" fill="#c9d1d9" text-anchor="middle" transform="rotate(-45 119.68 235.00)">09.08.2025</text><text x="199.35" y="235.00" font-size="9" fill="#c9d1d9" text-anchor="middle" transform="rotate(-45 199.35 235.00)">24.08.2025</text><text x="279.03" y="235.00" font-size="9" fill="#c9d1d9" text-anchor="middle" transform="rotate(-45 279.03 235.00)">15.09.2025</text><text x="358.70" y="235.00" font-size="9" fill="#c9d1d9" text-anchor="middle" transform="rotate(-45 358.70 235.00)">09.10.2025</text><text x="438.38" y="235.00" font-size="9" fill="#c9d1d9" text-anchor="middle" transform="rotate(-45 438.38 235.00)">02.11.2025</text><text x="518.06" y="235.00" font-size="9" fill="#c9d1d9" text-anchor="middle" transform="rotate(-45 518.06 235.00)">26.11.2025</text><text x="597.73" y="235.00" font-size="9" fill="#c9d1d9" text-anchor="middle" transform="rotate(-45 597.73 235.00)">10.12.2025</text><text x="677.41" y="235.00" font-size="9" fill="#c9d1d9" text-anchor="middle" transform="rotate(-45 677.41 235.00)">03.01.2026</text><text x="757.09" y="235.00" font-size="9" fill="#c9d1d9" text-anchor="middle" transform="rotate(-45 757.09 235.00)">27.01.2026</text><text x="836.76" y="235.00" font-size="9" fill="#c9d1d9" text-anchor="middle" transform="rotate(-45 836.76 235.00)">20.02.2026</text>
  </g>
</svg>