<svg xmlns="http://www.w3.org/2000/svg" width="900" height="290" style="font-family: -apple-system, BlinkMacSystemFont, 'Segoe UI', Helvetica, Arial, sans-serif;">
  <rect width="100%" height="100%" fill="white"/>
  <g>
    <line x1="40" y1="220.00" x2="860" y2="220.00" stroke="#e5e7eb"/><text x="32" y="224.00" font-size="10" fill="#111827" text-anchor="end">0</text><line x1="40" y1="175.00" x2="860" y2="175.00" stroke="#e5e7eb"/><text x="32" y="179.00" font-size="10" fill="#111827" text-anchor="end">500</text><line x1="40" y1="130.00" x2="860" y2="130.00" stroke="#e5e7eb"/><text x="32" y="134.00" font-size="10" fill="#111827" text-anchor="end">1k</text><line x1="40" y1="85.00" x2="860" y2="85.00" stroke="#e5e7eb"/><text x="32" y="89.00" font-size="10" fill="#111827" text-anchor="end">1.5k</text><line x1="40" y1="40.00" x2="860" y2="40.00" stroke="#e5e7eb"/><text x="32" y="44.00" font-size="10" fill="#111827" text-anchor="end">2k</text>
    <line x1="40.00" y1="40" x2="40.00" y2="220" stroke="#e5e7eb" opacity="0.5"/><line x1="121.26" y1="40" x2="121.26" y2="220" stroke="#e5e7eb" opacity="0.5"/><line x1="202.52" y1="40" x2="202.52" y2="220" stroke="#e5e7eb" opacity="0.5"/><line x1="283.78" y1="40" x2="283.78" y2="220" stroke="#e5e7eb" opacity="0.5"/><line x1="365.05" y1="40" x2="365.05" y2="220" stroke="#e5e7eb" opacity="0.5"/><line x1="446.31" y1="40" x2="446.31" y2="220" stroke="#e5e7eb" opacity="0.5"/><line x1="527.57" y1="40" x2="527.57" y2="220" stroke="#e5e7eb" opacity="0.5"/><line x1="608.83" y1="40" x2="608.83" y2="220" stroke="#e5e7eb" opacity="0.5"/><line x1="690.09" y1="40" x2="690.09" y2="220" stroke="#e5e7eb" opacity="0.5"/><line x1="771.35" y1="40" x2="771.35" y2="220" stroke="#e5e7eb" opacity="0.5"/><line x1="852.61" y1="40" x2="852.61" y2="220" stroke="#e5e7eb" opacity="0.5"/>
    <line x1="40" y1="220" x2="860" y2="220" stroke="#9ca3af"/>
    <line x1="40" y1="40"   x2="40"   y2="220" stroke="#9ca3af"/>
    <path d="M 40.00 219.82 L 47.39 214.15 L 54.77 214.06 L 62.16 214.06 L 69.55 213.25 L 76.94 213.25 L 84.32 204.88 L 91.71 185.98 L 99.10 185.98 L 106.49 180.94 L 113.87 152.59 L 121.26 159.97 L 128.65 158.89 L 136.04 158.17 L 143.42 139.63 L 150.81 139.63 L 158.20 157.18 L 165.59 154.66 L 172.97 154.39 L 180.36 151.60 L 187.75 150.97 L 195.14 150.70 L 202.52 149.80 L 209.91 149.80 L 217.30 147.46 L 224.68 144.94 L 232.07 144.76 L 239.46 140.71 L 246.85 134.23 L 254.23 134.23 L 261.62 133.69 L 269.01 133.69 L 276.40 133.69 L 283.78 133.69 L 291.17 133.69 L 298.56 133.69 L 305.95 132.97 L 313.33 132.97 L 320.72 132.97 L 328.11 132.97 L 335.50 132.97 L 342.88 132.97 L 350.27 132.97 L 357.66 132.97 L 365.05 132.97 L 372.43 132.97 L 379.82 132.97 L 387.21 132.97 L 394.59 132.97 L 401.98 132.97 L 409.37 132.97 L 416.76 132.97 L 424.14 132.97 L 431.53 132.97 L 438.92 132.97 L 446.31 132.97 L 453.69 132.97 L 461.08 132.97 L 468.47 132.97 L 475.86 132.97 L 483.24 132.97 L 490.63 132.97 L 498.02 132.97 L 505.41 132.97 L 512.79 132.97 L 520.18 132.97 L 527.57 132.97 L 534.95 132.97 L 542.34 132.97 L 549.73 132.97 L 557.12 132.97 L 564.50 132.97 L 571.89 132.97 L 579.28 132.97 L 586.67 132.97 L 594.05 132.97 L 601.44 132.97 L 608.83 132.97 L 616.22 132.97 L 623.60 132.97 L 630.99 132.97 L 638.38 132.97 L 645.77 132.97 L 653.15 132.97 L 660.54 132.97 L 667.93 132.97 L 675.32 132.97 L 682.70 132.97 L 690.09 132.97 L 697.48 132.97 L 704.86 132.97 L 712.25 132.97 L 719.64 132.97 L 727.03 132.97 L 734.41 132.97 L 741.80 132.97 L 749.19 132.97 L 756.58 132.97 L 763.96 132.97 L 771.35 132.97 L 778.74 132.97 L 786.13 132.97 L 793.51 132.97 L 800.90 132.97 L 808.29 132.97 L 815.68 132.97 L 823.06 132.97 L 830.45 132.97 L 837.84 132.97 L 845.23 132.97 L 852.61 132.97 L 860.00 132.97" fill="none" stroke="#111827" stroke-width="2"/>
    <circle cx="860.00" cy="132.97" r="3" fill="#111827"/>
    <text x="40.00" y="235.00" font-size="9" fill="#111827" text-anchor="middle" transform="rotate(-45 40.00 235.00)">09.08.2025</text><text x="121.26" y="235.00" font-size="9" fill="#111827" text-anchor="middle" transform="rotate(-45 121.26 235.00)">09.08.2025</text><text x="202.52" y="235.00" font-size="9" fill="#111827" text-anchor="middle" transform="rotate(-45 202.52 235.00)">09.08.2025</text><text x="283.78" y="235.00" font-size="9" fill="#111827" text-anchor="middle" transform="rotate(-45 283.78 235.00)">13.08.2025</text><text x="365.05" y="235.00" font-size="9" fill="#111827" text-anchor="middle" transform="rotate(-45 365.05 235.00)">20.08.2025</text><text x="446.31" y="235.00" font-size="9" fill="#111827" text-anchor="middle" transform="rotate(-45 446.31 235.00)">29.08.2025</text><text x="527.57" y="235.00" font-size="9" fill="#111827" text-anchor="middle" transform="rotate(-45 527.57 235.00)">09.09.2025</text><text x="608.83" y="235.00" font-size="9" fill="#111827" text-anchor="middle" transform="rotate(-45 608.83 235.00)">20.09.2025</text><text x="690.09" y="235.00" font-size="9" fill="#111827" text-anchor="middle" transform="rotate(-45 690.09 235.00)">01.10.2025</text><text x="771.35" y="235.00" font-size="9" fill="#111827" text-anchor="middle" transform="rotate(-45 771.35 235.00)">12.10.2025</text><text x="852.61" y="235.00" font-size="9" fill="#111827" text-anchor="middle" transform="rotate(-45 852.61 235.00)">23.10.2025</text>
  </g>
</svg>