<svg xmlns="http://www.w3.org/2000/svg" width="900" height="290" style="font-family: -apple-system, BlinkMacSystemFont, 'Segoe UI', Helvetica, Arial, sans-serif;">
  <rect width="100%" height="100%" fill="white"/>
  <g>
    <line x1="40" y1="220.00" x2="860" y2="220.00" stroke="#e5e7eb"/><text x="32" y="224.00" font-size="10" fill="#111827" text-anchor="end">0</text><line x1="40" y1="175.00" x2="860" y2="175.00" stroke="#e5e7eb"/><text x="32" y="179.00" font-size="10" fill="#111827" text-anchor="end">500</text><line x1="40" y1="130.00" x2="860" y2="130.00" stroke="#e5e7eb"/><text x="32" y="134.00" font-size="10" fill="#111827" text-anchor="end">1k</text><line x1="40" y1="85.00" x2="860" y2="85.00" stroke="#e5e7eb"/><text x="32" y="89.00" font-size="10" fill="#111827" text-anchor="end">1.5k</text><line x1="40" y1="40.00" x2="860" y2="40.00" stroke="#e5e7eb"/><text x="32" y="44.00" font-size="10" fill="#111827" text-anchor="end">2k</text>
    <line x1="40.00" y1="40" x2="40.00" y2="220" stroke="#e5e7eb" opacity="0.5"/><line x1="122.75" y1="40" x2="122.75" y2="220" stroke="#e5e7eb" opacity="0.5"/><line x1="205.50" y1="40" x2="205.50" y2="220" stroke="#e5e7eb" opacity="0.5"/><line x1="288.26" y1="40" x2="288.26" y2="220" stroke="#e5e7eb" opacity="0.5"/><line x1="371.01" y1="40" x2="371.01" y2="220" stroke="#e5e7eb" opacity="0.5"/><line x1="453.76" y1="40" x2="453.76" y2="220" stroke="#e5e7eb" opacity="0.5"/><line x1="536.51" y1="40" x2="536.51" y2="220" stroke="#e5e7eb" opacity="0.5"/><line x1="619.27" y1="40" x2="619.27" y2="220" stroke="#e5e7eb" opacity="0.5"/><line x1="702.02" y1="40" x2="702.02" y2="220" stroke="#e5e7eb" opacity="0.5"/><line x1="784.77" y1="40" x2="784.77" y2="220" stroke="#e5e7eb" opacity="0.5"/>
    <line x1="40" y1="220" x2="860" y2="220" stroke="#9ca3af"/>
    <line x1="40" y1="40"   x2="40"   y2="220" stroke="#9ca3af"/>
    <path d="M 40.00 219.82 L 47.52 214.15 L 55.05 214.06 L 62.57 214.06 L 70.09 213.25 L 77.61 213.25 L 85.14 204.88 L 92.66 185.98 L 100.18 185.98 L 107.71 180.94 L 115.23 152.59 L 122.75 159.97 L 130.28 158.89 L 137.80 158.17 L 145.32 139.63 L 152.84 139.63 L 160.37 157.18 L 167.89 154.66 L 175.41 154.39 L 182.94 151.60 L 190.46 150.97 L 197.98 150.70 L 205.50 149.80 L 213.03 149.80 L 220.55 147.46 L 228.07 144.94 L 235.60 144.76 L 243.12 140.71 L 250.64 134.23 L 258.17 134.23 L 265.69 133.69 L 273.21 133.69 L 280.73 133.69 L 288.26 133.69 L 295.78 133.69 L 303.30 133.69 L 310.83 132.97 L 318.35 132.97 L 325.87 132.97 L 333.39 132.97 L 340.92 132.97 L 348.44 132.97 L 355.96 132.97 L 363.49 132.97 L 371.01 132.97 L 378.53 132.97 L 386.06 132.97 L 393.58 132.97 L 401.10 132.97 L 408.62 132.97 L 416.15 132.97 L 423.67 132.97 L 431.19 132.97 L 438.72 132.97 L 446.24 132.97 L 453.76 132.97 L 461.28 132.97 L 468.81 132.97 L 476.33 132.97 L 483.85 132.97 L 491.38 132.97 L 498.90 132.97 L 506.42 132.97 L 513.94 132.97 L 521.47 132.97 L 528.99 132.97 L 536.51 132.97 L 544.04 132.97 L 551.56 132.97 L 559.08 132.97 L 566.61 132.97 L 574.13 132.97 L 581.65 132.97 L 589.17 132.97 L 596.70 132.97 L 604.22 132.97 L 611.74 132.97 L 619.27 132.97 L 626.79 132.97 L 634.31 132.97 L 641.83 132.97 L 649.36 132.97 L 656.88 132.97 L 664.40 132.97 L 671.93 132.97 L 679.45 132.97 L 686.97 132.97 L 694.50 132.97 L 702.02 132.97 L 709.54 132.97 L 717.06 132.97 L 724.59 132.97 L 732.11 132.97 L 739.63 132.97 L 747.16 132.97 L 754.68 132.97 L 762.20 132.97 L 769.72 132.97 L 777.25 132.97 L 784.77 132.97 L 792.29 132.97 L 799.82 132.97 L 807.34 132.97 L 814.86 132.97 L 822.39 132.97 L 829.91 132.97 L 837.43 132.97 L 844.95 132.97 L 852.48 132.97 L 860.00 132.97" fill="none" stroke="#111827" stroke-width="2"/>
    <circle cx="860.00" cy="132.97" r="3" fill="#111827"/>
    <text x="40.00" y="235.00" font-size="9" fill="#111827" text-anchor="middle" transform="rotate(-45 40.00 235.00)">09.08.2025</text><text x="122.75" y="235.00" font-size="9" fill="#111827" text-anchor="middle" transform="rotate(-45 122.75 235.00)">09.08.2025</text><text x="205.50" y="235.00" font-size="9" fill="#111827" text-anchor="middle" transform="rotate(-45 205.50 235.00)">09.08.2025</text><text x="288.26" y="235.00" font-size="9" fill="#111827" text-anchor="middle" transform="rotate(-45 288.26 235.00)">13.08.2025</text><text x="371.01" y="235.00" font-size="9" fill="#111827" text-anchor="middle" transform="rotate(-45 371.01 235.00)">20.08.2025</text><text x="453.76" y="235.00" font-size="9" fill="#111827" text-anchor="middle" transform="rotate(-45 453.76 235.00)">29.08.2025</text><text x="536.51" y="235.00" font-size="9" fill="#111827" text-anchor="middle" transform="rotate(-45 536.51 235.00)">09.09.2025</text><text x="619.27" y="235.00" font-size="9" fill="#111827" text-anchor="middle" transform="rotate(-45 619.27 235.00)">20.09.2025</text><text x="702.02" y="235.00" font-size="9" fill="#111827" text-anchor="middle" transform="rotate(-45 702.02 235.00)">01.10.2025</text><text x="784.77" y="235.00" font-size="9" fill="#111827" text-anchor="middle" transform="rotate(-45 784.77 235.00)">12.10.2025</text>
  </g>
</svg>