<svg xmlns="http://www.w3.org/2000/svg" width="900" height="290" style="font-family: -apple-system, BlinkMacSystemFont, 'Segoe UI', Helvetica, Arial, sans-serif;">
  <rect width="100%" height="100%" fill="white"/>
  <g>
    <line x1="40" y1="220.00" x2="860" y2="220.00" stroke="#e5e7eb"/><text x="32" y="224.00" font-size="10" fill="#111827" text-anchor="end">0</text><line x1="40" y1="175.00" x2="860" y2="175.00" stroke="#e5e7eb"/><text x="32" y="179.00" font-size="10" fill="#111827" text-anchor="end">500</text><line x1="40" y1="130.00" x2="860" y2="130.00" stroke="#e5e7eb"/><text x="32" y="134.00" font-size="10" fill="#111827" text-anchor="end">1k</text><line x1="40" y1="85.00" x2="860" y2="85.00" stroke="#e5e7eb"/><text x="32" y="89.00" font-size="10" fill="#111827" text-anchor="end">1.5k</text><line x1="40" y1="40.00" x2="860" y2="40.00" stroke="#e5e7eb"/><text x="32" y="44.00" font-size="10" fill="#111827" text-anchor="end">2k</text>
    <line x1="40.00" y1="40" x2="40.00" y2="220" stroke="#e5e7eb" opacity="0.5"/><line x1="120.54" y1="40" x2="120.54" y2="220" stroke="#e5e7eb" opacity="0.5"/><line x1="201.07" y1="40" x2="201.07" y2="220" stroke="#e5e7eb" opacity="0.5"/><line x1="281.61" y1="40" x2="281.61" y2="220" stroke="#e5e7eb" opacity="0.5"/><line x1="362.14" y1="40" x2="362.14" y2="220" stroke="#e5e7eb" opacity="0.5"/><line x1="442.68" y1="40" x2="442.68" y2="220" stroke="#e5e7eb" opacity="0.5"/><line x1="523.21" y1="40" x2="523.21" y2="220" stroke="#e5e7eb" opacity="0.5"/><line x1="603.75" y1="40" x2="603.75" y2="220" stroke="#e5e7eb" opacity="0.5"/><line x1="684.29" y1="40" x2="684.29" y2="220" stroke="#e5e7eb" opacity="0.5"/><line x1="764.82" y1="40" x2="764.82" y2="220" stroke="#e5e7eb" opacity="0.5"/><line x1="845.36" y1="40" x2="845.36" y2="220" stroke="#e5e7eb" opacity="0.5"/>
    <line x1="40" y1="220" x2="860" y2="220" stroke="#9ca3af"/>
    <line x1="40" y1="40"   x2="40"   y2="220" stroke="#9ca3af"/>
    <path d="M 40.00 219.82 L 47.32 214.15 L 54.64 214.06 L 61.96 214.06 L 69.29 213.25 L 76.61 213.25 L 83.93 204.88 L 91.25 185.98 L 98.57 185.98 L 105.89 180.94 L 113.21 152.59 L 120.54 159.97 L 127.86 158.89 L 135.18 158.17 L 142.50 139.63 L 149.82 139.63 L 157.14 157.18 L 164.46 154.66 L 171.79 154.39 L 179.11 151.60 L 186.43 150.97 L 193.75 150.70 L 201.07 149.80 L 208.39 149.80 L 215.71 147.46 L 223.04 144.94 L 230.36 144.76 L 237.68 140.71 L 245.00 134.23 L 252.32 134.23 L 259.64 133.69 L 266.96 133.69 L 274.29 133.69 L 281.61 133.69 L 288.93 133.69 L 296.25 133.69 L 303.57 132.97 L 310.89 132.97 L 318.21 132.97 L 325.54 132.97 L 332.86 132.97 L 340.18 132.97 L 347.50 132.97 L 354.82 132.97 L 362.14 132.97 L 369.46 132.97 L 376.79 132.97 L 384.11 132.97 L 391.43 132.97 L 398.75 132.97 L 406.07 132.97 L 413.39 132.97 L 420.71 132.97 L 428.04 132.97 L 435.36 132.97 L 442.68 132.97 L 450.00 132.97 L 457.32 132.97 L 464.64 132.97 L 471.96 132.97 L 479.29 132.97 L 486.61 132.97 L 493.93 132.97 L 501.25 132.97 L 508.57 132.97 L 515.89 132.97 L 523.21 132.97 L 530.54 132.97 L 537.86 132.97 L 545.18 132.97 L 552.50 132.97 L 559.82 132.97 L 567.14 132.97 L 574.46 132.97 L 581.79 132.97 L 589.11 132.97 L 596.43 132.97 L 603.75 132.97 L 611.07 132.97 L 618.39 132.97 L 625.71 132.97 L 633.04 132.97 L 640.36 132.97 L 647.68 132.97 L 655.00 132.97 L 662.32 132.97 L 669.64 132.97 L 676.96 132.97 L 684.29 132.97 L 691.61 132.97 L 698.93 132.97 L 706.25 132.97 L 713.57 132.97 L 720.89 132.97 L 728.21 132.97 L 735.54 132.97 L 742.86 132.97 L 750.18 132.97 L 757.50 132.97 L 764.82 132.97 L 772.14 132.97 L 779.46 132.97 L 786.79 132.97 L 794.11 132.97 L 801.43 132.97 L 808.75 132.97 L 816.07 132.97 L 823.39 132.97 L 830.71 132.97 L 838.04 132.97 L 845.36 132.97 L 852.68 132.97 L 860.00 132.97" fill="none" stroke="#111827" stroke-width="2"/>
    <circle cx="860.00" cy="132.97" r="3" fill="#111827"/>
    <text x="40.00" y="235.00" font-size="9" fill="#111827" text-anchor="middle" transform="rotate(-45 40.00 235.00)">09.08.2025</text><text x="120.54" y="235.00" font-size="9" fill="#111827" text-anchor="middle" transform="rotate(-45 120.54 235.00)">09.08.2025</text><text x="201.07" y="235.00" font-size="9" fill="#111827" text-anchor="middle" transform="rotate(-45 201.07 235.00)">09.08.2025</text><text x="281.61" y="235.00" font-size="9" fill="#111827" text-anchor="middle" transform="rotate(-45 281.61 235.00)">13.08.2025</text><text x="362.14" y="235.00" font-size="9" fill="#111827" text-anchor="middle" transform="rotate(-45 362.14 235.00)">20.08.2025</text><text x="442.68" y="235.00" font-size="9" fill="#111827" text-anchor="middle" transform="rotate(-45 442.68 235.00)">29.08.2025</text><text x="523.21" y="235.00" font-size="9" fill="#111827" text-anchor="middle" transform="rotate(-45 523.21 235.00)">09.09.2025</text><text x="603.75" y="235.00" font-size="9" fill="#111827" text-anchor="middle" transform="rotate(-45 603.75 235.00)">20.09.2025</text><text x="684.29" y="235.00" font-size="9" fill="#111827" text-anchor="middle" transform="rotate(-45 684.29 235.00)">01.10.2025</text><text x="764.82" y="235.00" font-size="9" fill="#111827" text-anchor="middle" transform="rotate(-45 764.82 235.00)">12.10.2025</text><text x="845.36" y="235.00" font-size="9" fill="#111827" text-anchor="middle" transform="rotate(-45 845.36 235.00)">23.10.2025</text>
  </g>
</svg>