<svg xmlns="http://www.w3.org/2000/svg" width="900" height="290" style="font-family: -apple-system, BlinkMacSystemFont, 'Segoe UI', Helvetica, Arial, sans-serif;">
  <rect width="100%" height="100%" fill="white"/>
  <g>
    <line x1="40" y1="220.00" x2="860" y2="220.00" stroke="#e5e7eb"/><text x="32" y="224.00" font-size="10" fill="#111827" text-anchor="end">0</text><line x1="40" y1="175.00" x2="860" y2="175.00" stroke="#e5e7eb"/><text x="32" y="179.00" font-size="10" fill="#111827" text-anchor="end">500</text><line x1="40" y1="130.00" x2="860" y2="130.00" stroke="#e5e7eb"/><text x="32" y="134.00" font-size="10" fill="#111827" text-anchor="end">1k</text><line x1="40" y1="85.00" x2="860" y2="85.00" stroke="#e5e7eb"/><text x="32" y="89.00" font-size="10" fill="#111827" text-anchor="end">1.5k</text><line x1="40" y1="40.00" x2="860" y2="40.00" stroke="#e5e7eb"/><text x="32" y="44.00" font-size="10" fill="#111827" text-anchor="end">2k</text>
    <line x1="40.00" y1="40" x2="40.00" y2="220" stroke="#e5e7eb" opacity="0.5"/><line x1="118.69" y1="40" x2="118.69" y2="220" stroke="#e5e7eb" opacity="0.5"/><line x1="197.37" y1="40" x2="197.37" y2="220" stroke="#e5e7eb" opacity="0.5"/><line x1="276.06" y1="40" x2="276.06" y2="220" stroke="#e5e7eb" opacity="0.5"/><line x1="354.75" y1="40" x2="354.75" y2="220" stroke="#e5e7eb" opacity="0.5"/><line x1="433.43" y1="40" x2="433.43" y2="220" stroke="#e5e7eb" opacity="0.5"/><line x1="512.12" y1="40" x2="512.12" y2="220" stroke="#e5e7eb" opacity="0.5"/><line x1="590.81" y1="40" x2="590.81" y2="220" stroke="#e5e7eb" opacity="0.5"/><line x1="669.49" y1="40" x2="669.49" y2="220" stroke="#e5e7eb" opacity="0.5"/><line x1="748.18" y1="40" x2="748.18" y2="220" stroke="#e5e7eb" opacity="0.5"/><line x1="826.87" y1="40" x2="826.87" y2="220" stroke="#e5e7eb" opacity="0.5"/>
    <line x1="40" y1="220" x2="860" y2="220" stroke="#9ca3af"/>
    <line x1="40" y1="40"   x2="40"   y2="220" stroke="#9ca3af"/>
    <path d="M 40.00 219.82 L 44.14 214.15 L 48.28 214.06 L 52.42 214.06 L 56.57 213.25 L 60.71 213.25 L 64.85 204.88 L 68.99 185.98 L 73.13 185.98 L 77.27 180.94 L 81.41 152.59 L 85.56 159.97 L 89.70 158.89 L 93.84 158.17 L 97.98 139.63 L 102.12 139.63 L 106.26 157.18 L 110.40 154.66 L 114.55 154.39 L 118.69 151.60 L 122.83 150.97 L 126.97 150.70 L 131.11 149.80 L 135.25 149.80 L 139.39 147.46 L 143.54 144.94 L 147.68 144.76 L 151.82 140.71 L 155.96 134.23 L 160.10 134.23 L 164.24 133.69 L 168.38 133.69 L 172.53 133.69 L 176.67 133.69 L 180.81 133.69 L 184.95 133.69 L 189.09 132.97 L 193.23 132.97 L 197.37 132.97 L 201.52 132.97 L 205.66 132.97 L 209.80 132.97 L 213.94 132.97 L 218.08 132.97 L 222.22 132.97 L 226.36 132.97 L 230.51 132.97 L 234.65 132.97 L 238.79 132.97 L 242.93 132.97 L 247.07 132.97 L 251.21 132.97 L 255.35 132.97 L 259.49 132.97 L 263.64 132.97 L 267.78 132.97 L 271.92 132.97 L 276.06 132.97 L 280.20 132.97 L 284.34 132.97 L 288.48 132.97 L 292.63 132.97 L 296.77 132.97 L 300.91 132.97 L 305.05 132.97 L 309.19 132.97 L 313.33 132.97 L 317.47 132.97 L 321.62 132.97 L 325.76 132.97 L 329.90 132.97 L 334.04 132.97 L 338.18 132.97 L 342.32 132.97 L 346.46 132.97 L 350.61 132.97 L 354.75 132.97 L 358.89 132.97 L 363.03 132.97 L 367.17 132.97 L 371.31 132.97 L 375.45 132.97 L 379.60 132.97 L 383.74 132.97 L 387.88 132.97 L 392.02 132.97 L 396.16 132.97 L 400.30 132.97 L 404.44 132.97 L 408.59 132.97 L 412.73 132.97 L 416.87 132.97 L 421.01 132.97 L 425.15 132.97 L 429.29 132.97 L 433.43 132.97 L 437.58 132.97 L 441.72 132.97 L 445.86 132.97 L 450.00 132.97 L 454.14 132.97 L 458.28 132.97 L 462.42 132.97 L 466.57 132.97 L 470.71 132.97 L 474.85 132.97 L 478.99 132.97 L 483.13 132.97 L 487.27 132.97 L 491.41 132.97 L 495.56 132.97 L 499.70 132.97 L 503.84 132.97 L 507.98 132.97 L 512.12 132.97 L 516.26 132.97 L 520.40 132.97 L 524.55 132.97 L 528.69 132.97 L 532.83 132.97 L 536.97 132.97 L 541.11 132.97 L 545.25 132.97 L 549.39 132.97 L 553.54 132.97 L 557.68 132.97 L 561.82 132.97 L 565.96 132.97 L 570.10 132.97 L 574.24 132.97 L 578.38 132.97 L 582.53 132.97 L 586.67 132.97 L 590.81 132.97 L 594.95 132.97 L 599.09 132.97 L 603.23 132.97 L 607.37 132.97 L 611.52 132.97 L 615.66 132.97 L 619.80 132.97 L 623.94 132.97 L 628.08 132.97 L 632.22 132.97 L 636.36 132.97 L 640.51 132.97 L 644.65 132.97 L 648.79 132.97 L 652.93 132.97 L 657.07 132.97 L 661.21 132.97 L 665.35 132.97 L 669.49 132.97 L 673.64 124.51 L 677.78 120.64 L 681.92 116.77 L 686.06 112.90 L 690.20 109.03 L 694.34 105.97 L 698.48 105.97 L 702.63 105.97 L 706.77 105.97 L 710.91 105.97 L 715.05 105.79 L 719.19 103.09 L 723.33 98.41 L 727.47 98.41 L 731.62 98.41 L 735.76 98.41 L 739.90 98.41 L 744.04 98.41 L 748.18 98.41 L 752.32 98.41 L 756.46 98.41 L 760.61 98.41 L 764.75 98.41 L 768.89 98.41 L 773.03 98.41 L 777.17 98.41 L 781.31 98.41 L 785.45 98.41 L 789.60 98.41 L 793.74 98.41 L 797.88 98.41 L 802.02 98.41 L 806.16 98.41 L 810.30 98.41 L 814.44 98.41 L 818.59 98.41 L 822.73 98.41 L 826.87 98.41 L 831.01 98.41 L 835.15 98.41 L 839.29 98.41 L 843.43 98.41 L 847.58 98.41 L 851.72 98.41 L 855.86 98.41 L 860.00 98.41" fill="none" stroke="#111827" stroke-width="2"/>
    <circle cx="860.00" cy="98.41" r="3" fill="#111827"/>
    <text x="40.00" y="235.00" font-size="9" fill="#111827" text-anchor="middle" transform="rotate(-45 40.00 235.00)">09.08.2025</text><text x="118.69" y="235.00" font-size="9" fill="#111827" text-anchor="middle" transform="rotate(-45 118.69 235.00)">09.08.2025</text><text x="197.37" y="235.00" font-size="9" fill="#111827" text-anchor="middle" transform="rotate(-45 197.37 235.00)">14.08.2025</text><text x="276.06" y="235.00" font-size="9" fill="#111827" text-anchor="middle" transform="rotate(-45 276.06 235.00)">31.08.2025</text><text x="354.75" y="235.00" font-size="9" fill="#111827" text-anchor="middle" transform="rotate(-45 354.75 235.00)">19.09.2025</text><text x="433.43" y="235.00" font-size="9" fill="#111827" text-anchor="middle" transform="rotate(-45 433.43 235.00)">08.10.2025</text><text x="512.12" y="235.00" font-size="9" fill="#111827" text-anchor="middle" transform="rotate(-45 512.12 235.00)">27.10.2025</text><text x="590.81" y="235.00" font-size="9" fill="#111827" text-anchor="middle" transform="rotate(-45 590.81 235.00)">15.11.2025</text><text x="669.49" y="235.00" font-size="9" fill="#111827" text-anchor="middle" transform="rotate(-45 669.49 235.00)">04.12.2025</text><text x="748.18" y="235.00" font-size="9" fill="#111827" text-anchor="middle" transform="rotate(-45 748.18 235.00)">13.12.2025</text><text x="826.87" y="235.00" font-size="9" fill="#111827" text-anchor="middle" transform="rotate(-45 826.87 235.00)">01.01.2026</text>
  </g>
</svg>