<svg xmlns="http://www.w3.org/2000/svg" width="900" height="290" style="font-family: -apple-system, BlinkMacSystemFont, 'Segoe UI', Helvetica, Arial, sans-serif;">
  <rect width="100%" height="100%" fill="white"/>
  <g>
    <line x1="40" y1="220.00" x2="860" y2="220.00" stroke="#e5e7eb"/><text x="32" y="224.00" font-size="10" fill="#111827" text-anchor="end">0</text><line x1="40" y1="175.00" x2="860" y2="175.00" stroke="#e5e7eb"/><text x="32" y="179.00" font-size="10" fill="#111827" text-anchor="end">500</text><line x1="40" y1="130.00" x2="860" y2="130.00" stroke="#e5e7eb"/><text x="32" y="134.00" font-size="10" fill="#111827" text-anchor="end">1k</text><line x1="40" y1="85.00" x2="860" y2="85.00" stroke="#e5e7eb"/><text x="32" y="89.00" font-size="10" fill="#111827" text-anchor="end">1.5k</text><line x1="40" y1="40.00" x2="860" y2="40.00" stroke="#e5e7eb"/><text x="32" y="44.00" font-size="10" fill="#111827" text-anchor="end">2k</text>
    <line x1="40.00" y1="40" x2="40.00" y2="220" stroke="#e5e7eb" opacity="0.5"/><line x1="117.25" y1="40" x2="117.25" y2="220" stroke="#e5e7eb" opacity="0.5"/><line x1="194.49" y1="40" x2="194.49" y2="220" stroke="#e5e7eb" opacity="0.5"/><line x1="271.74" y1="40" x2="271.74" y2="220" stroke="#e5e7eb" opacity="0.5"/><line x1="348.99" y1="40" x2="348.99" y2="220" stroke="#e5e7eb" opacity="0.5"/><line x1="426.23" y1="40" x2="426.23" y2="220" stroke="#e5e7eb" opacity="0.5"/><line x1="503.48" y1="40" x2="503.48" y2="220" stroke="#e5e7eb" opacity="0.5"/><line x1="580.72" y1="40" x2="580.72" y2="220" stroke="#e5e7eb" opacity="0.5"/><line x1="657.97" y1="40" x2="657.97" y2="220" stroke="#e5e7eb" opacity="0.5"/><line x1="735.22" y1="40" x2="735.22" y2="220" stroke="#e5e7eb" opacity="0.5"/><line x1="812.46" y1="40" x2="812.46" y2="220" stroke="#e5e7eb" opacity="0.5"/>
    <line x1="40" y1="220" x2="860" y2="220" stroke="#9ca3af"/>
    <line x1="40" y1="40"   x2="40"   y2="220" stroke="#9ca3af"/>
    <path d="M 40.00 219.82 L 45.94 214.15 L 51.88 214.06 L 57.83 214.06 L 63.77 213.25 L 69.71 213.25 L 75.65 204.88 L 81.59 185.98 L 87.54 185.98 L 93.48 180.94 L 99.42 152.59 L 105.36 159.97 L 111.30 158.89 L 117.25 158.17 L 123.19 139.63 L 129.13 139.63 L 135.07 157.18 L 141.01 154.66 L 146.96 154.39 L 152.90 151.60 L 158.84 150.97 L 164.78 150.70 L 170.72 149.80 L 176.67 149.80 L 182.61 147.46 L 188.55 144.94 L 194.49 144.76 L 200.43 140.71 L 206.38 134.23 L 212.32 134.23 L 218.26 133.69 L 224.20 133.69 L 230.14 133.69 L 236.09 133.69 L 242.03 133.69 L 247.97 133.69 L 253.91 132.97 L 259.86 132.97 L 265.80 132.97 L 271.74 132.97 L 277.68 132.97 L 283.62 132.97 L 289.57 132.97 L 295.51 132.97 L 301.45 132.97 L 307.39 132.97 L 313.33 132.97 L 319.28 132.97 L 325.22 132.97 L 331.16 132.97 L 337.10 132.97 L 343.04 132.97 L 348.99 132.97 L 354.93 132.97 L 360.87 132.97 L 366.81 132.97 L 372.75 132.97 L 378.70 132.97 L 384.64 132.97 L 390.58 132.97 L 396.52 132.97 L 402.46 132.97 L 408.41 132.97 L 414.35 132.97 L 420.29 132.97 L 426.23 132.97 L 432.17 132.97 L 438.12 132.97 L 444.06 132.97 L 450.00 132.97 L 455.94 132.97 L 461.88 132.97 L 467.83 132.97 L 473.77 132.97 L 479.71 132.97 L 485.65 132.97 L 491.59 132.97 L 497.54 132.97 L 503.48 132.97 L 509.42 132.97 L 515.36 132.97 L 521.30 132.97 L 527.25 132.97 L 533.19 132.97 L 539.13 132.97 L 545.07 132.97 L 551.01 132.97 L 556.96 132.97 L 562.90 132.97 L 568.84 132.97 L 574.78 132.97 L 580.72 132.97 L 586.67 132.97 L 592.61 132.97 L 598.55 132.97 L 604.49 132.97 L 610.43 132.97 L 616.38 132.97 L 622.32 132.97 L 628.26 132.97 L 634.20 132.97 L 640.14 132.97 L 646.09 132.97 L 652.03 132.97 L 657.97 132.97 L 663.91 132.97 L 669.86 132.97 L 675.80 132.97 L 681.74 132.97 L 687.68 132.97 L 693.62 132.97 L 699.57 132.97 L 705.51 132.97 L 711.45 132.97 L 717.39 132.97 L 723.33 132.97 L 729.28 132.97 L 735.22 132.97 L 741.16 132.97 L 747.10 132.97 L 753.04 132.97 L 758.99 132.97 L 764.93 132.97 L 770.87 132.97 L 776.81 132.97 L 782.75 132.97 L 788.70 132.97 L 794.64 132.97 L 800.58 132.97 L 806.52 132.97 L 812.46 132.97 L 818.41 132.97 L 824.35 132.97 L 830.29 132.97 L 836.23 132.97 L 842.17 132.97 L 848.12 132.97 L 854.06 132.97 L 860.00 132.97" fill="none" stroke="#111827" stroke-width="2"/>
    <circle cx="860.00" cy="132.97" r="3" fill="#111827"/>
    <text x="40.00" y="235.00" font-size="9" fill="#111827" text-anchor="middle" transform="rotate(-45 40.00 235.00)">09.08.2025</text><text x="117.25" y="235.00" font-size="9" fill="#111827" text-anchor="middle" transform="rotate(-45 117.25 235.00)">09.08.2025</text><text x="194.49" y="235.00" font-size="9" fill="#111827" text-anchor="middle" transform="rotate(-45 194.49 235.00)">09.08.2025</text><text x="271.74" y="235.00" font-size="9" fill="#111827" text-anchor="middle" transform="rotate(-45 271.74 235.00)">15.08.2025</text><text x="348.99" y="235.00" font-size="9" fill="#111827" text-anchor="middle" transform="rotate(-45 348.99 235.00)">28.08.2025</text><text x="426.23" y="235.00" font-size="9" fill="#111827" text-anchor="middle" transform="rotate(-45 426.23 235.00)">08.09.2025</text><text x="503.48" y="235.00" font-size="9" fill="#111827" text-anchor="middle" transform="rotate(-45 503.48 235.00)">21.09.2025</text><text x="580.72" y="235.00" font-size="9" fill="#111827" text-anchor="middle" transform="rotate(-45 580.72 235.00)">04.10.2025</text><text x="657.97" y="235.00" font-size="9" fill="#111827" text-anchor="middle" transform="rotate(-45 657.97 235.00)">17.10.2025</text><text x="735.22" y="235.00" font-size="9" fill="#111827" text-anchor="middle" transform="rotate(-45 735.22 235.00)">30.10.2025</text><text x="812.46" y="235.00" font-size="9" fill="#111827" text-anchor="middle" transform="rotate(-45 812.46 235.00)">12.11.2025</text>
  </g>
</svg>