<svg xmlns="http://www.w3.org/2000/svg" width="900" height="290" style="font-family: -apple-system, BlinkMacSystemFont, 'Segoe UI', Helvetica, Arial, sans-serif;">
  <rect width="100%" height="100%" fill="white"/>
  <g>
    <line x1="40" y1="220.00" x2="860" y2="220.00" stroke="#e5e7eb"/><text x="32" y="224.00" font-size="10" fill="#111827" text-anchor="end">0</text><line x1="40" y1="175.00" x2="860" y2="175.00" stroke="#e5e7eb"/><text x="32" y="179.00" font-size="10" fill="#111827" text-anchor="end">500</text><line x1="40" y1="130.00" x2="860" y2="130.00" stroke="#e5e7eb"/><text x="32" y="134.00" font-size="10" fill="#111827" text-anchor="end">1k</text><line x1="40" y1="85.00" x2="860" y2="85.00" stroke="#e5e7eb"/><text x="32" y="89.00" font-size="10" fill="#111827" text-anchor="end">1.5k</text><line x1="40" y1="40.00" x2="860" y2="40.00" stroke="#e5e7eb"/><text x="32" y="44.00" font-size="10" fill="#111827" text-anchor="end">2k</text>
    <line x1="40.00" y1="40" x2="40.00" y2="220" stroke="#e5e7eb" opacity="0.5"/><line x1="119.35" y1="40" x2="119.35" y2="220" stroke="#e5e7eb" opacity="0.5"/><line x1="198.71" y1="40" x2="198.71" y2="220" stroke="#e5e7eb" opacity="0.5"/><line x1="278.06" y1="40" x2="278.06" y2="220" stroke="#e5e7eb" opacity="0.5"/><line x1="357.42" y1="40" x2="357.42" y2="220" stroke="#e5e7eb" opacity="0.5"/><line x1="436.77" y1="40" x2="436.77" y2="220" stroke="#e5e7eb" opacity="0.5"/><line x1="516.13" y1="40" x2="516.13" y2="220" stroke="#e5e7eb" opacity="0.5"/><line x1="595.48" y1="40" x2="595.48" y2="220" stroke="#e5e7eb" opacity="0.5"/><line x1="674.84" y1="40" x2="674.84" y2="220" stroke="#e5e7eb" opacity="0.5"/><line x1="754.19" y1="40" x2="754.19" y2="220" stroke="#e5e7eb" opacity="0.5"/><line x1="833.55" y1="40" x2="833.55" y2="220" stroke="#e5e7eb" opacity="0.5"/>
    <line x1="40" y1="220" x2="860" y2="220" stroke="#9ca3af"/>
    <line x1="40" y1="40"   x2="40"   y2="220" stroke="#9ca3af"/>
    <path d="M 40.00 219.82 L 43.78 214.15 L 47.56 214.06 L 51.34 214.06 L 55.12 213.25 L 58.89 213.25 L 62.67 204.88 L 66.45 185.98 L 70.23 185.98 L 74.01 180.94 L 77.79 152.59 L 81.57 159.97 L 85.35 158.89 L 89.12 158.17 L 92.90 139.63 L 96.68 139.63 L 100.46 157.18 L 104.24 154.66 L 108.02 154.39 L 111.80 151.60 L 115.58 150.97 L 119.35 150.70 L 123.13 149.80 L 126.91 149.80 L 130.69 147.46 L 134.47 144.94 L 138.25 144.76 L 142.03 140.71 L 145.81 134.23 L 149.59 134.23 L 153.36 133.69 L 157.14 133.69 L 160.92 133.69 L 164.70 133.69 L 168.48 133.69 L 172.26 133.69 L 176.04 132.97 L 179.82 132.97 L 183.59 132.97 L 187.37 132.97 L 191.15 132.97 L 194.93 132.97 L 198.71 132.97 L 202.49 132.97 L 206.27 132.97 L 210.05 132.97 L 213.82 132.97 L 217.60 132.97 L 221.38 132.97 L 225.16 132.97 L 228.94 132.97 L 232.72 132.97 L 236.50 132.97 L 240.28 132.97 L 244.06 132.97 L 247.83 132.97 L 251.61 132.97 L 255.39 132.97 L 259.17 132.97 L 262.95 132.97 L 266.73 132.97 L 270.51 132.97 L 274.29 132.97 L 278.06 132.97 L 281.84 132.97 L 285.62 132.97 L 289.40 132.97 L 293.18 132.97 L 296.96 132.97 L 300.74 132.97 L 304.52 132.97 L 308.29 132.97 L 312.07 132.97 L 315.85 132.97 L 319.63 132.97 L 323.41 132.97 L 327.19 132.97 L 330.97 132.97 L 334.75 132.97 L 338.53 132.97 L 342.30 132.97 L 346.08 132.97 L 349.86 132.97 L 353.64 132.97 L 357.42 132.97 L 361.20 132.97 L 364.98 132.97 L 368.76 132.97 L 372.53 132.97 L 376.31 132.97 L 380.09 132.97 L 383.87 132.97 L 387.65 132.97 L 391.43 132.97 L 395.21 132.97 L 398.99 132.97 L 402.76 132.97 L 406.54 132.97 L 410.32 132.97 L 414.10 132.97 L 417.88 132.97 L 421.66 132.97 L 425.44 132.97 L 429.22 132.97 L 433.00 132.97 L 436.77 132.97 L 440.55 132.97 L 444.33 132.97 L 448.11 132.97 L 451.89 132.97 L 455.67 132.97 L 459.45 132.97 L 463.23 132.97 L 467.00 132.97 L 470.78 132.97 L 474.56 132.97 L 478.34 132.97 L 482.12 132.97 L 485.90 132.97 L 489.68 132.97 L 493.46 132.97 L 497.24 132.97 L 501.01 132.97 L 504.79 132.97 L 508.57 132.97 L 512.35 132.97 L 516.13 132.97 L 519.91 132.97 L 523.69 132.97 L 527.47 132.97 L 531.24 132.97 L 535.02 132.97 L 538.80 132.97 L 542.58 132.97 L 546.36 132.97 L 550.14 132.97 L 553.92 132.97 L 557.70 132.97 L 561.47 132.97 L 565.25 132.97 L 569.03 132.97 L 572.81 132.97 L 576.59 132.97 L 580.37 132.97 L 584.15 132.97 L 587.93 132.97 L 591.71 132.97 L 595.48 132.97 L 599.26 132.97 L 603.04 132.97 L 606.82 132.97 L 610.60 132.97 L 614.38 132.97 L 618.16 124.51 L 621.94 120.64 L 625.71 116.77 L 629.49 112.90 L 633.27 109.03 L 637.05 105.97 L 640.83 105.97 L 644.61 105.97 L 648.39 105.97 L 652.17 105.97 L 655.94 105.79 L 659.72 103.09 L 663.50 98.41 L 667.28 98.41 L 671.06 98.41 L 674.84 98.41 L 678.62 98.41 L 682.40 98.41 L 686.18 98.41 L 689.95 98.41 L 693.73 98.41 L 697.51 98.41 L 701.29 98.41 L 705.07 98.41 L 708.85 98.41 L 712.63 98.41 L 716.41 98.41 L 720.18 98.41 L 723.96 98.41 L 727.74 98.41 L 731.52 98.41 L 735.30 98.41 L 739.08 98.41 L 742.86 98.41 L 746.64 98.41 L 750.41 98.41 L 754.19 98.41 L 757.97 98.41 L 761.75 98.41 L 765.53 98.41 L 769.31 98.41 L 773.09 98.41 L 776.87 98.41 L 780.65 98.41 L 784.42 98.41 L 788.20 98.41 L 791.98 98.41 L 795.76 98.41 L 799.54 98.41 L 803.32 98.41 L 807.10 98.41 L 810.88 98.41 L 814.65 98.41 L 818.43 98.41 L 822.21 98.41 L 825.99 98.41 L 829.77 98.41 L 833.55 98.41 L 837.33 98.41 L 841.11 98.41 L 844.88 98.41 L 848.66 98.41 L 852.44 98.41 L 856.22 98.41 L 860.00 98.41" fill="none" stroke="#111827" stroke-width="2"/>
    <circle cx="860.00" cy="98.41" r="3" fill="#111827"/>
    <text x="40.00" y="235.00" font-size="9" fill="#111827" text-anchor="middle" transform="rotate(-45 40.00 235.00)">09.08.2025</text><text x="119.35" y="235.00" font-size="9" fill="#111827" text-anchor="middle" transform="rotate(-45 119.35 235.00)">09.08.2025</text><text x="198.71" y="235.00" font-size="9" fill="#111827" text-anchor="middle" transform="rotate(-45 198.71 235.00)">18.08.2025</text><text x="278.06" y="235.00" font-size="9" fill="#111827" text-anchor="middle" transform="rotate(-45 278.06 235.00)">06.09.2025</text><text x="357.42" y="235.00" font-size="9" fill="#111827" text-anchor="middle" transform="rotate(-45 357.42 235.00)">27.09.2025</text><text x="436.77" y="235.00" font-size="9" fill="#111827" text-anchor="middle" transform="rotate(-45 436.77 235.00)">18.10.2025</text><text x="516.13" y="235.00" font-size="9" fill="#111827" text-anchor="middle" transform="rotate(-45 516.13 235.00)">08.11.2025</text><text x="595.48" y="235.00" font-size="9" fill="#111827" text-anchor="middle" transform="rotate(-45 595.48 235.00)">29.11.2025</text><text x="674.84" y="235.00" font-size="9" fill="#111827" text-anchor="middle" transform="rotate(-45 674.84 235.00)">10.12.2025</text><text x="754.19" y="235.00" font-size="9" fill="#111827" text-anchor="middle" transform="rotate(-45 754.19 235.00)">31.12.2025</text><text x="833.55" y="235.00" font-size="9" fill="#111827" text-anchor="middle" transform="rotate(-45 833.55 235.00)">21.01.2026</text>
  </g>
</svg>