<svg xmlns="http://www.w3.org/2000/svg" width="900" height="290" style="font-family: -apple-system, BlinkMacSystemFont, 'Segoe UI', Helvetica, Arial, sans-serif;">
  <rect width="100%" height="100%" fill="#0d1117"/>
  <g>
    <line x1="40" y1="220.00" x2="860" y2="220.00" stroke="#30363d"/><text x="32" y="224.00" font-size="10" fill="#c9d1d9" text-anchor="end">0</text><line x1="40" y1="175.00" x2="860" y2="175.00" stroke="#30363d"/><text x="32" y="179.00" font-size="10" fill="#c9d1d9" text-anchor="end">500</text><line x1="40" y1="130.00" x2="860" y2="130.00" stroke="#30363d"/><text x="32" y="134.00" font-size="10" fill="#c9d1d9" text-anchor="end">1k</text><line x1="40" y1="85.00" x2="860" y2="85.00" stroke="#30363d"/><text x="32" y="89.00" font-size="10" fill="#c9d1d9" text-anchor="end">1.5k</text><line x1="40" y1="40.00" x2="860" y2="40.00" stroke="#30363d"/><text x="32" y="44.00" font-size="10" fill="#c9d1d9" text-anchor="end">2k</text>
    <line x1="40.00" y1="40" x2="40.00" y2="220" stroke="#30363d" opacity="0.5"/><line x1="120.85" y1="40" x2="120.85" y2="220" stroke="#30363d" opacity="0.5"/><line x1="201.69" y1="40" x2="201.69" y2="220" stroke="#30363d" opacity="0.5"/><line x1="282.54" y1="40" x2="282.54" y2="220" stroke="#30363d" opacity="0.5"/><line x1="363.38" y1="40" x2="363.38" y2="220" stroke="#30363d" opacity="0.5"/><line x1="444.23" y1="40" x2="444.23" y2="220" stroke="#30363d" opacity="0.5"/><line x1="525.07" y1="40" x2="525.07" y2="220" stroke="#30363d" opacity="0.5"/><line x1="605.92" y1="40" x2="605.92" y2="220" stroke="#30363d" opacity="0.5"/><line x1="686.76" y1="40" x2="686.76" y2="220" stroke="#30363d" opacity="0.5"/><line x1="767.61" y1="40" x2="767.61" y2="220" stroke="#30363d" opacity="0.5"/><line x1="848.45" y1="40" x2="848.45" y2="220" stroke="#30363d" opacity="0.5"/>
    <line x1="40" y1="220" x2="860" y2="220" stroke="#30363d"/>
    <line x1="40" y1="40"   x2="40"   y2="220" stroke="#30363d"/>
    <path d="M 40.00 219.82 L 45.77 214.15 L 51.55 214.06 L 57.32 214.06 L 63.10 213.25 L 68.87 213.25 L 74.65 204.88 L 80.42 185.98 L 86.20 185.98 L 91.97 180.94 L 97.75 152.59 L 103.52 159.97 L 109.30 158.89 L 115.07 158.17 L 120.85 139.63 L 126.62 139.63 L 132.39 157.18 L 138.17 154.66 L 143.94 154.39 L 149.72 151.60 L 155.49 150.97 L 161.27 150.70 L 167.04 149.80 L 172.82 149.80 L 178.59 147.46 L 184.37 144.94 L 190.14 144.76 L 195.92 140.71 L 201.69 134.23 L 207.46 134.23 L 213.24 133.69 L 219.01 133.69 L 224.79 133.69 L 230.56 133.69 L 236.34 133.69 L 242.11 133.69 L 247.89 132.97 L 253.66 132.97 L 259.44 132.97 L 265.21 132.97 L 270.99 132.97 L 276.76 132.97 L 282.54 132.97 L 288.31 132.97 L 294.08 132.97 L 299.86 132.97 L 305.63 132.97 L 311.41 132.97 L 317.18 132.97 L 322.96 132.97 L 328.73 132.97 L 334.51 132.97 L 340.28 132.97 L 346.06 132.97 L 351.83 132.97 L 357.61 132.97 L 363.38 132.97 L 369.15 132.97 L 374.93 132.97 L 380.70 132.97 L 386.48 132.97 L 392.25 132.97 L 398.03 132.97 L 403.80 132.97 L 409.58 132.97 L 415.35 132.97 L 421.13 132.97 L 426.90 132.97 L 432.68 132.97 L 438.45 132.97 L 444.23 132.97 L 450.00 132.97 L 455.77 132.97 L 461.55 132.97 L 467.32 132.97 L 473.10 132.97 L 478.87 132.97 L 484.65 132.97 L 490.42 132.97 L 496.20 132.97 L 501.97 132.97 L 507.75 132.97 L 513.52 132.97 L 519.30 132.97 L 525.07 132.97 L 530.85 132.97 L 536.62 132.97 L 542.39 132.97 L 548.17 132.97 L 553.94 132.97 L 559.72 132.97 L 565.49 132.97 L 571.27 132.97 L 577.04 132.97 L 582.82 132.97 L 588.59 132.97 L 594.37 132.97 L 600.14 132.97 L 605.92 132.97 L 611.69 132.97 L 617.46 132.97 L 623.24 132.97 L 629.01 132.97 L 634.79 132.97 L 640.56 132.97 L 646.34 132.97 L 652.11 132.97 L 657.89 132.97 L 663.66 132.97 L 669.44 132.97 L 675.21 132.97 L 680.99 132.97 L 686.76 132.97 L 692.54 132.97 L 698.31 132.97 L 704.08 132.97 L 709.86 132.97 L 715.63 132.97 L 721.41 132.97 L 727.18 132.97 L 732.96 132.97 L 738.73 132.97 L 744.51 132.97 L 750.28 132.97 L 756.06 132.97 L 761.83 132.97 L 767.61 132.97 L 773.38 132.97 L 779.15 132.97 L 784.93 132.97 L 790.70 132.97 L 796.48 132.97 L 802.25 132.97 L 808.03 132.97 L 813.80 132.97 L 819.58 132.97 L 825.35 132.97 L 831.13 132.97 L 836.90 132.97 L 842.68 132.97 L 848.45 132.97 L 854.23 132.97 L 860.00 132.97" fill="none" stroke="#3fb950" stroke-width="2"/>
    <circle cx="860.00" cy="132.97" r="3" fill="#3fb950"/>
    <text x="40.00" y="235.00" font-size="9" fill="#c9d1d9" text-anchor="middle" transform="rotate(-45 40.00 235.00)">09.08.2025</text><text x="120.85" y="235.00" font-size="9" fill="#c9d1d9" text-anchor="middle" transform="rotate(-45 120.85 235.00)">09.08.2025</text><text x="201.69" y="235.00" font-size="9" fill="#c9d1d9" text-anchor="middle" transform="rotate(-45 201.69 235.00)">13.08.2025</text><text x="282.54" y="235.00" font-size="9" fill="#c9d1d9" text-anchor="middle" transform="rotate(-45 282.54 235.00)">18.08.2025</text><text x="363.38" y="235.00" font-size="9" fill="#c9d1d9" text-anchor="middle" transform="rotate(-45 363.38 235.00)">30.08.2025</text><text x="444.23" y="235.00" font-size="9" fill="#c9d1d9" text-anchor="middle" transform="rotate(-45 444.23 235.00)">13.09.2025</text><text x="525.07" y="235.00" font-size="9" fill="#c9d1d9" text-anchor="middle" transform="rotate(-45 525.07 235.00)">27.09.2025</text><text x="605.92" y="235.00" font-size="9" fill="#c9d1d9" text-anchor="middle" transform="rotate(-45 605.92 235.00)">11.10.2025</text><text x="686.76" y="235.00" font-size="9" fill="#c9d1d9" text-anchor="middle" transform="rotate(-45 686.76 235.00)">25.10.2025</text><text x="767.61" y="235.00" font-size="9" fill="#c9d1d9" text-anchor="middle" transform="rotate(-45 767.61 235.00)">08.11.2025</text><text x="848.45" y="235.00" font-size="9" fill="#c9d1d9" text-anchor="middle" transform="rotate(-45 848.45 235.00)">22.11.2025</text>
  </g>
</svg>