<svg xmlns="http://www.w3.org/2000/svg" width="900" height="290" style="font-family: -apple-system, BlinkMacSystemFont, 'Segoe UI', Helvetica, Arial, sans-serif;">
  <rect width="100%" height="100%" fill="#0d1117"/>
  <g>
    <line x1="40" y1="220.00" x2="860" y2="220.00" stroke="#30363d"/><text x="32" y="224.00" font-size="10" fill="#c9d1d9" text-anchor="end">0</text><line x1="40" y1="175.00" x2="860" y2="175.00" stroke="#30363d"/><text x="32" y="179.00" font-size="10" fill="#c9d1d9" text-anchor="end">500</text><line x1="40" y1="130.00" x2="860" y2="130.00" stroke="#30363d"/><text x="32" y="134.00" font-size="10" fill="#c9d1d9" text-anchor="end">1k</text><line x1="40" y1="85.00" x2="860" y2="85.00" stroke="#30363d"/><text x="32" y="89.00" font-size="10" fill="#c9d1d9" text-anchor="end">1.5k</text><line x1="40" y1="40.00" x2="860" y2="40.00" stroke="#30363d"/><text x="32" y="44.00" font-size="10" fill="#c9d1d9" text-anchor="end">2k</text>
    <line x1="40.00" y1="40" x2="40.00" y2="220" stroke="#30363d" opacity="0.5"/><line x1="121.55" y1="40" x2="121.55" y2="220" stroke="#30363d" opacity="0.5"/><line x1="203.09" y1="40" x2="203.09" y2="220" stroke="#30363d" opacity="0.5"/><line x1="284.64" y1="40" x2="284.64" y2="220" stroke="#30363d" opacity="0.5"/><line x1="366.19" y1="40" x2="366.19" y2="220" stroke="#30363d" opacity="0.5"/><line x1="447.73" y1="40" x2="447.73" y2="220" stroke="#30363d" opacity="0.5"/><line x1="529.28" y1="40" x2="529.28" y2="220" stroke="#30363d" opacity="0.5"/><line x1="610.83" y1="40" x2="610.83" y2="220" stroke="#30363d" opacity="0.5"/><line x1="692.38" y1="40" x2="692.38" y2="220" stroke="#30363d" opacity="0.5"/><line x1="773.92" y1="40" x2="773.92" y2="220" stroke="#30363d" opacity="0.5"/><line x1="855.47" y1="40" x2="855.47" y2="220" stroke="#30363d" opacity="0.5"/>
    <line x1="40" y1="220" x2="860" y2="220" stroke="#30363d"/>
    <line x1="40" y1="40"   x2="40"   y2="220" stroke="#30363d"/>
    <path d="M 40.00 219.82 L 44.53 214.15 L 49.06 214.06 L 53.59 214.06 L 58.12 213.25 L 62.65 213.25 L 67.18 204.88 L 71.71 185.98 L 76.24 185.98 L 80.77 180.94 L 85.30 152.59 L 89.83 159.97 L 94.36 158.89 L 98.90 158.17 L 103.43 139.63 L 107.96 139.63 L 112.49 157.18 L 117.02 154.66 L 121.55 154.39 L 126.08 151.60 L 130.61 150.97 L 135.14 150.70 L 139.67 149.80 L 144.20 149.80 L 148.73 147.46 L 153.26 144.94 L 157.79 144.76 L 162.32 140.71 L 166.85 134.23 L 171.38 134.23 L 175.91 133.69 L 180.44 133.69 L 184.97 133.69 L 189.50 133.69 L 194.03 133.69 L 198.56 133.69 L 203.09 132.97 L 207.62 132.97 L 212.15 132.97 L 216.69 132.97 L 221.22 132.97 L 225.75 132.97 L 230.28 132.97 L 234.81 132.97 L 239.34 132.97 L 243.87 132.97 L 248.40 132.97 L 252.93 132.97 L 257.46 132.97 L 261.99 132.97 L 266.52 132.97 L 271.05 132.97 L 275.58 132.97 L 280.11 132.97 L 284.64 132.97 L 289.17 132.97 L 293.70 132.97 L 298.23 132.97 L 302.76 132.97 L 307.29 132.97 L 311.82 132.97 L 316.35 132.97 L 320.88 132.97 L 325.41 132.97 L 329.94 132.97 L 334.48 132.97 L 339.01 132.97 L 343.54 132.97 L 348.07 132.97 L 352.60 132.97 L 357.13 132.97 L 361.66 132.97 L 366.19 132.97 L 370.72 132.97 L 375.25 132.97 L 379.78 132.97 L 384.31 132.97 L 388.84 132.97 L 393.37 132.97 L 397.90 132.97 L 402.43 132.97 L 406.96 132.97 L 411.49 132.97 L 416.02 132.97 L 420.55 132.97 L 425.08 132.97 L 429.61 132.97 L 434.14 132.97 L 438.67 132.97 L 443.20 132.97 L 447.73 132.97 L 452.27 132.97 L 456.80 132.97 L 461.33 132.97 L 465.86 132.97 L 470.39 132.97 L 474.92 132.97 L 479.45 132.97 L 483.98 132.97 L 488.51 132.97 L 493.04 132.97 L 497.57 132.97 L 502.10 132.97 L 506.63 132.97 L 511.16 132.97 L 515.69 132.97 L 520.22 132.97 L 524.75 132.97 L 529.28 132.97 L 533.81 132.97 L 538.34 132.97 L 542.87 132.97 L 547.40 132.97 L 551.93 132.97 L 556.46 132.97 L 560.99 132.97 L 565.52 132.97 L 570.06 132.97 L 574.59 132.97 L 579.12 132.97 L 583.65 132.97 L 588.18 132.97 L 592.71 132.97 L 597.24 132.97 L 601.77 132.97 L 606.30 132.97 L 610.83 132.97 L 615.36 132.97 L 619.89 132.97 L 624.42 132.97 L 628.95 132.97 L 633.48 132.97 L 638.01 132.97 L 642.54 132.97 L 647.07 132.97 L 651.60 132.97 L 656.13 132.97 L 660.66 132.97 L 665.19 132.97 L 669.72 132.97 L 674.25 132.97 L 678.78 132.97 L 683.31 132.97 L 687.85 132.97 L 692.38 132.97 L 696.91 132.97 L 701.44 132.97 L 705.97 132.97 L 710.50 132.97 L 715.03 132.97 L 719.56 132.97 L 724.09 132.97 L 728.62 132.97 L 733.15 124.51 L 737.68 120.64 L 742.21 116.77 L 746.74 112.90 L 751.27 109.03 L 755.80 105.97 L 760.33 105.97 L 764.86 105.97 L 769.39 105.97 L 773.92 105.97 L 778.45 105.79 L 782.98 103.09 L 787.51 98.41 L 792.04 98.41 L 796.57 98.41 L 801.10 98.41 L 805.64 98.41 L 810.17 98.41 L 814.70 98.41 L 819.23 98.41 L 823.76 98.41 L 828.29 98.41 L 832.82 98.41 L 837.35 98.41 L 841.88 98.41 L 846.41 98.41 L 850.94 98.41 L 855.47 98.41 L 860.00 98.41" fill="none" stroke="#3fb950" stroke-width="2"/>
    <circle cx="860.00" cy="98.41" r="3" fill="#3fb950"/>
    <text x="40.00" y="235.00" font-size="9" fill="#c9d1d9" text-anchor="middle" transform="rotate(-45 40.00 235.00)">09.08.2025</text><text x="121.55" y="235.00" font-size="9" fill="#c9d1d9" text-anchor="middle" transform="rotate(-45 121.55 235.00)">09.08.2025</text><text x="203.09" y="235.00" font-size="9" fill="#c9d1d9" text-anchor="middle" transform="rotate(-45 203.09 235.00)">13.08.2025</text><text x="284.64" y="235.00" font-size="9" fill="#c9d1d9" text-anchor="middle" transform="rotate(-45 284.64 235.00)">28.08.2025</text><text x="366.19" y="235.00" font-size="9" fill="#c9d1d9" text-anchor="middle" transform="rotate(-45 366.19 235.00)">15.09.2025</text><text x="447.73" y="235.00" font-size="9" fill="#c9d1d9" text-anchor="middle" transform="rotate(-45 447.73 235.00)">03.10.2025</text><text x="529.28" y="235.00" font-size="9" fill="#c9d1d9" text-anchor="middle" transform="rotate(-45 529.28 235.00)">21.10.2025</text><text x="610.83" y="235.00" font-size="9" fill="#c9d1d9" text-anchor="middle" transform="rotate(-45 610.83 235.00)">08.11.2025</text><text x="692.38" y="235.00" font-size="9" fill="#c9d1d9" text-anchor="middle" transform="rotate(-45 692.38 235.00)">26.11.2025</text><text x="773.92" y="235.00" font-size="9" fill="#c9d1d9" text-anchor="middle" transform="rotate(-45 773.92 235.00)">07.12.2025</text><text x="855.47" y="235.00" font-size="9" fill="#c9d1d9" text-anchor="middle" transform="rotate(-45 855.47 235.00)">22.12.2025</text>
  </g>
</svg>