<svg xmlns="http://www.w3.org/2000/svg" width="900" height="290" style="font-family: -apple-system, BlinkMacSystemFont, 'Segoe UI', Helvetica, Arial, sans-serif;">
  <rect width="100%" height="100%" fill="#0d1117"/>
  <g>
    <line x1="40" y1="220.00" x2="860" y2="220.00" stroke="#30363d"/><text x="32" y="224.00" font-size="10" fill="#c9d1d9" text-anchor="end">0</text><line x1="40" y1="175.00" x2="860" y2="175.00" stroke="#30363d"/><text x="32" y="179.00" font-size="10" fill="#c9d1d9" text-anchor="end">500</text><line x1="40" y1="130.00" x2="860" y2="130.00" stroke="#30363d"/><text x="32" y="134.00" font-size="10" fill="#c9d1d9" text-anchor="end">1k</text><line x1="40" y1="85.00" x2="860" y2="85.00" stroke="#30363d"/><text x="32" y="89.00" font-size="10" fill="#c9d1d9" text-anchor="end">1.5k</text><line x1="40" y1="40.00" x2="860" y2="40.00" stroke="#30363d"/><text x="32" y="44.00" font-size="10" fill="#c9d1d9" text-anchor="end">2k</text>
    <line x1="40.00" y1="40" x2="40.00" y2="220" stroke="#30363d" opacity="0.5"/><line x1="120.09" y1="40" x2="120.09" y2="220" stroke="#30363d" opacity="0.5"/><line x1="200.19" y1="40" x2="200.19" y2="220" stroke="#30363d" opacity="0.5"/><line x1="280.28" y1="40" x2="280.28" y2="220" stroke="#30363d" opacity="0.5"/><line x1="360.37" y1="40" x2="360.37" y2="220" stroke="#30363d" opacity="0.5"/><line x1="440.47" y1="40" x2="440.47" y2="220" stroke="#30363d" opacity="0.5"/><line x1="520.56" y1="40" x2="520.56" y2="220" stroke="#30363d" opacity="0.5"/><line x1="600.65" y1="40" x2="600.65" y2="220" stroke="#30363d" opacity="0.5"/><line x1="680.74" y1="40" x2="680.74" y2="220" stroke="#30363d" opacity="0.5"/><line x1="760.84" y1="40" x2="760.84" y2="220" stroke="#30363d" opacity="0.5"/><line x1="840.93" y1="40" x2="840.93" y2="220" stroke="#30363d" opacity="0.5"/>
    <line x1="40" y1="220" x2="860" y2="220" stroke="#30363d"/>
    <line x1="40" y1="40"   x2="40"   y2="220" stroke="#30363d"/>
    <path d="M 40.00 219.82 L 43.81 214.15 L 47.63 214.06 L 51.44 214.06 L 55.26 213.25 L 59.07 213.25 L 62.88 204.88 L 66.70 185.98 L 70.51 185.98 L 74.33 180.94 L 78.14 152.59 L 81.95 159.97 L 85.77 158.89 L 89.58 158.17 L 93.40 139.63 L 97.21 139.63 L 101.02 157.18 L 104.84 154.66 L 108.65 154.39 L 112.47 151.60 L 116.28 150.97 L 120.09 150.70 L 123.91 149.80 L 127.72 149.80 L 131.53 147.46 L 135.35 144.94 L 139.16 144.76 L 142.98 140.71 L 146.79 134.23 L 150.60 134.23 L 154.42 133.69 L 158.23 133.69 L 162.05 133.69 L 165.86 133.69 L 169.67 133.69 L 173.49 133.69 L 177.30 132.97 L 181.12 132.97 L 184.93 132.97 L 188.74 132.97 L 192.56 132.97 L 196.37 132.97 L 200.19 132.97 L 204.00 132.97 L 207.81 132.97 L 211.63 132.97 L 215.44 132.97 L 219.26 132.97 L 223.07 132.97 L 226.88 132.97 L 230.70 132.97 L 234.51 132.97 L 238.33 132.97 L 242.14 132.97 L 245.95 132.97 L 249.77 132.97 L 253.58 132.97 L 257.40 132.97 L 261.21 132.97 L 265.02 132.97 L 268.84 132.97 L 272.65 132.97 L 276.47 132.97 L 280.28 132.97 L 284.09 132.97 L 287.91 132.97 L 291.72 132.97 L 295.53 132.97 L 299.35 132.97 L 303.16 132.97 L 306.98 132.97 L 310.79 132.97 L 314.60 132.97 L 318.42 132.97 L 322.23 132.97 L 326.05 132.97 L 329.86 132.97 L 333.67 132.97 L 337.49 132.97 L 341.30 132.97 L 345.12 132.97 L 348.93 132.97 L 352.74 132.97 L 356.56 132.97 L 360.37 132.97 L 364.19 132.97 L 368.00 132.97 L 371.81 132.97 L 375.63 132.97 L 379.44 132.97 L 383.26 132.97 L 387.07 132.97 L 390.88 132.97 L 394.70 132.97 L 398.51 132.97 L 402.33 132.97 L 406.14 132.97 L 409.95 132.97 L 413.77 132.97 L 417.58 132.97 L 421.40 132.97 L 425.21 132.97 L 429.02 132.97 L 432.84 132.97 L 436.65 132.97 L 440.47 132.97 L 444.28 132.97 L 448.09 132.97 L 451.91 132.97 L 455.72 132.97 L 459.53 132.97 L 463.35 132.97 L 467.16 132.97 L 470.98 132.97 L 474.79 132.97 L 478.60 132.97 L 482.42 132.97 L 486.23 132.97 L 490.05 132.97 L 493.86 132.97 L 497.67 132.97 L 501.49 132.97 L 505.30 132.97 L 509.12 132.97 L 512.93 132.97 L 516.74 132.97 L 520.56 132.97 L 524.37 132.97 L 528.19 132.97 L 532.00 132.97 L 535.81 132.97 L 539.63 132.97 L 543.44 132.97 L 547.26 132.97 L 551.07 132.97 L 554.88 132.97 L 558.70 132.97 L 562.51 132.97 L 566.33 132.97 L 570.14 132.97 L 573.95 132.97 L 577.77 132.97 L 581.58 132.97 L 585.40 132.97 L 589.21 132.97 L 593.02 132.97 L 596.84 132.97 L 600.65 132.97 L 604.47 132.97 L 608.28 132.97 L 612.09 132.97 L 615.91 132.97 L 619.72 132.97 L 623.53 124.51 L 627.35 120.64 L 631.16 116.77 L 634.98 112.90 L 638.79 109.03 L 642.60 105.97 L 646.42 105.97 L 650.23 105.97 L 654.05 105.97 L 657.86 105.97 L 661.67 105.79 L 665.49 103.09 L 669.30 98.41 L 673.12 98.41 L 676.93 98.41 L 680.74 98.41 L 684.56 98.41 L 688.37 98.41 L 692.19 98.41 L 696.00 98.41 L 699.81 98.41 L 703.63 98.41 L 707.44 98.41 L 711.26 98.41 L 715.07 98.41 L 718.88 98.41 L 722.70 98.41 L 726.51 98.41 L 730.33 98.41 L 734.14 98.41 L 737.95 98.41 L 741.77 98.41 L 745.58 98.41 L 749.40 98.41 L 753.21 98.41 L 757.02 98.41 L 760.84 98.41 L 764.65 98.41 L 768.47 98.41 L 772.28 98.41 L 776.09 98.41 L 779.91 98.41 L 783.72 98.41 L 787.53 98.41 L 791.35 98.41 L 795.16 98.41 L 798.98 98.41 L 802.79 98.41 L 806.60 98.41 L 810.42 98.41 L 814.23 98.41 L 818.05 98.41 L 821.86 98.41 L 825.67 98.41 L 829.49 98.41 L 833.30 98.41 L 837.12 98.41 L 840.93 98.41 L 844.74 98.41 L 848.56 98.41 L 852.37 98.41 L 856.19 98.41 L 860.00 98.41" fill="none" stroke="#3fb950" stroke-width="2"/>
    <circle cx="860.00" cy="98.41" r="3" fill="#3fb950"/>
    <text x="40.00" y="235.00" font-size="9" fill="#c9d1d9" text-anchor="middle" transform="rotate(-45 40.00 235.00)">09.08.2025</text><text x="120.09" y="235.00" font-size="9" fill="#c9d1d9" text-anchor="middle" transform="rotate(-45 120.09 235.00)">09.08.2025</text><text x="200.19" y="235.00" font-size="9" fill="#c9d1d9" text-anchor="middle" transform="rotate(-45 200.19 235.00)">18.08.2025</text><text x="280.28" y="235.00" font-size="9" fill="#c9d1d9" text-anchor="middle" transform="rotate(-45 280.28 235.00)">06.09.2025</text><text x="360.37" y="235.00" font-size="9" fill="#c9d1d9" text-anchor="middle" transform="rotate(-45 360.37 235.00)">27.09.2025</text><text x="440.47" y="235.00" font-size="9" fill="#c9d1d9" text-anchor="middle" transform="rotate(-45 440.47 235.00)">18.10.2025</text><text x="520.56" y="235.00" font-size="9" fill="#c9d1d9" text-anchor="middle" transform="rotate(-45 520.56 235.00)">08.11.2025</text><text x="600.65" y="235.00" font-size="9" fill="#c9d1d9" text-anchor="middle" transform="rotate(-45 600.65 235.00)">29.11.2025</text><text x="680.74" y="235.00" font-size="9" fill="#c9d1d9" text-anchor="middle" transform="rotate(-45 680.74 235.00)">10.12.2025</text><text x="760.84" y="235.00" font-size="9" fill="#c9d1d9" text-anchor="middle" transform="rotate(-45 760.84 235.00)">31.12.2025</text><text x="840.93" y="235.00" font-size="9" fill="#c9d1d9" text-anchor="middle" transform="rotate(-45 840.93 235.00)">21.01.2026</text>
  </g>
</svg>