<svg xmlns="http://www.w3.org/2000/svg" width="900" height="290" style="font-family: -apple-system, BlinkMacSystemFont, 'Segoe UI', Helvetica, Arial, sans-serif;">
  <rect width="100%" height="100%" fill="white"/>
  <g>
    <line x1="40" y1="220.00" x2="860" y2="220.00" stroke="#e5e7eb"/><text x="32" y="224.00" font-size="10" fill="#111827" text-anchor="end">0</text><line x1="40" y1="175.00" x2="860" y2="175.00" stroke="#e5e7eb"/><text x="32" y="179.00" font-size="10" fill="#111827" text-anchor="end">500</text><line x1="40" y1="130.00" x2="860" y2="130.00" stroke="#e5e7eb"/><text x="32" y="134.00" font-size="10" fill="#111827" text-anchor="end">1k</text><line x1="40" y1="85.00" x2="860" y2="85.00" stroke="#e5e7eb"/><text x="32" y="89.00" font-size="10" fill="#111827" text-anchor="end">1.5k</text><line x1="40" y1="40.00" x2="860" y2="40.00" stroke="#e5e7eb"/><text x="32" y="44.00" font-size="10" fill="#111827" text-anchor="end">2k</text>
    <line x1="40.00" y1="40" x2="40.00" y2="220" stroke="#e5e7eb" opacity="0.5"/><line x1="120.90" y1="40" x2="120.90" y2="220" stroke="#e5e7eb" opacity="0.5"/><line x1="201.79" y1="40" x2="201.79" y2="220" stroke="#e5e7eb" opacity="0.5"/><line x1="282.69" y1="40" x2="282.69" y2="220" stroke="#e5e7eb" opacity="0.5"/><line x1="363.59" y1="40" x2="363.59" y2="220" stroke="#e5e7eb" opacity="0.5"/><line x1="444.48" y1="40" x2="444.48" y2="220" stroke="#e5e7eb" opacity="0.5"/><line x1="525.38" y1="40" x2="525.38" y2="220" stroke="#e5e7eb" opacity="0.5"/><line x1="606.28" y1="40" x2="606.28" y2="220" stroke="#e5e7eb" opacity="0.5"/><line x1="687.17" y1="40" x2="687.17" y2="220" stroke="#e5e7eb" opacity="0.5"/><line x1="768.07" y1="40" x2="768.07" y2="220" stroke="#e5e7eb" opacity="0.5"/><line x1="848.97" y1="40" x2="848.97" y2="220" stroke="#e5e7eb" opacity="0.5"/>
    <line x1="40" y1="220" x2="860" y2="220" stroke="#9ca3af"/>
    <line x1="40" y1="40"   x2="40"   y2="220" stroke="#9ca3af"/>
    <path d="M 40.00 219.82 L 43.68 214.15 L 47.35 214.06 L 51.03 214.06 L 54.71 213.25 L 58.39 213.25 L 62.06 204.88 L 65.74 185.98 L 69.42 185.98 L 73.09 180.94 L 76.77 152.59 L 80.45 159.97 L 84.13 158.89 L 87.80 158.17 L 91.48 139.63 L 95.16 139.63 L 98.83 157.18 L 102.51 154.66 L 106.19 154.39 L 109.87 151.60 L 113.54 150.97 L 117.22 150.70 L 120.90 149.80 L 124.57 149.80 L 128.25 147.46 L 131.93 144.94 L 135.61 144.76 L 139.28 140.71 L 142.96 134.23 L 146.64 134.23 L 150.31 133.69 L 153.99 133.69 L 157.67 133.69 L 161.35 133.69 L 165.02 133.69 L 168.70 133.69 L 172.38 132.97 L 176.05 132.97 L 179.73 132.97 L 183.41 132.97 L 187.09 132.97 L 190.76 132.97 L 194.44 132.97 L 198.12 132.97 L 201.79 132.97 L 205.47 132.97 L 209.15 132.97 L 212.83 132.97 L 216.50 132.97 L 220.18 132.97 L 223.86 132.97 L 227.53 132.97 L 231.21 132.97 L 234.89 132.97 L 238.57 132.97 L 242.24 132.97 L 245.92 132.97 L 249.60 132.97 L 253.27 132.97 L 256.95 132.97 L 260.63 132.97 L 264.30 132.97 L 267.98 132.97 L 271.66 132.97 L 275.34 132.97 L 279.01 132.97 L 282.69 132.97 L 286.37 132.97 L 290.04 132.97 L 293.72 132.97 L 297.40 132.97 L 301.08 132.97 L 304.75 132.97 L 308.43 132.97 L 312.11 132.97 L 315.78 132.97 L 319.46 132.97 L 323.14 132.97 L 326.82 132.97 L 330.49 132.97 L 334.17 132.97 L 337.85 132.97 L 341.52 132.97 L 345.20 132.97 L 348.88 132.97 L 352.56 132.97 L 356.23 132.97 L 359.91 132.97 L 363.59 132.97 L 367.26 132.97 L 370.94 132.97 L 374.62 132.97 L 378.30 132.97 L 381.97 132.97 L 385.65 132.97 L 389.33 132.97 L 393.00 132.97 L 396.68 132.97 L 400.36 132.97 L 404.04 132.97 L 407.71 132.97 L 411.39 132.97 L 415.07 132.97 L 418.74 132.97 L 422.42 132.97 L 426.10 132.97 L 429.78 132.97 L 433.45 132.97 L 437.13 132.97 L 440.81 132.97 L 444.48 132.97 L 448.16 132.97 L 451.84 132.97 L 455.52 132.97 L 459.19 132.97 L 462.87 132.97 L 466.55 132.97 L 470.22 132.97 L 473.90 132.97 L 477.58 132.97 L 481.26 132.97 L 484.93 132.97 L 488.61 132.97 L 492.29 132.97 L 495.96 132.97 L 499.64 132.97 L 503.32 132.97 L 507.00 132.97 L 510.67 132.97 L 514.35 132.97 L 518.03 132.97 L 521.70 132.97 L 525.38 132.97 L 529.06 132.97 L 532.74 132.97 L 536.41 132.97 L 540.09 132.97 L 543.77 132.97 L 547.44 132.97 L 551.12 132.97 L 554.80 132.97 L 558.48 132.97 L 562.15 132.97 L 565.83 132.97 L 569.51 132.97 L 573.18 132.97 L 576.86 132.97 L 580.54 132.97 L 584.22 132.97 L 587.89 132.97 L 591.57 132.97 L 595.25 132.97 L 598.92 132.97 L 602.60 124.51 L 606.28 120.64 L 609.96 116.77 L 613.63 112.90 L 617.31 109.03 L 620.99 105.97 L 624.66 105.97 L 628.34 105.97 L 632.02 105.97 L 635.70 105.97 L 639.37 105.79 L 643.05 103.09 L 646.73 98.41 L 650.40 98.41 L 654.08 98.41 L 657.76 98.41 L 661.43 98.41 L 665.11 98.41 L 668.79 98.41 L 672.47 98.41 L 676.14 98.41 L 679.82 98.41 L 683.50 98.41 L 687.17 98.41 L 690.85 98.41 L 694.53 98.41 L 698.21 98.41 L 701.88 98.41 L 705.56 98.41 L 709.24 98.41 L 712.91 98.41 L 716.59 98.41 L 720.27 98.41 L 723.95 98.41 L 727.62 98.41 L 731.30 98.41 L 734.98 98.41 L 738.65 98.41 L 742.33 98.41 L 746.01 98.41 L 749.69 98.41 L 753.36 98.41 L 757.04 98.41 L 760.72 98.41 L 764.39 98.41 L 768.07 98.41 L 771.75 98.41 L 775.43 98.41 L 779.10 98.41 L 782.78 98.41 L 786.46 98.41 L 790.13 98.41 L 793.81 98.41 L 797.49 98.41 L 801.17 98.41 L 804.84 98.41 L 808.52 98.41 L 812.20 98.41 L 815.87 98.41 L 819.55 98.41 L 823.23 98.41 L 826.91 98.41 L 830.58 98.41 L 834.26 98.41 L 837.94 98.41 L 841.61 98.41 L 845.29 98.41 L 848.97 98.41 L 852.65 98.41 L 856.32 98.41 L 860.00 98.41" fill="none" stroke="#111827" stroke-width="2"/>
    <circle cx="860.00" cy="98.41" r="3" fill="#111827"/>
    <text x="40.00" y="235.00" font-size="9" fill="#111827" text-anchor="middle" transform="rotate(-45 40.00 235.00)">09.08.2025</text><text x="120.90" y="235.00" font-size="9" fill="#111827" text-anchor="middle" transform="rotate(-45 120.90 235.00)">09.08.2025</text><text x="201.79" y="235.00" font-size="9" fill="#111827" text-anchor="middle" transform="rotate(-45 201.79 235.00)">20.08.2025</text><text x="282.69" y="235.00" font-size="9" fill="#111827" text-anchor="middle" transform="rotate(-45 282.69 235.00)">09.09.2025</text><text x="363.59" y="235.00" font-size="9" fill="#111827" text-anchor="middle" transform="rotate(-45 363.59 235.00)">01.10.2025</text><text x="444.48" y="235.00" font-size="9" fill="#111827" text-anchor="middle" transform="rotate(-45 444.48 235.00)">23.10.2025</text><text x="525.38" y="235.00" font-size="9" fill="#111827" text-anchor="middle" transform="rotate(-45 525.38 235.00)">14.11.2025</text><text x="606.28" y="235.00" font-size="9" fill="#111827" text-anchor="middle" transform="rotate(-45 606.28 235.00)">04.12.2025</text><text x="687.17" y="235.00" font-size="9" fill="#111827" text-anchor="middle" transform="rotate(-45 687.17 235.00)">18.12.2025</text><text x="768.07" y="235.00" font-size="9" fill="#111827" text-anchor="middle" transform="rotate(-45 768.07 235.00)">09.01.2026</text><text x="848.97" y="235.00" font-size="9" fill="#111827" text-anchor="middle" transform="rotate(-45 848.97 235.00)">31.01.2026</text>
  </g>
</svg>