<svg xmlns="http://www.w3.org/2000/svg" width="900" height="290" style="font-family: -apple-system, BlinkMacSystemFont, 'Segoe UI', Helvetica, Arial, sans-serif;">
  <rect width="100%" height="100%" fill="#0d1117"/>
  <g>
    <line x1="40" y1="220.00" x2="860" y2="220.00" stroke="#30363d"/><text x="32" y="224.00" font-size="10" fill="#c9d1d9" text-anchor="end">0</text><line x1="40" y1="175.00" x2="860" y2="175.00" stroke="#30363d"/><text x="32" y="179.00" font-size="10" fill="#c9d1d9" text-anchor="end">500</text><line x1="40" y1="130.00" x2="860" y2="130.00" stroke="#30363d"/><text x="32" y="134.00" font-size="10" fill="#c9d1d9" text-anchor="end">1k</text><line x1="40" y1="85.00" x2="860" y2="85.00" stroke="#30363d"/><text x="32" y="89.00" font-size="10" fill="#c9d1d9" text-anchor="end">1.5k</text><line x1="40" y1="40.00" x2="860" y2="40.00" stroke="#30363d"/><text x="32" y="44.00" font-size="10" fill="#c9d1d9" text-anchor="end">2k</text>
    <line x1="40.00" y1="40" x2="40.00" y2="220" stroke="#30363d" opacity="0.5"/><line x1="113.59" y1="40" x2="113.59" y2="220" stroke="#30363d" opacity="0.5"/><line x1="187.18" y1="40" x2="187.18" y2="220" stroke="#30363d" opacity="0.5"/><line x1="260.77" y1="40" x2="260.77" y2="220" stroke="#30363d" opacity="0.5"/><line x1="334.36" y1="40" x2="334.36" y2="220" stroke="#30363d" opacity="0.5"/><line x1="407.95" y1="40" x2="407.95" y2="220" stroke="#30363d" opacity="0.5"/><line x1="481.54" y1="40" x2="481.54" y2="220" stroke="#30363d" opacity="0.5"/><line x1="555.13" y1="40" x2="555.13" y2="220" stroke="#30363d" opacity="0.5"/><line x1="628.72" y1="40" x2="628.72" y2="220" stroke="#30363d" opacity="0.5"/><line x1="702.31" y1="40" x2="702.31" y2="220" stroke="#30363d" opacity="0.5"/><line x1="775.90" y1="40" x2="775.90" y2="220" stroke="#30363d" opacity="0.5"/><line x1="849.49" y1="40" x2="849.49" y2="220" stroke="#30363d" opacity="0.5"/>
    <line x1="40" y1="220" x2="860" y2="220" stroke="#30363d"/>
    <line x1="40" y1="40"   x2="40"   y2="220" stroke="#30363d"/>
    <path d="M 40.00 219.82 L 50.51 214.15 L 61.03 214.06 L 71.54 214.06 L 82.05 213.25 L 92.56 213.25 L 103.08 204.88 L 113.59 185.98 L 124.10 185.98 L 134.62 180.94 L 145.13 152.59 L 155.64 159.97 L 166.15 158.89 L 176.67 158.17 L 187.18 139.63 L 197.69 139.63 L 208.21 157.18 L 218.72 154.66 L 229.23 154.39 L 239.74 151.60 L 250.26 150.97 L 260.77 150.70 L 271.28 149.80 L 281.79 149.80 L 292.31 147.46 L 302.82 144.94 L 313.33 144.76 L 323.85 140.71 L 334.36 134.23 L 344.87 134.23 L 355.38 133.69 L 365.90 133.69 L 376.41 133.69 L 386.92 133.69 L 397.44 133.69 L 407.95 133.69 L 418.46 132.97 L 428.97 132.97 L 439.49 132.97 L 450.00 132.97 L 460.51 132.97 L 471.03 132.97 L 481.54 132.97 L 492.05 132.97 L 502.56 132.97 L 513.08 132.97 L 523.59 132.97 L 534.10 132.97 L 544.62 132.97 L 555.13 132.97 L 565.64 132.97 L 576.15 132.97 L 586.67 132.97 L 597.18 132.97 L 607.69 132.97 L 618.21 132.97 L 628.72 132.97 L 639.23 132.97 L 649.74 132.97 L 660.26 132.97 L 670.77 132.97 L 681.28 132.97 L 691.79 132.97 L 702.31 132.97 L 712.82 132.97 L 723.33 132.97 L 733.85 132.97 L 744.36 132.97 L 754.87 132.97 L 765.38 132.97 L 775.90 132.97 L 786.41 132.97 L 796.92 132.97 L 807.44 132.97 L 817.95 132.97 L 828.46 132.97 L 838.97 132.97 L 849.49 132.97 L 860.00 132.97" fill="none" stroke="#3fb950" stroke-width="2"/>
    <circle cx="860.00" cy="132.97" r="3" fill="#3fb950"/>
    <text x="40.00" y="235.00" font-size="9" fill="#c9d1d9" text-anchor="middle" transform="rotate(-45 40.00 235.00)">09.08.2025</text><text x="113.59" y="235.00" font-size="9" fill="#c9d1d9" text-anchor="middle" transform="rotate(-45 113.59 235.00)">09.08.2025</text><text x="187.18" y="235.00" font-size="9" fill="#c9d1d9" text-anchor="middle" transform="rotate(-45 187.18 235.00)">09.08.2025</text><text x="260.77" y="235.00" font-size="9" fill="#c9d1d9" text-anchor="middle" transform="rotate(-45 260.77 235.00)">09.08.2025</text><text x="334.36" y="235.00" font-size="9" fill="#c9d1d9" text-anchor="middle" transform="rotate(-45 334.36 235.00)">13.08.2025</text><text x="407.95" y="235.00" font-size="9" fill="#c9d1d9" text-anchor="middle" transform="rotate(-45 407.95 235.00)">13.08.2025</text><text x="481.54" y="235.00" font-size="9" fill="#c9d1d9" text-anchor="middle" transform="rotate(-45 481.54 235.00)">18.08.2025</text><text x="555.13" y="235.00" font-size="9" fill="#c9d1d9" text-anchor="middle" transform="rotate(-45 555.13 235.00)">25.08.2025</text><text x="628.72" y="235.00" font-size="9" fill="#c9d1d9" text-anchor="middle" transform="rotate(-45 628.72 235.00)">30.08.2025</text><text x="702.31" y="235.00" font-size="9" fill="#c9d1d9" text-anchor="middle" transform="rotate(-45 702.31 235.00)">06.09.2025</text><text x="775.90" y="235.00" font-size="9" fill="#c9d1d9" text-anchor="middle" transform="rotate(-45 775.90 235.00)">13.09.2025</text><text x="849.49" y="235.00" font-size="9" fill="#c9d1d9" text-anchor="middle" transform="rotate(-45 849.49 235.00)">20.09.2025</text>
  </g>
</svg>