<svg xmlns="http://www.w3.org/2000/svg" width="900" height="290" style="font-family: -apple-system, BlinkMacSystemFont, 'Segoe UI', Helvetica, Arial, sans-serif;">
  <rect width="100%" height="100%" fill="white"/>
  <g>
    <line x1="40" y1="220.00" x2="860" y2="220.00" stroke="#e5e7eb"/><text x="32" y="224.00" font-size="10" fill="#111827" text-anchor="end">0</text><line x1="40" y1="175.00" x2="860" y2="175.00" stroke="#e5e7eb"/><text x="32" y="179.00" font-size="10" fill="#111827" text-anchor="end">500</text><line x1="40" y1="130.00" x2="860" y2="130.00" stroke="#e5e7eb"/><text x="32" y="134.00" font-size="10" fill="#111827" text-anchor="end">1k</text><line x1="40" y1="85.00" x2="860" y2="85.00" stroke="#e5e7eb"/><text x="32" y="89.00" font-size="10" fill="#111827" text-anchor="end">1.5k</text><line x1="40" y1="40.00" x2="860" y2="40.00" stroke="#e5e7eb"/><text x="32" y="44.00" font-size="10" fill="#111827" text-anchor="end">2k</text>
    <line x1="40.00" y1="40" x2="40.00" y2="220" stroke="#e5e7eb" opacity="0.5"/><line x1="121.05" y1="40" x2="121.05" y2="220" stroke="#e5e7eb" opacity="0.5"/><line x1="202.09" y1="40" x2="202.09" y2="220" stroke="#e5e7eb" opacity="0.5"/><line x1="283.14" y1="40" x2="283.14" y2="220" stroke="#e5e7eb" opacity="0.5"/><line x1="364.19" y1="40" x2="364.19" y2="220" stroke="#e5e7eb" opacity="0.5"/><line x1="445.23" y1="40" x2="445.23" y2="220" stroke="#e5e7eb" opacity="0.5"/><line x1="526.28" y1="40" x2="526.28" y2="220" stroke="#e5e7eb" opacity="0.5"/><line x1="607.33" y1="40" x2="607.33" y2="220" stroke="#e5e7eb" opacity="0.5"/><line x1="688.37" y1="40" x2="688.37" y2="220" stroke="#e5e7eb" opacity="0.5"/><line x1="769.42" y1="40" x2="769.42" y2="220" stroke="#e5e7eb" opacity="0.5"/><line x1="850.47" y1="40" x2="850.47" y2="220" stroke="#e5e7eb" opacity="0.5"/>
    <line x1="40" y1="220" x2="860" y2="220" stroke="#9ca3af"/>
    <line x1="40" y1="40"   x2="40"   y2="220" stroke="#9ca3af"/>
    <path d="M 40.00 219.82 L 44.77 214.15 L 49.53 214.06 L 54.30 214.06 L 59.07 213.25 L 63.84 213.25 L 68.60 204.88 L 73.37 185.98 L 78.14 185.98 L 82.91 180.94 L 87.67 152.59 L 92.44 159.97 L 97.21 158.89 L 101.98 158.17 L 106.74 139.63 L 111.51 139.63 L 116.28 157.18 L 121.05 154.66 L 125.81 154.39 L 130.58 151.60 L 135.35 150.97 L 140.12 150.70 L 144.88 149.80 L 149.65 149.80 L 154.42 147.46 L 159.19 144.94 L 163.95 144.76 L 168.72 140.71 L 173.49 134.23 L 178.26 134.23 L 183.02 133.69 L 187.79 133.69 L 192.56 133.69 L 197.33 133.69 L 202.09 133.69 L 206.86 133.69 L 211.63 132.97 L 216.40 132.97 L 221.16 132.97 L 225.93 132.97 L 230.70 132.97 L 235.47 132.97 L 240.23 132.97 L 245.00 132.97 L 249.77 132.97 L 254.53 132.97 L 259.30 132.97 L 264.07 132.97 L 268.84 132.97 L 273.60 132.97 L 278.37 132.97 L 283.14 132.97 L 287.91 132.97 L 292.67 132.97 L 297.44 132.97 L 302.21 132.97 L 306.98 132.97 L 311.74 132.97 L 316.51 132.97 L 321.28 132.97 L 326.05 132.97 L 330.81 132.97 L 335.58 132.97 L 340.35 132.97 L 345.12 132.97 L 349.88 132.97 L 354.65 132.97 L 359.42 132.97 L 364.19 132.97 L 368.95 132.97 L 373.72 132.97 L 378.49 132.97 L 383.26 132.97 L 388.02 132.97 L 392.79 132.97 L 397.56 132.97 L 402.33 132.97 L 407.09 132.97 L 411.86 132.97 L 416.63 132.97 L 421.40 132.97 L 426.16 132.97 L 430.93 132.97 L 435.70 132.97 L 440.47 132.97 L 445.23 132.97 L 450.00 132.97 L 454.77 132.97 L 459.53 132.97 L 464.30 132.97 L 469.07 132.97 L 473.84 132.97 L 478.60 132.97 L 483.37 132.97 L 488.14 132.97 L 492.91 132.97 L 497.67 132.97 L 502.44 132.97 L 507.21 132.97 L 511.98 132.97 L 516.74 132.97 L 521.51 132.97 L 526.28 132.97 L 531.05 132.97 L 535.81 132.97 L 540.58 132.97 L 545.35 132.97 L 550.12 132.97 L 554.88 132.97 L 559.65 132.97 L 564.42 132.97 L 569.19 132.97 L 573.95 132.97 L 578.72 132.97 L 583.49 132.97 L 588.26 132.97 L 593.02 132.97 L 597.79 132.97 L 602.56 132.97 L 607.33 132.97 L 612.09 132.97 L 616.86 132.97 L 621.63 132.97 L 626.40 132.97 L 631.16 132.97 L 635.93 132.97 L 640.70 132.97 L 645.47 132.97 L 650.23 132.97 L 655.00 132.97 L 659.77 132.97 L 664.53 132.97 L 669.30 132.97 L 674.07 132.97 L 678.84 132.97 L 683.60 132.97 L 688.37 132.97 L 693.14 132.97 L 697.91 132.97 L 702.67 132.97 L 707.44 132.97 L 712.21 132.97 L 716.98 132.97 L 721.74 132.97 L 726.51 132.97 L 731.28 132.97 L 736.05 132.97 L 740.81 132.97 L 745.58 132.97 L 750.35 132.97 L 755.12 132.97 L 759.88 132.97 L 764.65 132.97 L 769.42 124.51 L 774.19 120.64 L 778.95 116.77 L 783.72 112.90 L 788.49 109.03 L 793.26 105.97 L 798.02 105.97 L 802.79 105.97 L 807.56 105.97 L 812.33 105.97 L 817.09 105.79 L 821.86 103.09 L 826.63 98.41 L 831.40 98.41 L 836.16 98.41 L 840.93 98.41 L 845.70 98.41 L 850.47 98.41 L 855.23 98.41 L 860.00 98.41" fill="none" stroke="#111827" stroke-width="2"/>
    <circle cx="860.00" cy="98.41" r="3" fill="#111827"/>
    <text x="40.00" y="235.00" font-size="9" fill="#111827" text-anchor="middle" transform="rotate(-45 40.00 235.00)">09.08.2025</text><text x="121.05" y="235.00" font-size="9" fill="#111827" text-anchor="middle" transform="rotate(-45 121.05 235.00)">09.08.2025</text><text x="202.09" y="235.00" font-size="9" fill="#111827" text-anchor="middle" transform="rotate(-45 202.09 235.00)">13.08.2025</text><text x="283.14" y="235.00" font-size="9" fill="#111827" text-anchor="middle" transform="rotate(-45 283.14 235.00)">27.08.2025</text><text x="364.19" y="235.00" font-size="9" fill="#111827" text-anchor="middle" transform="rotate(-45 364.19 235.00)">11.09.2025</text><text x="445.23" y="235.00" font-size="9" fill="#111827" text-anchor="middle" transform="rotate(-45 445.23 235.00)">28.09.2025</text><text x="526.28" y="235.00" font-size="9" fill="#111827" text-anchor="middle" transform="rotate(-45 526.28 235.00)">15.10.2025</text><text x="607.33" y="235.00" font-size="9" fill="#111827" text-anchor="middle" transform="rotate(-45 607.33 235.00)">01.11.2025</text><text x="688.37" y="235.00" font-size="9" fill="#111827" text-anchor="middle" transform="rotate(-45 688.37 235.00)">18.11.2025</text><text x="769.42" y="235.00" font-size="9" fill="#111827" text-anchor="middle" transform="rotate(-45 769.42 235.00)">04.12.2025</text><text x="850.47" y="235.00" font-size="9" fill="#111827" text-anchor="middle" transform="rotate(-45 850.47 235.00)">12.12.2025</text>
  </g>
</svg>