<svg xmlns="http://www.w3.org/2000/svg" width="900" height="290" style="font-family: -apple-system, BlinkMacSystemFont, 'Segoe UI', Helvetica, Arial, sans-serif;">
  <rect width="100%" height="100%" fill="#0d1117"/>
  <g>
    <line x1="40" y1="220.00" x2="860" y2="220.00" stroke="#30363d"/><text x="32" y="224.00" font-size="10" fill="#c9d1d9" text-anchor="end">0</text><line x1="40" y1="175.00" x2="860" y2="175.00" stroke="#30363d"/><text x="32" y="179.00" font-size="10" fill="#c9d1d9" text-anchor="end">500</text><line x1="40" y1="130.00" x2="860" y2="130.00" stroke="#30363d"/><text x="32" y="134.00" font-size="10" fill="#c9d1d9" text-anchor="end">1k</text><line x1="40" y1="85.00" x2="860" y2="85.00" stroke="#30363d"/><text x="32" y="89.00" font-size="10" fill="#c9d1d9" text-anchor="end">1.5k</text><line x1="40" y1="40.00" x2="860" y2="40.00" stroke="#30363d"/><text x="32" y="44.00" font-size="10" fill="#c9d1d9" text-anchor="end">2k</text>
    <line x1="40.00" y1="40" x2="40.00" y2="220" stroke="#30363d" opacity="0.5"/><line x1="121.57" y1="40" x2="121.57" y2="220" stroke="#30363d" opacity="0.5"/><line x1="203.14" y1="40" x2="203.14" y2="220" stroke="#30363d" opacity="0.5"/><line x1="284.71" y1="40" x2="284.71" y2="220" stroke="#30363d" opacity="0.5"/><line x1="366.28" y1="40" x2="366.28" y2="220" stroke="#30363d" opacity="0.5"/><line x1="447.85" y1="40" x2="447.85" y2="220" stroke="#30363d" opacity="0.5"/><line x1="529.42" y1="40" x2="529.42" y2="220" stroke="#30363d" opacity="0.5"/><line x1="610.99" y1="40" x2="610.99" y2="220" stroke="#30363d" opacity="0.5"/><line x1="692.57" y1="40" x2="692.57" y2="220" stroke="#30363d" opacity="0.5"/><line x1="774.14" y1="40" x2="774.14" y2="220" stroke="#30363d" opacity="0.5"/><line x1="855.71" y1="40" x2="855.71" y2="220" stroke="#30363d" opacity="0.5"/>
    <line x1="40" y1="220" x2="860" y2="220" stroke="#30363d"/>
    <line x1="40" y1="40"   x2="40"   y2="220" stroke="#30363d"/>
    <path d="M 40.00 219.82 L 44.29 214.15 L 48.59 214.06 L 52.88 214.06 L 57.17 213.25 L 61.47 213.25 L 65.76 204.88 L 70.05 185.98 L 74.35 185.98 L 78.64 180.94 L 82.93 152.59 L 87.23 159.97 L 91.52 158.89 L 95.81 158.17 L 100.10 139.63 L 104.40 139.63 L 108.69 157.18 L 112.98 154.66 L 117.28 154.39 L 121.57 151.60 L 125.86 150.97 L 130.16 150.70 L 134.45 149.80 L 138.74 149.80 L 143.04 147.46 L 147.33 144.94 L 151.62 144.76 L 155.92 140.71 L 160.21 134.23 L 164.50 134.23 L 168.80 133.69 L 173.09 133.69 L 177.38 133.69 L 181.68 133.69 L 185.97 133.69 L 190.26 133.69 L 194.55 132.97 L 198.85 132.97 L 203.14 132.97 L 207.43 132.97 L 211.73 132.97 L 216.02 132.97 L 220.31 132.97 L 224.61 132.97 L 228.90 132.97 L 233.19 132.97 L 237.49 132.97 L 241.78 132.97 L 246.07 132.97 L 250.37 132.97 L 254.66 132.97 L 258.95 132.97 L 263.25 132.97 L 267.54 132.97 L 271.83 132.97 L 276.13 132.97 L 280.42 132.97 L 284.71 132.97 L 289.01 132.97 L 293.30 132.97 L 297.59 132.97 L 301.88 132.97 L 306.18 132.97 L 310.47 132.97 L 314.76 132.97 L 319.06 132.97 L 323.35 132.97 L 327.64 132.97 L 331.94 132.97 L 336.23 132.97 L 340.52 132.97 L 344.82 132.97 L 349.11 132.97 L 353.40 132.97 L 357.70 132.97 L 361.99 132.97 L 366.28 132.97 L 370.58 132.97 L 374.87 132.97 L 379.16 132.97 L 383.46 132.97 L 387.75 132.97 L 392.04 132.97 L 396.34 132.97 L 400.63 132.97 L 404.92 132.97 L 409.21 132.97 L 413.51 132.97 L 417.80 132.97 L 422.09 132.97 L 426.39 132.97 L 430.68 132.97 L 434.97 132.97 L 439.27 132.97 L 443.56 132.97 L 447.85 132.97 L 452.15 132.97 L 456.44 132.97 L 460.73 132.97 L 465.03 132.97 L 469.32 132.97 L 473.61 132.97 L 477.91 132.97 L 482.20 132.97 L 486.49 132.97 L 490.79 132.97 L 495.08 132.97 L 499.37 132.97 L 503.66 132.97 L 507.96 132.97 L 512.25 132.97 L 516.54 132.97 L 520.84 132.97 L 525.13 132.97 L 529.42 132.97 L 533.72 132.97 L 538.01 132.97 L 542.30 132.97 L 546.60 132.97 L 550.89 132.97 L 555.18 132.97 L 559.48 132.97 L 563.77 132.97 L 568.06 132.97 L 572.36 132.97 L 576.65 132.97 L 580.94 132.97 L 585.24 132.97 L 589.53 132.97 L 593.82 132.97 L 598.12 132.97 L 602.41 132.97 L 606.70 132.97 L 610.99 132.97 L 615.29 132.97 L 619.58 132.97 L 623.87 132.97 L 628.17 132.97 L 632.46 132.97 L 636.75 132.97 L 641.05 132.97 L 645.34 132.97 L 649.63 132.97 L 653.93 132.97 L 658.22 132.97 L 662.51 132.97 L 666.81 132.97 L 671.10 132.97 L 675.39 132.97 L 679.69 132.97 L 683.98 132.97 L 688.27 132.97 L 692.57 132.97 L 696.86 124.51 L 701.15 120.64 L 705.45 116.77 L 709.74 112.90 L 714.03 109.03 L 718.32 105.97 L 722.62 105.97 L 726.91 105.97 L 731.20 105.97 L 735.50 105.97 L 739.79 105.79 L 744.08 103.09 L 748.38 98.41 L 752.67 98.41 L 756.96 98.41 L 761.26 98.41 L 765.55 98.41 L 769.84 98.41 L 774.14 98.41 L 778.43 98.41 L 782.72 98.41 L 787.02 98.41 L 791.31 98.41 L 795.60 98.41 L 799.90 98.41 L 804.19 98.41 L 808.48 98.41 L 812.77 98.41 L 817.07 98.41 L 821.36 98.41 L 825.65 98.41 L 829.95 98.41 L 834.24 98.41 L 838.53 98.41 L 842.83 98.41 L 847.12 98.41 L 851.41 98.41 L 855.71 98.41 L 860.00 98.41" fill="none" stroke="#3fb950" stroke-width="2"/>
    <circle cx="860.00" cy="98.41" r="3" fill="#3fb950"/>
    <text x="40.00" y="235.00" font-size="9" fill="#c9d1d9" text-anchor="middle" transform="rotate(-45 40.00 235.00)">09.08.2025</text><text x="121.57" y="235.00" font-size="9" fill="#c9d1d9" text-anchor="middle" transform="rotate(-45 121.57 235.00)">09.08.2025</text><text x="203.14" y="235.00" font-size="9" fill="#c9d1d9" text-anchor="middle" transform="rotate(-45 203.14 235.00)">14.08.2025</text><text x="284.71" y="235.00" font-size="9" fill="#c9d1d9" text-anchor="middle" transform="rotate(-45 284.71 235.00)">31.08.2025</text><text x="366.28" y="235.00" font-size="9" fill="#c9d1d9" text-anchor="middle" transform="rotate(-45 366.28 235.00)">19.09.2025</text><text x="447.85" y="235.00" font-size="9" fill="#c9d1d9" text-anchor="middle" transform="rotate(-45 447.85 235.00)">08.10.2025</text><text x="529.42" y="235.00" font-size="9" fill="#c9d1d9" text-anchor="middle" transform="rotate(-45 529.42 235.00)">27.10.2025</text><text x="610.99" y="235.00" font-size="9" fill="#c9d1d9" text-anchor="middle" transform="rotate(-45 610.99 235.00)">15.11.2025</text><text x="692.57" y="235.00" font-size="9" fill="#c9d1d9" text-anchor="middle" transform="rotate(-45 692.57 235.00)">04.12.2025</text><text x="774.14" y="235.00" font-size="9" fill="#c9d1d9" text-anchor="middle" transform="rotate(-45 774.14 235.00)">13.12.2025</text><text x="855.71" y="235.00" font-size="9" fill="#c9d1d9" text-anchor="middle" transform="rotate(-45 855.71 235.00)">01.01.2026</text>
  </g>
</svg>