<svg xmlns="http://www.w3.org/2000/svg" width="900" height="290" style="font-family: -apple-system, BlinkMacSystemFont, 'Segoe UI', Helvetica, Arial, sans-serif;">
  <rect width="100%" height="100%" fill="#0d1117"/>
  <g>
    <line x1="40" y1="220.00" x2="860" y2="220.00" stroke="#30363d"/><text x="32" y="224.00" font-size="10" fill="#c9d1d9" text-anchor="end">0</text><line x1="40" y1="175.00" x2="860" y2="175.00" stroke="#30363d"/><text x="32" y="179.00" font-size="10" fill="#c9d1d9" text-anchor="end">500</text><line x1="40" y1="130.00" x2="860" y2="130.00" stroke="#30363d"/><text x="32" y="134.00" font-size="10" fill="#c9d1d9" text-anchor="end">1k</text><line x1="40" y1="85.00" x2="860" y2="85.00" stroke="#30363d"/><text x="32" y="89.00" font-size="10" fill="#c9d1d9" text-anchor="end">1.5k</text><line x1="40" y1="40.00" x2="860" y2="40.00" stroke="#30363d"/><text x="32" y="44.00" font-size="10" fill="#c9d1d9" text-anchor="end">2k</text>
    <line x1="40.00" y1="40" x2="40.00" y2="220" stroke="#30363d" opacity="0.5"/><line x1="119.82" y1="40" x2="119.82" y2="220" stroke="#30363d" opacity="0.5"/><line x1="199.65" y1="40" x2="199.65" y2="220" stroke="#30363d" opacity="0.5"/><line x1="279.47" y1="40" x2="279.47" y2="220" stroke="#30363d" opacity="0.5"/><line x1="359.29" y1="40" x2="359.29" y2="220" stroke="#30363d" opacity="0.5"/><line x1="439.12" y1="40" x2="439.12" y2="220" stroke="#30363d" opacity="0.5"/><line x1="518.94" y1="40" x2="518.94" y2="220" stroke="#30363d" opacity="0.5"/><line x1="598.76" y1="40" x2="598.76" y2="220" stroke="#30363d" opacity="0.5"/><line x1="678.58" y1="40" x2="678.58" y2="220" stroke="#30363d" opacity="0.5"/><line x1="758.41" y1="40" x2="758.41" y2="220" stroke="#30363d" opacity="0.5"/><line x1="838.23" y1="40" x2="838.23" y2="220" stroke="#30363d" opacity="0.5"/>
    <line x1="40" y1="220" x2="860" y2="220" stroke="#30363d"/>
    <line x1="40" y1="40"   x2="40"   y2="220" stroke="#30363d"/>
    <path d="M 40.00 219.82 L 43.63 214.15 L 47.26 214.06 L 50.88 214.06 L 54.51 213.25 L 58.14 213.25 L 61.77 204.88 L 65.40 185.98 L 69.03 185.98 L 72.65 180.94 L 76.28 152.59 L 79.91 159.97 L 83.54 158.89 L 87.17 158.17 L 90.80 139.63 L 94.42 139.63 L 98.05 157.18 L 101.68 154.66 L 105.31 154.39 L 108.94 151.60 L 112.57 150.97 L 116.19 150.70 L 119.82 149.80 L 123.45 149.80 L 127.08 147.46 L 130.71 144.94 L 134.34 144.76 L 137.96 140.71 L 141.59 134.23 L 145.22 134.23 L 148.85 133.69 L 152.48 133.69 L 156.11 133.69 L 159.73 133.69 L 163.36 133.69 L 166.99 133.69 L 170.62 132.97 L 174.25 132.97 L 177.88 132.97 L 181.50 132.97 L 185.13 132.97 L 188.76 132.97 L 192.39 132.97 L 196.02 132.97 L 199.65 132.97 L 203.27 132.97 L 206.90 132.97 L 210.53 132.97 L 214.16 132.97 L 217.79 132.97 L 221.42 132.97 L 225.04 132.97 L 228.67 132.97 L 232.30 132.97 L 235.93 132.97 L 239.56 132.97 L 243.19 132.97 L 246.81 132.97 L 250.44 132.97 L 254.07 132.97 L 257.70 132.97 L 261.33 132.97 L 264.96 132.97 L 268.58 132.97 L 272.21 132.97 L 275.84 132.97 L 279.47 132.97 L 283.10 132.97 L 286.73 132.97 L 290.35 132.97 L 293.98 132.97 L 297.61 132.97 L 301.24 132.97 L 304.87 132.97 L 308.50 132.97 L 312.12 132.97 L 315.75 132.97 L 319.38 132.97 L 323.01 132.97 L 326.64 132.97 L 330.27 132.97 L 333.89 132.97 L 337.52 132.97 L 341.15 132.97 L 344.78 132.97 L 348.41 132.97 L 352.04 132.97 L 355.66 132.97 L 359.29 132.97 L 362.92 132.97 L 366.55 132.97 L 370.18 132.97 L 373.81 132.97 L 377.43 132.97 L 381.06 132.97 L 384.69 132.97 L 388.32 132.97 L 391.95 132.97 L 395.58 132.97 L 399.20 132.97 L 402.83 132.97 L 406.46 132.97 L 410.09 132.97 L 413.72 132.97 L 417.35 132.97 L 420.97 132.97 L 424.60 132.97 L 428.23 132.97 L 431.86 132.97 L 435.49 132.97 L 439.12 132.97 L 442.74 132.97 L 446.37 132.97 L 450.00 132.97 L 453.63 132.97 L 457.26 132.97 L 460.88 132.97 L 464.51 132.97 L 468.14 132.97 L 471.77 132.97 L 475.40 132.97 L 479.03 132.97 L 482.65 132.97 L 486.28 132.97 L 489.91 132.97 L 493.54 132.97 L 497.17 132.97 L 500.80 132.97 L 504.42 132.97 L 508.05 132.97 L 511.68 132.97 L 515.31 132.97 L 518.94 132.97 L 522.57 132.97 L 526.19 132.97 L 529.82 132.97 L 533.45 132.97 L 537.08 132.97 L 540.71 132.97 L 544.34 132.97 L 547.96 132.97 L 551.59 132.97 L 555.22 132.97 L 558.85 132.97 L 562.48 132.97 L 566.11 132.97 L 569.73 132.97 L 573.36 132.97 L 576.99 132.97 L 580.62 132.97 L 584.25 132.97 L 587.88 132.97 L 591.50 132.97 L 595.13 124.51 L 598.76 120.64 L 602.39 116.77 L 606.02 112.90 L 609.65 109.03 L 613.27 105.97 L 616.90 105.97 L 620.53 105.97 L 624.16 105.97 L 627.79 105.97 L 631.42 105.79 L 635.04 103.09 L 638.67 98.41 L 642.30 98.41 L 645.93 98.41 L 649.56 98.41 L 653.19 98.41 L 656.81 98.41 L 660.44 98.41 L 664.07 98.41 L 667.70 98.41 L 671.33 98.41 L 674.96 98.41 L 678.58 98.41 L 682.21 98.41 L 685.84 98.41 L 689.47 98.41 L 693.10 98.41 L 696.73 98.41 L 700.35 98.41 L 703.98 98.41 L 707.61 98.41 L 711.24 98.41 L 714.87 98.41 L 718.50 98.41 L 722.12 98.41 L 725.75 98.41 L 729.38 98.41 L 733.01 98.41 L 736.64 98.41 L 740.27 98.41 L 743.89 98.41 L 747.52 98.41 L 751.15 98.41 L 754.78 98.41 L 758.41 98.41 L 762.04 98.41 L 765.66 98.41 L 769.29 98.41 L 772.92 98.41 L 776.55 98.41 L 780.18 98.41 L 783.81 98.41 L 787.43 98.41 L 791.06 98.41 L 794.69 98.41 L 798.32 98.41 L 801.95 98.41 L 805.58 98.41 L 809.20 98.41 L 812.83 98.41 L 816.46 98.41 L 820.09 98.41 L 823.72 98.41 L 827.35 98.41 L 830.97 98.41 L 834.60 98.41 L 838.23 98.41 L 841.86 98.41 L 845.49 98.41 L 849.12 98.41 L 852.74 98.41 L 856.37 98.41 L 860.00 98.41" fill="none" stroke="#3fb950" stroke-width="2"/>
    <circle cx="860.00" cy="98.41" r="3" fill="#3fb950"/>
    <text x="40.00" y="235.00" font-size="9" fill="#c9d1d9" text-anchor="middle" transform="rotate(-45 40.00 235.00)">09.08.2025</text><text x="119.82" y="235.00" font-size="9" fill="#c9d1d9" text-anchor="middle" transform="rotate(-45 119.82 235.00)">09.08.2025</text><text x="199.65" y="235.00" font-size="9" fill="#c9d1d9" text-anchor="middle" transform="rotate(-45 199.65 235.00)">20.08.2025</text><text x="279.47" y="235.00" font-size="9" fill="#c9d1d9" text-anchor="middle" transform="rotate(-45 279.47 235.00)">09.09.2025</text><text x="359.29" y="235.00" font-size="9" fill="#c9d1d9" text-anchor="middle" transform="rotate(-45 359.29 235.00)">01.10.2025</text><text x="439.12" y="235.00" font-size="9" fill="#c9d1d9" text-anchor="middle" transform="rotate(-45 439.12 235.00)">23.10.2025</text><text x="518.94" y="235.00" font-size="9" fill="#c9d1d9" text-anchor="middle" transform="rotate(-45 518.94 235.00)">14.11.2025</text><text x="598.76" y="235.00" font-size="9" fill="#c9d1d9" text-anchor="middle" transform="rotate(-45 598.76 235.00)">04.12.2025</text><text x="678.58" y="235.00" font-size="9" fill="#c9d1d9" text-anchor="middle" transform="rotate(-45 678.58 235.00)">18.12.2025</text><text x="758.41" y="235.00" font-size="9" fill="#c9d1d9" text-anchor="middle" transform="rotate(-45 758.41 235.00)">09.01.2026</text><text x="838.23" y="235.00" font-size="9" fill="#c9d1d9" text-anchor="middle" transform="rotate(-45 838.23 235.00)">31.01.2026</text>
  </g>
</svg>