<svg xmlns="http://www.w3.org/2000/svg" width="900" height="290" style="font-family: -apple-system, BlinkMacSystemFont, 'Segoe UI', Helvetica, Arial, sans-serif;">
  <rect width="100%" height="100%" fill="white"/>
  <g>
    <line x1="40" y1="220.00" x2="860" y2="220.00" stroke="#e5e7eb"/><text x="32" y="224.00" font-size="10" fill="#111827" text-anchor="end">0</text><line x1="40" y1="175.00" x2="860" y2="175.00" stroke="#e5e7eb"/><text x="32" y="179.00" font-size="10" fill="#111827" text-anchor="end">500</text><line x1="40" y1="130.00" x2="860" y2="130.00" stroke="#e5e7eb"/><text x="32" y="134.00" font-size="10" fill="#111827" text-anchor="end">1k</text><line x1="40" y1="85.00" x2="860" y2="85.00" stroke="#e5e7eb"/><text x="32" y="89.00" font-size="10" fill="#111827" text-anchor="end">1.5k</text><line x1="40" y1="40.00" x2="860" y2="40.00" stroke="#e5e7eb"/><text x="32" y="44.00" font-size="10" fill="#111827" text-anchor="end">2k</text>
    <line x1="40.00" y1="40" x2="40.00" y2="220" stroke="#e5e7eb" opacity="0.5"/><line x1="119.52" y1="40" x2="119.52" y2="220" stroke="#e5e7eb" opacity="0.5"/><line x1="199.03" y1="40" x2="199.03" y2="220" stroke="#e5e7eb" opacity="0.5"/><line x1="278.55" y1="40" x2="278.55" y2="220" stroke="#e5e7eb" opacity="0.5"/><line x1="358.06" y1="40" x2="358.06" y2="220" stroke="#e5e7eb" opacity="0.5"/><line x1="437.58" y1="40" x2="437.58" y2="220" stroke="#e5e7eb" opacity="0.5"/><line x1="517.09" y1="40" x2="517.09" y2="220" stroke="#e5e7eb" opacity="0.5"/><line x1="596.61" y1="40" x2="596.61" y2="220" stroke="#e5e7eb" opacity="0.5"/><line x1="676.12" y1="40" x2="676.12" y2="220" stroke="#e5e7eb" opacity="0.5"/><line x1="755.64" y1="40" x2="755.64" y2="220" stroke="#e5e7eb" opacity="0.5"/><line x1="835.15" y1="40" x2="835.15" y2="220" stroke="#e5e7eb" opacity="0.5"/>
    <line x1="40" y1="220" x2="860" y2="220" stroke="#9ca3af"/>
    <line x1="40" y1="40"   x2="40"   y2="220" stroke="#9ca3af"/>
    <path d="M 40.00 219.82 L 44.97 214.15 L 49.94 214.06 L 54.91 214.06 L 59.88 213.25 L 64.85 213.25 L 69.82 204.88 L 74.79 185.98 L 79.76 185.98 L 84.73 180.94 L 89.70 152.59 L 94.67 159.97 L 99.64 158.89 L 104.61 158.17 L 109.58 139.63 L 114.55 139.63 L 119.52 157.18 L 124.48 154.66 L 129.45 154.39 L 134.42 151.60 L 139.39 150.97 L 144.36 150.70 L 149.33 149.80 L 154.30 149.80 L 159.27 147.46 L 164.24 144.94 L 169.21 144.76 L 174.18 140.71 L 179.15 134.23 L 184.12 134.23 L 189.09 133.69 L 194.06 133.69 L 199.03 133.69 L 204.00 133.69 L 208.97 133.69 L 213.94 133.69 L 218.91 132.97 L 223.88 132.97 L 228.85 132.97 L 233.82 132.97 L 238.79 132.97 L 243.76 132.97 L 248.73 132.97 L 253.70 132.97 L 258.67 132.97 L 263.64 132.97 L 268.61 132.97 L 273.58 132.97 L 278.55 132.97 L 283.52 132.97 L 288.48 132.97 L 293.45 132.97 L 298.42 132.97 L 303.39 132.97 L 308.36 132.97 L 313.33 132.97 L 318.30 132.97 L 323.27 132.97 L 328.24 132.97 L 333.21 132.97 L 338.18 132.97 L 343.15 132.97 L 348.12 132.97 L 353.09 132.97 L 358.06 132.97 L 363.03 132.97 L 368.00 132.97 L 372.97 132.97 L 377.94 132.97 L 382.91 132.97 L 387.88 132.97 L 392.85 132.97 L 397.82 132.97 L 402.79 132.97 L 407.76 132.97 L 412.73 132.97 L 417.70 132.97 L 422.67 132.97 L 427.64 132.97 L 432.61 132.97 L 437.58 132.97 L 442.55 132.97 L 447.52 132.97 L 452.48 132.97 L 457.45 132.97 L 462.42 132.97 L 467.39 132.97 L 472.36 132.97 L 477.33 132.97 L 482.30 132.97 L 487.27 132.97 L 492.24 132.97 L 497.21 132.97 L 502.18 132.97 L 507.15 132.97 L 512.12 132.97 L 517.09 132.97 L 522.06 132.97 L 527.03 132.97 L 532.00 132.97 L 536.97 132.97 L 541.94 132.97 L 546.91 132.97 L 551.88 132.97 L 556.85 132.97 L 561.82 132.97 L 566.79 132.97 L 571.76 132.97 L 576.73 132.97 L 581.70 132.97 L 586.67 132.97 L 591.64 132.97 L 596.61 132.97 L 601.58 132.97 L 606.55 132.97 L 611.52 132.97 L 616.48 132.97 L 621.45 132.97 L 626.42 132.97 L 631.39 132.97 L 636.36 132.97 L 641.33 132.97 L 646.30 132.97 L 651.27 132.97 L 656.24 132.97 L 661.21 132.97 L 666.18 132.97 L 671.15 132.97 L 676.12 132.97 L 681.09 132.97 L 686.06 132.97 L 691.03 132.97 L 696.00 132.97 L 700.97 132.97 L 705.94 132.97 L 710.91 132.97 L 715.88 132.97 L 720.85 132.97 L 725.82 132.97 L 730.79 132.97 L 735.76 132.97 L 740.73 132.97 L 745.70 132.97 L 750.67 132.97 L 755.64 132.97 L 760.61 132.97 L 765.58 132.97 L 770.55 132.97 L 775.52 132.97 L 780.48 132.97 L 785.45 132.97 L 790.42 132.97 L 795.39 132.97 L 800.36 124.51 L 805.33 120.64 L 810.30 116.77 L 815.27 112.90 L 820.24 109.03 L 825.21 105.97 L 830.18 105.97 L 835.15 105.97 L 840.12 105.97 L 845.09 105.97 L 850.06 105.79 L 855.03 103.09 L 860.00 98.41" fill="none" stroke="#111827" stroke-width="2"/>
    <circle cx="860.00" cy="98.41" r="3" fill="#111827"/>
    <text x="40.00" y="235.00" font-size="9" fill="#111827" text-anchor="middle" transform="rotate(-45 40.00 235.00)">09.08.2025</text><text x="119.52" y="235.00" font-size="9" fill="#111827" text-anchor="middle" transform="rotate(-45 119.52 235.00)">09.08.2025</text><text x="199.03" y="235.00" font-size="9" fill="#111827" text-anchor="middle" transform="rotate(-45 199.03 235.00)">13.08.2025</text><text x="278.55" y="235.00" font-size="9" fill="#111827" text-anchor="middle" transform="rotate(-45 278.55 235.00)">24.08.2025</text><text x="358.06" y="235.00" font-size="9" fill="#111827" text-anchor="middle" transform="rotate(-45 358.06 235.00)">07.09.2025</text><text x="437.58" y="235.00" font-size="9" fill="#111827" text-anchor="middle" transform="rotate(-45 437.58 235.00)">23.09.2025</text><text x="517.09" y="235.00" font-size="9" fill="#111827" text-anchor="middle" transform="rotate(-45 517.09 235.00)">09.10.2025</text><text x="596.61" y="235.00" font-size="9" fill="#111827" text-anchor="middle" transform="rotate(-45 596.61 235.00)">25.10.2025</text><text x="676.12" y="235.00" font-size="9" fill="#111827" text-anchor="middle" transform="rotate(-45 676.12 235.00)">10.11.2025</text><text x="755.64" y="235.00" font-size="9" fill="#111827" text-anchor="middle" transform="rotate(-45 755.64 235.00)">26.11.2025</text><text x="835.15" y="235.00" font-size="9" fill="#111827" text-anchor="middle" transform="rotate(-45 835.15 235.00)">05.12.2025</text>
  </g>
</svg>