<svg xmlns="http://www.w3.org/2000/svg" width="900" height="290" style="font-family: -apple-system, BlinkMacSystemFont, 'Segoe UI', Helvetica, Arial, sans-serif;">
  <rect width="100%" height="100%" fill="white"/>
  <g>
    <line x1="40" y1="220.00" x2="860" y2="220.00" stroke="#e5e7eb"/><text x="32" y="224.00" font-size="10" fill="#111827" text-anchor="end">0</text><line x1="40" y1="175.00" x2="860" y2="175.00" stroke="#e5e7eb"/><text x="32" y="179.00" font-size="10" fill="#111827" text-anchor="end">500</text><line x1="40" y1="130.00" x2="860" y2="130.00" stroke="#e5e7eb"/><text x="32" y="134.00" font-size="10" fill="#111827" text-anchor="end">1k</text><line x1="40" y1="85.00" x2="860" y2="85.00" stroke="#e5e7eb"/><text x="32" y="89.00" font-size="10" fill="#111827" text-anchor="end">1.5k</text><line x1="40" y1="40.00" x2="860" y2="40.00" stroke="#e5e7eb"/><text x="32" y="44.00" font-size="10" fill="#111827" text-anchor="end">2k</text>
    <line x1="40.00" y1="40" x2="40.00" y2="220" stroke="#e5e7eb" opacity="0.5"/><line x1="120.18" y1="40" x2="120.18" y2="220" stroke="#e5e7eb" opacity="0.5"/><line x1="200.36" y1="40" x2="200.36" y2="220" stroke="#e5e7eb" opacity="0.5"/><line x1="280.53" y1="40" x2="280.53" y2="220" stroke="#e5e7eb" opacity="0.5"/><line x1="360.71" y1="40" x2="360.71" y2="220" stroke="#e5e7eb" opacity="0.5"/><line x1="440.89" y1="40" x2="440.89" y2="220" stroke="#e5e7eb" opacity="0.5"/><line x1="521.07" y1="40" x2="521.07" y2="220" stroke="#e5e7eb" opacity="0.5"/><line x1="601.24" y1="40" x2="601.24" y2="220" stroke="#e5e7eb" opacity="0.5"/><line x1="681.42" y1="40" x2="681.42" y2="220" stroke="#e5e7eb" opacity="0.5"/><line x1="761.60" y1="40" x2="761.60" y2="220" stroke="#e5e7eb" opacity="0.5"/><line x1="841.78" y1="40" x2="841.78" y2="220" stroke="#e5e7eb" opacity="0.5"/>
    <line x1="40" y1="220" x2="860" y2="220" stroke="#9ca3af"/>
    <line x1="40" y1="40"   x2="40"   y2="220" stroke="#9ca3af"/>
    <path d="M 40.00 219.82 L 43.64 214.15 L 47.29 214.06 L 50.93 214.06 L 54.58 213.25 L 58.22 213.25 L 61.87 204.88 L 65.51 185.98 L 69.16 185.98 L 72.80 180.94 L 76.44 152.59 L 80.09 159.97 L 83.73 158.89 L 87.38 158.17 L 91.02 139.63 L 94.67 139.63 L 98.31 157.18 L 101.96 154.66 L 105.60 154.39 L 109.24 151.60 L 112.89 150.97 L 116.53 150.70 L 120.18 149.80 L 123.82 149.80 L 127.47 147.46 L 131.11 144.94 L 134.76 144.76 L 138.40 140.71 L 142.04 134.23 L 145.69 134.23 L 149.33 133.69 L 152.98 133.69 L 156.62 133.69 L 160.27 133.69 L 163.91 133.69 L 167.56 133.69 L 171.20 132.97 L 174.84 132.97 L 178.49 132.97 L 182.13 132.97 L 185.78 132.97 L 189.42 132.97 L 193.07 132.97 L 196.71 132.97 L 200.36 132.97 L 204.00 132.97 L 207.64 132.97 L 211.29 132.97 L 214.93 132.97 L 218.58 132.97 L 222.22 132.97 L 225.87 132.97 L 229.51 132.97 L 233.16 132.97 L 236.80 132.97 L 240.44 132.97 L 244.09 132.97 L 247.73 132.97 L 251.38 132.97 L 255.02 132.97 L 258.67 132.97 L 262.31 132.97 L 265.96 132.97 L 269.60 132.97 L 273.24 132.97 L 276.89 132.97 L 280.53 132.97 L 284.18 132.97 L 287.82 132.97 L 291.47 132.97 L 295.11 132.97 L 298.76 132.97 L 302.40 132.97 L 306.04 132.97 L 309.69 132.97 L 313.33 132.97 L 316.98 132.97 L 320.62 132.97 L 324.27 132.97 L 327.91 132.97 L 331.56 132.97 L 335.20 132.97 L 338.84 132.97 L 342.49 132.97 L 346.13 132.97 L 349.78 132.97 L 353.42 132.97 L 357.07 132.97 L 360.71 132.97 L 364.36 132.97 L 368.00 132.97 L 371.64 132.97 L 375.29 132.97 L 378.93 132.97 L 382.58 132.97 L 386.22 132.97 L 389.87 132.97 L 393.51 132.97 L 397.16 132.97 L 400.80 132.97 L 404.44 132.97 L 408.09 132.97 L 411.73 132.97 L 415.38 132.97 L 419.02 132.97 L 422.67 132.97 L 426.31 132.97 L 429.96 132.97 L 433.60 132.97 L 437.24 132.97 L 440.89 132.97 L 444.53 132.97 L 448.18 132.97 L 451.82 132.97 L 455.47 132.97 L 459.11 132.97 L 462.76 132.97 L 466.40 132.97 L 470.04 132.97 L 473.69 132.97 L 477.33 132.97 L 480.98 132.97 L 484.62 132.97 L 488.27 132.97 L 491.91 132.97 L 495.56 132.97 L 499.20 132.97 L 502.84 132.97 L 506.49 132.97 L 510.13 132.97 L 513.78 132.97 L 517.42 132.97 L 521.07 132.97 L 524.71 132.97 L 528.36 132.97 L 532.00 132.97 L 535.64 132.97 L 539.29 132.97 L 542.93 132.97 L 546.58 132.97 L 550.22 132.97 L 553.87 132.97 L 557.51 132.97 L 561.16 132.97 L 564.80 132.97 L 568.44 132.97 L 572.09 132.97 L 575.73 132.97 L 579.38 132.97 L 583.02 132.97 L 586.67 132.97 L 590.31 132.97 L 593.96 132.97 L 597.60 124.51 L 601.24 120.64 L 604.89 116.77 L 608.53 112.90 L 612.18 109.03 L 615.82 105.97 L 619.47 105.97 L 623.11 105.97 L 626.76 105.97 L 630.40 105.97 L 634.04 105.79 L 637.69 103.09 L 641.33 98.41 L 644.98 98.41 L 648.62 98.41 L 652.27 98.41 L 655.91 98.41 L 659.56 98.41 L 663.20 98.41 L 666.84 98.41 L 670.49 98.41 L 674.13 98.41 L 677.78 98.41 L 681.42 98.41 L 685.07 98.41 L 688.71 98.41 L 692.36 98.41 L 696.00 98.41 L 699.64 98.41 L 703.29 98.41 L 706.93 98.41 L 710.58 98.41 L 714.22 98.41 L 717.87 98.41 L 721.51 98.41 L 725.16 98.41 L 728.80 98.41 L 732.44 98.41 L 736.09 98.41 L 739.73 98.41 L 743.38 98.41 L 747.02 98.41 L 750.67 98.41 L 754.31 98.41 L 757.96 98.41 L 761.60 98.41 L 765.24 98.41 L 768.89 98.41 L 772.53 98.41 L 776.18 98.41 L 779.82 98.41 L 783.47 98.41 L 787.11 98.41 L 790.76 98.41 L 794.40 98.41 L 798.04 98.41 L 801.69 98.41 L 805.33 98.41 L 808.98 98.41 L 812.62 98.41 L 816.27 98.41 L 819.91 98.41 L 823.56 98.41 L 827.20 98.41 L 830.84 98.41 L 834.49 98.41 L 838.13 98.41 L 841.78 98.41 L 845.42 98.41 L 849.07 98.41 L 852.71 98.41 L 856.36 98.41 L 860.00 98.41" fill="none" stroke="#111827" stroke-width="2"/>
    <circle cx="860.00" cy="98.41" r="3" fill="#111827"/>
    <text x="40.00" y="235.00" font-size="9" fill="#111827" text-anchor="middle" transform="rotate(-45 40.00 235.00)">09.08.2025</text><text x="120.18" y="235.00" font-size="9" fill="#111827" text-anchor="middle" transform="rotate(-45 120.18 235.00)">09.08.2025</text><text x="200.36" y="235.00" font-size="9" fill="#111827" text-anchor="middle" transform="rotate(-45 200.36 235.00)">20.08.2025</text><text x="280.53" y="235.00" font-size="9" fill="#111827" text-anchor="middle" transform="rotate(-45 280.53 235.00)">09.09.2025</text><text x="360.71" y="235.00" font-size="9" fill="#111827" text-anchor="middle" transform="rotate(-45 360.71 235.00)">01.10.2025</text><text x="440.89" y="235.00" font-size="9" fill="#111827" text-anchor="middle" transform="rotate(-45 440.89 235.00)">23.10.2025</text><text x="521.07" y="235.00" font-size="9" fill="#111827" text-anchor="middle" transform="rotate(-45 521.07 235.00)">14.11.2025</text><text x="601.24" y="235.00" font-size="9" fill="#111827" text-anchor="middle" transform="rotate(-45 601.24 235.00)">04.12.2025</text><text x="681.42" y="235.00" font-size="9" fill="#111827" text-anchor="middle" transform="rotate(-45 681.42 235.00)">18.12.2025</text><text x="761.60" y="235.00" font-size="9" fill="#111827" text-anchor="middle" transform="rotate(-45 761.60 235.00)">09.01.2026</text><text x="841.78" y="235.00" font-size="9" fill="#111827" text-anchor="middle" transform="rotate(-45 841.78 235.00)">31.01.2026</text>
  </g>
</svg>