<svg xmlns="http://www.w3.org/2000/svg" width="900" height="290" style="font-family: -apple-system, BlinkMacSystemFont, 'Segoe UI', Helvetica, Arial, sans-serif;">
  <rect width="100%" height="100%" fill="white"/>
  <g>
    <line x1="40" y1="220.00" x2="860" y2="220.00" stroke="#e5e7eb"/><text x="32" y="224.00" font-size="10" fill="#111827" text-anchor="end">0</text><line x1="40" y1="175.00" x2="860" y2="175.00" stroke="#e5e7eb"/><text x="32" y="179.00" font-size="10" fill="#111827" text-anchor="end">500</text><line x1="40" y1="130.00" x2="860" y2="130.00" stroke="#e5e7eb"/><text x="32" y="134.00" font-size="10" fill="#111827" text-anchor="end">1k</text><line x1="40" y1="85.00" x2="860" y2="85.00" stroke="#e5e7eb"/><text x="32" y="89.00" font-size="10" fill="#111827" text-anchor="end">1.5k</text><line x1="40" y1="40.00" x2="860" y2="40.00" stroke="#e5e7eb"/><text x="32" y="44.00" font-size="10" fill="#111827" text-anchor="end">2k</text>
    <line x1="40.00" y1="40" x2="40.00" y2="220" stroke="#e5e7eb" opacity="0.5"/><line x1="119.12" y1="40" x2="119.12" y2="220" stroke="#e5e7eb" opacity="0.5"/><line x1="198.25" y1="40" x2="198.25" y2="220" stroke="#e5e7eb" opacity="0.5"/><line x1="277.37" y1="40" x2="277.37" y2="220" stroke="#e5e7eb" opacity="0.5"/><line x1="356.49" y1="40" x2="356.49" y2="220" stroke="#e5e7eb" opacity="0.5"/><line x1="435.61" y1="40" x2="435.61" y2="220" stroke="#e5e7eb" opacity="0.5"/><line x1="514.74" y1="40" x2="514.74" y2="220" stroke="#e5e7eb" opacity="0.5"/><line x1="593.86" y1="40" x2="593.86" y2="220" stroke="#e5e7eb" opacity="0.5"/><line x1="672.98" y1="40" x2="672.98" y2="220" stroke="#e5e7eb" opacity="0.5"/><line x1="752.11" y1="40" x2="752.11" y2="220" stroke="#e5e7eb" opacity="0.5"/><line x1="831.23" y1="40" x2="831.23" y2="220" stroke="#e5e7eb" opacity="0.5"/>
    <line x1="40" y1="220" x2="860" y2="220" stroke="#9ca3af"/>
    <line x1="40" y1="40"   x2="40"   y2="220" stroke="#9ca3af"/>
    <path d="M 40.00 219.82 L 47.19 214.15 L 54.39 214.06 L 61.58 214.06 L 68.77 213.25 L 75.96 213.25 L 83.16 204.88 L 90.35 185.98 L 97.54 185.98 L 104.74 180.94 L 111.93 152.59 L 119.12 159.97 L 126.32 158.89 L 133.51 158.17 L 140.70 139.63 L 147.89 139.63 L 155.09 157.18 L 162.28 154.66 L 169.47 154.39 L 176.67 151.60 L 183.86 150.97 L 191.05 150.70 L 198.25 149.80 L 205.44 149.80 L 212.63 147.46 L 219.82 144.94 L 227.02 144.76 L 234.21 140.71 L 241.40 134.23 L 248.60 134.23 L 255.79 133.69 L 262.98 133.69 L 270.18 133.69 L 277.37 133.69 L 284.56 133.69 L 291.75 133.69 L 298.95 132.97 L 306.14 132.97 L 313.33 132.97 L 320.53 132.97 L 327.72 132.97 L 334.91 132.97 L 342.11 132.97 L 349.30 132.97 L 356.49 132.97 L 363.68 132.97 L 370.88 132.97 L 378.07 132.97 L 385.26 132.97 L 392.46 132.97 L 399.65 132.97 L 406.84 132.97 L 414.04 132.97 L 421.23 132.97 L 428.42 132.97 L 435.61 132.97 L 442.81 132.97 L 450.00 132.97 L 457.19 132.97 L 464.39 132.97 L 471.58 132.97 L 478.77 132.97 L 485.96 132.97 L 493.16 132.97 L 500.35 132.97 L 507.54 132.97 L 514.74 132.97 L 521.93 132.97 L 529.12 132.97 L 536.32 132.97 L 543.51 132.97 L 550.70 132.97 L 557.89 132.97 L 565.09 132.97 L 572.28 132.97 L 579.47 132.97 L 586.67 132.97 L 593.86 132.97 L 601.05 132.97 L 608.25 132.97 L 615.44 132.97 L 622.63 132.97 L 629.82 132.97 L 637.02 132.97 L 644.21 132.97 L 651.40 132.97 L 658.60 132.97 L 665.79 132.97 L 672.98 132.97 L 680.18 132.97 L 687.37 132.97 L 694.56 132.97 L 701.75 132.97 L 708.95 132.97 L 716.14 132.97 L 723.33 132.97 L 730.53 132.97 L 737.72 132.97 L 744.91 132.97 L 752.11 132.97 L 759.30 132.97 L 766.49 132.97 L 773.68 132.97 L 780.88 132.97 L 788.07 132.97 L 795.26 132.97 L 802.46 132.97 L 809.65 132.97 L 816.84 132.97 L 824.04 132.97 L 831.23 132.97 L 838.42 132.97 L 845.61 132.97 L 852.81 132.97 L 860.00 132.97" fill="none" stroke="#111827" stroke-width="2"/>
    <circle cx="860.00" cy="132.97" r="3" fill="#111827"/>
    <text x="40.00" y="235.00" font-size="9" fill="#111827" text-anchor="middle" transform="rotate(-45 40.00 235.00)">09.08.2025</text><text x="119.12" y="235.00" font-size="9" fill="#111827" text-anchor="middle" transform="rotate(-45 119.12 235.00)">09.08.2025</text><text x="198.25" y="235.00" font-size="9" fill="#111827" text-anchor="middle" transform="rotate(-45 198.25 235.00)">09.08.2025</text><text x="277.37" y="235.00" font-size="9" fill="#111827" text-anchor="middle" transform="rotate(-45 277.37 235.00)">13.08.2025</text><text x="356.49" y="235.00" font-size="9" fill="#111827" text-anchor="middle" transform="rotate(-45 356.49 235.00)">20.08.2025</text><text x="435.61" y="235.00" font-size="9" fill="#111827" text-anchor="middle" transform="rotate(-45 435.61 235.00)">29.08.2025</text><text x="514.74" y="235.00" font-size="9" fill="#111827" text-anchor="middle" transform="rotate(-45 514.74 235.00)">09.09.2025</text><text x="593.86" y="235.00" font-size="9" fill="#111827" text-anchor="middle" transform="rotate(-45 593.86 235.00)">20.09.2025</text><text x="672.98" y="235.00" font-size="9" fill="#111827" text-anchor="middle" transform="rotate(-45 672.98 235.00)">01.10.2025</text><text x="752.11" y="235.00" font-size="9" fill="#111827" text-anchor="middle" transform="rotate(-45 752.11 235.00)">12.10.2025</text><text x="831.23" y="235.00" font-size="9" fill="#111827" text-anchor="middle" transform="rotate(-45 831.23 235.00)">23.10.2025</text>
  </g>
</svg>