<svg xmlns="http://www.w3.org/2000/svg" width="900" height="290" style="font-family: -apple-system, BlinkMacSystemFont, 'Segoe UI', Helvetica, Arial, sans-serif;">
  <rect width="100%" height="100%" fill="#0d1117"/>
  <g>
    <line x1="40" y1="220.00" x2="860" y2="220.00" stroke="#30363d"/><text x="32" y="224.00" font-size="10" fill="#c9d1d9" text-anchor="end">0</text><line x1="40" y1="175.00" x2="860" y2="175.00" stroke="#30363d"/><text x="32" y="179.00" font-size="10" fill="#c9d1d9" text-anchor="end">500</text><line x1="40" y1="130.00" x2="860" y2="130.00" stroke="#30363d"/><text x="32" y="134.00" font-size="10" fill="#c9d1d9" text-anchor="end">1k</text><line x1="40" y1="85.00" x2="860" y2="85.00" stroke="#30363d"/><text x="32" y="89.00" font-size="10" fill="#c9d1d9" text-anchor="end">1.5k</text><line x1="40" y1="40.00" x2="860" y2="40.00" stroke="#30363d"/><text x="32" y="44.00" font-size="10" fill="#c9d1d9" text-anchor="end">2k</text>
    <line x1="40.00" y1="40" x2="40.00" y2="220" stroke="#30363d" opacity="0.5"/><line x1="122.52" y1="40" x2="122.52" y2="220" stroke="#30363d" opacity="0.5"/><line x1="205.03" y1="40" x2="205.03" y2="220" stroke="#30363d" opacity="0.5"/><line x1="287.55" y1="40" x2="287.55" y2="220" stroke="#30363d" opacity="0.5"/><line x1="370.06" y1="40" x2="370.06" y2="220" stroke="#30363d" opacity="0.5"/><line x1="452.58" y1="40" x2="452.58" y2="220" stroke="#30363d" opacity="0.5"/><line x1="535.09" y1="40" x2="535.09" y2="220" stroke="#30363d" opacity="0.5"/><line x1="617.61" y1="40" x2="617.61" y2="220" stroke="#30363d" opacity="0.5"/><line x1="700.13" y1="40" x2="700.13" y2="220" stroke="#30363d" opacity="0.5"/><line x1="782.64" y1="40" x2="782.64" y2="220" stroke="#30363d" opacity="0.5"/>
    <line x1="40" y1="220" x2="860" y2="220" stroke="#30363d"/>
    <line x1="40" y1="40"   x2="40"   y2="220" stroke="#30363d"/>
    <path d="M 40.00 219.82 L 45.16 214.15 L 50.31 214.06 L 55.47 214.06 L 60.63 213.25 L 65.79 213.25 L 70.94 204.88 L 76.10 185.98 L 81.26 185.98 L 86.42 180.94 L 91.57 152.59 L 96.73 159.97 L 101.89 158.89 L 107.04 158.17 L 112.20 139.63 L 117.36 139.63 L 122.52 157.18 L 127.67 154.66 L 132.83 154.39 L 137.99 151.60 L 143.14 150.97 L 148.30 150.70 L 153.46 149.80 L 158.62 149.80 L 163.77 147.46 L 168.93 144.94 L 174.09 144.76 L 179.25 140.71 L 184.40 134.23 L 189.56 134.23 L 194.72 133.69 L 199.87 133.69 L 205.03 133.69 L 210.19 133.69 L 215.35 133.69 L 220.50 133.69 L 225.66 132.97 L 230.82 132.97 L 235.97 132.97 L 241.13 132.97 L 246.29 132.97 L 251.45 132.97 L 256.60 132.97 L 261.76 132.97 L 266.92 132.97 L 272.08 132.97 L 277.23 132.97 L 282.39 132.97 L 287.55 132.97 L 292.70 132.97 L 297.86 132.97 L 303.02 132.97 L 308.18 132.97 L 313.33 132.97 L 318.49 132.97 L 323.65 132.97 L 328.81 132.97 L 333.96 132.97 L 339.12 132.97 L 344.28 132.97 L 349.43 132.97 L 354.59 132.97 L 359.75 132.97 L 364.91 132.97 L 370.06 132.97 L 375.22 132.97 L 380.38 132.97 L 385.53 132.97 L 390.69 132.97 L 395.85 132.97 L 401.01 132.97 L 406.16 132.97 L 411.32 132.97 L 416.48 132.97 L 421.64 132.97 L 426.79 132.97 L 431.95 132.97 L 437.11 132.97 L 442.26 132.97 L 447.42 132.97 L 452.58 132.97 L 457.74 132.97 L 462.89 132.97 L 468.05 132.97 L 473.21 132.97 L 478.36 132.97 L 483.52 132.97 L 488.68 132.97 L 493.84 132.97 L 498.99 132.97 L 504.15 132.97 L 509.31 132.97 L 514.47 132.97 L 519.62 132.97 L 524.78 132.97 L 529.94 132.97 L 535.09 132.97 L 540.25 132.97 L 545.41 132.97 L 550.57 132.97 L 555.72 132.97 L 560.88 132.97 L 566.04 132.97 L 571.19 132.97 L 576.35 132.97 L 581.51 132.97 L 586.67 132.97 L 591.82 132.97 L 596.98 132.97 L 602.14 132.97 L 607.30 132.97 L 612.45 132.97 L 617.61 132.97 L 622.77 132.97 L 627.92 132.97 L 633.08 132.97 L 638.24 132.97 L 643.40 132.97 L 648.55 132.97 L 653.71 132.97 L 658.87 132.97 L 664.03 132.97 L 669.18 132.97 L 674.34 132.97 L 679.50 132.97 L 684.65 132.97 L 689.81 132.97 L 694.97 132.97 L 700.13 132.97 L 705.28 132.97 L 710.44 132.97 L 715.60 132.97 L 720.75 132.97 L 725.91 132.97 L 731.07 132.97 L 736.23 132.97 L 741.38 132.97 L 746.54 132.97 L 751.70 132.97 L 756.86 132.97 L 762.01 132.97 L 767.17 132.97 L 772.33 132.97 L 777.48 132.97 L 782.64 132.97 L 787.80 132.97 L 792.96 132.97 L 798.11 132.97 L 803.27 132.97 L 808.43 132.97 L 813.58 132.97 L 818.74 132.97 L 823.90 132.97 L 829.06 124.51 L 834.21 120.64 L 839.37 116.77 L 844.53 112.90 L 849.69 109.03 L 854.84 105.97 L 860.00 105.97" fill="none" stroke="#3fb950" stroke-width="2"/>
    <circle cx="860.00" cy="105.97" r="3" fill="#3fb950"/>
    <text x="40.00" y="235.00" font-size="9" fill="#c9d1d9" text-anchor="middle" transform="rotate(-45 40.00 235.00)">09.08.2025</text><text x="122.52" y="235.00" font-size="9" fill="#c9d1d9" text-anchor="middle" transform="rotate(-45 122.52 235.00)">09.08.2025</text><text x="205.03" y="235.00" font-size="9" fill="#c9d1d9" text-anchor="middle" transform="rotate(-45 205.03 235.00)">13.08.2025</text><text x="287.55" y="235.00" font-size="9" fill="#c9d1d9" text-anchor="middle" transform="rotate(-45 287.55 235.00)">24.08.2025</text><text x="370.06" y="235.00" font-size="9" fill="#c9d1d9" text-anchor="middle" transform="rotate(-45 370.06 235.00)">07.09.2025</text><text x="452.58" y="235.00" font-size="9" fill="#c9d1d9" text-anchor="middle" transform="rotate(-45 452.58 235.00)">23.09.2025</text><text x="535.09" y="235.00" font-size="9" fill="#c9d1d9" text-anchor="middle" transform="rotate(-45 535.09 235.00)">09.10.2025</text><text x="617.61" y="235.00" font-size="9" fill="#c9d1d9" text-anchor="middle" transform="rotate(-45 617.61 235.00)">25.10.2025</text><text x="700.13" y="235.00" font-size="9" fill="#c9d1d9" text-anchor="middle" transform="rotate(-45 700.13 235.00)">10.11.2025</text><text x="782.64" y="235.00" font-size="9" fill="#c9d1d9" text-anchor="middle" transform="rotate(-45 782.64 235.00)">26.11.2025</text>
  </g>
</svg>