<svg xmlns="http://www.w3.org/2000/svg" width="900" height="290" style="font-family: -apple-system, BlinkMacSystemFont, 'Segoe UI', Helvetica, Arial, sans-serif;">
  <rect width="100%" height="100%" fill="white"/>
  <g>
    <line x1="40" y1="220.00" x2="860" y2="220.00" stroke="#e5e7eb"/><text x="32" y="224.00" font-size="10" fill="#111827" text-anchor="end">0</text><line x1="40" y1="175.00" x2="860" y2="175.00" stroke="#e5e7eb"/><text x="32" y="179.00" font-size="10" fill="#111827" text-anchor="end">500</text><line x1="40" y1="130.00" x2="860" y2="130.00" stroke="#e5e7eb"/><text x="32" y="134.00" font-size="10" fill="#111827" text-anchor="end">1k</text><line x1="40" y1="85.00" x2="860" y2="85.00" stroke="#e5e7eb"/><text x="32" y="89.00" font-size="10" fill="#111827" text-anchor="end">1.5k</text><line x1="40" y1="40.00" x2="860" y2="40.00" stroke="#e5e7eb"/><text x="32" y="44.00" font-size="10" fill="#111827" text-anchor="end">2k</text>
    <line x1="40.00" y1="40" x2="40.00" y2="220" stroke="#e5e7eb" opacity="0.5"/><line x1="119.35" y1="40" x2="119.35" y2="220" stroke="#e5e7eb" opacity="0.5"/><line x1="198.71" y1="40" x2="198.71" y2="220" stroke="#e5e7eb" opacity="0.5"/><line x1="278.06" y1="40" x2="278.06" y2="220" stroke="#e5e7eb" opacity="0.5"/><line x1="357.42" y1="40" x2="357.42" y2="220" stroke="#e5e7eb" opacity="0.5"/><line x1="436.77" y1="40" x2="436.77" y2="220" stroke="#e5e7eb" opacity="0.5"/><line x1="516.13" y1="40" x2="516.13" y2="220" stroke="#e5e7eb" opacity="0.5"/><line x1="595.48" y1="40" x2="595.48" y2="220" stroke="#e5e7eb" opacity="0.5"/><line x1="674.84" y1="40" x2="674.84" y2="220" stroke="#e5e7eb" opacity="0.5"/><line x1="754.19" y1="40" x2="754.19" y2="220" stroke="#e5e7eb" opacity="0.5"/><line x1="833.55" y1="40" x2="833.55" y2="220" stroke="#e5e7eb" opacity="0.5"/>
    <line x1="40" y1="220" x2="860" y2="220" stroke="#9ca3af"/>
    <line x1="40" y1="40"   x2="40"   y2="220" stroke="#9ca3af"/>
    <path d="M 40.00 219.82 L 43.31 214.15 L 46.61 214.06 L 49.92 214.06 L 53.23 213.25 L 56.53 213.25 L 59.84 204.88 L 63.15 185.98 L 66.45 185.98 L 69.76 180.94 L 73.06 152.59 L 76.37 159.97 L 79.68 158.89 L 82.98 158.17 L 86.29 139.63 L 89.60 139.63 L 92.90 157.18 L 96.21 154.66 L 99.52 154.39 L 102.82 151.60 L 106.13 150.97 L 109.44 150.70 L 112.74 149.80 L 116.05 149.80 L 119.35 147.46 L 122.66 144.94 L 125.97 144.76 L 129.27 140.71 L 132.58 134.23 L 135.89 134.23 L 139.19 133.69 L 142.50 133.69 L 145.81 133.69 L 149.11 133.69 L 152.42 133.69 L 155.73 133.69 L 159.03 132.97 L 162.34 132.97 L 165.65 132.97 L 168.95 132.97 L 172.26 132.97 L 175.56 132.97 L 178.87 132.97 L 182.18 132.97 L 185.48 132.97 L 188.79 132.97 L 192.10 132.97 L 195.40 132.97 L 198.71 132.97 L 202.02 132.97 L 205.32 132.97 L 208.63 132.97 L 211.94 132.97 L 215.24 132.97 L 218.55 132.97 L 221.85 132.97 L 225.16 132.97 L 228.47 132.97 L 231.77 132.97 L 235.08 132.97 L 238.39 132.97 L 241.69 132.97 L 245.00 132.97 L 248.31 132.97 L 251.61 132.97 L 254.92 132.97 L 258.23 132.97 L 261.53 132.97 L 264.84 132.97 L 268.15 132.97 L 271.45 132.97 L 274.76 132.97 L 278.06 132.97 L 281.37 132.97 L 284.68 132.97 L 287.98 132.97 L 291.29 132.97 L 294.60 132.97 L 297.90 132.97 L 301.21 132.97 L 304.52 132.97 L 307.82 132.97 L 311.13 132.97 L 314.44 132.97 L 317.74 132.97 L 321.05 132.97 L 324.35 132.97 L 327.66 132.97 L 330.97 132.97 L 334.27 132.97 L 337.58 132.97 L 340.89 132.97 L 344.19 132.97 L 347.50 132.97 L 350.81 132.97 L 354.11 132.97 L 357.42 132.97 L 360.73 132.97 L 364.03 132.97 L 367.34 132.97 L 370.65 132.97 L 373.95 132.97 L 377.26 132.97 L 380.56 132.97 L 383.87 132.97 L 387.18 132.97 L 390.48 132.97 L 393.79 132.97 L 397.10 132.97 L 400.40 132.97 L 403.71 132.97 L 407.02 132.97 L 410.32 132.97 L 413.63 132.97 L 416.94 132.97 L 420.24 132.97 L 423.55 132.97 L 426.85 132.97 L 430.16 132.97 L 433.47 132.97 L 436.77 132.97 L 440.08 132.97 L 443.39 132.97 L 446.69 132.97 L 450.00 132.97 L 453.31 132.97 L 456.61 132.97 L 459.92 132.97 L 463.23 132.97 L 466.53 132.97 L 469.84 132.97 L 473.15 132.97 L 476.45 132.97 L 479.76 132.97 L 483.06 132.97 L 486.37 132.97 L 489.68 132.97 L 492.98 132.97 L 496.29 132.97 L 499.60 132.97 L 502.90 132.97 L 506.21 132.97 L 509.52 132.97 L 512.82 132.97 L 516.13 132.97 L 519.44 132.97 L 522.74 132.97 L 526.05 132.97 L 529.35 132.97 L 532.66 132.97 L 535.97 132.97 L 539.27 132.97 L 542.58 132.97 L 545.89 124.51 L 549.19 120.64 L 552.50 116.77 L 555.81 112.90 L 559.11 109.03 L 562.42 105.97 L 565.73 105.97 L 569.03 105.97 L 572.34 105.97 L 575.65 105.97 L 578.95 105.79 L 582.26 103.09 L 585.56 98.41 L 588.87 98.41 L 592.18 98.41 L 595.48 98.41 L 598.79 98.41 L 602.10 98.41 L 605.40 98.41 L 608.71 98.41 L 612.02 98.41 L 615.32 98.41 L 618.63 98.41 L 621.94 98.41 L 625.24 98.41 L 628.55 98.41 L 631.85 98.41 L 635.16 98.41 L 638.47 98.41 L 641.77 98.41 L 645.08 98.41 L 648.39 98.41 L 651.69 98.41 L 655.00 98.41 L 658.31 98.41 L 661.61 98.41 L 664.92 98.41 L 668.23 98.41 L 671.53 98.41 L 674.84 98.41 L 678.15 98.41 L 681.45 98.41 L 684.76 98.41 L 688.06 98.41 L 691.37 98.41 L 694.68 98.41 L 697.98 98.41 L 701.29 98.41 L 704.60 98.41 L 707.90 98.41 L 711.21 98.41 L 714.52 98.41 L 717.82 98.41 L 721.13 98.41 L 724.44 98.41 L 727.74 98.41 L 731.05 98.41 L 734.35 98.41 L 737.66 98.41 L 740.97 98.41 L 744.27 98.41 L 747.58 98.41 L 750.89 98.41 L 754.19 98.41 L 757.50 98.41 L 760.81 98.41 L 764.11 98.41 L 767.42 98.41 L 770.73 98.41 L 774.03 98.41 L 777.34 98.41 L 780.65 98.41 L 783.95 98.41 L 787.26 98.41 L 790.56 98.41 L 793.87 98.41 L 797.18 98.41 L 800.48 98.41 L 803.79 98.41 L 807.10 98.41 L 810.40 98.41 L 813.71 98.41 L 817.02 98.41 L 820.32 98.41 L 823.63 98.41 L 826.94 98.41 L 830.24 98.41 L 833.55 98.41 L 836.85 98.41 L 840.16 98.41 L 843.47 98.41 L 846.77 98.41 L 850.08 98.41 L 853.39 98.41 L 856.69 98.41 L 860.00 98.41" fill="none" stroke="#111827" stroke-width="2"/>
    <circle cx="860.00" cy="98.41" r="3" fill="#111827"/>
    <text x="40.00" y="235.00" font-size="9" fill="#111827" text-anchor="middle" transform="rotate(-45 40.00 235.00)">09.08.2025</text><text x="119.35" y="235.00" font-size="9" fill="#111827" text-anchor="middle" transform="rotate(-45 119.35 235.00)">09.08.2025</text><text x="198.71" y="235.00" font-size="9" fill="#111827" text-anchor="middle" transform="rotate(-45 198.71 235.00)">24.08.2025</text><text x="278.06" y="235.00" font-size="9" fill="#111827" text-anchor="middle" transform="rotate(-45 278.06 235.00)">15.09.2025</text><text x="357.42" y="235.00" font-size="9" fill="#111827" text-anchor="middle" transform="rotate(-45 357.42 235.00)">09.10.2025</text><text x="436.77" y="235.00" font-size="9" fill="#111827" text-anchor="middle" transform="rotate(-45 436.77 235.00)">02.11.2025</text><text x="516.13" y="235.00" font-size="9" fill="#111827" text-anchor="middle" transform="rotate(-45 516.13 235.00)">26.11.2025</text><text x="595.48" y="235.00" font-size="9" fill="#111827" text-anchor="middle" transform="rotate(-45 595.48 235.00)">10.12.2025</text><text x="674.84" y="235.00" font-size="9" fill="#111827" text-anchor="middle" transform="rotate(-45 674.84 235.00)">03.01.2026</text><text x="754.19" y="235.00" font-size="9" fill="#111827" text-anchor="middle" transform="rotate(-45 754.19 235.00)">27.01.2026</text><text x="833.55" y="235.00" font-size="9" fill="#111827" text-anchor="middle" transform="rotate(-45 833.55 235.00)">20.02.2026</text>
  </g>
</svg>