<svg xmlns="http://www.w3.org/2000/svg" width="900" height="290" style="font-family: -apple-system, BlinkMacSystemFont, 'Segoe UI', Helvetica, Arial, sans-serif;">
  <rect width="100%" height="100%" fill="#0d1117"/>
  <g>
    <line x1="40" y1="220.00" x2="860" y2="220.00" stroke="#30363d"/><text x="32" y="224.00" font-size="10" fill="#c9d1d9" text-anchor="end">0</text><line x1="40" y1="175.00" x2="860" y2="175.00" stroke="#30363d"/><text x="32" y="179.00" font-size="10" fill="#c9d1d9" text-anchor="end">500</text><line x1="40" y1="130.00" x2="860" y2="130.00" stroke="#30363d"/><text x="32" y="134.00" font-size="10" fill="#c9d1d9" text-anchor="end">1k</text><line x1="40" y1="85.00" x2="860" y2="85.00" stroke="#30363d"/><text x="32" y="89.00" font-size="10" fill="#c9d1d9" text-anchor="end">1.5k</text><line x1="40" y1="40.00" x2="860" y2="40.00" stroke="#30363d"/><text x="32" y="44.00" font-size="10" fill="#c9d1d9" text-anchor="end">2k</text>
    <line x1="40.00" y1="40" x2="40.00" y2="220" stroke="#30363d" opacity="0.5"/><line x1="122.00" y1="40" x2="122.00" y2="220" stroke="#30363d" opacity="0.5"/><line x1="204.00" y1="40" x2="204.00" y2="220" stroke="#30363d" opacity="0.5"/><line x1="286.00" y1="40" x2="286.00" y2="220" stroke="#30363d" opacity="0.5"/><line x1="368.00" y1="40" x2="368.00" y2="220" stroke="#30363d" opacity="0.5"/><line x1="450.00" y1="40" x2="450.00" y2="220" stroke="#30363d" opacity="0.5"/><line x1="532.00" y1="40" x2="532.00" y2="220" stroke="#30363d" opacity="0.5"/><line x1="614.00" y1="40" x2="614.00" y2="220" stroke="#30363d" opacity="0.5"/><line x1="696.00" y1="40" x2="696.00" y2="220" stroke="#30363d" opacity="0.5"/><line x1="778.00" y1="40" x2="778.00" y2="220" stroke="#30363d" opacity="0.5"/><line x1="860.00" y1="40" x2="860.00" y2="220" stroke="#30363d" opacity="0.5"/>
    <line x1="40" y1="220" x2="860" y2="220" stroke="#30363d"/>
    <line x1="40" y1="40"   x2="40"   y2="220" stroke="#30363d"/>
    <path d="M 40.00 219.82 L 47.45 214.15 L 54.91 214.06 L 62.36 214.06 L 69.82 213.25 L 77.27 213.25 L 84.73 204.88 L 92.18 185.98 L 99.64 185.98 L 107.09 180.94 L 114.55 152.59 L 122.00 159.97 L 129.45 158.89 L 136.91 158.17 L 144.36 139.63 L 151.82 139.63 L 159.27 157.18 L 166.73 154.66 L 174.18 154.39 L 181.64 151.60 L 189.09 150.97 L 196.55 150.70 L 204.00 149.80 L 211.45 149.80 L 218.91 147.46 L 226.36 144.94 L 233.82 144.76 L 241.27 140.71 L 248.73 134.23 L 256.18 134.23 L 263.64 133.69 L 271.09 133.69 L 278.55 133.69 L 286.00 133.69 L 293.45 133.69 L 300.91 133.69 L 308.36 132.97 L 315.82 132.97 L 323.27 132.97 L 330.73 132.97 L 338.18 132.97 L 345.64 132.97 L 353.09 132.97 L 360.55 132.97 L 368.00 132.97 L 375.45 132.97 L 382.91 132.97 L 390.36 132.97 L 397.82 132.97 L 405.27 132.97 L 412.73 132.97 L 420.18 132.97 L 427.64 132.97 L 435.09 132.97 L 442.55 132.97 L 450.00 132.97 L 457.45 132.97 L 464.91 132.97 L 472.36 132.97 L 479.82 132.97 L 487.27 132.97 L 494.73 132.97 L 502.18 132.97 L 509.64 132.97 L 517.09 132.97 L 524.55 132.97 L 532.00 132.97 L 539.45 132.97 L 546.91 132.97 L 554.36 132.97 L 561.82 132.97 L 569.27 132.97 L 576.73 132.97 L 584.18 132.97 L 591.64 132.97 L 599.09 132.97 L 606.55 132.97 L 614.00 132.97 L 621.45 132.97 L 628.91 132.97 L 636.36 132.97 L 643.82 132.97 L 651.27 132.97 L 658.73 132.97 L 666.18 132.97 L 673.64 132.97 L 681.09 132.97 L 688.55 132.97 L 696.00 132.97 L 703.45 132.97 L 710.91 132.97 L 718.36 132.97 L 725.82 132.97 L 733.27 132.97 L 740.73 132.97 L 748.18 132.97 L 755.64 132.97 L 763.09 132.97 L 770.55 132.97 L 778.00 132.97 L 785.45 132.97 L 792.91 132.97 L 800.36 132.97 L 807.82 132.97 L 815.27 132.97 L 822.73 132.97 L 830.18 132.97 L 837.64 132.97 L 845.09 132.97 L 852.55 132.97 L 860.00 132.97" fill="none" stroke="#3fb950" stroke-width="2"/>
    <circle cx="860.00" cy="132.97" r="3" fill="#3fb950"/>
    <text x="40.00" y="235.00" font-size="9" fill="#c9d1d9" text-anchor="middle" transform="rotate(-45 40.00 235.00)">09.08.2025</text><text x="122.00" y="235.00" font-size="9" fill="#c9d1d9" text-anchor="middle" transform="rotate(-45 122.00 235.00)">09.08.2025</text><text x="204.00" y="235.00" font-size="9" fill="#c9d1d9" text-anchor="middle" transform="rotate(-45 204.00 235.00)">09.08.2025</text><text x="286.00" y="235.00" font-size="9" fill="#c9d1d9" text-anchor="middle" transform="rotate(-45 286.00 235.00)">13.08.2025</text><text x="368.00" y="235.00" font-size="9" fill="#c9d1d9" text-anchor="middle" transform="rotate(-45 368.00 235.00)">20.08.2025</text><text x="450.00" y="235.00" font-size="9" fill="#c9d1d9" text-anchor="middle" transform="rotate(-45 450.00 235.00)">29.08.2025</text><text x="532.00" y="235.00" font-size="9" fill="#c9d1d9" text-anchor="middle" transform="rotate(-45 532.00 235.00)">09.09.2025</text><text x="614.00" y="235.00" font-size="9" fill="#c9d1d9" text-anchor="middle" transform="rotate(-45 614.00 235.00)">20.09.2025</text><text x="696.00" y="235.00" font-size="9" fill="#c9d1d9" text-anchor="middle" transform="rotate(-45 696.00 235.00)">01.10.2025</text><text x="778.00" y="235.00" font-size="9" fill="#c9d1d9" text-anchor="middle" transform="rotate(-45 778.00 235.00)">12.10.2025</text><text x="860.00" y="235.00" font-size="9" fill="#c9d1d9" text-anchor="middle" transform="rotate(-45 860.00 235.00)">23.10.2025</text>
  </g>
</svg>