<svg xmlns="http://www.w3.org/2000/svg" width="900" height="290" style="font-family: -apple-system, BlinkMacSystemFont, 'Segoe UI', Helvetica, Arial, sans-serif;">
  <rect width="100%" height="100%" fill="#0d1117"/>
  <g>
    <line x1="40" y1="220.00" x2="860" y2="220.00" stroke="#30363d"/><text x="32" y="224.00" font-size="10" fill="#c9d1d9" text-anchor="end">0</text><line x1="40" y1="175.00" x2="860" y2="175.00" stroke="#30363d"/><text x="32" y="179.00" font-size="10" fill="#c9d1d9" text-anchor="end">500</text><line x1="40" y1="130.00" x2="860" y2="130.00" stroke="#30363d"/><text x="32" y="134.00" font-size="10" fill="#c9d1d9" text-anchor="end">1k</text><line x1="40" y1="85.00" x2="860" y2="85.00" stroke="#30363d"/><text x="32" y="89.00" font-size="10" fill="#c9d1d9" text-anchor="end">1.5k</text><line x1="40" y1="40.00" x2="860" y2="40.00" stroke="#30363d"/><text x="32" y="44.00" font-size="10" fill="#c9d1d9" text-anchor="end">2k</text>
    <line x1="40.00" y1="40" x2="40.00" y2="220" stroke="#30363d" opacity="0.5"/><line x1="116.28" y1="40" x2="116.28" y2="220" stroke="#30363d" opacity="0.5"/><line x1="192.56" y1="40" x2="192.56" y2="220" stroke="#30363d" opacity="0.5"/><line x1="268.84" y1="40" x2="268.84" y2="220" stroke="#30363d" opacity="0.5"/><line x1="345.12" y1="40" x2="345.12" y2="220" stroke="#30363d" opacity="0.5"/><line x1="421.40" y1="40" x2="421.40" y2="220" stroke="#30363d" opacity="0.5"/><line x1="497.67" y1="40" x2="497.67" y2="220" stroke="#30363d" opacity="0.5"/><line x1="573.95" y1="40" x2="573.95" y2="220" stroke="#30363d" opacity="0.5"/><line x1="650.23" y1="40" x2="650.23" y2="220" stroke="#30363d" opacity="0.5"/><line x1="726.51" y1="40" x2="726.51" y2="220" stroke="#30363d" opacity="0.5"/><line x1="802.79" y1="40" x2="802.79" y2="220" stroke="#30363d" opacity="0.5"/>
    <line x1="40" y1="220" x2="860" y2="220" stroke="#30363d"/>
    <line x1="40" y1="40"   x2="40"   y2="220" stroke="#30363d"/>
    <path d="M 40.00 219.82 L 59.07 214.15 L 78.14 214.06 L 97.21 214.06 L 116.28 213.25 L 135.35 213.25 L 154.42 204.88 L 173.49 185.98 L 192.56 185.98 L 211.63 180.94 L 230.70 152.59 L 249.77 159.97 L 268.84 158.89 L 287.91 158.17 L 306.98 139.63 L 326.05 139.63 L 345.12 157.18 L 364.19 154.66 L 383.26 154.39 L 402.33 151.60 L 421.40 150.97 L 440.47 150.70 L 459.53 149.80 L 478.60 149.80 L 497.67 147.46 L 516.74 144.94 L 535.81 144.76 L 554.88 140.71 L 573.95 134.23 L 593.02 134.23 L 612.09 133.69 L 631.16 133.69 L 650.23 133.69 L 669.30 133.69 L 688.37 133.69 L 707.44 133.69 L 726.51 132.97 L 745.58 132.97 L 764.65 132.97 L 783.72 132.97 L 802.79 132.97 L 821.86 132.97 L 840.93 132.97 L 860.00 132.97" fill="none" stroke="#3fb950" stroke-width="2"/>
    <circle cx="860.00" cy="132.97" r="3" fill="#3fb950"/>
    <text x="40.00" y="235.00" font-size="9" fill="#c9d1d9" text-anchor="middle" transform="rotate(-45 40.00 235.00)">09.08.2025</text><text x="116.28" y="235.00" font-size="9" fill="#c9d1d9" text-anchor="middle" transform="rotate(-45 116.28 235.00)">09.08.2025</text><text x="192.56" y="235.00" font-size="9" fill="#c9d1d9" text-anchor="middle" transform="rotate(-45 192.56 235.00)">09.08.2025</text><text x="268.84" y="235.00" font-size="9" fill="#c9d1d9" text-anchor="middle" transform="rotate(-45 268.84 235.00)">09.08.2025</text><text x="345.12" y="235.00" font-size="9" fill="#c9d1d9" text-anchor="middle" transform="rotate(-45 345.12 235.00)">09.08.2025</text><text x="421.40" y="235.00" font-size="9" fill="#c9d1d9" text-anchor="middle" transform="rotate(-45 421.40 235.00)">09.08.2025</text><text x="497.67" y="235.00" font-size="9" fill="#c9d1d9" text-anchor="middle" transform="rotate(-45 497.67 235.00)">09.08.2025</text><text x="573.95" y="235.00" font-size="9" fill="#c9d1d9" text-anchor="middle" transform="rotate(-45 573.95 235.00)">13.08.2025</text><text x="650.23" y="235.00" font-size="9" fill="#c9d1d9" text-anchor="middle" transform="rotate(-45 650.23 235.00)">13.08.2025</text><text x="726.51" y="235.00" font-size="9" fill="#c9d1d9" text-anchor="middle" transform="rotate(-45 726.51 235.00)">13.08.2025</text><text x="802.79" y="235.00" font-size="9" fill="#c9d1d9" text-anchor="middle" transform="rotate(-45 802.79 235.00)">16.08.2025</text>
  </g>
</svg>