<svg xmlns="http://www.w3.org/2000/svg" width="900" height="290" style="font-family: -apple-system, BlinkMacSystemFont, 'Segoe UI', Helvetica, Arial, sans-serif;">
  <rect width="100%" height="100%" fill="#0d1117"/>
  <g>
    <line x1="40" y1="220.00" x2="860" y2="220.00" stroke="#30363d"/><text x="32" y="224.00" font-size="10" fill="#c9d1d9" text-anchor="end">0</text><line x1="40" y1="175.00" x2="860" y2="175.00" stroke="#30363d"/><text x="32" y="179.00" font-size="10" fill="#c9d1d9" text-anchor="end">500</text><line x1="40" y1="130.00" x2="860" y2="130.00" stroke="#30363d"/><text x="32" y="134.00" font-size="10" fill="#c9d1d9" text-anchor="end">1k</text><line x1="40" y1="85.00" x2="860" y2="85.00" stroke="#30363d"/><text x="32" y="89.00" font-size="10" fill="#c9d1d9" text-anchor="end">1.5k</text><line x1="40" y1="40.00" x2="860" y2="40.00" stroke="#30363d"/><text x="32" y="44.00" font-size="10" fill="#c9d1d9" text-anchor="end">2k</text>
    <line x1="40.00" y1="40" x2="40.00" y2="220" stroke="#30363d" opacity="0.5"/><line x1="117.81" y1="40" x2="117.81" y2="220" stroke="#30363d" opacity="0.5"/><line x1="195.62" y1="40" x2="195.62" y2="220" stroke="#30363d" opacity="0.5"/><line x1="273.43" y1="40" x2="273.43" y2="220" stroke="#30363d" opacity="0.5"/><line x1="351.24" y1="40" x2="351.24" y2="220" stroke="#30363d" opacity="0.5"/><line x1="429.05" y1="40" x2="429.05" y2="220" stroke="#30363d" opacity="0.5"/><line x1="506.86" y1="40" x2="506.86" y2="220" stroke="#30363d" opacity="0.5"/><line x1="584.67" y1="40" x2="584.67" y2="220" stroke="#30363d" opacity="0.5"/><line x1="662.48" y1="40" x2="662.48" y2="220" stroke="#30363d" opacity="0.5"/><line x1="740.29" y1="40" x2="740.29" y2="220" stroke="#30363d" opacity="0.5"/><line x1="818.10" y1="40" x2="818.10" y2="220" stroke="#30363d" opacity="0.5"/>
    <line x1="40" y1="220" x2="860" y2="220" stroke="#30363d"/>
    <line x1="40" y1="40"   x2="40"   y2="220" stroke="#30363d"/>
    <path d="M 40.00 219.82 L 45.99 214.15 L 51.97 214.06 L 57.96 214.06 L 63.94 213.25 L 69.93 213.25 L 75.91 204.88 L 81.90 185.98 L 87.88 185.98 L 93.87 180.94 L 99.85 152.59 L 105.84 159.97 L 111.82 158.89 L 117.81 158.17 L 123.80 139.63 L 129.78 139.63 L 135.77 157.18 L 141.75 154.66 L 147.74 154.39 L 153.72 151.60 L 159.71 150.97 L 165.69 150.70 L 171.68 149.80 L 177.66 149.80 L 183.65 147.46 L 189.64 144.94 L 195.62 144.76 L 201.61 140.71 L 207.59 134.23 L 213.58 134.23 L 219.56 133.69 L 225.55 133.69 L 231.53 133.69 L 237.52 133.69 L 243.50 133.69 L 249.49 133.69 L 255.47 132.97 L 261.46 132.97 L 267.45 132.97 L 273.43 132.97 L 279.42 132.97 L 285.40 132.97 L 291.39 132.97 L 297.37 132.97 L 303.36 132.97 L 309.34 132.97 L 315.33 132.97 L 321.31 132.97 L 327.30 132.97 L 333.28 132.97 L 339.27 132.97 L 345.26 132.97 L 351.24 132.97 L 357.23 132.97 L 363.21 132.97 L 369.20 132.97 L 375.18 132.97 L 381.17 132.97 L 387.15 132.97 L 393.14 132.97 L 399.12 132.97 L 405.11 132.97 L 411.09 132.97 L 417.08 132.97 L 423.07 132.97 L 429.05 132.97 L 435.04 132.97 L 441.02 132.97 L 447.01 132.97 L 452.99 132.97 L 458.98 132.97 L 464.96 132.97 L 470.95 132.97 L 476.93 132.97 L 482.92 132.97 L 488.91 132.97 L 494.89 132.97 L 500.88 132.97 L 506.86 132.97 L 512.85 132.97 L 518.83 132.97 L 524.82 132.97 L 530.80 132.97 L 536.79 132.97 L 542.77 132.97 L 548.76 132.97 L 554.74 132.97 L 560.73 132.97 L 566.72 132.97 L 572.70 132.97 L 578.69 132.97 L 584.67 132.97 L 590.66 132.97 L 596.64 132.97 L 602.63 132.97 L 608.61 132.97 L 614.60 132.97 L 620.58 132.97 L 626.57 132.97 L 632.55 132.97 L 638.54 132.97 L 644.53 132.97 L 650.51 132.97 L 656.50 132.97 L 662.48 132.97 L 668.47 132.97 L 674.45 132.97 L 680.44 132.97 L 686.42 132.97 L 692.41 132.97 L 698.39 132.97 L 704.38 132.97 L 710.36 132.97 L 716.35 132.97 L 722.34 132.97 L 728.32 132.97 L 734.31 132.97 L 740.29 132.97 L 746.28 132.97 L 752.26 132.97 L 758.25 132.97 L 764.23 132.97 L 770.22 132.97 L 776.20 132.97 L 782.19 132.97 L 788.18 132.97 L 794.16 132.97 L 800.15 132.97 L 806.13 132.97 L 812.12 132.97 L 818.10 132.97 L 824.09 132.97 L 830.07 132.97 L 836.06 132.97 L 842.04 132.97 L 848.03 132.97 L 854.01 132.97 L 860.00 132.97" fill="none" stroke="#3fb950" stroke-width="2"/>
    <circle cx="860.00" cy="132.97" r="3" fill="#3fb950"/>
    <text x="40.00" y="235.00" font-size="9" fill="#c9d1d9" text-anchor="middle" transform="rotate(-45 40.00 235.00)">09.08.2025</text><text x="117.81" y="235.00" font-size="9" fill="#c9d1d9" text-anchor="middle" transform="rotate(-45 117.81 235.00)">09.08.2025</text><text x="195.62" y="235.00" font-size="9" fill="#c9d1d9" text-anchor="middle" transform="rotate(-45 195.62 235.00)">09.08.2025</text><text x="273.43" y="235.00" font-size="9" fill="#c9d1d9" text-anchor="middle" transform="rotate(-45 273.43 235.00)">15.08.2025</text><text x="351.24" y="235.00" font-size="9" fill="#c9d1d9" text-anchor="middle" transform="rotate(-45 351.24 235.00)">28.08.2025</text><text x="429.05" y="235.00" font-size="9" fill="#c9d1d9" text-anchor="middle" transform="rotate(-45 429.05 235.00)">08.09.2025</text><text x="506.86" y="235.00" font-size="9" fill="#c9d1d9" text-anchor="middle" transform="rotate(-45 506.86 235.00)">21.09.2025</text><text x="584.67" y="235.00" font-size="9" fill="#c9d1d9" text-anchor="middle" transform="rotate(-45 584.67 235.00)">04.10.2025</text><text x="662.48" y="235.00" font-size="9" fill="#c9d1d9" text-anchor="middle" transform="rotate(-45 662.48 235.00)">17.10.2025</text><text x="740.29" y="235.00" font-size="9" fill="#c9d1d9" text-anchor="middle" transform="rotate(-45 740.29 235.00)">30.10.2025</text><text x="818.10" y="235.00" font-size="9" fill="#c9d1d9" text-anchor="middle" transform="rotate(-45 818.10 235.00)">12.11.2025</text>
  </g>
</svg>