<svg xmlns="http://www.w3.org/2000/svg" width="900" height="290" style="font-family: -apple-system, BlinkMacSystemFont, 'Segoe UI', Helvetica, Arial, sans-serif;">
  <rect width="100%" height="100%" fill="white"/>
  <g>
    <line x1="40" y1="220.00" x2="860" y2="220.00" stroke="#e5e7eb"/><text x="32" y="224.00" font-size="10" fill="#111827" text-anchor="end">0</text><line x1="40" y1="175.00" x2="860" y2="175.00" stroke="#e5e7eb"/><text x="32" y="179.00" font-size="10" fill="#111827" text-anchor="end">500</text><line x1="40" y1="130.00" x2="860" y2="130.00" stroke="#e5e7eb"/><text x="32" y="134.00" font-size="10" fill="#111827" text-anchor="end">1k</text><line x1="40" y1="85.00" x2="860" y2="85.00" stroke="#e5e7eb"/><text x="32" y="89.00" font-size="10" fill="#111827" text-anchor="end">1.5k</text><line x1="40" y1="40.00" x2="860" y2="40.00" stroke="#e5e7eb"/><text x="32" y="44.00" font-size="10" fill="#111827" text-anchor="end">2k</text>
    <line x1="40.00" y1="40" x2="40.00" y2="220" stroke="#e5e7eb" opacity="0.5"/><line x1="122.34" y1="40" x2="122.34" y2="220" stroke="#e5e7eb" opacity="0.5"/><line x1="204.69" y1="40" x2="204.69" y2="220" stroke="#e5e7eb" opacity="0.5"/><line x1="287.03" y1="40" x2="287.03" y2="220" stroke="#e5e7eb" opacity="0.5"/><line x1="369.37" y1="40" x2="369.37" y2="220" stroke="#e5e7eb" opacity="0.5"/><line x1="451.72" y1="40" x2="451.72" y2="220" stroke="#e5e7eb" opacity="0.5"/><line x1="534.06" y1="40" x2="534.06" y2="220" stroke="#e5e7eb" opacity="0.5"/><line x1="616.40" y1="40" x2="616.40" y2="220" stroke="#e5e7eb" opacity="0.5"/><line x1="698.74" y1="40" x2="698.74" y2="220" stroke="#e5e7eb" opacity="0.5"/><line x1="781.09" y1="40" x2="781.09" y2="220" stroke="#e5e7eb" opacity="0.5"/>
    <line x1="40" y1="220" x2="860" y2="220" stroke="#9ca3af"/>
    <line x1="40" y1="40"   x2="40"   y2="220" stroke="#9ca3af"/>
    <path d="M 40.00 219.82 L 43.43 214.15 L 46.86 214.06 L 50.29 214.06 L 53.72 213.25 L 57.15 213.25 L 60.59 204.88 L 64.02 185.98 L 67.45 185.98 L 70.88 180.94 L 74.31 152.59 L 77.74 159.97 L 81.17 158.89 L 84.60 158.17 L 88.03 139.63 L 91.46 139.63 L 94.90 157.18 L 98.33 154.66 L 101.76 154.39 L 105.19 151.60 L 108.62 150.97 L 112.05 150.70 L 115.48 149.80 L 118.91 149.80 L 122.34 147.46 L 125.77 144.94 L 129.21 144.76 L 132.64 140.71 L 136.07 134.23 L 139.50 134.23 L 142.93 133.69 L 146.36 133.69 L 149.79 133.69 L 153.22 133.69 L 156.65 133.69 L 160.08 133.69 L 163.51 132.97 L 166.95 132.97 L 170.38 132.97 L 173.81 132.97 L 177.24 132.97 L 180.67 132.97 L 184.10 132.97 L 187.53 132.97 L 190.96 132.97 L 194.39 132.97 L 197.82 132.97 L 201.26 132.97 L 204.69 132.97 L 208.12 132.97 L 211.55 132.97 L 214.98 132.97 L 218.41 132.97 L 221.84 132.97 L 225.27 132.97 L 228.70 132.97 L 232.13 132.97 L 235.56 132.97 L 239.00 132.97 L 242.43 132.97 L 245.86 132.97 L 249.29 132.97 L 252.72 132.97 L 256.15 132.97 L 259.58 132.97 L 263.01 132.97 L 266.44 132.97 L 269.87 132.97 L 273.31 132.97 L 276.74 132.97 L 280.17 132.97 L 283.60 132.97 L 287.03 132.97 L 290.46 132.97 L 293.89 132.97 L 297.32 132.97 L 300.75 132.97 L 304.18 132.97 L 307.62 132.97 L 311.05 132.97 L 314.48 132.97 L 317.91 132.97 L 321.34 132.97 L 324.77 132.97 L 328.20 132.97 L 331.63 132.97 L 335.06 132.97 L 338.49 132.97 L 341.92 132.97 L 345.36 132.97 L 348.79 132.97 L 352.22 132.97 L 355.65 132.97 L 359.08 132.97 L 362.51 132.97 L 365.94 132.97 L 369.37 132.97 L 372.80 132.97 L 376.23 132.97 L 379.67 132.97 L 383.10 132.97 L 386.53 132.97 L 389.96 132.97 L 393.39 132.97 L 396.82 132.97 L 400.25 132.97 L 403.68 132.97 L 407.11 132.97 L 410.54 132.97 L 413.97 132.97 L 417.41 132.97 L 420.84 132.97 L 424.27 132.97 L 427.70 132.97 L 431.13 132.97 L 434.56 132.97 L 437.99 132.97 L 441.42 132.97 L 444.85 132.97 L 448.28 132.97 L 451.72 132.97 L 455.15 132.97 L 458.58 132.97 L 462.01 132.97 L 465.44 132.97 L 468.87 132.97 L 472.30 132.97 L 475.73 132.97 L 479.16 132.97 L 482.59 132.97 L 486.03 132.97 L 489.46 132.97 L 492.89 132.97 L 496.32 132.97 L 499.75 132.97 L 503.18 132.97 L 506.61 132.97 L 510.04 132.97 L 513.47 132.97 L 516.90 132.97 L 520.33 132.97 L 523.77 132.97 L 527.20 132.97 L 530.63 132.97 L 534.06 132.97 L 537.49 132.97 L 540.92 132.97 L 544.35 132.97 L 547.78 132.97 L 551.21 132.97 L 554.64 132.97 L 558.08 132.97 L 561.51 132.97 L 564.94 124.51 L 568.37 120.64 L 571.80 116.77 L 575.23 112.90 L 578.66 109.03 L 582.09 105.97 L 585.52 105.97 L 588.95 105.97 L 592.38 105.97 L 595.82 105.97 L 599.25 105.79 L 602.68 103.09 L 606.11 98.41 L 609.54 98.41 L 612.97 98.41 L 616.40 98.41 L 619.83 98.41 L 623.26 98.41 L 626.69 98.41 L 630.13 98.41 L 633.56 98.41 L 636.99 98.41 L 640.42 98.41 L 643.85 98.41 L 647.28 98.41 L 650.71 98.41 L 654.14 98.41 L 657.57 98.41 L 661.00 98.41 L 664.44 98.41 L 667.87 98.41 L 671.30 98.41 L 674.73 98.41 L 678.16 98.41 L 681.59 98.41 L 685.02 98.41 L 688.45 98.41 L 691.88 98.41 L 695.31 98.41 L 698.74 98.41 L 702.18 98.41 L 705.61 98.41 L 709.04 98.41 L 712.47 98.41 L 715.90 98.41 L 719.33 98.41 L 722.76 98.41 L 726.19 98.41 L 729.62 98.41 L 733.05 98.41 L 736.49 98.41 L 739.92 98.41 L 743.35 98.41 L 746.78 98.41 L 750.21 98.41 L 753.64 98.41 L 757.07 98.41 L 760.50 98.41 L 763.93 98.41 L 767.36 98.41 L 770.79 98.41 L 774.23 98.41 L 777.66 98.41 L 781.09 98.41 L 784.52 98.41 L 787.95 98.41 L 791.38 98.41 L 794.81 98.41 L 798.24 98.41 L 801.67 98.41 L 805.10 98.41 L 808.54 98.41 L 811.97 98.41 L 815.40 98.41 L 818.83 98.41 L 822.26 98.41 L 825.69 98.41 L 829.12 98.41 L 832.55 98.41 L 835.98 98.41 L 839.41 98.41 L 842.85 98.41 L 846.28 98.41 L 849.71 98.41 L 853.14 98.41 L 856.57 98.41 L 860.00 98.41" fill="none" stroke="#111827" stroke-width="2"/>
    <circle cx="860.00" cy="98.41" r="3" fill="#111827"/>
    <text x="40.00" y="235.00" font-size="9" fill="#111827" text-anchor="middle" transform="rotate(-45 40.00 235.00)">09.08.2025</text><text x="122.34" y="235.00" font-size="9" fill="#111827" text-anchor="middle" transform="rotate(-45 122.34 235.00)">09.08.2025</text><text x="204.69" y="235.00" font-size="9" fill="#111827" text-anchor="middle" transform="rotate(-45 204.69 235.00)">24.08.2025</text><text x="287.03" y="235.00" font-size="9" fill="#111827" text-anchor="middle" transform="rotate(-45 287.03 235.00)">15.09.2025</text><text x="369.37" y="235.00" font-size="9" fill="#111827" text-anchor="middle" transform="rotate(-45 369.37 235.00)">09.10.2025</text><text x="451.72" y="235.00" font-size="9" fill="#111827" text-anchor="middle" transform="rotate(-45 451.72 235.00)">02.11.2025</text><text x="534.06" y="235.00" font-size="9" fill="#111827" text-anchor="middle" transform="rotate(-45 534.06 235.00)">26.11.2025</text><text x="616.40" y="235.00" font-size="9" fill="#111827" text-anchor="middle" transform="rotate(-45 616.40 235.00)">10.12.2025</text><text x="698.74" y="235.00" font-size="9" fill="#111827" text-anchor="middle" transform="rotate(-45 698.74 235.00)">03.01.2026</text><text x="781.09" y="235.00" font-size="9" fill="#111827" text-anchor="middle" transform="rotate(-45 781.09 235.00)">27.01.2026</text>
  </g>
</svg>