<svg xmlns="http://www.w3.org/2000/svg" width="900" height="290" style="font-family: -apple-system, BlinkMacSystemFont, 'Segoe UI', Helvetica, Arial, sans-serif;">
  <rect width="100%" height="100%" fill="#0d1117"/>
  <g>
    <line x1="40" y1="220.00" x2="860" y2="220.00" stroke="#30363d"/><text x="32" y="224.00" font-size="10" fill="#c9d1d9" text-anchor="end">0</text><line x1="40" y1="175.00" x2="860" y2="175.00" stroke="#30363d"/><text x="32" y="179.00" font-size="10" fill="#c9d1d9" text-anchor="end">500</text><line x1="40" y1="130.00" x2="860" y2="130.00" stroke="#30363d"/><text x="32" y="134.00" font-size="10" fill="#c9d1d9" text-anchor="end">1k</text><line x1="40" y1="85.00" x2="860" y2="85.00" stroke="#30363d"/><text x="32" y="89.00" font-size="10" fill="#c9d1d9" text-anchor="end">1.5k</text><line x1="40" y1="40.00" x2="860" y2="40.00" stroke="#30363d"/><text x="32" y="44.00" font-size="10" fill="#c9d1d9" text-anchor="end">2k</text>
    <line x1="40.00" y1="40" x2="40.00" y2="220" stroke="#30363d" opacity="0.5"/><line x1="120.26" y1="40" x2="120.26" y2="220" stroke="#30363d" opacity="0.5"/><line x1="200.51" y1="40" x2="200.51" y2="220" stroke="#30363d" opacity="0.5"/><line x1="280.77" y1="40" x2="280.77" y2="220" stroke="#30363d" opacity="0.5"/><line x1="361.02" y1="40" x2="361.02" y2="220" stroke="#30363d" opacity="0.5"/><line x1="441.28" y1="40" x2="441.28" y2="220" stroke="#30363d" opacity="0.5"/><line x1="521.53" y1="40" x2="521.53" y2="220" stroke="#30363d" opacity="0.5"/><line x1="601.79" y1="40" x2="601.79" y2="220" stroke="#30363d" opacity="0.5"/><line x1="682.04" y1="40" x2="682.04" y2="220" stroke="#30363d" opacity="0.5"/><line x1="762.30" y1="40" x2="762.30" y2="220" stroke="#30363d" opacity="0.5"/><line x1="842.55" y1="40" x2="842.55" y2="220" stroke="#30363d" opacity="0.5"/>
    <line x1="40" y1="220" x2="860" y2="220" stroke="#30363d"/>
    <line x1="40" y1="40"   x2="40"   y2="220" stroke="#30363d"/>
    <path d="M 40.00 219.82 L 43.49 214.15 L 46.98 214.06 L 50.47 214.06 L 53.96 213.25 L 57.45 213.25 L 60.94 204.88 L 64.43 185.98 L 67.91 185.98 L 71.40 180.94 L 74.89 152.59 L 78.38 159.97 L 81.87 158.89 L 85.36 158.17 L 88.85 139.63 L 92.34 139.63 L 95.83 157.18 L 99.32 154.66 L 102.81 154.39 L 106.30 151.60 L 109.79 150.97 L 113.28 150.70 L 116.77 149.80 L 120.26 149.80 L 123.74 147.46 L 127.23 144.94 L 130.72 144.76 L 134.21 140.71 L 137.70 134.23 L 141.19 134.23 L 144.68 133.69 L 148.17 133.69 L 151.66 133.69 L 155.15 133.69 L 158.64 133.69 L 162.13 133.69 L 165.62 132.97 L 169.11 132.97 L 172.60 132.97 L 176.09 132.97 L 179.57 132.97 L 183.06 132.97 L 186.55 132.97 L 190.04 132.97 L 193.53 132.97 L 197.02 132.97 L 200.51 132.97 L 204.00 132.97 L 207.49 132.97 L 210.98 132.97 L 214.47 132.97 L 217.96 132.97 L 221.45 132.97 L 224.94 132.97 L 228.43 132.97 L 231.91 132.97 L 235.40 132.97 L 238.89 132.97 L 242.38 132.97 L 245.87 132.97 L 249.36 132.97 L 252.85 132.97 L 256.34 132.97 L 259.83 132.97 L 263.32 132.97 L 266.81 132.97 L 270.30 132.97 L 273.79 132.97 L 277.28 132.97 L 280.77 132.97 L 284.26 132.97 L 287.74 132.97 L 291.23 132.97 L 294.72 132.97 L 298.21 132.97 L 301.70 132.97 L 305.19 132.97 L 308.68 132.97 L 312.17 132.97 L 315.66 132.97 L 319.15 132.97 L 322.64 132.97 L 326.13 132.97 L 329.62 132.97 L 333.11 132.97 L 336.60 132.97 L 340.09 132.97 L 343.57 132.97 L 347.06 132.97 L 350.55 132.97 L 354.04 132.97 L 357.53 132.97 L 361.02 132.97 L 364.51 132.97 L 368.00 132.97 L 371.49 132.97 L 374.98 132.97 L 378.47 132.97 L 381.96 132.97 L 385.45 132.97 L 388.94 132.97 L 392.43 132.97 L 395.91 132.97 L 399.40 132.97 L 402.89 132.97 L 406.38 132.97 L 409.87 132.97 L 413.36 132.97 L 416.85 132.97 L 420.34 132.97 L 423.83 132.97 L 427.32 132.97 L 430.81 132.97 L 434.30 132.97 L 437.79 132.97 L 441.28 132.97 L 444.77 132.97 L 448.26 132.97 L 451.74 132.97 L 455.23 132.97 L 458.72 132.97 L 462.21 132.97 L 465.70 132.97 L 469.19 132.97 L 472.68 132.97 L 476.17 132.97 L 479.66 132.97 L 483.15 132.97 L 486.64 132.97 L 490.13 132.97 L 493.62 132.97 L 497.11 132.97 L 500.60 132.97 L 504.09 132.97 L 507.57 132.97 L 511.06 132.97 L 514.55 132.97 L 518.04 132.97 L 521.53 132.97 L 525.02 132.97 L 528.51 132.97 L 532.00 132.97 L 535.49 132.97 L 538.98 132.97 L 542.47 132.97 L 545.96 132.97 L 549.45 132.97 L 552.94 132.97 L 556.43 132.97 L 559.91 132.97 L 563.40 132.97 L 566.89 132.97 L 570.38 132.97 L 573.87 124.51 L 577.36 120.64 L 580.85 116.77 L 584.34 112.90 L 587.83 109.03 L 591.32 105.97 L 594.81 105.97 L 598.30 105.97 L 601.79 105.97 L 605.28 105.97 L 608.77 105.79 L 612.26 103.09 L 615.74 98.41 L 619.23 98.41 L 622.72 98.41 L 626.21 98.41 L 629.70 98.41 L 633.19 98.41 L 636.68 98.41 L 640.17 98.41 L 643.66 98.41 L 647.15 98.41 L 650.64 98.41 L 654.13 98.41 L 657.62 98.41 L 661.11 98.41 L 664.60 98.41 L 668.09 98.41 L 671.57 98.41 L 675.06 98.41 L 678.55 98.41 L 682.04 98.41 L 685.53 98.41 L 689.02 98.41 L 692.51 98.41 L 696.00 98.41 L 699.49 98.41 L 702.98 98.41 L 706.47 98.41 L 709.96 98.41 L 713.45 98.41 L 716.94 98.41 L 720.43 98.41 L 723.91 98.41 L 727.40 98.41 L 730.89 98.41 L 734.38 98.41 L 737.87 98.41 L 741.36 98.41 L 744.85 98.41 L 748.34 98.41 L 751.83 98.41 L 755.32 98.41 L 758.81 98.41 L 762.30 98.41 L 765.79 98.41 L 769.28 98.41 L 772.77 98.41 L 776.26 98.41 L 779.74 98.41 L 783.23 98.41 L 786.72 98.41 L 790.21 98.41 L 793.70 98.41 L 797.19 98.41 L 800.68 98.41 L 804.17 98.41 L 807.66 98.41 L 811.15 98.41 L 814.64 98.41 L 818.13 98.41 L 821.62 98.41 L 825.11 98.41 L 828.60 98.41 L 832.09 98.41 L 835.57 98.41 L 839.06 98.41 L 842.55 98.41 L 846.04 98.41 L 849.53 98.41 L 853.02 98.41 L 856.51 98.41 L 860.00 98.41" fill="none" stroke="#3fb950" stroke-width="2"/>
    <circle cx="860.00" cy="98.41" r="3" fill="#3fb950"/>
    <text x="40.00" y="235.00" font-size="9" fill="#c9d1d9" text-anchor="middle" transform="rotate(-45 40.00 235.00)">09.08.2025</text><text x="120.26" y="235.00" font-size="9" fill="#c9d1d9" text-anchor="middle" transform="rotate(-45 120.26 235.00)">09.08.2025</text><text x="200.51" y="235.00" font-size="9" fill="#c9d1d9" text-anchor="middle" transform="rotate(-45 200.51 235.00)">22.08.2025</text><text x="280.77" y="235.00" font-size="9" fill="#c9d1d9" text-anchor="middle" transform="rotate(-45 280.77 235.00)">12.09.2025</text><text x="361.02" y="235.00" font-size="9" fill="#c9d1d9" text-anchor="middle" transform="rotate(-45 361.02 235.00)">05.10.2025</text><text x="441.28" y="235.00" font-size="9" fill="#c9d1d9" text-anchor="middle" transform="rotate(-45 441.28 235.00)">28.10.2025</text><text x="521.53" y="235.00" font-size="9" fill="#c9d1d9" text-anchor="middle" transform="rotate(-45 521.53 235.00)">20.11.2025</text><text x="601.79" y="235.00" font-size="9" fill="#c9d1d9" text-anchor="middle" transform="rotate(-45 601.79 235.00)">06.12.2025</text><text x="682.04" y="235.00" font-size="9" fill="#c9d1d9" text-anchor="middle" transform="rotate(-45 682.04 235.00)">26.12.2025</text><text x="762.30" y="235.00" font-size="9" fill="#c9d1d9" text-anchor="middle" transform="rotate(-45 762.30 235.00)">18.01.2026</text><text x="842.55" y="235.00" font-size="9" fill="#c9d1d9" text-anchor="middle" transform="rotate(-45 842.55 235.00)">10.02.2026</text>
  </g>
</svg>