<svg xmlns="http://www.w3.org/2000/svg" width="900" height="290" style="font-family: -apple-system, BlinkMacSystemFont, 'Segoe UI', Helvetica, Arial, sans-serif;">
  <rect width="100%" height="100%" fill="#0d1117"/>
  <g>
    <line x1="40" y1="220.00" x2="860" y2="220.00" stroke="#30363d"/><text x="32" y="224.00" font-size="10" fill="#c9d1d9" text-anchor="end">0</text><line x1="40" y1="175.00" x2="860" y2="175.00" stroke="#30363d"/><text x="32" y="179.00" font-size="10" fill="#c9d1d9" text-anchor="end">500</text><line x1="40" y1="130.00" x2="860" y2="130.00" stroke="#30363d"/><text x="32" y="134.00" font-size="10" fill="#c9d1d9" text-anchor="end">1k</text><line x1="40" y1="85.00" x2="860" y2="85.00" stroke="#30363d"/><text x="32" y="89.00" font-size="10" fill="#c9d1d9" text-anchor="end">1.5k</text><line x1="40" y1="40.00" x2="860" y2="40.00" stroke="#30363d"/><text x="32" y="44.00" font-size="10" fill="#c9d1d9" text-anchor="end">2k</text>
    <line x1="40.00" y1="40" x2="40.00" y2="220" stroke="#30363d" opacity="0.5"/><line x1="115.40" y1="40" x2="115.40" y2="220" stroke="#30363d" opacity="0.5"/><line x1="190.80" y1="40" x2="190.80" y2="220" stroke="#30363d" opacity="0.5"/><line x1="266.21" y1="40" x2="266.21" y2="220" stroke="#30363d" opacity="0.5"/><line x1="341.61" y1="40" x2="341.61" y2="220" stroke="#30363d" opacity="0.5"/><line x1="417.01" y1="40" x2="417.01" y2="220" stroke="#30363d" opacity="0.5"/><line x1="492.41" y1="40" x2="492.41" y2="220" stroke="#30363d" opacity="0.5"/><line x1="567.82" y1="40" x2="567.82" y2="220" stroke="#30363d" opacity="0.5"/><line x1="643.22" y1="40" x2="643.22" y2="220" stroke="#30363d" opacity="0.5"/><line x1="718.62" y1="40" x2="718.62" y2="220" stroke="#30363d" opacity="0.5"/><line x1="794.02" y1="40" x2="794.02" y2="220" stroke="#30363d" opacity="0.5"/>
    <line x1="40" y1="220" x2="860" y2="220" stroke="#30363d"/>
    <line x1="40" y1="40"   x2="40"   y2="220" stroke="#30363d"/>
    <path d="M 40.00 219.82 L 49.43 214.15 L 58.85 214.06 L 68.28 214.06 L 77.70 213.25 L 87.13 213.25 L 96.55 204.88 L 105.98 185.98 L 115.40 185.98 L 124.83 180.94 L 134.25 152.59 L 143.68 159.97 L 153.10 158.89 L 162.53 158.17 L 171.95 139.63 L 181.38 139.63 L 190.80 157.18 L 200.23 154.66 L 209.66 154.39 L 219.08 151.60 L 228.51 150.97 L 237.93 150.70 L 247.36 149.80 L 256.78 149.80 L 266.21 147.46 L 275.63 144.94 L 285.06 144.76 L 294.48 140.71 L 303.91 134.23 L 313.33 134.23 L 322.76 133.69 L 332.18 133.69 L 341.61 133.69 L 351.03 133.69 L 360.46 133.69 L 369.89 133.69 L 379.31 132.97 L 388.74 132.97 L 398.16 132.97 L 407.59 132.97 L 417.01 132.97 L 426.44 132.97 L 435.86 132.97 L 445.29 132.97 L 454.71 132.97 L 464.14 132.97 L 473.56 132.97 L 482.99 132.97 L 492.41 132.97 L 501.84 132.97 L 511.26 132.97 L 520.69 132.97 L 530.11 132.97 L 539.54 132.97 L 548.97 132.97 L 558.39 132.97 L 567.82 132.97 L 577.24 132.97 L 586.67 132.97 L 596.09 132.97 L 605.52 132.97 L 614.94 132.97 L 624.37 132.97 L 633.79 132.97 L 643.22 132.97 L 652.64 132.97 L 662.07 132.97 L 671.49 132.97 L 680.92 132.97 L 690.34 132.97 L 699.77 132.97 L 709.20 132.97 L 718.62 132.97 L 728.05 132.97 L 737.47 132.97 L 746.90 132.97 L 756.32 132.97 L 765.75 132.97 L 775.17 132.97 L 784.60 132.97 L 794.02 132.97 L 803.45 132.97 L 812.87 132.97 L 822.30 132.97 L 831.72 132.97 L 841.15 132.97 L 850.57 132.97 L 860.00 132.97" fill="none" stroke="#3fb950" stroke-width="2"/>
    <circle cx="860.00" cy="132.97" r="3" fill="#3fb950"/>
    <text x="40.00" y="235.00" font-size="9" fill="#c9d1d9" text-anchor="middle" transform="rotate(-45 40.00 235.00)">09.08.2025</text><text x="115.40" y="235.00" font-size="9" fill="#c9d1d9" text-anchor="middle" transform="rotate(-45 115.40 235.00)">09.08.2025</text><text x="190.80" y="235.00" font-size="9" fill="#c9d1d9" text-anchor="middle" transform="rotate(-45 190.80 235.00)">09.08.2025</text><text x="266.21" y="235.00" font-size="9" fill="#c9d1d9" text-anchor="middle" transform="rotate(-45 266.21 235.00)">09.08.2025</text><text x="341.61" y="235.00" font-size="9" fill="#c9d1d9" text-anchor="middle" transform="rotate(-45 341.61 235.00)">13.08.2025</text><text x="417.01" y="235.00" font-size="9" fill="#c9d1d9" text-anchor="middle" transform="rotate(-45 417.01 235.00)">16.08.2025</text><text x="492.41" y="235.00" font-size="9" fill="#c9d1d9" text-anchor="middle" transform="rotate(-45 492.41 235.00)">24.08.2025</text><text x="567.82" y="235.00" font-size="9" fill="#c9d1d9" text-anchor="middle" transform="rotate(-45 567.82 235.00)">30.08.2025</text><text x="643.22" y="235.00" font-size="9" fill="#c9d1d9" text-anchor="middle" transform="rotate(-45 643.22 235.00)">07.09.2025</text><text x="718.62" y="235.00" font-size="9" fill="#c9d1d9" text-anchor="middle" transform="rotate(-45 718.62 235.00)">15.09.2025</text><text x="794.02" y="235.00" font-size="9" fill="#c9d1d9" text-anchor="middle" transform="rotate(-45 794.02 235.00)">23.09.2025</text>
  </g>
</svg>