<svg xmlns="http://www.w3.org/2000/svg" width="900" height="290" style="font-family: -apple-system, BlinkMacSystemFont, 'Segoe UI', Helvetica, Arial, sans-serif;">
  <rect width="100%" height="100%" fill="#0d1117"/>
  <g>
    <line x1="40" y1="220.00" x2="860" y2="220.00" stroke="#30363d"/><text x="32" y="224.00" font-size="10" fill="#c9d1d9" text-anchor="end">0</text><line x1="40" y1="175.00" x2="860" y2="175.00" stroke="#30363d"/><text x="32" y="179.00" font-size="10" fill="#c9d1d9" text-anchor="end">500</text><line x1="40" y1="130.00" x2="860" y2="130.00" stroke="#30363d"/><text x="32" y="134.00" font-size="10" fill="#c9d1d9" text-anchor="end">1k</text><line x1="40" y1="85.00" x2="860" y2="85.00" stroke="#30363d"/><text x="32" y="89.00" font-size="10" fill="#c9d1d9" text-anchor="end">1.5k</text><line x1="40" y1="40.00" x2="860" y2="40.00" stroke="#30363d"/><text x="32" y="44.00" font-size="10" fill="#c9d1d9" text-anchor="end">2k</text>
    <line x1="40.00" y1="40" x2="40.00" y2="220" stroke="#30363d" opacity="0.5"/><line x1="120.79" y1="40" x2="120.79" y2="220" stroke="#30363d" opacity="0.5"/><line x1="201.58" y1="40" x2="201.58" y2="220" stroke="#30363d" opacity="0.5"/><line x1="282.36" y1="40" x2="282.36" y2="220" stroke="#30363d" opacity="0.5"/><line x1="363.15" y1="40" x2="363.15" y2="220" stroke="#30363d" opacity="0.5"/><line x1="443.94" y1="40" x2="443.94" y2="220" stroke="#30363d" opacity="0.5"/><line x1="524.73" y1="40" x2="524.73" y2="220" stroke="#30363d" opacity="0.5"/><line x1="605.52" y1="40" x2="605.52" y2="220" stroke="#30363d" opacity="0.5"/><line x1="686.31" y1="40" x2="686.31" y2="220" stroke="#30363d" opacity="0.5"/><line x1="767.09" y1="40" x2="767.09" y2="220" stroke="#30363d" opacity="0.5"/><line x1="847.88" y1="40" x2="847.88" y2="220" stroke="#30363d" opacity="0.5"/>
    <line x1="40" y1="220" x2="860" y2="220" stroke="#30363d"/>
    <line x1="40" y1="40"   x2="40"   y2="220" stroke="#30363d"/>
    <path d="M 40.00 219.82 L 44.04 214.15 L 48.08 214.06 L 52.12 214.06 L 56.16 213.25 L 60.20 213.25 L 64.24 204.88 L 68.28 185.98 L 72.32 185.98 L 76.35 180.94 L 80.39 152.59 L 84.43 159.97 L 88.47 158.89 L 92.51 158.17 L 96.55 139.63 L 100.59 139.63 L 104.63 157.18 L 108.67 154.66 L 112.71 154.39 L 116.75 151.60 L 120.79 150.97 L 124.83 150.70 L 128.87 149.80 L 132.91 149.80 L 136.95 147.46 L 140.99 144.94 L 145.02 144.76 L 149.06 140.71 L 153.10 134.23 L 157.14 134.23 L 161.18 133.69 L 165.22 133.69 L 169.26 133.69 L 173.30 133.69 L 177.34 133.69 L 181.38 133.69 L 185.42 132.97 L 189.46 132.97 L 193.50 132.97 L 197.54 132.97 L 201.58 132.97 L 205.62 132.97 L 209.66 132.97 L 213.69 132.97 L 217.73 132.97 L 221.77 132.97 L 225.81 132.97 L 229.85 132.97 L 233.89 132.97 L 237.93 132.97 L 241.97 132.97 L 246.01 132.97 L 250.05 132.97 L 254.09 132.97 L 258.13 132.97 L 262.17 132.97 L 266.21 132.97 L 270.25 132.97 L 274.29 132.97 L 278.33 132.97 L 282.36 132.97 L 286.40 132.97 L 290.44 132.97 L 294.48 132.97 L 298.52 132.97 L 302.56 132.97 L 306.60 132.97 L 310.64 132.97 L 314.68 132.97 L 318.72 132.97 L 322.76 132.97 L 326.80 132.97 L 330.84 132.97 L 334.88 132.97 L 338.92 132.97 L 342.96 132.97 L 347.00 132.97 L 351.03 132.97 L 355.07 132.97 L 359.11 132.97 L 363.15 132.97 L 367.19 132.97 L 371.23 132.97 L 375.27 132.97 L 379.31 132.97 L 383.35 132.97 L 387.39 132.97 L 391.43 132.97 L 395.47 132.97 L 399.51 132.97 L 403.55 132.97 L 407.59 132.97 L 411.63 132.97 L 415.67 132.97 L 419.70 132.97 L 423.74 132.97 L 427.78 132.97 L 431.82 132.97 L 435.86 132.97 L 439.90 132.97 L 443.94 132.97 L 447.98 132.97 L 452.02 132.97 L 456.06 132.97 L 460.10 132.97 L 464.14 132.97 L 468.18 132.97 L 472.22 132.97 L 476.26 132.97 L 480.30 132.97 L 484.33 132.97 L 488.37 132.97 L 492.41 132.97 L 496.45 132.97 L 500.49 132.97 L 504.53 132.97 L 508.57 132.97 L 512.61 132.97 L 516.65 132.97 L 520.69 132.97 L 524.73 132.97 L 528.77 132.97 L 532.81 132.97 L 536.85 132.97 L 540.89 132.97 L 544.93 132.97 L 548.97 132.97 L 553.00 132.97 L 557.04 132.97 L 561.08 132.97 L 565.12 132.97 L 569.16 132.97 L 573.20 132.97 L 577.24 132.97 L 581.28 132.97 L 585.32 132.97 L 589.36 132.97 L 593.40 132.97 L 597.44 132.97 L 601.48 132.97 L 605.52 132.97 L 609.56 132.97 L 613.60 132.97 L 617.64 132.97 L 621.67 132.97 L 625.71 132.97 L 629.75 132.97 L 633.79 132.97 L 637.83 132.97 L 641.87 132.97 L 645.91 132.97 L 649.95 132.97 L 653.99 132.97 L 658.03 124.51 L 662.07 120.64 L 666.11 116.77 L 670.15 112.90 L 674.19 109.03 L 678.23 105.97 L 682.27 105.97 L 686.31 105.97 L 690.34 105.97 L 694.38 105.97 L 698.42 105.79 L 702.46 103.09 L 706.50 98.41 L 710.54 98.41 L 714.58 98.41 L 718.62 98.41 L 722.66 98.41 L 726.70 98.41 L 730.74 98.41 L 734.78 98.41 L 738.82 98.41 L 742.86 98.41 L 746.90 98.41 L 750.94 98.41 L 754.98 98.41 L 759.01 98.41 L 763.05 98.41 L 767.09 98.41 L 771.13 98.41 L 775.17 98.41 L 779.21 98.41 L 783.25 98.41 L 787.29 98.41 L 791.33 98.41 L 795.37 98.41 L 799.41 98.41 L 803.45 98.41 L 807.49 98.41 L 811.53 98.41 L 815.57 98.41 L 819.61 98.41 L 823.65 98.41 L 827.68 98.41 L 831.72 98.41 L 835.76 98.41 L 839.80 98.41 L 843.84 98.41 L 847.88 98.41 L 851.92 98.41 L 855.96 98.41 L 860.00 98.41" fill="none" stroke="#3fb950" stroke-width="2"/>
    <circle cx="860.00" cy="98.41" r="3" fill="#3fb950"/>
    <text x="40.00" y="235.00" font-size="9" fill="#c9d1d9" text-anchor="middle" transform="rotate(-45 40.00 235.00)">09.08.2025</text><text x="120.79" y="235.00" font-size="9" fill="#c9d1d9" text-anchor="middle" transform="rotate(-45 120.79 235.00)">09.08.2025</text><text x="201.58" y="235.00" font-size="9" fill="#c9d1d9" text-anchor="middle" transform="rotate(-45 201.58 235.00)">16.08.2025</text><text x="282.36" y="235.00" font-size="9" fill="#c9d1d9" text-anchor="middle" transform="rotate(-45 282.36 235.00)">03.09.2025</text><text x="363.15" y="235.00" font-size="9" fill="#c9d1d9" text-anchor="middle" transform="rotate(-45 363.15 235.00)">23.09.2025</text><text x="443.94" y="235.00" font-size="9" fill="#c9d1d9" text-anchor="middle" transform="rotate(-45 443.94 235.00)">13.10.2025</text><text x="524.73" y="235.00" font-size="9" fill="#c9d1d9" text-anchor="middle" transform="rotate(-45 524.73 235.00)">02.11.2025</text><text x="605.52" y="235.00" font-size="9" fill="#c9d1d9" text-anchor="middle" transform="rotate(-45 605.52 235.00)">22.11.2025</text><text x="686.31" y="235.00" font-size="9" fill="#c9d1d9" text-anchor="middle" transform="rotate(-45 686.31 235.00)">05.12.2025</text><text x="767.09" y="235.00" font-size="9" fill="#c9d1d9" text-anchor="middle" transform="rotate(-45 767.09 235.00)">22.12.2025</text><text x="847.88" y="235.00" font-size="9" fill="#c9d1d9" text-anchor="middle" transform="rotate(-45 847.88 235.00)">11.01.2026</text>
  </g>
</svg>