<svg xmlns="http://www.w3.org/2000/svg" width="900" height="290" style="font-family: -apple-system, BlinkMacSystemFont, 'Segoe UI', Helvetica, Arial, sans-serif;">
  <rect width="100%" height="100%" fill="white"/>
  <g>
    <line x1="40" y1="220.00" x2="860" y2="220.00" stroke="#e5e7eb"/><text x="32" y="224.00" font-size="10" fill="#111827" text-anchor="end">0</text><line x1="40" y1="175.00" x2="860" y2="175.00" stroke="#e5e7eb"/><text x="32" y="179.00" font-size="10" fill="#111827" text-anchor="end">500</text><line x1="40" y1="130.00" x2="860" y2="130.00" stroke="#e5e7eb"/><text x="32" y="134.00" font-size="10" fill="#111827" text-anchor="end">1k</text><line x1="40" y1="85.00" x2="860" y2="85.00" stroke="#e5e7eb"/><text x="32" y="89.00" font-size="10" fill="#111827" text-anchor="end">1.5k</text><line x1="40" y1="40.00" x2="860" y2="40.00" stroke="#e5e7eb"/><text x="32" y="44.00" font-size="10" fill="#111827" text-anchor="end">2k</text>
    <line x1="40.00" y1="40" x2="40.00" y2="220" stroke="#e5e7eb" opacity="0.5"/><line x1="120.00" y1="40" x2="120.00" y2="220" stroke="#e5e7eb" opacity="0.5"/><line x1="200.00" y1="40" x2="200.00" y2="220" stroke="#e5e7eb" opacity="0.5"/><line x1="280.00" y1="40" x2="280.00" y2="220" stroke="#e5e7eb" opacity="0.5"/><line x1="360.00" y1="40" x2="360.00" y2="220" stroke="#e5e7eb" opacity="0.5"/><line x1="440.00" y1="40" x2="440.00" y2="220" stroke="#e5e7eb" opacity="0.5"/><line x1="520.00" y1="40" x2="520.00" y2="220" stroke="#e5e7eb" opacity="0.5"/><line x1="600.00" y1="40" x2="600.00" y2="220" stroke="#e5e7eb" opacity="0.5"/><line x1="680.00" y1="40" x2="680.00" y2="220" stroke="#e5e7eb" opacity="0.5"/><line x1="760.00" y1="40" x2="760.00" y2="220" stroke="#e5e7eb" opacity="0.5"/><line x1="840.00" y1="40" x2="840.00" y2="220" stroke="#e5e7eb" opacity="0.5"/>
    <line x1="40" y1="220" x2="860" y2="220" stroke="#9ca3af"/>
    <line x1="40" y1="40"   x2="40"   y2="220" stroke="#9ca3af"/>
    <path d="M 40.00 219.82 L 44.00 214.15 L 48.00 214.06 L 52.00 214.06 L 56.00 213.25 L 60.00 213.25 L 64.00 204.88 L 68.00 185.98 L 72.00 185.98 L 76.00 180.94 L 80.00 152.59 L 84.00 159.97 L 88.00 158.89 L 92.00 158.17 L 96.00 139.63 L 100.00 139.63 L 104.00 157.18 L 108.00 154.66 L 112.00 154.39 L 116.00 151.60 L 120.00 150.97 L 124.00 150.70 L 128.00 149.80 L 132.00 149.80 L 136.00 147.46 L 140.00 144.94 L 144.00 144.76 L 148.00 140.71 L 152.00 134.23 L 156.00 134.23 L 160.00 133.69 L 164.00 133.69 L 168.00 133.69 L 172.00 133.69 L 176.00 133.69 L 180.00 133.69 L 184.00 132.97 L 188.00 132.97 L 192.00 132.97 L 196.00 132.97 L 200.00 132.97 L 204.00 132.97 L 208.00 132.97 L 212.00 132.97 L 216.00 132.97 L 220.00 132.97 L 224.00 132.97 L 228.00 132.97 L 232.00 132.97 L 236.00 132.97 L 240.00 132.97 L 244.00 132.97 L 248.00 132.97 L 252.00 132.97 L 256.00 132.97 L 260.00 132.97 L 264.00 132.97 L 268.00 132.97 L 272.00 132.97 L 276.00 132.97 L 280.00 132.97 L 284.00 132.97 L 288.00 132.97 L 292.00 132.97 L 296.00 132.97 L 300.00 132.97 L 304.00 132.97 L 308.00 132.97 L 312.00 132.97 L 316.00 132.97 L 320.00 132.97 L 324.00 132.97 L 328.00 132.97 L 332.00 132.97 L 336.00 132.97 L 340.00 132.97 L 344.00 132.97 L 348.00 132.97 L 352.00 132.97 L 356.00 132.97 L 360.00 132.97 L 364.00 132.97 L 368.00 132.97 L 372.00 132.97 L 376.00 132.97 L 380.00 132.97 L 384.00 132.97 L 388.00 132.97 L 392.00 132.97 L 396.00 132.97 L 400.00 132.97 L 404.00 132.97 L 408.00 132.97 L 412.00 132.97 L 416.00 132.97 L 420.00 132.97 L 424.00 132.97 L 428.00 132.97 L 432.00 132.97 L 436.00 132.97 L 440.00 132.97 L 444.00 132.97 L 448.00 132.97 L 452.00 132.97 L 456.00 132.97 L 460.00 132.97 L 464.00 132.97 L 468.00 132.97 L 472.00 132.97 L 476.00 132.97 L 480.00 132.97 L 484.00 132.97 L 488.00 132.97 L 492.00 132.97 L 496.00 132.97 L 500.00 132.97 L 504.00 132.97 L 508.00 132.97 L 512.00 132.97 L 516.00 132.97 L 520.00 132.97 L 524.00 132.97 L 528.00 132.97 L 532.00 132.97 L 536.00 132.97 L 540.00 132.97 L 544.00 132.97 L 548.00 132.97 L 552.00 132.97 L 556.00 132.97 L 560.00 132.97 L 564.00 132.97 L 568.00 132.97 L 572.00 132.97 L 576.00 132.97 L 580.00 132.97 L 584.00 132.97 L 588.00 132.97 L 592.00 132.97 L 596.00 132.97 L 600.00 132.97 L 604.00 132.97 L 608.00 132.97 L 612.00 132.97 L 616.00 132.97 L 620.00 132.97 L 624.00 132.97 L 628.00 132.97 L 632.00 132.97 L 636.00 132.97 L 640.00 132.97 L 644.00 132.97 L 648.00 132.97 L 652.00 124.51 L 656.00 120.64 L 660.00 116.77 L 664.00 112.90 L 668.00 109.03 L 672.00 105.97 L 676.00 105.97 L 680.00 105.97 L 684.00 105.97 L 688.00 105.97 L 692.00 105.79 L 696.00 103.09 L 700.00 98.41 L 704.00 98.41 L 708.00 98.41 L 712.00 98.41 L 716.00 98.41 L 720.00 98.41 L 724.00 98.41 L 728.00 98.41 L 732.00 98.41 L 736.00 98.41 L 740.00 98.41 L 744.00 98.41 L 748.00 98.41 L 752.00 98.41 L 756.00 98.41 L 760.00 98.41 L 764.00 98.41 L 768.00 98.41 L 772.00 98.41 L 776.00 98.41 L 780.00 98.41 L 784.00 98.41 L 788.00 98.41 L 792.00 98.41 L 796.00 98.41 L 800.00 98.41 L 804.00 98.41 L 808.00 98.41 L 812.00 98.41 L 816.00 98.41 L 820.00 98.41 L 824.00 98.41 L 828.00 98.41 L 832.00 98.41 L 836.00 98.41 L 840.00 98.41 L 844.00 98.41 L 848.00 98.41 L 852.00 98.41 L 856.00 98.41 L 860.00 98.41" fill="none" stroke="#111827" stroke-width="2"/>
    <circle cx="860.00" cy="98.41" r="3" fill="#111827"/>
    <text x="40.00" y="235.00" font-size="9" fill="#111827" text-anchor="middle" transform="rotate(-45 40.00 235.00)">09.08.2025</text><text x="120.00" y="235.00" font-size="9" fill="#111827" text-anchor="middle" transform="rotate(-45 120.00 235.00)">09.08.2025</text><text x="200.00" y="235.00" font-size="9" fill="#111827" text-anchor="middle" transform="rotate(-45 200.00 235.00)">16.08.2025</text><text x="280.00" y="235.00" font-size="9" fill="#111827" text-anchor="middle" transform="rotate(-45 280.00 235.00)">03.09.2025</text><text x="360.00" y="235.00" font-size="9" fill="#111827" text-anchor="middle" transform="rotate(-45 360.00 235.00)">23.09.2025</text><text x="440.00" y="235.00" font-size="9" fill="#111827" text-anchor="middle" transform="rotate(-45 440.00 235.00)">13.10.2025</text><text x="520.00" y="235.00" font-size="9" fill="#111827" text-anchor="middle" transform="rotate(-45 520.00 235.00)">02.11.2025</text><text x="600.00" y="235.00" font-size="9" fill="#111827" text-anchor="middle" transform="rotate(-45 600.00 235.00)">22.11.2025</text><text x="680.00" y="235.00" font-size="9" fill="#111827" text-anchor="middle" transform="rotate(-45 680.00 235.00)">05.12.2025</text><text x="760.00" y="235.00" font-size="9" fill="#111827" text-anchor="middle" transform="rotate(-45 760.00 235.00)">22.12.2025</text><text x="840.00" y="235.00" font-size="9" fill="#111827" text-anchor="middle" transform="rotate(-45 840.00 235.00)">11.01.2026</text>
  </g>
</svg>