<svg xmlns="http://www.w3.org/2000/svg" width="900" height="290" style="font-family: -apple-system, BlinkMacSystemFont, 'Segoe UI', Helvetica, Arial, sans-serif;">
  <rect width="100%" height="100%" fill="white"/>
  <g>
    <line x1="40" y1="220.00" x2="860" y2="220.00" stroke="#e5e7eb"/><text x="32" y="224.00" font-size="10" fill="#111827" text-anchor="end">0</text><line x1="40" y1="175.00" x2="860" y2="175.00" stroke="#e5e7eb"/><text x="32" y="179.00" font-size="10" fill="#111827" text-anchor="end">500</text><line x1="40" y1="130.00" x2="860" y2="130.00" stroke="#e5e7eb"/><text x="32" y="134.00" font-size="10" fill="#111827" text-anchor="end">1k</text><line x1="40" y1="85.00" x2="860" y2="85.00" stroke="#e5e7eb"/><text x="32" y="89.00" font-size="10" fill="#111827" text-anchor="end">1.5k</text><line x1="40" y1="40.00" x2="860" y2="40.00" stroke="#e5e7eb"/><text x="32" y="44.00" font-size="10" fill="#111827" text-anchor="end">2k</text>
    <line x1="40.00" y1="40" x2="40.00" y2="220" stroke="#e5e7eb" opacity="0.5"/><line x1="113.21" y1="40" x2="113.21" y2="220" stroke="#e5e7eb" opacity="0.5"/><line x1="186.43" y1="40" x2="186.43" y2="220" stroke="#e5e7eb" opacity="0.5"/><line x1="259.64" y1="40" x2="259.64" y2="220" stroke="#e5e7eb" opacity="0.5"/><line x1="332.86" y1="40" x2="332.86" y2="220" stroke="#e5e7eb" opacity="0.5"/><line x1="406.07" y1="40" x2="406.07" y2="220" stroke="#e5e7eb" opacity="0.5"/><line x1="479.29" y1="40" x2="479.29" y2="220" stroke="#e5e7eb" opacity="0.5"/><line x1="552.50" y1="40" x2="552.50" y2="220" stroke="#e5e7eb" opacity="0.5"/><line x1="625.71" y1="40" x2="625.71" y2="220" stroke="#e5e7eb" opacity="0.5"/><line x1="698.93" y1="40" x2="698.93" y2="220" stroke="#e5e7eb" opacity="0.5"/><line x1="772.14" y1="40" x2="772.14" y2="220" stroke="#e5e7eb" opacity="0.5"/><line x1="845.36" y1="40" x2="845.36" y2="220" stroke="#e5e7eb" opacity="0.5"/>
    <line x1="40" y1="220" x2="860" y2="220" stroke="#9ca3af"/>
    <line x1="40" y1="40"   x2="40"   y2="220" stroke="#9ca3af"/>
    <path d="M 40.00 219.82 L 54.64 214.15 L 69.29 214.06 L 83.93 214.06 L 98.57 213.25 L 113.21 213.25 L 127.86 204.88 L 142.50 185.98 L 157.14 185.98 L 171.79 180.94 L 186.43 152.59 L 201.07 159.97 L 215.71 158.89 L 230.36 158.17 L 245.00 139.63 L 259.64 139.63 L 274.29 157.18 L 288.93 154.66 L 303.57 154.39 L 318.21 151.60 L 332.86 150.97 L 347.50 150.70 L 362.14 149.80 L 376.79 149.80 L 391.43 147.46 L 406.07 144.94 L 420.71 144.76 L 435.36 140.71 L 450.00 134.23 L 464.64 134.23 L 479.29 133.69 L 493.93 133.69 L 508.57 133.69 L 523.21 133.69 L 537.86 133.69 L 552.50 133.69 L 567.14 132.97 L 581.79 132.97 L 596.43 132.97 L 611.07 132.97 L 625.71 132.97 L 640.36 132.97 L 655.00 132.97 L 669.64 132.97 L 684.29 132.97 L 698.93 132.97 L 713.57 132.97 L 728.21 132.97 L 742.86 132.97 L 757.50 132.97 L 772.14 132.97 L 786.79 132.97 L 801.43 132.97 L 816.07 132.97 L 830.71 132.97 L 845.36 132.97 L 860.00 132.97" fill="none" stroke="#111827" stroke-width="2"/>
    <circle cx="860.00" cy="132.97" r="3" fill="#111827"/>
    <text x="40.00" y="235.00" font-size="9" fill="#111827" text-anchor="middle" transform="rotate(-45 40.00 235.00)">09.08.2025</text><text x="113.21" y="235.00" font-size="9" fill="#111827" text-anchor="middle" transform="rotate(-45 113.21 235.00)">09.08.2025</text><text x="186.43" y="235.00" font-size="9" fill="#111827" text-anchor="middle" transform="rotate(-45 186.43 235.00)">09.08.2025</text><text x="259.64" y="235.00" font-size="9" fill="#111827" text-anchor="middle" transform="rotate(-45 259.64 235.00)">09.08.2025</text><text x="332.86" y="235.00" font-size="9" fill="#111827" text-anchor="middle" transform="rotate(-45 332.86 235.00)">09.08.2025</text><text x="406.07" y="235.00" font-size="9" fill="#111827" text-anchor="middle" transform="rotate(-45 406.07 235.00)">09.08.2025</text><text x="479.29" y="235.00" font-size="9" fill="#111827" text-anchor="middle" transform="rotate(-45 479.29 235.00)">13.08.2025</text><text x="552.50" y="235.00" font-size="9" fill="#111827" text-anchor="middle" transform="rotate(-45 552.50 235.00)">13.08.2025</text><text x="625.71" y="235.00" font-size="9" fill="#111827" text-anchor="middle" transform="rotate(-45 625.71 235.00)">16.08.2025</text><text x="698.93" y="235.00" font-size="9" fill="#111827" text-anchor="middle" transform="rotate(-45 698.93 235.00)">21.08.2025</text><text x="772.14" y="235.00" font-size="9" fill="#111827" text-anchor="middle" transform="rotate(-45 772.14 235.00)">26.08.2025</text><text x="845.36" y="235.00" font-size="9" fill="#111827" text-anchor="middle" transform="rotate(-45 845.36 235.00)">29.08.2025</text>
  </g>
</svg>