<svg xmlns="http://www.w3.org/2000/svg" width="900" height="290" style="font-family: -apple-system, BlinkMacSystemFont, 'Segoe UI', Helvetica, Arial, sans-serif;">
  <rect width="100%" height="100%" fill="white"/>
  <g>
    <line x1="40" y1="220.00" x2="860" y2="220.00" stroke="#e5e7eb"/><text x="32" y="224.00" font-size="10" fill="#111827" text-anchor="end">0</text><line x1="40" y1="175.00" x2="860" y2="175.00" stroke="#e5e7eb"/><text x="32" y="179.00" font-size="10" fill="#111827" text-anchor="end">500</text><line x1="40" y1="130.00" x2="860" y2="130.00" stroke="#e5e7eb"/><text x="32" y="134.00" font-size="10" fill="#111827" text-anchor="end">1k</text><line x1="40" y1="85.00" x2="860" y2="85.00" stroke="#e5e7eb"/><text x="32" y="89.00" font-size="10" fill="#111827" text-anchor="end">1.5k</text><line x1="40" y1="40.00" x2="860" y2="40.00" stroke="#e5e7eb"/><text x="32" y="44.00" font-size="10" fill="#111827" text-anchor="end">2k</text>
    <line x1="40.00" y1="40" x2="40.00" y2="220" stroke="#e5e7eb" opacity="0.5"/><line x1="122.55" y1="40" x2="122.55" y2="220" stroke="#e5e7eb" opacity="0.5"/><line x1="205.10" y1="40" x2="205.10" y2="220" stroke="#e5e7eb" opacity="0.5"/><line x1="287.65" y1="40" x2="287.65" y2="220" stroke="#e5e7eb" opacity="0.5"/><line x1="370.20" y1="40" x2="370.20" y2="220" stroke="#e5e7eb" opacity="0.5"/><line x1="452.75" y1="40" x2="452.75" y2="220" stroke="#e5e7eb" opacity="0.5"/><line x1="535.30" y1="40" x2="535.30" y2="220" stroke="#e5e7eb" opacity="0.5"/><line x1="617.85" y1="40" x2="617.85" y2="220" stroke="#e5e7eb" opacity="0.5"/><line x1="700.40" y1="40" x2="700.40" y2="220" stroke="#e5e7eb" opacity="0.5"/><line x1="782.95" y1="40" x2="782.95" y2="220" stroke="#e5e7eb" opacity="0.5"/>
    <line x1="40" y1="220" x2="860" y2="220" stroke="#9ca3af"/>
    <line x1="40" y1="40"   x2="40"   y2="220" stroke="#9ca3af"/>
    <path d="M 40.00 219.82 L 45.50 214.15 L 51.01 214.06 L 56.51 214.06 L 62.01 213.25 L 67.52 213.25 L 73.02 204.88 L 78.52 185.98 L 84.03 185.98 L 89.53 180.94 L 95.03 152.59 L 100.54 159.97 L 106.04 158.89 L 111.54 158.17 L 117.05 139.63 L 122.55 139.63 L 128.05 157.18 L 133.56 154.66 L 139.06 154.39 L 144.56 151.60 L 150.07 150.97 L 155.57 150.70 L 161.07 149.80 L 166.58 149.80 L 172.08 147.46 L 177.58 144.94 L 183.09 144.76 L 188.59 140.71 L 194.09 134.23 L 199.60 134.23 L 205.10 133.69 L 210.60 133.69 L 216.11 133.69 L 221.61 133.69 L 227.11 133.69 L 232.62 133.69 L 238.12 132.97 L 243.62 132.97 L 249.13 132.97 L 254.63 132.97 L 260.13 132.97 L 265.64 132.97 L 271.14 132.97 L 276.64 132.97 L 282.15 132.97 L 287.65 132.97 L 293.15 132.97 L 298.66 132.97 L 304.16 132.97 L 309.66 132.97 L 315.17 132.97 L 320.67 132.97 L 326.17 132.97 L 331.68 132.97 L 337.18 132.97 L 342.68 132.97 L 348.19 132.97 L 353.69 132.97 L 359.19 132.97 L 364.70 132.97 L 370.20 132.97 L 375.70 132.97 L 381.21 132.97 L 386.71 132.97 L 392.21 132.97 L 397.72 132.97 L 403.22 132.97 L 408.72 132.97 L 414.23 132.97 L 419.73 132.97 L 425.23 132.97 L 430.74 132.97 L 436.24 132.97 L 441.74 132.97 L 447.25 132.97 L 452.75 132.97 L 458.26 132.97 L 463.76 132.97 L 469.26 132.97 L 474.77 132.97 L 480.27 132.97 L 485.77 132.97 L 491.28 132.97 L 496.78 132.97 L 502.28 132.97 L 507.79 132.97 L 513.29 132.97 L 518.79 132.97 L 524.30 132.97 L 529.80 132.97 L 535.30 132.97 L 540.81 132.97 L 546.31 132.97 L 551.81 132.97 L 557.32 132.97 L 562.82 132.97 L 568.32 132.97 L 573.83 132.97 L 579.33 132.97 L 584.83 132.97 L 590.34 132.97 L 595.84 132.97 L 601.34 132.97 L 606.85 132.97 L 612.35 132.97 L 617.85 132.97 L 623.36 132.97 L 628.86 132.97 L 634.36 132.97 L 639.87 132.97 L 645.37 132.97 L 650.87 132.97 L 656.38 132.97 L 661.88 132.97 L 667.38 132.97 L 672.89 132.97 L 678.39 132.97 L 683.89 132.97 L 689.40 132.97 L 694.90 132.97 L 700.40 132.97 L 705.91 132.97 L 711.41 132.97 L 716.91 132.97 L 722.42 132.97 L 727.92 132.97 L 733.42 132.97 L 738.93 132.97 L 744.43 132.97 L 749.93 132.97 L 755.44 132.97 L 760.94 132.97 L 766.44 132.97 L 771.95 132.97 L 777.45 132.97 L 782.95 132.97 L 788.46 132.97 L 793.96 132.97 L 799.46 132.97 L 804.97 132.97 L 810.47 132.97 L 815.97 132.97 L 821.48 132.97 L 826.98 132.97 L 832.48 132.97 L 837.99 132.97 L 843.49 132.97 L 848.99 132.97 L 854.50 132.97 L 860.00 132.97" fill="none" stroke="#111827" stroke-width="2"/>
    <circle cx="860.00" cy="132.97" r="3" fill="#111827"/>
    <text x="40.00" y="235.00" font-size="9" fill="#111827" text-anchor="middle" transform="rotate(-45 40.00 235.00)">09.08.2025</text><text x="122.55" y="235.00" font-size="9" fill="#111827" text-anchor="middle" transform="rotate(-45 122.55 235.00)">09.08.2025</text><text x="205.10" y="235.00" font-size="9" fill="#111827" text-anchor="middle" transform="rotate(-45 205.10 235.00)">13.08.2025</text><text x="287.65" y="235.00" font-size="9" fill="#111827" text-anchor="middle" transform="rotate(-45 287.65 235.00)">21.08.2025</text><text x="370.20" y="235.00" font-size="9" fill="#111827" text-anchor="middle" transform="rotate(-45 370.20 235.00)">03.09.2025</text><text x="452.75" y="235.00" font-size="9" fill="#111827" text-anchor="middle" transform="rotate(-45 452.75 235.00)">18.09.2025</text><text x="535.30" y="235.00" font-size="9" fill="#111827" text-anchor="middle" transform="rotate(-45 535.30 235.00)">03.10.2025</text><text x="617.85" y="235.00" font-size="9" fill="#111827" text-anchor="middle" transform="rotate(-45 617.85 235.00)">18.10.2025</text><text x="700.40" y="235.00" font-size="9" fill="#111827" text-anchor="middle" transform="rotate(-45 700.40 235.00)">02.11.2025</text><text x="782.95" y="235.00" font-size="9" fill="#111827" text-anchor="middle" transform="rotate(-45 782.95 235.00)">17.11.2025</text>
  </g>
</svg>