<svg xmlns="http://www.w3.org/2000/svg" width="900" height="290" style="font-family: -apple-system, BlinkMacSystemFont, 'Segoe UI', Helvetica, Arial, sans-serif;">
  <rect width="100%" height="100%" fill="#0d1117"/>
  <g>
    <line x1="40" y1="220.00" x2="860" y2="220.00" stroke="#30363d"/><text x="32" y="224.00" font-size="10" fill="#c9d1d9" text-anchor="end">0</text><line x1="40" y1="175.00" x2="860" y2="175.00" stroke="#30363d"/><text x="32" y="179.00" font-size="10" fill="#c9d1d9" text-anchor="end">500</text><line x1="40" y1="130.00" x2="860" y2="130.00" stroke="#30363d"/><text x="32" y="134.00" font-size="10" fill="#c9d1d9" text-anchor="end">1k</text><line x1="40" y1="85.00" x2="860" y2="85.00" stroke="#30363d"/><text x="32" y="89.00" font-size="10" fill="#c9d1d9" text-anchor="end">1.5k</text><line x1="40" y1="40.00" x2="860" y2="40.00" stroke="#30363d"/><text x="32" y="44.00" font-size="10" fill="#c9d1d9" text-anchor="end">2k</text>
    <line x1="40.00" y1="40" x2="40.00" y2="220" stroke="#30363d" opacity="0.5"/><line x1="120.94" y1="40" x2="120.94" y2="220" stroke="#30363d" opacity="0.5"/><line x1="201.89" y1="40" x2="201.89" y2="220" stroke="#30363d" opacity="0.5"/><line x1="282.83" y1="40" x2="282.83" y2="220" stroke="#30363d" opacity="0.5"/><line x1="363.78" y1="40" x2="363.78" y2="220" stroke="#30363d" opacity="0.5"/><line x1="444.72" y1="40" x2="444.72" y2="220" stroke="#30363d" opacity="0.5"/><line x1="525.67" y1="40" x2="525.67" y2="220" stroke="#30363d" opacity="0.5"/><line x1="606.61" y1="40" x2="606.61" y2="220" stroke="#30363d" opacity="0.5"/><line x1="687.55" y1="40" x2="687.55" y2="220" stroke="#30363d" opacity="0.5"/><line x1="768.50" y1="40" x2="768.50" y2="220" stroke="#30363d" opacity="0.5"/><line x1="849.44" y1="40" x2="849.44" y2="220" stroke="#30363d" opacity="0.5"/>
    <line x1="40" y1="220" x2="860" y2="220" stroke="#30363d"/>
    <line x1="40" y1="40"   x2="40"   y2="220" stroke="#30363d"/>
    <path d="M 40.00 219.82 L 43.52 214.15 L 47.04 214.06 L 50.56 214.06 L 54.08 213.25 L 57.60 213.25 L 61.12 204.88 L 64.64 185.98 L 68.15 185.98 L 71.67 180.94 L 75.19 152.59 L 78.71 159.97 L 82.23 158.89 L 85.75 158.17 L 89.27 139.63 L 92.79 139.63 L 96.31 157.18 L 99.83 154.66 L 103.35 154.39 L 106.87 151.60 L 110.39 150.97 L 113.91 150.70 L 117.42 149.80 L 120.94 149.80 L 124.46 147.46 L 127.98 144.94 L 131.50 144.76 L 135.02 140.71 L 138.54 134.23 L 142.06 134.23 L 145.58 133.69 L 149.10 133.69 L 152.62 133.69 L 156.14 133.69 L 159.66 133.69 L 163.18 133.69 L 166.70 132.97 L 170.21 132.97 L 173.73 132.97 L 177.25 132.97 L 180.77 132.97 L 184.29 132.97 L 187.81 132.97 L 191.33 132.97 L 194.85 132.97 L 198.37 132.97 L 201.89 132.97 L 205.41 132.97 L 208.93 132.97 L 212.45 132.97 L 215.97 132.97 L 219.48 132.97 L 223.00 132.97 L 226.52 132.97 L 230.04 132.97 L 233.56 132.97 L 237.08 132.97 L 240.60 132.97 L 244.12 132.97 L 247.64 132.97 L 251.16 132.97 L 254.68 132.97 L 258.20 132.97 L 261.72 132.97 L 265.24 132.97 L 268.76 132.97 L 272.27 132.97 L 275.79 132.97 L 279.31 132.97 L 282.83 132.97 L 286.35 132.97 L 289.87 132.97 L 293.39 132.97 L 296.91 132.97 L 300.43 132.97 L 303.95 132.97 L 307.47 132.97 L 310.99 132.97 L 314.51 132.97 L 318.03 132.97 L 321.55 132.97 L 325.06 132.97 L 328.58 132.97 L 332.10 132.97 L 335.62 132.97 L 339.14 132.97 L 342.66 132.97 L 346.18 132.97 L 349.70 132.97 L 353.22 132.97 L 356.74 132.97 L 360.26 132.97 L 363.78 132.97 L 367.30 132.97 L 370.82 132.97 L 374.33 132.97 L 377.85 132.97 L 381.37 132.97 L 384.89 132.97 L 388.41 132.97 L 391.93 132.97 L 395.45 132.97 L 398.97 132.97 L 402.49 132.97 L 406.01 132.97 L 409.53 132.97 L 413.05 132.97 L 416.57 132.97 L 420.09 132.97 L 423.61 132.97 L 427.12 132.97 L 430.64 132.97 L 434.16 132.97 L 437.68 132.97 L 441.20 132.97 L 444.72 132.97 L 448.24 132.97 L 451.76 132.97 L 455.28 132.97 L 458.80 132.97 L 462.32 132.97 L 465.84 132.97 L 469.36 132.97 L 472.88 132.97 L 476.39 132.97 L 479.91 132.97 L 483.43 132.97 L 486.95 132.97 L 490.47 132.97 L 493.99 132.97 L 497.51 132.97 L 501.03 132.97 L 504.55 132.97 L 508.07 132.97 L 511.59 132.97 L 515.11 132.97 L 518.63 132.97 L 522.15 132.97 L 525.67 132.97 L 529.18 132.97 L 532.70 132.97 L 536.22 132.97 L 539.74 132.97 L 543.26 132.97 L 546.78 132.97 L 550.30 132.97 L 553.82 132.97 L 557.34 132.97 L 560.86 132.97 L 564.38 132.97 L 567.90 132.97 L 571.42 132.97 L 574.94 132.97 L 578.45 124.51 L 581.97 120.64 L 585.49 116.77 L 589.01 112.90 L 592.53 109.03 L 596.05 105.97 L 599.57 105.97 L 603.09 105.97 L 606.61 105.97 L 610.13 105.97 L 613.65 105.79 L 617.17 103.09 L 620.69 98.41 L 624.21 98.41 L 627.73 98.41 L 631.24 98.41 L 634.76 98.41 L 638.28 98.41 L 641.80 98.41 L 645.32 98.41 L 648.84 98.41 L 652.36 98.41 L 655.88 98.41 L 659.40 98.41 L 662.92 98.41 L 666.44 98.41 L 669.96 98.41 L 673.48 98.41 L 677.00 98.41 L 680.52 98.41 L 684.03 98.41 L 687.55 98.41 L 691.07 98.41 L 694.59 98.41 L 698.11 98.41 L 701.63 98.41 L 705.15 98.41 L 708.67 98.41 L 712.19 98.41 L 715.71 98.41 L 719.23 98.41 L 722.75 98.41 L 726.27 98.41 L 729.79 98.41 L 733.30 98.41 L 736.82 98.41 L 740.34 98.41 L 743.86 98.41 L 747.38 98.41 L 750.90 98.41 L 754.42 98.41 L 757.94 98.41 L 761.46 98.41 L 764.98 98.41 L 768.50 98.41 L 772.02 98.41 L 775.54 98.41 L 779.06 98.41 L 782.58 98.41 L 786.09 98.41 L 789.61 98.41 L 793.13 98.41 L 796.65 98.41 L 800.17 98.41 L 803.69 98.41 L 807.21 98.41 L 810.73 98.41 L 814.25 98.41 L 817.77 98.41 L 821.29 98.41 L 824.81 98.41 L 828.33 98.41 L 831.85 98.41 L 835.36 98.41 L 838.88 98.41 L 842.40 98.41 L 845.92 98.41 L 849.44 98.41 L 852.96 98.41 L 856.48 98.41 L 860.00 98.41" fill="none" stroke="#3fb950" stroke-width="2"/>
    <circle cx="860.00" cy="98.41" r="3" fill="#3fb950"/>
    <text x="40.00" y="235.00" font-size="9" fill="#c9d1d9" text-anchor="middle" transform="rotate(-45 40.00 235.00)">09.08.2025</text><text x="120.94" y="235.00" font-size="9" fill="#c9d1d9" text-anchor="middle" transform="rotate(-45 120.94 235.00)">09.08.2025</text><text x="201.89" y="235.00" font-size="9" fill="#c9d1d9" text-anchor="middle" transform="rotate(-45 201.89 235.00)">22.08.2025</text><text x="282.83" y="235.00" font-size="9" fill="#c9d1d9" text-anchor="middle" transform="rotate(-45 282.83 235.00)">12.09.2025</text><text x="363.78" y="235.00" font-size="9" fill="#c9d1d9" text-anchor="middle" transform="rotate(-45 363.78 235.00)">05.10.2025</text><text x="444.72" y="235.00" font-size="9" fill="#c9d1d9" text-anchor="middle" transform="rotate(-45 444.72 235.00)">28.10.2025</text><text x="525.67" y="235.00" font-size="9" fill="#c9d1d9" text-anchor="middle" transform="rotate(-45 525.67 235.00)">20.11.2025</text><text x="606.61" y="235.00" font-size="9" fill="#c9d1d9" text-anchor="middle" transform="rotate(-45 606.61 235.00)">06.12.2025</text><text x="687.55" y="235.00" font-size="9" fill="#c9d1d9" text-anchor="middle" transform="rotate(-45 687.55 235.00)">26.12.2025</text><text x="768.50" y="235.00" font-size="9" fill="#c9d1d9" text-anchor="middle" transform="rotate(-45 768.50 235.00)">18.01.2026</text><text x="849.44" y="235.00" font-size="9" fill="#c9d1d9" text-anchor="middle" transform="rotate(-45 849.44 235.00)">10.02.2026</text>
  </g>
</svg>