<svg xmlns="http://www.w3.org/2000/svg" width="900" height="290" style="font-family: -apple-system, BlinkMacSystemFont, 'Segoe UI', Helvetica, Arial, sans-serif;">
  <rect width="100%" height="100%" fill="#0d1117"/>
  <g>
    <line x1="40" y1="220.00" x2="860" y2="220.00" stroke="#30363d"/><text x="32" y="224.00" font-size="10" fill="#c9d1d9" text-anchor="end">0</text><line x1="40" y1="175.00" x2="860" y2="175.00" stroke="#30363d"/><text x="32" y="179.00" font-size="10" fill="#c9d1d9" text-anchor="end">500</text><line x1="40" y1="130.00" x2="860" y2="130.00" stroke="#30363d"/><text x="32" y="134.00" font-size="10" fill="#c9d1d9" text-anchor="end">1k</text><line x1="40" y1="85.00" x2="860" y2="85.00" stroke="#30363d"/><text x="32" y="89.00" font-size="10" fill="#c9d1d9" text-anchor="end">1.5k</text><line x1="40" y1="40.00" x2="860" y2="40.00" stroke="#30363d"/><text x="32" y="44.00" font-size="10" fill="#c9d1d9" text-anchor="end">2k</text>
    <line x1="40.00" y1="40" x2="40.00" y2="220" stroke="#30363d" opacity="0.5"/><line x1="122.00" y1="40" x2="122.00" y2="220" stroke="#30363d" opacity="0.5"/><line x1="204.00" y1="40" x2="204.00" y2="220" stroke="#30363d" opacity="0.5"/><line x1="286.00" y1="40" x2="286.00" y2="220" stroke="#30363d" opacity="0.5"/><line x1="368.00" y1="40" x2="368.00" y2="220" stroke="#30363d" opacity="0.5"/><line x1="450.00" y1="40" x2="450.00" y2="220" stroke="#30363d" opacity="0.5"/><line x1="532.00" y1="40" x2="532.00" y2="220" stroke="#30363d" opacity="0.5"/><line x1="614.00" y1="40" x2="614.00" y2="220" stroke="#30363d" opacity="0.5"/><line x1="696.00" y1="40" x2="696.00" y2="220" stroke="#30363d" opacity="0.5"/><line x1="778.00" y1="40" x2="778.00" y2="220" stroke="#30363d" opacity="0.5"/><line x1="860.00" y1="40" x2="860.00" y2="220" stroke="#30363d" opacity="0.5"/>
    <line x1="40" y1="220" x2="860" y2="220" stroke="#30363d"/>
    <line x1="40" y1="40"   x2="40"   y2="220" stroke="#30363d"/>
    <path d="M 40.00 219.82 L 44.56 214.15 L 49.11 214.06 L 53.67 214.06 L 58.22 213.25 L 62.78 213.25 L 67.33 204.88 L 71.89 185.98 L 76.44 185.98 L 81.00 180.94 L 85.56 152.59 L 90.11 159.97 L 94.67 158.89 L 99.22 158.17 L 103.78 139.63 L 108.33 139.63 L 112.89 157.18 L 117.44 154.66 L 122.00 154.39 L 126.56 151.60 L 131.11 150.97 L 135.67 150.70 L 140.22 149.80 L 144.78 149.80 L 149.33 147.46 L 153.89 144.94 L 158.44 144.76 L 163.00 140.71 L 167.56 134.23 L 172.11 134.23 L 176.67 133.69 L 181.22 133.69 L 185.78 133.69 L 190.33 133.69 L 194.89 133.69 L 199.44 133.69 L 204.00 132.97 L 208.56 132.97 L 213.11 132.97 L 217.67 132.97 L 222.22 132.97 L 226.78 132.97 L 231.33 132.97 L 235.89 132.97 L 240.44 132.97 L 245.00 132.97 L 249.56 132.97 L 254.11 132.97 L 258.67 132.97 L 263.22 132.97 L 267.78 132.97 L 272.33 132.97 L 276.89 132.97 L 281.44 132.97 L 286.00 132.97 L 290.56 132.97 L 295.11 132.97 L 299.67 132.97 L 304.22 132.97 L 308.78 132.97 L 313.33 132.97 L 317.89 132.97 L 322.44 132.97 L 327.00 132.97 L 331.56 132.97 L 336.11 132.97 L 340.67 132.97 L 345.22 132.97 L 349.78 132.97 L 354.33 132.97 L 358.89 132.97 L 363.44 132.97 L 368.00 132.97 L 372.56 132.97 L 377.11 132.97 L 381.67 132.97 L 386.22 132.97 L 390.78 132.97 L 395.33 132.97 L 399.89 132.97 L 404.44 132.97 L 409.00 132.97 L 413.56 132.97 L 418.11 132.97 L 422.67 132.97 L 427.22 132.97 L 431.78 132.97 L 436.33 132.97 L 440.89 132.97 L 445.44 132.97 L 450.00 132.97 L 454.56 132.97 L 459.11 132.97 L 463.67 132.97 L 468.22 132.97 L 472.78 132.97 L 477.33 132.97 L 481.89 132.97 L 486.44 132.97 L 491.00 132.97 L 495.56 132.97 L 500.11 132.97 L 504.67 132.97 L 509.22 132.97 L 513.78 132.97 L 518.33 132.97 L 522.89 132.97 L 527.44 132.97 L 532.00 132.97 L 536.56 132.97 L 541.11 132.97 L 545.67 132.97 L 550.22 132.97 L 554.78 132.97 L 559.33 132.97 L 563.89 132.97 L 568.44 132.97 L 573.00 132.97 L 577.56 132.97 L 582.11 132.97 L 586.67 132.97 L 591.22 132.97 L 595.78 132.97 L 600.33 132.97 L 604.89 132.97 L 609.44 132.97 L 614.00 132.97 L 618.56 132.97 L 623.11 132.97 L 627.67 132.97 L 632.22 132.97 L 636.78 132.97 L 641.33 132.97 L 645.89 132.97 L 650.44 132.97 L 655.00 132.97 L 659.56 132.97 L 664.11 132.97 L 668.67 132.97 L 673.22 132.97 L 677.78 132.97 L 682.33 132.97 L 686.89 132.97 L 691.44 132.97 L 696.00 132.97 L 700.56 132.97 L 705.11 132.97 L 709.67 132.97 L 714.22 132.97 L 718.78 132.97 L 723.33 132.97 L 727.89 132.97 L 732.44 132.97 L 737.00 124.51 L 741.56 120.64 L 746.11 116.77 L 750.67 112.90 L 755.22 109.03 L 759.78 105.97 L 764.33 105.97 L 768.89 105.97 L 773.44 105.97 L 778.00 105.97 L 782.56 105.79 L 787.11 103.09 L 791.67 98.41 L 796.22 98.41 L 800.78 98.41 L 805.33 98.41 L 809.89 98.41 L 814.44 98.41 L 819.00 98.41 L 823.56 98.41 L 828.11 98.41 L 832.67 98.41 L 837.22 98.41 L 841.78 98.41 L 846.33 98.41 L 850.89 98.41 L 855.44 98.41 L 860.00 98.41" fill="none" stroke="#3fb950" stroke-width="2"/>
    <circle cx="860.00" cy="98.41" r="3" fill="#3fb950"/>
    <text x="40.00" y="235.00" font-size="9" fill="#c9d1d9" text-anchor="middle" transform="rotate(-45 40.00 235.00)">09.08.2025</text><text x="122.00" y="235.00" font-size="9" fill="#c9d1d9" text-anchor="middle" transform="rotate(-45 122.00 235.00)">09.08.2025</text><text x="204.00" y="235.00" font-size="9" fill="#c9d1d9" text-anchor="middle" transform="rotate(-45 204.00 235.00)">13.08.2025</text><text x="286.00" y="235.00" font-size="9" fill="#c9d1d9" text-anchor="middle" transform="rotate(-45 286.00 235.00)">28.08.2025</text><text x="368.00" y="235.00" font-size="9" fill="#c9d1d9" text-anchor="middle" transform="rotate(-45 368.00 235.00)">15.09.2025</text><text x="450.00" y="235.00" font-size="9" fill="#c9d1d9" text-anchor="middle" transform="rotate(-45 450.00 235.00)">03.10.2025</text><text x="532.00" y="235.00" font-size="9" fill="#c9d1d9" text-anchor="middle" transform="rotate(-45 532.00 235.00)">21.10.2025</text><text x="614.00" y="235.00" font-size="9" fill="#c9d1d9" text-anchor="middle" transform="rotate(-45 614.00 235.00)">08.11.2025</text><text x="696.00" y="235.00" font-size="9" fill="#c9d1d9" text-anchor="middle" transform="rotate(-45 696.00 235.00)">26.11.2025</text><text x="778.00" y="235.00" font-size="9" fill="#c9d1d9" text-anchor="middle" transform="rotate(-45 778.00 235.00)">07.12.2025</text><text x="860.00" y="235.00" font-size="9" fill="#c9d1d9" text-anchor="middle" transform="rotate(-45 860.00 235.00)">22.12.2025</text>
  </g>
</svg>