<svg xmlns="http://www.w3.org/2000/svg" width="900" height="290" style="font-family: -apple-system, BlinkMacSystemFont, 'Segoe UI', Helvetica, Arial, sans-serif;">
  <rect width="100%" height="100%" fill="white"/>
  <g>
    <line x1="40" y1="220.00" x2="860" y2="220.00" stroke="#e5e7eb"/><text x="32" y="224.00" font-size="10" fill="#111827" text-anchor="end">0</text><line x1="40" y1="175.00" x2="860" y2="175.00" stroke="#e5e7eb"/><text x="32" y="179.00" font-size="10" fill="#111827" text-anchor="end">500</text><line x1="40" y1="130.00" x2="860" y2="130.00" stroke="#e5e7eb"/><text x="32" y="134.00" font-size="10" fill="#111827" text-anchor="end">1k</text><line x1="40" y1="85.00" x2="860" y2="85.00" stroke="#e5e7eb"/><text x="32" y="89.00" font-size="10" fill="#111827" text-anchor="end">1.5k</text><line x1="40" y1="40.00" x2="860" y2="40.00" stroke="#e5e7eb"/><text x="32" y="44.00" font-size="10" fill="#111827" text-anchor="end">2k</text>
    <line x1="40.00" y1="40" x2="40.00" y2="220" stroke="#e5e7eb" opacity="0.5"/><line x1="118.31" y1="40" x2="118.31" y2="220" stroke="#e5e7eb" opacity="0.5"/><line x1="196.63" y1="40" x2="196.63" y2="220" stroke="#e5e7eb" opacity="0.5"/><line x1="274.94" y1="40" x2="274.94" y2="220" stroke="#e5e7eb" opacity="0.5"/><line x1="353.26" y1="40" x2="353.26" y2="220" stroke="#e5e7eb" opacity="0.5"/><line x1="431.57" y1="40" x2="431.57" y2="220" stroke="#e5e7eb" opacity="0.5"/><line x1="509.89" y1="40" x2="509.89" y2="220" stroke="#e5e7eb" opacity="0.5"/><line x1="588.20" y1="40" x2="588.20" y2="220" stroke="#e5e7eb" opacity="0.5"/><line x1="666.52" y1="40" x2="666.52" y2="220" stroke="#e5e7eb" opacity="0.5"/><line x1="744.83" y1="40" x2="744.83" y2="220" stroke="#e5e7eb" opacity="0.5"/><line x1="823.15" y1="40" x2="823.15" y2="220" stroke="#e5e7eb" opacity="0.5"/>
    <line x1="40" y1="220" x2="860" y2="220" stroke="#9ca3af"/>
    <line x1="40" y1="40"   x2="40"   y2="220" stroke="#9ca3af"/>
    <path d="M 40.00 219.82 L 44.61 214.15 L 49.21 214.06 L 53.82 214.06 L 58.43 213.25 L 63.03 213.25 L 67.64 204.88 L 72.25 185.98 L 76.85 185.98 L 81.46 180.94 L 86.07 152.59 L 90.67 159.97 L 95.28 158.89 L 99.89 158.17 L 104.49 139.63 L 109.10 139.63 L 113.71 157.18 L 118.31 154.66 L 122.92 154.39 L 127.53 151.60 L 132.13 150.97 L 136.74 150.70 L 141.35 149.80 L 145.96 149.80 L 150.56 147.46 L 155.17 144.94 L 159.78 144.76 L 164.38 140.71 L 168.99 134.23 L 173.60 134.23 L 178.20 133.69 L 182.81 133.69 L 187.42 133.69 L 192.02 133.69 L 196.63 133.69 L 201.24 133.69 L 205.84 132.97 L 210.45 132.97 L 215.06 132.97 L 219.66 132.97 L 224.27 132.97 L 228.88 132.97 L 233.48 132.97 L 238.09 132.97 L 242.70 132.97 L 247.30 132.97 L 251.91 132.97 L 256.52 132.97 L 261.12 132.97 L 265.73 132.97 L 270.34 132.97 L 274.94 132.97 L 279.55 132.97 L 284.16 132.97 L 288.76 132.97 L 293.37 132.97 L 297.98 132.97 L 302.58 132.97 L 307.19 132.97 L 311.80 132.97 L 316.40 132.97 L 321.01 132.97 L 325.62 132.97 L 330.22 132.97 L 334.83 132.97 L 339.44 132.97 L 344.04 132.97 L 348.65 132.97 L 353.26 132.97 L 357.87 132.97 L 362.47 132.97 L 367.08 132.97 L 371.69 132.97 L 376.29 132.97 L 380.90 132.97 L 385.51 132.97 L 390.11 132.97 L 394.72 132.97 L 399.33 132.97 L 403.93 132.97 L 408.54 132.97 L 413.15 132.97 L 417.75 132.97 L 422.36 132.97 L 426.97 132.97 L 431.57 132.97 L 436.18 132.97 L 440.79 132.97 L 445.39 132.97 L 450.00 132.97 L 454.61 132.97 L 459.21 132.97 L 463.82 132.97 L 468.43 132.97 L 473.03 132.97 L 477.64 132.97 L 482.25 132.97 L 486.85 132.97 L 491.46 132.97 L 496.07 132.97 L 500.67 132.97 L 505.28 132.97 L 509.89 132.97 L 514.49 132.97 L 519.10 132.97 L 523.71 132.97 L 528.31 132.97 L 532.92 132.97 L 537.53 132.97 L 542.13 132.97 L 546.74 132.97 L 551.35 132.97 L 555.96 132.97 L 560.56 132.97 L 565.17 132.97 L 569.78 132.97 L 574.38 132.97 L 578.99 132.97 L 583.60 132.97 L 588.20 132.97 L 592.81 132.97 L 597.42 132.97 L 602.02 132.97 L 606.63 132.97 L 611.24 132.97 L 615.84 132.97 L 620.45 132.97 L 625.06 132.97 L 629.66 132.97 L 634.27 132.97 L 638.88 132.97 L 643.48 132.97 L 648.09 132.97 L 652.70 132.97 L 657.30 132.97 L 661.91 132.97 L 666.52 132.97 L 671.12 132.97 L 675.73 132.97 L 680.34 132.97 L 684.94 132.97 L 689.55 132.97 L 694.16 132.97 L 698.76 132.97 L 703.37 132.97 L 707.98 132.97 L 712.58 132.97 L 717.19 132.97 L 721.80 132.97 L 726.40 132.97 L 731.01 132.97 L 735.62 132.97 L 740.22 132.97 L 744.83 124.51 L 749.44 120.64 L 754.04 116.77 L 758.65 112.90 L 763.26 109.03 L 767.87 105.97 L 772.47 105.97 L 777.08 105.97 L 781.69 105.97 L 786.29 105.97 L 790.90 105.79 L 795.51 103.09 L 800.11 98.41 L 804.72 98.41 L 809.33 98.41 L 813.93 98.41 L 818.54 98.41 L 823.15 98.41 L 827.75 98.41 L 832.36 98.41 L 836.97 98.41 L 841.57 98.41 L 846.18 98.41 L 850.79 98.41 L 855.39 98.41 L 860.00 98.41" fill="none" stroke="#111827" stroke-width="2"/>
    <circle cx="860.00" cy="98.41" r="3" fill="#111827"/>
    <text x="40.00" y="235.00" font-size="9" fill="#111827" text-anchor="middle" transform="rotate(-45 40.00 235.00)">09.08.2025</text><text x="118.31" y="235.00" font-size="9" fill="#111827" text-anchor="middle" transform="rotate(-45 118.31 235.00)">09.08.2025</text><text x="196.63" y="235.00" font-size="9" fill="#111827" text-anchor="middle" transform="rotate(-45 196.63 235.00)">13.08.2025</text><text x="274.94" y="235.00" font-size="9" fill="#111827" text-anchor="middle" transform="rotate(-45 274.94 235.00)">27.08.2025</text><text x="353.26" y="235.00" font-size="9" fill="#111827" text-anchor="middle" transform="rotate(-45 353.26 235.00)">11.09.2025</text><text x="431.57" y="235.00" font-size="9" fill="#111827" text-anchor="middle" transform="rotate(-45 431.57 235.00)">28.09.2025</text><text x="509.89" y="235.00" font-size="9" fill="#111827" text-anchor="middle" transform="rotate(-45 509.89 235.00)">15.10.2025</text><text x="588.20" y="235.00" font-size="9" fill="#111827" text-anchor="middle" transform="rotate(-45 588.20 235.00)">01.11.2025</text><text x="666.52" y="235.00" font-size="9" fill="#111827" text-anchor="middle" transform="rotate(-45 666.52 235.00)">18.11.2025</text><text x="744.83" y="235.00" font-size="9" fill="#111827" text-anchor="middle" transform="rotate(-45 744.83 235.00)">04.12.2025</text><text x="823.15" y="235.00" font-size="9" fill="#111827" text-anchor="middle" transform="rotate(-45 823.15 235.00)">12.12.2025</text>
  </g>
</svg>