<svg xmlns="http://www.w3.org/2000/svg" width="900" height="290" style="font-family: -apple-system, BlinkMacSystemFont, 'Segoe UI', Helvetica, Arial, sans-serif;">
  <rect width="100%" height="100%" fill="white"/>
  <g>
    <line x1="40" y1="220.00" x2="860" y2="220.00" stroke="#e5e7eb"/><text x="32" y="224.00" font-size="10" fill="#111827" text-anchor="end">0</text><line x1="40" y1="175.00" x2="860" y2="175.00" stroke="#e5e7eb"/><text x="32" y="179.00" font-size="10" fill="#111827" text-anchor="end">500</text><line x1="40" y1="130.00" x2="860" y2="130.00" stroke="#e5e7eb"/><text x="32" y="134.00" font-size="10" fill="#111827" text-anchor="end">1k</text><line x1="40" y1="85.00" x2="860" y2="85.00" stroke="#e5e7eb"/><text x="32" y="89.00" font-size="10" fill="#111827" text-anchor="end">1.5k</text><line x1="40" y1="40.00" x2="860" y2="40.00" stroke="#e5e7eb"/><text x="32" y="44.00" font-size="10" fill="#111827" text-anchor="end">2k</text>
    <line x1="40.00" y1="40" x2="40.00" y2="220" stroke="#e5e7eb" opacity="0.5"/><line x1="118.56" y1="40" x2="118.56" y2="220" stroke="#e5e7eb" opacity="0.5"/><line x1="197.13" y1="40" x2="197.13" y2="220" stroke="#e5e7eb" opacity="0.5"/><line x1="275.69" y1="40" x2="275.69" y2="220" stroke="#e5e7eb" opacity="0.5"/><line x1="354.25" y1="40" x2="354.25" y2="220" stroke="#e5e7eb" opacity="0.5"/><line x1="432.81" y1="40" x2="432.81" y2="220" stroke="#e5e7eb" opacity="0.5"/><line x1="511.38" y1="40" x2="511.38" y2="220" stroke="#e5e7eb" opacity="0.5"/><line x1="589.94" y1="40" x2="589.94" y2="220" stroke="#e5e7eb" opacity="0.5"/><line x1="668.50" y1="40" x2="668.50" y2="220" stroke="#e5e7eb" opacity="0.5"/><line x1="747.07" y1="40" x2="747.07" y2="220" stroke="#e5e7eb" opacity="0.5"/><line x1="825.63" y1="40" x2="825.63" y2="220" stroke="#e5e7eb" opacity="0.5"/>
    <line x1="40" y1="220" x2="860" y2="220" stroke="#9ca3af"/>
    <line x1="40" y1="40"   x2="40"   y2="220" stroke="#9ca3af"/>
    <path d="M 40.00 219.82 L 44.91 214.15 L 49.82 214.06 L 54.73 214.06 L 59.64 213.25 L 64.55 213.25 L 69.46 204.88 L 74.37 185.98 L 79.28 185.98 L 84.19 180.94 L 89.10 152.59 L 94.01 159.97 L 98.92 158.89 L 103.83 158.17 L 108.74 139.63 L 113.65 139.63 L 118.56 157.18 L 123.47 154.66 L 128.38 154.39 L 133.29 151.60 L 138.20 150.97 L 143.11 150.70 L 148.02 149.80 L 152.93 149.80 L 157.84 147.46 L 162.75 144.94 L 167.66 144.76 L 172.57 140.71 L 177.49 134.23 L 182.40 134.23 L 187.31 133.69 L 192.22 133.69 L 197.13 133.69 L 202.04 133.69 L 206.95 133.69 L 211.86 133.69 L 216.77 132.97 L 221.68 132.97 L 226.59 132.97 L 231.50 132.97 L 236.41 132.97 L 241.32 132.97 L 246.23 132.97 L 251.14 132.97 L 256.05 132.97 L 260.96 132.97 L 265.87 132.97 L 270.78 132.97 L 275.69 132.97 L 280.60 132.97 L 285.51 132.97 L 290.42 132.97 L 295.33 132.97 L 300.24 132.97 L 305.15 132.97 L 310.06 132.97 L 314.97 132.97 L 319.88 132.97 L 324.79 132.97 L 329.70 132.97 L 334.61 132.97 L 339.52 132.97 L 344.43 132.97 L 349.34 132.97 L 354.25 132.97 L 359.16 132.97 L 364.07 132.97 L 368.98 132.97 L 373.89 132.97 L 378.80 132.97 L 383.71 132.97 L 388.62 132.97 L 393.53 132.97 L 398.44 132.97 L 403.35 132.97 L 408.26 132.97 L 413.17 132.97 L 418.08 132.97 L 422.99 132.97 L 427.90 132.97 L 432.81 132.97 L 437.72 132.97 L 442.63 132.97 L 447.54 132.97 L 452.46 132.97 L 457.37 132.97 L 462.28 132.97 L 467.19 132.97 L 472.10 132.97 L 477.01 132.97 L 481.92 132.97 L 486.83 132.97 L 491.74 132.97 L 496.65 132.97 L 501.56 132.97 L 506.47 132.97 L 511.38 132.97 L 516.29 132.97 L 521.20 132.97 L 526.11 132.97 L 531.02 132.97 L 535.93 132.97 L 540.84 132.97 L 545.75 132.97 L 550.66 132.97 L 555.57 132.97 L 560.48 132.97 L 565.39 132.97 L 570.30 132.97 L 575.21 132.97 L 580.12 132.97 L 585.03 132.97 L 589.94 132.97 L 594.85 132.97 L 599.76 132.97 L 604.67 132.97 L 609.58 132.97 L 614.49 132.97 L 619.40 132.97 L 624.31 132.97 L 629.22 132.97 L 634.13 132.97 L 639.04 132.97 L 643.95 132.97 L 648.86 132.97 L 653.77 132.97 L 658.68 132.97 L 663.59 132.97 L 668.50 132.97 L 673.41 132.97 L 678.32 132.97 L 683.23 132.97 L 688.14 132.97 L 693.05 132.97 L 697.96 132.97 L 702.87 132.97 L 707.78 132.97 L 712.69 132.97 L 717.60 132.97 L 722.51 132.97 L 727.43 132.97 L 732.34 132.97 L 737.25 132.97 L 742.16 132.97 L 747.07 132.97 L 751.98 132.97 L 756.89 132.97 L 761.80 132.97 L 766.71 132.97 L 771.62 132.97 L 776.53 132.97 L 781.44 132.97 L 786.35 132.97 L 791.26 124.51 L 796.17 120.64 L 801.08 116.77 L 805.99 112.90 L 810.90 109.03 L 815.81 105.97 L 820.72 105.97 L 825.63 105.97 L 830.54 105.97 L 835.45 105.97 L 840.36 105.79 L 845.27 103.09 L 850.18 98.41 L 855.09 98.41 L 860.00 98.41" fill="none" stroke="#111827" stroke-width="2"/>
    <circle cx="860.00" cy="98.41" r="3" fill="#111827"/>
    <text x="40.00" y="235.00" font-size="9" fill="#111827" text-anchor="middle" transform="rotate(-45 40.00 235.00)">09.08.2025</text><text x="118.56" y="235.00" font-size="9" fill="#111827" text-anchor="middle" transform="rotate(-45 118.56 235.00)">09.08.2025</text><text x="197.13" y="235.00" font-size="9" fill="#111827" text-anchor="middle" transform="rotate(-45 197.13 235.00)">13.08.2025</text><text x="275.69" y="235.00" font-size="9" fill="#111827" text-anchor="middle" transform="rotate(-45 275.69 235.00)">24.08.2025</text><text x="354.25" y="235.00" font-size="9" fill="#111827" text-anchor="middle" transform="rotate(-45 354.25 235.00)">07.09.2025</text><text x="432.81" y="235.00" font-size="9" fill="#111827" text-anchor="middle" transform="rotate(-45 432.81 235.00)">23.09.2025</text><text x="511.38" y="235.00" font-size="9" fill="#111827" text-anchor="middle" transform="rotate(-45 511.38 235.00)">09.10.2025</text><text x="589.94" y="235.00" font-size="9" fill="#111827" text-anchor="middle" transform="rotate(-45 589.94 235.00)">25.10.2025</text><text x="668.50" y="235.00" font-size="9" fill="#111827" text-anchor="middle" transform="rotate(-45 668.50 235.00)">10.11.2025</text><text x="747.07" y="235.00" font-size="9" fill="#111827" text-anchor="middle" transform="rotate(-45 747.07 235.00)">26.11.2025</text><text x="825.63" y="235.00" font-size="9" fill="#111827" text-anchor="middle" transform="rotate(-45 825.63 235.00)">05.12.2025</text>
  </g>
</svg>