<svg xmlns="http://www.w3.org/2000/svg" width="900" height="290" style="font-family: -apple-system, BlinkMacSystemFont, 'Segoe UI', Helvetica, Arial, sans-serif;">
  <rect width="100%" height="100%" fill="white"/>
  <g>
    <line x1="40" y1="220.00" x2="860" y2="220.00" stroke="#e5e7eb"/><text x="32" y="224.00" font-size="10" fill="#111827" text-anchor="end">0</text><line x1="40" y1="175.00" x2="860" y2="175.00" stroke="#e5e7eb"/><text x="32" y="179.00" font-size="10" fill="#111827" text-anchor="end">500</text><line x1="40" y1="130.00" x2="860" y2="130.00" stroke="#e5e7eb"/><text x="32" y="134.00" font-size="10" fill="#111827" text-anchor="end">1k</text><line x1="40" y1="85.00" x2="860" y2="85.00" stroke="#e5e7eb"/><text x="32" y="89.00" font-size="10" fill="#111827" text-anchor="end">1.5k</text><line x1="40" y1="40.00" x2="860" y2="40.00" stroke="#e5e7eb"/><text x="32" y="44.00" font-size="10" fill="#111827" text-anchor="end">2k</text>
    <line x1="40.00" y1="40" x2="40.00" y2="220" stroke="#e5e7eb" opacity="0.5"/><line x1="111.93" y1="40" x2="111.93" y2="220" stroke="#e5e7eb" opacity="0.5"/><line x1="183.86" y1="40" x2="183.86" y2="220" stroke="#e5e7eb" opacity="0.5"/><line x1="255.79" y1="40" x2="255.79" y2="220" stroke="#e5e7eb" opacity="0.5"/><line x1="327.72" y1="40" x2="327.72" y2="220" stroke="#e5e7eb" opacity="0.5"/><line x1="399.65" y1="40" x2="399.65" y2="220" stroke="#e5e7eb" opacity="0.5"/><line x1="471.58" y1="40" x2="471.58" y2="220" stroke="#e5e7eb" opacity="0.5"/><line x1="543.51" y1="40" x2="543.51" y2="220" stroke="#e5e7eb" opacity="0.5"/><line x1="615.44" y1="40" x2="615.44" y2="220" stroke="#e5e7eb" opacity="0.5"/><line x1="687.37" y1="40" x2="687.37" y2="220" stroke="#e5e7eb" opacity="0.5"/><line x1="759.30" y1="40" x2="759.30" y2="220" stroke="#e5e7eb" opacity="0.5"/><line x1="831.23" y1="40" x2="831.23" y2="220" stroke="#e5e7eb" opacity="0.5"/>
    <line x1="40" y1="220" x2="860" y2="220" stroke="#9ca3af"/>
    <line x1="40" y1="40"   x2="40"   y2="220" stroke="#9ca3af"/>
    <path d="M 40.00 219.82 L 54.39 214.15 L 68.77 214.06 L 83.16 214.06 L 97.54 213.25 L 111.93 213.25 L 126.32 204.88 L 140.70 185.98 L 155.09 185.98 L 169.47 180.94 L 183.86 152.59 L 198.25 159.97 L 212.63 158.89 L 227.02 158.17 L 241.40 139.63 L 255.79 139.63 L 270.18 157.18 L 284.56 154.66 L 298.95 154.39 L 313.33 151.60 L 327.72 150.97 L 342.11 150.70 L 356.49 149.80 L 370.88 149.80 L 385.26 147.46 L 399.65 144.94 L 414.04 144.76 L 428.42 140.71 L 442.81 134.23 L 457.19 134.23 L 471.58 133.69 L 485.96 133.69 L 500.35 133.69 L 514.74 133.69 L 529.12 133.69 L 543.51 133.69 L 557.89 132.97 L 572.28 132.97 L 586.67 132.97 L 601.05 132.97 L 615.44 132.97 L 629.82 132.97 L 644.21 132.97 L 658.60 132.97 L 672.98 132.97 L 687.37 132.97 L 701.75 132.97 L 716.14 132.97 L 730.53 132.97 L 744.91 132.97 L 759.30 132.97 L 773.68 132.97 L 788.07 132.97 L 802.46 132.97 L 816.84 132.97 L 831.23 132.97 L 845.61 132.97 L 860.00 132.97" fill="none" stroke="#111827" stroke-width="2"/>
    <circle cx="860.00" cy="132.97" r="3" fill="#111827"/>
    <text x="40.00" y="235.00" font-size="9" fill="#111827" text-anchor="middle" transform="rotate(-45 40.00 235.00)">09.08.2025</text><text x="111.93" y="235.00" font-size="9" fill="#111827" text-anchor="middle" transform="rotate(-45 111.93 235.00)">09.08.2025</text><text x="183.86" y="235.00" font-size="9" fill="#111827" text-anchor="middle" transform="rotate(-45 183.86 235.00)">09.08.2025</text><text x="255.79" y="235.00" font-size="9" fill="#111827" text-anchor="middle" transform="rotate(-45 255.79 235.00)">09.08.2025</text><text x="327.72" y="235.00" font-size="9" fill="#111827" text-anchor="middle" transform="rotate(-45 327.72 235.00)">09.08.2025</text><text x="399.65" y="235.00" font-size="9" fill="#111827" text-anchor="middle" transform="rotate(-45 399.65 235.00)">09.08.2025</text><text x="471.58" y="235.00" font-size="9" fill="#111827" text-anchor="middle" transform="rotate(-45 471.58 235.00)">13.08.2025</text><text x="543.51" y="235.00" font-size="9" fill="#111827" text-anchor="middle" transform="rotate(-45 543.51 235.00)">13.08.2025</text><text x="615.44" y="235.00" font-size="9" fill="#111827" text-anchor="middle" transform="rotate(-45 615.44 235.00)">16.08.2025</text><text x="687.37" y="235.00" font-size="9" fill="#111827" text-anchor="middle" transform="rotate(-45 687.37 235.00)">21.08.2025</text><text x="759.30" y="235.00" font-size="9" fill="#111827" text-anchor="middle" transform="rotate(-45 759.30 235.00)">26.08.2025</text><text x="831.23" y="235.00" font-size="9" fill="#111827" text-anchor="middle" transform="rotate(-45 831.23 235.00)">29.08.2025</text>
  </g>
</svg>