<svg xmlns="http://www.w3.org/2000/svg" width="900" height="290" style="font-family: -apple-system, BlinkMacSystemFont, 'Segoe UI', Helvetica, Arial, sans-serif;">
  <rect width="100%" height="100%" fill="#0d1117"/>
  <g>
    <line x1="40" y1="220.00" x2="860" y2="220.00" stroke="#30363d"/><text x="32" y="224.00" font-size="10" fill="#c9d1d9" text-anchor="end">0</text><line x1="40" y1="175.00" x2="860" y2="175.00" stroke="#30363d"/><text x="32" y="179.00" font-size="10" fill="#c9d1d9" text-anchor="end">500</text><line x1="40" y1="130.00" x2="860" y2="130.00" stroke="#30363d"/><text x="32" y="134.00" font-size="10" fill="#c9d1d9" text-anchor="end">1k</text><line x1="40" y1="85.00" x2="860" y2="85.00" stroke="#30363d"/><text x="32" y="89.00" font-size="10" fill="#c9d1d9" text-anchor="end">1.5k</text><line x1="40" y1="40.00" x2="860" y2="40.00" stroke="#30363d"/><text x="32" y="44.00" font-size="10" fill="#c9d1d9" text-anchor="end">2k</text>
    <line x1="40.00" y1="40" x2="40.00" y2="220" stroke="#30363d" opacity="0.5"/><line x1="119.72" y1="40" x2="119.72" y2="220" stroke="#30363d" opacity="0.5"/><line x1="199.44" y1="40" x2="199.44" y2="220" stroke="#30363d" opacity="0.5"/><line x1="279.17" y1="40" x2="279.17" y2="220" stroke="#30363d" opacity="0.5"/><line x1="358.89" y1="40" x2="358.89" y2="220" stroke="#30363d" opacity="0.5"/><line x1="438.61" y1="40" x2="438.61" y2="220" stroke="#30363d" opacity="0.5"/><line x1="518.33" y1="40" x2="518.33" y2="220" stroke="#30363d" opacity="0.5"/><line x1="598.06" y1="40" x2="598.06" y2="220" stroke="#30363d" opacity="0.5"/><line x1="677.78" y1="40" x2="677.78" y2="220" stroke="#30363d" opacity="0.5"/><line x1="757.50" y1="40" x2="757.50" y2="220" stroke="#30363d" opacity="0.5"/><line x1="837.22" y1="40" x2="837.22" y2="220" stroke="#30363d" opacity="0.5"/>
    <line x1="40" y1="220" x2="860" y2="220" stroke="#30363d"/>
    <line x1="40" y1="40"   x2="40"   y2="220" stroke="#30363d"/>
    <path d="M 40.00 219.82 L 43.80 214.15 L 47.59 214.06 L 51.39 214.06 L 55.19 213.25 L 58.98 213.25 L 62.78 204.88 L 66.57 185.98 L 70.37 185.98 L 74.17 180.94 L 77.96 152.59 L 81.76 159.97 L 85.56 158.89 L 89.35 158.17 L 93.15 139.63 L 96.94 139.63 L 100.74 157.18 L 104.54 154.66 L 108.33 154.39 L 112.13 151.60 L 115.93 150.97 L 119.72 150.70 L 123.52 149.80 L 127.31 149.80 L 131.11 147.46 L 134.91 144.94 L 138.70 144.76 L 142.50 140.71 L 146.30 134.23 L 150.09 134.23 L 153.89 133.69 L 157.69 133.69 L 161.48 133.69 L 165.28 133.69 L 169.07 133.69 L 172.87 133.69 L 176.67 132.97 L 180.46 132.97 L 184.26 132.97 L 188.06 132.97 L 191.85 132.97 L 195.65 132.97 L 199.44 132.97 L 203.24 132.97 L 207.04 132.97 L 210.83 132.97 L 214.63 132.97 L 218.43 132.97 L 222.22 132.97 L 226.02 132.97 L 229.81 132.97 L 233.61 132.97 L 237.41 132.97 L 241.20 132.97 L 245.00 132.97 L 248.80 132.97 L 252.59 132.97 L 256.39 132.97 L 260.19 132.97 L 263.98 132.97 L 267.78 132.97 L 271.57 132.97 L 275.37 132.97 L 279.17 132.97 L 282.96 132.97 L 286.76 132.97 L 290.56 132.97 L 294.35 132.97 L 298.15 132.97 L 301.94 132.97 L 305.74 132.97 L 309.54 132.97 L 313.33 132.97 L 317.13 132.97 L 320.93 132.97 L 324.72 132.97 L 328.52 132.97 L 332.31 132.97 L 336.11 132.97 L 339.91 132.97 L 343.70 132.97 L 347.50 132.97 L 351.30 132.97 L 355.09 132.97 L 358.89 132.97 L 362.69 132.97 L 366.48 132.97 L 370.28 132.97 L 374.07 132.97 L 377.87 132.97 L 381.67 132.97 L 385.46 132.97 L 389.26 132.97 L 393.06 132.97 L 396.85 132.97 L 400.65 132.97 L 404.44 132.97 L 408.24 132.97 L 412.04 132.97 L 415.83 132.97 L 419.63 132.97 L 423.43 132.97 L 427.22 132.97 L 431.02 132.97 L 434.81 132.97 L 438.61 132.97 L 442.41 132.97 L 446.20 132.97 L 450.00 132.97 L 453.80 132.97 L 457.59 132.97 L 461.39 132.97 L 465.19 132.97 L 468.98 132.97 L 472.78 132.97 L 476.57 132.97 L 480.37 132.97 L 484.17 132.97 L 487.96 132.97 L 491.76 132.97 L 495.56 132.97 L 499.35 132.97 L 503.15 132.97 L 506.94 132.97 L 510.74 132.97 L 514.54 132.97 L 518.33 132.97 L 522.13 132.97 L 525.93 132.97 L 529.72 132.97 L 533.52 132.97 L 537.31 132.97 L 541.11 132.97 L 544.91 132.97 L 548.70 132.97 L 552.50 132.97 L 556.30 132.97 L 560.09 132.97 L 563.89 132.97 L 567.69 132.97 L 571.48 132.97 L 575.28 132.97 L 579.07 132.97 L 582.87 132.97 L 586.67 132.97 L 590.46 132.97 L 594.26 132.97 L 598.06 132.97 L 601.85 132.97 L 605.65 132.97 L 609.44 132.97 L 613.24 132.97 L 617.04 132.97 L 620.83 124.51 L 624.63 120.64 L 628.43 116.77 L 632.22 112.90 L 636.02 109.03 L 639.81 105.97 L 643.61 105.97 L 647.41 105.97 L 651.20 105.97 L 655.00 105.97 L 658.80 105.79 L 662.59 103.09 L 666.39 98.41 L 670.19 98.41 L 673.98 98.41 L 677.78 98.41 L 681.57 98.41 L 685.37 98.41 L 689.17 98.41 L 692.96 98.41 L 696.76 98.41 L 700.56 98.41 L 704.35 98.41 L 708.15 98.41 L 711.94 98.41 L 715.74 98.41 L 719.54 98.41 L 723.33 98.41 L 727.13 98.41 L 730.93 98.41 L 734.72 98.41 L 738.52 98.41 L 742.31 98.41 L 746.11 98.41 L 749.91 98.41 L 753.70 98.41 L 757.50 98.41 L 761.30 98.41 L 765.09 98.41 L 768.89 98.41 L 772.69 98.41 L 776.48 98.41 L 780.28 98.41 L 784.07 98.41 L 787.87 98.41 L 791.67 98.41 L 795.46 98.41 L 799.26 98.41 L 803.06 98.41 L 806.85 98.41 L 810.65 98.41 L 814.44 98.41 L 818.24 98.41 L 822.04 98.41 L 825.83 98.41 L 829.63 98.41 L 833.43 98.41 L 837.22 98.41 L 841.02 98.41 L 844.81 98.41 L 848.61 98.41 L 852.41 98.41 L 856.20 98.41 L 860.00 98.41" fill="none" stroke="#3fb950" stroke-width="2"/>
    <circle cx="860.00" cy="98.41" r="3" fill="#3fb950"/>
    <text x="40.00" y="235.00" font-size="9" fill="#c9d1d9" text-anchor="middle" transform="rotate(-45 40.00 235.00)">09.08.2025</text><text x="119.72" y="235.00" font-size="9" fill="#c9d1d9" text-anchor="middle" transform="rotate(-45 119.72 235.00)">09.08.2025</text><text x="199.44" y="235.00" font-size="9" fill="#c9d1d9" text-anchor="middle" transform="rotate(-45 199.44 235.00)">18.08.2025</text><text x="279.17" y="235.00" font-size="9" fill="#c9d1d9" text-anchor="middle" transform="rotate(-45 279.17 235.00)">06.09.2025</text><text x="358.89" y="235.00" font-size="9" fill="#c9d1d9" text-anchor="middle" transform="rotate(-45 358.89 235.00)">27.09.2025</text><text x="438.61" y="235.00" font-size="9" fill="#c9d1d9" text-anchor="middle" transform="rotate(-45 438.61 235.00)">18.10.2025</text><text x="518.33" y="235.00" font-size="9" fill="#c9d1d9" text-anchor="middle" transform="rotate(-45 518.33 235.00)">08.11.2025</text><text x="598.06" y="235.00" font-size="9" fill="#c9d1d9" text-anchor="middle" transform="rotate(-45 598.06 235.00)">29.11.2025</text><text x="677.78" y="235.00" font-size="9" fill="#c9d1d9" text-anchor="middle" transform="rotate(-45 677.78 235.00)">10.12.2025</text><text x="757.50" y="235.00" font-size="9" fill="#c9d1d9" text-anchor="middle" transform="rotate(-45 757.50 235.00)">31.12.2025</text><text x="837.22" y="235.00" font-size="9" fill="#c9d1d9" text-anchor="middle" transform="rotate(-45 837.22 235.00)">21.01.2026</text>
  </g>
</svg>