<svg xmlns="http://www.w3.org/2000/svg" width="900" height="290" style="font-family: -apple-system, BlinkMacSystemFont, 'Segoe UI', Helvetica, Arial, sans-serif;">
  <rect width="100%" height="100%" fill="white"/>
  <g>
    <line x1="40" y1="220.00" x2="860" y2="220.00" stroke="#e5e7eb"/><text x="32" y="224.00" font-size="10" fill="#111827" text-anchor="end">0</text><line x1="40" y1="175.00" x2="860" y2="175.00" stroke="#e5e7eb"/><text x="32" y="179.00" font-size="10" fill="#111827" text-anchor="end">500</text><line x1="40" y1="130.00" x2="860" y2="130.00" stroke="#e5e7eb"/><text x="32" y="134.00" font-size="10" fill="#111827" text-anchor="end">1k</text><line x1="40" y1="85.00" x2="860" y2="85.00" stroke="#e5e7eb"/><text x="32" y="89.00" font-size="10" fill="#111827" text-anchor="end">1.5k</text><line x1="40" y1="40.00" x2="860" y2="40.00" stroke="#e5e7eb"/><text x="32" y="44.00" font-size="10" fill="#111827" text-anchor="end">2k</text>
    <line x1="40.00" y1="40" x2="40.00" y2="220" stroke="#e5e7eb" opacity="0.5"/><line x1="120.73" y1="40" x2="120.73" y2="220" stroke="#e5e7eb" opacity="0.5"/><line x1="201.45" y1="40" x2="201.45" y2="220" stroke="#e5e7eb" opacity="0.5"/><line x1="282.18" y1="40" x2="282.18" y2="220" stroke="#e5e7eb" opacity="0.5"/><line x1="362.90" y1="40" x2="362.90" y2="220" stroke="#e5e7eb" opacity="0.5"/><line x1="443.63" y1="40" x2="443.63" y2="220" stroke="#e5e7eb" opacity="0.5"/><line x1="524.35" y1="40" x2="524.35" y2="220" stroke="#e5e7eb" opacity="0.5"/><line x1="605.08" y1="40" x2="605.08" y2="220" stroke="#e5e7eb" opacity="0.5"/><line x1="685.80" y1="40" x2="685.80" y2="220" stroke="#e5e7eb" opacity="0.5"/><line x1="766.53" y1="40" x2="766.53" y2="220" stroke="#e5e7eb" opacity="0.5"/><line x1="847.25" y1="40" x2="847.25" y2="220" stroke="#e5e7eb" opacity="0.5"/>
    <line x1="40" y1="220" x2="860" y2="220" stroke="#9ca3af"/>
    <line x1="40" y1="40"   x2="40"   y2="220" stroke="#9ca3af"/>
    <path d="M 40.00 219.82 L 44.25 214.15 L 48.50 214.06 L 52.75 214.06 L 56.99 213.25 L 61.24 213.25 L 65.49 204.88 L 69.74 185.98 L 73.99 185.98 L 78.24 180.94 L 82.49 152.59 L 86.74 159.97 L 90.98 158.89 L 95.23 158.17 L 99.48 139.63 L 103.73 139.63 L 107.98 157.18 L 112.23 154.66 L 116.48 154.39 L 120.73 151.60 L 124.97 150.97 L 129.22 150.70 L 133.47 149.80 L 137.72 149.80 L 141.97 147.46 L 146.22 144.94 L 150.47 144.76 L 154.72 140.71 L 158.96 134.23 L 163.21 134.23 L 167.46 133.69 L 171.71 133.69 L 175.96 133.69 L 180.21 133.69 L 184.46 133.69 L 188.70 133.69 L 192.95 132.97 L 197.20 132.97 L 201.45 132.97 L 205.70 132.97 L 209.95 132.97 L 214.20 132.97 L 218.45 132.97 L 222.69 132.97 L 226.94 132.97 L 231.19 132.97 L 235.44 132.97 L 239.69 132.97 L 243.94 132.97 L 248.19 132.97 L 252.44 132.97 L 256.68 132.97 L 260.93 132.97 L 265.18 132.97 L 269.43 132.97 L 273.68 132.97 L 277.93 132.97 L 282.18 132.97 L 286.42 132.97 L 290.67 132.97 L 294.92 132.97 L 299.17 132.97 L 303.42 132.97 L 307.67 132.97 L 311.92 132.97 L 316.17 132.97 L 320.41 132.97 L 324.66 132.97 L 328.91 132.97 L 333.16 132.97 L 337.41 132.97 L 341.66 132.97 L 345.91 132.97 L 350.16 132.97 L 354.40 132.97 L 358.65 132.97 L 362.90 132.97 L 367.15 132.97 L 371.40 132.97 L 375.65 132.97 L 379.90 132.97 L 384.15 132.97 L 388.39 132.97 L 392.64 132.97 L 396.89 132.97 L 401.14 132.97 L 405.39 132.97 L 409.64 132.97 L 413.89 132.97 L 418.13 132.97 L 422.38 132.97 L 426.63 132.97 L 430.88 132.97 L 435.13 132.97 L 439.38 132.97 L 443.63 132.97 L 447.88 132.97 L 452.12 132.97 L 456.37 132.97 L 460.62 132.97 L 464.87 132.97 L 469.12 132.97 L 473.37 132.97 L 477.62 132.97 L 481.87 132.97 L 486.11 132.97 L 490.36 132.97 L 494.61 132.97 L 498.86 132.97 L 503.11 132.97 L 507.36 132.97 L 511.61 132.97 L 515.85 132.97 L 520.10 132.97 L 524.35 132.97 L 528.60 132.97 L 532.85 132.97 L 537.10 132.97 L 541.35 132.97 L 545.60 132.97 L 549.84 132.97 L 554.09 132.97 L 558.34 132.97 L 562.59 132.97 L 566.84 132.97 L 571.09 132.97 L 575.34 132.97 L 579.59 132.97 L 583.83 132.97 L 588.08 132.97 L 592.33 132.97 L 596.58 132.97 L 600.83 132.97 L 605.08 132.97 L 609.33 132.97 L 613.58 132.97 L 617.82 132.97 L 622.07 132.97 L 626.32 132.97 L 630.57 132.97 L 634.82 132.97 L 639.07 132.97 L 643.32 132.97 L 647.56 132.97 L 651.81 132.97 L 656.06 132.97 L 660.31 132.97 L 664.56 132.97 L 668.81 132.97 L 673.06 132.97 L 677.31 132.97 L 681.55 132.97 L 685.80 132.97 L 690.05 124.51 L 694.30 120.64 L 698.55 116.77 L 702.80 112.90 L 707.05 109.03 L 711.30 105.97 L 715.54 105.97 L 719.79 105.97 L 724.04 105.97 L 728.29 105.97 L 732.54 105.79 L 736.79 103.09 L 741.04 98.41 L 745.28 98.41 L 749.53 98.41 L 753.78 98.41 L 758.03 98.41 L 762.28 98.41 L 766.53 98.41 L 770.78 98.41 L 775.03 98.41 L 779.27 98.41 L 783.52 98.41 L 787.77 98.41 L 792.02 98.41 L 796.27 98.41 L 800.52 98.41 L 804.77 98.41 L 809.02 98.41 L 813.26 98.41 L 817.51 98.41 L 821.76 98.41 L 826.01 98.41 L 830.26 98.41 L 834.51 98.41 L 838.76 98.41 L 843.01 98.41 L 847.25 98.41 L 851.50 98.41 L 855.75 98.41 L 860.00 98.41" fill="none" stroke="#111827" stroke-width="2"/>
    <circle cx="860.00" cy="98.41" r="3" fill="#111827"/>
    <text x="40.00" y="235.00" font-size="9" fill="#111827" text-anchor="middle" transform="rotate(-45 40.00 235.00)">09.08.2025</text><text x="120.73" y="235.00" font-size="9" fill="#111827" text-anchor="middle" transform="rotate(-45 120.73 235.00)">09.08.2025</text><text x="201.45" y="235.00" font-size="9" fill="#111827" text-anchor="middle" transform="rotate(-45 201.45 235.00)">14.08.2025</text><text x="282.18" y="235.00" font-size="9" fill="#111827" text-anchor="middle" transform="rotate(-45 282.18 235.00)">31.08.2025</text><text x="362.90" y="235.00" font-size="9" fill="#111827" text-anchor="middle" transform="rotate(-45 362.90 235.00)">19.09.2025</text><text x="443.63" y="235.00" font-size="9" fill="#111827" text-anchor="middle" transform="rotate(-45 443.63 235.00)">08.10.2025</text><text x="524.35" y="235.00" font-size="9" fill="#111827" text-anchor="middle" transform="rotate(-45 524.35 235.00)">27.10.2025</text><text x="605.08" y="235.00" font-size="9" fill="#111827" text-anchor="middle" transform="rotate(-45 605.08 235.00)">15.11.2025</text><text x="685.80" y="235.00" font-size="9" fill="#111827" text-anchor="middle" transform="rotate(-45 685.80 235.00)">04.12.2025</text><text x="766.53" y="235.00" font-size="9" fill="#111827" text-anchor="middle" transform="rotate(-45 766.53 235.00)">13.12.2025</text><text x="847.25" y="235.00" font-size="9" fill="#111827" text-anchor="middle" transform="rotate(-45 847.25 235.00)">01.01.2026</text>
  </g>
</svg>