<svg xmlns="http://www.w3.org/2000/svg" width="900" height="290" style="font-family: -apple-system, BlinkMacSystemFont, 'Segoe UI', Helvetica, Arial, sans-serif;">
  <rect width="100%" height="100%" fill="#0d1117"/>
  <g>
    <line x1="40" y1="220.00" x2="860" y2="220.00" stroke="#30363d"/><text x="32" y="224.00" font-size="10" fill="#c9d1d9" text-anchor="end">0</text><line x1="40" y1="175.00" x2="860" y2="175.00" stroke="#30363d"/><text x="32" y="179.00" font-size="10" fill="#c9d1d9" text-anchor="end">500</text><line x1="40" y1="130.00" x2="860" y2="130.00" stroke="#30363d"/><text x="32" y="134.00" font-size="10" fill="#c9d1d9" text-anchor="end">1k</text><line x1="40" y1="85.00" x2="860" y2="85.00" stroke="#30363d"/><text x="32" y="89.00" font-size="10" fill="#c9d1d9" text-anchor="end">1.5k</text><line x1="40" y1="40.00" x2="860" y2="40.00" stroke="#30363d"/><text x="32" y="44.00" font-size="10" fill="#c9d1d9" text-anchor="end">2k</text>
    <line x1="40.00" y1="40" x2="40.00" y2="220" stroke="#30363d" opacity="0.5"/><line x1="121.23" y1="40" x2="121.23" y2="220" stroke="#30363d" opacity="0.5"/><line x1="202.45" y1="40" x2="202.45" y2="220" stroke="#30363d" opacity="0.5"/><line x1="283.68" y1="40" x2="283.68" y2="220" stroke="#30363d" opacity="0.5"/><line x1="364.91" y1="40" x2="364.91" y2="220" stroke="#30363d" opacity="0.5"/><line x1="446.13" y1="40" x2="446.13" y2="220" stroke="#30363d" opacity="0.5"/><line x1="527.36" y1="40" x2="527.36" y2="220" stroke="#30363d" opacity="0.5"/><line x1="608.58" y1="40" x2="608.58" y2="220" stroke="#30363d" opacity="0.5"/><line x1="689.81" y1="40" x2="689.81" y2="220" stroke="#30363d" opacity="0.5"/><line x1="771.04" y1="40" x2="771.04" y2="220" stroke="#30363d" opacity="0.5"/><line x1="852.26" y1="40" x2="852.26" y2="220" stroke="#30363d" opacity="0.5"/>
    <line x1="40" y1="220" x2="860" y2="220" stroke="#30363d"/>
    <line x1="40" y1="40"   x2="40"   y2="220" stroke="#30363d"/>
    <path d="M 40.00 219.82 L 43.87 214.15 L 47.74 214.06 L 51.60 214.06 L 55.47 213.25 L 59.34 213.25 L 63.21 204.88 L 67.08 185.98 L 70.94 185.98 L 74.81 180.94 L 78.68 152.59 L 82.55 159.97 L 86.42 158.89 L 90.28 158.17 L 94.15 139.63 L 98.02 139.63 L 101.89 157.18 L 105.75 154.66 L 109.62 154.39 L 113.49 151.60 L 117.36 150.97 L 121.23 150.70 L 125.09 149.80 L 128.96 149.80 L 132.83 147.46 L 136.70 144.94 L 140.57 144.76 L 144.43 140.71 L 148.30 134.23 L 152.17 134.23 L 156.04 133.69 L 159.91 133.69 L 163.77 133.69 L 167.64 133.69 L 171.51 133.69 L 175.38 133.69 L 179.25 132.97 L 183.11 132.97 L 186.98 132.97 L 190.85 132.97 L 194.72 132.97 L 198.58 132.97 L 202.45 132.97 L 206.32 132.97 L 210.19 132.97 L 214.06 132.97 L 217.92 132.97 L 221.79 132.97 L 225.66 132.97 L 229.53 132.97 L 233.40 132.97 L 237.26 132.97 L 241.13 132.97 L 245.00 132.97 L 248.87 132.97 L 252.74 132.97 L 256.60 132.97 L 260.47 132.97 L 264.34 132.97 L 268.21 132.97 L 272.08 132.97 L 275.94 132.97 L 279.81 132.97 L 283.68 132.97 L 287.55 132.97 L 291.42 132.97 L 295.28 132.97 L 299.15 132.97 L 303.02 132.97 L 306.89 132.97 L 310.75 132.97 L 314.62 132.97 L 318.49 132.97 L 322.36 132.97 L 326.23 132.97 L 330.09 132.97 L 333.96 132.97 L 337.83 132.97 L 341.70 132.97 L 345.57 132.97 L 349.43 132.97 L 353.30 132.97 L 357.17 132.97 L 361.04 132.97 L 364.91 132.97 L 368.77 132.97 L 372.64 132.97 L 376.51 132.97 L 380.38 132.97 L 384.25 132.97 L 388.11 132.97 L 391.98 132.97 L 395.85 132.97 L 399.72 132.97 L 403.58 132.97 L 407.45 132.97 L 411.32 132.97 L 415.19 132.97 L 419.06 132.97 L 422.92 132.97 L 426.79 132.97 L 430.66 132.97 L 434.53 132.97 L 438.40 132.97 L 442.26 132.97 L 446.13 132.97 L 450.00 132.97 L 453.87 132.97 L 457.74 132.97 L 461.60 132.97 L 465.47 132.97 L 469.34 132.97 L 473.21 132.97 L 477.08 132.97 L 480.94 132.97 L 484.81 132.97 L 488.68 132.97 L 492.55 132.97 L 496.42 132.97 L 500.28 132.97 L 504.15 132.97 L 508.02 132.97 L 511.89 132.97 L 515.75 132.97 L 519.62 132.97 L 523.49 132.97 L 527.36 132.97 L 531.23 132.97 L 535.09 132.97 L 538.96 132.97 L 542.83 132.97 L 546.70 132.97 L 550.57 132.97 L 554.43 132.97 L 558.30 132.97 L 562.17 132.97 L 566.04 132.97 L 569.91 132.97 L 573.77 132.97 L 577.64 132.97 L 581.51 132.97 L 585.38 132.97 L 589.25 132.97 L 593.11 132.97 L 596.98 132.97 L 600.85 132.97 L 604.72 132.97 L 608.58 132.97 L 612.45 132.97 L 616.32 132.97 L 620.19 132.97 L 624.06 132.97 L 627.92 132.97 L 631.79 124.51 L 635.66 120.64 L 639.53 116.77 L 643.40 112.90 L 647.26 109.03 L 651.13 105.97 L 655.00 105.97 L 658.87 105.97 L 662.74 105.97 L 666.60 105.97 L 670.47 105.79 L 674.34 103.09 L 678.21 98.41 L 682.08 98.41 L 685.94 98.41 L 689.81 98.41 L 693.68 98.41 L 697.55 98.41 L 701.42 98.41 L 705.28 98.41 L 709.15 98.41 L 713.02 98.41 L 716.89 98.41 L 720.75 98.41 L 724.62 98.41 L 728.49 98.41 L 732.36 98.41 L 736.23 98.41 L 740.09 98.41 L 743.96 98.41 L 747.83 98.41 L 751.70 98.41 L 755.57 98.41 L 759.43 98.41 L 763.30 98.41 L 767.17 98.41 L 771.04 98.41 L 774.91 98.41 L 778.77 98.41 L 782.64 98.41 L 786.51 98.41 L 790.38 98.41 L 794.25 98.41 L 798.11 98.41 L 801.98 98.41 L 805.85 98.41 L 809.72 98.41 L 813.58 98.41 L 817.45 98.41 L 821.32 98.41 L 825.19 98.41 L 829.06 98.41 L 832.92 98.41 L 836.79 98.41 L 840.66 98.41 L 844.53 98.41 L 848.40 98.41 L 852.26 98.41 L 856.13 98.41 L 860.00 98.41" fill="none" stroke="#3fb950" stroke-width="2"/>
    <circle cx="860.00" cy="98.41" r="3" fill="#3fb950"/>
    <text x="40.00" y="235.00" font-size="9" fill="#c9d1d9" text-anchor="middle" transform="rotate(-45 40.00 235.00)">09.08.2025</text><text x="121.23" y="235.00" font-size="9" fill="#c9d1d9" text-anchor="middle" transform="rotate(-45 121.23 235.00)">09.08.2025</text><text x="202.45" y="235.00" font-size="9" fill="#c9d1d9" text-anchor="middle" transform="rotate(-45 202.45 235.00)">18.08.2025</text><text x="283.68" y="235.00" font-size="9" fill="#c9d1d9" text-anchor="middle" transform="rotate(-45 283.68 235.00)">06.09.2025</text><text x="364.91" y="235.00" font-size="9" fill="#c9d1d9" text-anchor="middle" transform="rotate(-45 364.91 235.00)">27.09.2025</text><text x="446.13" y="235.00" font-size="9" fill="#c9d1d9" text-anchor="middle" transform="rotate(-45 446.13 235.00)">18.10.2025</text><text x="527.36" y="235.00" font-size="9" fill="#c9d1d9" text-anchor="middle" transform="rotate(-45 527.36 235.00)">08.11.2025</text><text x="608.58" y="235.00" font-size="9" fill="#c9d1d9" text-anchor="middle" transform="rotate(-45 608.58 235.00)">29.11.2025</text><text x="689.81" y="235.00" font-size="9" fill="#c9d1d9" text-anchor="middle" transform="rotate(-45 689.81 235.00)">10.12.2025</text><text x="771.04" y="235.00" font-size="9" fill="#c9d1d9" text-anchor="middle" transform="rotate(-45 771.04 235.00)">31.12.2025</text><text x="852.26" y="235.00" font-size="9" fill="#c9d1d9" text-anchor="middle" transform="rotate(-45 852.26 235.00)">21.01.2026</text>
  </g>
</svg>