<svg xmlns="http://www.w3.org/2000/svg" width="900" height="290" style="font-family: -apple-system, BlinkMacSystemFont, 'Segoe UI', Helvetica, Arial, sans-serif;">
  <rect width="100%" height="100%" fill="#0d1117"/>
  <g>
    <line x1="40" y1="220.00" x2="860" y2="220.00" stroke="#30363d"/><text x="32" y="224.00" font-size="10" fill="#c9d1d9" text-anchor="end">0</text><line x1="40" y1="175.00" x2="860" y2="175.00" stroke="#30363d"/><text x="32" y="179.00" font-size="10" fill="#c9d1d9" text-anchor="end">500</text><line x1="40" y1="130.00" x2="860" y2="130.00" stroke="#30363d"/><text x="32" y="134.00" font-size="10" fill="#c9d1d9" text-anchor="end">1k</text><line x1="40" y1="85.00" x2="860" y2="85.00" stroke="#30363d"/><text x="32" y="89.00" font-size="10" fill="#c9d1d9" text-anchor="end">1.5k</text><line x1="40" y1="40.00" x2="860" y2="40.00" stroke="#30363d"/><text x="32" y="44.00" font-size="10" fill="#c9d1d9" text-anchor="end">2k</text>
    <line x1="40.00" y1="40" x2="40.00" y2="220" stroke="#30363d" opacity="0.5"/><line x1="116.64" y1="40" x2="116.64" y2="220" stroke="#30363d" opacity="0.5"/><line x1="193.27" y1="40" x2="193.27" y2="220" stroke="#30363d" opacity="0.5"/><line x1="269.91" y1="40" x2="269.91" y2="220" stroke="#30363d" opacity="0.5"/><line x1="346.54" y1="40" x2="346.54" y2="220" stroke="#30363d" opacity="0.5"/><line x1="423.18" y1="40" x2="423.18" y2="220" stroke="#30363d" opacity="0.5"/><line x1="499.81" y1="40" x2="499.81" y2="220" stroke="#30363d" opacity="0.5"/><line x1="576.45" y1="40" x2="576.45" y2="220" stroke="#30363d" opacity="0.5"/><line x1="653.08" y1="40" x2="653.08" y2="220" stroke="#30363d" opacity="0.5"/><line x1="729.72" y1="40" x2="729.72" y2="220" stroke="#30363d" opacity="0.5"/><line x1="806.36" y1="40" x2="806.36" y2="220" stroke="#30363d" opacity="0.5"/>
    <line x1="40" y1="220" x2="860" y2="220" stroke="#30363d"/>
    <line x1="40" y1="40"   x2="40"   y2="220" stroke="#30363d"/>
    <path d="M 40.00 219.82 L 47.66 214.15 L 55.33 214.06 L 62.99 214.06 L 70.65 213.25 L 78.32 213.25 L 85.98 204.88 L 93.64 185.98 L 101.31 185.98 L 108.97 180.94 L 116.64 152.59 L 124.30 159.97 L 131.96 158.89 L 139.63 158.17 L 147.29 139.63 L 154.95 139.63 L 162.62 157.18 L 170.28 154.66 L 177.94 154.39 L 185.61 151.60 L 193.27 150.97 L 200.93 150.70 L 208.60 149.80 L 216.26 149.80 L 223.93 147.46 L 231.59 144.94 L 239.25 144.76 L 246.92 140.71 L 254.58 134.23 L 262.24 134.23 L 269.91 133.69 L 277.57 133.69 L 285.23 133.69 L 292.90 133.69 L 300.56 133.69 L 308.22 133.69 L 315.89 132.97 L 323.55 132.97 L 331.21 132.97 L 338.88 132.97 L 346.54 132.97 L 354.21 132.97 L 361.87 132.97 L 369.53 132.97 L 377.20 132.97 L 384.86 132.97 L 392.52 132.97 L 400.19 132.97 L 407.85 132.97 L 415.51 132.97 L 423.18 132.97 L 430.84 132.97 L 438.50 132.97 L 446.17 132.97 L 453.83 132.97 L 461.50 132.97 L 469.16 132.97 L 476.82 132.97 L 484.49 132.97 L 492.15 132.97 L 499.81 132.97 L 507.48 132.97 L 515.14 132.97 L 522.80 132.97 L 530.47 132.97 L 538.13 132.97 L 545.79 132.97 L 553.46 132.97 L 561.12 132.97 L 568.79 132.97 L 576.45 132.97 L 584.11 132.97 L 591.78 132.97 L 599.44 132.97 L 607.10 132.97 L 614.77 132.97 L 622.43 132.97 L 630.09 132.97 L 637.76 132.97 L 645.42 132.97 L 653.08 132.97 L 660.75 132.97 L 668.41 132.97 L 676.07 132.97 L 683.74 132.97 L 691.40 132.97 L 699.07 132.97 L 706.73 132.97 L 714.39 132.97 L 722.06 132.97 L 729.72 132.97 L 737.38 132.97 L 745.05 132.97 L 752.71 132.97 L 760.37 132.97 L 768.04 132.97 L 775.70 132.97 L 783.36 132.97 L 791.03 132.97 L 798.69 132.97 L 806.36 132.97 L 814.02 132.97 L 821.68 132.97 L 829.35 132.97 L 837.01 132.97 L 844.67 132.97 L 852.34 132.97 L 860.00 132.97" fill="none" stroke="#3fb950" stroke-width="2"/>
    <circle cx="860.00" cy="132.97" r="3" fill="#3fb950"/>
    <text x="40.00" y="235.00" font-size="9" fill="#c9d1d9" text-anchor="middle" transform="rotate(-45 40.00 235.00)">09.08.2025</text><text x="116.64" y="235.00" font-size="9" fill="#c9d1d9" text-anchor="middle" transform="rotate(-45 116.64 235.00)">09.08.2025</text><text x="193.27" y="235.00" font-size="9" fill="#c9d1d9" text-anchor="middle" transform="rotate(-45 193.27 235.00)">09.08.2025</text><text x="269.91" y="235.00" font-size="9" fill="#c9d1d9" text-anchor="middle" transform="rotate(-45 269.91 235.00)">13.08.2025</text><text x="346.54" y="235.00" font-size="9" fill="#c9d1d9" text-anchor="middle" transform="rotate(-45 346.54 235.00)">16.08.2025</text><text x="423.18" y="235.00" font-size="9" fill="#c9d1d9" text-anchor="middle" transform="rotate(-45 423.18 235.00)">26.08.2025</text><text x="499.81" y="235.00" font-size="9" fill="#c9d1d9" text-anchor="middle" transform="rotate(-45 499.81 235.00)">03.09.2025</text><text x="576.45" y="235.00" font-size="9" fill="#c9d1d9" text-anchor="middle" transform="rotate(-45 576.45 235.00)">13.09.2025</text><text x="653.08" y="235.00" font-size="9" fill="#c9d1d9" text-anchor="middle" transform="rotate(-45 653.08 235.00)">23.09.2025</text><text x="729.72" y="235.00" font-size="9" fill="#c9d1d9" text-anchor="middle" transform="rotate(-45 729.72 235.00)">03.10.2025</text><text x="806.36" y="235.00" font-size="9" fill="#c9d1d9" text-anchor="middle" transform="rotate(-45 806.36 235.00)">13.10.2025</text>
  </g>
</svg>