<svg xmlns="http://www.w3.org/2000/svg" width="900" height="290" style="font-family: -apple-system, BlinkMacSystemFont, 'Segoe UI', Helvetica, Arial, sans-serif;">
  <rect width="100%" height="100%" fill="white"/>
  <g>
    <line x1="40" y1="220.00" x2="860" y2="220.00" stroke="#e5e7eb"/><text x="32" y="224.00" font-size="10" fill="#111827" text-anchor="end">0</text><line x1="40" y1="175.00" x2="860" y2="175.00" stroke="#e5e7eb"/><text x="32" y="179.00" font-size="10" fill="#111827" text-anchor="end">500</text><line x1="40" y1="130.00" x2="860" y2="130.00" stroke="#e5e7eb"/><text x="32" y="134.00" font-size="10" fill="#111827" text-anchor="end">1k</text><line x1="40" y1="85.00" x2="860" y2="85.00" stroke="#e5e7eb"/><text x="32" y="89.00" font-size="10" fill="#111827" text-anchor="end">1.5k</text><line x1="40" y1="40.00" x2="860" y2="40.00" stroke="#e5e7eb"/><text x="32" y="44.00" font-size="10" fill="#111827" text-anchor="end">2k</text>
    <line x1="40.00" y1="40" x2="40.00" y2="220" stroke="#e5e7eb" opacity="0.5"/><line x1="120.00" y1="40" x2="120.00" y2="220" stroke="#e5e7eb" opacity="0.5"/><line x1="200.00" y1="40" x2="200.00" y2="220" stroke="#e5e7eb" opacity="0.5"/><line x1="280.00" y1="40" x2="280.00" y2="220" stroke="#e5e7eb" opacity="0.5"/><line x1="360.00" y1="40" x2="360.00" y2="220" stroke="#e5e7eb" opacity="0.5"/><line x1="440.00" y1="40" x2="440.00" y2="220" stroke="#e5e7eb" opacity="0.5"/><line x1="520.00" y1="40" x2="520.00" y2="220" stroke="#e5e7eb" opacity="0.5"/><line x1="600.00" y1="40" x2="600.00" y2="220" stroke="#e5e7eb" opacity="0.5"/><line x1="680.00" y1="40" x2="680.00" y2="220" stroke="#e5e7eb" opacity="0.5"/><line x1="760.00" y1="40" x2="760.00" y2="220" stroke="#e5e7eb" opacity="0.5"/><line x1="840.00" y1="40" x2="840.00" y2="220" stroke="#e5e7eb" opacity="0.5"/>
    <line x1="40" y1="220" x2="860" y2="220" stroke="#9ca3af"/>
    <line x1="40" y1="40"   x2="40"   y2="220" stroke="#9ca3af"/>
    <path d="M 40.00 219.82 L 50.00 214.15 L 60.00 214.06 L 70.00 214.06 L 80.00 213.25 L 90.00 213.25 L 100.00 204.88 L 110.00 185.98 L 120.00 185.98 L 130.00 180.94 L 140.00 152.59 L 150.00 159.97 L 160.00 158.89 L 170.00 158.17 L 180.00 139.63 L 190.00 139.63 L 200.00 157.18 L 210.00 154.66 L 220.00 154.39 L 230.00 151.60 L 240.00 150.97 L 250.00 150.70 L 260.00 149.80 L 270.00 149.80 L 280.00 147.46 L 290.00 144.94 L 300.00 144.76 L 310.00 140.71 L 320.00 134.23 L 330.00 134.23 L 340.00 133.69 L 350.00 133.69 L 360.00 133.69 L 370.00 133.69 L 380.00 133.69 L 390.00 133.69 L 400.00 132.97 L 410.00 132.97 L 420.00 132.97 L 430.00 132.97 L 440.00 132.97 L 450.00 132.97 L 460.00 132.97 L 470.00 132.97 L 480.00 132.97 L 490.00 132.97 L 500.00 132.97 L 510.00 132.97 L 520.00 132.97 L 530.00 132.97 L 540.00 132.97 L 550.00 132.97 L 560.00 132.97 L 570.00 132.97 L 580.00 132.97 L 590.00 132.97 L 600.00 132.97 L 610.00 132.97 L 620.00 132.97 L 630.00 132.97 L 640.00 132.97 L 650.00 132.97 L 660.00 132.97 L 670.00 132.97 L 680.00 132.97 L 690.00 132.97 L 700.00 132.97 L 710.00 132.97 L 720.00 132.97 L 730.00 132.97 L 740.00 132.97 L 750.00 132.97 L 760.00 132.97 L 770.00 132.97 L 780.00 132.97 L 790.00 132.97 L 800.00 132.97 L 810.00 132.97 L 820.00 132.97 L 830.00 132.97 L 840.00 132.97 L 850.00 132.97 L 860.00 132.97" fill="none" stroke="#111827" stroke-width="2"/>
    <circle cx="860.00" cy="132.97" r="3" fill="#111827"/>
    <text x="40.00" y="235.00" font-size="9" fill="#111827" text-anchor="middle" transform="rotate(-45 40.00 235.00)">09.08.2025</text><text x="120.00" y="235.00" font-size="9" fill="#111827" text-anchor="middle" transform="rotate(-45 120.00 235.00)">09.08.2025</text><text x="200.00" y="235.00" font-size="9" fill="#111827" text-anchor="middle" transform="rotate(-45 200.00 235.00)">09.08.2025</text><text x="280.00" y="235.00" font-size="9" fill="#111827" text-anchor="middle" transform="rotate(-45 280.00 235.00)">09.08.2025</text><text x="360.00" y="235.00" font-size="9" fill="#111827" text-anchor="middle" transform="rotate(-45 360.00 235.00)">13.08.2025</text><text x="440.00" y="235.00" font-size="9" fill="#111827" text-anchor="middle" transform="rotate(-45 440.00 235.00)">16.08.2025</text><text x="520.00" y="235.00" font-size="9" fill="#111827" text-anchor="middle" transform="rotate(-45 520.00 235.00)">24.08.2025</text><text x="600.00" y="235.00" font-size="9" fill="#111827" text-anchor="middle" transform="rotate(-45 600.00 235.00)">30.08.2025</text><text x="680.00" y="235.00" font-size="9" fill="#111827" text-anchor="middle" transform="rotate(-45 680.00 235.00)">07.09.2025</text><text x="760.00" y="235.00" font-size="9" fill="#111827" text-anchor="middle" transform="rotate(-45 760.00 235.00)">15.09.2025</text><text x="840.00" y="235.00" font-size="9" fill="#111827" text-anchor="middle" transform="rotate(-45 840.00 235.00)">23.09.2025</text>
  </g>
</svg>