<svg xmlns="http://www.w3.org/2000/svg" width="900" height="290" style="font-family: -apple-system, BlinkMacSystemFont, 'Segoe UI', Helvetica, Arial, sans-serif;">
  <rect width="100%" height="100%" fill="white"/>
  <g>
    <line x1="40" y1="220.00" x2="860" y2="220.00" stroke="#e5e7eb"/><text x="32" y="224.00" font-size="10" fill="#111827" text-anchor="end">0</text><line x1="40" y1="175.00" x2="860" y2="175.00" stroke="#e5e7eb"/><text x="32" y="179.00" font-size="10" fill="#111827" text-anchor="end">500</text><line x1="40" y1="130.00" x2="860" y2="130.00" stroke="#e5e7eb"/><text x="32" y="134.00" font-size="10" fill="#111827" text-anchor="end">1k</text><line x1="40" y1="85.00" x2="860" y2="85.00" stroke="#e5e7eb"/><text x="32" y="89.00" font-size="10" fill="#111827" text-anchor="end">1.5k</text><line x1="40" y1="40.00" x2="860" y2="40.00" stroke="#e5e7eb"/><text x="32" y="44.00" font-size="10" fill="#111827" text-anchor="end">2k</text>
    <line x1="40.00" y1="40" x2="40.00" y2="220" stroke="#e5e7eb" opacity="0.5"/><line x1="120.33" y1="40" x2="120.33" y2="220" stroke="#e5e7eb" opacity="0.5"/><line x1="200.65" y1="40" x2="200.65" y2="220" stroke="#e5e7eb" opacity="0.5"/><line x1="280.98" y1="40" x2="280.98" y2="220" stroke="#e5e7eb" opacity="0.5"/><line x1="361.31" y1="40" x2="361.31" y2="220" stroke="#e5e7eb" opacity="0.5"/><line x1="441.63" y1="40" x2="441.63" y2="220" stroke="#e5e7eb" opacity="0.5"/><line x1="521.96" y1="40" x2="521.96" y2="220" stroke="#e5e7eb" opacity="0.5"/><line x1="602.29" y1="40" x2="602.29" y2="220" stroke="#e5e7eb" opacity="0.5"/><line x1="682.61" y1="40" x2="682.61" y2="220" stroke="#e5e7eb" opacity="0.5"/><line x1="762.94" y1="40" x2="762.94" y2="220" stroke="#e5e7eb" opacity="0.5"/><line x1="843.27" y1="40" x2="843.27" y2="220" stroke="#e5e7eb" opacity="0.5"/>
    <line x1="40" y1="220" x2="860" y2="220" stroke="#9ca3af"/>
    <line x1="40" y1="40"   x2="40"   y2="220" stroke="#9ca3af"/>
    <path d="M 40.00 219.82 L 43.35 214.15 L 46.69 214.06 L 50.04 214.06 L 53.39 213.25 L 56.73 213.25 L 60.08 204.88 L 63.43 185.98 L 66.78 185.98 L 70.12 180.94 L 73.47 152.59 L 76.82 159.97 L 80.16 158.89 L 83.51 158.17 L 86.86 139.63 L 90.20 139.63 L 93.55 157.18 L 96.90 154.66 L 100.24 154.39 L 103.59 151.60 L 106.94 150.97 L 110.29 150.70 L 113.63 149.80 L 116.98 149.80 L 120.33 147.46 L 123.67 144.94 L 127.02 144.76 L 130.37 140.71 L 133.71 134.23 L 137.06 134.23 L 140.41 133.69 L 143.76 133.69 L 147.10 133.69 L 150.45 133.69 L 153.80 133.69 L 157.14 133.69 L 160.49 132.97 L 163.84 132.97 L 167.18 132.97 L 170.53 132.97 L 173.88 132.97 L 177.22 132.97 L 180.57 132.97 L 183.92 132.97 L 187.27 132.97 L 190.61 132.97 L 193.96 132.97 L 197.31 132.97 L 200.65 132.97 L 204.00 132.97 L 207.35 132.97 L 210.69 132.97 L 214.04 132.97 L 217.39 132.97 L 220.73 132.97 L 224.08 132.97 L 227.43 132.97 L 230.78 132.97 L 234.12 132.97 L 237.47 132.97 L 240.82 132.97 L 244.16 132.97 L 247.51 132.97 L 250.86 132.97 L 254.20 132.97 L 257.55 132.97 L 260.90 132.97 L 264.24 132.97 L 267.59 132.97 L 270.94 132.97 L 274.29 132.97 L 277.63 132.97 L 280.98 132.97 L 284.33 132.97 L 287.67 132.97 L 291.02 132.97 L 294.37 132.97 L 297.71 132.97 L 301.06 132.97 L 304.41 132.97 L 307.76 132.97 L 311.10 132.97 L 314.45 132.97 L 317.80 132.97 L 321.14 132.97 L 324.49 132.97 L 327.84 132.97 L 331.18 132.97 L 334.53 132.97 L 337.88 132.97 L 341.22 132.97 L 344.57 132.97 L 347.92 132.97 L 351.27 132.97 L 354.61 132.97 L 357.96 132.97 L 361.31 132.97 L 364.65 132.97 L 368.00 132.97 L 371.35 132.97 L 374.69 132.97 L 378.04 132.97 L 381.39 132.97 L 384.73 132.97 L 388.08 132.97 L 391.43 132.97 L 394.78 132.97 L 398.12 132.97 L 401.47 132.97 L 404.82 132.97 L 408.16 132.97 L 411.51 132.97 L 414.86 132.97 L 418.20 132.97 L 421.55 132.97 L 424.90 132.97 L 428.24 132.97 L 431.59 132.97 L 434.94 132.97 L 438.29 132.97 L 441.63 132.97 L 444.98 132.97 L 448.33 132.97 L 451.67 132.97 L 455.02 132.97 L 458.37 132.97 L 461.71 132.97 L 465.06 132.97 L 468.41 132.97 L 471.76 132.97 L 475.10 132.97 L 478.45 132.97 L 481.80 132.97 L 485.14 132.97 L 488.49 132.97 L 491.84 132.97 L 495.18 132.97 L 498.53 132.97 L 501.88 132.97 L 505.22 132.97 L 508.57 132.97 L 511.92 132.97 L 515.27 132.97 L 518.61 132.97 L 521.96 132.97 L 525.31 132.97 L 528.65 132.97 L 532.00 132.97 L 535.35 132.97 L 538.69 132.97 L 542.04 132.97 L 545.39 132.97 L 548.73 132.97 L 552.08 124.51 L 555.43 120.64 L 558.78 116.77 L 562.12 112.90 L 565.47 109.03 L 568.82 105.97 L 572.16 105.97 L 575.51 105.97 L 578.86 105.97 L 582.20 105.97 L 585.55 105.79 L 588.90 103.09 L 592.24 98.41 L 595.59 98.41 L 598.94 98.41 L 602.29 98.41 L 605.63 98.41 L 608.98 98.41 L 612.33 98.41 L 615.67 98.41 L 619.02 98.41 L 622.37 98.41 L 625.71 98.41 L 629.06 98.41 L 632.41 98.41 L 635.76 98.41 L 639.10 98.41 L 642.45 98.41 L 645.80 98.41 L 649.14 98.41 L 652.49 98.41 L 655.84 98.41 L 659.18 98.41 L 662.53 98.41 L 665.88 98.41 L 669.22 98.41 L 672.57 98.41 L 675.92 98.41 L 679.27 98.41 L 682.61 98.41 L 685.96 98.41 L 689.31 98.41 L 692.65 98.41 L 696.00 98.41 L 699.35 98.41 L 702.69 98.41 L 706.04 98.41 L 709.39 98.41 L 712.73 98.41 L 716.08 98.41 L 719.43 98.41 L 722.78 98.41 L 726.12 98.41 L 729.47 98.41 L 732.82 98.41 L 736.16 98.41 L 739.51 98.41 L 742.86 98.41 L 746.20 98.41 L 749.55 98.41 L 752.90 98.41 L 756.24 98.41 L 759.59 98.41 L 762.94 98.41 L 766.29 98.41 L 769.63 98.41 L 772.98 98.41 L 776.33 98.41 L 779.67 98.41 L 783.02 98.41 L 786.37 98.41 L 789.71 98.41 L 793.06 98.41 L 796.41 98.41 L 799.76 98.41 L 803.10 98.41 L 806.45 98.41 L 809.80 98.41 L 813.14 98.41 L 816.49 98.41 L 819.84 98.41 L 823.18 98.41 L 826.53 98.41 L 829.88 98.41 L 833.22 98.41 L 836.57 98.41 L 839.92 98.41 L 843.27 98.41 L 846.61 98.41 L 849.96 98.41 L 853.31 98.41 L 856.65 98.41 L 860.00 98.41" fill="none" stroke="#111827" stroke-width="2"/>
    <circle cx="860.00" cy="98.41" r="3" fill="#111827"/>
    <text x="40.00" y="235.00" font-size="9" fill="#111827" text-anchor="middle" transform="rotate(-45 40.00 235.00)">09.08.2025</text><text x="120.33" y="235.00" font-size="9" fill="#111827" text-anchor="middle" transform="rotate(-45 120.33 235.00)">09.08.2025</text><text x="200.65" y="235.00" font-size="9" fill="#111827" text-anchor="middle" transform="rotate(-45 200.65 235.00)">24.08.2025</text><text x="280.98" y="235.00" font-size="9" fill="#111827" text-anchor="middle" transform="rotate(-45 280.98 235.00)">15.09.2025</text><text x="361.31" y="235.00" font-size="9" fill="#111827" text-anchor="middle" transform="rotate(-45 361.31 235.00)">09.10.2025</text><text x="441.63" y="235.00" font-size="9" fill="#111827" text-anchor="middle" transform="rotate(-45 441.63 235.00)">02.11.2025</text><text x="521.96" y="235.00" font-size="9" fill="#111827" text-anchor="middle" transform="rotate(-45 521.96 235.00)">26.11.2025</text><text x="602.29" y="235.00" font-size="9" fill="#111827" text-anchor="middle" transform="rotate(-45 602.29 235.00)">10.12.2025</text><text x="682.61" y="235.00" font-size="9" fill="#111827" text-anchor="middle" transform="rotate(-45 682.61 235.00)">03.01.2026</text><text x="762.94" y="235.00" font-size="9" fill="#111827" text-anchor="middle" transform="rotate(-45 762.94 235.00)">27.01.2026</text><text x="843.27" y="235.00" font-size="9" fill="#111827" text-anchor="middle" transform="rotate(-45 843.27 235.00)">20.02.2026</text>
  </g>
</svg>