<svg xmlns="http://www.w3.org/2000/svg" width="900" height="290" style="font-family: -apple-system, BlinkMacSystemFont, 'Segoe UI', Helvetica, Arial, sans-serif;">
  <rect width="100%" height="100%" fill="#0d1117"/>
  <g>
    <line x1="40" y1="220.00" x2="860" y2="220.00" stroke="#30363d"/><text x="32" y="224.00" font-size="10" fill="#c9d1d9" text-anchor="end">0</text><line x1="40" y1="175.00" x2="860" y2="175.00" stroke="#30363d"/><text x="32" y="179.00" font-size="10" fill="#c9d1d9" text-anchor="end">500</text><line x1="40" y1="130.00" x2="860" y2="130.00" stroke="#30363d"/><text x="32" y="134.00" font-size="10" fill="#c9d1d9" text-anchor="end">1k</text><line x1="40" y1="85.00" x2="860" y2="85.00" stroke="#30363d"/><text x="32" y="89.00" font-size="10" fill="#c9d1d9" text-anchor="end">1.5k</text><line x1="40" y1="40.00" x2="860" y2="40.00" stroke="#30363d"/><text x="32" y="44.00" font-size="10" fill="#c9d1d9" text-anchor="end">2k</text>
    <line x1="40.00" y1="40" x2="40.00" y2="220" stroke="#30363d" opacity="0.5"/><line x1="117.18" y1="40" x2="117.18" y2="220" stroke="#30363d" opacity="0.5"/><line x1="194.35" y1="40" x2="194.35" y2="220" stroke="#30363d" opacity="0.5"/><line x1="271.53" y1="40" x2="271.53" y2="220" stroke="#30363d" opacity="0.5"/><line x1="348.71" y1="40" x2="348.71" y2="220" stroke="#30363d" opacity="0.5"/><line x1="425.88" y1="40" x2="425.88" y2="220" stroke="#30363d" opacity="0.5"/><line x1="503.06" y1="40" x2="503.06" y2="220" stroke="#30363d" opacity="0.5"/><line x1="580.24" y1="40" x2="580.24" y2="220" stroke="#30363d" opacity="0.5"/><line x1="657.41" y1="40" x2="657.41" y2="220" stroke="#30363d" opacity="0.5"/><line x1="734.59" y1="40" x2="734.59" y2="220" stroke="#30363d" opacity="0.5"/><line x1="811.76" y1="40" x2="811.76" y2="220" stroke="#30363d" opacity="0.5"/>
    <line x1="40" y1="220" x2="860" y2="220" stroke="#30363d"/>
    <line x1="40" y1="40"   x2="40"   y2="220" stroke="#30363d"/>
    <path d="M 40.00 219.82 L 49.65 214.15 L 59.29 214.06 L 68.94 214.06 L 78.59 213.25 L 88.24 213.25 L 97.88 204.88 L 107.53 185.98 L 117.18 185.98 L 126.82 180.94 L 136.47 152.59 L 146.12 159.97 L 155.76 158.89 L 165.41 158.17 L 175.06 139.63 L 184.71 139.63 L 194.35 157.18 L 204.00 154.66 L 213.65 154.39 L 223.29 151.60 L 232.94 150.97 L 242.59 150.70 L 252.24 149.80 L 261.88 149.80 L 271.53 147.46 L 281.18 144.94 L 290.82 144.76 L 300.47 140.71 L 310.12 134.23 L 319.76 134.23 L 329.41 133.69 L 339.06 133.69 L 348.71 133.69 L 358.35 133.69 L 368.00 133.69 L 377.65 133.69 L 387.29 132.97 L 396.94 132.97 L 406.59 132.97 L 416.24 132.97 L 425.88 132.97 L 435.53 132.97 L 445.18 132.97 L 454.82 132.97 L 464.47 132.97 L 474.12 132.97 L 483.76 132.97 L 493.41 132.97 L 503.06 132.97 L 512.71 132.97 L 522.35 132.97 L 532.00 132.97 L 541.65 132.97 L 551.29 132.97 L 560.94 132.97 L 570.59 132.97 L 580.24 132.97 L 589.88 132.97 L 599.53 132.97 L 609.18 132.97 L 618.82 132.97 L 628.47 132.97 L 638.12 132.97 L 647.76 132.97 L 657.41 132.97 L 667.06 132.97 L 676.71 132.97 L 686.35 132.97 L 696.00 132.97 L 705.65 132.97 L 715.29 132.97 L 724.94 132.97 L 734.59 132.97 L 744.24 132.97 L 753.88 132.97 L 763.53 132.97 L 773.18 132.97 L 782.82 132.97 L 792.47 132.97 L 802.12 132.97 L 811.76 132.97 L 821.41 132.97 L 831.06 132.97 L 840.71 132.97 L 850.35 132.97 L 860.00 132.97" fill="none" stroke="#3fb950" stroke-width="2"/>
    <circle cx="860.00" cy="132.97" r="3" fill="#3fb950"/>
    <text x="40.00" y="235.00" font-size="9" fill="#c9d1d9" text-anchor="middle" transform="rotate(-45 40.00 235.00)">09.08.2025</text><text x="117.18" y="235.00" font-size="9" fill="#c9d1d9" text-anchor="middle" transform="rotate(-45 117.18 235.00)">09.08.2025</text><text x="194.35" y="235.00" font-size="9" fill="#c9d1d9" text-anchor="middle" transform="rotate(-45 194.35 235.00)">09.08.2025</text><text x="271.53" y="235.00" font-size="9" fill="#c9d1d9" text-anchor="middle" transform="rotate(-45 271.53 235.00)">09.08.2025</text><text x="348.71" y="235.00" font-size="9" fill="#c9d1d9" text-anchor="middle" transform="rotate(-45 348.71 235.00)">13.08.2025</text><text x="425.88" y="235.00" font-size="9" fill="#c9d1d9" text-anchor="middle" transform="rotate(-45 425.88 235.00)">16.08.2025</text><text x="503.06" y="235.00" font-size="9" fill="#c9d1d9" text-anchor="middle" transform="rotate(-45 503.06 235.00)">24.08.2025</text><text x="580.24" y="235.00" font-size="9" fill="#c9d1d9" text-anchor="middle" transform="rotate(-45 580.24 235.00)">30.08.2025</text><text x="657.41" y="235.00" font-size="9" fill="#c9d1d9" text-anchor="middle" transform="rotate(-45 657.41 235.00)">07.09.2025</text><text x="734.59" y="235.00" font-size="9" fill="#c9d1d9" text-anchor="middle" transform="rotate(-45 734.59 235.00)">15.09.2025</text><text x="811.76" y="235.00" font-size="9" fill="#c9d1d9" text-anchor="middle" transform="rotate(-45 811.76 235.00)">23.09.2025</text>
  </g>
</svg>