<svg xmlns="http://www.w3.org/2000/svg" width="900" height="290" style="font-family: -apple-system, BlinkMacSystemFont, 'Segoe UI', Helvetica, Arial, sans-serif;">
  <rect width="100%" height="100%" fill="white"/>
  <g>
    <line x1="40" y1="220.00" x2="860" y2="220.00" stroke="#e5e7eb"/><text x="32" y="224.00" font-size="10" fill="#111827" text-anchor="end">0</text><line x1="40" y1="175.00" x2="860" y2="175.00" stroke="#e5e7eb"/><text x="32" y="179.00" font-size="10" fill="#111827" text-anchor="end">500</text><line x1="40" y1="130.00" x2="860" y2="130.00" stroke="#e5e7eb"/><text x="32" y="134.00" font-size="10" fill="#111827" text-anchor="end">1k</text><line x1="40" y1="85.00" x2="860" y2="85.00" stroke="#e5e7eb"/><text x="32" y="89.00" font-size="10" fill="#111827" text-anchor="end">1.5k</text><line x1="40" y1="40.00" x2="860" y2="40.00" stroke="#e5e7eb"/><text x="32" y="44.00" font-size="10" fill="#111827" text-anchor="end">2k</text>
    <line x1="40.00" y1="40" x2="40.00" y2="220" stroke="#e5e7eb" opacity="0.5"/><line x1="122.49" y1="40" x2="122.49" y2="220" stroke="#e5e7eb" opacity="0.5"/><line x1="204.97" y1="40" x2="204.97" y2="220" stroke="#e5e7eb" opacity="0.5"/><line x1="287.46" y1="40" x2="287.46" y2="220" stroke="#e5e7eb" opacity="0.5"/><line x1="369.94" y1="40" x2="369.94" y2="220" stroke="#e5e7eb" opacity="0.5"/><line x1="452.43" y1="40" x2="452.43" y2="220" stroke="#e5e7eb" opacity="0.5"/><line x1="534.91" y1="40" x2="534.91" y2="220" stroke="#e5e7eb" opacity="0.5"/><line x1="617.40" y1="40" x2="617.40" y2="220" stroke="#e5e7eb" opacity="0.5"/><line x1="699.88" y1="40" x2="699.88" y2="220" stroke="#e5e7eb" opacity="0.5"/><line x1="782.37" y1="40" x2="782.37" y2="220" stroke="#e5e7eb" opacity="0.5"/>
    <line x1="40" y1="220" x2="860" y2="220" stroke="#9ca3af"/>
    <line x1="40" y1="40"   x2="40"   y2="220" stroke="#9ca3af"/>
    <path d="M 40.00 219.82 L 44.85 214.15 L 49.70 214.06 L 54.56 214.06 L 59.41 213.25 L 64.26 213.25 L 69.11 204.88 L 73.96 185.98 L 78.82 185.98 L 83.67 180.94 L 88.52 152.59 L 93.37 159.97 L 98.22 158.89 L 103.08 158.17 L 107.93 139.63 L 112.78 139.63 L 117.63 157.18 L 122.49 154.66 L 127.34 154.39 L 132.19 151.60 L 137.04 150.97 L 141.89 150.70 L 146.75 149.80 L 151.60 149.80 L 156.45 147.46 L 161.30 144.94 L 166.15 144.76 L 171.01 140.71 L 175.86 134.23 L 180.71 134.23 L 185.56 133.69 L 190.41 133.69 L 195.27 133.69 L 200.12 133.69 L 204.97 133.69 L 209.82 133.69 L 214.67 132.97 L 219.53 132.97 L 224.38 132.97 L 229.23 132.97 L 234.08 132.97 L 238.93 132.97 L 243.79 132.97 L 248.64 132.97 L 253.49 132.97 L 258.34 132.97 L 263.20 132.97 L 268.05 132.97 L 272.90 132.97 L 277.75 132.97 L 282.60 132.97 L 287.46 132.97 L 292.31 132.97 L 297.16 132.97 L 302.01 132.97 L 306.86 132.97 L 311.72 132.97 L 316.57 132.97 L 321.42 132.97 L 326.27 132.97 L 331.12 132.97 L 335.98 132.97 L 340.83 132.97 L 345.68 132.97 L 350.53 132.97 L 355.38 132.97 L 360.24 132.97 L 365.09 132.97 L 369.94 132.97 L 374.79 132.97 L 379.64 132.97 L 384.50 132.97 L 389.35 132.97 L 394.20 132.97 L 399.05 132.97 L 403.91 132.97 L 408.76 132.97 L 413.61 132.97 L 418.46 132.97 L 423.31 132.97 L 428.17 132.97 L 433.02 132.97 L 437.87 132.97 L 442.72 132.97 L 447.57 132.97 L 452.43 132.97 L 457.28 132.97 L 462.13 132.97 L 466.98 132.97 L 471.83 132.97 L 476.69 132.97 L 481.54 132.97 L 486.39 132.97 L 491.24 132.97 L 496.09 132.97 L 500.95 132.97 L 505.80 132.97 L 510.65 132.97 L 515.50 132.97 L 520.36 132.97 L 525.21 132.97 L 530.06 132.97 L 534.91 132.97 L 539.76 132.97 L 544.62 132.97 L 549.47 132.97 L 554.32 132.97 L 559.17 132.97 L 564.02 132.97 L 568.88 132.97 L 573.73 132.97 L 578.58 132.97 L 583.43 132.97 L 588.28 132.97 L 593.14 132.97 L 597.99 132.97 L 602.84 132.97 L 607.69 132.97 L 612.54 132.97 L 617.40 132.97 L 622.25 132.97 L 627.10 132.97 L 631.95 132.97 L 636.80 132.97 L 641.66 132.97 L 646.51 132.97 L 651.36 132.97 L 656.21 132.97 L 661.07 132.97 L 665.92 132.97 L 670.77 132.97 L 675.62 132.97 L 680.47 132.97 L 685.33 132.97 L 690.18 132.97 L 695.03 132.97 L 699.88 132.97 L 704.73 132.97 L 709.59 132.97 L 714.44 132.97 L 719.29 132.97 L 724.14 132.97 L 728.99 132.97 L 733.85 132.97 L 738.70 132.97 L 743.55 132.97 L 748.40 132.97 L 753.25 132.97 L 758.11 132.97 L 762.96 132.97 L 767.81 132.97 L 772.66 132.97 L 777.51 132.97 L 782.37 124.51 L 787.22 120.64 L 792.07 116.77 L 796.92 112.90 L 801.78 109.03 L 806.63 105.97 L 811.48 105.97 L 816.33 105.97 L 821.18 105.97 L 826.04 105.97 L 830.89 105.79 L 835.74 103.09 L 840.59 98.41 L 845.44 98.41 L 850.30 98.41 L 855.15 98.41 L 860.00 98.41" fill="none" stroke="#111827" stroke-width="2"/>
    <circle cx="860.00" cy="98.41" r="3" fill="#111827"/>
    <text x="40.00" y="235.00" font-size="9" fill="#111827" text-anchor="middle" transform="rotate(-45 40.00 235.00)">09.08.2025</text><text x="122.49" y="235.00" font-size="9" fill="#111827" text-anchor="middle" transform="rotate(-45 122.49 235.00)">09.08.2025</text><text x="204.97" y="235.00" font-size="9" fill="#111827" text-anchor="middle" transform="rotate(-45 204.97 235.00)">13.08.2025</text><text x="287.46" y="235.00" font-size="9" fill="#111827" text-anchor="middle" transform="rotate(-45 287.46 235.00)">27.08.2025</text><text x="369.94" y="235.00" font-size="9" fill="#111827" text-anchor="middle" transform="rotate(-45 369.94 235.00)">11.09.2025</text><text x="452.43" y="235.00" font-size="9" fill="#111827" text-anchor="middle" transform="rotate(-45 452.43 235.00)">28.09.2025</text><text x="534.91" y="235.00" font-size="9" fill="#111827" text-anchor="middle" transform="rotate(-45 534.91 235.00)">15.10.2025</text><text x="617.40" y="235.00" font-size="9" fill="#111827" text-anchor="middle" transform="rotate(-45 617.40 235.00)">01.11.2025</text><text x="699.88" y="235.00" font-size="9" fill="#111827" text-anchor="middle" transform="rotate(-45 699.88 235.00)">18.11.2025</text><text x="782.37" y="235.00" font-size="9" fill="#111827" text-anchor="middle" transform="rotate(-45 782.37 235.00)">04.12.2025</text>
  </g>
</svg>