<svg xmlns="http://www.w3.org/2000/svg" width="900" height="290" style="font-family: -apple-system, BlinkMacSystemFont, 'Segoe UI', Helvetica, Arial, sans-serif;">
  <rect width="100%" height="100%" fill="white"/>
  <g>
    <line x1="40" y1="220.00" x2="860" y2="220.00" stroke="#e5e7eb"/><text x="32" y="224.00" font-size="10" fill="#111827" text-anchor="end">0</text><line x1="40" y1="175.00" x2="860" y2="175.00" stroke="#e5e7eb"/><text x="32" y="179.00" font-size="10" fill="#111827" text-anchor="end">500</text><line x1="40" y1="130.00" x2="860" y2="130.00" stroke="#e5e7eb"/><text x="32" y="134.00" font-size="10" fill="#111827" text-anchor="end">1k</text><line x1="40" y1="85.00" x2="860" y2="85.00" stroke="#e5e7eb"/><text x="32" y="89.00" font-size="10" fill="#111827" text-anchor="end">1.5k</text><line x1="40" y1="40.00" x2="860" y2="40.00" stroke="#e5e7eb"/><text x="32" y="44.00" font-size="10" fill="#111827" text-anchor="end">2k</text>
    <line x1="40.00" y1="40" x2="40.00" y2="220" stroke="#e5e7eb" opacity="0.5"/><line x1="120.66" y1="40" x2="120.66" y2="220" stroke="#e5e7eb" opacity="0.5"/><line x1="201.31" y1="40" x2="201.31" y2="220" stroke="#e5e7eb" opacity="0.5"/><line x1="281.97" y1="40" x2="281.97" y2="220" stroke="#e5e7eb" opacity="0.5"/><line x1="362.62" y1="40" x2="362.62" y2="220" stroke="#e5e7eb" opacity="0.5"/><line x1="443.28" y1="40" x2="443.28" y2="220" stroke="#e5e7eb" opacity="0.5"/><line x1="523.93" y1="40" x2="523.93" y2="220" stroke="#e5e7eb" opacity="0.5"/><line x1="604.59" y1="40" x2="604.59" y2="220" stroke="#e5e7eb" opacity="0.5"/><line x1="685.25" y1="40" x2="685.25" y2="220" stroke="#e5e7eb" opacity="0.5"/><line x1="765.90" y1="40" x2="765.90" y2="220" stroke="#e5e7eb" opacity="0.5"/><line x1="846.56" y1="40" x2="846.56" y2="220" stroke="#e5e7eb" opacity="0.5"/>
    <line x1="40" y1="220" x2="860" y2="220" stroke="#9ca3af"/>
    <line x1="40" y1="40"   x2="40"   y2="220" stroke="#9ca3af"/>
    <path d="M 40.00 219.82 L 46.72 214.15 L 53.44 214.06 L 60.16 214.06 L 66.89 213.25 L 73.61 213.25 L 80.33 204.88 L 87.05 185.98 L 93.77 185.98 L 100.49 180.94 L 107.21 152.59 L 113.93 159.97 L 120.66 158.89 L 127.38 158.17 L 134.10 139.63 L 140.82 139.63 L 147.54 157.18 L 154.26 154.66 L 160.98 154.39 L 167.70 151.60 L 174.43 150.97 L 181.15 150.70 L 187.87 149.80 L 194.59 149.80 L 201.31 147.46 L 208.03 144.94 L 214.75 144.76 L 221.48 140.71 L 228.20 134.23 L 234.92 134.23 L 241.64 133.69 L 248.36 133.69 L 255.08 133.69 L 261.80 133.69 L 268.52 133.69 L 275.25 133.69 L 281.97 132.97 L 288.69 132.97 L 295.41 132.97 L 302.13 132.97 L 308.85 132.97 L 315.57 132.97 L 322.30 132.97 L 329.02 132.97 L 335.74 132.97 L 342.46 132.97 L 349.18 132.97 L 355.90 132.97 L 362.62 132.97 L 369.34 132.97 L 376.07 132.97 L 382.79 132.97 L 389.51 132.97 L 396.23 132.97 L 402.95 132.97 L 409.67 132.97 L 416.39 132.97 L 423.11 132.97 L 429.84 132.97 L 436.56 132.97 L 443.28 132.97 L 450.00 132.97 L 456.72 132.97 L 463.44 132.97 L 470.16 132.97 L 476.89 132.97 L 483.61 132.97 L 490.33 132.97 L 497.05 132.97 L 503.77 132.97 L 510.49 132.97 L 517.21 132.97 L 523.93 132.97 L 530.66 132.97 L 537.38 132.97 L 544.10 132.97 L 550.82 132.97 L 557.54 132.97 L 564.26 132.97 L 570.98 132.97 L 577.70 132.97 L 584.43 132.97 L 591.15 132.97 L 597.87 132.97 L 604.59 132.97 L 611.31 132.97 L 618.03 132.97 L 624.75 132.97 L 631.48 132.97 L 638.20 132.97 L 644.92 132.97 L 651.64 132.97 L 658.36 132.97 L 665.08 132.97 L 671.80 132.97 L 678.52 132.97 L 685.25 132.97 L 691.97 132.97 L 698.69 132.97 L 705.41 132.97 L 712.13 132.97 L 718.85 132.97 L 725.57 132.97 L 732.30 132.97 L 739.02 132.97 L 745.74 132.97 L 752.46 132.97 L 759.18 132.97 L 765.90 132.97 L 772.62 132.97 L 779.34 132.97 L 786.07 132.97 L 792.79 132.97 L 799.51 132.97 L 806.23 132.97 L 812.95 132.97 L 819.67 132.97 L 826.39 132.97 L 833.11 132.97 L 839.84 132.97 L 846.56 132.97 L 853.28 132.97 L 860.00 132.97" fill="none" stroke="#111827" stroke-width="2"/>
    <circle cx="860.00" cy="132.97" r="3" fill="#111827"/>
    <text x="40.00" y="235.00" font-size="9" fill="#111827" text-anchor="middle" transform="rotate(-45 40.00 235.00)">09.08.2025</text><text x="120.66" y="235.00" font-size="9" fill="#111827" text-anchor="middle" transform="rotate(-45 120.66 235.00)">09.08.2025</text><text x="201.31" y="235.00" font-size="9" fill="#111827" text-anchor="middle" transform="rotate(-45 201.31 235.00)">09.08.2025</text><text x="281.97" y="235.00" font-size="9" fill="#111827" text-anchor="middle" transform="rotate(-45 281.97 235.00)">13.08.2025</text><text x="362.62" y="235.00" font-size="9" fill="#111827" text-anchor="middle" transform="rotate(-45 362.62 235.00)">24.08.2025</text><text x="443.28" y="235.00" font-size="9" fill="#111827" text-anchor="middle" transform="rotate(-45 443.28 235.00)">03.09.2025</text><text x="523.93" y="235.00" font-size="9" fill="#111827" text-anchor="middle" transform="rotate(-45 523.93 235.00)">15.09.2025</text><text x="604.59" y="235.00" font-size="9" fill="#111827" text-anchor="middle" transform="rotate(-45 604.59 235.00)">27.09.2025</text><text x="685.25" y="235.00" font-size="9" fill="#111827" text-anchor="middle" transform="rotate(-45 685.25 235.00)">09.10.2025</text><text x="765.90" y="235.00" font-size="9" fill="#111827" text-anchor="middle" transform="rotate(-45 765.90 235.00)">21.10.2025</text><text x="846.56" y="235.00" font-size="9" fill="#111827" text-anchor="middle" transform="rotate(-45 846.56 235.00)">02.11.2025</text>
  </g>
</svg>