<svg xmlns="http://www.w3.org/2000/svg" width="900" height="290" style="font-family: -apple-system, BlinkMacSystemFont, 'Segoe UI', Helvetica, Arial, sans-serif;">
  <rect width="100%" height="100%" fill="#0d1117"/>
  <g>
    <line x1="40" y1="220.00" x2="860" y2="220.00" stroke="#30363d"/><text x="32" y="224.00" font-size="10" fill="#c9d1d9" text-anchor="end">0</text><line x1="40" y1="175.00" x2="860" y2="175.00" stroke="#30363d"/><text x="32" y="179.00" font-size="10" fill="#c9d1d9" text-anchor="end">500</text><line x1="40" y1="130.00" x2="860" y2="130.00" stroke="#30363d"/><text x="32" y="134.00" font-size="10" fill="#c9d1d9" text-anchor="end">1k</text><line x1="40" y1="85.00" x2="860" y2="85.00" stroke="#30363d"/><text x="32" y="89.00" font-size="10" fill="#c9d1d9" text-anchor="end">1.5k</text><line x1="40" y1="40.00" x2="860" y2="40.00" stroke="#30363d"/><text x="32" y="44.00" font-size="10" fill="#c9d1d9" text-anchor="end">2k</text>
    <line x1="40.00" y1="40" x2="40.00" y2="220" stroke="#30363d" opacity="0.5"/><line x1="119.20" y1="40" x2="119.20" y2="220" stroke="#30363d" opacity="0.5"/><line x1="198.41" y1="40" x2="198.41" y2="220" stroke="#30363d" opacity="0.5"/><line x1="277.61" y1="40" x2="277.61" y2="220" stroke="#30363d" opacity="0.5"/><line x1="356.82" y1="40" x2="356.82" y2="220" stroke="#30363d" opacity="0.5"/><line x1="436.02" y1="40" x2="436.02" y2="220" stroke="#30363d" opacity="0.5"/><line x1="515.23" y1="40" x2="515.23" y2="220" stroke="#30363d" opacity="0.5"/><line x1="594.43" y1="40" x2="594.43" y2="220" stroke="#30363d" opacity="0.5"/><line x1="673.64" y1="40" x2="673.64" y2="220" stroke="#30363d" opacity="0.5"/><line x1="752.84" y1="40" x2="752.84" y2="220" stroke="#30363d" opacity="0.5"/><line x1="832.05" y1="40" x2="832.05" y2="220" stroke="#30363d" opacity="0.5"/>
    <line x1="40" y1="220" x2="860" y2="220" stroke="#30363d"/>
    <line x1="40" y1="40"   x2="40"   y2="220" stroke="#30363d"/>
    <path d="M 40.00 219.82 L 44.66 214.15 L 49.32 214.06 L 53.98 214.06 L 58.64 213.25 L 63.30 213.25 L 67.95 204.88 L 72.61 185.98 L 77.27 185.98 L 81.93 180.94 L 86.59 152.59 L 91.25 159.97 L 95.91 158.89 L 100.57 158.17 L 105.23 139.63 L 109.89 139.63 L 114.55 157.18 L 119.20 154.66 L 123.86 154.39 L 128.52 151.60 L 133.18 150.97 L 137.84 150.70 L 142.50 149.80 L 147.16 149.80 L 151.82 147.46 L 156.48 144.94 L 161.14 144.76 L 165.80 140.71 L 170.45 134.23 L 175.11 134.23 L 179.77 133.69 L 184.43 133.69 L 189.09 133.69 L 193.75 133.69 L 198.41 133.69 L 203.07 133.69 L 207.73 132.97 L 212.39 132.97 L 217.05 132.97 L 221.70 132.97 L 226.36 132.97 L 231.02 132.97 L 235.68 132.97 L 240.34 132.97 L 245.00 132.97 L 249.66 132.97 L 254.32 132.97 L 258.98 132.97 L 263.64 132.97 L 268.30 132.97 L 272.95 132.97 L 277.61 132.97 L 282.27 132.97 L 286.93 132.97 L 291.59 132.97 L 296.25 132.97 L 300.91 132.97 L 305.57 132.97 L 310.23 132.97 L 314.89 132.97 L 319.55 132.97 L 324.20 132.97 L 328.86 132.97 L 333.52 132.97 L 338.18 132.97 L 342.84 132.97 L 347.50 132.97 L 352.16 132.97 L 356.82 132.97 L 361.48 132.97 L 366.14 132.97 L 370.80 132.97 L 375.45 132.97 L 380.11 132.97 L 384.77 132.97 L 389.43 132.97 L 394.09 132.97 L 398.75 132.97 L 403.41 132.97 L 408.07 132.97 L 412.73 132.97 L 417.39 132.97 L 422.05 132.97 L 426.70 132.97 L 431.36 132.97 L 436.02 132.97 L 440.68 132.97 L 445.34 132.97 L 450.00 132.97 L 454.66 132.97 L 459.32 132.97 L 463.98 132.97 L 468.64 132.97 L 473.30 132.97 L 477.95 132.97 L 482.61 132.97 L 487.27 132.97 L 491.93 132.97 L 496.59 132.97 L 501.25 132.97 L 505.91 132.97 L 510.57 132.97 L 515.23 132.97 L 519.89 132.97 L 524.55 132.97 L 529.20 132.97 L 533.86 132.97 L 538.52 132.97 L 543.18 132.97 L 547.84 132.97 L 552.50 132.97 L 557.16 132.97 L 561.82 132.97 L 566.48 132.97 L 571.14 132.97 L 575.80 132.97 L 580.45 132.97 L 585.11 132.97 L 589.77 132.97 L 594.43 132.97 L 599.09 132.97 L 603.75 132.97 L 608.41 132.97 L 613.07 132.97 L 617.73 132.97 L 622.39 132.97 L 627.05 132.97 L 631.70 132.97 L 636.36 132.97 L 641.02 132.97 L 645.68 132.97 L 650.34 132.97 L 655.00 132.97 L 659.66 132.97 L 664.32 132.97 L 668.98 132.97 L 673.64 132.97 L 678.30 132.97 L 682.95 132.97 L 687.61 132.97 L 692.27 132.97 L 696.93 132.97 L 701.59 132.97 L 706.25 132.97 L 710.91 132.97 L 715.57 132.97 L 720.23 132.97 L 724.89 132.97 L 729.55 132.97 L 734.20 132.97 L 738.86 132.97 L 743.52 132.97 L 748.18 132.97 L 752.84 124.51 L 757.50 120.64 L 762.16 116.77 L 766.82 112.90 L 771.48 109.03 L 776.14 105.97 L 780.80 105.97 L 785.45 105.97 L 790.11 105.97 L 794.77 105.97 L 799.43 105.79 L 804.09 103.09 L 808.75 98.41 L 813.41 98.41 L 818.07 98.41 L 822.73 98.41 L 827.39 98.41 L 832.05 98.41 L 836.70 98.41 L 841.36 98.41 L 846.02 98.41 L 850.68 98.41 L 855.34 98.41 L 860.00 98.41" fill="none" stroke="#3fb950" stroke-width="2"/>
    <circle cx="860.00" cy="98.41" r="3" fill="#3fb950"/>
    <text x="40.00" y="235.00" font-size="9" fill="#c9d1d9" text-anchor="middle" transform="rotate(-45 40.00 235.00)">09.08.2025</text><text x="119.20" y="235.00" font-size="9" fill="#c9d1d9" text-anchor="middle" transform="rotate(-45 119.20 235.00)">09.08.2025</text><text x="198.41" y="235.00" font-size="9" fill="#c9d1d9" text-anchor="middle" transform="rotate(-45 198.41 235.00)">13.08.2025</text><text x="277.61" y="235.00" font-size="9" fill="#c9d1d9" text-anchor="middle" transform="rotate(-45 277.61 235.00)">27.08.2025</text><text x="356.82" y="235.00" font-size="9" fill="#c9d1d9" text-anchor="middle" transform="rotate(-45 356.82 235.00)">11.09.2025</text><text x="436.02" y="235.00" font-size="9" fill="#c9d1d9" text-anchor="middle" transform="rotate(-45 436.02 235.00)">28.09.2025</text><text x="515.23" y="235.00" font-size="9" fill="#c9d1d9" text-anchor="middle" transform="rotate(-45 515.23 235.00)">15.10.2025</text><text x="594.43" y="235.00" font-size="9" fill="#c9d1d9" text-anchor="middle" transform="rotate(-45 594.43 235.00)">01.11.2025</text><text x="673.64" y="235.00" font-size="9" fill="#c9d1d9" text-anchor="middle" transform="rotate(-45 673.64 235.00)">18.11.2025</text><text x="752.84" y="235.00" font-size="9" fill="#c9d1d9" text-anchor="middle" transform="rotate(-45 752.84 235.00)">04.12.2025</text><text x="832.05" y="235.00" font-size="9" fill="#c9d1d9" text-anchor="middle" transform="rotate(-45 832.05 235.00)">12.12.2025</text>
  </g>
</svg>