<svg xmlns="http://www.w3.org/2000/svg" width="900" height="290" style="font-family: -apple-system, BlinkMacSystemFont, 'Segoe UI', Helvetica, Arial, sans-serif;">
  <rect width="100%" height="100%" fill="#0d1117"/>
  <g>
    <line x1="40" y1="220.00" x2="860" y2="220.00" stroke="#30363d"/><text x="32" y="224.00" font-size="10" fill="#c9d1d9" text-anchor="end">0</text><line x1="40" y1="175.00" x2="860" y2="175.00" stroke="#30363d"/><text x="32" y="179.00" font-size="10" fill="#c9d1d9" text-anchor="end">500</text><line x1="40" y1="130.00" x2="860" y2="130.00" stroke="#30363d"/><text x="32" y="134.00" font-size="10" fill="#c9d1d9" text-anchor="end">1k</text><line x1="40" y1="85.00" x2="860" y2="85.00" stroke="#30363d"/><text x="32" y="89.00" font-size="10" fill="#c9d1d9" text-anchor="end">1.5k</text><line x1="40" y1="40.00" x2="860" y2="40.00" stroke="#30363d"/><text x="32" y="44.00" font-size="10" fill="#c9d1d9" text-anchor="end">2k</text>
    <line x1="40.00" y1="40" x2="40.00" y2="220" stroke="#30363d" opacity="0.5"/><line x1="113.43" y1="40" x2="113.43" y2="220" stroke="#30363d" opacity="0.5"/><line x1="186.87" y1="40" x2="186.87" y2="220" stroke="#30363d" opacity="0.5"/><line x1="260.30" y1="40" x2="260.30" y2="220" stroke="#30363d" opacity="0.5"/><line x1="333.73" y1="40" x2="333.73" y2="220" stroke="#30363d" opacity="0.5"/><line x1="407.16" y1="40" x2="407.16" y2="220" stroke="#30363d" opacity="0.5"/><line x1="480.60" y1="40" x2="480.60" y2="220" stroke="#30363d" opacity="0.5"/><line x1="554.03" y1="40" x2="554.03" y2="220" stroke="#30363d" opacity="0.5"/><line x1="627.46" y1="40" x2="627.46" y2="220" stroke="#30363d" opacity="0.5"/><line x1="700.90" y1="40" x2="700.90" y2="220" stroke="#30363d" opacity="0.5"/><line x1="774.33" y1="40" x2="774.33" y2="220" stroke="#30363d" opacity="0.5"/><line x1="847.76" y1="40" x2="847.76" y2="220" stroke="#30363d" opacity="0.5"/>
    <line x1="40" y1="220" x2="860" y2="220" stroke="#30363d"/>
    <line x1="40" y1="40"   x2="40"   y2="220" stroke="#30363d"/>
    <path d="M 40.00 219.82 L 52.24 214.15 L 64.48 214.06 L 76.72 214.06 L 88.96 213.25 L 101.19 213.25 L 113.43 204.88 L 125.67 185.98 L 137.91 185.98 L 150.15 180.94 L 162.39 152.59 L 174.63 159.97 L 186.87 158.89 L 199.10 158.17 L 211.34 139.63 L 223.58 139.63 L 235.82 157.18 L 248.06 154.66 L 260.30 154.39 L 272.54 151.60 L 284.78 150.97 L 297.01 150.70 L 309.25 149.80 L 321.49 149.80 L 333.73 147.46 L 345.97 144.94 L 358.21 144.76 L 370.45 140.71 L 382.69 134.23 L 394.93 134.23 L 407.16 133.69 L 419.40 133.69 L 431.64 133.69 L 443.88 133.69 L 456.12 133.69 L 468.36 133.69 L 480.60 132.97 L 492.84 132.97 L 505.07 132.97 L 517.31 132.97 L 529.55 132.97 L 541.79 132.97 L 554.03 132.97 L 566.27 132.97 L 578.51 132.97 L 590.75 132.97 L 602.99 132.97 L 615.22 132.97 L 627.46 132.97 L 639.70 132.97 L 651.94 132.97 L 664.18 132.97 L 676.42 132.97 L 688.66 132.97 L 700.90 132.97 L 713.13 132.97 L 725.37 132.97 L 737.61 132.97 L 749.85 132.97 L 762.09 132.97 L 774.33 132.97 L 786.57 132.97 L 798.81 132.97 L 811.04 132.97 L 823.28 132.97 L 835.52 132.97 L 847.76 132.97 L 860.00 132.97" fill="none" stroke="#3fb950" stroke-width="2"/>
    <circle cx="860.00" cy="132.97" r="3" fill="#3fb950"/>
    <text x="40.00" y="235.00" font-size="9" fill="#c9d1d9" text-anchor="middle" transform="rotate(-45 40.00 235.00)">09.08.2025</text><text x="113.43" y="235.00" font-size="9" fill="#c9d1d9" text-anchor="middle" transform="rotate(-45 113.43 235.00)">09.08.2025</text><text x="186.87" y="235.00" font-size="9" fill="#c9d1d9" text-anchor="middle" transform="rotate(-45 186.87 235.00)">09.08.2025</text><text x="260.30" y="235.00" font-size="9" fill="#c9d1d9" text-anchor="middle" transform="rotate(-45 260.30 235.00)">09.08.2025</text><text x="333.73" y="235.00" font-size="9" fill="#c9d1d9" text-anchor="middle" transform="rotate(-45 333.73 235.00)">09.08.2025</text><text x="407.16" y="235.00" font-size="9" fill="#c9d1d9" text-anchor="middle" transform="rotate(-45 407.16 235.00)">13.08.2025</text><text x="480.60" y="235.00" font-size="9" fill="#c9d1d9" text-anchor="middle" transform="rotate(-45 480.60 235.00)">13.08.2025</text><text x="554.03" y="235.00" font-size="9" fill="#c9d1d9" text-anchor="middle" transform="rotate(-45 554.03 235.00)">18.08.2025</text><text x="627.46" y="235.00" font-size="9" fill="#c9d1d9" text-anchor="middle" transform="rotate(-45 627.46 235.00)">24.08.2025</text><text x="700.90" y="235.00" font-size="9" fill="#c9d1d9" text-anchor="middle" transform="rotate(-45 700.90 235.00)">28.08.2025</text><text x="774.33" y="235.00" font-size="9" fill="#c9d1d9" text-anchor="middle" transform="rotate(-45 774.33 235.00)">03.09.2025</text><text x="847.76" y="235.00" font-size="9" fill="#c9d1d9" text-anchor="middle" transform="rotate(-45 847.76 235.00)">09.09.2025</text>
  </g>
</svg>