<svg xmlns="http://www.w3.org/2000/svg" width="900" height="290" style="font-family: -apple-system, BlinkMacSystemFont, 'Segoe UI', Helvetica, Arial, sans-serif;">
  <rect width="100%" height="100%" fill="#0d1117"/>
  <g>
    <line x1="40" y1="220.00" x2="860" y2="220.00" stroke="#30363d"/><text x="32" y="224.00" font-size="10" fill="#c9d1d9" text-anchor="end">0</text><line x1="40" y1="175.00" x2="860" y2="175.00" stroke="#30363d"/><text x="32" y="179.00" font-size="10" fill="#c9d1d9" text-anchor="end">500</text><line x1="40" y1="130.00" x2="860" y2="130.00" stroke="#30363d"/><text x="32" y="134.00" font-size="10" fill="#c9d1d9" text-anchor="end">1k</text><line x1="40" y1="85.00" x2="860" y2="85.00" stroke="#30363d"/><text x="32" y="89.00" font-size="10" fill="#c9d1d9" text-anchor="end">1.5k</text><line x1="40" y1="40.00" x2="860" y2="40.00" stroke="#30363d"/><text x="32" y="44.00" font-size="10" fill="#c9d1d9" text-anchor="end">2k</text>
    <line x1="40.00" y1="40" x2="40.00" y2="220" stroke="#30363d" opacity="0.5"/><line x1="123.39" y1="40" x2="123.39" y2="220" stroke="#30363d" opacity="0.5"/><line x1="206.78" y1="40" x2="206.78" y2="220" stroke="#30363d" opacity="0.5"/><line x1="290.17" y1="40" x2="290.17" y2="220" stroke="#30363d" opacity="0.5"/><line x1="373.56" y1="40" x2="373.56" y2="220" stroke="#30363d" opacity="0.5"/><line x1="456.95" y1="40" x2="456.95" y2="220" stroke="#30363d" opacity="0.5"/><line x1="540.34" y1="40" x2="540.34" y2="220" stroke="#30363d" opacity="0.5"/><line x1="623.73" y1="40" x2="623.73" y2="220" stroke="#30363d" opacity="0.5"/><line x1="707.12" y1="40" x2="707.12" y2="220" stroke="#30363d" opacity="0.5"/><line x1="790.51" y1="40" x2="790.51" y2="220" stroke="#30363d" opacity="0.5"/>
    <line x1="40" y1="220" x2="860" y2="220" stroke="#30363d"/>
    <line x1="40" y1="40"   x2="40"   y2="220" stroke="#30363d"/>
    <path d="M 40.00 219.82 L 53.90 214.15 L 67.80 214.06 L 81.69 214.06 L 95.59 213.25 L 109.49 213.25 L 123.39 204.88 L 137.29 185.98 L 151.19 185.98 L 165.08 180.94 L 178.98 152.59 L 192.88 159.97 L 206.78 158.89 L 220.68 158.17 L 234.58 139.63 L 248.47 139.63 L 262.37 157.18 L 276.27 154.66 L 290.17 154.39 L 304.07 151.60 L 317.97 150.97 L 331.86 150.70 L 345.76 149.80 L 359.66 149.80 L 373.56 147.46 L 387.46 144.94 L 401.36 144.76 L 415.25 140.71 L 429.15 134.23 L 443.05 134.23 L 456.95 133.69 L 470.85 133.69 L 484.75 133.69 L 498.64 133.69 L 512.54 133.69 L 526.44 133.69 L 540.34 132.97 L 554.24 132.97 L 568.14 132.97 L 582.03 132.97 L 595.93 132.97 L 609.83 132.97 L 623.73 132.97 L 637.63 132.97 L 651.53 132.97 L 665.42 132.97 L 679.32 132.97 L 693.22 132.97 L 707.12 132.97 L 721.02 132.97 L 734.92 132.97 L 748.81 132.97 L 762.71 132.97 L 776.61 132.97 L 790.51 132.97 L 804.41 132.97 L 818.31 132.97 L 832.20 132.97 L 846.10 132.97 L 860.00 132.97" fill="none" stroke="#3fb950" stroke-width="2"/>
    <circle cx="860.00" cy="132.97" r="3" fill="#3fb950"/>
    <text x="40.00" y="235.00" font-size="9" fill="#c9d1d9" text-anchor="middle" transform="rotate(-45 40.00 235.00)">09.08.2025</text><text x="123.39" y="235.00" font-size="9" fill="#c9d1d9" text-anchor="middle" transform="rotate(-45 123.39 235.00)">09.08.2025</text><text x="206.78" y="235.00" font-size="9" fill="#c9d1d9" text-anchor="middle" transform="rotate(-45 206.78 235.00)">09.08.2025</text><text x="290.17" y="235.00" font-size="9" fill="#c9d1d9" text-anchor="middle" transform="rotate(-45 290.17 235.00)">09.08.2025</text><text x="373.56" y="235.00" font-size="9" fill="#c9d1d9" text-anchor="middle" transform="rotate(-45 373.56 235.00)">09.08.2025</text><text x="456.95" y="235.00" font-size="9" fill="#c9d1d9" text-anchor="middle" transform="rotate(-45 456.95 235.00)">13.08.2025</text><text x="540.34" y="235.00" font-size="9" fill="#c9d1d9" text-anchor="middle" transform="rotate(-45 540.34 235.00)">13.08.2025</text><text x="623.73" y="235.00" font-size="9" fill="#c9d1d9" text-anchor="middle" transform="rotate(-45 623.73 235.00)">18.08.2025</text><text x="707.12" y="235.00" font-size="9" fill="#c9d1d9" text-anchor="middle" transform="rotate(-45 707.12 235.00)">24.08.2025</text><text x="790.51" y="235.00" font-size="9" fill="#c9d1d9" text-anchor="middle" transform="rotate(-45 790.51 235.00)">28.08.2025</text>
  </g>
</svg>