<svg xmlns="http://www.w3.org/2000/svg" width="900" height="290" style="font-family: -apple-system, BlinkMacSystemFont, 'Segoe UI', Helvetica, Arial, sans-serif;">
  <rect width="100%" height="100%" fill="#0d1117"/>
  <g>
    <line x1="40" y1="220.00" x2="860" y2="220.00" stroke="#30363d"/><text x="32" y="224.00" font-size="10" fill="#c9d1d9" text-anchor="end">0</text><line x1="40" y1="175.00" x2="860" y2="175.00" stroke="#30363d"/><text x="32" y="179.00" font-size="10" fill="#c9d1d9" text-anchor="end">500</text><line x1="40" y1="130.00" x2="860" y2="130.00" stroke="#30363d"/><text x="32" y="134.00" font-size="10" fill="#c9d1d9" text-anchor="end">1k</text><line x1="40" y1="85.00" x2="860" y2="85.00" stroke="#30363d"/><text x="32" y="89.00" font-size="10" fill="#c9d1d9" text-anchor="end">1.5k</text><line x1="40" y1="40.00" x2="860" y2="40.00" stroke="#30363d"/><text x="32" y="44.00" font-size="10" fill="#c9d1d9" text-anchor="end">2k</text>
    <line x1="40.00" y1="40" x2="40.00" y2="220" stroke="#30363d" opacity="0.5"/><line x1="121.19" y1="40" x2="121.19" y2="220" stroke="#30363d" opacity="0.5"/><line x1="202.38" y1="40" x2="202.38" y2="220" stroke="#30363d" opacity="0.5"/><line x1="283.56" y1="40" x2="283.56" y2="220" stroke="#30363d" opacity="0.5"/><line x1="364.75" y1="40" x2="364.75" y2="220" stroke="#30363d" opacity="0.5"/><line x1="445.94" y1="40" x2="445.94" y2="220" stroke="#30363d" opacity="0.5"/><line x1="527.13" y1="40" x2="527.13" y2="220" stroke="#30363d" opacity="0.5"/><line x1="608.32" y1="40" x2="608.32" y2="220" stroke="#30363d" opacity="0.5"/><line x1="689.50" y1="40" x2="689.50" y2="220" stroke="#30363d" opacity="0.5"/><line x1="770.69" y1="40" x2="770.69" y2="220" stroke="#30363d" opacity="0.5"/><line x1="851.88" y1="40" x2="851.88" y2="220" stroke="#30363d" opacity="0.5"/>
    <line x1="40" y1="220" x2="860" y2="220" stroke="#30363d"/>
    <line x1="40" y1="40"   x2="40"   y2="220" stroke="#30363d"/>
    <path d="M 40.00 219.82 L 44.06 214.15 L 48.12 214.06 L 52.18 214.06 L 56.24 213.25 L 60.30 213.25 L 64.36 204.88 L 68.42 185.98 L 72.48 185.98 L 76.53 180.94 L 80.59 152.59 L 84.65 159.97 L 88.71 158.89 L 92.77 158.17 L 96.83 139.63 L 100.89 139.63 L 104.95 157.18 L 109.01 154.66 L 113.07 154.39 L 117.13 151.60 L 121.19 150.97 L 125.25 150.70 L 129.31 149.80 L 133.37 149.80 L 137.43 147.46 L 141.49 144.94 L 145.54 144.76 L 149.60 140.71 L 153.66 134.23 L 157.72 134.23 L 161.78 133.69 L 165.84 133.69 L 169.90 133.69 L 173.96 133.69 L 178.02 133.69 L 182.08 133.69 L 186.14 132.97 L 190.20 132.97 L 194.26 132.97 L 198.32 132.97 L 202.38 132.97 L 206.44 132.97 L 210.50 132.97 L 214.55 132.97 L 218.61 132.97 L 222.67 132.97 L 226.73 132.97 L 230.79 132.97 L 234.85 132.97 L 238.91 132.97 L 242.97 132.97 L 247.03 132.97 L 251.09 132.97 L 255.15 132.97 L 259.21 132.97 L 263.27 132.97 L 267.33 132.97 L 271.39 132.97 L 275.45 132.97 L 279.50 132.97 L 283.56 132.97 L 287.62 132.97 L 291.68 132.97 L 295.74 132.97 L 299.80 132.97 L 303.86 132.97 L 307.92 132.97 L 311.98 132.97 L 316.04 132.97 L 320.10 132.97 L 324.16 132.97 L 328.22 132.97 L 332.28 132.97 L 336.34 132.97 L 340.40 132.97 L 344.46 132.97 L 348.51 132.97 L 352.57 132.97 L 356.63 132.97 L 360.69 132.97 L 364.75 132.97 L 368.81 132.97 L 372.87 132.97 L 376.93 132.97 L 380.99 132.97 L 385.05 132.97 L 389.11 132.97 L 393.17 132.97 L 397.23 132.97 L 401.29 132.97 L 405.35 132.97 L 409.41 132.97 L 413.47 132.97 L 417.52 132.97 L 421.58 132.97 L 425.64 132.97 L 429.70 132.97 L 433.76 132.97 L 437.82 132.97 L 441.88 132.97 L 445.94 132.97 L 450.00 132.97 L 454.06 132.97 L 458.12 132.97 L 462.18 132.97 L 466.24 132.97 L 470.30 132.97 L 474.36 132.97 L 478.42 132.97 L 482.48 132.97 L 486.53 132.97 L 490.59 132.97 L 494.65 132.97 L 498.71 132.97 L 502.77 132.97 L 506.83 132.97 L 510.89 132.97 L 514.95 132.97 L 519.01 132.97 L 523.07 132.97 L 527.13 132.97 L 531.19 132.97 L 535.25 132.97 L 539.31 132.97 L 543.37 132.97 L 547.43 132.97 L 551.49 132.97 L 555.54 132.97 L 559.60 132.97 L 563.66 132.97 L 567.72 132.97 L 571.78 132.97 L 575.84 132.97 L 579.90 132.97 L 583.96 132.97 L 588.02 132.97 L 592.08 132.97 L 596.14 132.97 L 600.20 132.97 L 604.26 132.97 L 608.32 132.97 L 612.38 132.97 L 616.44 132.97 L 620.50 132.97 L 624.55 132.97 L 628.61 132.97 L 632.67 132.97 L 636.73 132.97 L 640.79 132.97 L 644.85 132.97 L 648.91 132.97 L 652.97 132.97 L 657.03 132.97 L 661.09 124.51 L 665.15 120.64 L 669.21 116.77 L 673.27 112.90 L 677.33 109.03 L 681.39 105.97 L 685.45 105.97 L 689.50 105.97 L 693.56 105.97 L 697.62 105.97 L 701.68 105.79 L 705.74 103.09 L 709.80 98.41 L 713.86 98.41 L 717.92 98.41 L 721.98 98.41 L 726.04 98.41 L 730.10 98.41 L 734.16 98.41 L 738.22 98.41 L 742.28 98.41 L 746.34 98.41 L 750.40 98.41 L 754.46 98.41 L 758.51 98.41 L 762.57 98.41 L 766.63 98.41 L 770.69 98.41 L 774.75 98.41 L 778.81 98.41 L 782.87 98.41 L 786.93 98.41 L 790.99 98.41 L 795.05 98.41 L 799.11 98.41 L 803.17 98.41 L 807.23 98.41 L 811.29 98.41 L 815.35 98.41 L 819.41 98.41 L 823.47 98.41 L 827.52 98.41 L 831.58 98.41 L 835.64 98.41 L 839.70 98.41 L 843.76 98.41 L 847.82 98.41 L 851.88 98.41 L 855.94 98.41 L 860.00 98.41" fill="none" stroke="#3fb950" stroke-width="2"/>
    <circle cx="860.00" cy="98.41" r="3" fill="#3fb950"/>
    <text x="40.00" y="235.00" font-size="9" fill="#c9d1d9" text-anchor="middle" transform="rotate(-45 40.00 235.00)">09.08.2025</text><text x="121.19" y="235.00" font-size="9" fill="#c9d1d9" text-anchor="middle" transform="rotate(-45 121.19 235.00)">09.08.2025</text><text x="202.38" y="235.00" font-size="9" fill="#c9d1d9" text-anchor="middle" transform="rotate(-45 202.38 235.00)">16.08.2025</text><text x="283.56" y="235.00" font-size="9" fill="#c9d1d9" text-anchor="middle" transform="rotate(-45 283.56 235.00)">03.09.2025</text><text x="364.75" y="235.00" font-size="9" fill="#c9d1d9" text-anchor="middle" transform="rotate(-45 364.75 235.00)">23.09.2025</text><text x="445.94" y="235.00" font-size="9" fill="#c9d1d9" text-anchor="middle" transform="rotate(-45 445.94 235.00)">13.10.2025</text><text x="527.13" y="235.00" font-size="9" fill="#c9d1d9" text-anchor="middle" transform="rotate(-45 527.13 235.00)">02.11.2025</text><text x="608.32" y="235.00" font-size="9" fill="#c9d1d9" text-anchor="middle" transform="rotate(-45 608.32 235.00)">22.11.2025</text><text x="689.50" y="235.00" font-size="9" fill="#c9d1d9" text-anchor="middle" transform="rotate(-45 689.50 235.00)">05.12.2025</text><text x="770.69" y="235.00" font-size="9" fill="#c9d1d9" text-anchor="middle" transform="rotate(-45 770.69 235.00)">22.12.2025</text><text x="851.88" y="235.00" font-size="9" fill="#c9d1d9" text-anchor="middle" transform="rotate(-45 851.88 235.00)">11.01.2026</text>
  </g>
</svg>