<svg xmlns="http://www.w3.org/2000/svg" width="900" height="290" style="font-family: -apple-system, BlinkMacSystemFont, 'Segoe UI', Helvetica, Arial, sans-serif;">
  <rect width="100%" height="100%" fill="white"/>
  <g>
    <line x1="40" y1="220.00" x2="860" y2="220.00" stroke="#e5e7eb"/><text x="32" y="224.00" font-size="10" fill="#111827" text-anchor="end">0</text><line x1="40" y1="175.00" x2="860" y2="175.00" stroke="#e5e7eb"/><text x="32" y="179.00" font-size="10" fill="#111827" text-anchor="end">500</text><line x1="40" y1="130.00" x2="860" y2="130.00" stroke="#e5e7eb"/><text x="32" y="134.00" font-size="10" fill="#111827" text-anchor="end">1k</text><line x1="40" y1="85.00" x2="860" y2="85.00" stroke="#e5e7eb"/><text x="32" y="89.00" font-size="10" fill="#111827" text-anchor="end">1.5k</text><line x1="40" y1="40.00" x2="860" y2="40.00" stroke="#e5e7eb"/><text x="32" y="44.00" font-size="10" fill="#111827" text-anchor="end">2k</text>
    <line x1="40.00" y1="40" x2="40.00" y2="220" stroke="#e5e7eb" opacity="0.5"/><line x1="117.48" y1="40" x2="117.48" y2="220" stroke="#e5e7eb" opacity="0.5"/><line x1="194.96" y1="40" x2="194.96" y2="220" stroke="#e5e7eb" opacity="0.5"/><line x1="272.44" y1="40" x2="272.44" y2="220" stroke="#e5e7eb" opacity="0.5"/><line x1="349.92" y1="40" x2="349.92" y2="220" stroke="#e5e7eb" opacity="0.5"/><line x1="427.40" y1="40" x2="427.40" y2="220" stroke="#e5e7eb" opacity="0.5"/><line x1="504.88" y1="40" x2="504.88" y2="220" stroke="#e5e7eb" opacity="0.5"/><line x1="582.36" y1="40" x2="582.36" y2="220" stroke="#e5e7eb" opacity="0.5"/><line x1="659.84" y1="40" x2="659.84" y2="220" stroke="#e5e7eb" opacity="0.5"/><line x1="737.32" y1="40" x2="737.32" y2="220" stroke="#e5e7eb" opacity="0.5"/><line x1="814.80" y1="40" x2="814.80" y2="220" stroke="#e5e7eb" opacity="0.5"/>
    <line x1="40" y1="220" x2="860" y2="220" stroke="#9ca3af"/>
    <line x1="40" y1="40"   x2="40"   y2="220" stroke="#9ca3af"/>
    <path d="M 40.00 219.82 L 46.46 214.15 L 52.91 214.06 L 59.37 214.06 L 65.83 213.25 L 72.28 213.25 L 78.74 204.88 L 85.20 185.98 L 91.65 185.98 L 98.11 180.94 L 104.57 152.59 L 111.02 159.97 L 117.48 158.89 L 123.94 158.17 L 130.39 139.63 L 136.85 139.63 L 143.31 157.18 L 149.76 154.66 L 156.22 154.39 L 162.68 151.60 L 169.13 150.97 L 175.59 150.70 L 182.05 149.80 L 188.50 149.80 L 194.96 147.46 L 201.42 144.94 L 207.87 144.76 L 214.33 140.71 L 220.79 134.23 L 227.24 134.23 L 233.70 133.69 L 240.16 133.69 L 246.61 133.69 L 253.07 133.69 L 259.53 133.69 L 265.98 133.69 L 272.44 132.97 L 278.90 132.97 L 285.35 132.97 L 291.81 132.97 L 298.27 132.97 L 304.72 132.97 L 311.18 132.97 L 317.64 132.97 L 324.09 132.97 L 330.55 132.97 L 337.01 132.97 L 343.46 132.97 L 349.92 132.97 L 356.38 132.97 L 362.83 132.97 L 369.29 132.97 L 375.75 132.97 L 382.20 132.97 L 388.66 132.97 L 395.12 132.97 L 401.57 132.97 L 408.03 132.97 L 414.49 132.97 L 420.94 132.97 L 427.40 132.97 L 433.86 132.97 L 440.31 132.97 L 446.77 132.97 L 453.23 132.97 L 459.69 132.97 L 466.14 132.97 L 472.60 132.97 L 479.06 132.97 L 485.51 132.97 L 491.97 132.97 L 498.43 132.97 L 504.88 132.97 L 511.34 132.97 L 517.80 132.97 L 524.25 132.97 L 530.71 132.97 L 537.17 132.97 L 543.62 132.97 L 550.08 132.97 L 556.54 132.97 L 562.99 132.97 L 569.45 132.97 L 575.91 132.97 L 582.36 132.97 L 588.82 132.97 L 595.28 132.97 L 601.73 132.97 L 608.19 132.97 L 614.65 132.97 L 621.10 132.97 L 627.56 132.97 L 634.02 132.97 L 640.47 132.97 L 646.93 132.97 L 653.39 132.97 L 659.84 132.97 L 666.30 132.97 L 672.76 132.97 L 679.21 132.97 L 685.67 132.97 L 692.13 132.97 L 698.58 132.97 L 705.04 132.97 L 711.50 132.97 L 717.95 132.97 L 724.41 132.97 L 730.87 132.97 L 737.32 132.97 L 743.78 132.97 L 750.24 132.97 L 756.69 132.97 L 763.15 132.97 L 769.61 132.97 L 776.06 132.97 L 782.52 132.97 L 788.98 132.97 L 795.43 132.97 L 801.89 132.97 L 808.35 132.97 L 814.80 132.97 L 821.26 132.97 L 827.72 132.97 L 834.17 132.97 L 840.63 132.97 L 847.09 132.97 L 853.54 132.97 L 860.00 132.97" fill="none" stroke="#111827" stroke-width="2"/>
    <circle cx="860.00" cy="132.97" r="3" fill="#111827"/>
    <text x="40.00" y="235.00" font-size="9" fill="#111827" text-anchor="middle" transform="rotate(-45 40.00 235.00)">09.08.2025</text><text x="117.48" y="235.00" font-size="9" fill="#111827" text-anchor="middle" transform="rotate(-45 117.48 235.00)">09.08.2025</text><text x="194.96" y="235.00" font-size="9" fill="#111827" text-anchor="middle" transform="rotate(-45 194.96 235.00)">09.08.2025</text><text x="272.44" y="235.00" font-size="9" fill="#111827" text-anchor="middle" transform="rotate(-45 272.44 235.00)">13.08.2025</text><text x="349.92" y="235.00" font-size="9" fill="#111827" text-anchor="middle" transform="rotate(-45 349.92 235.00)">24.08.2025</text><text x="427.40" y="235.00" font-size="9" fill="#111827" text-anchor="middle" transform="rotate(-45 427.40 235.00)">03.09.2025</text><text x="504.88" y="235.00" font-size="9" fill="#111827" text-anchor="middle" transform="rotate(-45 504.88 235.00)">15.09.2025</text><text x="582.36" y="235.00" font-size="9" fill="#111827" text-anchor="middle" transform="rotate(-45 582.36 235.00)">27.09.2025</text><text x="659.84" y="235.00" font-size="9" fill="#111827" text-anchor="middle" transform="rotate(-45 659.84 235.00)">09.10.2025</text><text x="737.32" y="235.00" font-size="9" fill="#111827" text-anchor="middle" transform="rotate(-45 737.32 235.00)">21.10.2025</text><text x="814.80" y="235.00" font-size="9" fill="#111827" text-anchor="middle" transform="rotate(-45 814.80 235.00)">02.11.2025</text>
  </g>
</svg>