<svg xmlns="http://www.w3.org/2000/svg" width="900" height="290" style="font-family: -apple-system, BlinkMacSystemFont, 'Segoe UI', Helvetica, Arial, sans-serif;">
  <rect width="100%" height="100%" fill="white"/>
  <g>
    <line x1="40" y1="220.00" x2="860" y2="220.00" stroke="#e5e7eb"/><text x="32" y="224.00" font-size="10" fill="#111827" text-anchor="end">0</text><line x1="40" y1="175.00" x2="860" y2="175.00" stroke="#e5e7eb"/><text x="32" y="179.00" font-size="10" fill="#111827" text-anchor="end">500</text><line x1="40" y1="130.00" x2="860" y2="130.00" stroke="#e5e7eb"/><text x="32" y="134.00" font-size="10" fill="#111827" text-anchor="end">1k</text><line x1="40" y1="85.00" x2="860" y2="85.00" stroke="#e5e7eb"/><text x="32" y="89.00" font-size="10" fill="#111827" text-anchor="end">1.5k</text><line x1="40" y1="40.00" x2="860" y2="40.00" stroke="#e5e7eb"/><text x="32" y="44.00" font-size="10" fill="#111827" text-anchor="end">2k</text>
    <line x1="40.00" y1="40" x2="40.00" y2="220" stroke="#e5e7eb" opacity="0.5"/><line x1="122.39" y1="40" x2="122.39" y2="220" stroke="#e5e7eb" opacity="0.5"/><line x1="204.78" y1="40" x2="204.78" y2="220" stroke="#e5e7eb" opacity="0.5"/><line x1="287.18" y1="40" x2="287.18" y2="220" stroke="#e5e7eb" opacity="0.5"/><line x1="369.57" y1="40" x2="369.57" y2="220" stroke="#e5e7eb" opacity="0.5"/><line x1="451.96" y1="40" x2="451.96" y2="220" stroke="#e5e7eb" opacity="0.5"/><line x1="534.35" y1="40" x2="534.35" y2="220" stroke="#e5e7eb" opacity="0.5"/><line x1="616.75" y1="40" x2="616.75" y2="220" stroke="#e5e7eb" opacity="0.5"/><line x1="699.14" y1="40" x2="699.14" y2="220" stroke="#e5e7eb" opacity="0.5"/><line x1="781.53" y1="40" x2="781.53" y2="220" stroke="#e5e7eb" opacity="0.5"/>
    <line x1="40" y1="220" x2="860" y2="220" stroke="#9ca3af"/>
    <line x1="40" y1="40"   x2="40"   y2="220" stroke="#9ca3af"/>
    <path d="M 40.00 219.82 L 43.92 214.15 L 47.85 214.06 L 51.77 214.06 L 55.69 213.25 L 59.62 213.25 L 63.54 204.88 L 67.46 185.98 L 71.39 185.98 L 75.31 180.94 L 79.23 152.59 L 83.16 159.97 L 87.08 158.89 L 91.00 158.17 L 94.93 139.63 L 98.85 139.63 L 102.78 157.18 L 106.70 154.66 L 110.62 154.39 L 114.55 151.60 L 118.47 150.97 L 122.39 150.70 L 126.32 149.80 L 130.24 149.80 L 134.16 147.46 L 138.09 144.94 L 142.01 144.76 L 145.93 140.71 L 149.86 134.23 L 153.78 134.23 L 157.70 133.69 L 161.63 133.69 L 165.55 133.69 L 169.47 133.69 L 173.40 133.69 L 177.32 133.69 L 181.24 132.97 L 185.17 132.97 L 189.09 132.97 L 193.01 132.97 L 196.94 132.97 L 200.86 132.97 L 204.78 132.97 L 208.71 132.97 L 212.63 132.97 L 216.56 132.97 L 220.48 132.97 L 224.40 132.97 L 228.33 132.97 L 232.25 132.97 L 236.17 132.97 L 240.10 132.97 L 244.02 132.97 L 247.94 132.97 L 251.87 132.97 L 255.79 132.97 L 259.71 132.97 L 263.64 132.97 L 267.56 132.97 L 271.48 132.97 L 275.41 132.97 L 279.33 132.97 L 283.25 132.97 L 287.18 132.97 L 291.10 132.97 L 295.02 132.97 L 298.95 132.97 L 302.87 132.97 L 306.79 132.97 L 310.72 132.97 L 314.64 132.97 L 318.56 132.97 L 322.49 132.97 L 326.41 132.97 L 330.33 132.97 L 334.26 132.97 L 338.18 132.97 L 342.11 132.97 L 346.03 132.97 L 349.95 132.97 L 353.88 132.97 L 357.80 132.97 L 361.72 132.97 L 365.65 132.97 L 369.57 132.97 L 373.49 132.97 L 377.42 132.97 L 381.34 132.97 L 385.26 132.97 L 389.19 132.97 L 393.11 132.97 L 397.03 132.97 L 400.96 132.97 L 404.88 132.97 L 408.80 132.97 L 412.73 132.97 L 416.65 132.97 L 420.57 132.97 L 424.50 132.97 L 428.42 132.97 L 432.34 132.97 L 436.27 132.97 L 440.19 132.97 L 444.11 132.97 L 448.04 132.97 L 451.96 132.97 L 455.89 132.97 L 459.81 132.97 L 463.73 132.97 L 467.66 132.97 L 471.58 132.97 L 475.50 132.97 L 479.43 132.97 L 483.35 132.97 L 487.27 132.97 L 491.20 132.97 L 495.12 132.97 L 499.04 132.97 L 502.97 132.97 L 506.89 132.97 L 510.81 132.97 L 514.74 132.97 L 518.66 132.97 L 522.58 132.97 L 526.51 132.97 L 530.43 132.97 L 534.35 132.97 L 538.28 132.97 L 542.20 132.97 L 546.12 132.97 L 550.05 132.97 L 553.97 132.97 L 557.89 132.97 L 561.82 132.97 L 565.74 132.97 L 569.67 132.97 L 573.59 132.97 L 577.51 132.97 L 581.44 132.97 L 585.36 132.97 L 589.28 132.97 L 593.21 132.97 L 597.13 132.97 L 601.05 132.97 L 604.98 132.97 L 608.90 132.97 L 612.82 132.97 L 616.75 132.97 L 620.67 132.97 L 624.59 132.97 L 628.52 132.97 L 632.44 132.97 L 636.36 132.97 L 640.29 124.51 L 644.21 120.64 L 648.13 116.77 L 652.06 112.90 L 655.98 109.03 L 659.90 105.97 L 663.83 105.97 L 667.75 105.97 L 671.67 105.97 L 675.60 105.97 L 679.52 105.79 L 683.44 103.09 L 687.37 98.41 L 691.29 98.41 L 695.22 98.41 L 699.14 98.41 L 703.06 98.41 L 706.99 98.41 L 710.91 98.41 L 714.83 98.41 L 718.76 98.41 L 722.68 98.41 L 726.60 98.41 L 730.53 98.41 L 734.45 98.41 L 738.37 98.41 L 742.30 98.41 L 746.22 98.41 L 750.14 98.41 L 754.07 98.41 L 757.99 98.41 L 761.91 98.41 L 765.84 98.41 L 769.76 98.41 L 773.68 98.41 L 777.61 98.41 L 781.53 98.41 L 785.45 98.41 L 789.38 98.41 L 793.30 98.41 L 797.22 98.41 L 801.15 98.41 L 805.07 98.41 L 809.00 98.41 L 812.92 98.41 L 816.84 98.41 L 820.77 98.41 L 824.69 98.41 L 828.61 98.41 L 832.54 98.41 L 836.46 98.41 L 840.38 98.41 L 844.31 98.41 L 848.23 98.41 L 852.15 98.41 L 856.08 98.41 L 860.00 98.41" fill="none" stroke="#111827" stroke-width="2"/>
    <circle cx="860.00" cy="98.41" r="3" fill="#111827"/>
    <text x="40.00" y="235.00" font-size="9" fill="#111827" text-anchor="middle" transform="rotate(-45 40.00 235.00)">09.08.2025</text><text x="122.39" y="235.00" font-size="9" fill="#111827" text-anchor="middle" transform="rotate(-45 122.39 235.00)">09.08.2025</text><text x="204.78" y="235.00" font-size="9" fill="#111827" text-anchor="middle" transform="rotate(-45 204.78 235.00)">18.08.2025</text><text x="287.18" y="235.00" font-size="9" fill="#111827" text-anchor="middle" transform="rotate(-45 287.18 235.00)">06.09.2025</text><text x="369.57" y="235.00" font-size="9" fill="#111827" text-anchor="middle" transform="rotate(-45 369.57 235.00)">27.09.2025</text><text x="451.96" y="235.00" font-size="9" fill="#111827" text-anchor="middle" transform="rotate(-45 451.96 235.00)">18.10.2025</text><text x="534.35" y="235.00" font-size="9" fill="#111827" text-anchor="middle" transform="rotate(-45 534.35 235.00)">08.11.2025</text><text x="616.75" y="235.00" font-size="9" fill="#111827" text-anchor="middle" transform="rotate(-45 616.75 235.00)">29.11.2025</text><text x="699.14" y="235.00" font-size="9" fill="#111827" text-anchor="middle" transform="rotate(-45 699.14 235.00)">10.12.2025</text><text x="781.53" y="235.00" font-size="9" fill="#111827" text-anchor="middle" transform="rotate(-45 781.53 235.00)">31.12.2025</text>
  </g>
</svg>