<svg xmlns="http://www.w3.org/2000/svg" width="900" height="290" style="font-family: -apple-system, BlinkMacSystemFont, 'Segoe UI', Helvetica, Arial, sans-serif;">
  <rect width="100%" height="100%" fill="#0d1117"/>
  <g>
    <line x1="40" y1="220.00" x2="860" y2="220.00" stroke="#30363d"/><text x="32" y="224.00" font-size="10" fill="#c9d1d9" text-anchor="end">0</text><line x1="40" y1="175.00" x2="860" y2="175.00" stroke="#30363d"/><text x="32" y="179.00" font-size="10" fill="#c9d1d9" text-anchor="end">500</text><line x1="40" y1="130.00" x2="860" y2="130.00" stroke="#30363d"/><text x="32" y="134.00" font-size="10" fill="#c9d1d9" text-anchor="end">1k</text><line x1="40" y1="85.00" x2="860" y2="85.00" stroke="#30363d"/><text x="32" y="89.00" font-size="10" fill="#c9d1d9" text-anchor="end">1.5k</text><line x1="40" y1="40.00" x2="860" y2="40.00" stroke="#30363d"/><text x="32" y="44.00" font-size="10" fill="#c9d1d9" text-anchor="end">2k</text>
    <line x1="40.00" y1="40" x2="40.00" y2="220" stroke="#30363d" opacity="0.5"/><line x1="120.15" y1="40" x2="120.15" y2="220" stroke="#30363d" opacity="0.5"/><line x1="200.30" y1="40" x2="200.30" y2="220" stroke="#30363d" opacity="0.5"/><line x1="280.45" y1="40" x2="280.45" y2="220" stroke="#30363d" opacity="0.5"/><line x1="360.60" y1="40" x2="360.60" y2="220" stroke="#30363d" opacity="0.5"/><line x1="440.75" y1="40" x2="440.75" y2="220" stroke="#30363d" opacity="0.5"/><line x1="520.90" y1="40" x2="520.90" y2="220" stroke="#30363d" opacity="0.5"/><line x1="601.05" y1="40" x2="601.05" y2="220" stroke="#30363d" opacity="0.5"/><line x1="681.20" y1="40" x2="681.20" y2="220" stroke="#30363d" opacity="0.5"/><line x1="761.35" y1="40" x2="761.35" y2="220" stroke="#30363d" opacity="0.5"/><line x1="841.50" y1="40" x2="841.50" y2="220" stroke="#30363d" opacity="0.5"/>
    <line x1="40" y1="220" x2="860" y2="220" stroke="#30363d"/>
    <line x1="40" y1="40"   x2="40"   y2="220" stroke="#30363d"/>
    <path d="M 40.00 219.82 L 46.17 214.15 L 52.33 214.06 L 58.50 214.06 L 64.66 213.25 L 70.83 213.25 L 76.99 204.88 L 83.16 185.98 L 89.32 185.98 L 95.49 180.94 L 101.65 152.59 L 107.82 159.97 L 113.98 158.89 L 120.15 158.17 L 126.32 139.63 L 132.48 139.63 L 138.65 157.18 L 144.81 154.66 L 150.98 154.39 L 157.14 151.60 L 163.31 150.97 L 169.47 150.70 L 175.64 149.80 L 181.80 149.80 L 187.97 147.46 L 194.14 144.94 L 200.30 144.76 L 206.47 140.71 L 212.63 134.23 L 218.80 134.23 L 224.96 133.69 L 231.13 133.69 L 237.29 133.69 L 243.46 133.69 L 249.62 133.69 L 255.79 133.69 L 261.95 132.97 L 268.12 132.97 L 274.29 132.97 L 280.45 132.97 L 286.62 132.97 L 292.78 132.97 L 298.95 132.97 L 305.11 132.97 L 311.28 132.97 L 317.44 132.97 L 323.61 132.97 L 329.77 132.97 L 335.94 132.97 L 342.11 132.97 L 348.27 132.97 L 354.44 132.97 L 360.60 132.97 L 366.77 132.97 L 372.93 132.97 L 379.10 132.97 L 385.26 132.97 L 391.43 132.97 L 397.59 132.97 L 403.76 132.97 L 409.92 132.97 L 416.09 132.97 L 422.26 132.97 L 428.42 132.97 L 434.59 132.97 L 440.75 132.97 L 446.92 132.97 L 453.08 132.97 L 459.25 132.97 L 465.41 132.97 L 471.58 132.97 L 477.74 132.97 L 483.91 132.97 L 490.08 132.97 L 496.24 132.97 L 502.41 132.97 L 508.57 132.97 L 514.74 132.97 L 520.90 132.97 L 527.07 132.97 L 533.23 132.97 L 539.40 132.97 L 545.56 132.97 L 551.73 132.97 L 557.89 132.97 L 564.06 132.97 L 570.23 132.97 L 576.39 132.97 L 582.56 132.97 L 588.72 132.97 L 594.89 132.97 L 601.05 132.97 L 607.22 132.97 L 613.38 132.97 L 619.55 132.97 L 625.71 132.97 L 631.88 132.97 L 638.05 132.97 L 644.21 132.97 L 650.38 132.97 L 656.54 132.97 L 662.71 132.97 L 668.87 132.97 L 675.04 132.97 L 681.20 132.97 L 687.37 132.97 L 693.53 132.97 L 699.70 132.97 L 705.86 132.97 L 712.03 132.97 L 718.20 132.97 L 724.36 132.97 L 730.53 132.97 L 736.69 132.97 L 742.86 132.97 L 749.02 132.97 L 755.19 132.97 L 761.35 132.97 L 767.52 132.97 L 773.68 132.97 L 779.85 132.97 L 786.02 132.97 L 792.18 132.97 L 798.35 132.97 L 804.51 132.97 L 810.68 132.97 L 816.84 132.97 L 823.01 132.97 L 829.17 132.97 L 835.34 132.97 L 841.50 132.97 L 847.67 132.97 L 853.83 132.97 L 860.00 132.97" fill="none" stroke="#3fb950" stroke-width="2"/>
    <circle cx="860.00" cy="132.97" r="3" fill="#3fb950"/>
    <text x="40.00" y="235.00" font-size="9" fill="#c9d1d9" text-anchor="middle" transform="rotate(-45 40.00 235.00)">09.08.2025</text><text x="120.15" y="235.00" font-size="9" fill="#c9d1d9" text-anchor="middle" transform="rotate(-45 120.15 235.00)">09.08.2025</text><text x="200.30" y="235.00" font-size="9" fill="#c9d1d9" text-anchor="middle" transform="rotate(-45 200.30 235.00)">09.08.2025</text><text x="280.45" y="235.00" font-size="9" fill="#c9d1d9" text-anchor="middle" transform="rotate(-45 280.45 235.00)">15.08.2025</text><text x="360.60" y="235.00" font-size="9" fill="#c9d1d9" text-anchor="middle" transform="rotate(-45 360.60 235.00)">28.08.2025</text><text x="440.75" y="235.00" font-size="9" fill="#c9d1d9" text-anchor="middle" transform="rotate(-45 440.75 235.00)">08.09.2025</text><text x="520.90" y="235.00" font-size="9" fill="#c9d1d9" text-anchor="middle" transform="rotate(-45 520.90 235.00)">21.09.2025</text><text x="601.05" y="235.00" font-size="9" fill="#c9d1d9" text-anchor="middle" transform="rotate(-45 601.05 235.00)">04.10.2025</text><text x="681.20" y="235.00" font-size="9" fill="#c9d1d9" text-anchor="middle" transform="rotate(-45 681.20 235.00)">17.10.2025</text><text x="761.35" y="235.00" font-size="9" fill="#c9d1d9" text-anchor="middle" transform="rotate(-45 761.35 235.00)">30.10.2025</text><text x="841.50" y="235.00" font-size="9" fill="#c9d1d9" text-anchor="middle" transform="rotate(-45 841.50 235.00)">12.11.2025</text>
  </g>
</svg>