<svg xmlns="http://www.w3.org/2000/svg" width="900" height="290" style="font-family: -apple-system, BlinkMacSystemFont, 'Segoe UI', Helvetica, Arial, sans-serif;">
  <rect width="100%" height="100%" fill="#0d1117"/>
  <g>
    <line x1="40" y1="220.00" x2="860" y2="220.00" stroke="#30363d"/><text x="32" y="224.00" font-size="10" fill="#c9d1d9" text-anchor="end">0</text><line x1="40" y1="175.00" x2="860" y2="175.00" stroke="#30363d"/><text x="32" y="179.00" font-size="10" fill="#c9d1d9" text-anchor="end">500</text><line x1="40" y1="130.00" x2="860" y2="130.00" stroke="#30363d"/><text x="32" y="134.00" font-size="10" fill="#c9d1d9" text-anchor="end">1k</text><line x1="40" y1="85.00" x2="860" y2="85.00" stroke="#30363d"/><text x="32" y="89.00" font-size="10" fill="#c9d1d9" text-anchor="end">1.5k</text><line x1="40" y1="40.00" x2="860" y2="40.00" stroke="#30363d"/><text x="32" y="44.00" font-size="10" fill="#c9d1d9" text-anchor="end">2k</text>
    <line x1="40.00" y1="40" x2="40.00" y2="220" stroke="#30363d" opacity="0.5"/><line x1="118.96" y1="40" x2="118.96" y2="220" stroke="#30363d" opacity="0.5"/><line x1="197.93" y1="40" x2="197.93" y2="220" stroke="#30363d" opacity="0.5"/><line x1="276.89" y1="40" x2="276.89" y2="220" stroke="#30363d" opacity="0.5"/><line x1="355.85" y1="40" x2="355.85" y2="220" stroke="#30363d" opacity="0.5"/><line x1="434.81" y1="40" x2="434.81" y2="220" stroke="#30363d" opacity="0.5"/><line x1="513.78" y1="40" x2="513.78" y2="220" stroke="#30363d" opacity="0.5"/><line x1="592.74" y1="40" x2="592.74" y2="220" stroke="#30363d" opacity="0.5"/><line x1="671.70" y1="40" x2="671.70" y2="220" stroke="#30363d" opacity="0.5"/><line x1="750.67" y1="40" x2="750.67" y2="220" stroke="#30363d" opacity="0.5"/><line x1="829.63" y1="40" x2="829.63" y2="220" stroke="#30363d" opacity="0.5"/>
    <line x1="40" y1="220" x2="860" y2="220" stroke="#30363d"/>
    <line x1="40" y1="40"   x2="40"   y2="220" stroke="#30363d"/>
    <path d="M 40.00 219.82 L 46.07 214.15 L 52.15 214.06 L 58.22 214.06 L 64.30 213.25 L 70.37 213.25 L 76.44 204.88 L 82.52 185.98 L 88.59 185.98 L 94.67 180.94 L 100.74 152.59 L 106.81 159.97 L 112.89 158.89 L 118.96 158.17 L 125.04 139.63 L 131.11 139.63 L 137.19 157.18 L 143.26 154.66 L 149.33 154.39 L 155.41 151.60 L 161.48 150.97 L 167.56 150.70 L 173.63 149.80 L 179.70 149.80 L 185.78 147.46 L 191.85 144.94 L 197.93 144.76 L 204.00 140.71 L 210.07 134.23 L 216.15 134.23 L 222.22 133.69 L 228.30 133.69 L 234.37 133.69 L 240.44 133.69 L 246.52 133.69 L 252.59 133.69 L 258.67 132.97 L 264.74 132.97 L 270.81 132.97 L 276.89 132.97 L 282.96 132.97 L 289.04 132.97 L 295.11 132.97 L 301.19 132.97 L 307.26 132.97 L 313.33 132.97 L 319.41 132.97 L 325.48 132.97 L 331.56 132.97 L 337.63 132.97 L 343.70 132.97 L 349.78 132.97 L 355.85 132.97 L 361.93 132.97 L 368.00 132.97 L 374.07 132.97 L 380.15 132.97 L 386.22 132.97 L 392.30 132.97 L 398.37 132.97 L 404.44 132.97 L 410.52 132.97 L 416.59 132.97 L 422.67 132.97 L 428.74 132.97 L 434.81 132.97 L 440.89 132.97 L 446.96 132.97 L 453.04 132.97 L 459.11 132.97 L 465.19 132.97 L 471.26 132.97 L 477.33 132.97 L 483.41 132.97 L 489.48 132.97 L 495.56 132.97 L 501.63 132.97 L 507.70 132.97 L 513.78 132.97 L 519.85 132.97 L 525.93 132.97 L 532.00 132.97 L 538.07 132.97 L 544.15 132.97 L 550.22 132.97 L 556.30 132.97 L 562.37 132.97 L 568.44 132.97 L 574.52 132.97 L 580.59 132.97 L 586.67 132.97 L 592.74 132.97 L 598.81 132.97 L 604.89 132.97 L 610.96 132.97 L 617.04 132.97 L 623.11 132.97 L 629.19 132.97 L 635.26 132.97 L 641.33 132.97 L 647.41 132.97 L 653.48 132.97 L 659.56 132.97 L 665.63 132.97 L 671.70 132.97 L 677.78 132.97 L 683.85 132.97 L 689.93 132.97 L 696.00 132.97 L 702.07 132.97 L 708.15 132.97 L 714.22 132.97 L 720.30 132.97 L 726.37 132.97 L 732.44 132.97 L 738.52 132.97 L 744.59 132.97 L 750.67 132.97 L 756.74 132.97 L 762.81 132.97 L 768.89 132.97 L 774.96 132.97 L 781.04 132.97 L 787.11 132.97 L 793.19 132.97 L 799.26 132.97 L 805.33 132.97 L 811.41 132.97 L 817.48 132.97 L 823.56 132.97 L 829.63 132.97 L 835.70 132.97 L 841.78 132.97 L 847.85 132.97 L 853.93 132.97 L 860.00 132.97" fill="none" stroke="#3fb950" stroke-width="2"/>
    <circle cx="860.00" cy="132.97" r="3" fill="#3fb950"/>
    <text x="40.00" y="235.00" font-size="9" fill="#c9d1d9" text-anchor="middle" transform="rotate(-45 40.00 235.00)">09.08.2025</text><text x="118.96" y="235.00" font-size="9" fill="#c9d1d9" text-anchor="middle" transform="rotate(-45 118.96 235.00)">09.08.2025</text><text x="197.93" y="235.00" font-size="9" fill="#c9d1d9" text-anchor="middle" transform="rotate(-45 197.93 235.00)">09.08.2025</text><text x="276.89" y="235.00" font-size="9" fill="#c9d1d9" text-anchor="middle" transform="rotate(-45 276.89 235.00)">15.08.2025</text><text x="355.85" y="235.00" font-size="9" fill="#c9d1d9" text-anchor="middle" transform="rotate(-45 355.85 235.00)">28.08.2025</text><text x="434.81" y="235.00" font-size="9" fill="#c9d1d9" text-anchor="middle" transform="rotate(-45 434.81 235.00)">08.09.2025</text><text x="513.78" y="235.00" font-size="9" fill="#c9d1d9" text-anchor="middle" transform="rotate(-45 513.78 235.00)">21.09.2025</text><text x="592.74" y="235.00" font-size="9" fill="#c9d1d9" text-anchor="middle" transform="rotate(-45 592.74 235.00)">04.10.2025</text><text x="671.70" y="235.00" font-size="9" fill="#c9d1d9" text-anchor="middle" transform="rotate(-45 671.70 235.00)">17.10.2025</text><text x="750.67" y="235.00" font-size="9" fill="#c9d1d9" text-anchor="middle" transform="rotate(-45 750.67 235.00)">30.10.2025</text><text x="829.63" y="235.00" font-size="9" fill="#c9d1d9" text-anchor="middle" transform="rotate(-45 829.63 235.00)">12.11.2025</text>
  </g>
</svg>