<svg xmlns="http://www.w3.org/2000/svg" width="900" height="290" style="font-family: -apple-system, BlinkMacSystemFont, 'Segoe UI', Helvetica, Arial, sans-serif;">
  <rect width="100%" height="100%" fill="white"/>
  <g>
    <line x1="40" y1="220.00" x2="860" y2="220.00" stroke="#e5e7eb"/><text x="32" y="224.00" font-size="10" fill="#111827" text-anchor="end">0</text><line x1="40" y1="175.00" x2="860" y2="175.00" stroke="#e5e7eb"/><text x="32" y="179.00" font-size="10" fill="#111827" text-anchor="end">500</text><line x1="40" y1="130.00" x2="860" y2="130.00" stroke="#e5e7eb"/><text x="32" y="134.00" font-size="10" fill="#111827" text-anchor="end">1k</text><line x1="40" y1="85.00" x2="860" y2="85.00" stroke="#e5e7eb"/><text x="32" y="89.00" font-size="10" fill="#111827" text-anchor="end">1.5k</text><line x1="40" y1="40.00" x2="860" y2="40.00" stroke="#e5e7eb"/><text x="32" y="44.00" font-size="10" fill="#111827" text-anchor="end">2k</text>
    <line x1="40.00" y1="40" x2="40.00" y2="220" stroke="#e5e7eb" opacity="0.5"/><line x1="121.10" y1="40" x2="121.10" y2="220" stroke="#e5e7eb" opacity="0.5"/><line x1="202.20" y1="40" x2="202.20" y2="220" stroke="#e5e7eb" opacity="0.5"/><line x1="283.30" y1="40" x2="283.30" y2="220" stroke="#e5e7eb" opacity="0.5"/><line x1="364.40" y1="40" x2="364.40" y2="220" stroke="#e5e7eb" opacity="0.5"/><line x1="445.49" y1="40" x2="445.49" y2="220" stroke="#e5e7eb" opacity="0.5"/><line x1="526.59" y1="40" x2="526.59" y2="220" stroke="#e5e7eb" opacity="0.5"/><line x1="607.69" y1="40" x2="607.69" y2="220" stroke="#e5e7eb" opacity="0.5"/><line x1="688.79" y1="40" x2="688.79" y2="220" stroke="#e5e7eb" opacity="0.5"/><line x1="769.89" y1="40" x2="769.89" y2="220" stroke="#e5e7eb" opacity="0.5"/><line x1="850.99" y1="40" x2="850.99" y2="220" stroke="#e5e7eb" opacity="0.5"/>
    <line x1="40" y1="220" x2="860" y2="220" stroke="#9ca3af"/>
    <line x1="40" y1="40"   x2="40"   y2="220" stroke="#9ca3af"/>
    <path d="M 40.00 219.82 L 44.51 214.15 L 49.01 214.06 L 53.52 214.06 L 58.02 213.25 L 62.53 213.25 L 67.03 204.88 L 71.54 185.98 L 76.04 185.98 L 80.55 180.94 L 85.05 152.59 L 89.56 159.97 L 94.07 158.89 L 98.57 158.17 L 103.08 139.63 L 107.58 139.63 L 112.09 157.18 L 116.59 154.66 L 121.10 154.39 L 125.60 151.60 L 130.11 150.97 L 134.62 150.70 L 139.12 149.80 L 143.63 149.80 L 148.13 147.46 L 152.64 144.94 L 157.14 144.76 L 161.65 140.71 L 166.15 134.23 L 170.66 134.23 L 175.16 133.69 L 179.67 133.69 L 184.18 133.69 L 188.68 133.69 L 193.19 133.69 L 197.69 133.69 L 202.20 132.97 L 206.70 132.97 L 211.21 132.97 L 215.71 132.97 L 220.22 132.97 L 224.73 132.97 L 229.23 132.97 L 233.74 132.97 L 238.24 132.97 L 242.75 132.97 L 247.25 132.97 L 251.76 132.97 L 256.26 132.97 L 260.77 132.97 L 265.27 132.97 L 269.78 132.97 L 274.29 132.97 L 278.79 132.97 L 283.30 132.97 L 287.80 132.97 L 292.31 132.97 L 296.81 132.97 L 301.32 132.97 L 305.82 132.97 L 310.33 132.97 L 314.84 132.97 L 319.34 132.97 L 323.85 132.97 L 328.35 132.97 L 332.86 132.97 L 337.36 132.97 L 341.87 132.97 L 346.37 132.97 L 350.88 132.97 L 355.38 132.97 L 359.89 132.97 L 364.40 132.97 L 368.90 132.97 L 373.41 132.97 L 377.91 132.97 L 382.42 132.97 L 386.92 132.97 L 391.43 132.97 L 395.93 132.97 L 400.44 132.97 L 404.95 132.97 L 409.45 132.97 L 413.96 132.97 L 418.46 132.97 L 422.97 132.97 L 427.47 132.97 L 431.98 132.97 L 436.48 132.97 L 440.99 132.97 L 445.49 132.97 L 450.00 132.97 L 454.51 132.97 L 459.01 132.97 L 463.52 132.97 L 468.02 132.97 L 472.53 132.97 L 477.03 132.97 L 481.54 132.97 L 486.04 132.97 L 490.55 132.97 L 495.05 132.97 L 499.56 132.97 L 504.07 132.97 L 508.57 132.97 L 513.08 132.97 L 517.58 132.97 L 522.09 132.97 L 526.59 132.97 L 531.10 132.97 L 535.60 132.97 L 540.11 132.97 L 544.62 132.97 L 549.12 132.97 L 553.63 132.97 L 558.13 132.97 L 562.64 132.97 L 567.14 132.97 L 571.65 132.97 L 576.15 132.97 L 580.66 132.97 L 585.16 132.97 L 589.67 132.97 L 594.18 132.97 L 598.68 132.97 L 603.19 132.97 L 607.69 132.97 L 612.20 132.97 L 616.70 132.97 L 621.21 132.97 L 625.71 132.97 L 630.22 132.97 L 634.73 132.97 L 639.23 132.97 L 643.74 132.97 L 648.24 132.97 L 652.75 132.97 L 657.25 132.97 L 661.76 132.97 L 666.26 132.97 L 670.77 132.97 L 675.27 132.97 L 679.78 132.97 L 684.29 132.97 L 688.79 132.97 L 693.30 132.97 L 697.80 132.97 L 702.31 132.97 L 706.81 132.97 L 711.32 132.97 L 715.82 132.97 L 720.33 132.97 L 724.84 132.97 L 729.34 124.51 L 733.85 120.64 L 738.35 116.77 L 742.86 112.90 L 747.36 109.03 L 751.87 105.97 L 756.37 105.97 L 760.88 105.97 L 765.38 105.97 L 769.89 105.97 L 774.40 105.79 L 778.90 103.09 L 783.41 98.41 L 787.91 98.41 L 792.42 98.41 L 796.92 98.41 L 801.43 98.41 L 805.93 98.41 L 810.44 98.41 L 814.95 98.41 L 819.45 98.41 L 823.96 98.41 L 828.46 98.41 L 832.97 98.41 L 837.47 98.41 L 841.98 98.41 L 846.48 98.41 L 850.99 98.41 L 855.49 98.41 L 860.00 98.41" fill="none" stroke="#111827" stroke-width="2"/>
    <circle cx="860.00" cy="98.41" r="3" fill="#111827"/>
    <text x="40.00" y="235.00" font-size="9" fill="#111827" text-anchor="middle" transform="rotate(-45 40.00 235.00)">09.08.2025</text><text x="121.10" y="235.00" font-size="9" fill="#111827" text-anchor="middle" transform="rotate(-45 121.10 235.00)">09.08.2025</text><text x="202.20" y="235.00" font-size="9" fill="#111827" text-anchor="middle" transform="rotate(-45 202.20 235.00)">13.08.2025</text><text x="283.30" y="235.00" font-size="9" fill="#111827" text-anchor="middle" transform="rotate(-45 283.30 235.00)">28.08.2025</text><text x="364.40" y="235.00" font-size="9" fill="#111827" text-anchor="middle" transform="rotate(-45 364.40 235.00)">15.09.2025</text><text x="445.49" y="235.00" font-size="9" fill="#111827" text-anchor="middle" transform="rotate(-45 445.49 235.00)">03.10.2025</text><text x="526.59" y="235.00" font-size="9" fill="#111827" text-anchor="middle" transform="rotate(-45 526.59 235.00)">21.10.2025</text><text x="607.69" y="235.00" font-size="9" fill="#111827" text-anchor="middle" transform="rotate(-45 607.69 235.00)">08.11.2025</text><text x="688.79" y="235.00" font-size="9" fill="#111827" text-anchor="middle" transform="rotate(-45 688.79 235.00)">26.11.2025</text><text x="769.89" y="235.00" font-size="9" fill="#111827" text-anchor="middle" transform="rotate(-45 769.89 235.00)">07.12.2025</text><text x="850.99" y="235.00" font-size="9" fill="#111827" text-anchor="middle" transform="rotate(-45 850.99 235.00)">22.12.2025</text>
  </g>
</svg>