<svg xmlns="http://www.w3.org/2000/svg" width="900" height="290" style="font-family: -apple-system, BlinkMacSystemFont, 'Segoe UI', Helvetica, Arial, sans-serif;">
  <rect width="100%" height="100%" fill="#0d1117"/>
  <g>
    <line x1="40" y1="220.00" x2="860" y2="220.00" stroke="#30363d"/><text x="32" y="224.00" font-size="10" fill="#c9d1d9" text-anchor="end">0</text><line x1="40" y1="175.00" x2="860" y2="175.00" stroke="#30363d"/><text x="32" y="179.00" font-size="10" fill="#c9d1d9" text-anchor="end">500</text><line x1="40" y1="130.00" x2="860" y2="130.00" stroke="#30363d"/><text x="32" y="134.00" font-size="10" fill="#c9d1d9" text-anchor="end">1k</text><line x1="40" y1="85.00" x2="860" y2="85.00" stroke="#30363d"/><text x="32" y="89.00" font-size="10" fill="#c9d1d9" text-anchor="end">1.5k</text><line x1="40" y1="40.00" x2="860" y2="40.00" stroke="#30363d"/><text x="32" y="44.00" font-size="10" fill="#c9d1d9" text-anchor="end">2k</text>
    <line x1="40.00" y1="40" x2="40.00" y2="220" stroke="#30363d" opacity="0.5"/><line x1="119.90" y1="40" x2="119.90" y2="220" stroke="#30363d" opacity="0.5"/><line x1="199.79" y1="40" x2="199.79" y2="220" stroke="#30363d" opacity="0.5"/><line x1="279.69" y1="40" x2="279.69" y2="220" stroke="#30363d" opacity="0.5"/><line x1="359.59" y1="40" x2="359.59" y2="220" stroke="#30363d" opacity="0.5"/><line x1="439.49" y1="40" x2="439.49" y2="220" stroke="#30363d" opacity="0.5"/><line x1="519.38" y1="40" x2="519.38" y2="220" stroke="#30363d" opacity="0.5"/><line x1="599.28" y1="40" x2="599.28" y2="220" stroke="#30363d" opacity="0.5"/><line x1="679.18" y1="40" x2="679.18" y2="220" stroke="#30363d" opacity="0.5"/><line x1="759.08" y1="40" x2="759.08" y2="220" stroke="#30363d" opacity="0.5"/><line x1="838.97" y1="40" x2="838.97" y2="220" stroke="#30363d" opacity="0.5"/>
    <line x1="40" y1="220" x2="860" y2="220" stroke="#30363d"/>
    <line x1="40" y1="40"   x2="40"   y2="220" stroke="#30363d"/>
    <path d="M 40.00 219.82 L 44.21 214.15 L 48.41 214.06 L 52.62 214.06 L 56.82 213.25 L 61.03 213.25 L 65.23 204.88 L 69.44 185.98 L 73.64 185.98 L 77.85 180.94 L 82.05 152.59 L 86.26 159.97 L 90.46 158.89 L 94.67 158.17 L 98.87 139.63 L 103.08 139.63 L 107.28 157.18 L 111.49 154.66 L 115.69 154.39 L 119.90 151.60 L 124.10 150.97 L 128.31 150.70 L 132.51 149.80 L 136.72 149.80 L 140.92 147.46 L 145.13 144.94 L 149.33 144.76 L 153.54 140.71 L 157.74 134.23 L 161.95 134.23 L 166.15 133.69 L 170.36 133.69 L 174.56 133.69 L 178.77 133.69 L 182.97 133.69 L 187.18 133.69 L 191.38 132.97 L 195.59 132.97 L 199.79 132.97 L 204.00 132.97 L 208.21 132.97 L 212.41 132.97 L 216.62 132.97 L 220.82 132.97 L 225.03 132.97 L 229.23 132.97 L 233.44 132.97 L 237.64 132.97 L 241.85 132.97 L 246.05 132.97 L 250.26 132.97 L 254.46 132.97 L 258.67 132.97 L 262.87 132.97 L 267.08 132.97 L 271.28 132.97 L 275.49 132.97 L 279.69 132.97 L 283.90 132.97 L 288.10 132.97 L 292.31 132.97 L 296.51 132.97 L 300.72 132.97 L 304.92 132.97 L 309.13 132.97 L 313.33 132.97 L 317.54 132.97 L 321.74 132.97 L 325.95 132.97 L 330.15 132.97 L 334.36 132.97 L 338.56 132.97 L 342.77 132.97 L 346.97 132.97 L 351.18 132.97 L 355.38 132.97 L 359.59 132.97 L 363.79 132.97 L 368.00 132.97 L 372.21 132.97 L 376.41 132.97 L 380.62 132.97 L 384.82 132.97 L 389.03 132.97 L 393.23 132.97 L 397.44 132.97 L 401.64 132.97 L 405.85 132.97 L 410.05 132.97 L 414.26 132.97 L 418.46 132.97 L 422.67 132.97 L 426.87 132.97 L 431.08 132.97 L 435.28 132.97 L 439.49 132.97 L 443.69 132.97 L 447.90 132.97 L 452.10 132.97 L 456.31 132.97 L 460.51 132.97 L 464.72 132.97 L 468.92 132.97 L 473.13 132.97 L 477.33 132.97 L 481.54 132.97 L 485.74 132.97 L 489.95 132.97 L 494.15 132.97 L 498.36 132.97 L 502.56 132.97 L 506.77 132.97 L 510.97 132.97 L 515.18 132.97 L 519.38 132.97 L 523.59 132.97 L 527.79 132.97 L 532.00 132.97 L 536.21 132.97 L 540.41 132.97 L 544.62 132.97 L 548.82 132.97 L 553.03 132.97 L 557.23 132.97 L 561.44 132.97 L 565.64 132.97 L 569.85 132.97 L 574.05 132.97 L 578.26 132.97 L 582.46 132.97 L 586.67 132.97 L 590.87 132.97 L 595.08 132.97 L 599.28 132.97 L 603.49 132.97 L 607.69 132.97 L 611.90 132.97 L 616.10 132.97 L 620.31 132.97 L 624.51 132.97 L 628.72 132.97 L 632.92 132.97 L 637.13 132.97 L 641.33 132.97 L 645.54 132.97 L 649.74 132.97 L 653.95 132.97 L 658.15 132.97 L 662.36 132.97 L 666.56 132.97 L 670.77 132.97 L 674.97 132.97 L 679.18 132.97 L 683.38 124.51 L 687.59 120.64 L 691.79 116.77 L 696.00 112.90 L 700.21 109.03 L 704.41 105.97 L 708.62 105.97 L 712.82 105.97 L 717.03 105.97 L 721.23 105.97 L 725.44 105.79 L 729.64 103.09 L 733.85 98.41 L 738.05 98.41 L 742.26 98.41 L 746.46 98.41 L 750.67 98.41 L 754.87 98.41 L 759.08 98.41 L 763.28 98.41 L 767.49 98.41 L 771.69 98.41 L 775.90 98.41 L 780.10 98.41 L 784.31 98.41 L 788.51 98.41 L 792.72 98.41 L 796.92 98.41 L 801.13 98.41 L 805.33 98.41 L 809.54 98.41 L 813.74 98.41 L 817.95 98.41 L 822.15 98.41 L 826.36 98.41 L 830.56 98.41 L 834.77 98.41 L 838.97 98.41 L 843.18 98.41 L 847.38 98.41 L 851.59 98.41 L 855.79 98.41 L 860.00 98.41" fill="none" stroke="#3fb950" stroke-width="2"/>
    <circle cx="860.00" cy="98.41" r="3" fill="#3fb950"/>
    <text x="40.00" y="235.00" font-size="9" fill="#c9d1d9" text-anchor="middle" transform="rotate(-45 40.00 235.00)">09.08.2025</text><text x="119.90" y="235.00" font-size="9" fill="#c9d1d9" text-anchor="middle" transform="rotate(-45 119.90 235.00)">09.08.2025</text><text x="199.79" y="235.00" font-size="9" fill="#c9d1d9" text-anchor="middle" transform="rotate(-45 199.79 235.00)">14.08.2025</text><text x="279.69" y="235.00" font-size="9" fill="#c9d1d9" text-anchor="middle" transform="rotate(-45 279.69 235.00)">31.08.2025</text><text x="359.59" y="235.00" font-size="9" fill="#c9d1d9" text-anchor="middle" transform="rotate(-45 359.59 235.00)">19.09.2025</text><text x="439.49" y="235.00" font-size="9" fill="#c9d1d9" text-anchor="middle" transform="rotate(-45 439.49 235.00)">08.10.2025</text><text x="519.38" y="235.00" font-size="9" fill="#c9d1d9" text-anchor="middle" transform="rotate(-45 519.38 235.00)">27.10.2025</text><text x="599.28" y="235.00" font-size="9" fill="#c9d1d9" text-anchor="middle" transform="rotate(-45 599.28 235.00)">15.11.2025</text><text x="679.18" y="235.00" font-size="9" fill="#c9d1d9" text-anchor="middle" transform="rotate(-45 679.18 235.00)">04.12.2025</text><text x="759.08" y="235.00" font-size="9" fill="#c9d1d9" text-anchor="middle" transform="rotate(-45 759.08 235.00)">13.12.2025</text><text x="838.97" y="235.00" font-size="9" fill="#c9d1d9" text-anchor="middle" transform="rotate(-45 838.97 235.00)">01.01.2026</text>
  </g>
</svg>