<svg xmlns="http://www.w3.org/2000/svg" width="900" height="290" style="font-family: -apple-system, BlinkMacSystemFont, 'Segoe UI', Helvetica, Arial, sans-serif;">
  <rect width="100%" height="100%" fill="#0d1117"/>
  <g>
    <line x1="40" y1="220.00" x2="860" y2="220.00" stroke="#30363d"/><text x="32" y="224.00" font-size="10" fill="#c9d1d9" text-anchor="end">0</text><line x1="40" y1="175.00" x2="860" y2="175.00" stroke="#30363d"/><text x="32" y="179.00" font-size="10" fill="#c9d1d9" text-anchor="end">500</text><line x1="40" y1="130.00" x2="860" y2="130.00" stroke="#30363d"/><text x="32" y="134.00" font-size="10" fill="#c9d1d9" text-anchor="end">1k</text><line x1="40" y1="85.00" x2="860" y2="85.00" stroke="#30363d"/><text x="32" y="89.00" font-size="10" fill="#c9d1d9" text-anchor="end">1.5k</text><line x1="40" y1="40.00" x2="860" y2="40.00" stroke="#30363d"/><text x="32" y="44.00" font-size="10" fill="#c9d1d9" text-anchor="end">2k</text>
    <line x1="40.00" y1="40" x2="40.00" y2="220" stroke="#30363d" opacity="0.5"/><line x1="122.00" y1="40" x2="122.00" y2="220" stroke="#30363d" opacity="0.5"/><line x1="204.00" y1="40" x2="204.00" y2="220" stroke="#30363d" opacity="0.5"/><line x1="286.00" y1="40" x2="286.00" y2="220" stroke="#30363d" opacity="0.5"/><line x1="368.00" y1="40" x2="368.00" y2="220" stroke="#30363d" opacity="0.5"/><line x1="450.00" y1="40" x2="450.00" y2="220" stroke="#30363d" opacity="0.5"/><line x1="532.00" y1="40" x2="532.00" y2="220" stroke="#30363d" opacity="0.5"/><line x1="614.00" y1="40" x2="614.00" y2="220" stroke="#30363d" opacity="0.5"/><line x1="696.00" y1="40" x2="696.00" y2="220" stroke="#30363d" opacity="0.5"/><line x1="778.00" y1="40" x2="778.00" y2="220" stroke="#30363d" opacity="0.5"/><line x1="860.00" y1="40" x2="860.00" y2="220" stroke="#30363d" opacity="0.5"/>
    <line x1="40" y1="220" x2="860" y2="220" stroke="#30363d"/>
    <line x1="40" y1="40"   x2="40"   y2="220" stroke="#30363d"/>
    <path d="M 40.00 219.82 L 44.82 214.15 L 49.65 214.06 L 54.47 214.06 L 59.29 213.25 L 64.12 213.25 L 68.94 204.88 L 73.76 185.98 L 78.59 185.98 L 83.41 180.94 L 88.24 152.59 L 93.06 159.97 L 97.88 158.89 L 102.71 158.17 L 107.53 139.63 L 112.35 139.63 L 117.18 157.18 L 122.00 154.66 L 126.82 154.39 L 131.65 151.60 L 136.47 150.97 L 141.29 150.70 L 146.12 149.80 L 150.94 149.80 L 155.76 147.46 L 160.59 144.94 L 165.41 144.76 L 170.24 140.71 L 175.06 134.23 L 179.88 134.23 L 184.71 133.69 L 189.53 133.69 L 194.35 133.69 L 199.18 133.69 L 204.00 133.69 L 208.82 133.69 L 213.65 132.97 L 218.47 132.97 L 223.29 132.97 L 228.12 132.97 L 232.94 132.97 L 237.76 132.97 L 242.59 132.97 L 247.41 132.97 L 252.24 132.97 L 257.06 132.97 L 261.88 132.97 L 266.71 132.97 L 271.53 132.97 L 276.35 132.97 L 281.18 132.97 L 286.00 132.97 L 290.82 132.97 L 295.65 132.97 L 300.47 132.97 L 305.29 132.97 L 310.12 132.97 L 314.94 132.97 L 319.76 132.97 L 324.59 132.97 L 329.41 132.97 L 334.24 132.97 L 339.06 132.97 L 343.88 132.97 L 348.71 132.97 L 353.53 132.97 L 358.35 132.97 L 363.18 132.97 L 368.00 132.97 L 372.82 132.97 L 377.65 132.97 L 382.47 132.97 L 387.29 132.97 L 392.12 132.97 L 396.94 132.97 L 401.76 132.97 L 406.59 132.97 L 411.41 132.97 L 416.24 132.97 L 421.06 132.97 L 425.88 132.97 L 430.71 132.97 L 435.53 132.97 L 440.35 132.97 L 445.18 132.97 L 450.00 132.97 L 454.82 132.97 L 459.65 132.97 L 464.47 132.97 L 469.29 132.97 L 474.12 132.97 L 478.94 132.97 L 483.76 132.97 L 488.59 132.97 L 493.41 132.97 L 498.24 132.97 L 503.06 132.97 L 507.88 132.97 L 512.71 132.97 L 517.53 132.97 L 522.35 132.97 L 527.18 132.97 L 532.00 132.97 L 536.82 132.97 L 541.65 132.97 L 546.47 132.97 L 551.29 132.97 L 556.12 132.97 L 560.94 132.97 L 565.76 132.97 L 570.59 132.97 L 575.41 132.97 L 580.24 132.97 L 585.06 132.97 L 589.88 132.97 L 594.71 132.97 L 599.53 132.97 L 604.35 132.97 L 609.18 132.97 L 614.00 132.97 L 618.82 132.97 L 623.65 132.97 L 628.47 132.97 L 633.29 132.97 L 638.12 132.97 L 642.94 132.97 L 647.76 132.97 L 652.59 132.97 L 657.41 132.97 L 662.24 132.97 L 667.06 132.97 L 671.88 132.97 L 676.71 132.97 L 681.53 132.97 L 686.35 132.97 L 691.18 132.97 L 696.00 132.97 L 700.82 132.97 L 705.65 132.97 L 710.47 132.97 L 715.29 132.97 L 720.12 132.97 L 724.94 132.97 L 729.76 132.97 L 734.59 132.97 L 739.41 132.97 L 744.24 132.97 L 749.06 132.97 L 753.88 132.97 L 758.71 132.97 L 763.53 132.97 L 768.35 132.97 L 773.18 132.97 L 778.00 124.51 L 782.82 120.64 L 787.65 116.77 L 792.47 112.90 L 797.29 109.03 L 802.12 105.97 L 806.94 105.97 L 811.76 105.97 L 816.59 105.97 L 821.41 105.97 L 826.24 105.79 L 831.06 103.09 L 835.88 98.41 L 840.71 98.41 L 845.53 98.41 L 850.35 98.41 L 855.18 98.41 L 860.00 98.41" fill="none" stroke="#3fb950" stroke-width="2"/>
    <circle cx="860.00" cy="98.41" r="3" fill="#3fb950"/>
    <text x="40.00" y="235.00" font-size="9" fill="#c9d1d9" text-anchor="middle" transform="rotate(-45 40.00 235.00)">09.08.2025</text><text x="122.00" y="235.00" font-size="9" fill="#c9d1d9" text-anchor="middle" transform="rotate(-45 122.00 235.00)">09.08.2025</text><text x="204.00" y="235.00" font-size="9" fill="#c9d1d9" text-anchor="middle" transform="rotate(-45 204.00 235.00)">13.08.2025</text><text x="286.00" y="235.00" font-size="9" fill="#c9d1d9" text-anchor="middle" transform="rotate(-45 286.00 235.00)">27.08.2025</text><text x="368.00" y="235.00" font-size="9" fill="#c9d1d9" text-anchor="middle" transform="rotate(-45 368.00 235.00)">11.09.2025</text><text x="450.00" y="235.00" font-size="9" fill="#c9d1d9" text-anchor="middle" transform="rotate(-45 450.00 235.00)">28.09.2025</text><text x="532.00" y="235.00" font-size="9" fill="#c9d1d9" text-anchor="middle" transform="rotate(-45 532.00 235.00)">15.10.2025</text><text x="614.00" y="235.00" font-size="9" fill="#c9d1d9" text-anchor="middle" transform="rotate(-45 614.00 235.00)">01.11.2025</text><text x="696.00" y="235.00" font-size="9" fill="#c9d1d9" text-anchor="middle" transform="rotate(-45 696.00 235.00)">18.11.2025</text><text x="778.00" y="235.00" font-size="9" fill="#c9d1d9" text-anchor="middle" transform="rotate(-45 778.00 235.00)">04.12.2025</text><text x="860.00" y="235.00" font-size="9" fill="#c9d1d9" text-anchor="middle" transform="rotate(-45 860.00 235.00)">12.12.2025</text>
  </g>
</svg>