<svg xmlns="http://www.w3.org/2000/svg" width="900" height="290" style="font-family: -apple-system, BlinkMacSystemFont, 'Segoe UI', Helvetica, Arial, sans-serif;">
  <rect width="100%" height="100%" fill="white"/>
  <g>
    <line x1="40" y1="220.00" x2="860" y2="220.00" stroke="#e5e7eb"/><text x="32" y="224.00" font-size="10" fill="#111827" text-anchor="end">0</text><line x1="40" y1="175.00" x2="860" y2="175.00" stroke="#e5e7eb"/><text x="32" y="179.00" font-size="10" fill="#111827" text-anchor="end">500</text><line x1="40" y1="130.00" x2="860" y2="130.00" stroke="#e5e7eb"/><text x="32" y="134.00" font-size="10" fill="#111827" text-anchor="end">1k</text><line x1="40" y1="85.00" x2="860" y2="85.00" stroke="#e5e7eb"/><text x="32" y="89.00" font-size="10" fill="#111827" text-anchor="end">1.5k</text><line x1="40" y1="40.00" x2="860" y2="40.00" stroke="#e5e7eb"/><text x="32" y="44.00" font-size="10" fill="#111827" text-anchor="end">2k</text>
    <line x1="40.00" y1="40" x2="40.00" y2="220" stroke="#e5e7eb" opacity="0.5"/><line x1="120.00" y1="40" x2="120.00" y2="220" stroke="#e5e7eb" opacity="0.5"/><line x1="200.00" y1="40" x2="200.00" y2="220" stroke="#e5e7eb" opacity="0.5"/><line x1="280.00" y1="40" x2="280.00" y2="220" stroke="#e5e7eb" opacity="0.5"/><line x1="360.00" y1="40" x2="360.00" y2="220" stroke="#e5e7eb" opacity="0.5"/><line x1="440.00" y1="40" x2="440.00" y2="220" stroke="#e5e7eb" opacity="0.5"/><line x1="520.00" y1="40" x2="520.00" y2="220" stroke="#e5e7eb" opacity="0.5"/><line x1="600.00" y1="40" x2="600.00" y2="220" stroke="#e5e7eb" opacity="0.5"/><line x1="680.00" y1="40" x2="680.00" y2="220" stroke="#e5e7eb" opacity="0.5"/><line x1="760.00" y1="40" x2="760.00" y2="220" stroke="#e5e7eb" opacity="0.5"/><line x1="840.00" y1="40" x2="840.00" y2="220" stroke="#e5e7eb" opacity="0.5"/>
    <line x1="40" y1="220" x2="860" y2="220" stroke="#9ca3af"/>
    <line x1="40" y1="40"   x2="40"   y2="220" stroke="#9ca3af"/>
    <path d="M 40.00 219.82 L 46.67 214.15 L 53.33 214.06 L 60.00 214.06 L 66.67 213.25 L 73.33 213.25 L 80.00 204.88 L 86.67 185.98 L 93.33 185.98 L 100.00 180.94 L 106.67 152.59 L 113.33 159.97 L 120.00 158.89 L 126.67 158.17 L 133.33 139.63 L 140.00 139.63 L 146.67 157.18 L 153.33 154.66 L 160.00 154.39 L 166.67 151.60 L 173.33 150.97 L 180.00 150.70 L 186.67 149.80 L 193.33 149.80 L 200.00 147.46 L 206.67 144.94 L 213.33 144.76 L 220.00 140.71 L 226.67 134.23 L 233.33 134.23 L 240.00 133.69 L 246.67 133.69 L 253.33 133.69 L 260.00 133.69 L 266.67 133.69 L 273.33 133.69 L 280.00 132.97 L 286.67 132.97 L 293.33 132.97 L 300.00 132.97 L 306.67 132.97 L 313.33 132.97 L 320.00 132.97 L 326.67 132.97 L 333.33 132.97 L 340.00 132.97 L 346.67 132.97 L 353.33 132.97 L 360.00 132.97 L 366.67 132.97 L 373.33 132.97 L 380.00 132.97 L 386.67 132.97 L 393.33 132.97 L 400.00 132.97 L 406.67 132.97 L 413.33 132.97 L 420.00 132.97 L 426.67 132.97 L 433.33 132.97 L 440.00 132.97 L 446.67 132.97 L 453.33 132.97 L 460.00 132.97 L 466.67 132.97 L 473.33 132.97 L 480.00 132.97 L 486.67 132.97 L 493.33 132.97 L 500.00 132.97 L 506.67 132.97 L 513.33 132.97 L 520.00 132.97 L 526.67 132.97 L 533.33 132.97 L 540.00 132.97 L 546.67 132.97 L 553.33 132.97 L 560.00 132.97 L 566.67 132.97 L 573.33 132.97 L 580.00 132.97 L 586.67 132.97 L 593.33 132.97 L 600.00 132.97 L 606.67 132.97 L 613.33 132.97 L 620.00 132.97 L 626.67 132.97 L 633.33 132.97 L 640.00 132.97 L 646.67 132.97 L 653.33 132.97 L 660.00 132.97 L 666.67 132.97 L 673.33 132.97 L 680.00 132.97 L 686.67 132.97 L 693.33 132.97 L 700.00 132.97 L 706.67 132.97 L 713.33 132.97 L 720.00 132.97 L 726.67 132.97 L 733.33 132.97 L 740.00 132.97 L 746.67 132.97 L 753.33 132.97 L 760.00 132.97 L 766.67 132.97 L 773.33 132.97 L 780.00 132.97 L 786.67 132.97 L 793.33 132.97 L 800.00 132.97 L 806.67 132.97 L 813.33 132.97 L 820.00 132.97 L 826.67 132.97 L 833.33 132.97 L 840.00 132.97 L 846.67 132.97 L 853.33 132.97 L 860.00 132.97" fill="none" stroke="#111827" stroke-width="2"/>
    <circle cx="860.00" cy="132.97" r="3" fill="#111827"/>
    <text x="40.00" y="235.00" font-size="9" fill="#111827" text-anchor="middle" transform="rotate(-45 40.00 235.00)">09.08.2025</text><text x="120.00" y="235.00" font-size="9" fill="#111827" text-anchor="middle" transform="rotate(-45 120.00 235.00)">09.08.2025</text><text x="200.00" y="235.00" font-size="9" fill="#111827" text-anchor="middle" transform="rotate(-45 200.00 235.00)">09.08.2025</text><text x="280.00" y="235.00" font-size="9" fill="#111827" text-anchor="middle" transform="rotate(-45 280.00 235.00)">13.08.2025</text><text x="360.00" y="235.00" font-size="9" fill="#111827" text-anchor="middle" transform="rotate(-45 360.00 235.00)">24.08.2025</text><text x="440.00" y="235.00" font-size="9" fill="#111827" text-anchor="middle" transform="rotate(-45 440.00 235.00)">03.09.2025</text><text x="520.00" y="235.00" font-size="9" fill="#111827" text-anchor="middle" transform="rotate(-45 520.00 235.00)">15.09.2025</text><text x="600.00" y="235.00" font-size="9" fill="#111827" text-anchor="middle" transform="rotate(-45 600.00 235.00)">27.09.2025</text><text x="680.00" y="235.00" font-size="9" fill="#111827" text-anchor="middle" transform="rotate(-45 680.00 235.00)">09.10.2025</text><text x="760.00" y="235.00" font-size="9" fill="#111827" text-anchor="middle" transform="rotate(-45 760.00 235.00)">21.10.2025</text><text x="840.00" y="235.00" font-size="9" fill="#111827" text-anchor="middle" transform="rotate(-45 840.00 235.00)">02.11.2025</text>
  </g>
</svg>