<svg xmlns="http://www.w3.org/2000/svg" width="900" height="290" style="font-family: -apple-system, BlinkMacSystemFont, 'Segoe UI', Helvetica, Arial, sans-serif;">
  <rect width="100%" height="100%" fill="#0d1117"/>
  <g>
    <line x1="40" y1="220.00" x2="860" y2="220.00" stroke="#30363d"/><text x="32" y="224.00" font-size="10" fill="#c9d1d9" text-anchor="end">0</text><line x1="40" y1="175.00" x2="860" y2="175.00" stroke="#30363d"/><text x="32" y="179.00" font-size="10" fill="#c9d1d9" text-anchor="end">500</text><line x1="40" y1="130.00" x2="860" y2="130.00" stroke="#30363d"/><text x="32" y="134.00" font-size="10" fill="#c9d1d9" text-anchor="end">1k</text><line x1="40" y1="85.00" x2="860" y2="85.00" stroke="#30363d"/><text x="32" y="89.00" font-size="10" fill="#c9d1d9" text-anchor="end">1.5k</text><line x1="40" y1="40.00" x2="860" y2="40.00" stroke="#30363d"/><text x="32" y="44.00" font-size="10" fill="#c9d1d9" text-anchor="end">2k</text>
    <line x1="40.00" y1="40" x2="40.00" y2="220" stroke="#30363d" opacity="0.5"/><line x1="122.00" y1="40" x2="122.00" y2="220" stroke="#30363d" opacity="0.5"/><line x1="204.00" y1="40" x2="204.00" y2="220" stroke="#30363d" opacity="0.5"/><line x1="286.00" y1="40" x2="286.00" y2="220" stroke="#30363d" opacity="0.5"/><line x1="368.00" y1="40" x2="368.00" y2="220" stroke="#30363d" opacity="0.5"/><line x1="450.00" y1="40" x2="450.00" y2="220" stroke="#30363d" opacity="0.5"/><line x1="532.00" y1="40" x2="532.00" y2="220" stroke="#30363d" opacity="0.5"/><line x1="614.00" y1="40" x2="614.00" y2="220" stroke="#30363d" opacity="0.5"/><line x1="696.00" y1="40" x2="696.00" y2="220" stroke="#30363d" opacity="0.5"/><line x1="778.00" y1="40" x2="778.00" y2="220" stroke="#30363d" opacity="0.5"/><line x1="860.00" y1="40" x2="860.00" y2="220" stroke="#30363d" opacity="0.5"/>
    <line x1="40" y1="220" x2="860" y2="220" stroke="#30363d"/>
    <line x1="40" y1="40"   x2="40"   y2="220" stroke="#30363d"/>
    <path d="M 40.00 219.82 L 44.32 214.15 L 48.63 214.06 L 52.95 214.06 L 57.26 213.25 L 61.58 213.25 L 65.89 204.88 L 70.21 185.98 L 74.53 185.98 L 78.84 180.94 L 83.16 152.59 L 87.47 159.97 L 91.79 158.89 L 96.11 158.17 L 100.42 139.63 L 104.74 139.63 L 109.05 157.18 L 113.37 154.66 L 117.68 154.39 L 122.00 151.60 L 126.32 150.97 L 130.63 150.70 L 134.95 149.80 L 139.26 149.80 L 143.58 147.46 L 147.89 144.94 L 152.21 144.76 L 156.53 140.71 L 160.84 134.23 L 165.16 134.23 L 169.47 133.69 L 173.79 133.69 L 178.11 133.69 L 182.42 133.69 L 186.74 133.69 L 191.05 133.69 L 195.37 132.97 L 199.68 132.97 L 204.00 132.97 L 208.32 132.97 L 212.63 132.97 L 216.95 132.97 L 221.26 132.97 L 225.58 132.97 L 229.89 132.97 L 234.21 132.97 L 238.53 132.97 L 242.84 132.97 L 247.16 132.97 L 251.47 132.97 L 255.79 132.97 L 260.11 132.97 L 264.42 132.97 L 268.74 132.97 L 273.05 132.97 L 277.37 132.97 L 281.68 132.97 L 286.00 132.97 L 290.32 132.97 L 294.63 132.97 L 298.95 132.97 L 303.26 132.97 L 307.58 132.97 L 311.89 132.97 L 316.21 132.97 L 320.53 132.97 L 324.84 132.97 L 329.16 132.97 L 333.47 132.97 L 337.79 132.97 L 342.11 132.97 L 346.42 132.97 L 350.74 132.97 L 355.05 132.97 L 359.37 132.97 L 363.68 132.97 L 368.00 132.97 L 372.32 132.97 L 376.63 132.97 L 380.95 132.97 L 385.26 132.97 L 389.58 132.97 L 393.89 132.97 L 398.21 132.97 L 402.53 132.97 L 406.84 132.97 L 411.16 132.97 L 415.47 132.97 L 419.79 132.97 L 424.11 132.97 L 428.42 132.97 L 432.74 132.97 L 437.05 132.97 L 441.37 132.97 L 445.68 132.97 L 450.00 132.97 L 454.32 132.97 L 458.63 132.97 L 462.95 132.97 L 467.26 132.97 L 471.58 132.97 L 475.89 132.97 L 480.21 132.97 L 484.53 132.97 L 488.84 132.97 L 493.16 132.97 L 497.47 132.97 L 501.79 132.97 L 506.11 132.97 L 510.42 132.97 L 514.74 132.97 L 519.05 132.97 L 523.37 132.97 L 527.68 132.97 L 532.00 132.97 L 536.32 132.97 L 540.63 132.97 L 544.95 132.97 L 549.26 132.97 L 553.58 132.97 L 557.89 132.97 L 562.21 132.97 L 566.53 132.97 L 570.84 132.97 L 575.16 132.97 L 579.47 132.97 L 583.79 132.97 L 588.11 132.97 L 592.42 132.97 L 596.74 132.97 L 601.05 132.97 L 605.37 132.97 L 609.68 132.97 L 614.00 132.97 L 618.32 132.97 L 622.63 132.97 L 626.95 132.97 L 631.26 132.97 L 635.58 132.97 L 639.89 132.97 L 644.21 132.97 L 648.53 132.97 L 652.84 132.97 L 657.16 132.97 L 661.47 132.97 L 665.79 132.97 L 670.11 132.97 L 674.42 132.97 L 678.74 132.97 L 683.05 132.97 L 687.37 132.97 L 691.68 132.97 L 696.00 132.97 L 700.32 124.51 L 704.63 120.64 L 708.95 116.77 L 713.26 112.90 L 717.58 109.03 L 721.89 105.97 L 726.21 105.97 L 730.53 105.97 L 734.84 105.97 L 739.16 105.97 L 743.47 105.79 L 747.79 103.09 L 752.11 98.41 L 756.42 98.41 L 760.74 98.41 L 765.05 98.41 L 769.37 98.41 L 773.68 98.41 L 778.00 98.41 L 782.32 98.41 L 786.63 98.41 L 790.95 98.41 L 795.26 98.41 L 799.58 98.41 L 803.89 98.41 L 808.21 98.41 L 812.53 98.41 L 816.84 98.41 L 821.16 98.41 L 825.47 98.41 L 829.79 98.41 L 834.11 98.41 L 838.42 98.41 L 842.74 98.41 L 847.05 98.41 L 851.37 98.41 L 855.68 98.41 L 860.00 98.41" fill="none" stroke="#3fb950" stroke-width="2"/>
    <circle cx="860.00" cy="98.41" r="3" fill="#3fb950"/>
    <text x="40.00" y="235.00" font-size="9" fill="#c9d1d9" text-anchor="middle" transform="rotate(-45 40.00 235.00)">09.08.2025</text><text x="122.00" y="235.00" font-size="9" fill="#c9d1d9" text-anchor="middle" transform="rotate(-45 122.00 235.00)">09.08.2025</text><text x="204.00" y="235.00" font-size="9" fill="#c9d1d9" text-anchor="middle" transform="rotate(-45 204.00 235.00)">14.08.2025</text><text x="286.00" y="235.00" font-size="9" fill="#c9d1d9" text-anchor="middle" transform="rotate(-45 286.00 235.00)">31.08.2025</text><text x="368.00" y="235.00" font-size="9" fill="#c9d1d9" text-anchor="middle" transform="rotate(-45 368.00 235.00)">19.09.2025</text><text x="450.00" y="235.00" font-size="9" fill="#c9d1d9" text-anchor="middle" transform="rotate(-45 450.00 235.00)">08.10.2025</text><text x="532.00" y="235.00" font-size="9" fill="#c9d1d9" text-anchor="middle" transform="rotate(-45 532.00 235.00)">27.10.2025</text><text x="614.00" y="235.00" font-size="9" fill="#c9d1d9" text-anchor="middle" transform="rotate(-45 614.00 235.00)">15.11.2025</text><text x="696.00" y="235.00" font-size="9" fill="#c9d1d9" text-anchor="middle" transform="rotate(-45 696.00 235.00)">04.12.2025</text><text x="778.00" y="235.00" font-size="9" fill="#c9d1d9" text-anchor="middle" transform="rotate(-45 778.00 235.00)">13.12.2025</text><text x="860.00" y="235.00" font-size="9" fill="#c9d1d9" text-anchor="middle" transform="rotate(-45 860.00 235.00)">01.01.2026</text>
  </g>
</svg>