<svg xmlns="http://www.w3.org/2000/svg" width="900" height="290" style="font-family: -apple-system, BlinkMacSystemFont, 'Segoe UI', Helvetica, Arial, sans-serif;">
  <rect width="100%" height="100%" fill="white"/>
  <g>
    <line x1="40" y1="220.00" x2="860" y2="220.00" stroke="#e5e7eb"/><text x="32" y="224.00" font-size="10" fill="#111827" text-anchor="end">0</text><line x1="40" y1="175.00" x2="860" y2="175.00" stroke="#e5e7eb"/><text x="32" y="179.00" font-size="10" fill="#111827" text-anchor="end">500</text><line x1="40" y1="130.00" x2="860" y2="130.00" stroke="#e5e7eb"/><text x="32" y="134.00" font-size="10" fill="#111827" text-anchor="end">1k</text><line x1="40" y1="85.00" x2="860" y2="85.00" stroke="#e5e7eb"/><text x="32" y="89.00" font-size="10" fill="#111827" text-anchor="end">1.5k</text><line x1="40" y1="40.00" x2="860" y2="40.00" stroke="#e5e7eb"/><text x="32" y="44.00" font-size="10" fill="#111827" text-anchor="end">2k</text>
    <line x1="40.00" y1="40" x2="40.00" y2="220" stroke="#e5e7eb" opacity="0.5"/><line x1="119.35" y1="40" x2="119.35" y2="220" stroke="#e5e7eb" opacity="0.5"/><line x1="198.71" y1="40" x2="198.71" y2="220" stroke="#e5e7eb" opacity="0.5"/><line x1="278.06" y1="40" x2="278.06" y2="220" stroke="#e5e7eb" opacity="0.5"/><line x1="357.42" y1="40" x2="357.42" y2="220" stroke="#e5e7eb" opacity="0.5"/><line x1="436.77" y1="40" x2="436.77" y2="220" stroke="#e5e7eb" opacity="0.5"/><line x1="516.13" y1="40" x2="516.13" y2="220" stroke="#e5e7eb" opacity="0.5"/><line x1="595.48" y1="40" x2="595.48" y2="220" stroke="#e5e7eb" opacity="0.5"/><line x1="674.84" y1="40" x2="674.84" y2="220" stroke="#e5e7eb" opacity="0.5"/><line x1="754.19" y1="40" x2="754.19" y2="220" stroke="#e5e7eb" opacity="0.5"/><line x1="833.55" y1="40" x2="833.55" y2="220" stroke="#e5e7eb" opacity="0.5"/>
    <line x1="40" y1="220" x2="860" y2="220" stroke="#9ca3af"/>
    <line x1="40" y1="40"   x2="40"   y2="220" stroke="#9ca3af"/>
    <path d="M 40.00 219.82 L 46.61 214.15 L 53.23 214.06 L 59.84 214.06 L 66.45 213.25 L 73.06 213.25 L 79.68 204.88 L 86.29 185.98 L 92.90 185.98 L 99.52 180.94 L 106.13 152.59 L 112.74 159.97 L 119.35 158.89 L 125.97 158.17 L 132.58 139.63 L 139.19 139.63 L 145.81 157.18 L 152.42 154.66 L 159.03 154.39 L 165.65 151.60 L 172.26 150.97 L 178.87 150.70 L 185.48 149.80 L 192.10 149.80 L 198.71 147.46 L 205.32 144.94 L 211.94 144.76 L 218.55 140.71 L 225.16 134.23 L 231.77 134.23 L 238.39 133.69 L 245.00 133.69 L 251.61 133.69 L 258.23 133.69 L 264.84 133.69 L 271.45 133.69 L 278.06 132.97 L 284.68 132.97 L 291.29 132.97 L 297.90 132.97 L 304.52 132.97 L 311.13 132.97 L 317.74 132.97 L 324.35 132.97 L 330.97 132.97 L 337.58 132.97 L 344.19 132.97 L 350.81 132.97 L 357.42 132.97 L 364.03 132.97 L 370.65 132.97 L 377.26 132.97 L 383.87 132.97 L 390.48 132.97 L 397.10 132.97 L 403.71 132.97 L 410.32 132.97 L 416.94 132.97 L 423.55 132.97 L 430.16 132.97 L 436.77 132.97 L 443.39 132.97 L 450.00 132.97 L 456.61 132.97 L 463.23 132.97 L 469.84 132.97 L 476.45 132.97 L 483.06 132.97 L 489.68 132.97 L 496.29 132.97 L 502.90 132.97 L 509.52 132.97 L 516.13 132.97 L 522.74 132.97 L 529.35 132.97 L 535.97 132.97 L 542.58 132.97 L 549.19 132.97 L 555.81 132.97 L 562.42 132.97 L 569.03 132.97 L 575.65 132.97 L 582.26 132.97 L 588.87 132.97 L 595.48 132.97 L 602.10 132.97 L 608.71 132.97 L 615.32 132.97 L 621.94 132.97 L 628.55 132.97 L 635.16 132.97 L 641.77 132.97 L 648.39 132.97 L 655.00 132.97 L 661.61 132.97 L 668.23 132.97 L 674.84 132.97 L 681.45 132.97 L 688.06 132.97 L 694.68 132.97 L 701.29 132.97 L 707.90 132.97 L 714.52 132.97 L 721.13 132.97 L 727.74 132.97 L 734.35 132.97 L 740.97 132.97 L 747.58 132.97 L 754.19 132.97 L 760.81 132.97 L 767.42 132.97 L 774.03 132.97 L 780.65 132.97 L 787.26 132.97 L 793.87 132.97 L 800.48 132.97 L 807.10 132.97 L 813.71 132.97 L 820.32 132.97 L 826.94 132.97 L 833.55 132.97 L 840.16 132.97 L 846.77 132.97 L 853.39 132.97 L 860.00 132.97" fill="none" stroke="#111827" stroke-width="2"/>
    <circle cx="860.00" cy="132.97" r="3" fill="#111827"/>
    <text x="40.00" y="235.00" font-size="9" fill="#111827" text-anchor="middle" transform="rotate(-45 40.00 235.00)">09.08.2025</text><text x="119.35" y="235.00" font-size="9" fill="#111827" text-anchor="middle" transform="rotate(-45 119.35 235.00)">09.08.2025</text><text x="198.71" y="235.00" font-size="9" fill="#111827" text-anchor="middle" transform="rotate(-45 198.71 235.00)">09.08.2025</text><text x="278.06" y="235.00" font-size="9" fill="#111827" text-anchor="middle" transform="rotate(-45 278.06 235.00)">13.08.2025</text><text x="357.42" y="235.00" font-size="9" fill="#111827" text-anchor="middle" transform="rotate(-45 357.42 235.00)">24.08.2025</text><text x="436.77" y="235.00" font-size="9" fill="#111827" text-anchor="middle" transform="rotate(-45 436.77 235.00)">03.09.2025</text><text x="516.13" y="235.00" font-size="9" fill="#111827" text-anchor="middle" transform="rotate(-45 516.13 235.00)">15.09.2025</text><text x="595.48" y="235.00" font-size="9" fill="#111827" text-anchor="middle" transform="rotate(-45 595.48 235.00)">27.09.2025</text><text x="674.84" y="235.00" font-size="9" fill="#111827" text-anchor="middle" transform="rotate(-45 674.84 235.00)">09.10.2025</text><text x="754.19" y="235.00" font-size="9" fill="#111827" text-anchor="middle" transform="rotate(-45 754.19 235.00)">21.10.2025</text><text x="833.55" y="235.00" font-size="9" fill="#111827" text-anchor="middle" transform="rotate(-45 833.55 235.00)">02.11.2025</text>
  </g>
</svg>