<svg xmlns="http://www.w3.org/2000/svg" width="900" height="290" style="font-family: -apple-system, BlinkMacSystemFont, 'Segoe UI', Helvetica, Arial, sans-serif;">
  <rect width="100%" height="100%" fill="white"/>
  <g>
    <line x1="40" y1="220.00" x2="860" y2="220.00" stroke="#e5e7eb"/><text x="32" y="224.00" font-size="10" fill="#111827" text-anchor="end">0</text><line x1="40" y1="175.00" x2="860" y2="175.00" stroke="#e5e7eb"/><text x="32" y="179.00" font-size="10" fill="#111827" text-anchor="end">500</text><line x1="40" y1="130.00" x2="860" y2="130.00" stroke="#e5e7eb"/><text x="32" y="134.00" font-size="10" fill="#111827" text-anchor="end">1k</text><line x1="40" y1="85.00" x2="860" y2="85.00" stroke="#e5e7eb"/><text x="32" y="89.00" font-size="10" fill="#111827" text-anchor="end">1.5k</text><line x1="40" y1="40.00" x2="860" y2="40.00" stroke="#e5e7eb"/><text x="32" y="44.00" font-size="10" fill="#111827" text-anchor="end">2k</text>
    <line x1="40.00" y1="40" x2="40.00" y2="220" stroke="#e5e7eb" opacity="0.5"/><line x1="122.92" y1="40" x2="122.92" y2="220" stroke="#e5e7eb" opacity="0.5"/><line x1="205.84" y1="40" x2="205.84" y2="220" stroke="#e5e7eb" opacity="0.5"/><line x1="288.76" y1="40" x2="288.76" y2="220" stroke="#e5e7eb" opacity="0.5"/><line x1="371.69" y1="40" x2="371.69" y2="220" stroke="#e5e7eb" opacity="0.5"/><line x1="454.61" y1="40" x2="454.61" y2="220" stroke="#e5e7eb" opacity="0.5"/><line x1="537.53" y1="40" x2="537.53" y2="220" stroke="#e5e7eb" opacity="0.5"/><line x1="620.45" y1="40" x2="620.45" y2="220" stroke="#e5e7eb" opacity="0.5"/><line x1="703.37" y1="40" x2="703.37" y2="220" stroke="#e5e7eb" opacity="0.5"/><line x1="786.29" y1="40" x2="786.29" y2="220" stroke="#e5e7eb" opacity="0.5"/>
    <line x1="40" y1="220" x2="860" y2="220" stroke="#9ca3af"/>
    <line x1="40" y1="40"   x2="40"   y2="220" stroke="#9ca3af"/>
    <path d="M 40.00 219.82 L 49.21 214.15 L 58.43 214.06 L 67.64 214.06 L 76.85 213.25 L 86.07 213.25 L 95.28 204.88 L 104.49 185.98 L 113.71 185.98 L 122.92 180.94 L 132.13 152.59 L 141.35 159.97 L 150.56 158.89 L 159.78 158.17 L 168.99 139.63 L 178.20 139.63 L 187.42 157.18 L 196.63 154.66 L 205.84 154.39 L 215.06 151.60 L 224.27 150.97 L 233.48 150.70 L 242.70 149.80 L 251.91 149.80 L 261.12 147.46 L 270.34 144.94 L 279.55 144.76 L 288.76 140.71 L 297.98 134.23 L 307.19 134.23 L 316.40 133.69 L 325.62 133.69 L 334.83 133.69 L 344.04 133.69 L 353.26 133.69 L 362.47 133.69 L 371.69 132.97 L 380.90 132.97 L 390.11 132.97 L 399.33 132.97 L 408.54 132.97 L 417.75 132.97 L 426.97 132.97 L 436.18 132.97 L 445.39 132.97 L 454.61 132.97 L 463.82 132.97 L 473.03 132.97 L 482.25 132.97 L 491.46 132.97 L 500.67 132.97 L 509.89 132.97 L 519.10 132.97 L 528.31 132.97 L 537.53 132.97 L 546.74 132.97 L 555.96 132.97 L 565.17 132.97 L 574.38 132.97 L 583.60 132.97 L 592.81 132.97 L 602.02 132.97 L 611.24 132.97 L 620.45 132.97 L 629.66 132.97 L 638.88 132.97 L 648.09 132.97 L 657.30 132.97 L 666.52 132.97 L 675.73 132.97 L 684.94 132.97 L 694.16 132.97 L 703.37 132.97 L 712.58 132.97 L 721.80 132.97 L 731.01 132.97 L 740.22 132.97 L 749.44 132.97 L 758.65 132.97 L 767.87 132.97 L 777.08 132.97 L 786.29 132.97 L 795.51 132.97 L 804.72 132.97 L 813.93 132.97 L 823.15 132.97 L 832.36 132.97 L 841.57 132.97 L 850.79 132.97 L 860.00 132.97" fill="none" stroke="#111827" stroke-width="2"/>
    <circle cx="860.00" cy="132.97" r="3" fill="#111827"/>
    <text x="40.00" y="235.00" font-size="9" fill="#111827" text-anchor="middle" transform="rotate(-45 40.00 235.00)">09.08.2025</text><text x="122.92" y="235.00" font-size="9" fill="#111827" text-anchor="middle" transform="rotate(-45 122.92 235.00)">09.08.2025</text><text x="205.84" y="235.00" font-size="9" fill="#111827" text-anchor="middle" transform="rotate(-45 205.84 235.00)">09.08.2025</text><text x="288.76" y="235.00" font-size="9" fill="#111827" text-anchor="middle" transform="rotate(-45 288.76 235.00)">13.08.2025</text><text x="371.69" y="235.00" font-size="9" fill="#111827" text-anchor="middle" transform="rotate(-45 371.69 235.00)">13.08.2025</text><text x="454.61" y="235.00" font-size="9" fill="#111827" text-anchor="middle" transform="rotate(-45 454.61 235.00)">21.08.2025</text><text x="537.53" y="235.00" font-size="9" fill="#111827" text-anchor="middle" transform="rotate(-45 537.53 235.00)">28.08.2025</text><text x="620.45" y="235.00" font-size="9" fill="#111827" text-anchor="middle" transform="rotate(-45 620.45 235.00)">06.09.2025</text><text x="703.37" y="235.00" font-size="9" fill="#111827" text-anchor="middle" transform="rotate(-45 703.37 235.00)">15.09.2025</text><text x="786.29" y="235.00" font-size="9" fill="#111827" text-anchor="middle" transform="rotate(-45 786.29 235.00)">24.09.2025</text>
  </g>
</svg>