<svg xmlns="http://www.w3.org/2000/svg" width="900" height="290" style="font-family: -apple-system, BlinkMacSystemFont, 'Segoe UI', Helvetica, Arial, sans-serif;">
  <rect width="100%" height="100%" fill="#0d1117"/>
  <g>
    <line x1="40" y1="220.00" x2="860" y2="220.00" stroke="#30363d"/><text x="32" y="224.00" font-size="10" fill="#c9d1d9" text-anchor="end">0</text><line x1="40" y1="175.00" x2="860" y2="175.00" stroke="#30363d"/><text x="32" y="179.00" font-size="10" fill="#c9d1d9" text-anchor="end">500</text><line x1="40" y1="130.00" x2="860" y2="130.00" stroke="#30363d"/><text x="32" y="134.00" font-size="10" fill="#c9d1d9" text-anchor="end">1k</text><line x1="40" y1="85.00" x2="860" y2="85.00" stroke="#30363d"/><text x="32" y="89.00" font-size="10" fill="#c9d1d9" text-anchor="end">1.5k</text><line x1="40" y1="40.00" x2="860" y2="40.00" stroke="#30363d"/><text x="32" y="44.00" font-size="10" fill="#c9d1d9" text-anchor="end">2k</text>
    <line x1="40.00" y1="40" x2="40.00" y2="220" stroke="#30363d" opacity="0.5"/><line x1="118.85" y1="40" x2="118.85" y2="220" stroke="#30363d" opacity="0.5"/><line x1="197.69" y1="40" x2="197.69" y2="220" stroke="#30363d" opacity="0.5"/><line x1="276.54" y1="40" x2="276.54" y2="220" stroke="#30363d" opacity="0.5"/><line x1="355.38" y1="40" x2="355.38" y2="220" stroke="#30363d" opacity="0.5"/><line x1="434.23" y1="40" x2="434.23" y2="220" stroke="#30363d" opacity="0.5"/><line x1="513.08" y1="40" x2="513.08" y2="220" stroke="#30363d" opacity="0.5"/><line x1="591.92" y1="40" x2="591.92" y2="220" stroke="#30363d" opacity="0.5"/><line x1="670.77" y1="40" x2="670.77" y2="220" stroke="#30363d" opacity="0.5"/><line x1="749.62" y1="40" x2="749.62" y2="220" stroke="#30363d" opacity="0.5"/><line x1="828.46" y1="40" x2="828.46" y2="220" stroke="#30363d" opacity="0.5"/>
    <line x1="40" y1="220" x2="860" y2="220" stroke="#30363d"/>
    <line x1="40" y1="40"   x2="40"   y2="220" stroke="#30363d"/>
    <path d="M 40.00 219.82 L 47.88 214.15 L 55.77 214.06 L 63.65 214.06 L 71.54 213.25 L 79.42 213.25 L 87.31 204.88 L 95.19 185.98 L 103.08 185.98 L 110.96 180.94 L 118.85 152.59 L 126.73 159.97 L 134.62 158.89 L 142.50 158.17 L 150.38 139.63 L 158.27 139.63 L 166.15 157.18 L 174.04 154.66 L 181.92 154.39 L 189.81 151.60 L 197.69 150.97 L 205.58 150.70 L 213.46 149.80 L 221.35 149.80 L 229.23 147.46 L 237.12 144.94 L 245.00 144.76 L 252.88 140.71 L 260.77 134.23 L 268.65 134.23 L 276.54 133.69 L 284.42 133.69 L 292.31 133.69 L 300.19 133.69 L 308.08 133.69 L 315.96 133.69 L 323.85 132.97 L 331.73 132.97 L 339.62 132.97 L 347.50 132.97 L 355.38 132.97 L 363.27 132.97 L 371.15 132.97 L 379.04 132.97 L 386.92 132.97 L 394.81 132.97 L 402.69 132.97 L 410.58 132.97 L 418.46 132.97 L 426.35 132.97 L 434.23 132.97 L 442.12 132.97 L 450.00 132.97 L 457.88 132.97 L 465.77 132.97 L 473.65 132.97 L 481.54 132.97 L 489.42 132.97 L 497.31 132.97 L 505.19 132.97 L 513.08 132.97 L 520.96 132.97 L 528.85 132.97 L 536.73 132.97 L 544.62 132.97 L 552.50 132.97 L 560.38 132.97 L 568.27 132.97 L 576.15 132.97 L 584.04 132.97 L 591.92 132.97 L 599.81 132.97 L 607.69 132.97 L 615.58 132.97 L 623.46 132.97 L 631.35 132.97 L 639.23 132.97 L 647.12 132.97 L 655.00 132.97 L 662.88 132.97 L 670.77 132.97 L 678.65 132.97 L 686.54 132.97 L 694.42 132.97 L 702.31 132.97 L 710.19 132.97 L 718.08 132.97 L 725.96 132.97 L 733.85 132.97 L 741.73 132.97 L 749.62 132.97 L 757.50 132.97 L 765.38 132.97 L 773.27 132.97 L 781.15 132.97 L 789.04 132.97 L 796.92 132.97 L 804.81 132.97 L 812.69 132.97 L 820.58 132.97 L 828.46 132.97 L 836.35 132.97 L 844.23 132.97 L 852.12 132.97 L 860.00 132.97" fill="none" stroke="#3fb950" stroke-width="2"/>
    <circle cx="860.00" cy="132.97" r="3" fill="#3fb950"/>
    <text x="40.00" y="235.00" font-size="9" fill="#c9d1d9" text-anchor="middle" transform="rotate(-45 40.00 235.00)">09.08.2025</text><text x="118.85" y="235.00" font-size="9" fill="#c9d1d9" text-anchor="middle" transform="rotate(-45 118.85 235.00)">09.08.2025</text><text x="197.69" y="235.00" font-size="9" fill="#c9d1d9" text-anchor="middle" transform="rotate(-45 197.69 235.00)">09.08.2025</text><text x="276.54" y="235.00" font-size="9" fill="#c9d1d9" text-anchor="middle" transform="rotate(-45 276.54 235.00)">13.08.2025</text><text x="355.38" y="235.00" font-size="9" fill="#c9d1d9" text-anchor="middle" transform="rotate(-45 355.38 235.00)">16.08.2025</text><text x="434.23" y="235.00" font-size="9" fill="#c9d1d9" text-anchor="middle" transform="rotate(-45 434.23 235.00)">26.08.2025</text><text x="513.08" y="235.00" font-size="9" fill="#c9d1d9" text-anchor="middle" transform="rotate(-45 513.08 235.00)">03.09.2025</text><text x="591.92" y="235.00" font-size="9" fill="#c9d1d9" text-anchor="middle" transform="rotate(-45 591.92 235.00)">13.09.2025</text><text x="670.77" y="235.00" font-size="9" fill="#c9d1d9" text-anchor="middle" transform="rotate(-45 670.77 235.00)">23.09.2025</text><text x="749.62" y="235.00" font-size="9" fill="#c9d1d9" text-anchor="middle" transform="rotate(-45 749.62 235.00)">03.10.2025</text><text x="828.46" y="235.00" font-size="9" fill="#c9d1d9" text-anchor="middle" transform="rotate(-45 828.46 235.00)">13.10.2025</text>
  </g>
</svg>