<svg xmlns="http://www.w3.org/2000/svg" width="900" height="290" style="font-family: -apple-system, BlinkMacSystemFont, 'Segoe UI', Helvetica, Arial, sans-serif;">
  <rect width="100%" height="100%" fill="#0d1117"/>
  <g>
    <line x1="40" y1="220.00" x2="860" y2="220.00" stroke="#30363d"/><text x="32" y="224.00" font-size="10" fill="#c9d1d9" text-anchor="end">0</text><line x1="40" y1="175.00" x2="860" y2="175.00" stroke="#30363d"/><text x="32" y="179.00" font-size="10" fill="#c9d1d9" text-anchor="end">500</text><line x1="40" y1="130.00" x2="860" y2="130.00" stroke="#30363d"/><text x="32" y="134.00" font-size="10" fill="#c9d1d9" text-anchor="end">1k</text><line x1="40" y1="85.00" x2="860" y2="85.00" stroke="#30363d"/><text x="32" y="89.00" font-size="10" fill="#c9d1d9" text-anchor="end">1.5k</text><line x1="40" y1="40.00" x2="860" y2="40.00" stroke="#30363d"/><text x="32" y="44.00" font-size="10" fill="#c9d1d9" text-anchor="end">2k</text>
    <line x1="40.00" y1="40" x2="40.00" y2="220" stroke="#30363d" opacity="0.5"/><line x1="122.46" y1="40" x2="122.46" y2="220" stroke="#30363d" opacity="0.5"/><line x1="204.92" y1="40" x2="204.92" y2="220" stroke="#30363d" opacity="0.5"/><line x1="287.37" y1="40" x2="287.37" y2="220" stroke="#30363d" opacity="0.5"/><line x1="369.83" y1="40" x2="369.83" y2="220" stroke="#30363d" opacity="0.5"/><line x1="452.29" y1="40" x2="452.29" y2="220" stroke="#30363d" opacity="0.5"/><line x1="534.75" y1="40" x2="534.75" y2="220" stroke="#30363d" opacity="0.5"/><line x1="617.21" y1="40" x2="617.21" y2="220" stroke="#30363d" opacity="0.5"/><line x1="699.66" y1="40" x2="699.66" y2="220" stroke="#30363d" opacity="0.5"/><line x1="782.12" y1="40" x2="782.12" y2="220" stroke="#30363d" opacity="0.5"/>
    <line x1="40" y1="220" x2="860" y2="220" stroke="#30363d"/>
    <line x1="40" y1="40"   x2="40"   y2="220" stroke="#30363d"/>
    <path d="M 40.00 219.82 L 44.58 214.15 L 49.16 214.06 L 53.74 214.06 L 58.32 213.25 L 62.91 213.25 L 67.49 204.88 L 72.07 185.98 L 76.65 185.98 L 81.23 180.94 L 85.81 152.59 L 90.39 159.97 L 94.97 158.89 L 99.55 158.17 L 104.13 139.63 L 108.72 139.63 L 113.30 157.18 L 117.88 154.66 L 122.46 154.39 L 127.04 151.60 L 131.62 150.97 L 136.20 150.70 L 140.78 149.80 L 145.36 149.80 L 149.94 147.46 L 154.53 144.94 L 159.11 144.76 L 163.69 140.71 L 168.27 134.23 L 172.85 134.23 L 177.43 133.69 L 182.01 133.69 L 186.59 133.69 L 191.17 133.69 L 195.75 133.69 L 200.34 133.69 L 204.92 132.97 L 209.50 132.97 L 214.08 132.97 L 218.66 132.97 L 223.24 132.97 L 227.82 132.97 L 232.40 132.97 L 236.98 132.97 L 241.56 132.97 L 246.15 132.97 L 250.73 132.97 L 255.31 132.97 L 259.89 132.97 L 264.47 132.97 L 269.05 132.97 L 273.63 132.97 L 278.21 132.97 L 282.79 132.97 L 287.37 132.97 L 291.96 132.97 L 296.54 132.97 L 301.12 132.97 L 305.70 132.97 L 310.28 132.97 L 314.86 132.97 L 319.44 132.97 L 324.02 132.97 L 328.60 132.97 L 333.18 132.97 L 337.77 132.97 L 342.35 132.97 L 346.93 132.97 L 351.51 132.97 L 356.09 132.97 L 360.67 132.97 L 365.25 132.97 L 369.83 132.97 L 374.41 132.97 L 378.99 132.97 L 383.58 132.97 L 388.16 132.97 L 392.74 132.97 L 397.32 132.97 L 401.90 132.97 L 406.48 132.97 L 411.06 132.97 L 415.64 132.97 L 420.22 132.97 L 424.80 132.97 L 429.39 132.97 L 433.97 132.97 L 438.55 132.97 L 443.13 132.97 L 447.71 132.97 L 452.29 132.97 L 456.87 132.97 L 461.45 132.97 L 466.03 132.97 L 470.61 132.97 L 475.20 132.97 L 479.78 132.97 L 484.36 132.97 L 488.94 132.97 L 493.52 132.97 L 498.10 132.97 L 502.68 132.97 L 507.26 132.97 L 511.84 132.97 L 516.42 132.97 L 521.01 132.97 L 525.59 132.97 L 530.17 132.97 L 534.75 132.97 L 539.33 132.97 L 543.91 132.97 L 548.49 132.97 L 553.07 132.97 L 557.65 132.97 L 562.23 132.97 L 566.82 132.97 L 571.40 132.97 L 575.98 132.97 L 580.56 132.97 L 585.14 132.97 L 589.72 132.97 L 594.30 132.97 L 598.88 132.97 L 603.46 132.97 L 608.04 132.97 L 612.63 132.97 L 617.21 132.97 L 621.79 132.97 L 626.37 132.97 L 630.95 132.97 L 635.53 132.97 L 640.11 132.97 L 644.69 132.97 L 649.27 132.97 L 653.85 132.97 L 658.44 132.97 L 663.02 132.97 L 667.60 132.97 L 672.18 132.97 L 676.76 132.97 L 681.34 132.97 L 685.92 132.97 L 690.50 132.97 L 695.08 132.97 L 699.66 132.97 L 704.25 132.97 L 708.83 132.97 L 713.41 132.97 L 717.99 132.97 L 722.57 132.97 L 727.15 132.97 L 731.73 132.97 L 736.31 132.97 L 740.89 124.51 L 745.47 120.64 L 750.06 116.77 L 754.64 112.90 L 759.22 109.03 L 763.80 105.97 L 768.38 105.97 L 772.96 105.97 L 777.54 105.97 L 782.12 105.97 L 786.70 105.79 L 791.28 103.09 L 795.87 98.41 L 800.45 98.41 L 805.03 98.41 L 809.61 98.41 L 814.19 98.41 L 818.77 98.41 L 823.35 98.41 L 827.93 98.41 L 832.51 98.41 L 837.09 98.41 L 841.68 98.41 L 846.26 98.41 L 850.84 98.41 L 855.42 98.41 L 860.00 98.41" fill="none" stroke="#3fb950" stroke-width="2"/>
    <circle cx="860.00" cy="98.41" r="3" fill="#3fb950"/>
    <text x="40.00" y="235.00" font-size="9" fill="#c9d1d9" text-anchor="middle" transform="rotate(-45 40.00 235.00)">09.08.2025</text><text x="122.46" y="235.00" font-size="9" fill="#c9d1d9" text-anchor="middle" transform="rotate(-45 122.46 235.00)">09.08.2025</text><text x="204.92" y="235.00" font-size="9" fill="#c9d1d9" text-anchor="middle" transform="rotate(-45 204.92 235.00)">13.08.2025</text><text x="287.37" y="235.00" font-size="9" fill="#c9d1d9" text-anchor="middle" transform="rotate(-45 287.37 235.00)">28.08.2025</text><text x="369.83" y="235.00" font-size="9" fill="#c9d1d9" text-anchor="middle" transform="rotate(-45 369.83 235.00)">15.09.2025</text><text x="452.29" y="235.00" font-size="9" fill="#c9d1d9" text-anchor="middle" transform="rotate(-45 452.29 235.00)">03.10.2025</text><text x="534.75" y="235.00" font-size="9" fill="#c9d1d9" text-anchor="middle" transform="rotate(-45 534.75 235.00)">21.10.2025</text><text x="617.21" y="235.00" font-size="9" fill="#c9d1d9" text-anchor="middle" transform="rotate(-45 617.21 235.00)">08.11.2025</text><text x="699.66" y="235.00" font-size="9" fill="#c9d1d9" text-anchor="middle" transform="rotate(-45 699.66 235.00)">26.11.2025</text><text x="782.12" y="235.00" font-size="9" fill="#c9d1d9" text-anchor="middle" transform="rotate(-45 782.12 235.00)">07.12.2025</text>
  </g>
</svg>