<svg xmlns="http://www.w3.org/2000/svg" width="900" height="290" style="font-family: -apple-system, BlinkMacSystemFont, 'Segoe UI', Helvetica, Arial, sans-serif;">
  <rect width="100%" height="100%" fill="white"/>
  <g>
    <line x1="40" y1="220.00" x2="860" y2="220.00" stroke="#e5e7eb"/><text x="32" y="224.00" font-size="10" fill="#111827" text-anchor="end">0</text><line x1="40" y1="175.00" x2="860" y2="175.00" stroke="#e5e7eb"/><text x="32" y="179.00" font-size="10" fill="#111827" text-anchor="end">500</text><line x1="40" y1="130.00" x2="860" y2="130.00" stroke="#e5e7eb"/><text x="32" y="134.00" font-size="10" fill="#111827" text-anchor="end">1k</text><line x1="40" y1="85.00" x2="860" y2="85.00" stroke="#e5e7eb"/><text x="32" y="89.00" font-size="10" fill="#111827" text-anchor="end">1.5k</text><line x1="40" y1="40.00" x2="860" y2="40.00" stroke="#e5e7eb"/><text x="32" y="44.00" font-size="10" fill="#111827" text-anchor="end">2k</text>
    <line x1="40.00" y1="40" x2="40.00" y2="220" stroke="#e5e7eb" opacity="0.5"/><line x1="119.04" y1="40" x2="119.04" y2="220" stroke="#e5e7eb" opacity="0.5"/><line x1="198.07" y1="40" x2="198.07" y2="220" stroke="#e5e7eb" opacity="0.5"/><line x1="277.11" y1="40" x2="277.11" y2="220" stroke="#e5e7eb" opacity="0.5"/><line x1="356.14" y1="40" x2="356.14" y2="220" stroke="#e5e7eb" opacity="0.5"/><line x1="435.18" y1="40" x2="435.18" y2="220" stroke="#e5e7eb" opacity="0.5"/><line x1="514.22" y1="40" x2="514.22" y2="220" stroke="#e5e7eb" opacity="0.5"/><line x1="593.25" y1="40" x2="593.25" y2="220" stroke="#e5e7eb" opacity="0.5"/><line x1="672.29" y1="40" x2="672.29" y2="220" stroke="#e5e7eb" opacity="0.5"/><line x1="751.33" y1="40" x2="751.33" y2="220" stroke="#e5e7eb" opacity="0.5"/><line x1="830.36" y1="40" x2="830.36" y2="220" stroke="#e5e7eb" opacity="0.5"/>
    <line x1="40" y1="220" x2="860" y2="220" stroke="#9ca3af"/>
    <line x1="40" y1="40"   x2="40"   y2="220" stroke="#9ca3af"/>
    <path d="M 40.00 219.82 L 44.94 214.15 L 49.88 214.06 L 54.82 214.06 L 59.76 213.25 L 64.70 213.25 L 69.64 204.88 L 74.58 185.98 L 79.52 185.98 L 84.46 180.94 L 89.40 152.59 L 94.34 159.97 L 99.28 158.89 L 104.22 158.17 L 109.16 139.63 L 114.10 139.63 L 119.04 157.18 L 123.98 154.66 L 128.92 154.39 L 133.86 151.60 L 138.80 150.97 L 143.73 150.70 L 148.67 149.80 L 153.61 149.80 L 158.55 147.46 L 163.49 144.94 L 168.43 144.76 L 173.37 140.71 L 178.31 134.23 L 183.25 134.23 L 188.19 133.69 L 193.13 133.69 L 198.07 133.69 L 203.01 133.69 L 207.95 133.69 L 212.89 133.69 L 217.83 132.97 L 222.77 132.97 L 227.71 132.97 L 232.65 132.97 L 237.59 132.97 L 242.53 132.97 L 247.47 132.97 L 252.41 132.97 L 257.35 132.97 L 262.29 132.97 L 267.23 132.97 L 272.17 132.97 L 277.11 132.97 L 282.05 132.97 L 286.99 132.97 L 291.93 132.97 L 296.87 132.97 L 301.81 132.97 L 306.75 132.97 L 311.69 132.97 L 316.63 132.97 L 321.57 132.97 L 326.51 132.97 L 331.45 132.97 L 336.39 132.97 L 341.33 132.97 L 346.27 132.97 L 351.20 132.97 L 356.14 132.97 L 361.08 132.97 L 366.02 132.97 L 370.96 132.97 L 375.90 132.97 L 380.84 132.97 L 385.78 132.97 L 390.72 132.97 L 395.66 132.97 L 400.60 132.97 L 405.54 132.97 L 410.48 132.97 L 415.42 132.97 L 420.36 132.97 L 425.30 132.97 L 430.24 132.97 L 435.18 132.97 L 440.12 132.97 L 445.06 132.97 L 450.00 132.97 L 454.94 132.97 L 459.88 132.97 L 464.82 132.97 L 469.76 132.97 L 474.70 132.97 L 479.64 132.97 L 484.58 132.97 L 489.52 132.97 L 494.46 132.97 L 499.40 132.97 L 504.34 132.97 L 509.28 132.97 L 514.22 132.97 L 519.16 132.97 L 524.10 132.97 L 529.04 132.97 L 533.98 132.97 L 538.92 132.97 L 543.86 132.97 L 548.80 132.97 L 553.73 132.97 L 558.67 132.97 L 563.61 132.97 L 568.55 132.97 L 573.49 132.97 L 578.43 132.97 L 583.37 132.97 L 588.31 132.97 L 593.25 132.97 L 598.19 132.97 L 603.13 132.97 L 608.07 132.97 L 613.01 132.97 L 617.95 132.97 L 622.89 132.97 L 627.83 132.97 L 632.77 132.97 L 637.71 132.97 L 642.65 132.97 L 647.59 132.97 L 652.53 132.97 L 657.47 132.97 L 662.41 132.97 L 667.35 132.97 L 672.29 132.97 L 677.23 132.97 L 682.17 132.97 L 687.11 132.97 L 692.05 132.97 L 696.99 132.97 L 701.93 132.97 L 706.87 132.97 L 711.81 132.97 L 716.75 132.97 L 721.69 132.97 L 726.63 132.97 L 731.57 132.97 L 736.51 132.97 L 741.45 132.97 L 746.39 132.97 L 751.33 132.97 L 756.27 132.97 L 761.20 132.97 L 766.14 132.97 L 771.08 132.97 L 776.02 132.97 L 780.96 132.97 L 785.90 132.97 L 790.84 132.97 L 795.78 124.51 L 800.72 120.64 L 805.66 116.77 L 810.60 112.90 L 815.54 109.03 L 820.48 105.97 L 825.42 105.97 L 830.36 105.97 L 835.30 105.97 L 840.24 105.97 L 845.18 105.79 L 850.12 103.09 L 855.06 98.41 L 860.00 98.41" fill="none" stroke="#111827" stroke-width="2"/>
    <circle cx="860.00" cy="98.41" r="3" fill="#111827"/>
    <text x="40.00" y="235.00" font-size="9" fill="#111827" text-anchor="middle" transform="rotate(-45 40.00 235.00)">09.08.2025</text><text x="119.04" y="235.00" font-size="9" fill="#111827" text-anchor="middle" transform="rotate(-45 119.04 235.00)">09.08.2025</text><text x="198.07" y="235.00" font-size="9" fill="#111827" text-anchor="middle" transform="rotate(-45 198.07 235.00)">13.08.2025</text><text x="277.11" y="235.00" font-size="9" fill="#111827" text-anchor="middle" transform="rotate(-45 277.11 235.00)">24.08.2025</text><text x="356.14" y="235.00" font-size="9" fill="#111827" text-anchor="middle" transform="rotate(-45 356.14 235.00)">07.09.2025</text><text x="435.18" y="235.00" font-size="9" fill="#111827" text-anchor="middle" transform="rotate(-45 435.18 235.00)">23.09.2025</text><text x="514.22" y="235.00" font-size="9" fill="#111827" text-anchor="middle" transform="rotate(-45 514.22 235.00)">09.10.2025</text><text x="593.25" y="235.00" font-size="9" fill="#111827" text-anchor="middle" transform="rotate(-45 593.25 235.00)">25.10.2025</text><text x="672.29" y="235.00" font-size="9" fill="#111827" text-anchor="middle" transform="rotate(-45 672.29 235.00)">10.11.2025</text><text x="751.33" y="235.00" font-size="9" fill="#111827" text-anchor="middle" transform="rotate(-45 751.33 235.00)">26.11.2025</text><text x="830.36" y="235.00" font-size="9" fill="#111827" text-anchor="middle" transform="rotate(-45 830.36 235.00)">05.12.2025</text>
  </g>
</svg>