<svg xmlns="http://www.w3.org/2000/svg" width="900" height="290" style="font-family: -apple-system, BlinkMacSystemFont, 'Segoe UI', Helvetica, Arial, sans-serif;">
  <rect width="100%" height="100%" fill="#0d1117"/>
  <g>
    <line x1="40" y1="220.00" x2="860" y2="220.00" stroke="#30363d"/><text x="32" y="224.00" font-size="10" fill="#c9d1d9" text-anchor="end">0</text><line x1="40" y1="175.00" x2="860" y2="175.00" stroke="#30363d"/><text x="32" y="179.00" font-size="10" fill="#c9d1d9" text-anchor="end">500</text><line x1="40" y1="130.00" x2="860" y2="130.00" stroke="#30363d"/><text x="32" y="134.00" font-size="10" fill="#c9d1d9" text-anchor="end">1k</text><line x1="40" y1="85.00" x2="860" y2="85.00" stroke="#30363d"/><text x="32" y="89.00" font-size="10" fill="#c9d1d9" text-anchor="end">1.5k</text><line x1="40" y1="40.00" x2="860" y2="40.00" stroke="#30363d"/><text x="32" y="44.00" font-size="10" fill="#c9d1d9" text-anchor="end">2k</text>
    <line x1="40.00" y1="40" x2="40.00" y2="220" stroke="#30363d" opacity="0.5"/><line x1="118.10" y1="40" x2="118.10" y2="220" stroke="#30363d" opacity="0.5"/><line x1="196.19" y1="40" x2="196.19" y2="220" stroke="#30363d" opacity="0.5"/><line x1="274.29" y1="40" x2="274.29" y2="220" stroke="#30363d" opacity="0.5"/><line x1="352.38" y1="40" x2="352.38" y2="220" stroke="#30363d" opacity="0.5"/><line x1="430.48" y1="40" x2="430.48" y2="220" stroke="#30363d" opacity="0.5"/><line x1="508.57" y1="40" x2="508.57" y2="220" stroke="#30363d" opacity="0.5"/><line x1="586.67" y1="40" x2="586.67" y2="220" stroke="#30363d" opacity="0.5"/><line x1="664.76" y1="40" x2="664.76" y2="220" stroke="#30363d" opacity="0.5"/><line x1="742.86" y1="40" x2="742.86" y2="220" stroke="#30363d" opacity="0.5"/><line x1="820.95" y1="40" x2="820.95" y2="220" stroke="#30363d" opacity="0.5"/>
    <line x1="40" y1="220" x2="860" y2="220" stroke="#30363d"/>
    <line x1="40" y1="40"   x2="40"   y2="220" stroke="#30363d"/>
    <path d="M 40.00 219.82 L 46.51 214.15 L 53.02 214.06 L 59.52 214.06 L 66.03 213.25 L 72.54 213.25 L 79.05 204.88 L 85.56 185.98 L 92.06 185.98 L 98.57 180.94 L 105.08 152.59 L 111.59 159.97 L 118.10 158.89 L 124.60 158.17 L 131.11 139.63 L 137.62 139.63 L 144.13 157.18 L 150.63 154.66 L 157.14 154.39 L 163.65 151.60 L 170.16 150.97 L 176.67 150.70 L 183.17 149.80 L 189.68 149.80 L 196.19 147.46 L 202.70 144.94 L 209.21 144.76 L 215.71 140.71 L 222.22 134.23 L 228.73 134.23 L 235.24 133.69 L 241.75 133.69 L 248.25 133.69 L 254.76 133.69 L 261.27 133.69 L 267.78 133.69 L 274.29 132.97 L 280.79 132.97 L 287.30 132.97 L 293.81 132.97 L 300.32 132.97 L 306.83 132.97 L 313.33 132.97 L 319.84 132.97 L 326.35 132.97 L 332.86 132.97 L 339.37 132.97 L 345.87 132.97 L 352.38 132.97 L 358.89 132.97 L 365.40 132.97 L 371.90 132.97 L 378.41 132.97 L 384.92 132.97 L 391.43 132.97 L 397.94 132.97 L 404.44 132.97 L 410.95 132.97 L 417.46 132.97 L 423.97 132.97 L 430.48 132.97 L 436.98 132.97 L 443.49 132.97 L 450.00 132.97 L 456.51 132.97 L 463.02 132.97 L 469.52 132.97 L 476.03 132.97 L 482.54 132.97 L 489.05 132.97 L 495.56 132.97 L 502.06 132.97 L 508.57 132.97 L 515.08 132.97 L 521.59 132.97 L 528.10 132.97 L 534.60 132.97 L 541.11 132.97 L 547.62 132.97 L 554.13 132.97 L 560.63 132.97 L 567.14 132.97 L 573.65 132.97 L 580.16 132.97 L 586.67 132.97 L 593.17 132.97 L 599.68 132.97 L 606.19 132.97 L 612.70 132.97 L 619.21 132.97 L 625.71 132.97 L 632.22 132.97 L 638.73 132.97 L 645.24 132.97 L 651.75 132.97 L 658.25 132.97 L 664.76 132.97 L 671.27 132.97 L 677.78 132.97 L 684.29 132.97 L 690.79 132.97 L 697.30 132.97 L 703.81 132.97 L 710.32 132.97 L 716.83 132.97 L 723.33 132.97 L 729.84 132.97 L 736.35 132.97 L 742.86 132.97 L 749.37 132.97 L 755.87 132.97 L 762.38 132.97 L 768.89 132.97 L 775.40 132.97 L 781.90 132.97 L 788.41 132.97 L 794.92 132.97 L 801.43 132.97 L 807.94 132.97 L 814.44 132.97 L 820.95 132.97 L 827.46 132.97 L 833.97 132.97 L 840.48 132.97 L 846.98 132.97 L 853.49 132.97 L 860.00 132.97" fill="none" stroke="#3fb950" stroke-width="2"/>
    <circle cx="860.00" cy="132.97" r="3" fill="#3fb950"/>
    <text x="40.00" y="235.00" font-size="9" fill="#c9d1d9" text-anchor="middle" transform="rotate(-45 40.00 235.00)">09.08.2025</text><text x="118.10" y="235.00" font-size="9" fill="#c9d1d9" text-anchor="middle" transform="rotate(-45 118.10 235.00)">09.08.2025</text><text x="196.19" y="235.00" font-size="9" fill="#c9d1d9" text-anchor="middle" transform="rotate(-45 196.19 235.00)">09.08.2025</text><text x="274.29" y="235.00" font-size="9" fill="#c9d1d9" text-anchor="middle" transform="rotate(-45 274.29 235.00)">13.08.2025</text><text x="352.38" y="235.00" font-size="9" fill="#c9d1d9" text-anchor="middle" transform="rotate(-45 352.38 235.00)">24.08.2025</text><text x="430.48" y="235.00" font-size="9" fill="#c9d1d9" text-anchor="middle" transform="rotate(-45 430.48 235.00)">03.09.2025</text><text x="508.57" y="235.00" font-size="9" fill="#c9d1d9" text-anchor="middle" transform="rotate(-45 508.57 235.00)">15.09.2025</text><text x="586.67" y="235.00" font-size="9" fill="#c9d1d9" text-anchor="middle" transform="rotate(-45 586.67 235.00)">27.09.2025</text><text x="664.76" y="235.00" font-size="9" fill="#c9d1d9" text-anchor="middle" transform="rotate(-45 664.76 235.00)">09.10.2025</text><text x="742.86" y="235.00" font-size="9" fill="#c9d1d9" text-anchor="middle" transform="rotate(-45 742.86 235.00)">21.10.2025</text><text x="820.95" y="235.00" font-size="9" fill="#c9d1d9" text-anchor="middle" transform="rotate(-45 820.95 235.00)">02.11.2025</text>
  </g>
</svg>