<svg xmlns="http://www.w3.org/2000/svg" width="900" height="290" style="font-family: -apple-system, BlinkMacSystemFont, 'Segoe UI', Helvetica, Arial, sans-serif;">
  <rect width="100%" height="100%" fill="#0d1117"/>
  <g>
    <line x1="40" y1="220.00" x2="860" y2="220.00" stroke="#30363d"/><text x="32" y="224.00" font-size="10" fill="#c9d1d9" text-anchor="end">0</text><line x1="40" y1="175.00" x2="860" y2="175.00" stroke="#30363d"/><text x="32" y="179.00" font-size="10" fill="#c9d1d9" text-anchor="end">500</text><line x1="40" y1="130.00" x2="860" y2="130.00" stroke="#30363d"/><text x="32" y="134.00" font-size="10" fill="#c9d1d9" text-anchor="end">1k</text><line x1="40" y1="85.00" x2="860" y2="85.00" stroke="#30363d"/><text x="32" y="89.00" font-size="10" fill="#c9d1d9" text-anchor="end">1.5k</text><line x1="40" y1="40.00" x2="860" y2="40.00" stroke="#30363d"/><text x="32" y="44.00" font-size="10" fill="#c9d1d9" text-anchor="end">2k</text>
    <line x1="40.00" y1="40" x2="40.00" y2="220" stroke="#30363d" opacity="0.5"/><line x1="121.65" y1="40" x2="121.65" y2="220" stroke="#30363d" opacity="0.5"/><line x1="203.29" y1="40" x2="203.29" y2="220" stroke="#30363d" opacity="0.5"/><line x1="284.94" y1="40" x2="284.94" y2="220" stroke="#30363d" opacity="0.5"/><line x1="366.58" y1="40" x2="366.58" y2="220" stroke="#30363d" opacity="0.5"/><line x1="448.23" y1="40" x2="448.23" y2="220" stroke="#30363d" opacity="0.5"/><line x1="529.87" y1="40" x2="529.87" y2="220" stroke="#30363d" opacity="0.5"/><line x1="611.52" y1="40" x2="611.52" y2="220" stroke="#30363d" opacity="0.5"/><line x1="693.16" y1="40" x2="693.16" y2="220" stroke="#30363d" opacity="0.5"/><line x1="774.81" y1="40" x2="774.81" y2="220" stroke="#30363d" opacity="0.5"/><line x1="856.45" y1="40" x2="856.45" y2="220" stroke="#30363d" opacity="0.5"/>
    <line x1="40" y1="220" x2="860" y2="220" stroke="#30363d"/>
    <line x1="40" y1="40"   x2="40"   y2="220" stroke="#30363d"/>
    <path d="M 40.00 219.82 L 43.55 214.15 L 47.10 214.06 L 50.65 214.06 L 54.20 213.25 L 57.75 213.25 L 61.30 204.88 L 64.85 185.98 L 68.40 185.98 L 71.95 180.94 L 75.50 152.59 L 79.05 159.97 L 82.60 158.89 L 86.15 158.17 L 89.70 139.63 L 93.25 139.63 L 96.80 157.18 L 100.35 154.66 L 103.90 154.39 L 107.45 151.60 L 111.00 150.97 L 114.55 150.70 L 118.10 149.80 L 121.65 149.80 L 125.19 147.46 L 128.74 144.94 L 132.29 144.76 L 135.84 140.71 L 139.39 134.23 L 142.94 134.23 L 146.49 133.69 L 150.04 133.69 L 153.59 133.69 L 157.14 133.69 L 160.69 133.69 L 164.24 133.69 L 167.79 132.97 L 171.34 132.97 L 174.89 132.97 L 178.44 132.97 L 181.99 132.97 L 185.54 132.97 L 189.09 132.97 L 192.64 132.97 L 196.19 132.97 L 199.74 132.97 L 203.29 132.97 L 206.84 132.97 L 210.39 132.97 L 213.94 132.97 L 217.49 132.97 L 221.04 132.97 L 224.59 132.97 L 228.14 132.97 L 231.69 132.97 L 235.24 132.97 L 238.79 132.97 L 242.34 132.97 L 245.89 132.97 L 249.44 132.97 L 252.99 132.97 L 256.54 132.97 L 260.09 132.97 L 263.64 132.97 L 267.19 132.97 L 270.74 132.97 L 274.29 132.97 L 277.84 132.97 L 281.39 132.97 L 284.94 132.97 L 288.48 132.97 L 292.03 132.97 L 295.58 132.97 L 299.13 132.97 L 302.68 132.97 L 306.23 132.97 L 309.78 132.97 L 313.33 132.97 L 316.88 132.97 L 320.43 132.97 L 323.98 132.97 L 327.53 132.97 L 331.08 132.97 L 334.63 132.97 L 338.18 132.97 L 341.73 132.97 L 345.28 132.97 L 348.83 132.97 L 352.38 132.97 L 355.93 132.97 L 359.48 132.97 L 363.03 132.97 L 366.58 132.97 L 370.13 132.97 L 373.68 132.97 L 377.23 132.97 L 380.78 132.97 L 384.33 132.97 L 387.88 132.97 L 391.43 132.97 L 394.98 132.97 L 398.53 132.97 L 402.08 132.97 L 405.63 132.97 L 409.18 132.97 L 412.73 132.97 L 416.28 132.97 L 419.83 132.97 L 423.38 132.97 L 426.93 132.97 L 430.48 132.97 L 434.03 132.97 L 437.58 132.97 L 441.13 132.97 L 444.68 132.97 L 448.23 132.97 L 451.77 132.97 L 455.32 132.97 L 458.87 132.97 L 462.42 132.97 L 465.97 132.97 L 469.52 132.97 L 473.07 132.97 L 476.62 132.97 L 480.17 132.97 L 483.72 132.97 L 487.27 132.97 L 490.82 132.97 L 494.37 132.97 L 497.92 132.97 L 501.47 132.97 L 505.02 132.97 L 508.57 132.97 L 512.12 132.97 L 515.67 132.97 L 519.22 132.97 L 522.77 132.97 L 526.32 132.97 L 529.87 132.97 L 533.42 132.97 L 536.97 132.97 L 540.52 132.97 L 544.07 132.97 L 547.62 132.97 L 551.17 132.97 L 554.72 132.97 L 558.27 132.97 L 561.82 132.97 L 565.37 132.97 L 568.92 132.97 L 572.47 132.97 L 576.02 132.97 L 579.57 132.97 L 583.12 124.51 L 586.67 120.64 L 590.22 116.77 L 593.77 112.90 L 597.32 109.03 L 600.87 105.97 L 604.42 105.97 L 607.97 105.97 L 611.52 105.97 L 615.06 105.97 L 618.61 105.79 L 622.16 103.09 L 625.71 98.41 L 629.26 98.41 L 632.81 98.41 L 636.36 98.41 L 639.91 98.41 L 643.46 98.41 L 647.01 98.41 L 650.56 98.41 L 654.11 98.41 L 657.66 98.41 L 661.21 98.41 L 664.76 98.41 L 668.31 98.41 L 671.86 98.41 L 675.41 98.41 L 678.96 98.41 L 682.51 98.41 L 686.06 98.41 L 689.61 98.41 L 693.16 98.41 L 696.71 98.41 L 700.26 98.41 L 703.81 98.41 L 707.36 98.41 L 710.91 98.41 L 714.46 98.41 L 718.01 98.41 L 721.56 98.41 L 725.11 98.41 L 728.66 98.41 L 732.21 98.41 L 735.76 98.41 L 739.31 98.41 L 742.86 98.41 L 746.41 98.41 L 749.96 98.41 L 753.51 98.41 L 757.06 98.41 L 760.61 98.41 L 764.16 98.41 L 767.71 98.41 L 771.26 98.41 L 774.81 98.41 L 778.35 98.41 L 781.90 98.41 L 785.45 98.41 L 789.00 98.41 L 792.55 98.41 L 796.10 98.41 L 799.65 98.41 L 803.20 98.41 L 806.75 98.41 L 810.30 98.41 L 813.85 98.41 L 817.40 98.41 L 820.95 98.41 L 824.50 98.41 L 828.05 98.41 L 831.60 98.41 L 835.15 98.41 L 838.70 98.41 L 842.25 98.41 L 845.80 98.41 L 849.35 98.41 L 852.90 98.41 L 856.45 98.41 L 860.00 98.41" fill="none" stroke="#3fb950" stroke-width="2"/>
    <circle cx="860.00" cy="98.41" r="3" fill="#3fb950"/>
    <text x="40.00" y="235.00" font-size="9" fill="#c9d1d9" text-anchor="middle" transform="rotate(-45 40.00 235.00)">09.08.2025</text><text x="121.65" y="235.00" font-size="9" fill="#c9d1d9" text-anchor="middle" transform="rotate(-45 121.65 235.00)">09.08.2025</text><text x="203.29" y="235.00" font-size="9" fill="#c9d1d9" text-anchor="middle" transform="rotate(-45 203.29 235.00)">22.08.2025</text><text x="284.94" y="235.00" font-size="9" fill="#c9d1d9" text-anchor="middle" transform="rotate(-45 284.94 235.00)">12.09.2025</text><text x="366.58" y="235.00" font-size="9" fill="#c9d1d9" text-anchor="middle" transform="rotate(-45 366.58 235.00)">05.10.2025</text><text x="448.23" y="235.00" font-size="9" fill="#c9d1d9" text-anchor="middle" transform="rotate(-45 448.23 235.00)">28.10.2025</text><text x="529.87" y="235.00" font-size="9" fill="#c9d1d9" text-anchor="middle" transform="rotate(-45 529.87 235.00)">20.11.2025</text><text x="611.52" y="235.00" font-size="9" fill="#c9d1d9" text-anchor="middle" transform="rotate(-45 611.52 235.00)">06.12.2025</text><text x="693.16" y="235.00" font-size="9" fill="#c9d1d9" text-anchor="middle" transform="rotate(-45 693.16 235.00)">26.12.2025</text><text x="774.81" y="235.00" font-size="9" fill="#c9d1d9" text-anchor="middle" transform="rotate(-45 774.81 235.00)">18.01.2026</text><text x="856.45" y="235.00" font-size="9" fill="#c9d1d9" text-anchor="middle" transform="rotate(-45 856.45 235.00)">10.02.2026</text>
  </g>
</svg>