<svg xmlns="http://www.w3.org/2000/svg" width="900" height="290" style="font-family: -apple-system, BlinkMacSystemFont, 'Segoe UI', Helvetica, Arial, sans-serif;">
  <rect width="100%" height="100%" fill="#0d1117"/>
  <g>
    <line x1="40" y1="220.00" x2="860" y2="220.00" stroke="#30363d"/><text x="32" y="224.00" font-size="10" fill="#c9d1d9" text-anchor="end">0</text><line x1="40" y1="175.00" x2="860" y2="175.00" stroke="#30363d"/><text x="32" y="179.00" font-size="10" fill="#c9d1d9" text-anchor="end">500</text><line x1="40" y1="130.00" x2="860" y2="130.00" stroke="#30363d"/><text x="32" y="134.00" font-size="10" fill="#c9d1d9" text-anchor="end">1k</text><line x1="40" y1="85.00" x2="860" y2="85.00" stroke="#30363d"/><text x="32" y="89.00" font-size="10" fill="#c9d1d9" text-anchor="end">1.5k</text><line x1="40" y1="40.00" x2="860" y2="40.00" stroke="#30363d"/><text x="32" y="44.00" font-size="10" fill="#c9d1d9" text-anchor="end">2k</text>
    <line x1="40.00" y1="40" x2="40.00" y2="220" stroke="#30363d" opacity="0.5"/><line x1="115.53" y1="40" x2="115.53" y2="220" stroke="#30363d" opacity="0.5"/><line x1="191.05" y1="40" x2="191.05" y2="220" stroke="#30363d" opacity="0.5"/><line x1="266.58" y1="40" x2="266.58" y2="220" stroke="#30363d" opacity="0.5"/><line x1="342.11" y1="40" x2="342.11" y2="220" stroke="#30363d" opacity="0.5"/><line x1="417.63" y1="40" x2="417.63" y2="220" stroke="#30363d" opacity="0.5"/><line x1="493.16" y1="40" x2="493.16" y2="220" stroke="#30363d" opacity="0.5"/><line x1="568.68" y1="40" x2="568.68" y2="220" stroke="#30363d" opacity="0.5"/><line x1="644.21" y1="40" x2="644.21" y2="220" stroke="#30363d" opacity="0.5"/><line x1="719.74" y1="40" x2="719.74" y2="220" stroke="#30363d" opacity="0.5"/><line x1="795.26" y1="40" x2="795.26" y2="220" stroke="#30363d" opacity="0.5"/>
    <line x1="40" y1="220" x2="860" y2="220" stroke="#30363d"/>
    <line x1="40" y1="40"   x2="40"   y2="220" stroke="#30363d"/>
    <path d="M 40.00 219.82 L 50.79 214.15 L 61.58 214.06 L 72.37 214.06 L 83.16 213.25 L 93.95 213.25 L 104.74 204.88 L 115.53 185.98 L 126.32 185.98 L 137.11 180.94 L 147.89 152.59 L 158.68 159.97 L 169.47 158.89 L 180.26 158.17 L 191.05 139.63 L 201.84 139.63 L 212.63 157.18 L 223.42 154.66 L 234.21 154.39 L 245.00 151.60 L 255.79 150.97 L 266.58 150.70 L 277.37 149.80 L 288.16 149.80 L 298.95 147.46 L 309.74 144.94 L 320.53 144.76 L 331.32 140.71 L 342.11 134.23 L 352.89 134.23 L 363.68 133.69 L 374.47 133.69 L 385.26 133.69 L 396.05 133.69 L 406.84 133.69 L 417.63 133.69 L 428.42 132.97 L 439.21 132.97 L 450.00 132.97 L 460.79 132.97 L 471.58 132.97 L 482.37 132.97 L 493.16 132.97 L 503.95 132.97 L 514.74 132.97 L 525.53 132.97 L 536.32 132.97 L 547.11 132.97 L 557.89 132.97 L 568.68 132.97 L 579.47 132.97 L 590.26 132.97 L 601.05 132.97 L 611.84 132.97 L 622.63 132.97 L 633.42 132.97 L 644.21 132.97 L 655.00 132.97 L 665.79 132.97 L 676.58 132.97 L 687.37 132.97 L 698.16 132.97 L 708.95 132.97 L 719.74 132.97 L 730.53 132.97 L 741.32 132.97 L 752.11 132.97 L 762.89 132.97 L 773.68 132.97 L 784.47 132.97 L 795.26 132.97 L 806.05 132.97 L 816.84 132.97 L 827.63 132.97 L 838.42 132.97 L 849.21 132.97 L 860.00 132.97" fill="none" stroke="#3fb950" stroke-width="2"/>
    <circle cx="860.00" cy="132.97" r="3" fill="#3fb950"/>
    <text x="40.00" y="235.00" font-size="9" fill="#c9d1d9" text-anchor="middle" transform="rotate(-45 40.00 235.00)">09.08.2025</text><text x="115.53" y="235.00" font-size="9" fill="#c9d1d9" text-anchor="middle" transform="rotate(-45 115.53 235.00)">09.08.2025</text><text x="191.05" y="235.00" font-size="9" fill="#c9d1d9" text-anchor="middle" transform="rotate(-45 191.05 235.00)">09.08.2025</text><text x="266.58" y="235.00" font-size="9" fill="#c9d1d9" text-anchor="middle" transform="rotate(-45 266.58 235.00)">09.08.2025</text><text x="342.11" y="235.00" font-size="9" fill="#c9d1d9" text-anchor="middle" transform="rotate(-45 342.11 235.00)">13.08.2025</text><text x="417.63" y="235.00" font-size="9" fill="#c9d1d9" text-anchor="middle" transform="rotate(-45 417.63 235.00)">13.08.2025</text><text x="493.16" y="235.00" font-size="9" fill="#c9d1d9" text-anchor="middle" transform="rotate(-45 493.16 235.00)">18.08.2025</text><text x="568.68" y="235.00" font-size="9" fill="#c9d1d9" text-anchor="middle" transform="rotate(-45 568.68 235.00)">25.08.2025</text><text x="644.21" y="235.00" font-size="9" fill="#c9d1d9" text-anchor="middle" transform="rotate(-45 644.21 235.00)">30.08.2025</text><text x="719.74" y="235.00" font-size="9" fill="#c9d1d9" text-anchor="middle" transform="rotate(-45 719.74 235.00)">06.09.2025</text><text x="795.26" y="235.00" font-size="9" fill="#c9d1d9" text-anchor="middle" transform="rotate(-45 795.26 235.00)">13.09.2025</text>
  </g>
</svg>