<svg xmlns="http://www.w3.org/2000/svg" width="900" height="290" style="font-family: -apple-system, BlinkMacSystemFont, 'Segoe UI', Helvetica, Arial, sans-serif;">
  <rect width="100%" height="100%" fill="white"/>
  <g>
    <line x1="40" y1="220.00" x2="860" y2="220.00" stroke="#e5e7eb"/><text x="32" y="224.00" font-size="10" fill="#111827" text-anchor="end">0</text><line x1="40" y1="175.00" x2="860" y2="175.00" stroke="#e5e7eb"/><text x="32" y="179.00" font-size="10" fill="#111827" text-anchor="end">500</text><line x1="40" y1="130.00" x2="860" y2="130.00" stroke="#e5e7eb"/><text x="32" y="134.00" font-size="10" fill="#111827" text-anchor="end">1k</text><line x1="40" y1="85.00" x2="860" y2="85.00" stroke="#e5e7eb"/><text x="32" y="89.00" font-size="10" fill="#111827" text-anchor="end">1.5k</text><line x1="40" y1="40.00" x2="860" y2="40.00" stroke="#e5e7eb"/><text x="32" y="44.00" font-size="10" fill="#111827" text-anchor="end">2k</text>
    <line x1="40.00" y1="40" x2="40.00" y2="220" stroke="#e5e7eb" opacity="0.5"/><line x1="116.44" y1="40" x2="116.44" y2="220" stroke="#e5e7eb" opacity="0.5"/><line x1="192.88" y1="40" x2="192.88" y2="220" stroke="#e5e7eb" opacity="0.5"/><line x1="269.32" y1="40" x2="269.32" y2="220" stroke="#e5e7eb" opacity="0.5"/><line x1="345.76" y1="40" x2="345.76" y2="220" stroke="#e5e7eb" opacity="0.5"/><line x1="422.20" y1="40" x2="422.20" y2="220" stroke="#e5e7eb" opacity="0.5"/><line x1="498.64" y1="40" x2="498.64" y2="220" stroke="#e5e7eb" opacity="0.5"/><line x1="575.08" y1="40" x2="575.08" y2="220" stroke="#e5e7eb" opacity="0.5"/><line x1="651.53" y1="40" x2="651.53" y2="220" stroke="#e5e7eb" opacity="0.5"/><line x1="727.97" y1="40" x2="727.97" y2="220" stroke="#e5e7eb" opacity="0.5"/><line x1="804.41" y1="40" x2="804.41" y2="220" stroke="#e5e7eb" opacity="0.5"/>
    <line x1="40" y1="220" x2="860" y2="220" stroke="#9ca3af"/>
    <line x1="40" y1="40"   x2="40"   y2="220" stroke="#9ca3af"/>
    <path d="M 40.00 219.82 L 46.95 214.15 L 53.90 214.06 L 60.85 214.06 L 67.80 213.25 L 74.75 213.25 L 81.69 204.88 L 88.64 185.98 L 95.59 185.98 L 102.54 180.94 L 109.49 152.59 L 116.44 159.97 L 123.39 158.89 L 130.34 158.17 L 137.29 139.63 L 144.24 139.63 L 151.19 157.18 L 158.14 154.66 L 165.08 154.39 L 172.03 151.60 L 178.98 150.97 L 185.93 150.70 L 192.88 149.80 L 199.83 149.80 L 206.78 147.46 L 213.73 144.94 L 220.68 144.76 L 227.63 140.71 L 234.58 134.23 L 241.53 134.23 L 248.47 133.69 L 255.42 133.69 L 262.37 133.69 L 269.32 133.69 L 276.27 133.69 L 283.22 133.69 L 290.17 132.97 L 297.12 132.97 L 304.07 132.97 L 311.02 132.97 L 317.97 132.97 L 324.92 132.97 L 331.86 132.97 L 338.81 132.97 L 345.76 132.97 L 352.71 132.97 L 359.66 132.97 L 366.61 132.97 L 373.56 132.97 L 380.51 132.97 L 387.46 132.97 L 394.41 132.97 L 401.36 132.97 L 408.31 132.97 L 415.25 132.97 L 422.20 132.97 L 429.15 132.97 L 436.10 132.97 L 443.05 132.97 L 450.00 132.97 L 456.95 132.97 L 463.90 132.97 L 470.85 132.97 L 477.80 132.97 L 484.75 132.97 L 491.69 132.97 L 498.64 132.97 L 505.59 132.97 L 512.54 132.97 L 519.49 132.97 L 526.44 132.97 L 533.39 132.97 L 540.34 132.97 L 547.29 132.97 L 554.24 132.97 L 561.19 132.97 L 568.14 132.97 L 575.08 132.97 L 582.03 132.97 L 588.98 132.97 L 595.93 132.97 L 602.88 132.97 L 609.83 132.97 L 616.78 132.97 L 623.73 132.97 L 630.68 132.97 L 637.63 132.97 L 644.58 132.97 L 651.53 132.97 L 658.47 132.97 L 665.42 132.97 L 672.37 132.97 L 679.32 132.97 L 686.27 132.97 L 693.22 132.97 L 700.17 132.97 L 707.12 132.97 L 714.07 132.97 L 721.02 132.97 L 727.97 132.97 L 734.92 132.97 L 741.86 132.97 L 748.81 132.97 L 755.76 132.97 L 762.71 132.97 L 769.66 132.97 L 776.61 132.97 L 783.56 132.97 L 790.51 132.97 L 797.46 132.97 L 804.41 132.97 L 811.36 132.97 L 818.31 132.97 L 825.25 132.97 L 832.20 132.97 L 839.15 132.97 L 846.10 132.97 L 853.05 132.97 L 860.00 132.97" fill="none" stroke="#111827" stroke-width="2"/>
    <circle cx="860.00" cy="132.97" r="3" fill="#111827"/>
    <text x="40.00" y="235.00" font-size="9" fill="#111827" text-anchor="middle" transform="rotate(-45 40.00 235.00)">09.08.2025</text><text x="116.44" y="235.00" font-size="9" fill="#111827" text-anchor="middle" transform="rotate(-45 116.44 235.00)">09.08.2025</text><text x="192.88" y="235.00" font-size="9" fill="#111827" text-anchor="middle" transform="rotate(-45 192.88 235.00)">09.08.2025</text><text x="269.32" y="235.00" font-size="9" fill="#111827" text-anchor="middle" transform="rotate(-45 269.32 235.00)">13.08.2025</text><text x="345.76" y="235.00" font-size="9" fill="#111827" text-anchor="middle" transform="rotate(-45 345.76 235.00)">20.08.2025</text><text x="422.20" y="235.00" font-size="9" fill="#111827" text-anchor="middle" transform="rotate(-45 422.20 235.00)">29.08.2025</text><text x="498.64" y="235.00" font-size="9" fill="#111827" text-anchor="middle" transform="rotate(-45 498.64 235.00)">09.09.2025</text><text x="575.08" y="235.00" font-size="9" fill="#111827" text-anchor="middle" transform="rotate(-45 575.08 235.00)">20.09.2025</text><text x="651.53" y="235.00" font-size="9" fill="#111827" text-anchor="middle" transform="rotate(-45 651.53 235.00)">01.10.2025</text><text x="727.97" y="235.00" font-size="9" fill="#111827" text-anchor="middle" transform="rotate(-45 727.97 235.00)">12.10.2025</text><text x="804.41" y="235.00" font-size="9" fill="#111827" text-anchor="middle" transform="rotate(-45 804.41 235.00)">23.10.2025</text>
  </g>
</svg>