<svg xmlns="http://www.w3.org/2000/svg" width="900" height="290" style="font-family: -apple-system, BlinkMacSystemFont, 'Segoe UI', Helvetica, Arial, sans-serif;">
  <rect width="100%" height="100%" fill="#0d1117"/>
  <g>
    <line x1="40" y1="220.00" x2="860" y2="220.00" stroke="#30363d"/><text x="32" y="224.00" font-size="10" fill="#c9d1d9" text-anchor="end">0</text><line x1="40" y1="175.00" x2="860" y2="175.00" stroke="#30363d"/><text x="32" y="179.00" font-size="10" fill="#c9d1d9" text-anchor="end">500</text><line x1="40" y1="130.00" x2="860" y2="130.00" stroke="#30363d"/><text x="32" y="134.00" font-size="10" fill="#c9d1d9" text-anchor="end">1k</text><line x1="40" y1="85.00" x2="860" y2="85.00" stroke="#30363d"/><text x="32" y="89.00" font-size="10" fill="#c9d1d9" text-anchor="end">1.5k</text><line x1="40" y1="40.00" x2="860" y2="40.00" stroke="#30363d"/><text x="32" y="44.00" font-size="10" fill="#c9d1d9" text-anchor="end">2k</text>
    <line x1="40.00" y1="40" x2="40.00" y2="220" stroke="#30363d" opacity="0.5"/><line x1="122.00" y1="40" x2="122.00" y2="220" stroke="#30363d" opacity="0.5"/><line x1="204.00" y1="40" x2="204.00" y2="220" stroke="#30363d" opacity="0.5"/><line x1="286.00" y1="40" x2="286.00" y2="220" stroke="#30363d" opacity="0.5"/><line x1="368.00" y1="40" x2="368.00" y2="220" stroke="#30363d" opacity="0.5"/><line x1="450.00" y1="40" x2="450.00" y2="220" stroke="#30363d" opacity="0.5"/><line x1="532.00" y1="40" x2="532.00" y2="220" stroke="#30363d" opacity="0.5"/><line x1="614.00" y1="40" x2="614.00" y2="220" stroke="#30363d" opacity="0.5"/><line x1="696.00" y1="40" x2="696.00" y2="220" stroke="#30363d" opacity="0.5"/><line x1="778.00" y1="40" x2="778.00" y2="220" stroke="#30363d" opacity="0.5"/><line x1="860.00" y1="40" x2="860.00" y2="220" stroke="#30363d" opacity="0.5"/>
    <line x1="40" y1="220" x2="860" y2="220" stroke="#30363d"/>
    <line x1="40" y1="40"   x2="40"   y2="220" stroke="#30363d"/>
    <path d="M 40.00 219.82 L 43.42 214.15 L 46.83 214.06 L 50.25 214.06 L 53.67 213.25 L 57.08 213.25 L 60.50 204.88 L 63.92 185.98 L 67.33 185.98 L 70.75 180.94 L 74.17 152.59 L 77.58 159.97 L 81.00 158.89 L 84.42 158.17 L 87.83 139.63 L 91.25 139.63 L 94.67 157.18 L 98.08 154.66 L 101.50 154.39 L 104.92 151.60 L 108.33 150.97 L 111.75 150.70 L 115.17 149.80 L 118.58 149.80 L 122.00 147.46 L 125.42 144.94 L 128.83 144.76 L 132.25 140.71 L 135.67 134.23 L 139.08 134.23 L 142.50 133.69 L 145.92 133.69 L 149.33 133.69 L 152.75 133.69 L 156.17 133.69 L 159.58 133.69 L 163.00 132.97 L 166.42 132.97 L 169.83 132.97 L 173.25 132.97 L 176.67 132.97 L 180.08 132.97 L 183.50 132.97 L 186.92 132.97 L 190.33 132.97 L 193.75 132.97 L 197.17 132.97 L 200.58 132.97 L 204.00 132.97 L 207.42 132.97 L 210.83 132.97 L 214.25 132.97 L 217.67 132.97 L 221.08 132.97 L 224.50 132.97 L 227.92 132.97 L 231.33 132.97 L 234.75 132.97 L 238.17 132.97 L 241.58 132.97 L 245.00 132.97 L 248.42 132.97 L 251.83 132.97 L 255.25 132.97 L 258.67 132.97 L 262.08 132.97 L 265.50 132.97 L 268.92 132.97 L 272.33 132.97 L 275.75 132.97 L 279.17 132.97 L 282.58 132.97 L 286.00 132.97 L 289.42 132.97 L 292.83 132.97 L 296.25 132.97 L 299.67 132.97 L 303.08 132.97 L 306.50 132.97 L 309.92 132.97 L 313.33 132.97 L 316.75 132.97 L 320.17 132.97 L 323.58 132.97 L 327.00 132.97 L 330.42 132.97 L 333.83 132.97 L 337.25 132.97 L 340.67 132.97 L 344.08 132.97 L 347.50 132.97 L 350.92 132.97 L 354.33 132.97 L 357.75 132.97 L 361.17 132.97 L 364.58 132.97 L 368.00 132.97 L 371.42 132.97 L 374.83 132.97 L 378.25 132.97 L 381.67 132.97 L 385.08 132.97 L 388.50 132.97 L 391.92 132.97 L 395.33 132.97 L 398.75 132.97 L 402.17 132.97 L 405.58 132.97 L 409.00 132.97 L 412.42 132.97 L 415.83 132.97 L 419.25 132.97 L 422.67 132.97 L 426.08 132.97 L 429.50 132.97 L 432.92 132.97 L 436.33 132.97 L 439.75 132.97 L 443.17 132.97 L 446.58 132.97 L 450.00 132.97 L 453.42 132.97 L 456.83 132.97 L 460.25 132.97 L 463.67 132.97 L 467.08 132.97 L 470.50 132.97 L 473.92 132.97 L 477.33 132.97 L 480.75 132.97 L 484.17 132.97 L 487.58 132.97 L 491.00 132.97 L 494.42 132.97 L 497.83 132.97 L 501.25 132.97 L 504.67 132.97 L 508.08 132.97 L 511.50 132.97 L 514.92 132.97 L 518.33 132.97 L 521.75 132.97 L 525.17 132.97 L 528.58 132.97 L 532.00 132.97 L 535.42 132.97 L 538.83 132.97 L 542.25 132.97 L 545.67 132.97 L 549.08 132.97 L 552.50 132.97 L 555.92 132.97 L 559.33 132.97 L 562.75 124.51 L 566.17 120.64 L 569.58 116.77 L 573.00 112.90 L 576.42 109.03 L 579.83 105.97 L 583.25 105.97 L 586.67 105.97 L 590.08 105.97 L 593.50 105.97 L 596.92 105.79 L 600.33 103.09 L 603.75 98.41 L 607.17 98.41 L 610.58 98.41 L 614.00 98.41 L 617.42 98.41 L 620.83 98.41 L 624.25 98.41 L 627.67 98.41 L 631.08 98.41 L 634.50 98.41 L 637.92 98.41 L 641.33 98.41 L 644.75 98.41 L 648.17 98.41 L 651.58 98.41 L 655.00 98.41 L 658.42 98.41 L 661.83 98.41 L 665.25 98.41 L 668.67 98.41 L 672.08 98.41 L 675.50 98.41 L 678.92 98.41 L 682.33 98.41 L 685.75 98.41 L 689.17 98.41 L 692.58 98.41 L 696.00 98.41 L 699.42 98.41 L 702.83 98.41 L 706.25 98.41 L 709.67 98.41 L 713.08 98.41 L 716.50 98.41 L 719.92 98.41 L 723.33 98.41 L 726.75 98.41 L 730.17 98.41 L 733.58 98.41 L 737.00 98.41 L 740.42 98.41 L 743.83 98.41 L 747.25 98.41 L 750.67 98.41 L 754.08 98.41 L 757.50 98.41 L 760.92 98.41 L 764.33 98.41 L 767.75 98.41 L 771.17 98.41 L 774.58 98.41 L 778.00 98.41 L 781.42 98.41 L 784.83 98.41 L 788.25 98.41 L 791.67 98.41 L 795.08 98.41 L 798.50 98.41 L 801.92 98.41 L 805.33 98.41 L 808.75 98.41 L 812.17 98.41 L 815.58 98.41 L 819.00 98.41 L 822.42 98.41 L 825.83 98.41 L 829.25 98.41 L 832.67 98.41 L 836.08 98.41 L 839.50 98.41 L 842.92 98.41 L 846.33 98.41 L 849.75 98.41 L 853.17 98.41 L 856.58 98.41 L 860.00 98.41" fill="none" stroke="#3fb950" stroke-width="2"/>
    <circle cx="860.00" cy="98.41" r="3" fill="#3fb950"/>
    <text x="40.00" y="235.00" font-size="9" fill="#c9d1d9" text-anchor="middle" transform="rotate(-45 40.00 235.00)">09.08.2025</text><text x="122.00" y="235.00" font-size="9" fill="#c9d1d9" text-anchor="middle" transform="rotate(-45 122.00 235.00)">09.08.2025</text><text x="204.00" y="235.00" font-size="9" fill="#c9d1d9" text-anchor="middle" transform="rotate(-45 204.00 235.00)">24.08.2025</text><text x="286.00" y="235.00" font-size="9" fill="#c9d1d9" text-anchor="middle" transform="rotate(-45 286.00 235.00)">15.09.2025</text><text x="368.00" y="235.00" font-size="9" fill="#c9d1d9" text-anchor="middle" transform="rotate(-45 368.00 235.00)">09.10.2025</text><text x="450.00" y="235.00" font-size="9" fill="#c9d1d9" text-anchor="middle" transform="rotate(-45 450.00 235.00)">02.11.2025</text><text x="532.00" y="235.00" font-size="9" fill="#c9d1d9" text-anchor="middle" transform="rotate(-45 532.00 235.00)">26.11.2025</text><text x="614.00" y="235.00" font-size="9" fill="#c9d1d9" text-anchor="middle" transform="rotate(-45 614.00 235.00)">10.12.2025</text><text x="696.00" y="235.00" font-size="9" fill="#c9d1d9" text-anchor="middle" transform="rotate(-45 696.00 235.00)">03.01.2026</text><text x="778.00" y="235.00" font-size="9" fill="#c9d1d9" text-anchor="middle" transform="rotate(-45 778.00 235.00)">27.01.2026</text><text x="860.00" y="235.00" font-size="9" fill="#c9d1d9" text-anchor="middle" transform="rotate(-45 860.00 235.00)">20.02.2026</text>
  </g>
</svg>