<svg xmlns="http://www.w3.org/2000/svg" width="900" height="290" style="font-family: -apple-system, BlinkMacSystemFont, 'Segoe UI', Helvetica, Arial, sans-serif;">
  <rect width="100%" height="100%" fill="white"/>
  <g>
    <line x1="40" y1="220.00" x2="860" y2="220.00" stroke="#e5e7eb"/><text x="32" y="224.00" font-size="10" fill="#111827" text-anchor="end">0</text><line x1="40" y1="175.00" x2="860" y2="175.00" stroke="#e5e7eb"/><text x="32" y="179.00" font-size="10" fill="#111827" text-anchor="end">500</text><line x1="40" y1="130.00" x2="860" y2="130.00" stroke="#e5e7eb"/><text x="32" y="134.00" font-size="10" fill="#111827" text-anchor="end">1k</text><line x1="40" y1="85.00" x2="860" y2="85.00" stroke="#e5e7eb"/><text x="32" y="89.00" font-size="10" fill="#111827" text-anchor="end">1.5k</text><line x1="40" y1="40.00" x2="860" y2="40.00" stroke="#e5e7eb"/><text x="32" y="44.00" font-size="10" fill="#111827" text-anchor="end">2k</text>
    <line x1="40.00" y1="40" x2="40.00" y2="220" stroke="#e5e7eb" opacity="0.5"/><line x1="118.99" y1="40" x2="118.99" y2="220" stroke="#e5e7eb" opacity="0.5"/><line x1="197.98" y1="40" x2="197.98" y2="220" stroke="#e5e7eb" opacity="0.5"/><line x1="276.97" y1="40" x2="276.97" y2="220" stroke="#e5e7eb" opacity="0.5"/><line x1="355.96" y1="40" x2="355.96" y2="220" stroke="#e5e7eb" opacity="0.5"/><line x1="434.95" y1="40" x2="434.95" y2="220" stroke="#e5e7eb" opacity="0.5"/><line x1="513.94" y1="40" x2="513.94" y2="220" stroke="#e5e7eb" opacity="0.5"/><line x1="592.94" y1="40" x2="592.94" y2="220" stroke="#e5e7eb" opacity="0.5"/><line x1="671.93" y1="40" x2="671.93" y2="220" stroke="#e5e7eb" opacity="0.5"/><line x1="750.92" y1="40" x2="750.92" y2="220" stroke="#e5e7eb" opacity="0.5"/><line x1="829.91" y1="40" x2="829.91" y2="220" stroke="#e5e7eb" opacity="0.5"/>
    <line x1="40" y1="220" x2="860" y2="220" stroke="#9ca3af"/>
    <line x1="40" y1="40"   x2="40"   y2="220" stroke="#9ca3af"/>
    <path d="M 40.00 219.82 L 43.76 214.15 L 47.52 214.06 L 51.28 214.06 L 55.05 213.25 L 58.81 213.25 L 62.57 204.88 L 66.33 185.98 L 70.09 185.98 L 73.85 180.94 L 77.61 152.59 L 81.38 159.97 L 85.14 158.89 L 88.90 158.17 L 92.66 139.63 L 96.42 139.63 L 100.18 157.18 L 103.94 154.66 L 107.71 154.39 L 111.47 151.60 L 115.23 150.97 L 118.99 150.70 L 122.75 149.80 L 126.51 149.80 L 130.28 147.46 L 134.04 144.94 L 137.80 144.76 L 141.56 140.71 L 145.32 134.23 L 149.08 134.23 L 152.84 133.69 L 156.61 133.69 L 160.37 133.69 L 164.13 133.69 L 167.89 133.69 L 171.65 133.69 L 175.41 132.97 L 179.17 132.97 L 182.94 132.97 L 186.70 132.97 L 190.46 132.97 L 194.22 132.97 L 197.98 132.97 L 201.74 132.97 L 205.50 132.97 L 209.27 132.97 L 213.03 132.97 L 216.79 132.97 L 220.55 132.97 L 224.31 132.97 L 228.07 132.97 L 231.83 132.97 L 235.60 132.97 L 239.36 132.97 L 243.12 132.97 L 246.88 132.97 L 250.64 132.97 L 254.40 132.97 L 258.17 132.97 L 261.93 132.97 L 265.69 132.97 L 269.45 132.97 L 273.21 132.97 L 276.97 132.97 L 280.73 132.97 L 284.50 132.97 L 288.26 132.97 L 292.02 132.97 L 295.78 132.97 L 299.54 132.97 L 303.30 132.97 L 307.06 132.97 L 310.83 132.97 L 314.59 132.97 L 318.35 132.97 L 322.11 132.97 L 325.87 132.97 L 329.63 132.97 L 333.39 132.97 L 337.16 132.97 L 340.92 132.97 L 344.68 132.97 L 348.44 132.97 L 352.20 132.97 L 355.96 132.97 L 359.72 132.97 L 363.49 132.97 L 367.25 132.97 L 371.01 132.97 L 374.77 132.97 L 378.53 132.97 L 382.29 132.97 L 386.06 132.97 L 389.82 132.97 L 393.58 132.97 L 397.34 132.97 L 401.10 132.97 L 404.86 132.97 L 408.62 132.97 L 412.39 132.97 L 416.15 132.97 L 419.91 132.97 L 423.67 132.97 L 427.43 132.97 L 431.19 132.97 L 434.95 132.97 L 438.72 132.97 L 442.48 132.97 L 446.24 132.97 L 450.00 132.97 L 453.76 132.97 L 457.52 132.97 L 461.28 132.97 L 465.05 132.97 L 468.81 132.97 L 472.57 132.97 L 476.33 132.97 L 480.09 132.97 L 483.85 132.97 L 487.61 132.97 L 491.38 132.97 L 495.14 132.97 L 498.90 132.97 L 502.66 132.97 L 506.42 132.97 L 510.18 132.97 L 513.94 132.97 L 517.71 132.97 L 521.47 132.97 L 525.23 132.97 L 528.99 132.97 L 532.75 132.97 L 536.51 132.97 L 540.28 132.97 L 544.04 132.97 L 547.80 132.97 L 551.56 132.97 L 555.32 132.97 L 559.08 132.97 L 562.84 132.97 L 566.61 132.97 L 570.37 132.97 L 574.13 132.97 L 577.89 132.97 L 581.65 132.97 L 585.41 132.97 L 589.17 132.97 L 592.94 132.97 L 596.70 132.97 L 600.46 132.97 L 604.22 132.97 L 607.98 132.97 L 611.74 132.97 L 615.50 124.51 L 619.27 120.64 L 623.03 116.77 L 626.79 112.90 L 630.55 109.03 L 634.31 105.97 L 638.07 105.97 L 641.83 105.97 L 645.60 105.97 L 649.36 105.97 L 653.12 105.79 L 656.88 103.09 L 660.64 98.41 L 664.40 98.41 L 668.17 98.41 L 671.93 98.41 L 675.69 98.41 L 679.45 98.41 L 683.21 98.41 L 686.97 98.41 L 690.73 98.41 L 694.50 98.41 L 698.26 98.41 L 702.02 98.41 L 705.78 98.41 L 709.54 98.41 L 713.30 98.41 L 717.06 98.41 L 720.83 98.41 L 724.59 98.41 L 728.35 98.41 L 732.11 98.41 L 735.87 98.41 L 739.63 98.41 L 743.39 98.41 L 747.16 98.41 L 750.92 98.41 L 754.68 98.41 L 758.44 98.41 L 762.20 98.41 L 765.96 98.41 L 769.72 98.41 L 773.49 98.41 L 777.25 98.41 L 781.01 98.41 L 784.77 98.41 L 788.53 98.41 L 792.29 98.41 L 796.06 98.41 L 799.82 98.41 L 803.58 98.41 L 807.34 98.41 L 811.10 98.41 L 814.86 98.41 L 818.62 98.41 L 822.39 98.41 L 826.15 98.41 L 829.91 98.41 L 833.67 98.41 L 837.43 98.41 L 841.19 98.41 L 844.95 98.41 L 848.72 98.41 L 852.48 98.41 L 856.24 98.41 L 860.00 98.41" fill="none" stroke="#111827" stroke-width="2"/>
    <circle cx="860.00" cy="98.41" r="3" fill="#111827"/>
    <text x="40.00" y="235.00" font-size="9" fill="#111827" text-anchor="middle" transform="rotate(-45 40.00 235.00)">09.08.2025</text><text x="118.99" y="235.00" font-size="9" fill="#111827" text-anchor="middle" transform="rotate(-45 118.99 235.00)">09.08.2025</text><text x="197.98" y="235.00" font-size="9" fill="#111827" text-anchor="middle" transform="rotate(-45 197.98 235.00)">18.08.2025</text><text x="276.97" y="235.00" font-size="9" fill="#111827" text-anchor="middle" transform="rotate(-45 276.97 235.00)">06.09.2025</text><text x="355.96" y="235.00" font-size="9" fill="#111827" text-anchor="middle" transform="rotate(-45 355.96 235.00)">27.09.2025</text><text x="434.95" y="235.00" font-size="9" fill="#111827" text-anchor="middle" transform="rotate(-45 434.95 235.00)">18.10.2025</text><text x="513.94" y="235.00" font-size="9" fill="#111827" text-anchor="middle" transform="rotate(-45 513.94 235.00)">08.11.2025</text><text x="592.94" y="235.00" font-size="9" fill="#111827" text-anchor="middle" transform="rotate(-45 592.94 235.00)">29.11.2025</text><text x="671.93" y="235.00" font-size="9" fill="#111827" text-anchor="middle" transform="rotate(-45 671.93 235.00)">10.12.2025</text><text x="750.92" y="235.00" font-size="9" fill="#111827" text-anchor="middle" transform="rotate(-45 750.92 235.00)">31.12.2025</text><text x="829.91" y="235.00" font-size="9" fill="#111827" text-anchor="middle" transform="rotate(-45 829.91 235.00)">21.01.2026</text>
  </g>
</svg>