<svg xmlns="http://www.w3.org/2000/svg" width="900" height="290" style="font-family: -apple-system, BlinkMacSystemFont, 'Segoe UI', Helvetica, Arial, sans-serif;">
  <rect width="100%" height="100%" fill="#0d1117"/>
  <g>
    <line x1="40" y1="220.00" x2="860" y2="220.00" stroke="#30363d"/><text x="32" y="224.00" font-size="10" fill="#c9d1d9" text-anchor="end">0</text><line x1="40" y1="175.00" x2="860" y2="175.00" stroke="#30363d"/><text x="32" y="179.00" font-size="10" fill="#c9d1d9" text-anchor="end">500</text><line x1="40" y1="130.00" x2="860" y2="130.00" stroke="#30363d"/><text x="32" y="134.00" font-size="10" fill="#c9d1d9" text-anchor="end">1k</text><line x1="40" y1="85.00" x2="860" y2="85.00" stroke="#30363d"/><text x="32" y="89.00" font-size="10" fill="#c9d1d9" text-anchor="end">1.5k</text><line x1="40" y1="40.00" x2="860" y2="40.00" stroke="#30363d"/><text x="32" y="44.00" font-size="10" fill="#c9d1d9" text-anchor="end">2k</text>
    <line x1="40.00" y1="40" x2="40.00" y2="220" stroke="#30363d" opacity="0.5"/><line x1="114.55" y1="40" x2="114.55" y2="220" stroke="#30363d" opacity="0.5"/><line x1="189.09" y1="40" x2="189.09" y2="220" stroke="#30363d" opacity="0.5"/><line x1="263.64" y1="40" x2="263.64" y2="220" stroke="#30363d" opacity="0.5"/><line x1="338.18" y1="40" x2="338.18" y2="220" stroke="#30363d" opacity="0.5"/><line x1="412.73" y1="40" x2="412.73" y2="220" stroke="#30363d" opacity="0.5"/><line x1="487.27" y1="40" x2="487.27" y2="220" stroke="#30363d" opacity="0.5"/><line x1="561.82" y1="40" x2="561.82" y2="220" stroke="#30363d" opacity="0.5"/><line x1="636.36" y1="40" x2="636.36" y2="220" stroke="#30363d" opacity="0.5"/><line x1="710.91" y1="40" x2="710.91" y2="220" stroke="#30363d" opacity="0.5"/><line x1="785.45" y1="40" x2="785.45" y2="220" stroke="#30363d" opacity="0.5"/><line x1="860.00" y1="40" x2="860.00" y2="220" stroke="#30363d" opacity="0.5"/>
    <line x1="40" y1="220" x2="860" y2="220" stroke="#30363d"/>
    <line x1="40" y1="40"   x2="40"   y2="220" stroke="#30363d"/>
    <path d="M 40.00 219.82 L 52.42 214.15 L 64.85 214.06 L 77.27 214.06 L 89.70 213.25 L 102.12 213.25 L 114.55 204.88 L 126.97 185.98 L 139.39 185.98 L 151.82 180.94 L 164.24 152.59 L 176.67 159.97 L 189.09 158.89 L 201.52 158.17 L 213.94 139.63 L 226.36 139.63 L 238.79 157.18 L 251.21 154.66 L 263.64 154.39 L 276.06 151.60 L 288.48 150.97 L 300.91 150.70 L 313.33 149.80 L 325.76 149.80 L 338.18 147.46 L 350.61 144.94 L 363.03 144.76 L 375.45 140.71 L 387.88 134.23 L 400.30 134.23 L 412.73 133.69 L 425.15 133.69 L 437.58 133.69 L 450.00 133.69 L 462.42 133.69 L 474.85 133.69 L 487.27 132.97 L 499.70 132.97 L 512.12 132.97 L 524.55 132.97 L 536.97 132.97 L 549.39 132.97 L 561.82 132.97 L 574.24 132.97 L 586.67 132.97 L 599.09 132.97 L 611.52 132.97 L 623.94 132.97 L 636.36 132.97 L 648.79 132.97 L 661.21 132.97 L 673.64 132.97 L 686.06 132.97 L 698.48 132.97 L 710.91 132.97 L 723.33 132.97 L 735.76 132.97 L 748.18 132.97 L 760.61 132.97 L 773.03 132.97 L 785.45 132.97 L 797.88 132.97 L 810.30 132.97 L 822.73 132.97 L 835.15 132.97 L 847.58 132.97 L 860.00 132.97" fill="none" stroke="#3fb950" stroke-width="2"/>
    <circle cx="860.00" cy="132.97" r="3" fill="#3fb950"/>
    <text x="40.00" y="235.00" font-size="9" fill="#c9d1d9" text-anchor="middle" transform="rotate(-45 40.00 235.00)">09.08.2025</text><text x="114.55" y="235.00" font-size="9" fill="#c9d1d9" text-anchor="middle" transform="rotate(-45 114.55 235.00)">09.08.2025</text><text x="189.09" y="235.00" font-size="9" fill="#c9d1d9" text-anchor="middle" transform="rotate(-45 189.09 235.00)">09.08.2025</text><text x="263.64" y="235.00" font-size="9" fill="#c9d1d9" text-anchor="middle" transform="rotate(-45 263.64 235.00)">09.08.2025</text><text x="338.18" y="235.00" font-size="9" fill="#c9d1d9" text-anchor="middle" transform="rotate(-45 338.18 235.00)">09.08.2025</text><text x="412.73" y="235.00" font-size="9" fill="#c9d1d9" text-anchor="middle" transform="rotate(-45 412.73 235.00)">13.08.2025</text><text x="487.27" y="235.00" font-size="9" fill="#c9d1d9" text-anchor="middle" transform="rotate(-45 487.27 235.00)">13.08.2025</text><text x="561.82" y="235.00" font-size="9" fill="#c9d1d9" text-anchor="middle" transform="rotate(-45 561.82 235.00)">18.08.2025</text><text x="636.36" y="235.00" font-size="9" fill="#c9d1d9" text-anchor="middle" transform="rotate(-45 636.36 235.00)">24.08.2025</text><text x="710.91" y="235.00" font-size="9" fill="#c9d1d9" text-anchor="middle" transform="rotate(-45 710.91 235.00)">28.08.2025</text><text x="785.45" y="235.00" font-size="9" fill="#c9d1d9" text-anchor="middle" transform="rotate(-45 785.45 235.00)">03.09.2025</text><text x="860.00" y="235.00" font-size="9" fill="#c9d1d9" text-anchor="middle" transform="rotate(-45 860.00 235.00)">09.09.2025</text>
  </g>
</svg>