<svg xmlns="http://www.w3.org/2000/svg" width="900" height="290" style="font-family: -apple-system, BlinkMacSystemFont, 'Segoe UI', Helvetica, Arial, sans-serif;">
  <rect width="100%" height="100%" fill="white"/>
  <g>
    <line x1="40" y1="220.00" x2="860" y2="220.00" stroke="#e5e7eb"/><text x="32" y="224.00" font-size="10" fill="#111827" text-anchor="end">0</text><line x1="40" y1="175.00" x2="860" y2="175.00" stroke="#e5e7eb"/><text x="32" y="179.00" font-size="10" fill="#111827" text-anchor="end">500</text><line x1="40" y1="130.00" x2="860" y2="130.00" stroke="#e5e7eb"/><text x="32" y="134.00" font-size="10" fill="#111827" text-anchor="end">1k</text><line x1="40" y1="85.00" x2="860" y2="85.00" stroke="#e5e7eb"/><text x="32" y="89.00" font-size="10" fill="#111827" text-anchor="end">1.5k</text><line x1="40" y1="40.00" x2="860" y2="40.00" stroke="#e5e7eb"/><text x="32" y="44.00" font-size="10" fill="#111827" text-anchor="end">2k</text>
    <line x1="40.00" y1="40" x2="40.00" y2="220" stroke="#e5e7eb" opacity="0.5"/><line x1="121.32" y1="40" x2="121.32" y2="220" stroke="#e5e7eb" opacity="0.5"/><line x1="202.64" y1="40" x2="202.64" y2="220" stroke="#e5e7eb" opacity="0.5"/><line x1="283.97" y1="40" x2="283.97" y2="220" stroke="#e5e7eb" opacity="0.5"/><line x1="365.29" y1="40" x2="365.29" y2="220" stroke="#e5e7eb" opacity="0.5"/><line x1="446.61" y1="40" x2="446.61" y2="220" stroke="#e5e7eb" opacity="0.5"/><line x1="527.93" y1="40" x2="527.93" y2="220" stroke="#e5e7eb" opacity="0.5"/><line x1="609.26" y1="40" x2="609.26" y2="220" stroke="#e5e7eb" opacity="0.5"/><line x1="690.58" y1="40" x2="690.58" y2="220" stroke="#e5e7eb" opacity="0.5"/><line x1="771.90" y1="40" x2="771.90" y2="220" stroke="#e5e7eb" opacity="0.5"/><line x1="853.22" y1="40" x2="853.22" y2="220" stroke="#e5e7eb" opacity="0.5"/>
    <line x1="40" y1="220" x2="860" y2="220" stroke="#9ca3af"/>
    <line x1="40" y1="40"   x2="40"   y2="220" stroke="#9ca3af"/>
    <path d="M 40.00 219.82 L 43.39 214.15 L 46.78 214.06 L 50.17 214.06 L 53.55 213.25 L 56.94 213.25 L 60.33 204.88 L 63.72 185.98 L 67.11 185.98 L 70.50 180.94 L 73.88 152.59 L 77.27 159.97 L 80.66 158.89 L 84.05 158.17 L 87.44 139.63 L 90.83 139.63 L 94.21 157.18 L 97.60 154.66 L 100.99 154.39 L 104.38 151.60 L 107.77 150.97 L 111.16 150.70 L 114.55 149.80 L 117.93 149.80 L 121.32 147.46 L 124.71 144.94 L 128.10 144.76 L 131.49 140.71 L 134.88 134.23 L 138.26 134.23 L 141.65 133.69 L 145.04 133.69 L 148.43 133.69 L 151.82 133.69 L 155.21 133.69 L 158.60 133.69 L 161.98 132.97 L 165.37 132.97 L 168.76 132.97 L 172.15 132.97 L 175.54 132.97 L 178.93 132.97 L 182.31 132.97 L 185.70 132.97 L 189.09 132.97 L 192.48 132.97 L 195.87 132.97 L 199.26 132.97 L 202.64 132.97 L 206.03 132.97 L 209.42 132.97 L 212.81 132.97 L 216.20 132.97 L 219.59 132.97 L 222.98 132.97 L 226.36 132.97 L 229.75 132.97 L 233.14 132.97 L 236.53 132.97 L 239.92 132.97 L 243.31 132.97 L 246.69 132.97 L 250.08 132.97 L 253.47 132.97 L 256.86 132.97 L 260.25 132.97 L 263.64 132.97 L 267.02 132.97 L 270.41 132.97 L 273.80 132.97 L 277.19 132.97 L 280.58 132.97 L 283.97 132.97 L 287.36 132.97 L 290.74 132.97 L 294.13 132.97 L 297.52 132.97 L 300.91 132.97 L 304.30 132.97 L 307.69 132.97 L 311.07 132.97 L 314.46 132.97 L 317.85 132.97 L 321.24 132.97 L 324.63 132.97 L 328.02 132.97 L 331.40 132.97 L 334.79 132.97 L 338.18 132.97 L 341.57 132.97 L 344.96 132.97 L 348.35 132.97 L 351.74 132.97 L 355.12 132.97 L 358.51 132.97 L 361.90 132.97 L 365.29 132.97 L 368.68 132.97 L 372.07 132.97 L 375.45 132.97 L 378.84 132.97 L 382.23 132.97 L 385.62 132.97 L 389.01 132.97 L 392.40 132.97 L 395.79 132.97 L 399.17 132.97 L 402.56 132.97 L 405.95 132.97 L 409.34 132.97 L 412.73 132.97 L 416.12 132.97 L 419.50 132.97 L 422.89 132.97 L 426.28 132.97 L 429.67 132.97 L 433.06 132.97 L 436.45 132.97 L 439.83 132.97 L 443.22 132.97 L 446.61 132.97 L 450.00 132.97 L 453.39 132.97 L 456.78 132.97 L 460.17 132.97 L 463.55 132.97 L 466.94 132.97 L 470.33 132.97 L 473.72 132.97 L 477.11 132.97 L 480.50 132.97 L 483.88 132.97 L 487.27 132.97 L 490.66 132.97 L 494.05 132.97 L 497.44 132.97 L 500.83 132.97 L 504.21 132.97 L 507.60 132.97 L 510.99 132.97 L 514.38 132.97 L 517.77 132.97 L 521.16 132.97 L 524.55 132.97 L 527.93 132.97 L 531.32 132.97 L 534.71 132.97 L 538.10 132.97 L 541.49 132.97 L 544.88 132.97 L 548.26 132.97 L 551.65 132.97 L 555.04 132.97 L 558.43 124.51 L 561.82 120.64 L 565.21 116.77 L 568.60 112.90 L 571.98 109.03 L 575.37 105.97 L 578.76 105.97 L 582.15 105.97 L 585.54 105.97 L 588.93 105.97 L 592.31 105.79 L 595.70 103.09 L 599.09 98.41 L 602.48 98.41 L 605.87 98.41 L 609.26 98.41 L 612.64 98.41 L 616.03 98.41 L 619.42 98.41 L 622.81 98.41 L 626.20 98.41 L 629.59 98.41 L 632.98 98.41 L 636.36 98.41 L 639.75 98.41 L 643.14 98.41 L 646.53 98.41 L 649.92 98.41 L 653.31 98.41 L 656.69 98.41 L 660.08 98.41 L 663.47 98.41 L 666.86 98.41 L 670.25 98.41 L 673.64 98.41 L 677.02 98.41 L 680.41 98.41 L 683.80 98.41 L 687.19 98.41 L 690.58 98.41 L 693.97 98.41 L 697.36 98.41 L 700.74 98.41 L 704.13 98.41 L 707.52 98.41 L 710.91 98.41 L 714.30 98.41 L 717.69 98.41 L 721.07 98.41 L 724.46 98.41 L 727.85 98.41 L 731.24 98.41 L 734.63 98.41 L 738.02 98.41 L 741.40 98.41 L 744.79 98.41 L 748.18 98.41 L 751.57 98.41 L 754.96 98.41 L 758.35 98.41 L 761.74 98.41 L 765.12 98.41 L 768.51 98.41 L 771.90 98.41 L 775.29 98.41 L 778.68 98.41 L 782.07 98.41 L 785.45 98.41 L 788.84 98.41 L 792.23 98.41 L 795.62 98.41 L 799.01 98.41 L 802.40 98.41 L 805.79 98.41 L 809.17 98.41 L 812.56 98.41 L 815.95 98.41 L 819.34 98.41 L 822.73 98.41 L 826.12 98.41 L 829.50 98.41 L 832.89 98.41 L 836.28 98.41 L 839.67 98.41 L 843.06 98.41 L 846.45 98.41 L 849.83 98.41 L 853.22 98.41 L 856.61 98.41 L 860.00 98.41" fill="none" stroke="#111827" stroke-width="2"/>
    <circle cx="860.00" cy="98.41" r="3" fill="#111827"/>
    <text x="40.00" y="235.00" font-size="9" fill="#111827" text-anchor="middle" transform="rotate(-45 40.00 235.00)">09.08.2025</text><text x="121.32" y="235.00" font-size="9" fill="#111827" text-anchor="middle" transform="rotate(-45 121.32 235.00)">09.08.2025</text><text x="202.64" y="235.00" font-size="9" fill="#111827" text-anchor="middle" transform="rotate(-45 202.64 235.00)">24.08.2025</text><text x="283.97" y="235.00" font-size="9" fill="#111827" text-anchor="middle" transform="rotate(-45 283.97 235.00)">15.09.2025</text><text x="365.29" y="235.00" font-size="9" fill="#111827" text-anchor="middle" transform="rotate(-45 365.29 235.00)">09.10.2025</text><text x="446.61" y="235.00" font-size="9" fill="#111827" text-anchor="middle" transform="rotate(-45 446.61 235.00)">02.11.2025</text><text x="527.93" y="235.00" font-size="9" fill="#111827" text-anchor="middle" transform="rotate(-45 527.93 235.00)">26.11.2025</text><text x="609.26" y="235.00" font-size="9" fill="#111827" text-anchor="middle" transform="rotate(-45 609.26 235.00)">10.12.2025</text><text x="690.58" y="235.00" font-size="9" fill="#111827" text-anchor="middle" transform="rotate(-45 690.58 235.00)">03.01.2026</text><text x="771.90" y="235.00" font-size="9" fill="#111827" text-anchor="middle" transform="rotate(-45 771.90 235.00)">27.01.2026</text><text x="853.22" y="235.00" font-size="9" fill="#111827" text-anchor="middle" transform="rotate(-45 853.22 235.00)">20.02.2026</text>
  </g>
</svg>