<svg xmlns="http://www.w3.org/2000/svg" width="900" height="290" style="font-family: -apple-system, BlinkMacSystemFont, 'Segoe UI', Helvetica, Arial, sans-serif;">
  <rect width="100%" height="100%" fill="#0d1117"/>
  <g>
    <line x1="40" y1="220.00" x2="860" y2="220.00" stroke="#30363d"/><text x="32" y="224.00" font-size="10" fill="#c9d1d9" text-anchor="end">0</text><line x1="40" y1="175.00" x2="860" y2="175.00" stroke="#30363d"/><text x="32" y="179.00" font-size="10" fill="#c9d1d9" text-anchor="end">500</text><line x1="40" y1="130.00" x2="860" y2="130.00" stroke="#30363d"/><text x="32" y="134.00" font-size="10" fill="#c9d1d9" text-anchor="end">1k</text><line x1="40" y1="85.00" x2="860" y2="85.00" stroke="#30363d"/><text x="32" y="89.00" font-size="10" fill="#c9d1d9" text-anchor="end">1.5k</text><line x1="40" y1="40.00" x2="860" y2="40.00" stroke="#30363d"/><text x="32" y="44.00" font-size="10" fill="#c9d1d9" text-anchor="end">2k</text>
    <line x1="40.00" y1="40" x2="40.00" y2="220" stroke="#30363d" opacity="0.5"/><line x1="120.11" y1="40" x2="120.11" y2="220" stroke="#30363d" opacity="0.5"/><line x1="200.23" y1="40" x2="200.23" y2="220" stroke="#30363d" opacity="0.5"/><line x1="280.34" y1="40" x2="280.34" y2="220" stroke="#30363d" opacity="0.5"/><line x1="360.46" y1="40" x2="360.46" y2="220" stroke="#30363d" opacity="0.5"/><line x1="440.57" y1="40" x2="440.57" y2="220" stroke="#30363d" opacity="0.5"/><line x1="520.69" y1="40" x2="520.69" y2="220" stroke="#30363d" opacity="0.5"/><line x1="600.80" y1="40" x2="600.80" y2="220" stroke="#30363d" opacity="0.5"/><line x1="680.92" y1="40" x2="680.92" y2="220" stroke="#30363d" opacity="0.5"/><line x1="761.03" y1="40" x2="761.03" y2="220" stroke="#30363d" opacity="0.5"/><line x1="841.15" y1="40" x2="841.15" y2="220" stroke="#30363d" opacity="0.5"/>
    <line x1="40" y1="220" x2="860" y2="220" stroke="#30363d"/>
    <line x1="40" y1="40"   x2="40"   y2="220" stroke="#30363d"/>
    <path d="M 40.00 219.82 L 44.71 214.15 L 49.43 214.06 L 54.14 214.06 L 58.85 213.25 L 63.56 213.25 L 68.28 204.88 L 72.99 185.98 L 77.70 185.98 L 82.41 180.94 L 87.13 152.59 L 91.84 159.97 L 96.55 158.89 L 101.26 158.17 L 105.98 139.63 L 110.69 139.63 L 115.40 157.18 L 120.11 154.66 L 124.83 154.39 L 129.54 151.60 L 134.25 150.97 L 138.97 150.70 L 143.68 149.80 L 148.39 149.80 L 153.10 147.46 L 157.82 144.94 L 162.53 144.76 L 167.24 140.71 L 171.95 134.23 L 176.67 134.23 L 181.38 133.69 L 186.09 133.69 L 190.80 133.69 L 195.52 133.69 L 200.23 133.69 L 204.94 133.69 L 209.66 132.97 L 214.37 132.97 L 219.08 132.97 L 223.79 132.97 L 228.51 132.97 L 233.22 132.97 L 237.93 132.97 L 242.64 132.97 L 247.36 132.97 L 252.07 132.97 L 256.78 132.97 L 261.49 132.97 L 266.21 132.97 L 270.92 132.97 L 275.63 132.97 L 280.34 132.97 L 285.06 132.97 L 289.77 132.97 L 294.48 132.97 L 299.20 132.97 L 303.91 132.97 L 308.62 132.97 L 313.33 132.97 L 318.05 132.97 L 322.76 132.97 L 327.47 132.97 L 332.18 132.97 L 336.90 132.97 L 341.61 132.97 L 346.32 132.97 L 351.03 132.97 L 355.75 132.97 L 360.46 132.97 L 365.17 132.97 L 369.89 132.97 L 374.60 132.97 L 379.31 132.97 L 384.02 132.97 L 388.74 132.97 L 393.45 132.97 L 398.16 132.97 L 402.87 132.97 L 407.59 132.97 L 412.30 132.97 L 417.01 132.97 L 421.72 132.97 L 426.44 132.97 L 431.15 132.97 L 435.86 132.97 L 440.57 132.97 L 445.29 132.97 L 450.00 132.97 L 454.71 132.97 L 459.43 132.97 L 464.14 132.97 L 468.85 132.97 L 473.56 132.97 L 478.28 132.97 L 482.99 132.97 L 487.70 132.97 L 492.41 132.97 L 497.13 132.97 L 501.84 132.97 L 506.55 132.97 L 511.26 132.97 L 515.98 132.97 L 520.69 132.97 L 525.40 132.97 L 530.11 132.97 L 534.83 132.97 L 539.54 132.97 L 544.25 132.97 L 548.97 132.97 L 553.68 132.97 L 558.39 132.97 L 563.10 132.97 L 567.82 132.97 L 572.53 132.97 L 577.24 132.97 L 581.95 132.97 L 586.67 132.97 L 591.38 132.97 L 596.09 132.97 L 600.80 132.97 L 605.52 132.97 L 610.23 132.97 L 614.94 132.97 L 619.66 132.97 L 624.37 132.97 L 629.08 132.97 L 633.79 132.97 L 638.51 132.97 L 643.22 132.97 L 647.93 132.97 L 652.64 132.97 L 657.36 132.97 L 662.07 132.97 L 666.78 132.97 L 671.49 132.97 L 676.21 132.97 L 680.92 132.97 L 685.63 132.97 L 690.34 132.97 L 695.06 132.97 L 699.77 132.97 L 704.48 132.97 L 709.20 132.97 L 713.91 132.97 L 718.62 132.97 L 723.33 132.97 L 728.05 132.97 L 732.76 132.97 L 737.47 132.97 L 742.18 132.97 L 746.90 132.97 L 751.61 132.97 L 756.32 132.97 L 761.03 124.51 L 765.75 120.64 L 770.46 116.77 L 775.17 112.90 L 779.89 109.03 L 784.60 105.97 L 789.31 105.97 L 794.02 105.97 L 798.74 105.97 L 803.45 105.97 L 808.16 105.79 L 812.87 103.09 L 817.59 98.41 L 822.30 98.41 L 827.01 98.41 L 831.72 98.41 L 836.44 98.41 L 841.15 98.41 L 845.86 98.41 L 850.57 98.41 L 855.29 98.41 L 860.00 98.41" fill="none" stroke="#3fb950" stroke-width="2"/>
    <circle cx="860.00" cy="98.41" r="3" fill="#3fb950"/>
    <text x="40.00" y="235.00" font-size="9" fill="#c9d1d9" text-anchor="middle" transform="rotate(-45 40.00 235.00)">09.08.2025</text><text x="120.11" y="235.00" font-size="9" fill="#c9d1d9" text-anchor="middle" transform="rotate(-45 120.11 235.00)">09.08.2025</text><text x="200.23" y="235.00" font-size="9" fill="#c9d1d9" text-anchor="middle" transform="rotate(-45 200.23 235.00)">13.08.2025</text><text x="280.34" y="235.00" font-size="9" fill="#c9d1d9" text-anchor="middle" transform="rotate(-45 280.34 235.00)">27.08.2025</text><text x="360.46" y="235.00" font-size="9" fill="#c9d1d9" text-anchor="middle" transform="rotate(-45 360.46 235.00)">11.09.2025</text><text x="440.57" y="235.00" font-size="9" fill="#c9d1d9" text-anchor="middle" transform="rotate(-45 440.57 235.00)">28.09.2025</text><text x="520.69" y="235.00" font-size="9" fill="#c9d1d9" text-anchor="middle" transform="rotate(-45 520.69 235.00)">15.10.2025</text><text x="600.80" y="235.00" font-size="9" fill="#c9d1d9" text-anchor="middle" transform="rotate(-45 600.80 235.00)">01.11.2025</text><text x="680.92" y="235.00" font-size="9" fill="#c9d1d9" text-anchor="middle" transform="rotate(-45 680.92 235.00)">18.11.2025</text><text x="761.03" y="235.00" font-size="9" fill="#c9d1d9" text-anchor="middle" transform="rotate(-45 761.03 235.00)">04.12.2025</text><text x="841.15" y="235.00" font-size="9" fill="#c9d1d9" text-anchor="middle" transform="rotate(-45 841.15 235.00)">12.12.2025</text>
  </g>
</svg>