<svg xmlns="http://www.w3.org/2000/svg" width="900" height="290" style="font-family: -apple-system, BlinkMacSystemFont, 'Segoe UI', Helvetica, Arial, sans-serif;">
  <rect width="100%" height="100%" fill="white"/>
  <g>
    <line x1="40" y1="220.00" x2="860" y2="220.00" stroke="#e5e7eb"/><text x="32" y="224.00" font-size="10" fill="#111827" text-anchor="end">0</text><line x1="40" y1="175.00" x2="860" y2="175.00" stroke="#e5e7eb"/><text x="32" y="179.00" font-size="10" fill="#111827" text-anchor="end">500</text><line x1="40" y1="130.00" x2="860" y2="130.00" stroke="#e5e7eb"/><text x="32" y="134.00" font-size="10" fill="#111827" text-anchor="end">1k</text><line x1="40" y1="85.00" x2="860" y2="85.00" stroke="#e5e7eb"/><text x="32" y="89.00" font-size="10" fill="#111827" text-anchor="end">1.5k</text><line x1="40" y1="40.00" x2="860" y2="40.00" stroke="#e5e7eb"/><text x="32" y="44.00" font-size="10" fill="#111827" text-anchor="end">2k</text>
    <line x1="40.00" y1="40" x2="40.00" y2="220" stroke="#e5e7eb" opacity="0.5"/><line x1="119.82" y1="40" x2="119.82" y2="220" stroke="#e5e7eb" opacity="0.5"/><line x1="199.65" y1="40" x2="199.65" y2="220" stroke="#e5e7eb" opacity="0.5"/><line x1="279.47" y1="40" x2="279.47" y2="220" stroke="#e5e7eb" opacity="0.5"/><line x1="359.29" y1="40" x2="359.29" y2="220" stroke="#e5e7eb" opacity="0.5"/><line x1="439.12" y1="40" x2="439.12" y2="220" stroke="#e5e7eb" opacity="0.5"/><line x1="518.94" y1="40" x2="518.94" y2="220" stroke="#e5e7eb" opacity="0.5"/><line x1="598.76" y1="40" x2="598.76" y2="220" stroke="#e5e7eb" opacity="0.5"/><line x1="678.58" y1="40" x2="678.58" y2="220" stroke="#e5e7eb" opacity="0.5"/><line x1="758.41" y1="40" x2="758.41" y2="220" stroke="#e5e7eb" opacity="0.5"/><line x1="838.23" y1="40" x2="838.23" y2="220" stroke="#e5e7eb" opacity="0.5"/>
    <line x1="40" y1="220" x2="860" y2="220" stroke="#9ca3af"/>
    <line x1="40" y1="40"   x2="40"   y2="220" stroke="#9ca3af"/>
    <path d="M 40.00 219.82 L 47.26 214.15 L 54.51 214.06 L 61.77 214.06 L 69.03 213.25 L 76.28 213.25 L 83.54 204.88 L 90.80 185.98 L 98.05 185.98 L 105.31 180.94 L 112.57 152.59 L 119.82 159.97 L 127.08 158.89 L 134.34 158.17 L 141.59 139.63 L 148.85 139.63 L 156.11 157.18 L 163.36 154.66 L 170.62 154.39 L 177.88 151.60 L 185.13 150.97 L 192.39 150.70 L 199.65 149.80 L 206.90 149.80 L 214.16 147.46 L 221.42 144.94 L 228.67 144.76 L 235.93 140.71 L 243.19 134.23 L 250.44 134.23 L 257.70 133.69 L 264.96 133.69 L 272.21 133.69 L 279.47 133.69 L 286.73 133.69 L 293.98 133.69 L 301.24 132.97 L 308.50 132.97 L 315.75 132.97 L 323.01 132.97 L 330.27 132.97 L 337.52 132.97 L 344.78 132.97 L 352.04 132.97 L 359.29 132.97 L 366.55 132.97 L 373.81 132.97 L 381.06 132.97 L 388.32 132.97 L 395.58 132.97 L 402.83 132.97 L 410.09 132.97 L 417.35 132.97 L 424.60 132.97 L 431.86 132.97 L 439.12 132.97 L 446.37 132.97 L 453.63 132.97 L 460.88 132.97 L 468.14 132.97 L 475.40 132.97 L 482.65 132.97 L 489.91 132.97 L 497.17 132.97 L 504.42 132.97 L 511.68 132.97 L 518.94 132.97 L 526.19 132.97 L 533.45 132.97 L 540.71 132.97 L 547.96 132.97 L 555.22 132.97 L 562.48 132.97 L 569.73 132.97 L 576.99 132.97 L 584.25 132.97 L 591.50 132.97 L 598.76 132.97 L 606.02 132.97 L 613.27 132.97 L 620.53 132.97 L 627.79 132.97 L 635.04 132.97 L 642.30 132.97 L 649.56 132.97 L 656.81 132.97 L 664.07 132.97 L 671.33 132.97 L 678.58 132.97 L 685.84 132.97 L 693.10 132.97 L 700.35 132.97 L 707.61 132.97 L 714.87 132.97 L 722.12 132.97 L 729.38 132.97 L 736.64 132.97 L 743.89 132.97 L 751.15 132.97 L 758.41 132.97 L 765.66 132.97 L 772.92 132.97 L 780.18 132.97 L 787.43 132.97 L 794.69 132.97 L 801.95 132.97 L 809.20 132.97 L 816.46 132.97 L 823.72 132.97 L 830.97 132.97 L 838.23 132.97 L 845.49 132.97 L 852.74 132.97 L 860.00 132.97" fill="none" stroke="#111827" stroke-width="2"/>
    <circle cx="860.00" cy="132.97" r="3" fill="#111827"/>
    <text x="40.00" y="235.00" font-size="9" fill="#111827" text-anchor="middle" transform="rotate(-45 40.00 235.00)">09.08.2025</text><text x="119.82" y="235.00" font-size="9" fill="#111827" text-anchor="middle" transform="rotate(-45 119.82 235.00)">09.08.2025</text><text x="199.65" y="235.00" font-size="9" fill="#111827" text-anchor="middle" transform="rotate(-45 199.65 235.00)">09.08.2025</text><text x="279.47" y="235.00" font-size="9" fill="#111827" text-anchor="middle" transform="rotate(-45 279.47 235.00)">13.08.2025</text><text x="359.29" y="235.00" font-size="9" fill="#111827" text-anchor="middle" transform="rotate(-45 359.29 235.00)">20.08.2025</text><text x="439.12" y="235.00" font-size="9" fill="#111827" text-anchor="middle" transform="rotate(-45 439.12 235.00)">29.08.2025</text><text x="518.94" y="235.00" font-size="9" fill="#111827" text-anchor="middle" transform="rotate(-45 518.94 235.00)">09.09.2025</text><text x="598.76" y="235.00" font-size="9" fill="#111827" text-anchor="middle" transform="rotate(-45 598.76 235.00)">20.09.2025</text><text x="678.58" y="235.00" font-size="9" fill="#111827" text-anchor="middle" transform="rotate(-45 678.58 235.00)">01.10.2025</text><text x="758.41" y="235.00" font-size="9" fill="#111827" text-anchor="middle" transform="rotate(-45 758.41 235.00)">12.10.2025</text><text x="838.23" y="235.00" font-size="9" fill="#111827" text-anchor="middle" transform="rotate(-45 838.23 235.00)">23.10.2025</text>
  </g>
</svg>