<svg xmlns="http://www.w3.org/2000/svg" width="900" height="290" style="font-family: -apple-system, BlinkMacSystemFont, 'Segoe UI', Helvetica, Arial, sans-serif;">
  <rect width="100%" height="100%" fill="white"/>
  <g>
    <line x1="40" y1="220.00" x2="860" y2="220.00" stroke="#e5e7eb"/><text x="32" y="224.00" font-size="10" fill="#111827" text-anchor="end">0</text><line x1="40" y1="175.00" x2="860" y2="175.00" stroke="#e5e7eb"/><text x="32" y="179.00" font-size="10" fill="#111827" text-anchor="end">500</text><line x1="40" y1="130.00" x2="860" y2="130.00" stroke="#e5e7eb"/><text x="32" y="134.00" font-size="10" fill="#111827" text-anchor="end">1k</text><line x1="40" y1="85.00" x2="860" y2="85.00" stroke="#e5e7eb"/><text x="32" y="89.00" font-size="10" fill="#111827" text-anchor="end">1.5k</text><line x1="40" y1="40.00" x2="860" y2="40.00" stroke="#e5e7eb"/><text x="32" y="44.00" font-size="10" fill="#111827" text-anchor="end">2k</text>
    <line x1="40.00" y1="40" x2="40.00" y2="220" stroke="#e5e7eb" opacity="0.5"/><line x1="120.22" y1="40" x2="120.22" y2="220" stroke="#e5e7eb" opacity="0.5"/><line x1="200.43" y1="40" x2="200.43" y2="220" stroke="#e5e7eb" opacity="0.5"/><line x1="280.65" y1="40" x2="280.65" y2="220" stroke="#e5e7eb" opacity="0.5"/><line x1="360.87" y1="40" x2="360.87" y2="220" stroke="#e5e7eb" opacity="0.5"/><line x1="441.09" y1="40" x2="441.09" y2="220" stroke="#e5e7eb" opacity="0.5"/><line x1="521.30" y1="40" x2="521.30" y2="220" stroke="#e5e7eb" opacity="0.5"/><line x1="601.52" y1="40" x2="601.52" y2="220" stroke="#e5e7eb" opacity="0.5"/><line x1="681.74" y1="40" x2="681.74" y2="220" stroke="#e5e7eb" opacity="0.5"/><line x1="761.96" y1="40" x2="761.96" y2="220" stroke="#e5e7eb" opacity="0.5"/><line x1="842.17" y1="40" x2="842.17" y2="220" stroke="#e5e7eb" opacity="0.5"/>
    <line x1="40" y1="220" x2="860" y2="220" stroke="#9ca3af"/>
    <line x1="40" y1="40"   x2="40"   y2="220" stroke="#9ca3af"/>
    <path d="M 40.00 219.82 L 48.91 214.15 L 57.83 214.06 L 66.74 214.06 L 75.65 213.25 L 84.57 213.25 L 93.48 204.88 L 102.39 185.98 L 111.30 185.98 L 120.22 180.94 L 129.13 152.59 L 138.04 159.97 L 146.96 158.89 L 155.87 158.17 L 164.78 139.63 L 173.70 139.63 L 182.61 157.18 L 191.52 154.66 L 200.43 154.39 L 209.35 151.60 L 218.26 150.97 L 227.17 150.70 L 236.09 149.80 L 245.00 149.80 L 253.91 147.46 L 262.83 144.94 L 271.74 144.76 L 280.65 140.71 L 289.57 134.23 L 298.48 134.23 L 307.39 133.69 L 316.30 133.69 L 325.22 133.69 L 334.13 133.69 L 343.04 133.69 L 351.96 133.69 L 360.87 132.97 L 369.78 132.97 L 378.70 132.97 L 387.61 132.97 L 396.52 132.97 L 405.43 132.97 L 414.35 132.97 L 423.26 132.97 L 432.17 132.97 L 441.09 132.97 L 450.00 132.97 L 458.91 132.97 L 467.83 132.97 L 476.74 132.97 L 485.65 132.97 L 494.57 132.97 L 503.48 132.97 L 512.39 132.97 L 521.30 132.97 L 530.22 132.97 L 539.13 132.97 L 548.04 132.97 L 556.96 132.97 L 565.87 132.97 L 574.78 132.97 L 583.70 132.97 L 592.61 132.97 L 601.52 132.97 L 610.43 132.97 L 619.35 132.97 L 628.26 132.97 L 637.17 132.97 L 646.09 132.97 L 655.00 132.97 L 663.91 132.97 L 672.83 132.97 L 681.74 132.97 L 690.65 132.97 L 699.57 132.97 L 708.48 132.97 L 717.39 132.97 L 726.30 132.97 L 735.22 132.97 L 744.13 132.97 L 753.04 132.97 L 761.96 132.97 L 770.87 132.97 L 779.78 132.97 L 788.70 132.97 L 797.61 132.97 L 806.52 132.97 L 815.43 132.97 L 824.35 132.97 L 833.26 132.97 L 842.17 132.97 L 851.09 132.97 L 860.00 132.97" fill="none" stroke="#111827" stroke-width="2"/>
    <circle cx="860.00" cy="132.97" r="3" fill="#111827"/>
    <text x="40.00" y="235.00" font-size="9" fill="#111827" text-anchor="middle" transform="rotate(-45 40.00 235.00)">09.08.2025</text><text x="120.22" y="235.00" font-size="9" fill="#111827" text-anchor="middle" transform="rotate(-45 120.22 235.00)">09.08.2025</text><text x="200.43" y="235.00" font-size="9" fill="#111827" text-anchor="middle" transform="rotate(-45 200.43 235.00)">09.08.2025</text><text x="280.65" y="235.00" font-size="9" fill="#111827" text-anchor="middle" transform="rotate(-45 280.65 235.00)">13.08.2025</text><text x="360.87" y="235.00" font-size="9" fill="#111827" text-anchor="middle" transform="rotate(-45 360.87 235.00)">13.08.2025</text><text x="441.09" y="235.00" font-size="9" fill="#111827" text-anchor="middle" transform="rotate(-45 441.09 235.00)">21.08.2025</text><text x="521.30" y="235.00" font-size="9" fill="#111827" text-anchor="middle" transform="rotate(-45 521.30 235.00)">28.08.2025</text><text x="601.52" y="235.00" font-size="9" fill="#111827" text-anchor="middle" transform="rotate(-45 601.52 235.00)">06.09.2025</text><text x="681.74" y="235.00" font-size="9" fill="#111827" text-anchor="middle" transform="rotate(-45 681.74 235.00)">15.09.2025</text><text x="761.96" y="235.00" font-size="9" fill="#111827" text-anchor="middle" transform="rotate(-45 761.96 235.00)">24.09.2025</text><text x="842.17" y="235.00" font-size="9" fill="#111827" text-anchor="middle" transform="rotate(-45 842.17 235.00)">03.10.2025</text>
  </g>
</svg>